<svg version="1.2" xmlns="http://www.w3.org/2000/svg" viewBox="0 0 1264 836" width="1264" height="836"><style>.a{fill:#cac6fa}.b{fill:#958deb}.c{fill:#a7a1eb}.d{fill:#e6e6fe}.e{fill:#fff}.f{fill:#1b1447}.g{fill:#dedcfa}.h{fill:#a3eb73}.i{fill:#857de2}.j{fill:#4b5db3}.k{fill:#f29f91}.l{fill:#fbb800}.m{fill:#ffbcb1}.n{fill:#7385d9}.o{fill:#de4040}.p{fill:#f65656}</style><path class="a" d="m278.5 188.4c-33 12-59.2 40.6-59.2 85.4 0 47.4 44.4 86.8 94.6 86.8 46.4 0 95.6-35.7 95.6-89.3 0-76.3-75.2-103.3-131-82.9z"/><path class="a" d="m1001.7 141.1c-27.4 10-49.1 33.8-49.1 70.9 0 39.4 36.9 72.1 78.5 72.1 38.5 0 79.3-29.6 79.3-74.1 0-63.3-62.4-85.8-108.7-68.9z"/><path class="b" d="m1254.2 835.4h-1238c-5.1 0-9.2-4.1-9.2-9.2 0-5.1 4.1-9.2 9.2-9.2h1238c5.1 0 9.2 4.1 9.2 9.2 0 5.1-4.1 9.2-9.2 9.2z"/><path class="a" d="m63.7 169.2c-0.5 0-1-0.4-1-1v-22.9c0-0.5 0.5-1 1-1 0.6 0 1 0.5 1 1v22.9c0 0.6-0.4 1-1 1z"/><path class="a" d="m75.2 157.8h-22.9c-0.6 0-1-0.5-1-1 0-0.6 0.4-1 1-1h22.9c0.5 0 1 0.4 1 1 0 0.5-0.5 1-1 1z"/><path class="a" d="m1197.8 259.1c-0.5 0-1-0.4-1-1v-22.9c0-0.5 0.5-1 1-1 0.6 0 1 0.5 1 1v22.9c0 0.6-0.4 1-1 1z"/><path class="a" d="m1209.2 247.7h-22.8c-0.6 0-1-0.5-1-1 0-0.6 0.4-1 1-1h22.8c0.6 0 1 0.4 1 1 0 0.5-0.4 1-1 1z"/><path class="a" d="m391.1 168.3c-0.6 0-1-0.4-1-1v-16.6c0-0.6 0.4-1 1-1 0.5 0 1 0.4 1 1v16.6c0 0.6-0.5 1-1 1z"/><path class="a" d="m399.4 160h-16.7c-0.5 0-1-0.5-1-1 0-0.6 0.5-1 1-1h16.7c0.5 0 1 0.4 1 1 0 0.5-0.5 1-1 1z"/><path class="a" d="m1031.5 84.6c-0.6 0-1-0.5-1-1v-16.7c0-0.5 0.4-1 1-1 0.5 0 1 0.5 1 1v16.7c0 0.5-0.5 1-1 1z"/><path class="a" d="m1039.8 76.3h-16.6c-0.6 0-1-0.5-1-1 0-0.6 0.4-1 1-1h16.6c0.6 0 1 0.4 1 1 0 0.5-0.4 1-1 1z"/><path class="a" d="m695.1 46.8c-0.6 0-1-0.4-1-1v-16.6c0-0.6 0.4-1 1-1 0.5 0 1 0.4 1 1v16.6c0 0.6-0.5 1-1 1z"/><path class="a" d="m703.4 38.5h-16.6c-0.6 0-1-0.5-1-1 0-0.6 0.4-1 1-1h16.6c0.6 0 1 0.4 1 1 0 0.5-0.4 1-1 1z"/><path class="a" d="m414.1 26.2c-0.6 0-1-0.5-1-1v-23.4c0-0.5 0.4-1 1-1 0.6 0 1 0.5 1 1v23.4c0 0.5-0.4 1-1 1z"/><path class="a" d="m425.8 14.5h-23.4c-0.5 0-1-0.4-1-1 0-0.5 0.5-1 1-1h23.4c0.5 0 1 0.5 1 1 0 0.6-0.5 1-1 1z"/><path class="a" d="m1246.3 110.6c-0.5 0-1-0.5-1-1v-20.3c0-0.5 0.5-1 1-1 0.6 0 1 0.5 1 1v20.3c0 0.5-0.4 1-1 1z"/><path class="a" d="m1256.4 100.4h-20.2c-0.5 0-1-0.4-1-1 0-0.5 0.5-1 1-1h20.2c0.6 0 1 0.5 1 1 0 0.6-0.4 1-1 1z"/><path fill-rule="evenodd" class="a" d="m206.1 55.3c-5.2 0-9.4-4.2-9.4-9.4 0-5.2 4.2-9.4 9.4-9.4 5.2 0 9.5 4.2 9.5 9.4 0 5.2-4.3 9.4-9.5 9.4zm0-16.8c-4.1 0-7.4 3.3-7.4 7.4 0 4.1 3.3 7.4 7.4 7.4 4.1 0 7.5-3.3 7.5-7.4 0-4.1-3.4-7.4-7.5-7.4z"/><path fill-rule="evenodd" class="a" d="m1159.8 144.4c-5.2 0-9.5-4.3-9.5-9.5 0-5.2 4.3-9.4 9.5-9.4 5.2 0 9.4 4.2 9.4 9.4 0 5.2-4.2 9.5-9.4 9.5zm0-16.9c-4.1 0-7.5 3.3-7.5 7.4 0 4.1 3.4 7.5 7.5 7.5 4.1 0 7.4-3.4 7.4-7.5 0-4.1-3.3-7.4-7.4-7.4z"/><path fill-rule="evenodd" class="a" d="m825.3 41.2c-6.9 0-12.4-5.5-12.4-12.3 0-6.9 5.5-12.4 12.4-12.4 6.8 0 12.3 5.5 12.3 12.4 0 6.8-5.5 12.3-12.3 12.3zm0-22.7c-5.8 0-10.4 4.7-10.4 10.4 0 5.7 4.6 10.3 10.4 10.3 5.7 0 10.3-4.6 10.3-10.3 0-5.7-4.6-10.4-10.3-10.4z"/><path fill-rule="evenodd" class="a" d="m12.2 81.4c-6.4 0-11.6-5.2-11.6-11.6 0-6.4 5.2-11.6 11.6-11.6 6.4 0 11.6 5.2 11.6 11.6 0 6.4-5.2 11.6-11.6 11.6zm0-21.2c-5.3 0-9.6 4.3-9.6 9.6 0 5.3 4.3 9.6 9.6 9.6 5.3 0 9.6-4.3 9.6-9.6 0-5.3-4.3-9.6-9.6-9.6z"/><path fill-rule="evenodd" class="a" d="m460.2 222.2c-4.2 0-7.6-3.4-7.6-7.5 0-4.2 3.4-7.6 7.6-7.6 4.2 0 7.5 3.4 7.5 7.6 0 4.1-3.3 7.5-7.5 7.5zm0-13.1c-3.1 0-5.6 2.5-5.6 5.6 0 3 2.5 5.5 5.6 5.5 3 0 5.5-2.5 5.5-5.5 0-3.1-2.5-5.6-5.5-5.6z"/><path class="c" d="m1218 439.5c-0.5 0-1-0.4-1-1v-20.2c0-0.6 0.5-1 1-1 0.6 0 1 0.4 1 1v20.2c0 0.6-0.4 1-1 1z"/><path class="c" d="m1228.1 429.4h-20.2c-0.5 0-1-0.5-1-1 0-0.6 0.5-1 1-1h20.2c0.6 0 1 0.4 1 1 0 0.5-0.4 1-1 1z"/><path class="c" d="m1063.4 392.4c-0.6 0-1-0.4-1-1v-20.2c0-0.5 0.4-1 1-1 0.6 0 1 0.5 1 1v20.2c0 0.6-0.4 1-1 1z"/><path class="c" d="m1073.5 382.3h-20.2c-0.6 0-1-0.4-1-1 0-0.5 0.4-1 1-1h20.2c0.6 0 1 0.5 1 1 0 0.6-0.4 1-1 1z"/><path class="c" d="m171 576.6c-0.5 0-1-0.5-1-1v-20.2c0-0.6 0.5-1 1-1 0.6 0 1 0.4 1 1v20.2c0 0.5-0.4 1-1 1z"/><path class="c" d="m181.1 566.5h-20.2c-0.5 0-1-0.5-1-1 0-0.6 0.5-1 1-1h20.2c0.6 0 1 0.4 1 1 0 0.5-0.4 1-1 1z"/><path class="c" d="m578.8 261.4c-0.6 0-1-0.5-1-1v-25.2c0-0.5 0.4-1 1-1 0.5 0 1 0.5 1 1v25.2c0 0.5-0.5 1-1 1z"/><path class="c" d="m591.3 248.8h-25.1c-0.5 0-1-0.4-1-1 0-0.6 0.5-1 1-1h25.1c0.6 0 1 0.4 1 1 0 0.6-0.4 1-1 1z"/><path class="c" d="m722.6 362c-0.6 0-1-0.4-1-1v-32.6c0-0.5 0.4-1 1-1 0.5 0 1 0.5 1 1v32.6c0 0.6-0.5 1-1 1z"/><path class="c" d="m738.9 345.7h-32.6c-0.6 0-1-0.4-1-1 0-0.5 0.4-1 1-1h32.6c0.5 0 1 0.5 1 1 0 0.6-0.5 1-1 1z"/><path fill-rule="evenodd" class="c" d="m266.2 620.7c-5.1 0-9.4-4.2-9.4-9.4 0-5.2 4.3-9.4 9.4-9.4 5.2 0 9.5 4.2 9.5 9.4 0 5.2-4.3 9.4-9.5 9.4zm0-16.8c-4 0-7.4 3.3-7.4 7.4 0 4.1 3.4 7.4 7.4 7.4 4.1 0 7.5-3.3 7.5-7.4 0-4.1-3.4-7.4-7.5-7.4z"/><path fill-rule="evenodd" class="c" d="m503.2 357.3c-6.6 0-11.9-5.3-11.9-11.9 0-6.5 5.3-11.9 11.9-11.9 6.5 0 11.9 5.4 11.9 11.9 0 6.6-5.4 11.9-11.9 11.9zm0-21.8c-5.5 0-9.9 4.5-9.9 9.9 0 5.5 4.4 9.9 9.9 9.9 5.4 0 9.9-4.4 9.9-9.9 0-5.4-4.5-9.9-9.9-9.9z"/><path fill-rule="evenodd" class="c" d="m811.1 266.3c-7.6 0-13.8-6.1-13.8-13.7 0-7.6 6.2-13.8 13.8-13.8 7.6 0 13.8 6.2 13.8 13.8 0 7.6-6.2 13.7-13.8 13.7zm0-25.5c-6.5 0-11.8 5.3-11.8 11.8 0 6.5 5.3 11.7 11.8 11.7 6.5 0 11.8-5.2 11.8-11.7 0-6.5-5.3-11.8-11.8-11.8z"/><path fill-rule="evenodd" class="c" d="m1142.6 372.7c-6.2 0-11.3-5.1-11.3-11.3 0-6.3 5.1-11.4 11.3-11.4 6.3 0 11.4 5.1 11.4 11.4 0 6.2-5.1 11.3-11.4 11.3zm0-20.7c-5.1 0-9.3 4.2-9.3 9.4 0 5.1 4.2 9.3 9.3 9.3 5.2 0 9.4-4.2 9.4-9.3 0-5.2-4.2-9.4-9.4-9.4z"/><path fill-rule="evenodd" class="c" d="m260.3 504.8c-6.2 0-11.3-5-11.3-11.2 0-6.2 5.1-11.3 11.3-11.3 6.2 0 11.3 5.1 11.3 11.3 0 6.2-5.1 11.2-11.3 11.2zm0-20.5c-5.1 0-9.3 4.2-9.3 9.3 0 5.1 4.2 9.2 9.3 9.2 5.1 0 9.3-4.1 9.3-9.2 0-5.1-4.2-9.3-9.3-9.3z"/><path fill-rule="evenodd" class="c" d="m21.1 560.3c-5.5 0-9.9-4.5-9.9-9.9 0-5.5 4.4-9.9 9.9-9.9 5.4 0 9.9 4.4 9.9 9.9 0 5.4-4.5 9.9-9.9 9.9zm0-17.8c-4.4 0-7.9 3.5-7.9 7.9 0 4.3 3.5 7.9 7.9 7.9 4.3 0 7.9-3.6 7.9-7.9 0-4.4-3.6-7.9-7.9-7.9z"/><path class="d" d="m819.7 80.5c0-5.9-4.8-10.7-10.7-10.7h-345.2c-5.9 0-10.7 4.8-10.7 10.7v2.7h366.6z"/><path class="e" d="m453.1 83.2v70.3c0 4.2 0.9 8.4 2.7 12.2h361.2c1.8-3.8 2.7-8 2.7-12.2v-70.3z"/><path class="e" d="m460.5 176c2.6 5.5 8.1 9 14.2 9h323.4c6.1 0 11.6-3.5 14.2-9l4.7-10.3h-361.2z"/><path class="d" d="m792.8 175.4h-312.8l-5.2-9.7h323.2z"/><path class="f" d="m764.2 155.3h-264.1c-3.9 0-7-3.1-7-7v-8.6c0-3.9 3.1-7 7-7h264.1c3.9 0 7 3.1 7 7v8.6c0 3.9-3.1 7-7 7z"/><path class="g" d="m669.7 151.5h-66.6c-1.8 0-3.2-1.5-3.2-3.2v-8.5c0-1.8 1.4-3.2 3.2-3.2h66.6c1.8 0 3.2 1.4 3.2 3.2v8.5c0 1.7-1.4 3.2-3.2 3.2z"/><path class="d" d="m795.9 93.1h-318.9c-1.2 0-2.2-0.9-2.2-2.1 0-1.1 1-2.1 2.2-2.1h318.9c1.1 0 2.1 1 2.1 2.1 0 1.2-1 2.1-2.1 2.1z"/><path class="d" d="m795.9 102.5h-318.9c-1.2 0-2.2-0.9-2.2-2.1 0-1.2 1-2.1 2.2-2.1h318.9c1.1 0 2.1 0.9 2.1 2.1 0 1.2-1 2.1-2.1 2.1z"/><path class="d" d="m795.9 111.9h-318.9c-1.2 0-2.2-0.9-2.2-2.1 0-1.2 1-2.1 2.2-2.1h318.9c1.1 0 2.1 0.9 2.1 2.1 0 1.2-1 2.1-2.1 2.1z"/><path class="h" d="m760.2 76.5c0 1.8-1.4 3.2-3.2 3.2-1.8 0-3.3-1.4-3.3-3.2 0-1.8 1.5-3.3 3.3-3.3 1.8 0 3.2 1.5 3.2 3.3z"/><path class="h" d="m778.8 76.5c0 1.8-1.5 3.2-3.3 3.2-1.8 0-3.3-1.4-3.3-3.2 0-1.8 1.5-3.3 3.3-3.3 1.8 0 3.3 1.5 3.3 3.3z"/><path class="h" d="m797.3 76.5c0 1.8-1.5 3.2-3.3 3.2-1.8 0-3.2-1.4-3.2-3.2 0-1.8 1.4-3.3 3.2-3.3 1.8 0 3.3 1.5 3.3 3.3z"/><path class="e" d="m168.4 261.3h-8v-117.8c0-13.1 10.6-23.8 23.7-23.8h269v8h-269c-8.7 0-15.7 7.1-15.7 15.8z"/><path class="e" d="m282.3 457.6h-235.3c-14.3 0-25.9-11.6-25.9-25.9v-151.8c0-14.4 11.6-26 25.9-26h235.3c14.3 0 25.9 11.6 25.9 26v151.8c0 14.3-11.6 25.9-25.9 25.9z"/><path fill-rule="evenodd" class="d" d="m281.6 446.8h-233.8c-8 0-14.5-6.5-14.5-14.4v-153.2c0-8 6.5-14.5 14.5-14.5h233.8c7.9 0 14.4 6.5 14.4 14.5v153.2c0 7.9-6.5 14.4-14.4 14.4zm-233.8-180.1c-6.9 0-12.5 5.6-12.5 12.5v153.2c0 6.8 5.6 12.4 12.5 12.4h233.8c6.8 0 12.4-5.6 12.4-12.4v-153.2c0-6.9-5.6-12.5-12.4-12.5z"/><path class="i" d="m51.2 356.1c0-34.7 28.2-62.8 62.9-62.8 34.7 0 62.8 28.1 62.8 62.8 0 34.7-28.1 62.8-62.8 62.8-34.7 0-62.9-28.1-62.9-62.8z"/><path class="j" d="m113.2 356.3c-1.1 0.6-12.7-25.6-7.7-39.1 5-13.4 24.2-14.2 32.1-4 8 10.2 4 28.4-24.4 43.1z"/><path class="j" d="m113.2 356.3c1.1 0.7-15.9 23.9-30 26.3-14.1 2.4-24.4-13.9-19.5-25.9 4.8-12 22.6-17.6 49.5-0.4z"/><path class="j" d="m113.2 356.3c0.1-1.2 28.6 1.8 37.7 12.9 9.2 11 0.3 28-12.6 29.8-12.8 1.8-26.6-10.7-25.1-42.7z"/><path class="j" d="m101.8 355.2c0-6.2 5-11.3 11.3-11.3 6.2 0 11.3 5.1 11.3 11.3 0 6.3-5.1 11.3-11.3 11.3-6.3 0-11.3-5-11.3-11.3z"/><path class="e" d="m185.8 304.1h-138.9v-2h138.9z"/><path class="e" d="m185.8 319.2h-138.9v-2h138.9z"/><path class="e" d="m185.8 334.2h-138.9v-2h138.9z"/><path class="e" d="m185.8 349.2h-138.9v-2h138.9z"/><path class="e" d="m185.8 364.3h-138.9v-2h138.9z"/><path class="e" d="m185.8 379.3h-138.9v-2h138.9z"/><path class="e" d="m185.8 394.3h-138.9v-2h138.9z"/><path class="e" d="m185.8 409.4h-138.9v-2h138.9z"/><path class="e" d="m169.9 425.2h-2v-138.9h2z"/><path class="e" d="m154.9 425.2h-2v-138.9h2z"/><path class="e" d="m139.9 425.2h-2v-138.9h2z"/><path class="e" d="m124.8 425.2h-2v-138.9h2z"/><path class="e" d="m109.8 425.2h-2v-138.9h2z"/><path class="e" d="m94.8 425.2h-2v-138.9h2z"/><path class="e" d="m79.7 425.2h-2v-138.9h2z"/><path class="e" d="m64.7 425.2h-2v-138.9h2z"/><path class="d" d="m269.3 307.8h-71.6c-1.8 0-3.2-1.4-3.2-3.2 0-1.7 1.4-3.1 3.2-3.1h71.6c1.7 0 3.1 1.4 3.1 3.1 0 1.8-1.4 3.2-3.1 3.2z"/><path class="d" d="m269.3 327.7h-71.6c-1.8 0-3.2-1.4-3.2-3.1 0-1.7 1.4-3.1 3.2-3.1h71.6c1.7 0 3.1 1.4 3.1 3.1 0 1.7-1.4 3.1-3.1 3.1z"/><path class="d" d="m269.3 347.7h-71.6c-1.8 0-3.2-1.4-3.2-3.2 0-1.7 1.4-3.1 3.2-3.1h71.6c1.7 0 3.1 1.4 3.1 3.1 0 1.8-1.4 3.2-3.1 3.2z"/><path class="d" d="m269.3 367.6h-71.6c-1.8 0-3.2-1.4-3.2-3.1 0-1.7 1.4-3.1 3.2-3.1h71.6c1.7 0 3.1 1.4 3.1 3.1 0 1.7-1.4 3.1-3.1 3.1z"/><path class="d" d="m269.3 387.6h-71.6c-1.8 0-3.2-1.4-3.2-3.2 0-1.7 1.4-3.1 3.2-3.1h71.6c1.7 0 3.1 1.4 3.1 3.1 0 1.8-1.4 3.2-3.1 3.2z"/><path class="d" d="m269.3 407.5h-71.6c-1.8 0-3.2-1.4-3.2-3.1 0-1.7 1.4-3.1 3.2-3.1h71.6c1.7 0 3.1 1.4 3.1 3.1 0 1.7-1.4 3.1-3.1 3.1z"/><path class="d" d="m87 466.5h-13.4c-4.7 0-8.6-3.8-8.6-8.5v-0.4h30.5v0.4c0 4.7-3.8 8.5-8.5 8.5z"/><path class="d" d="m251.8 466.5h-13.4c-4.7 0-8.6-3.8-8.6-8.5v-0.4h30.5v0.4c0 4.7-3.8 8.5-8.5 8.5z"/><path class="d" d="m312.4 430.4l-4.2 0.9v-43.7l4.2 0.9c4.5 1 7.7 4.7 7.7 8.8v24.2c0 4.2-3.2 7.8-7.7 8.9z"/><path class="d" d="m312.4 316l-4.2 0.5v-23.7l4.2 0.5c4.5 0.6 7.7 2.5 7.7 4.8v13.1c0 2.2-3.2 4.2-7.7 4.8z"/><path class="f" d="m207.3 462.2l-7.2 0.9-5.3-40.2 7.2-1z"/><path class="f" d="m200.2 411.4l1 7.1c0.2 1.8-1.1 3.4-2.8 3.6-1.8 0.3-3.4-1-3.7-2.8l-0.9-7c-2.7 1.6-4.3 4.7-3.9 8 0.6 4.5 4.7 7.6 9.2 7 4.4-0.5 7.6-4.6 7-9.1-0.5-3.3-2.8-5.9-5.9-6.8z"/><path class="f" d="m202.2 476.1l-0.9-7c-0.2-1.8 1-3.4 2.8-3.7 1.8-0.2 3.4 1 3.7 2.8l0.9 7.1c2.7-1.6 4.3-4.8 3.9-8.1-0.6-4.4-4.7-7.6-9.2-7-4.4 0.6-7.6 4.7-7 9.2 0.4 3.3 2.8 5.9 5.8 6.7z"/><path class="k" d="m210.6 435.9c-1.1-1.8-2.6-3.6-4.7-3.6-1.9-0.1-3.5 1.3-5.4 1.3-1.5 0-2.9-0.8-4.4-0.8-4.3 0.1-10.9 11.4-15.2 11.4l5.8 8.8c5.1 1.6 10.5 3 15.7 2 5.2-1.1 10.2-5.1 10.7-10.4 0.3-3.1-0.9-6.1-2.5-8.7z"/><path class="l" d="m143.2 448.8c-4.2-23.9-4.9-46-26.3-63.8l-17.6 39.4c3 17.2 11.3 33.6 22.1 47.4 7.8-6.7 14.9-14.9 21.8-23z"/><path class="k" d="m188.9 440.6c-11.9 4.8-32.9 7.4-45.6 9.2q0-0.5-0.1-1c-6.9 8.1-14 16.3-21.8 23q0.8 1 1.5 2c1.6 1.9 3.8 3 6.2 3.1 21 1 48.7-13.1 65.7-23.3-1-7.1-1.4-8.4-5.9-13z"/><path class="f" d="m36.5 797.1c-0.4 0.5-6.1 6.5-6.1 19.9h45.6c0 0-1.1-12.5-17.9-14-16.9-1.4-21.6-5.9-21.6-5.9z"/><path class="f" d="m115.4 797.1c-0.3 0.5-4.9 6.5-2.5 19.9h45.6c0 0-3.4-12.5-20.5-14-17.1-1.4-22.6-5.9-22.6-5.9z"/><path class="j" d="m137.2 550.4h-92.3v34.6c0.6 10.6-2.2 135.8-11.6 216.1 8.3 6.8 18.1 4.4 29.8 3.2 15.7-50 25.4-134.3 28.8-201.5 7 45.8 17.5 143.2 21 198.3 9.5 6.8 18.9 4.4 30.4 3.2 7.9-59.5-6.1-253.9-6.1-253.9z"/><path class="j" d="m137.6 557.4c-12.9 8.1-72.8 10.2-92.7 1.3-1.3-32.7-1.1-65-0.3-91.2 0.8-28.4 2.3-49.6 3.2-55.9 2.6-17.8 12.1-25.1 20.9-28.1 2.4-0.8 4.7-1.3 6.8-1.5 1.4-0.2 2.8-0.3 4-0.4 3.6-0.1 6 0 6 0h13.4c0 0 3-0.2 7.4 0.1q2.6 0.1 5.1 0.9 2.5 0.7 4.9 2.1c5.9 3.2 10.9 8.9 13.6 16.7 2 5.9 3.6 24.3 4.9 47.3 1.9 34.8 2.8 80.2 2.8 108.7z"/><path class="m" d="m100.1 429c-3.7 9.7-8.8 19.6-16.2 26.8 7.9 5.2 18.7 9.6 30.5 13.1 4.1-6.9 7.3-14.4 10-21.7-7.2-4.7-15.3-10.6-24.3-18.2z"/><path class="m" d="m193.8 442.1c-0.7-1.7-1.8-3.5-3.7-3.8-1.6-0.3-3.2 0.7-4.9 0.5-1.3-0.1-2.4-1-3.7-1.2-9.9-1.1-16.5 18.9-64.9 7.4-0.1 7.9-0.6 16-2.2 23.9 21.2-1.2 44.5-6.1 61.3-12.5 2.7 1 5.6 1.7 8.6 1.5 4.7-0.3 9.6-3.2 10.7-7.8 0.6-2.7-0.1-5.5-1.2-8z"/><path class="l" d="m67.3 388.6c-14-8-34.8 22.9-17.2 39.4 12.1 12.9 14.5 15.1 34.3 31.3 8.3-8 14.1-19.1 18.2-30-9.7-15.3-23.2-27.6-35.3-40.7z"/><path class="l" d="m71 414.7c0 24.2-3.5 50.8-26.4 52.8 0.8-28.4 2.3-49.6 3.2-55.9 2.6-17.8 12.1-25.1 20.9-28.1 1.1 5.3 2.3 13.8 2.3 31.2z"/><path class="l" d="m108.9 428.4c-3.8 2.1-8.3 3.1-12.9 3.1-6.2 0-12.5-1.8-17.1-5.2q0.4-4.1 0.4-8.2c0-12.1-2.2-24.2-3.8-36.1 1.4-0.2 2.8-0.3 4-0.4 3.6-0.1 6 0 6 0h13.4c0 0 3-0.2 7.4 0.1q2.6 0.1 5.1 0.9c0.2 3.3 0.3 44.4-2.5 45.8z"/><path class="l" d="m134.8 448.7q-1.1 0.1-2.3 0.1c-8.4 0-13.8-6.1-13.8-23.3 0-9.6-1.7-36.9-2.4-40.8 5.9 3.2 10.9 8.9 13.6 16.7 2 5.9 3.6 24.3 4.9 47.3z"/><path class="m" d="m106.9 386c0 7.7-6.2 14-14 14-7.8 0-14.1-6.3-14.1-14q0-2.3 0.7-4.4c3.6-0.1 6 0 6 0h13.4c0 0 3.1-0.2 7.4 0.1q0.6 2 0.6 4.3z"/><path class="m" d="m100.8 353.4v39.9h-15.8v-39.9z"/><path class="k" d="m100.8 358.6v23.5c-12.1 0-15.8-10.2-15.8-10.2l2.9-8.5 11-5.6z"/><path class="m" d="m97.9 378c-12.3-1.3-21.4-12.4-20.1-24.8l2.9-27.3c1.3-12.3 12.5-21.4 24.8-20.1 12.4 1.3 21.5 12.5 20.2 24.8l-2.9 27.3c-1.3 12.4-12.5 21.4-24.9 20.1z"/><path class="m" d="m77.1 328.5q0.2 0 0.3 0.1c3.1 0.9 4.6 4.4 5 7.3v8.3q-1.2 0.5-2.5 0.5c-4.8 0-7-4.3-7-9.1 0-4.3 2.7-7.1 4.2-7.1z"/><path class="f" d="m101.6 339c-0.2 1.3-1.2 2.2-2.3 2.1-1.1-0.1-1.9-1.3-1.7-2.6 0.1-1.3 1.1-2.3 2.2-2.1 1.1 0.1 1.9 1.2 1.8 2.6z"/><path class="f" d="m121.3 341.6c-0.1 1.3-1.2 2.3-2.3 2.1-1.1-0.1-1.8-1.2-1.7-2.6 0.1-1.3 1.1-2.2 2.2-2.1 1.2 0.1 1.9 1.3 1.8 2.6z"/><path class="f" d="m97 335.5q-0.3 0-0.4-0.2c-0.2-0.3-0.1-0.5 0.1-0.7 1.3-0.8 2.9-1.1 4.3-1q1.2 0.2 2.2 0.7c0.2 0.1 0.3 0.4 0.2 0.6-0.2 0.2-0.4 0.3-0.7 0.2q-0.8-0.5-1.8-0.6c-1.2-0.1-2.6 0.2-3.7 0.9q-0.1 0.1-0.2 0.1z"/><path class="f" d="m122.7 338.2q-0.2 0-0.4-0.1c-0.9-1-2.2-1.5-3.4-1.7q-1-0.1-1.9 0.2c-0.2 0.1-0.5-0.1-0.6-0.3 0-0.3 0.1-0.5 0.3-0.6q1.1-0.3 2.3-0.2c1.4 0.2 2.8 0.8 4 1.9 0.1 0.2 0.2 0.5 0 0.6q-0.2 0.2-0.3 0.2z"/><path class="f" d="m103.6 366.1q-2.3 0-4.7-0.6c-0.2-0.1-0.4-0.3-0.3-0.6 0.1-0.2 0.3-0.4 0.6-0.3 4 1 8.2 0.6 11.4-1.1 0.2-0.1 0.5 0 0.6 0.2 0.1 0.2 0 0.5-0.2 0.6-2.2 1.2-4.7 1.8-7.4 1.8z"/><path class="f" d="m108.2 360.8q-0.2 0-0.3 0c-0.3 0-0.5-0.3-0.5-0.5 0-0.3 0.3-0.5 0.5-0.4 2.8 0.1 8.4-1.8 9.1-4-0.1-0.2-0.6-1-1.1-1.7-2.4-3.5-7.3-10.7-5.9-16.1 0.1-0.2 0.3-0.4 0.5-0.3 0.3 0.1 0.4 0.3 0.4 0.6-1.3 4.9 3.5 11.9 5.7 15.3 1.2 1.6 1.4 2 1.3 2.4-0.7 2.6-6.7 4.7-9.7 4.7z"/><path class="f" d="m86.3 305.7c2.9-7.2 10.6-10.5 18.4-10.5 16 0 25.2 13.9 25.2 26.4 0 1.7-0.9 6.3-2.2 9.3q-2.9 0.6-5.7 0.6c-10.9 0-21.5-6.2-28.2-14.9 0.2 4.2 1.7 8.3 4.3 11.6-3.7-2-6.5-5.3-8.6-9-1.1 5.8-4.8 11.4-10.6 12.9-1.1-3.9-2.3-8.7-2.3-13.1 0-9.3 6.1-13.3 9.2-13.3q0.2 0 0.5 0z"/><path class="n" d="m117.3 476.2q0.2 1.6 0.2 3.1c0.6 19.1-13 31.3-23.8 31.6-13 0.4-23-15-23.4-29.5q-0.1-2.3 0.2-4.6c9.7 0.1 22.7 0.7 34.2 0.4 4.6-0.1 8.8-0.4 12.6-1z"/><path class="j" d="m869.2 664.4h-7.2v-35.8h7.2z"/><path class="j" d="m847.7 668v-7.2h35.8v7.2z"/><path class="j" d="m408.4 664.4h-7.3v-35.8h7.3z"/><path class="j" d="m386.8 668v-7.2h35.8v7.2z"/><path class="f" d="m419.4 638.5h-29.3c-6.5 0-11.7-5.3-11.7-11.7v-221.4c0-6.5 5.2-11.8 11.7-11.8h29.3c6.4 0 11.7 5.3 11.7 11.8v221.4c0 6.4-5.3 11.7-11.7 11.7z"/><path class="j" d="m420.2 432.6c0-8.5-6.9-15.5-15.5-15.5-8.5 0-15.5 7-15.5 15.5 0 8.6 7 15.6 15.5 15.6 8.6 0 15.5-7 15.5-15.6z"/><path class="j" d="m420.2 484.8c0-8.6-6.9-15.6-15.5-15.6-8.5 0-15.5 7-15.5 15.6 0 8.5 7 15.5 15.5 15.5 8.6 0 15.5-7 15.5-15.5z"/><path class="j" d="m420.2 536.9c0-8.6-6.9-15.5-15.5-15.5-8.5 0-15.5 6.9-15.5 15.5 0 8.5 7 15.5 15.5 15.5 8.6 0 15.5-7 15.5-15.5z"/><path class="f" d="m880.3 638.5h-29.3c-6.5 0-11.7-5.3-11.7-11.7v-221.4c0-6.5 5.2-11.8 11.7-11.8h29.3c6.4 0 11.7 5.3 11.7 11.8v221.4c0 6.4-5.3 11.7-11.7 11.7z"/><path class="j" d="m881.1 432.6c0-8.5-6.9-15.5-15.5-15.5-8.6 0-15.5 7-15.5 15.5 0 8.6 6.9 15.6 15.5 15.6 8.6 0 15.5-7 15.5-15.6z"/><path class="j" d="m881.1 484.8c0-8.6-6.9-15.6-15.5-15.6-8.6 0-15.5 7-15.5 15.6 0 8.5 6.9 15.5 15.5 15.5 8.6 0 15.5-7 15.5-15.5z"/><path class="j" d="m881.1 536.9c0-8.6-6.9-15.5-15.5-15.5-8.6 0-15.5 6.9-15.5 15.5 0 8.5 6.9 15.5 15.5 15.5 8.6 0 15.5-7 15.5-15.5z"/><path class="j" d="m1012.5 817.4h-754.7v-138.1c0-6.1 5-11.1 11.2-11.1h732.4c6.1 0 11.1 5 11.1 11.1z"/><path class="n" d="m272.3 802.8v-120.1h725.7v120.1z"/><path class="a" d="m397.1 709.9h-48.2c-1.8 0-3.4-1.6-3.4-3.4 0-1.9 1.6-3.4 3.4-3.4h48.2c1.9 0 3.4 1.5 3.4 3.4 0 1.8-1.5 3.4-3.4 3.4z"/><path class="a" d="m397.1 778.4h-48.2c-1.8 0-3.4-1.5-3.4-3.4 0-1.8 1.6-3.4 3.4-3.4h48.2c1.9 0 3.4 1.6 3.4 3.4 0 1.9-1.5 3.4-3.4 3.4z"/><path class="a" d="m571.9 709.9h-48.2c-1.9 0-3.4-1.6-3.4-3.4 0-1.9 1.5-3.4 3.4-3.4h48.2c1.8 0 3.4 1.5 3.4 3.4 0 1.8-1.6 3.4-3.4 3.4z"/><path class="a" d="m571.9 778.4h-48.2c-1.9 0-3.4-1.5-3.4-3.4 0-1.8 1.5-3.4 3.4-3.4h48.2c1.8 0 3.4 1.6 3.4 3.4 0 1.9-1.6 3.4-3.4 3.4z"/><path class="a" d="m746.6 709.9h-48.1c-1.9 0-3.4-1.6-3.4-3.4 0-1.9 1.5-3.4 3.4-3.4h48.1c1.9 0 3.4 1.5 3.4 3.4 0 1.8-1.5 3.4-3.4 3.4z"/><path class="a" d="m746.6 778.4h-48.1c-1.9 0-3.4-1.5-3.4-3.4 0-1.8 1.5-3.4 3.4-3.4h48.1c1.9 0 3.4 1.6 3.4 3.4 0 1.9-1.5 3.4-3.4 3.4z"/><path class="a" d="m921.4 709.9h-48.1c-1.9 0-3.4-1.6-3.4-3.4 0-1.9 1.5-3.4 3.4-3.4h48.1c1.9 0 3.4 1.5 3.4 3.4 0 1.8-1.5 3.4-3.4 3.4z"/><path class="a" d="m921.4 778.4h-48.1c-1.9 0-3.4-1.5-3.4-3.4 0-1.8 1.5-3.4 3.4-3.4h48.1c1.9 0 3.4 1.6 3.4 3.4 0 1.9-1.5 3.4-3.4 3.4z"/><path fill-rule="evenodd" class="f" d="m231.1 760.1h-60.1v-22.7c0-5.4 4.4-9.9 9.9-9.9h40.4c5.4 0 9.8 4.5 9.8 9.9zm-54.6-5.5h49.2v-17.2c0-2.4-2-4.4-4.4-4.4h-40.4c-2.5 0-4.4 2-4.4 4.4z"/><path class="o" d="m261.2 743.8h-120.3c-4.3 0-8.3 2.6-10.1 6.6l-9 20.5h158.5l-9-20.5c-1.8-4-5.7-6.6-10.1-6.6z"/><path class="p" d="m121.8 770.9v46.1h158.5v-46.1z"/><path class="o" d="m280.3 807.4h-158.5v9.6h158.5z"/><path class="f" d="m157.7 778.3h-3.3c-1.9 0-3.5-1.6-3.5-3.5v-7.8c0-1.9 1.6-3.5 3.5-3.5h3.3c1.9 0 3.5 1.6 3.5 3.5v7.8c0 1.9-1.6 3.5-3.5 3.5z"/><path class="f" d="m251.6 778.3h-3.2c-2 0-3.6-1.6-3.6-3.5v-7.8c0-1.9 1.6-3.5 3.6-3.5h3.2c1.9 0 3.5 1.6 3.5 3.5v7.8c0 1.9-1.6 3.5-3.5 3.5z"/><path class="d" d="m486.7 588.7l-7.3 0.9-5.3-40.2 7.2-1z"/><path class="d" d="m479.6 537.9l0.9 7.1c0.2 1.8-1 3.4-2.8 3.6-1.8 0.3-3.4-1-3.7-2.8l-0.9-7c-2.7 1.6-4.3 4.7-3.9 8 0.6 4.5 4.7 7.6 9.2 7 4.4-0.5 7.6-4.6 7-9.1-0.5-3.3-2.8-5.9-5.8-6.8z"/><path class="d" d="m481.6 602.6l-1-7c-0.2-1.8 1-3.4 2.8-3.7 1.8-0.2 3.4 1.1 3.7 2.8l0.9 7.1c2.7-1.6 4.3-4.7 3.9-8.1-0.6-4.4-4.7-7.6-9.2-7-4.4 0.6-7.6 4.7-7 9.2 0.5 3.3 2.8 5.9 5.9 6.7z"/><path class="k" d="m489.9 562.4c-1.1-1.8-2.6-3.6-4.7-3.6-1.9-0.1-3.5 1.3-5.4 1.3-1.5 0-2.9-0.8-4.3-0.8-4.3 0.1-11 11.4-15.3 11.4l5.8 8.8c5.1 1.6 10.5 3 15.7 2 5.2-1.1 10.2-5.1 10.7-10.4 0.3-3.1-0.9-6.1-2.5-8.7z"/><path class="l" d="m422.5 575.3c-4.2-23.9-4.9-46-26.2-63.8l-17.7 39.4c3 17.2 11.3 33.6 22.1 47.4 7.8-6.7 14.9-14.9 21.8-23z"/><path class="k" d="m468.2 567.1c-11.8 4.8-32.9 7.4-45.5 9.2q-0.1-0.5-0.2-1c-6.9 8.1-14 16.3-21.8 23q0.8 1 1.6 2c1.5 1.9 3.8 3 6.2 3.1 20.9 1 48.6-13.1 65.6-23.3-1-7.1-1.4-8.4-5.9-13z"/><path class="f" d="m257.8 797.9c-0.1-0.5-1-8.8-11.2-17.4l-29.5 34.7c0 0 10.2 7.2 22.2-4.7 12-11.9 18.5-12.6 18.5-12.6z"/><path class="f" d="m454.1 797.1c-0.2 0.5-4.8 6.5-2.4 19.9h45.5c0 0-3.3-12.5-20.4-14-17.1-1.4-22.7-5.9-22.7-5.9z"/><path class="j" d="m417 660c-13 8.2-72.9 10.2-92.8 1.4-1.3-32.8-1.1-41.2-0.3-67.4 0.8-28.4 2.3-49.6 3.2-55.9 2.6-17.8 12.1-25.1 20.9-28.1 2.4-0.8 4.7-1.3 6.8-1.5 1.5-0.2 2.8-0.3 4-0.4 3.6-0.1 6 0 6 0h13.4c0 0 3.1-0.2 7.4 0.1q2.6 0.1 5.1 0.9 2.5 0.7 4.9 2.1c5.9 3.2 10.9 8.9 13.6 16.7 2 5.9 3.6 24.3 4.9 47.3 1.9 34.8 2.9 56.4 2.9 84.8z"/><path class="m" d="m379.4 555.5c-3.6 9.7-8.8 19.6-16.2 26.8 8 5.2 18.7 9.6 30.5 13.1 4.1-6.9 7.3-14.4 10-21.7-7.2-4.7-15.2-10.6-24.3-18.2z"/><path class="m" d="m473.2 568.6c-0.8-1.7-1.9-3.5-3.7-3.8-1.7-0.3-3.3 0.7-5 0.5-1.3-0.1-2.4-1-3.7-1.2-9.9-1.1-16.5 18.9-64.9 7.4-0.1 7.9-0.6 16-2.2 23.9 21.2-1.2 44.5-6.1 61.3-12.5 2.8 1 5.6 1.7 8.6 1.5 4.7-0.3 9.6-3.2 10.7-7.8 0.6-2.7 0-5.5-1.1-8z"/><path class="l" d="m346.6 515.1c-14-8-34.8 22.9-17.2 39.4 12.1 12.9 14.5 15.1 34.4 31.4 8.2-8.1 14-19.2 18.1-30.1-9.7-15.3-23.1-27.6-35.3-40.7z"/><path class="l" d="m350.3 541.2c0 24.2-3.5 50.8-26.4 52.8 0.8-28.4 2.3-49.6 3.2-55.9 2.6-17.8 12.1-25.1 20.9-28.1 1.1 5.3 2.3 13.8 2.3 31.2z"/><path class="l" d="m388.2 554.9c-3.8 2.1-8.3 3.1-12.9 3.1-6.2 0-12.4-1.8-17.1-5.2q0.4-4.1 0.4-8.2c0-12.1-2.2-24.2-3.8-36.1 1.5-0.2 2.8-0.3 4-0.4 3.6-0.1 6 0 6 0h13.4c0 0 3.1-0.2 7.4 0.1q2.6 0.1 5.1 0.9c0.2 3.3 0.3 44.4-2.5 45.8z"/><path class="l" d="m414.1 575.2q-1.1 0.1-2.2 0.1c-8.5 0-13.9-6.1-13.9-23.3 0-9.6-1.7-36.9-2.4-40.8 5.9 3.2 10.9 8.9 13.6 16.7 2 5.9 3.6 24.3 4.9 47.3z"/><path class="m" d="m386.3 512.5c0 7.7-6.3 14-14.1 14-7.8 0-14.1-6.3-14.1-14q0-2.3 0.7-4.4c3.6-0.1 6 0 6 0h13.5c0 0 3-0.2 7.3 0.1q0.7 2 0.7 4.3z"/><path class="m" d="m380.1 479.9v39.9h-15.8v-39.9z"/><path class="k" d="m380.1 485.1v23.5c-12.1 0-15.8-10.2-15.8-10.2l3-8.5 11-5.6z"/><path class="m" d="m377.3 504.5c-12.4-1.3-21.5-12.4-20.2-24.8l2.9-27.3c1.3-12.3 12.5-21.4 24.9-20.1 12.3 1.3 21.4 12.5 20.1 24.9l-2.9 27.2c-1.3 12.4-12.5 21.4-24.8 20.1z"/><path class="f" d="m362.3 447.3c-2.6 4.2-4.7 11.5-4.7 17.4 0 1.5 0.1 2.9 0.4 4.1 3.1-7 6.8-12.6 12.3-18z"/><path class="j" d="m406.7 456.1v0.2l-47-3.7q-0.7-0.3-1.4-0.6l0.2-1.6c0.7-7.3 4.7-24.5 26.3-23 9.3 0.7 14.8 5.3 18 10.8 1.8 3.3 2.9 6.8 3.5 10 0.5 3.1 0.6 5.9 0.4 7.9z"/><path class="j" d="m420.3 459.2q-0.1 0-0.2 0l-61.9-4.9c-1-0.1-1.7-0.9-1.7-1.9 0.1-1 1-1.8 2-1.7l61.9 4.9c1 0.1 1.7 0.9 1.7 1.9-0.1 1-0.9 1.7-1.8 1.7z"/><path class="m" d="m356.4 455q0.2 0 0.3 0.1c3.1 0.9 4.6 4.4 5 7.3v8.3q-1.2 0.5-2.5 0.5c-4.8 0-7-4.3-7-9.1 0-4.3 2.7-7.1 4.2-7.1z"/><path class="f" d="m380.9 465.5c-0.2 1.3-1.2 2.2-2.3 2.1-1.1-0.1-1.9-1.2-1.7-2.6 0.1-1.3 1.1-2.3 2.2-2.1 1.1 0.1 1.9 1.2 1.8 2.6z"/><path class="f" d="m400.6 468.1c-0.1 1.3-1.1 2.3-2.2 2.1-1.1-0.1-1.9-1.2-1.8-2.6 0.1-1.3 1.2-2.2 2.3-2.1 1.1 0.1 1.8 1.3 1.7 2.6z"/><path class="f" d="m376.3 462q-0.3 0-0.4-0.2c-0.1-0.3-0.1-0.5 0.1-0.7 1.4-0.8 2.9-1.1 4.3-1q1.2 0.2 2.2 0.7c0.2 0.1 0.3 0.4 0.2 0.6-0.2 0.2-0.4 0.3-0.6 0.2q-0.9-0.5-1.9-0.6c-1.2-0.1-2.5 0.2-3.7 0.9q-0.1 0.1-0.2 0.1z"/><path class="f" d="m402 464.7q-0.2 0-0.3-0.1c-1-1-2.2-1.5-3.5-1.7q-1-0.1-1.9 0.2c-0.2 0.1-0.5-0.1-0.6-0.3 0-0.3 0.1-0.5 0.4-0.6q1.1-0.3 2.2-0.2c1.4 0.2 2.9 0.8 4 1.9 0.2 0.2 0.2 0.5 0 0.6q-0.1 0.2-0.3 0.2z"/><path class="f" d="m390.6 486l-0.5-0.9c2-1 2.9-2.1 2.9-3.3 0-1.3-1.2-2.8-2.3-4.3-1.3-1.6-2.6-3.2-2.6-4.9q0-0.4 0.1-0.8l1 0.2q-0.1 0.3-0.1 0.6c0 1.4 1.2 2.8 2.3 4.3 1.3 1.6 2.6 3.2 2.6 4.9 0 1.6-1.1 3-3.4 4.2z"/><path class="f" d="m390.1 492.6c-3.5 0-7.5-1.2-9.9-3l0.5-0.8c2.6 1.8 6.9 3 10.3 2.7l0.1 1q-0.5 0.1-1 0.1z"/><path class="n" d="m396.6 602.7q0.2 1.6 0.2 3.1c0.6 19.1-13 31.3-23.8 31.6-13 0.4-23-15-23.4-29.5q-0.1-2.3 0.2-4.6c9.7 0.1 22.7 0.7 34.3 0.4 4.5-0.1 8.8-0.4 12.5-1z"/><path class="j" d="m485.5 703.2c-0.1 0-68.6-48.6-68.6-48.6l-45.7-1.5h-47v34.6c0.2 3.9 0 49.5-0.9 89.4-23.4 2.7-44.4 5-71.3 5.4-5.7 9.1-5 20.3 0.7 30 29.9 5.2 55.6 5.2 98 4 4.8 0.1 9.6 0 14.5-0.5 2.8-28.4 13.7-101.9 14.9-125.9 14.4 5.9 23.6 18.4 62.5 37.4 4.3 24.7 5.1 56.4 5.5 79 11.8 1.5 23.6-0.3 35.4-3.1 3.2-32.1 3.2-66 2-100.2z"/><path class="a" d="m406.3 448.2h-27.7v-10h24.2c1.8 3.3 2.9 6.8 3.5 10z"/><path class="f" d="m812.9 629h-351.9c-3.6 0-6.5-2.9-6.5-6.4v-217c0-3.5 2.9-6.4 6.5-6.4h351.9c3.6 0 6.5 2.9 6.5 6.4v217c0 3.5-2.9 6.4-6.5 6.4z"/><path class="a" d="m467.6 610.7v-193.2c0-2.9 2.4-5.2 5.3-5.2h328.1c2.9 0 5.3 2.3 5.3 5.2v193.2c0 2.9-2.4 5.2-5.3 5.2h-328.1c-2.9 0-5.3-2.3-5.3-5.2z"/><path class="g" d="m474.9 608.7v-189.2h324.1v189.2z"/><path class="f" d="m512.6 629l-35.6 39.6h-7.4l23.6-39.6z"/><path class="f" d="m760.8 629l35.7 39.6h7.4l-23.6-39.6z"/><path class="g" d="m643.9 625.8h-14.4c-0.8 0-1.5-0.6-1.5-1.5v-3.9c0-0.8 0.7-1.5 1.5-1.5h14.4c0.9 0 1.5 0.7 1.5 1.5v3.9c0 0.9-0.6 1.5-1.5 1.5z"/><path class="e" d="m504.1 425.5h-18.7c-1.8 0-3.4 1.5-3.4 3.4v18.7c0 1.9 1.6 3.4 3.4 3.4 1.9 0 3.4-1.5 3.4-3.4v-15.3h15.3c1.9 0 3.4-1.5 3.4-3.4 0-1.9-1.5-3.4-3.4-3.4z"/><path fill-rule="evenodd" class="f" d="m933.6 611.3h-60.1v-22.7c0-5.4 4.4-9.8 9.9-9.8h40.4c5.4 0 9.8 4.4 9.8 9.8zm-54.6-5.4h49.2v-17.3c0-2.4-2-4.4-4.4-4.4h-40.4c-2.5 0-4.4 2-4.4 4.4z"/><path class="o" d="m963.7 595h-120.3c-4.3 0-8.3 2.6-10.1 6.6l-9 20.5h158.5l-9-20.5c-1.8-4-5.7-6.6-10.1-6.6z"/><path class="p" d="m824.3 622.1v46.1h158.5v-46.1z"/><path class="o" d="m982.8 658.6h-158.5v9.6h158.5z"/><path class="f" d="m860.1 629.5h-3.2c-1.9 0-3.5-1.6-3.5-3.5v-7.8c0-1.9 1.6-3.5 3.5-3.5h3.2c2 0 3.6 1.6 3.6 3.5v7.8c0 1.9-1.6 3.5-3.6 3.5z"/><path class="f" d="m954.1 629.5h-3.2c-2 0-3.6-1.6-3.6-3.5v-7.8c0-1.9 1.6-3.5 3.6-3.5h3.2c1.9 0 3.5 1.6 3.5 3.5v7.8c0 1.9-1.6 3.5-3.5 3.5z"/><path class="d" d="m908.6 817.4h-12.7v-695h12.7z"/><path class="d" d="m1037.8 817.4h-12.7v-695h12.7z"/><path class="d" d="m913.2 817.4h-21.8v-21.1h21.8z"/><path class="d" d="m1042.4 817.4h-21.8v-21.1h21.8z"/><path class="d" d="m1031.5 159h-129.2v-7.3h129.2z"/><path class="d" d="m1031.5 217.2h-129.2v-7.3h129.2z"/><path class="d" d="m1031.5 275.3h-129.2v-7.2h129.2z"/><path class="d" d="m1031.5 333.5h-129.2v-7.3h129.2z"/><path class="d" d="m1031.5 391.7h-129.2v-7.3h129.2z"/><path class="d" d="m1031.5 449.9h-129.2v-7.3h129.2z"/><path class="d" d="m1031.5 508h-129.2v-7.2h129.2z"/><path class="d" d="m1031.5 566.2h-129.2v-7.2h129.2z"/><path class="d" d="m1031.5 624.4h-129.2v-7.3h129.2z"/><path class="d" d="m1031.5 682.6h-129.2v-7.3h129.2z"/><path class="d" d="m1031.5 740.7h-129.2v-7.2h129.2z"/><path class="f" d="m820.6 173.8l-3.3 1.9c-1 0.5-2.2 0.2-2.8-0.8l-13.7-23.9c-0.5-1-0.2-2.2 0.8-2.8l3.2-1.9c1-0.5 2.3-0.2 2.8 0.8l13.7 23.9c0.6 1 0.2 2.2-0.7 2.8z"/><path class="f" d="m787.4 117.8l-1.6 0.9c-0.3 0.2-0.4 0.5-0.2 0.8l2.6 4.5c0.1 0.3 0.5 0.4 0.8 0.2h0.1l18.5 32.2c0.2 0.4 0.6 0.5 1 0.3 0.4-0.2 0.5-0.7 0.3-1l-18.5-32.3 0.1-0.1c0.3-0.1 0.4-0.5 0.3-0.8l-2.6-4.5c-0.2-0.3-0.5-0.4-0.8-0.2z"/><path class="m" d="m825.2 152.8c-1.8-1.5-10-5.5-11.9-5.4-0.9 0.1-1.8 0.6-2.6 1.7-7.5 1.1-10.6 5.9-10.2 10.6 0.5 6.6 7.3 11.2 13.7 10.7 3.9-0.3 8.2-2.8 11.1-5z"/><path class="l" d="m940.8 126.3l-53.2 25.4-63.9-3.5c0 0-4.6 10.8-4.3 22.3l76.5 9.9 52.4-10.3z"/><path class="f" d="m1020.7 538.8c0.3 0.4 6 6.5 6 19.8h-45.5c0 0 1.1-12.4 17.9-13.9 16.8-1.5 21.6-5.9 21.6-5.9z"/><path class="f" d="m941.8 538.8c0.3 0.4 4.9 6.5 2.5 19.8h-45.6c0 0 3.3-12.4 20.4-13.9 17.1-1.5 22.7-5.9 22.7-5.9z"/><path class="j" d="m920 292.1h92.3v34.6c-0.6 10.6 2.2 135.8 11.6 216.1-8.3 6.8-18.2 4.3-29.8 3.2-15.7-50-25.5-134.4-28.9-201.6-7 45.9-17.4 143.2-20.9 198.4-9.5 6.8-19 4.3-30.4 3.2-7.9-59.6 6.1-253.9 6.1-253.9z"/><path class="l" d="m919.5 299c13 8.2 72.9 10.2 92.8 1.4 1.2-32.8 1-65.1 0.3-91.2-0.9-28.5-2.4-49.6-3.3-55.9-2.5-17.9-12-25.2-20.8-28.1-2.4-0.8-4.7-1.3-6.9-1.6-1.4-0.2-2.8-0.3-3.9-0.3-3.7-0.2-6.1 0-6.1 0h-13.4c0 0-3-0.2-7.3 0q-2.6 0.2-5.1 0.9-2.6 0.8-5 2.1c-5.8 3.2-10.8 8.9-13.5 16.8-2 5.9-3.7 24.3-4.9 47.2-1.9 34.9-2.9 80.3-2.9 108.7z"/><path class="m" d="m950.2 127.6c0 7.8 6.3 14.1 14.1 14.1 7.7 0 14-6.3 14-14.1q0-2.3-0.7-4.3c-3.6-0.2-6 0-6 0h-13.4c0 0-3-0.2-7.3 0.1q-0.7 2-0.7 4.2z"/><path class="m" d="m956.4 95.1v39.8h15.8v-39.8z"/><path class="k" d="m956.4 100.2v23.6c12 0 15.8-10.2 15.8-10.2l-3-8.5-11-5.7z"/><path class="m" d="m959.2 119.7c12.4-1.3 21.4-12.5 20.1-24.8l-2.8-27.3c-1.3-12.4-12.5-21.4-24.9-20.1-12.3 1.3-21.4 12.4-20.1 24.8l2.9 27.3c1.3 12.4 12.5 21.4 24.8 20.1z"/><path class="m" d="m980 70.2q-0.1 0-0.3 0.1c-3 0.9-4.5 4.4-4.9 7.3v8.3q1.2 0.5 2.4 0.5c4.8 0 7-4.3 7-9.1 0-4.4-2.6-7.1-4.2-7.1z"/><path class="f" d="m955.6 80.6c0.1 1.3 1.1 2.3 2.2 2.2 1.2-0.1 1.9-1.3 1.8-2.6-0.1-1.3-1.1-2.3-2.3-2.2-1.1 0.1-1.8 1.3-1.7 2.6z"/><path class="f" d="m935.9 83.2c0.1 1.3 1.1 2.3 2.2 2.2 1.1-0.1 1.9-1.3 1.8-2.6-0.2-1.3-1.2-2.3-2.3-2.2-1.1 0.2-1.9 1.3-1.7 2.6z"/><path class="f" d="m960.2 77.1q0.2 0 0.4-0.2c0.1-0.2 0-0.5-0.2-0.6-1.3-0.8-2.8-1.2-4.2-1q-1.2 0.1-2.2 0.6c-0.2 0.2-0.3 0.4-0.2 0.7 0.1 0.2 0.4 0.3 0.6 0.2q0.9-0.5 1.8-0.6c1.3-0.1 2.6 0.2 3.8 0.9q0.1 0 0.2 0z"/><path class="f" d="m934.5 79.8q0.2 0 0.3-0.1c1-0.9 2.2-1.5 3.5-1.6q0.9-0.1 1.9 0.2c0.2 0 0.5-0.1 0.5-0.4 0.1-0.2 0-0.5-0.3-0.5q-1.1-0.3-2.2-0.2c-1.5 0.1-2.9 0.8-4 1.9-0.2 0.1-0.2 0.4 0 0.6q0.1 0.1 0.3 0.1z"/><path class="f" d="m951.9 106.6c-2.1 0-3.8-0.3-4.9-0.6l0.2-0.9c1 0.3 2.7 0.6 4.7 0.6 2.6 0 6.3-0.6 8.2-3.4l0.7 0.5c-2.1 3.1-6 3.8-8.9 3.8z"/><path class="f" d="m952.3 100.1c-5-0.5-7.2-1.8-7.2-4 0-1.2 0.5-2.4 1.1-3.6 0.6-1.5 1.4-3.2 1.4-5.3 0-1.5-0.3-3-0.6-4.5q-0.2-0.9-0.4-1.9l0.9-0.1q0.2 0.9 0.4 1.8c0.3 1.5 0.6 3.1 0.6 4.7 0 2.3-0.8 4.1-1.5 5.7-0.5 1.2-1 2.2-1 3.2 0 1.1 0.7 2.5 6.4 3.1z"/><path class="f" d="m977 73c0.8-2.7 1.2-5.6 1.2-8.5 0-15.1-10.7-23.9-24.4-23.9-14.4 0-24.1 8.6-24.1 22.7 0 4.5 1.3 9.2 2.3 13.5 0.6-1.9 1-5 1.8-6.8-0.2-0.9-0.3-1.8-0.3-2.8 0-1.7 0.3-3.5 1.2-4.8 3 1.9 6.5 2.7 10.2 2.7 7.7 0 15.9-3.6 20.9-8.9 1.8 2 3.5 4.2 3.5 6.6 0 1.2-0.5 2.5-1.6 3.7 3.5 1.3 7.5 3.3 9.3 6.5z"/><path class="j" d="m1012.3 300.4c-19.9 16.6-79.8 14.3-92.8-1.4 0-28.4 1-73.8 2.9-108.7q1.1 0.2 2.2 0.2c8.5 0 13.9-6.1 13.9-23.3 0-9.6 1.7-36.9 2.3-40.9q2.4-1.3 5-2.1c-0.2 3.3-0.3 44.5 2.5 45.9 3.8 2.1 8.3 3 12.9 3 6.1 0 12.4-1.8 17.1-5.2q-0.4-4-0.4-8.2c0-12 2.2-24.2 3.7-36.1 2.2 0.3 4.5 0.8 6.9 1.6-1.1 5.2-2.3 13.8-2.3 31.2 0 24.1 3.1 40.2 26 42.2 0.8 26.2 1.3 69 0.1 101.8z"/><path class="n" d="m939.9 217.9q-0.2 1.5-0.3 3.1c-0.5 19.1 13.1 31.2 23.8 31.6 13 0.3 23.1-15 23.5-29.5q0.1-2.4-0.2-4.6c-9.7 0.1-22.8 0.7-34.3 0.4-4.5-0.2-8.8-0.5-12.5-1z"/><path class="f" d="m1000.3 286.6l-3.2 6.5-36.4-18 3.2-6.6z"/><path class="f" d="m954.3 264.2l6.3 3.1c1.6 0.8 2.3 2.8 1.5 4.4-0.8 1.6-2.8 2.3-4.4 1.5l-6.3-3.2c-0.2 3.1 1.5 6.2 4.5 7.7 4 2 8.9 0.4 10.9-3.7 2-4 0.3-8.9-3.7-10.9-3-1.5-6.4-0.9-8.8 1.1z"/><path class="f" d="m1009 298.6l-6.3-3.1c-1.6-0.8-2.3-2.8-1.5-4.4 0.8-1.6 2.8-2.2 4.4-1.4l6.3 3.1c0.2-3.1-1.5-6.2-4.5-7.7-4-2-8.9-0.3-10.9 3.7-2 4-0.4 8.9 3.7 10.9 3 1.5 6.4 1 8.8-1.1z"/><path class="m" d="m978.5 266.2c4.4 1.8 8.6 4 13.2 5.5 0.2 1.9 0.4 4 0.4 6.1 0 9.1-5 13.2-10.8 13.2-5.2 0-9.9-3.9-9.9-9.3q0-1.6 0.6-3.3c-0.6-0.9-0.8-1.8-0.8-2.7 0-3.7 4.2-7.4 7.3-9.5z"/><path class="l" d="m1021.5 177.6c-7.8-45.7-33-52.4-33-52.4l8.2 45.3 4.4 41.1-26.7 55.6c13.1 13.9 19.7 12.1 19.7 12.1 0 0 17.8-32.4 32.6-63.3-1.4-12.7-3.1-26-5.2-38.4z"/><path class="i" d="m1117.7 642.6c6.9-1.9 13.5-4 19.3-7.7-2.1-2-3.8-4.3-4.3-7.7-1-6.2 2-12.8 1-18.9-1.5-10.2-13.6-9.3-15-18.1-1-6.7 3.4-12.6 2.3-19.5-2-12.7-19.3-16.1-20.7-25.2-1.2-7.8 4.7-15.4 3.3-24.5-2.3-14.8-14.6-11.6-16.5-23.6-0.6-4-0.5-8.9-1.2-13.3-1.3-8.2-5.5-12.6-14.3-11.2-4.6 0.7-8.9 5.7-8.1 11 1.1 7.2 10 13.9 11.1 20.7q0 0.1 0 0.2c0.6 4.7-4.1 8.7-3.3 13.8 1.3 8 16.3 10.8 18.2 22.9 1 6.5-5.6 12.1-4.5 18.8 1.1 7.4 10 9.4 11.2 16.9 0.9 6.1-3.2 12.5-2.3 18.3 1.6 9.9 15.4 9.1 17.1 20 0.8 5.4-1.8 10.7-0.9 16.2 0.7 4.4 4.1 8.4 7.6 10.9z"/><path class="f" d="m1131.6 646q-0.3 0-0.5-0.2c-7.4-7.2-9.1-12.7-9.8-17.6-0.3-1.8-0.5-3.5-0.6-5.4-0.2-2-0.3-4.1-0.7-6.2-1.5-9.8-4.8-12.2-8-14.6-2.8-2-5.4-3.8-6.3-9.8-0.6-4.1-0.1-8.2 0.5-12.2 0.5-3.8 1-7.8 0.4-11.6-0.7-4.2-3-7-5.6-10-2.8-3.3-5.7-6.8-6.6-12.4-0.6-3.4-0.4-6.9-0.2-10.3 0.2-3.2 0.4-6.6-0.1-9.9-1-6.1-4-8.7-6.9-11.2-2.3-1.9-4.6-3.9-5.9-7.3-1-2.7-1.5-5.3-2-7.9-0.9-4.9-1.7-9.2-6.2-13.2-0.3-0.3-0.3-0.7-0.1-1.1 0.3-0.3 0.8-0.3 1.1 0 4.9 4.3 5.8 9 6.7 14 0.5 2.5 0.9 5.1 1.9 7.7 1.2 3.1 3.3 4.8 5.4 6.7 3.2 2.6 6.4 5.4 7.5 12.1 0.5 3.4 0.3 6.9 0.1 10.2-0.2 3.3-0.3 6.7 0.2 9.9 0.8 5.3 3.6 8.5 6.3 11.7 2.5 3 5.2 6.1 5.9 10.7 0.6 4.1 0.1 8.2-0.5 12.1-0.5 3.9-1 7.9-0.4 11.8 0.8 5.3 3 6.9 5.6 8.8 3.3 2.4 7.1 5.2 8.7 15.5 0.4 2.3 0.5 4.3 0.7 6.3 0.1 1.9 0.3 3.7 0.5 5.4 0.8 4.6 2.4 9.9 9.5 16.7 0.3 0.3 0.3 0.8 0 1.1q-0.3 0.2-0.6 0.2z"/><path class="l" d="m1123.7 628.8c7.1-0.7 13.9-1.9 20.3-4.6-1.8-2.3-3.1-4.8-3.1-8.3 0-6.3 3.9-12.3 3.9-18.5 0-10.3-12.1-11.2-12.1-20.1 0-6.9 5.3-12 5.3-19 0-12.8-16.6-18.9-16.6-28.1 0-7.8 7-14.5 7-23.7 0-14.9-12.7-13.7-12.7-25.8 0-4.1 0.9-8.9 0.9-13.4 0-8.3-3.5-13.2-12.4-13.2-4.7 0-9.7 4.2-9.7 9.7 0 7.2 7.7 15.2 7.7 22.1q0 0.1 0 0.2c-0.1 4.7-5.3 7.9-5.3 13.1 0 8.1 14.5 13.1 14.5 25.4 0 6.6-7.4 11.1-7.4 17.9 0 7.5 8.4 10.8 8.4 18.5 0 6.1-5 11.8-5 17.7 0 10 13.8 11.4 13.8 22.4 0 5.4-3.4 10.3-3.4 15.8 0 4.4 2.7 9 5.9 11.9z"/><path class="f" d="m1137 634.4c-0.2 0-0.4-0.1-0.6-0.3-6.2-8.2-7-13.9-7-18.9 0-1.8 0.1-3.6 0.3-5.5 0.1-2 0.3-4 0.3-6.2 0-9.9-3-12.8-5.8-15.6-2.4-2.4-4.7-4.7-4.7-10.6 0-4.2 1.2-8.2 2.4-12 1.1-3.7 2.2-7.6 2.2-11.5 0-4.3-1.9-7.4-4-10.7-2.3-3.7-4.6-7.6-4.6-13.3 0-3.5 0.7-6.8 1.4-10.1 0.7-3.2 1.4-6.6 1.4-9.9 0-6.2-2.6-9.2-5.1-12.1-1.9-2.2-3.9-4.5-4.7-8.1-0.6-2.8-0.7-5.5-0.8-8.1-0.1-5.1-0.3-9.4-4.1-14-0.2-0.3-0.2-0.8 0.1-1.1 0.3-0.2 0.8-0.2 1.1 0.1 4.1 5 4.3 9.8 4.4 14.9 0.1 2.6 0.2 5.2 0.8 7.9 0.7 3.2 2.4 5.2 4.3 7.4 2.7 3.1 5.5 6.4 5.5 13.1 0 3.5-0.7 6.9-1.4 10.2-0.7 3.2-1.4 6.5-1.4 9.8 0 5.3 2.2 9 4.4 12.5 2.1 3.4 4.2 6.8 4.2 11.4 0 4.2-1.2 8.2-2.3 12-1.1 3.7-2.3 7.6-2.3 11.6 0 5.3 2 7.3 4.3 9.5 2.9 2.9 6.2 6.2 6.2 16.7 0 2.3-0.2 4.3-0.3 6.3-0.2 1.9-0.3 3.6-0.3 5.4 0 4.7 0.8 10.1 6.7 18 0.3 0.3 0.2 0.8-0.1 1.1q-0.2 0.1-0.5 0.1z"/><path class="i" d="m1123.1 629.7c7.1 0.5 14 0.5 20.7-1.1-1.4-2.5-2.2-5.3-1.6-8.6 1.1-6.3 6-11.5 7-17.7 1.8-10.1-9.9-13.1-8.4-21.8 1.2-6.8 7.2-11 8.4-17.8 2.2-12.7-13-21.5-11.4-30.5 1.3-7.8 9.3-13.1 10.9-22.2 2.6-14.7-10.1-15.6-8-27.6 0.7-4 2.3-8.6 3.1-13 1.4-8.2-1.1-13.7-9.9-15.2-4.6-0.8-10.3 2.5-11.3 7.9-1.2 7.1 5.1 16.3 3.9 23.1q0 0.1-0.1 0.2c-0.9 4.6-6.6 6.9-7.5 12-1.3 8 12 15.4 9.9 27.5-1.1 6.5-9.2 9.7-10.3 16.4-1.3 7.3 6.4 12.1 5.1 19.6-1 6.1-6.9 10.8-8 16.6-1.7 9.9 11.6 13.6 9.7 24.4-0.9 5.4-5 9.6-6 15-0.8 4.4 1.2 9.3 3.8 12.8z"/><path class="f" d="m1135.4 637.5c-0.3 0-0.6-0.2-0.7-0.4-4.7-9.2-4.5-15-3.7-19.8 0.3-1.8 0.8-3.6 1.2-5.4 0.5-1.9 1-3.9 1.4-6.1 1.7-9.7-0.7-13.1-3-16.3-2-2.8-3.8-5.4-2.8-11.3 0.7-4.1 2.6-7.8 4.4-11.4 1.7-3.5 3.5-7.1 4.2-10.9 0.7-4.2-0.7-7.7-2.1-11.3-1.6-4-3.3-8.2-2.3-13.9 0.6-3.4 1.9-6.6 3.1-9.7 1.2-3 2.5-6.2 3.1-9.5 1-6.1-1-9.5-3-12.8-1.5-2.5-3-5.1-3.2-8.7-0.1-3 0.3-5.6 0.7-8.2 0.7-5 1.3-9.3-1.7-14.5-0.2-0.4-0.1-0.8 0.3-1 0.3-0.2 0.8-0.1 1 0.2 3.2 5.7 2.6 10.5 1.8 15.5-0.3 2.5-0.7 5.1-0.6 7.9 0.1 3.3 1.5 5.6 3 8 2.1 3.6 4.3 7.2 3.2 13.9-0.6 3.4-1.9 6.6-3.2 9.8-1.2 3-2.5 6.1-3.1 9.4-0.9 5.2 0.7 9.2 2.3 13.1 1.4 3.6 2.9 7.4 2.1 12-0.7 4.1-2.5 7.8-4.3 11.3-1.7 3.5-3.5 7.1-4.2 11-0.9 5.3 0.7 7.6 2.5 10.2 2.4 3.3 5.1 7.1 3.3 17.5-0.4 2.2-0.9 4.2-1.4 6.2-0.5 1.8-0.9 3.5-1.2 5.2-0.8 4.6-1 10.1 3.5 18.9 0.2 0.4 0.1 0.8-0.3 1q-0.2 0.1-0.3 0.1z"/><path class="l" d="m1127.1 614.6c7 1.6 13.8 2.8 20.7 2.3-1-2.8-1.4-5.6-0.3-8.8 2.1-6 7.8-10.5 9.8-16.3 3.3-9.7-7.8-14.6-4.9-23 2.2-6.5 8.9-9.6 11.1-16.2 4.2-12.1-9.4-23.2-6.5-31.9 2.6-7.5 11.3-11.5 14.4-20.2 4.8-14.1-7.6-17-3.6-28.5 1.3-3.8 3.7-8.2 5.1-12.4 2.7-7.8 1.1-13.6-7.4-16.5-4.4-1.6-10.5 0.8-12.3 6-2.4 6.8 2.4 16.9 0.1 23.4q0 0.1 0 0.2c-1.7 4.4-7.7 5.8-9.4 10.7-2.6 7.6 9.4 17.1 5.4 28.7-2.1 6.3-10.5 8.1-12.8 14.6-2.4 7 4.5 12.9 2 20.1-2 5.9-8.5 9.5-10.5 15.2-3.2 9.4 9.3 15.2 5.7 25.6-1.7 5.1-6.5 8.6-8.3 13.9-1.4 4.2-0.3 9.3 1.7 13.1z"/><path class="f" d="m1138.1 624.3c-0.3 0-0.6-0.2-0.7-0.5-3.1-9.8-2.1-15.5-0.5-20.2 0.6-1.7 1.3-3.3 2.1-5.1 0.8-1.8 1.6-3.7 2.3-5.8 3.2-9.3 1.4-13-0.4-16.6-1.5-3-2.9-5.9-0.9-11.6 1.3-3.9 3.7-7.3 6.1-10.5 2.2-3.2 4.5-6.4 5.8-10.1 1.4-4.1 0.6-7.7-0.3-11.5-0.9-4.2-1.9-8.7-0.1-14.1 1.2-3.2 3-6.2 4.7-9.1 1.7-2.8 3.4-5.7 4.5-8.8 2-5.9 0.6-9.6-0.9-13.2-1.1-2.7-2.2-5.5-1.8-9.1 0.4-2.9 1.2-5.5 2-8 1.5-4.8 2.7-9 0.6-14.6-0.1-0.3 0.1-0.8 0.5-0.9 0.3-0.2 0.8 0 0.9 0.4 2.3 6.1 0.9 10.7-0.6 15.6-0.7 2.4-1.5 4.9-1.9 7.7-0.4 3.2 0.6 5.7 1.7 8.4 1.5 3.8 3.1 7.8 0.9 14.2-1.1 3.2-2.9 6.2-4.6 9.1-1.7 2.8-3.5 5.7-4.5 8.8-1.8 5-0.8 9.2 0.1 13.3 0.9 3.8 1.7 7.8 0.3 12.2-1.4 4-3.8 7.3-6.1 10.5-2.3 3.2-4.6 6.5-5.9 10.2-1.8 5.1-0.5 7.6 0.9 10.5 1.8 3.6 3.8 7.8 0.4 17.7-0.7 2.2-1.6 4.1-2.3 5.9-0.8 1.7-1.5 3.3-2.1 5-1.5 4.5-2.5 9.8 0.6 19.2 0.1 0.4-0.1 0.8-0.5 1q-0.1 0-0.3 0z"/><path class="i" d="m1125.5 650.2c6.6 2.7 13.1 5 20 5.5-0.5-2.8-0.4-5.7 1.2-8.7 3-5.6 9.3-9 12.2-14.5 4.9-9.1-5.3-15.6-1.1-23.4 3.2-6.1 10.3-8.1 13.6-14.3 6-11.3-5.7-24.4-1.3-32.5 3.7-7 12.9-9.5 17.3-17.7 7-13.1-4.7-18 1-28.7 1.9-3.6 5-7.5 7.1-11.4 3.9-7.3 3.2-13.3-4.7-17.5-4.1-2.2-10.5-0.9-13.1 3.9-3.4 6.5-0.4 17.2-3.6 23.2q-0.1 0.1-0.1 0.2c-2.3 4.1-8.5 4.5-10.9 9.1-3.8 7.1 6.5 18.3 0.7 29.2-3.1 5.8-11.7 6.3-14.9 12.3-3.6 6.5 2.3 13.4-1.3 20.2-2.9 5.4-10 8-12.8 13.3-4.7 8.8 6.8 16.5 1.6 26.2-2.6 4.8-7.8 7.5-10.5 12.3-2.1 4-1.8 9.3-0.4 13.3z"/><path class="f" d="m1135 661.6c-0.4 0-0.7-0.3-0.8-0.7-1.5-10.2 0.4-15.6 2.7-20 0.9-1.6 1.9-3.1 2.9-4.7 1-1.7 2.1-3.4 3.2-5.3 4.6-8.7 3.4-12.7 2.3-16.5-1-3.2-1.9-6.3 0.9-11.6 2-3.6 4.9-6.6 7.7-9.4 2.7-2.8 5.5-5.6 7.4-9.1 2-3.7 1.8-7.4 1.5-11.3-0.2-4.4-0.5-8.9 2.2-13.9 1.6-3.1 3.9-5.7 6-8.3 2.2-2.5 4.4-5.1 5.9-8 2.9-5.5 2.1-9.4 1.2-13.1-0.6-2.9-1.3-5.8-0.3-9.3 0.9-2.8 2.1-5.2 3.2-7.6 2.2-4.5 4.2-8.4 3-14.3-0.1-0.4 0.2-0.8 0.6-0.9 0.4 0 0.8 0.2 0.9 0.6 1.3 6.4-0.9 10.7-3.2 15.3-1.1 2.3-2.2 4.6-3 7.3-0.9 3.1-0.3 5.8 0.3 8.6 0.9 4 1.8 8.1-1.4 14.1-1.6 3.1-3.8 5.7-6 8.3-2.1 2.5-4.3 5.1-5.9 8-2.5 4.6-2.2 8.9-2 13.1 0.3 3.9 0.5 8-1.7 12.1-1.9 3.7-4.8 6.6-7.6 9.4-2.8 2.8-5.6 5.7-7.5 9.1-2.5 4.8-1.7 7.4-0.8 10.5 1.2 3.9 2.6 8.3-2.4 17.6-1.1 2-2.2 3.7-3.3 5.4-1 1.6-1.9 3.1-2.7 4.7-2.2 4.1-4.1 9.2-2.6 19 0.1 0.4-0.2 0.8-0.6 0.8q-0.1 0.1-0.1 0.1z"/><path class="n" d="m1173.5 631.1c0-22.6 0-31.5 0-31.5h-39.8-39.9c0 0 0 8.9 0 31.5 0 25.2-71.2 67.4-10.6 186.3h101c61.6-121-10.7-159.6-10.7-186.3z"/><path class="j" d="m1182 599.6h-96.2v-7h96.2z"/></svg>