<svg version="1.2" xmlns="http://www.w3.org/2000/svg" viewBox="0 0 1268 802" width="1268" height="802"><style>.a{fill:#5d93af}.b{fill:#7cb1c9}.c{fill:#b0daf1}.d{fill:#89c1d7}.e{fill:#95cde0}.f{fill:#74a2d7}.g{fill:#94adb5}.h{fill:#639bc3}.i{fill:#7dbeaf}.j{fill:#6cafb1}.k{fill:#9dcbb0}.l{fill:#9bbcb2}.m{fill:#11111b}.n{fill:#fff}.o{fill:#5c67ab}.p{fill:#c3322b}.q{fill:#404a99}.r{fill:#676871}.s{fill:#8e8e90}.t{fill:#b1b1ab}.u{fill:#465ea6}.v{fill:#5a8848}.w{fill:#325631}.x{fill:#d1ac38}.y{fill:#ce542b}.z{fill:#cf7f31}.A{fill:#2f4697}.B{fill:#1d204d}.C{fill:#8fccee}</style><path class="a" d="m944.2 457.2c-2.5-0.8-4.9-2.2-6.7-4.1-3-2.9-4.8-7-4.8-11.5 0-4.5 1.8-8.6 4.8-11.5 2.9-3 7-4.8 11.5-4.8h1.7c0.8-4.1 2.8-7.7 5.6-10.6 2.9-2.8 6.5-4.8 10.6-5.6v-10.2c0-4.7 1.9-9.1 5-12.3l0.2-0.3c3.2-3.2 7.7-5.2 12.6-5.2 4.8 0 9.1 1.9 12.3 5l0.3 0.2c3.2 3.3 5.2 7.7 5.2 12.6v10.2c4.1 0.8 7.7 2.8 10.5 5.6 2.8 2.9 4.9 6.5 5.7 10.6h1.7c4.4 0 8.5 1.8 11.5 4.8 2.9 2.9 4.8 7 4.8 11.5 0 4.5-1.9 8.6-4.8 11.5-1.9 1.9-4.2 3.3-6.8 4.1v15.7c0 15.9 12.5 31.4 30.2 53.5 5.6 7 11.7 14.6 17.9 22.9h0.1c24.2 33.3 34.6 65.3 37.3 93.4 4.2 43.2-9.7 77.7-19.3 95.1-8 14.3-17.8 26.3-28 34.8-10.7 8.9-21.9 14-31.6 14h-94c-9.8 0-20.9-5.1-31.6-14-10.2-8.5-20.1-20.5-28-34.8-9.6-17.4-23.5-51.9-19.4-95.1 2.7-28.1 13.1-59.9 37.2-93.1l0.2-0.3c6.3-8.3 12.4-15.9 18-22.9 17.7-22.1 30.1-37.6 30.1-53.5z"/><path class="b" d="m959 425.3h51.4c-0.7-1.9-1.7-3.5-3.1-4.9-2.2-2.3-5.4-3.7-8.8-3.7h-27.6c-3.5 0-6.6 1.4-8.9 3.7-1.3 1.4-2.4 3-3 4.9z"/><path class="c" d="m1017.1 457.9h-64.8v15c0 18.6-13.2 35.1-32 58.5-5.5 6.9-11.4 14.3-17.8 22.7l-0.1 0.2c-23.2 31.9-33.1 62.3-35.7 89.2-4 41.1 9.2 73.9 18.4 90.4 7.4 13.5 16.6 24.7 26.1 32.5 9.2 7.7 18.6 12.1 26.5 12.1h94c7.9 0 17.2-4.4 26.5-12.1 9.4-7.8 18.6-19 26.1-32.5 9.1-16.5 22.3-49.3 18.4-90.4-2.6-26.9-12.6-57.4-35.9-89.4-6.3-8.4-12.3-15.8-17.8-22.7-18.7-23.4-31.9-39.9-31.9-58.5z"/><path class="d" d="m949 449.9h71.4 0.4 0.1c2.1-0.2 3.9-1.1 5.3-2.4 1.5-1.6 2.4-3.6 2.4-5.9 0-2.3-0.9-4.4-2.4-5.9-1.5-1.5-3.6-2.4-5.8-2.4h-5.3-60.8-5.3c-2.3 0-4.3 0.9-5.9 2.4-1.5 1.5-2.4 3.6-2.4 5.9 0 2.3 0.9 4.3 2.4 5.9 1.4 1.3 3.3 2.2 5.4 2.4h0.1z"/><path class="d" d="m994.5 408.7v-9.8c0-2.7-1.1-5.1-2.9-6.9l-0.2-0.2c-1.7-1.6-4.1-2.7-6.7-2.7-2.7 0-5.2 1.2-6.9 2.9l-0.2 0.2c-1.7 1.8-2.7 4.1-2.7 6.7v9.8z"/><path class="e" d="m983.9 472.9c0 18.6 13.2 35.1 32 58.5 5.5 6.9 11.4 14.3 17.8 22.7 23.3 32 33.2 62.5 35.8 89.4 4 41.1-9.2 73.9-18.4 90.4-7.4 13.5-16.6 24.7-26.1 32.5-9.2 7.7-18.6 12.1-26.5 12.1h33.2c7.9 0 17.2-4.4 26.5-12.1 9.4-7.8 18.6-19 26.1-32.5 9.1-16.5 22.3-49.3 18.4-90.4-2.6-26.9-12.6-57.4-35.9-89.4-6.3-8.4-12.3-15.8-17.8-22.7-18.7-23.4-31.9-39.9-31.9-58.5v-15h-64.8v15z"/><path class="f" d="m984.7 725c41.2 0 74.8-33.6 74.8-74.8 0-41.2-33.6-74.8-74.8-74.8-41.2 0-74.8 33.6-74.8 74.8 0 41.2 33.6 74.8 74.8 74.8z"/><path class="c" d="m960.2 662.2c-6.6 0-12-5.4-12-12 0-6.7 5.4-12.1 12-12.1h12.4v-12.4c0-6.6 5.4-12 12.1-12 6.6 0 12 5.4 12 12v12.4h12.4c6.7 0 12.1 5.4 12.1 12.1 0 6.6-5.4 12-12.1 12h-12.4v12.4c0 6.7-5.4 12.1-12 12.1-6.7 0-12.1-5.4-12.1-12.1v-12.4z"/><path fill-rule="evenodd" class="a" d="m944.2 457.2c-2.5-0.8-4.9-2.2-6.7-4.1-3-2.9-4.8-7-4.8-11.5 0-4.5 1.8-8.6 4.8-11.5 2.9-3 7-4.8 11.5-4.8h1.7c0.8-4.1 2.8-7.7 5.6-10.6 2.9-2.8 6.5-4.8 10.6-5.6v-10.2c0-4.7 1.9-9.1 5-12.3l0.2-0.3c3.2-3.2 7.7-5.2 12.6-5.2 4.8 0 9.1 1.9 12.3 5l0.3 0.2c3.2 3.3 5.2 7.7 5.2 12.6v10.2c4.1 0.8 7.7 2.8 10.5 5.6 2.8 2.9 4.9 6.5 5.7 10.6h1.7c4.4 0 8.5 1.8 11.5 4.8 2.9 2.9 4.8 7 4.8 11.5 0 4.5-1.9 8.6-4.8 11.5-1.9 1.9-4.2 3.3-6.8 4.1v15.7c0 15.9 12.5 31.4 30.2 53.5 5.6 7 11.7 14.6 17.9 22.9h0.1c24.2 33.3 34.6 65.3 37.3 93.4 4.2 43.2-9.7 77.7-19.3 95.1-8 14.3-17.8 26.3-28 34.8-10.7 8.9-21.9 14-31.6 14h-94c-9.8 0-20.9-5.1-31.6-14-10.2-8.5-20.1-20.5-28-34.8-9.6-17.4-23.5-51.9-19.4-95.1 2.7-28.1 13.1-59.9 37.2-93.1l0.2-0.3c6.3-8.3 12.4-15.9 18-22.9 17.7-22.1 30.1-37.6 30.1-53.5zm4.8-7.3h71.4 0.4 0.1c2.1-0.1 3.9-1 5.3-2.4 1.5-1.5 2.4-3.6 2.4-5.9 0-2.3-0.9-4.3-2.4-5.8-1.5-1.5-3.6-2.5-5.8-2.5h-71.4c-2.3 0-4.3 1-5.9 2.5-1.5 1.5-2.4 3.5-2.4 5.8 0 2.3 0.9 4.4 2.4 5.9 1.4 1.4 3.3 2.3 5.4 2.4h0.1zm68 8h-64.8v15.1c0 18.6-13.2 35-31.9 58.4-5.5 6.9-11.5 14.3-17.8 22.7l-0.1 0.2c-23.2 31.9-33.2 62.4-35.7 89.2-4 41.1 9.2 73.9 18.3 90.4 7.5 13.5 16.7 24.7 26.1 32.5 9.3 7.7 18.7 12.1 26.6 12.1h93.9c7.9 0 17.3-4.4 26.5-12.1 9.5-7.8 18.7-19 26.1-32.5 9.2-16.5 22.4-49.3 18.4-90.4-2.6-26.9-12.5-57.4-35.8-89.4-6.4-8.4-12.3-15.8-17.8-22.7-18.8-23.4-32-39.8-32-58.4zm-22.6-49.3v-9.7c0-2.7-1.1-5.2-2.8-6.9l-0.2-0.2c-1.8-1.7-4.1-2.7-6.8-2.7-2.6 0-5.1 1.1-6.9 2.9l-0.2 0.1c-1.6 1.8-2.6 4.2-2.6 6.8v9.7zm-35.5 16.6h51.4c-0.7-1.8-1.7-3.5-3.1-4.8-2.2-2.3-5.4-3.7-8.8-3.7h-27.6c-3.5 0-6.6 1.4-8.9 3.7-1.4 1.3-2.4 3-3 4.8z"/><path class="a" d="m215.8 286.3h82.4 0.1 11.7c0 0 7.5-0.3 11 4.1 2.3 2.9 19.3 25.2 20 26 0 0 5 6 4.8 13.8l0.1 14.7c0 11.8-8.7 11.8-8.7 11.8h-9q0.2 0.9 0.2 1.8v23.4q0 1.9-0.7 3.6c2.9 1.7 6.1 4.9 7.4 11 1.7 8.1 4.9 36.7 6.7 52.8l0.6 6c1.3 11.6 6.1 18.7 11.3 26.5 8 12 17.1 25.5 17.7 57.4 0.2 54.2 0.1 108.4 0.1 162.6 0 4.6-1.9 8.9-5 12-3.1 3.1-7.3 5-12 5h-116.7c-4.7 0-9-1.9-12.1-5-3-3.1-4.9-7.4-4.9-12v-163c0-6.4 0.5-13.8 2.5-21.4 1.9-7.6 5.3-15.5 11-22.8 10.7-13.7 35.5-42.9 35.6-43 0.4-0.5 4.9-6.3-0.6-11.1-2.8-2-4.3-4.6-5.1-7l-0.1-0.2c-0.7-2.5-0.8-4.6-0.8-5.9v-30.1c0-6.4 3.3-9.9 6.3-11.7-0.5-1.1-0.8-2.4-0.8-3.7v-23.4q0-0.9 0.2-1.8h-1.8c-4.2 0-8.8-4.5-8.9-4.5l-0.3-0.4-11.5-12.1c-3 8.4-7.8 21.4-11.8 31.8-3.3 8.3-6.3 15.3-7.9 17.8-5.5 8.7-12.9 8.8-12.9 8.8h-4.7c-7.2 0-5.9-6.5-5.5-8.2q0.2-0.8 0.6-1.4c2.8-4.4 5.6-10.8 7.5-18.2 1.7-6.6 2.8-14 2.8-21.5v-26.4c-2.1-0.2-3.9-1.2-5.4-2.6q-1.1-1.1-1.8-2.6h-7.3c-2.3 0-4.4-0.5-6-1.5-2.3-1.3-3.7-3.3-3.7-5.8v-11c0-2.5 1.4-4.5 3.7-5.8 1.6-0.9 3.7-1.5 6-1.5h7.3q0.7-1.5 1.8-2.6c1.7-1.6 4-2.7 6.6-2.7z"/><path class="g" d="m240.4 333.3c-3.2-3.4-5.9-6.2-7.1-7.4-2.6-2.7-9.1-3.3-10.6-3.4v26.3c0 8.2-1.2 16.3-3.1 23.5-1.8 6.8-4.3 12.9-6.9 17.7h1.2c0 0 3 0 6.2-5 1.3-2 4-8.5 7.1-16.5 4.9-12.4 10.4-27.7 13.2-35.2z"/><path class="h" d="m278.6 383.7h5.9 28.2 5.9c0.5 0 0.9-0.2 1.3-0.5 0.3-0.3 0.5-0.8 0.5-1.3v-23.4c0-0.5-0.2-0.9-0.5-1.2l-0.2-0.2c-0.3-0.2-0.6-0.4-1.1-0.4h-40c-0.5 0-0.9 0.2-1.2 0.5-0.3 0.4-0.5 0.8-0.5 1.3v23.4c0 0.5 0.2 1 0.5 1.3 0.3 0.3 0.7 0.5 1.2 0.5z"/><path class="c" d="m300.3 294.3h-84.5c-0.3 0-0.7 0.2-0.9 0.4-0.2 0.2-0.3 0.5-0.4 0.9v17.6 0.1c0.1 0.3 0.2 0.6 0.4 0.8 0.2 0.2 0.6 0.4 0.9 0.4h2.8 0.1 81.6c0.3 0 0.6-0.2 0.8-0.4 0.3-0.2 0.4-0.5 0.4-0.9v-17.6c0-0.3-0.1-0.7-0.4-0.9-0.2-0.2-0.5-0.4-0.8-0.4z"/><path class="g" d="m206.5 309.2v-9.6h-6.4q-1 0-1.7 0.3v9.1q0.7 0.2 1.7 0.2z"/><path class="g" d="m309.5 294.3q0 0.7 0 1.3v17.6c0 2.6-1 4.9-2.7 6.6-1.7 1.7-4 2.7-6.5 2.7h-59.1l6.6 7 0.1 0.1c6.5 6.8 14.3 15 15.9 16.7l0.2 0.3c0 0 2.2 2.1 3.2 2.1h11.4 40 0.1 18.5c0 0 0.6 0 0.6-3.8l0.1-14.7c0-4.9-3.2-8.8-3.2-8.8l-0.1-0.1c0 0-17.9-23.4-19.9-25.9-0.9-1.1-4.7-1.1-4.7-1.1z"/><path class="i" d="m274.4 434.3c12.1 10.3 1.7 22.4 1.6 22.5-0.1 0.1-24.6 28.9-35.3 42.7-5 6.4-8 13.3-9.7 19.9-1.7 6.7-2.2 13.4-2.2 19.4v163c0 2.4 1 4.7 2.6 6.3 1.7 1.6 3.9 2.6 6.4 2.6h116.7c2.5 0 4.7-1 6.3-2.6 1.7-1.6 2.7-3.9 2.7-6.3v-153.6l-0.1-8.8c-0.6-29.6-8.9-42.1-16.4-53.2-5.7-8.6-11-16.5-12.5-30l-0.7-6c-1.8-16-4.9-44.4-6.5-52.1-1.2-5.5-4.6-6.3-5.3-6.4h-3.4c-0.6 0-39.4 0-40 0h-3.2c-0.9 0.2-4 1.3-4 5.6v30.1c0 0.8 0 2.2 0.4 3.5v0.1c0.4 1.1 1.1 2.2 2.3 3.1z"/><path class="j" d="m309.8 456.2c1.5 13.5 6.8 21.4 12.6 30 7.4 11.1 15.8 23.6 16.4 53.2v8.8 153.6c0 2.4-1 4.7-2.6 6.3-1.6 1.6-3.9 2.6-6.3 2.6h24.6c4.9 0 9-4 9-8.9v-153.6-1.3c-0.1-12.1-0.8-21.2-2.2-28.7-1.5-7.2-3.5-13-5.9-17.9-2.3-4.6-5-9.1-8.4-14.1-1.4-2.1-2.8-4.3-4.2-6.4-2.8-4.6-4.7-8.3-6-12.7-1.1-3.2-1.9-6.8-2.3-10.9l-0.7-5.8q0-0.1 0-0.2c-1.8-16-4.9-44.4-6.5-52.1-0.8-3.6-2.5-5.1-3.8-5.8-0.8-0.4-1.6-0.5-2.3-0.6h-2.6-21.3c0.7 0.1 4.2 0.9 5.3 6.4 1.6 7.7 4.8 36.1 6.5 52.1z"/><path class="a" d="m261.9 527.6h68.4c4.6 0 8.4 3.7 8.4 8.3v122c0 4.6-3.8 8.3-8.4 8.3h-68.4c-4.6 0-8.3-3.7-8.3-8.3v-122c0-4.6 3.7-8.3 8.3-8.3z"/><path class="c" d="m326.6 595.3l-16.8-44.2c-0.6-1.6-2.1-2.6-3.8-2.6l-36.3 0.2c-0.9-0.1-1.7 0.2-2.5 0.7-1.8 1.2-2.3 3.7-1 5.5l14.1 20.8h-9.4q-0.9 0-1.8 0.4c-2 1.1-2.7 3.5-1.7 5.5l32.7 61.6c0.9 1.6 2.8 2.5 4.6 2 2.1-0.6 3.4-2.8 2.8-4.9l-10.5-39.6h25.8q0.7 0 1.4-0.3c2.1-0.8 3.1-3.1 2.4-5.1z"/><path fill-rule="evenodd" class="a" d="m215.8 286.3h94.2c0 0 7.5-0.3 11 4.1 2.3 2.9 19.3 25.2 20 26 0 0 5 6 4.8 13.8l0.1 14.7c0 11.8-8.7 11.8-8.7 11.8h-9q0.2 0.9 0.2 1.8v23.4q0 1.9-0.7 3.6c2.9 1.7 6.1 4.9 7.4 11 1.7 8.1 4.9 36.7 6.7 52.8l0.6 6c1.3 11.6 6.1 18.7 11.3 26.5 8 12 17.1 25.5 17.7 57.4 0.2 54.2 0.1 108.4 0.1 162.6 0 4.6-1.9 8.9-5 12-3.1 3.1-7.3 5-12 5h-116.7c-4.7 0-9-1.9-12.1-5-3-3.1-4.9-7.4-4.9-12v-163c0-6.4 0.5-13.8 2.5-21.4 1.9-7.6 5.3-15.5 11-22.8 10.7-13.7 35.5-42.9 35.6-43 0.4-0.5 4.9-6.3-0.6-11.1-2.8-2-4.3-4.6-5.1-7l-0.1-0.2c-0.7-2.5-0.8-4.6-0.8-5.9v-30.1c0-6.4 3.3-9.9 6.3-11.7-0.5-1.1-0.8-2.4-0.8-3.7v-23.4q0-0.9 0.2-1.8h-1.8c-4.2 0-8.8-4.5-8.9-4.5l-0.3-0.4-11.5-12.1c-3 8.4-7.8 21.4-11.8 31.8-3.3 8.3-6.3 15.3-7.9 17.8-5.5 8.7-12.9 8.8-12.9 8.8h-4.7c-7.2 0-5.9-6.5-5.5-8.2q0.2-0.8 0.6-1.4c2.8-4.4 5.6-10.8 7.5-18.2 1.7-6.6 2.8-14 2.8-21.5v-26.4c-2.1-0.2-3.9-1.2-5.4-2.6q-1.1-1.1-1.8-2.6h-7.3c-2.3 0-4.4-0.5-6-1.5-2.3-1.3-3.7-3.3-3.7-5.8v-11c0-2.5 1.4-4.5 3.7-5.8 1.6-0.9 3.7-1.5 6-1.5h7.3q0.7-1.5 1.8-2.6c1.7-1.6 4-2.7 6.6-2.7zm58.6 148c12.1 10.3 1.7 22.4 1.6 22.5-0.1 0.1-24.6 28.9-35.3 42.7-5 6.4-8 13.3-9.7 19.9-1.7 6.7-2.2 13.4-2.2 19.4v163c0 2.4 1 4.7 2.6 6.3 1.7 1.6 3.9 2.6 6.4 2.6h116.7c2.5 0 4.7-1 6.3-2.6 1.7-1.6 2.7-3.9 2.7-6.3v-153.6l-0.1-8.8c-0.6-29.6-8.9-42.1-16.4-53.2-5.7-8.6-11-16.5-12.5-30l-0.7-6c-1.8-16-4.9-44.4-6.5-52.1-1.2-5.5-4.6-6.3-5.3-6.4-0.7 0-42.8 0-43.4 0h-3.2c-0.9 0.2-4 1.3-4 5.6v30.1c0 0.8 0 2.2 0.4 3.5v0.1c0.4 1.1 1.1 2.2 2.3 3.1zm35.1-140q0.1 0.7 0.1 1.3v17.6c0 2.6-1.1 4.9-2.7 6.6-1.7 1.7-4 2.7-6.6 2.7h-59.1l6.6 7h0.1v0.1c6.5 6.8 14.3 15 15.9 16.7l0.3 0.3c0 0 2.1 2.1 3.1 2.1h70c0 0 0.7 0 0.7-3.8v-14.7c0.1-4.9-3.2-8.8-3.2-8.8v-0.1c-0.1 0-17.9-23.4-19.9-25.9-0.9-1.1-4.7-1.1-4.8-1.1zm-102.9 14.9v-9.6h-6.4q-1 0-1.7 0.3v9.1q0.7 0.2 1.7 0.2zm93.7-14.9h-84.4c-0.4 0-0.7 0.2-0.9 0.4-0.2 0.2-0.4 0.5-0.4 0.9v17.7c0 0.3 0.2 0.6 0.4 0.8 0.2 0.2 0.5 0.4 0.9 0.4h84.4c0.4 0 0.7-0.2 0.9-0.4 0.2-0.2 0.4-0.5 0.4-0.9v-17.6c0-0.3-0.2-0.7-0.4-0.9-0.2-0.2-0.5-0.4-0.9-0.4zm18.4 89.4c0.4 0 0.9-0.2 1.2-0.5 0.3-0.3 0.5-0.8 0.5-1.3v-23.4c0-0.5-0.2-0.9-0.5-1.2l-0.1-0.2c-0.3-0.2-0.7-0.4-1.1-0.4h-40.1c-0.4 0-0.9 0.2-1.2 0.5-0.3 0.4-0.5 0.8-0.5 1.3v23.4c0 0.5 0.2 1 0.5 1.3 0.4 0.3 0.8 0.5 1.2 0.5zm-78.2-50.4c-3.2-3.4-5.8-6.2-7.1-7.4-2.6-2.7-9.1-3.3-10.6-3.4v26.3c0 8.2-1.2 16.3-3.1 23.5-1.8 6.8-4.2 12.9-6.9 17.7h1.3c0 0 2.9 0 6.1-5 1.3-2 4-8.5 7.1-16.5 4.9-12.4 10.5-27.7 13.2-35.2z"/><path class="c" d="m258.6 490.6c1.7-1.4 4.3-1.1 5.6 0.6 1.4 1.7 1.1 4.3-0.6 5.6 0 0-2.7 1.9-6.2 5.7-1.4 1.7-4 1.8-5.6 0.3-1.7-1.5-1.8-4-0.3-5.7 3.9-4.3 7.1-6.5 7.1-6.5zm-19.8 28.6c0.7-2.1 2.9-3.2 5.1-2.6 2.1 0.7 3.2 3 2.6 5.1-0.8 2.4-1.5 5.1-1.9 7.9-0.5 2.8-0.7 5.9-0.7 9.2v75.6c0 2.2-1.8 4-4 4-2.2 0-4-1.8-4-4v-75.6c0-3.7 0.3-7.1 0.8-10.4 0.5-3.3 1.2-6.3 2.1-9.2z"/><path class="a" d="m147.7 488.4c0.3 3.8 4 6.5 4 6.5h0.1c5.4 4 10.9 8 16.1 11.6 15.7 11.1 28.2 19.9 32.6 30.3 6.5 15.3-3.5 23.6-3.5 23.7l-0.1 0.1c0 0-4.6 4-9.1 8-3 2.6-2.4 7.1-2.4 7.1v0.4c0 0.3 10 121.2 10 142.8 0 25.3-24.3 25.9-24.3 25.9-35.9 0.5-72.2 0-108.2 0h-0.6c-3.4-0.3-23.8-2.7-23.8-25.9 0-21.6 9.9-142.5 9.9-142.8l0.1-0.4c0.1-0.7 0.3-4.7-2.4-7.1-4.5-4-9.1-8-9.1-8q-0.3-0.2-0.5-0.4c-1.6-1.6-9-9.8-3.2-23.4 4.5-10.4 16.9-19.2 32.7-30.3 5.1-3.6 10.7-7.6 16-11.6h0.1c0.2-0.1 3.7-2.7 4-6.5q-1-0.6-1.8-1.4c-1.8-1.8-2.9-4.2-2.9-6.9v-23.4c0-2.6 1-4.9 2.7-6.7l0.2-0.3c1.8-1.7 4.2-2.8 6.9-2.8h51.4c2.7 0 5.1 1.1 6.9 2.8 1.8 1.8 2.9 4.3 2.9 7v23.4c0 2.7-1.1 5.1-2.9 6.9q-0.8 0.8-1.8 1.4z"/><path class="k" d="m139.8 489.9h-45.8c-0.9 6.3-6 10.5-7.1 11.4l-0.1 0.1c-5.9 4.4-11.2 8.2-16.2 11.7-14.7 10.4-26.3 18.6-29.9 26.9-3.9 9 0.5 13.6 1.2 14.3 0.6 0.4 5.1 4.4 9.5 8.3 5.1 4.5 5.2 11.5 5 13.8v0.3c0 0.4-9.9 120.9-9.9 142.2 0 16.2 14.2 17.7 16.2 17.9 35.8-0.8 72.4 0 108.3 0 1.4-0.1 16.3-1.2 16.3-17.9 0-21.3-9.9-141.8-9.9-142.2-0.1-1.6-0.4-9.3 5-14.1 4.4-3.9 9-7.9 9.5-8.3 0.7-0.7 5.1-5.3 1.3-14.3-3.6-8.3-15.2-16.5-29.9-26.9-5-3.5-10.3-7.3-16.3-11.7-0.8-0.7-6.2-5-7.2-11.5z"/><path class="k" d="m89.5 479.2q0.3-0.1 0.6-0.1h53.6q0.4 0 0.7 0.1v-22.5c0-0.5-0.2-1-0.5-1.3-0.4-0.3-0.8-0.5-1.3-0.5h-51.4c-0.4 0-0.9 0.2-1.2 0.5l-0.1 0.1c-0.3 0.3-0.4 0.7-0.4 1.2z"/><path class="c" d="m88 545.3h57.8c8.7 0 15.7 7.1 15.7 15.8v121.5c0 8.7-7 15.7-15.7 15.7h-57.8c-8.6 0-15.7-7-15.7-15.7v-121.5c0-8.7 7.1-15.8 15.7-15.8z"/><path class="g" d="m151.4 513.1c14.7 10.4 26.3 18.6 29.9 26.9 3.8 9-0.6 13.6-1.3 14.3-0.5 0.4-5.1 4.4-9.5 8.3-5.4 4.8-5.1 12.5-5 14.1 0 0.4 9.9 120.9 9.9 142.2 0 15.7-13.2 17.6-16 17.8q5.8 0.1 11.6 0.1c1.4-0.1 16.3-1.2 16.3-17.9 0-21.3-9.9-141.8-9.9-142.2-0.1-1.6-0.4-9.3 5-14.1 4.4-3.9 9-7.9 9.5-8.3 0.7-0.7 5.1-5.3 1.3-14.3-3.6-8.3-15.2-16.5-29.9-26.9-5-3.5-10.3-7.3-16.3-11.7-0.8-0.7-6.2-5-7.2-11.5h-11.9c1 6.5 6.4 10.8 7.2 11.5 6 4.4 11.3 8.2 16.3 11.7z"/><path class="l" d="m127.8 456.7v22.4h15.9q0.4 0 0.7 0.1v-22.5c0-0.5-0.2-1-0.5-1.3-0.4-0.3-0.8-0.5-1.3-0.5h-16.6c0.5 0 1 0.2 1.3 0.5 0.3 0.3 0.5 0.8 0.5 1.3z"/><path class="k" d="m99.2 630.6c-4.8 0-8.7-3.9-8.7-8.8 0-4.8 3.9-8.7 8.7-8.7h9v-8.9c0-4.9 3.9-8.7 8.7-8.7 4.8 0 8.7 3.8 8.7 8.7v8.9h9c4.8 0 8.7 3.9 8.7 8.7 0 4.9-3.9 8.8-8.7 8.8h-9v8.9c0 4.8-3.9 8.7-8.7 8.7-4.8 0-8.7-3.9-8.7-8.7v-8.9z"/><path fill-rule="evenodd" class="a" d="m147.7 488.4c0.3 3.8 4 6.5 4 6.5h0.1c5.4 4 10.9 8 16.1 11.6 15.7 11.1 28.2 19.9 32.6 30.3 6.5 15.3-3.5 23.6-3.5 23.7l-0.1 0.1c0 0-4.6 4-9.1 8-3 2.6-2.4 7.1-2.4 7.1v0.4c0 0.3 10 121.2 10 142.8 0 25.3-24.3 25.9-24.3 25.9-35.9 0.5-72.2 0-108.2 0h-0.6c-3.4-0.3-23.8-2.7-23.8-25.9 0-21.6 9.9-142.5 9.9-142.8l0.1-0.4c0.1-0.7 0.3-4.7-2.4-7.1-4.5-4-9.1-8-9.1-8q-0.3-0.2-0.5-0.4c-1.6-1.6-9-9.8-3.2-23.4 4.5-10.4 16.9-19.2 32.7-30.3 5.1-3.6 10.7-7.6 16-11.6h0.1c0.2-0.1 3.7-2.7 4-6.5q-1-0.6-1.8-1.4c-1.8-1.8-2.9-4.2-2.9-6.9v-23.4c0-2.6 1-4.9 2.7-6.7l0.2-0.3c1.8-1.7 4.2-2.8 6.9-2.8h51.4c2.7 0 5.1 1.1 6.9 2.8 1.8 1.8 2.9 4.3 2.9 7v23.4c0 2.7-1.1 5.1-2.9 6.9q-0.8 0.8-1.8 1.4zm-58.2-9.2q0.3-0.1 0.6-0.1h53.6q0.4 0 0.7 0.1v-22.5c0-0.5-0.2-1-0.5-1.3-0.4-0.3-0.8-0.5-1.3-0.5h-51.4c-0.4 0-0.9 0.2-1.2 0.5l-0.1 0.1c-0.3 0.3-0.4 0.7-0.4 1.2zm50.3 10.7h-45.8c-0.9 6.3-6 10.5-7.1 11.4l-0.1 0.1c-5.9 4.4-11.2 8.2-16.2 11.7-14.7 10.4-26.3 18.6-29.9 26.9-3.9 9 0.5 13.6 1.2 14.3 0.6 0.4 5.1 4.4 9.5 8.3 5.1 4.6 5.2 11.6 5 13.8v0.3c0 0.4-9.9 120.9-9.9 142.2 0 16.2 14.2 17.8 16.2 17.9 35.8-0.8 72.4 0 108.3 0 1.4-0.1 16.3-1.2 16.3-17.9 0-21.3-9.9-141.8-9.9-142.2-0.1-1.6-0.4-9.2 5-14.1 4.4-3.9 9-7.9 9.5-8.3 0.7-0.7 5.1-5.3 1.3-14.3-3.6-8.3-15.2-16.5-29.9-26.9-5-3.5-10.3-7.3-16.3-11.7-0.8-0.7-6.2-5-7.2-11.5z"/><path class="c" d="m92.2 508.8c1.7-1.4 4.2-1 5.6 0.7 1.3 1.8 1 4.3-0.8 5.6l-40.8 31.1c-1.8 1.3-4.3 0.9-5.6-0.8-1.3-1.8-1-4.3 0.8-5.6z"/><path class="m" d="m811.5 108.4v0.1c0 0 0 4.7 4.2 8.9l42.3 42.3c1.8 1.8 15 14.7 15 28.9v273.8c0 6.9-2.9 13.2-7.4 17.7-4.6 4.6-10.9 7.4-17.8 7.4h-133.4c-7 0-13.2-2.8-17.8-7.4-4.5-4.5-7.4-10.8-7.4-17.7v-298.6c0-7.7 1.1-14.7 3.5-21.3 2.5-6.7 6.3-12.8 11.8-18.3l50.5-50.4c5.1-5.2 9.6-7.2 13-7.8v-0.2c0-2.7 1-5.4 3-7.4l18.4-18.3c2-2 4.7-3.1 7.3-3.1 2.7 0 5.4 1.1 7.4 3.1l2.7 2.7 20.7-15.4c1.8-1.3 4-1.9 6.1-1.8 2.1 0.2 4.2 1.1 5.8 2.6l8.8 8.8c1.6 1.6 2.4 3.7 2.6 5.8 0.1 2.1-0.4 4.3-1.8 6.1l-15.3 20.7 2.6 2.7c2.1 2 3.1 4.7 3.1 7.4 0 2.7-1 5.3-3.1 7.4l-18.3 18.3c-1.8 1.8-4.1 2.8-6.5 3z"/><path class="n" d="m812.5 48.5l15.4 15.4 14.7-19.8c0.1-0.1 0.2-0.4 0.2-0.7q-0.1-0.4-0.3-0.7l-8.8-8.8c-0.1-0.2-0.4-0.2-0.7-0.3-0.3 0-0.5 0.1-0.7 0.2z"/><path class="o" d="m771.9 74c-0.2-0.1-0.7-0.3-1.7-0.2-2 0-5.1 1.3-9.5 5.7l-50.5 50.4c-4.6 4.7-7.9 9.8-9.9 15.3-2.1 5.7-3 11.9-3 18.6v298.6c0 4.7 1.9 8.9 5 12 3.1 3.1 7.4 5 12.1 5h133.4c4.7 0 9-1.9 12.1-5 3.1-3.1 5-7.3 5-12v-273.8c0-10.9-10.9-21.6-12.4-23.1l-0.3-0.2-42.2-42.2c-6.6-6.7-6.5-14.6-6.5-14.6v-2.9l-0.2-0.2z"/><path class="n" d="m776.7 67.5l32.2 32.2c0.5 0.5 1.1 0.7 1.7 0.7 0.7 0 1.3-0.2 1.7-0.7l18.4-18.3c0.4-0.5 0.6-1.1 0.6-1.7 0-0.6-0.2-1.2-0.6-1.7l-32.3-32.2c-0.4-0.5-1.1-0.7-1.7-0.7-0.6 0-1.2 0.2-1.7 0.7l-18.3 18.3c-0.4 0.5-0.7 1.1-0.7 1.7 0 0.6 0.3 1.2 0.7 1.7z"/><path class="n" d="m735.6 214.7h91c11.9 0 21.7 9.7 21.7 21.7v140.6c0 11.9-9.8 21.6-21.7 21.6h-91c-11.9 0-21.7-9.7-21.7-21.6v-140.6c0-12 9.8-21.7 21.7-21.7z"/><path class="p" d="m737.8 270.7c9.9-9.9 26.2-9.9 36.1 0l7.2 7.2 7.2-7.2c9.9-9.9 26.2-9.9 36.1 0 9.9 9.9 9.9 26.2 0 36.1l-7.2 7.2-36.1 36.1-36.1-36.1-7.2-7.2c-9.9-9.9-9.9-26.2 0-36.1z"/><path class="q" d="m760.7 79.5l-2.5 2.5c31.6 31.7 48.3 49.5 82.1 83.3l0.3 0.2c1.5 1.5 12.4 12.2 12.4 23.1v273.8c0 4.7-1.9 8.9-5 12-3.1 3.1-7.4 5-12.1 5h11.9c4.7 0 9-1.9 12.1-5 3.1-3.1 5-7.3 5-12v-273.8c0-10.9-10.9-21.6-12.4-23.1l-0.3-0.2-42.2-42.2c-6.6-6.7-6.5-14.6-6.5-14.6v-2.9l-0.2-0.2-31.4-31.4c-0.2-0.1-0.7-0.3-1.7-0.2-2 0-5.1 1.3-9.5 5.7z"/><path fill-rule="evenodd" class="m" d="m811.5 108.4v0.1c0 0 0 4.7 4.2 8.9l42.3 42.3c1.8 1.8 15 14.7 15 28.9v273.8c0 6.9-2.9 13.2-7.4 17.7-4.6 4.6-10.9 7.4-17.8 7.4h-133.4c-7 0-13.2-2.8-17.8-7.4-4.5-4.5-7.4-10.8-7.4-17.7v-298.6c0-7.7 1.1-14.7 3.5-21.3 2.5-6.7 6.3-12.8 11.8-18.3l50.5-50.4c5.1-5.2 9.6-7.2 13-7.8v-0.2c0-2.7 1-5.4 3-7.4l18.4-18.3c2-2 4.7-3.1 7.3-3.1 2.7 0 5.4 1.1 7.4 3.1l2.7 2.7 20.7-15.4c1.8-1.3 4-1.9 6.1-1.8 2.1 0.2 4.2 1.1 5.8 2.6l8.8 8.8c1.6 1.6 2.4 3.7 2.6 5.8 0.1 2.1-0.4 4.3-1.8 6.1l-15.3 20.7 2.6 2.7c2.1 2 3.1 4.7 3.1 7.4 0 2.7-1 5.3-3.1 7.4l-18.3 18.3c-1.8 1.8-4.1 2.8-6.5 3zm-34.8-40.9l32.2 32.2c0.5 0.5 1.1 0.7 1.7 0.7 0.7 0 1.3-0.2 1.7-0.7l18.4-18.3c0.4-0.5 0.6-1.1 0.6-1.7 0-0.6-0.2-1.2-0.6-1.7l-32.3-32.2c-0.4-0.5-1.1-0.7-1.7-0.7-0.6 0-1.2 0.2-1.7 0.7l-18.3 18.3c-0.4 0.5-0.7 1.1-0.7 1.7 0 0.6 0.3 1.2 0.7 1.7zm-6.5 6.3c-2 0-5.1 1.3-9.5 5.7l-50.5 50.4c-4.6 4.7-7.9 9.8-9.9 15.3-2.1 5.7-3 11.9-3 18.6v298.6c0 4.7 1.9 8.9 5 12 3.1 3.1 7.4 5 12.1 5h133.4c4.7 0 9-1.9 12.1-5 3.1-3.1 5-7.3 5-12v-273.8c0-10.9-10.9-21.6-12.4-23.1l-0.3-0.2-42.2-42.2c-6.6-6.7-6.5-14.6-6.5-14.6v-2.9l-0.2-0.2-31.4-31.4c-0.2-0.1-0.7-0.3-1.7-0.2zm57.7-9.9l14.7-19.8c0.1-0.1 0.2-0.4 0.2-0.7q-0.1-0.4-0.3-0.7l-8.8-8.8c-0.1-0.2-0.4-0.2-0.7-0.3-0.3 0-0.5 0.1-0.7 0.2l-19.8 14.7z"/><path class="n" d="m749.5 108.9c1.5-1.6 4-1.8 5.6-0.3 1.7 1.5 1.9 4 0.4 5.7l-30.2 33.9c-0.7 1.9-3 8.3-3.5 16.5-0.2 2.2-2.1 3.9-4.3 3.7-2.2-0.1-3.9-2.1-3.7-4.3 0.7-10.2 3.8-18.1 4.3-19.4q0.3-0.8 0.8-1.3zm-35.9 71.2c0-2.3 1.8-4.1 4-4.1 2.3 0 4 1.8 4 4.1v10.1c0 2.2-1.7 4-4 4-2.2 0-4-1.8-4-4z"/><path class="m" d="m570.7 107.6c-2.6-0.8-4.9-2.2-6.8-4.1-2.9-3-4.8-7.1-4.8-11.5 0-4.5 1.9-8.6 4.8-11.6 3-2.9 7.1-4.8 11.6-4.8h1.6c0.9-4 2.9-7.7 5.7-10.5 2.8-2.8 6.5-4.8 10.5-5.7v-10.1c0-4.8 1.9-9.1 5-12.3l0.3-0.3c3.2-3.2 7.6-5.2 12.5-5.2 4.8 0 9.2 1.9 12.4 5l0.2 0.2c3.3 3.2 5.3 7.7 5.3 12.6v10.1c4 0.9 7.7 2.9 10.5 5.7 2.8 2.8 4.8 6.5 5.6 10.5h1.7c4.5 0 8.6 1.9 11.5 4.8 3 3 4.8 7.1 4.8 11.6 0 4.4-1.8 8.5-4.8 11.5-1.8 1.9-4.1 3.3-6.7 4.1v15.7c0 15.8 12.4 31.4 30.1 53.5 5.6 6.9 11.7 14.5 18 22.8v0.1c24.3 33.3 34.7 65.2 37.4 93.4 4.2 43.2-9.7 77.6-19.4 95-7.9 14.4-17.8 26.4-27.9 34.8-10.7 8.9-21.9 14-31.7 14h-93.9c-9.8 0-21-5.1-31.7-14-10.1-8.4-20-20.4-28-34.8-9.6-17.4-23.5-51.8-19.3-95 2.7-28.1 13-59.9 37.2-93.1l0.2-0.4c6.2-8.3 12.3-15.9 17.9-22.8 17.7-22.1 30.2-37.7 30.2-53.5z"/><path class="r" d="m585.4 75.6h51.4c-0.6-1.8-1.6-3.5-3-4.8-2.3-2.3-5.4-3.7-8.9-3.7h-27.6c-3.4 0-6.6 1.4-8.8 3.7-1.4 1.3-2.4 3-3.1 4.8z"/><path class="n" d="m643.5 108.3h-64.8v15c0 18.6-13.2 35.1-31.9 58.5-5.5 6.8-11.5 14.2-17.8 22.7l-0.2 0.1c-23.1 31.9-33.1 62.4-35.6 89.3-4 41.1 9.2 73.8 18.3 90.4 7.5 13.4 16.7 24.6 26.1 32.5 9.3 7.7 18.7 12.1 26.6 12.1h93.9c7.9 0 17.3-4.4 26.5-12.1 9.5-7.9 18.7-19.1 26.1-32.5 9.2-16.6 22.4-49.3 18.4-90.4-2.6-26.9-12.5-57.5-35.8-89.4-6.4-8.5-12.3-15.9-17.8-22.7-18.8-23.4-32-39.9-32-58.5z"/><path class="s" d="m575.5 100.2h71.3 0.4 0.1 0.1c2-0.1 3.9-1 5.3-2.4 1.5-1.5 2.4-3.6 2.4-5.8 0-2.3-0.9-4.4-2.4-5.9-1.5-1.5-3.6-2.4-5.9-2.4h-5.3-60.7-5.3c-2.3 0-4.4 0.9-5.9 2.4-1.5 1.5-2.4 3.6-2.4 5.9 0 2.2 0.9 4.3 2.4 5.8 1.4 1.4 3.3 2.3 5.3 2.4h0.1z"/><path class="s" d="m620.9 59.1v-9.8c0-2.7-1.1-5.1-2.9-6.9l-0.1-0.2c-1.8-1.7-4.2-2.7-6.8-2.7-2.6 0-5.1 1.1-6.9 2.9l-0.2 0.2c-1.6 1.7-2.6 4.1-2.6 6.7v9.8z"/><path class="t" d="m610.4 123.3c0 18.6 13.2 35.1 32 58.5 5.4 6.8 11.4 14.2 17.8 22.7 23.2 31.9 33.2 62.5 35.8 89.4 3.9 41.1-9.3 73.8-18.4 90.4-7.5 13.4-16.7 24.6-26.1 32.5-9.3 7.7-18.6 12.1-26.5 12.1h33.1c7.9 0 17.3-4.4 26.5-12.1 9.5-7.9 18.7-19.1 26.1-32.5 9.2-16.6 22.4-49.3 18.4-90.4-2.6-26.9-12.5-57.5-35.8-89.4-6.4-8.5-12.3-15.9-17.8-22.7-18.8-23.4-32-39.9-32-58.5v-15h-64.8v15z"/><path class="u" d="m611.1 375.3c41.2 0 74.8-33.6 74.8-74.8 0-41.2-33.6-74.8-74.8-74.8-41.2 0-74.8 33.6-74.8 74.8 0 41.2 33.6 74.8 74.8 74.8z"/><path class="n" d="m586.7 312.6c-6.7 0-12-5.4-12-12.1 0-6.6 5.3-12 12-12h12.4v-12.4c0-6.7 5.4-12.1 12-12.1 6.7 0 12.1 5.4 12.1 12.1v12.4h12.4c6.6 0 12 5.4 12 12 0 6.7-5.4 12.1-12 12.1h-12.4v12.4c0 6.6-5.4 12-12.1 12-6.6 0-12-5.4-12-12v-12.4z"/><path fill-rule="evenodd" class="m" d="m570.7 107.6c-2.6-0.8-4.9-2.2-6.8-4.1-2.9-3-4.8-7.1-4.8-11.5 0-4.5 1.9-8.6 4.8-11.6 3-2.9 7.1-4.8 11.6-4.8h1.6c0.9-4 2.9-7.7 5.7-10.5 2.8-2.8 6.5-4.8 10.5-5.7v-10.1c0-4.8 1.9-9.1 5-12.3l0.3-0.3c3.2-3.2 7.6-5.2 12.5-5.2 4.8 0 9.2 1.9 12.4 5l0.2 0.2c3.3 3.2 5.3 7.7 5.3 12.6v10.1c4 0.9 7.7 2.9 10.5 5.7 2.8 2.8 4.8 6.5 5.6 10.5h1.7c4.5 0 8.6 1.9 11.5 4.8 3 3 4.8 7.1 4.8 11.6 0 4.4-1.8 8.5-4.8 11.5-1.8 1.9-4.1 3.3-6.7 4.1v15.7c0 15.8 12.4 31.4 30.1 53.5 5.6 6.9 11.7 14.5 18 22.8v0.1c24.3 33.3 34.7 65.2 37.4 93.4 4.2 43.2-9.7 77.6-19.4 95-7.9 14.4-17.8 26.4-27.9 34.8-10.7 8.9-21.9 14-31.7 14h-93.9c-9.8 0-21-5.1-31.7-14-10.1-8.4-20-20.4-28-34.8-9.6-17.4-23.5-51.8-19.3-95 2.7-28.1 13-59.9 37.2-93.1l0.2-0.4c6.2-8.3 12.3-15.9 17.9-22.8 17.7-22.1 30.2-37.7 30.2-53.5zm4.8-7.3h71.3 0.4 0.1 0.1c2-0.2 3.9-1.1 5.3-2.5 1.5-1.5 2.4-3.5 2.4-5.8 0-2.3-0.9-4.4-2.4-5.9-1.5-1.5-3.6-2.4-5.9-2.4h-71.3c-2.3 0-4.4 0.9-5.9 2.4-1.5 1.5-2.4 3.6-2.4 5.9 0 2.3 0.9 4.3 2.4 5.8 1.4 1.4 3.3 2.3 5.3 2.5h0.1zm68.1 8h-64.8v15c0 18.6-13.2 35.1-31.9 58.5-5.5 6.8-11.5 14.3-17.8 22.7l-0.2 0.2c-23.2 31.9-33.1 62.3-35.7 89.2-3.9 41.1 9.3 73.8 18.4 90.4 7.5 13.4 16.7 24.6 26.1 32.5 9.3 7.7 18.6 12.1 26.5 12.1h94c7.9 0 17.3-4.4 26.5-12.1 9.5-7.9 18.7-19.1 26.1-32.5 9.2-16.6 22.4-49.3 18.4-90.4-2.6-26.9-12.5-57.4-35.8-89.4-6.4-8.4-12.3-15.9-17.8-22.7-18.8-23.4-32-39.9-32-58.5zm-22.6-49.2v-9.8c0-2.7-1.1-5.1-2.9-6.9l-0.1-0.2c-1.8-1.6-4.2-2.7-6.8-2.7-2.7 0-5.1 1.1-6.9 2.9l-0.2 0.2c-1.6 1.8-2.7 4.1-2.7 6.7v9.8zm-35.5 16.6h51.4c-0.6-1.9-1.6-3.5-3-4.9-2.3-2.3-5.4-3.7-8.9-3.7h-27.6c-3.4 0-6.5 1.4-8.8 3.7-1.4 1.4-2.4 3-3.1 4.9z"/><path class="m" d="m496.9 126.2c2.4 1.5 4.5 3.5 6 5.8l0.2 0.3c1.9 3 3 6.5 3 10.3v20.6c1.4 0.6 2.6 1.4 3.7 2.5 2 2 3.2 4.7 3.2 7.7v28.1c0 3-1.2 5.8-3.2 7.8q-0.3 0.2-0.6 0.5c1 6.1 1.9 12.8 2.7 18.1l0.9 6.2c1.7 11.4 8 18.4 14.8 26.1 10.7 12.1 22.7 25.7 23.6 57.9v8.8c0.1 51.3 0.1 102.5 0.1 153.8 0 4.9-2.6 9.2-6.7 12.3-3.8 2.9-8.9 4.7-14.5 4.7h-110.4c-5.6 0-10.7-1.8-14.5-4.7-4.1-3.1-6.6-7.4-6.6-12.3 0-54.2 0-108.4 0-162.6 0.9-32.2 12.9-45.8 23.6-57.9 6.9-7.7 13.1-14.7 14.8-26.1l0.9-6.1c0.8-5.4 1.7-12.1 2.7-18.2q-0.3-0.3-0.5-0.5c-2-2-3.3-4.8-3.3-7.8v-28.1c0-3 1.3-5.7 3.3-7.7 1-1.1 2.2-1.9 3.6-2.5v-20.6c0-3.9 1.2-7.5 3.2-10.6 1.5-2.3 3.6-4.3 6-5.8v-11c0-2.3 1-4.5 2.5-6 1.5-1.5 3.7-2.5 6-2.5h27c2.3 0 4.5 1 6 2.5 1.5 1.6 2.5 3.7 2.5 6z"/><path class="v" d="m501.5 212.5h-53.2c-1 6.4-1.8 12.1-2.5 16.6l-0.9 6.1c-2 13.8-9 21.7-16.7 30.3-9.8 11.1-20.8 23.5-21.6 52.8v8.7 22.2c2.1 41.6 0 89.2 0 131.5 0 2.2 1.3 4.3 3.4 5.9 2.5 1.9 5.9 3 9.7 3h110.4c3.8 0 7.2-1.1 9.7-3 2.1-1.6 3.4-3.7 3.4-5.9v-131.6c0-3.7 0-14.4 0-22.2v-8.6c-0.8-29.3-11.8-41.7-21.6-52.8-7.7-8.6-14.7-16.5-16.7-30.3l-0.9-6.1c-0.7-4.6-1.5-10.2-2.5-16.6z"/><path class="p" d="m469.8 150.5c-0.7 0-1.3 0.3-1.8 0.7-0.4 0.5-0.7 1.1-0.7 1.8v13.5 23.3c0 2.1 0.9 4 2.2 5.4 1.4 1.4 3.3 2.2 5.4 2.2 2.1 0 4-0.8 5.4-2.2 1.4-1.4 2.2-3.3 2.2-5.4v-23.2-0.1-13.5c0-0.7-0.3-1.3-0.7-1.8-0.5-0.4-1.1-0.7-1.8-0.7h-10.2z"/><path class="p" d="m459.3 162.5v-9.5q0-1.4 0.3-2.7c-1.6-0.4-3.1-1.2-4.2-2.3-1.5-1.6-2.5-3.7-2.5-6v-4.4c-0.7 1.5-1.1 3.2-1.1 5v19.9z"/><path class="p" d="m469.4 204.5c-2.1-0.8-4-2.1-5.5-3.6v-0.1c-2.9-2.8-4.6-6.7-4.6-11v-19.3h-11.5-0.1c-0.7 0-1.4 0.3-2 0.9-0.5 0.5-0.8 1.2-0.8 2v28.1c0 0.8 0.3 1.6 0.8 2.1 0.6 0.5 1.3 0.9 2.1 0.9z"/><path class="p" d="m490.6 170.5v19.3c0 4.3-1.8 8.2-4.6 11l-0.1 0.1c-1.5 1.5-3.4 2.8-5.5 3.6h21.6c0.8 0 1.6-0.4 2.1-0.9 0.5-0.5 0.9-1.3 0.9-2.1v-28.1c0-0.8-0.4-1.5-0.9-2-0.5-0.6-1.2-0.9-2-0.9h-0.1z"/><path class="p" d="m490.2 150.3q0.3 1.3 0.4 2.7v9.5h7.5v-19.9c0-1.8-0.4-3.5-1.2-5v4.4c0 2.2-0.8 4.2-2.2 5.7l-0.3 0.3c-1.1 1.1-2.6 1.9-4.2 2.3z"/><path class="p" d="m474.9 134.1c3 0 5.5-2.5 5.5-5.5 0-3-2.5-5.5-5.5-5.5-3 0-5.5 2.5-5.5 5.5 0 3 2.5 5.5 5.5 5.5z"/><path class="p" d="m461.4 142.5h8.4 10.2 8.4q0.2-0.1 0.3-0.2l0.1-0.1q0.1-0.1 0.1-0.2v-26.8q0-0.2-0.2-0.3-0.1-0.2-0.3-0.2h-27q-0.2 0-0.3 0.2-0.1 0.1-0.2 0.3v26.8q0.1 0.2 0.2 0.3 0.1 0.1 0.3 0.2z"/><path class="w" d="m481.1 212.5c1 6.4 1.8 12 2.5 16.6l0.9 6.1c2 13.8 9 21.7 16.7 30.3 9.8 11.1 20.8 23.5 21.6 52.8v8.6c0 7.8 0.1 18.5 0 22.2v131.6c0 2.2-1.3 4.3-3.4 5.9-2.5 1.9-5.9 3-9.7 3h20.4c3.8 0 7.2-1.1 9.7-3 2.1-1.6 3.4-3.7 3.4-5.9v-131.6c0-3.7 0-14.4 0-22.2v-8.6c-0.8-29.3-11.8-41.7-21.6-52.8-7.7-8.6-14.7-16.5-16.7-30.3l-0.9-6.1c-0.7-4.6-1.5-10.2-2.5-16.6z"/><path class="m" d="m441.1 314.4h67.7c4.5 0 8.2 3.8 8.2 8.3v106.2c0 4.5-3.7 8.2-8.2 8.2h-67.7c-4.6 0-8.3-3.7-8.3-8.2v-106.2c0-4.5 3.7-8.3 8.3-8.3z"/><path class="x" d="m446.7 374.3l15.6-41.1c0.5-1.4 1.9-2.4 3.4-2.4l33.8 0.2c0.8 0 1.6 0.2 2.3 0.7 1.7 1.1 2.1 3.5 0.9 5.1l-13.1 19.3h8.7q0.9 0 1.7 0.4c1.8 1 2.5 3.2 1.6 5.1l-30.4 57.2c-0.8 1.4-2.5 2.3-4.2 1.8-2-0.5-3.2-2.5-2.7-4.5l9.8-36.8h-24q-0.6 0-1.3-0.2c-1.9-0.8-2.9-2.9-2.1-4.8z"/><path fill-rule="evenodd" class="m" d="m496.9 126.2c2.4 1.5 4.5 3.5 6 5.8l0.2 0.3c1.9 3 3 6.5 3 10.3v20.6c1.4 0.6 2.6 1.4 3.7 2.5 2 2 3.2 4.7 3.2 7.7v28.1c0 3-1.2 5.8-3.2 7.8q-0.3 0.2-0.6 0.5c1 6.1 1.9 12.8 2.7 18.1l0.9 6.2c1.7 11.4 8 18.4 14.8 26.1 10.7 12.1 22.7 25.7 23.6 57.9v8.8c0.1 51.3 0.1 102.5 0.1 153.8 0 4.9-2.6 9.2-6.7 12.3-3.8 2.9-8.9 4.7-14.5 4.7h-110.4c-5.6 0-10.7-1.8-14.5-4.7-4.1-3.1-6.6-7.4-6.6-12.3 0-54.2 0-108.4 0-162.6 0.9-32.2 12.9-45.8 23.6-57.9 6.9-7.7 13.1-14.7 14.8-26.1l0.9-6.1c0.8-5.4 1.7-12.1 2.7-18.2q-0.3-0.3-0.5-0.5c-2-2-3.3-4.8-3.3-7.8v-28.1c0-3 1.3-5.7 3.3-7.7 1-1.1 2.2-1.9 3.6-2.5v-20.6c0-3.9 1.2-7.5 3.2-10.6 1.5-2.3 3.6-4.3 6-5.8v-11c0-2.3 1-4.5 2.5-6 1.5-1.5 3.7-2.5 6-2.5h27c2.3 0 4.5 1 6 2.5 1.5 1.6 2.5 3.7 2.5 6zm-35.5 16.3h27q0.2 0 0.3-0.1l0.1-0.1q0.1-0.1 0.1-0.3v-26.7q0-0.3-0.2-0.4-0.1-0.1-0.3-0.1h-27q-0.2 0-0.3 0.1-0.1 0.2-0.2 0.4v26.7q0.1 0.2 0.2 0.4 0.1 0.1 0.3 0.1zm28.8 7.8q0.3 1.3 0.4 2.7v9.5h7.5v-19.9c0-1.8-0.4-3.5-1.2-5v4.4c0 2.2-0.8 4.2-2.2 5.7l-0.3 0.3c-1.1 1.2-2.6 2-4.2 2.3zm0.4 20.2v19.4c0 4.2-1.8 8.2-4.6 11h-0.1c-1.5 1.6-3.4 2.8-5.5 3.6h21.6c0.8 0 1.6-0.3 2.1-0.9 0.5-0.5 0.9-1.2 0.9-2v-28.1c0-0.8-0.4-1.6-0.9-2.1-0.5-0.5-1.2-0.8-2-0.9zm-21.1 34c-2.1-0.8-4-2-5.6-3.6-2.8-2.8-4.6-6.7-4.6-11v-19.4h-11.5c-0.8 0.1-1.5 0.4-2 0.9-0.6 0.5-0.9 1.3-0.9 2.1v28.1c0 0.8 0.3 1.5 0.9 2 0.5 0.6 1.2 0.9 2 0.9zm-10.1-42v-9.5q0-1.4 0.3-2.7c-1.6-0.3-3.1-1.1-4.2-2.3-1.5-1.5-2.5-3.6-2.5-6v-4.4c-0.7 1.5-1.1 3.2-1.1 5v19.9zm8.7-11.2c-0.4 0.4-0.7 1.1-0.7 1.7v36.9c0 2.1 0.8 4 2.2 5.3 1.4 1.4 3.3 2.3 5.4 2.3 2.1 0 4-0.9 5.4-2.3 1.3-1.3 2.2-3.2 2.2-5.3v-36.9c0-0.6-0.3-1.3-0.7-1.7-0.5-0.5-1.1-0.8-1.8-0.8h-10.2c-0.7 0-1.3 0.3-1.8 0.8zm6.9-17.2c-3 0-5.5-2.4-5.5-5.5 0-3 2.5-5.5 5.5-5.5 3 0 5.5 2.5 5.5 5.5 0 3.1-2.5 5.5-5.5 5.5zm26.6 78.4h-53.2c-1 6.5-1.8 12.1-2.5 16.7l-0.9 6.1c-2 13.7-9 21.6-16.7 30.3-9.8 11.1-20.8 23.5-21.6 52.7v8.7l-0.1 22.2c2.2 41.6 0.1 89.3 0.1 131.5 0 2.3 1.3 4.4 3.4 6 2.5 1.8 5.9 3 9.7 3h110.4c3.8 0 7.2-1.2 9.7-3 2.1-1.6 3.4-3.7 3.4-6v-131.5c0-3.7 0-14.4 0-22.2v-8.7c-0.8-29.3-11.8-41.6-21.6-52.7-7.7-8.7-14.7-16.6-16.7-30.3l-0.9-6.2c-0.7-4.5-1.5-10.1-2.5-16.6z"/><path class="n" d="m441.2 264.1c1.6-1.5 4.1-1.4 5.6 0.3 1.5 1.6 1.4 4.2-0.3 5.6 0 0.1-21.2 18.4-21.2 54.9v38.6c0 2.2-1.8 4-4 4-2.2 0-4-1.8-4-4v-38.6c0-40.1 23.8-60.8 23.9-60.8zm-23.9 122.2c0-2.3 1.8-4.1 4-4.1 2.2 0 4 1.8 4 4.1v6.1c0 2.3-1.8 4-4 4-2.2 0-4-1.7-4-4z"/><path class="m" d="m755.5 274.8c0.3 3.8 4 6.4 4 6.4l0.1 0.1c5.3 4 10.8 7.9 16 11.6 15.7 11.1 28.2 19.9 32.7 30.3 6.5 15.2-3.5 23.6-3.6 23.6l-0.1 0.2c0 0-4.6 3.9-9.1 7.9-3 2.7-2.4 7.2-2.4 7.2v0.4c0.1 0.3 10 121.2 10 142.8 0 25.3-24.2 25.9-24.3 25.9-35.9 0.5-72.2 0-108.2 0l-0.6-0.1c-3.3-0.2-23.8-2.6-23.8-25.8 0-21.6 9.9-142.5 10-142.8v-0.5c0.1-0.6 0.4-4.6-2.4-7.1-4.5-4-9.1-7.9-9.1-7.9q-0.3-0.2-0.5-0.5c-1.6-1.5-9-9.7-3.2-23.3 4.5-10.4 17-19.2 32.7-30.3 5.2-3.7 10.7-7.6 16-11.6l0.1-0.1c0.2-0.1 3.7-2.6 4-6.4q-1-0.6-1.8-1.4c-1.7-1.8-2.8-4.2-2.8-6.9v-23.5c0-2.5 1-4.8 2.6-6.6l0.2-0.3c1.8-1.8 4.3-2.9 7-2.9h51.3c2.7 0 5.2 1.1 6.9 2.9h0.1c1.7 1.8 2.8 4.3 2.8 6.9v23.5c0 2.7-1.1 5.1-2.8 6.9q-0.8 0.8-1.8 1.4z"/><path class="x" d="m747.6 276.3h-45.9c-0.9 6.3-6 10.5-7.1 11.3l-0.1 0.1c-5.9 4.5-11.2 8.2-16.2 11.8-14.7 10.3-26.3 18.6-29.9 26.9-3.9 9 0.6 13.6 1.3 14.3 0.5 0.4 5 4.3 9.4 8.2 5.2 4.6 5.2 11.6 5.1 13.8v0.4c-0.1 0.4-10 120.9-10 142.2 0 16.2 14.2 17.7 16.3 17.9 35.7-0.8 72.3 0 108.2 0 1.4-0.1 16.4-1.3 16.4-17.9 0-21.3-9.9-141.8-10-142.2-0.1-1.7-0.4-9.3 5.1-14.2 4.4-3.9 8.9-7.8 9.4-8.2 0.7-0.7 5.1-5.3 1.3-14.3-3.6-8.3-15.2-16.6-29.9-26.9-5-3.6-10.3-7.3-16.2-11.8-0.9-0.6-6.3-4.9-7.2-11.4z"/><path class="x" d="m697.2 265.5q0.3 0 0.7 0h53.5q0.4 0 0.7 0v-22.5c0-0.4-0.2-0.9-0.5-1.2-0.3-0.3-0.8-0.5-1.3-0.5h-51.3c-0.5 0-1 0.2-1.3 0.5l-0.1 0.1c-0.3 0.3-0.4 0.7-0.4 1.1z"/><path class="n" d="m695.7 331.7h57.8c8.7 0 15.8 7.1 15.8 15.7v121.6c0 8.6-7.1 15.7-15.8 15.7h-57.8c-8.6 0-15.7-7.1-15.7-15.7v-121.6c0-8.6 7.1-15.7 15.7-15.7z"/><path class="y" d="m759.1 299.5c14.7 10.3 26.3 18.6 29.9 26.9 3.8 9-0.6 13.6-1.3 14.3-0.5 0.4-5 4.3-9.4 8.2-5.5 4.9-5.2 12.5-5.1 14.2 0.1 0.4 10 120.9 10 142.2 0 15.7-13.3 17.6-16 17.8q5.7 0.1 11.5 0.1c1.4-0.1 16.4-1.3 16.4-17.9 0-21.3-9.9-141.8-10-142.2-0.1-1.7-0.4-9.3 5.1-14.2 4.4-3.9 8.9-7.8 9.4-8.2 0.7-0.7 5.1-5.3 1.3-14.3-3.6-8.3-15.2-16.6-29.9-26.9-5-3.6-10.3-7.3-16.2-11.8-0.9-0.6-6.3-4.9-7.2-11.4h-11.9c0.9 6.5 6.3 10.8 7.2 11.4 5.9 4.5 11.2 8.2 16.2 11.8z"/><path class="z" d="m735.5 243v22.5h15.9q0.4 0 0.7 0v-22.5c0-0.4-0.2-0.9-0.5-1.2-0.3-0.3-0.8-0.5-1.3-0.5h-16.5c0.4 0 0.9 0.2 1.2 0.5 0.3 0.3 0.5 0.8 0.5 1.2z"/><path class="x" d="m707 416.9c-4.8 0-8.7-3.9-8.7-8.7 0-4.8 3.9-8.7 8.7-8.7h8.9v-9c0-4.8 3.9-8.7 8.7-8.7 4.9 0 8.8 3.9 8.8 8.7v9h8.9c4.8 0 8.7 3.9 8.7 8.7 0 4.8-3.9 8.7-8.7 8.7h-8.9v9c0 4.8-3.9 8.7-8.8 8.7-4.8 0-8.7-3.9-8.7-8.7v-9z"/><path fill-rule="evenodd" class="m" d="m755.5 274.8c0.3 3.8 4 6.4 4 6.4l0.1 0.1c5.3 4 10.8 7.9 16 11.6 15.7 11.1 28.2 19.9 32.7 30.3 6.5 15.2-3.5 23.6-3.6 23.6l-0.1 0.2c0 0-4.6 3.9-9.1 7.9-3 2.7-2.4 7.2-2.4 7.2v0.4c0.1 0.3 10 121.2 10 142.8 0 25.3-24.2 25.9-24.3 25.9-35.9 0.5-72.2 0-108.2 0l-0.6-0.1c-3.3-0.2-23.8-2.6-23.8-25.8 0-21.6 9.9-142.5 10-142.8v-0.5c0.1-0.6 0.4-4.6-2.4-7.1-4.5-4-9.1-7.9-9.1-7.9q-0.3-0.2-0.5-0.5c-1.6-1.5-9-9.7-3.2-23.3 4.5-10.4 17-19.2 32.7-30.3 5.2-3.7 10.7-7.6 16-11.6l0.1-0.1c0.2-0.1 3.7-2.6 4-6.4q-1-0.6-1.8-1.4c-1.7-1.8-2.8-4.2-2.8-6.9v-23.5c0-2.5 1-4.8 2.6-6.6l0.2-0.3c1.8-1.8 4.3-2.9 7-2.9h51.3c2.7 0 5.2 1.1 6.9 2.9h0.1c1.7 1.8 2.8 4.3 2.8 6.9v23.5c0 2.7-1.1 5.1-2.8 6.9q-0.8 0.8-1.8 1.4zm-58.3-9.3q0.3 0 0.7 0h53.5q0.4 0 0.7 0v-22.5c0-0.4-0.2-0.9-0.5-1.2-0.3-0.3-0.8-0.5-1.3-0.5h-51.3c-0.5 0-1 0.2-1.3 0.5l-0.1 0.1c-0.3 0.3-0.4 0.7-0.4 1.1zm50.4 10.8h-45.9c-0.9 6.3-6 10.5-7.1 11.4h-0.1c-5.9 4.5-11.2 8.3-16.2 11.8-14.7 10.4-26.3 18.6-29.9 26.9-3.9 9 0.6 13.6 1.3 14.3 0.5 0.4 5 4.4 9.4 8.3 5.2 4.5 5.2 11.5 5.1 13.8v0.3c-0.1 0.4-10 120.9-10 142.2 0 16.2 14.2 17.7 16.3 17.9 35.7-0.8 72.3 0 108.2 0 1.4-0.1 16.4-1.2 16.4-17.9 0-21.3-9.9-141.8-10-142.2-0.1-1.6-0.4-9.3 5.1-14.1 4.4-3.9 8.9-7.9 9.4-8.3 0.7-0.7 5.1-5.3 1.3-14.3-3.6-8.3-15.2-16.5-29.9-26.9-5-3.5-10.3-7.3-16.2-11.8-0.9-0.6-6.3-4.9-7.2-11.4z"/><path class="n" d="m699.9 295.1c1.7-1.3 4.3-0.9 5.6 0.8 1.3 1.8 1 4.3-0.8 5.6l-40.8 31c-1.7 1.4-4.2 1-5.6-0.7-1.3-1.8-1-4.3 0.8-5.6z"/><path class="m" d="m877.6 465l-48.5 268.1q0 0.3-0.1 0.6c-0.1 0.1-14.3 52.9-56.5 52.9h-277c-42.2 0-56.4-52.8-56.5-52.9l-48.6-268.7h-4.8c-9.9 0-18.9-4-25.5-10.6-6.5-6.5-10.6-15.6-10.6-25.5 0-9.9 4.1-19 10.6-25.5l0.2-0.2c6.6-6.5 15.5-10.4 25.3-10.4h496.8c9.9 0 18.9 4 25.5 10.6 6.5 6.5 10.6 15.6 10.6 25.5 0 9.9-4.1 19-10.6 25.5l-0.2 0.2c-6.6 6.5-15.5 10.4-25.3 10.4z"/><path class="u" d="m882.4 400.8h-496.8c-7.6 0-14.6 3.1-19.6 8.1l-0.2 0.2c-5.1 5.1-8.3 12.1-8.3 19.8 0 7.7 3.2 14.7 8.3 19.8 5.1 5.1 12.1 8.3 19.8 8.3h496.8c7.6 0 14.6-3.1 19.6-8.1l0.2-0.2c5.1-5.1 8.3-12.1 8.3-19.8 0-7.7-3.2-14.7-8.3-19.8-5.1-5.1-12.1-8.3-19.8-8.3z"/><path class="u" d="m398.5 465l48.3 266.6c0.6 2.4 13.5 46.9 48.7 46.9h277c35.2 0 48.1-44.5 48.7-46.9l48.3-266.6z"/><path class="A" d="m398.5 465l11 60.9c15.7-15 13.2-26.9 63.8-26.9 268.6 0 329.6 5.6 367.8 122.8l28.4-156.8z"/><path fill-rule="evenodd" class="m" d="m877.6 465l-48.5 268.1q0 0.3-0.1 0.6c-0.1 0.1-14.3 52.9-56.5 52.9h-277c-42.2 0-56.4-52.8-56.5-52.9l-48.6-268.7h-4.8c-9.9 0-18.9-4-25.5-10.6-6.5-6.5-10.6-15.6-10.6-25.5 0-9.9 4.1-19 10.6-25.5l0.2-0.2c6.6-6.5 15.5-10.4 25.3-10.4h496.8c9.9 0 18.9 4 25.5 10.6 6.5 6.5 10.6 15.6 10.6 25.5 0 9.9-4.1 19-10.6 25.5l-0.2 0.2c-6.6 6.5-15.5 10.4-25.3 10.4zm-479.1 0l48.2 266.6c0.7 2.4 13.6 46.9 48.8 46.9h277c35.1 0 48-44.5 48.7-46.9l48.2-266.6zm483.9-64.2h-496.8c-7.6 0-14.5 3.1-19.6 8.1l-0.2 0.2c-5.1 5.1-8.3 12.1-8.3 19.8 0 7.7 3.2 14.7 8.3 19.8 5.1 5.1 12.1 8.3 19.8 8.3h496.8c7.6 0 14.6-3.1 19.7-8.1l0.1-0.2c5.1-5.1 8.3-12.1 8.3-19.8 0-7.7-3.2-14.7-8.3-19.8-5-5.1-12.1-8.3-19.8-8.3z"/><path class="A" d="m772.7 400.8c7.8 0 14.8 3.2 19.9 8.3 5.1 5.1 8.2 12.1 8.2 19.8 0 7.7-3.1 14.7-8.2 19.8l-0.2 0.2c-5.1 5-12 8.1-19.7 8.1h109.7c7.6 0 14.6-3.1 19.6-8.1l0.2-0.2c5.1-5.1 8.3-12.1 8.3-19.8 0-7.7-3.2-14.7-8.3-19.8-5.1-5.1-12.1-8.3-19.8-8.3z"/><path class="n" d="m393.3 424.5c-2.2 0-4-1.8-4-4 0-2.2 1.8-4 4-4h184.9c2.2 0 4 1.8 4 4 0 2.2-1.8 4-4 4zm209.3 0c-2.2 0-4-1.8-4-4 0-2.2 1.8-4 4-4h18.7c2.2 0 4 1.8 4 4 0 2.2-1.8 4-4 4z"/><path class="m" d="m1175.9 354.1h-82.4-0.1-11.7c0 0-7.5-0.3-11 4.1-2.3 2.9-19.4 25.2-20 26 0 0-5 6-4.9 13.8v14.7c0 11.8 8.7 11.8 8.7 11.8h8.9q-0.1 0.9-0.1 1.8v23.4c0 1.3 0.2 2.5 0.7 3.6-2.9 1.7-6.1 4.9-7.4 10.9-1.7 8.2-4.9 36.8-6.7 52.9l-0.6 6c-1.3 11.6-6.1 18.7-11.3 26.5-8 12-17.1 25.5-17.8 57.4-0.1 54.2 0 108.4 0 162.6 0 4.6 1.9 8.9 5 12 3 3.1 7.3 5 12 5h116.7c4.7 0 9-1.9 12-5 3.1-3.1 5-7.4 5-12v-163c0-6.5-0.5-13.8-2.5-21.4-1.9-7.7-5.3-15.5-11-22.8-10.7-13.7-35.5-42.9-35.6-43-0.5-0.5-4.9-6.3 0.6-11.1 2.8-2 4.3-4.6 5.1-7l0.1-0.3c0.7-2.4 0.8-4.5 0.8-5.8v-30.1c0-6.4-3.3-9.9-6.3-11.7 0.5-1.1 0.8-2.4 0.8-3.7v-23.4q0-0.9-0.2-1.8h1.8c4.2 0 8.8-4.5 8.8-4.5l0.4-0.4 11.5-12.1c3 8.4 7.8 21.4 11.8 31.7 3.3 8.4 6.3 15.4 7.8 17.9 5.6 8.7 13 8.7 13 8.7h4.7c7.2 0 5.9-6.4 5.5-8.2q-0.2-0.7-0.6-1.3c-2.8-4.5-5.6-10.8-7.5-18.3-1.7-6.5-2.8-13.9-2.8-21.4v-26.4c2.1-0.2 3.9-1.2 5.4-2.6q1.1-1.1 1.8-2.6h7.3c2.3 0 4.4-0.5 6-1.5 2.3-1.3 3.7-3.3 3.7-5.8v-11c0-2.5-1.4-4.5-3.7-5.8-1.6-1-3.7-1.5-6-1.5h-7.3q-0.7-1.5-1.8-2.6c-1.7-1.7-4-2.7-6.6-2.7z"/><path class="y" d="m1151.3 401.1c3.2-3.4 5.9-6.2 7.1-7.5 2.6-2.6 9.1-3.2 10.6-3.3v26.3c0 8.2 1.2 16.2 3.1 23.5 1.8 6.8 4.3 12.9 6.9 17.7h-1.2c0 0-3 0-6.2-5-1.3-2-4-8.6-7.1-16.5-4.9-12.4-10.4-27.7-13.2-35.2z"/><path class="B" d="m1113.1 451.5h-5.9-28.3-5.8c-0.5 0-0.9-0.2-1.3-0.5-0.3-0.4-0.5-0.8-0.5-1.3v-23.4c0-0.5 0.2-0.9 0.5-1.3l0.2-0.1c0.3-0.2 0.6-0.4 1-0.4h0.1 40c0.5 0 0.9 0.2 1.2 0.5 0.3 0.4 0.5 0.8 0.5 1.3v23.4c0 0.5-0.2 0.9-0.5 1.3-0.3 0.3-0.7 0.5-1.2 0.5z"/><path class="n" d="m1091.4 362.1h84.5c0.3 0 0.6 0.2 0.9 0.4q0.3 0.3 0.3 0.8v0.1 17.6c0 0.4-0.1 0.7-0.3 0.9q-0.4 0.4-0.9 0.4h-2.9-81.6c-0.3 0-0.6-0.2-0.9-0.4-0.2-0.2-0.3-0.5-0.3-0.9v-17.6c0-0.4 0.1-0.7 0.3-0.9 0.3-0.2 0.6-0.4 0.9-0.4z"/><path class="y" d="m1185.2 377v-9.6h6.4q1 0 1.6 0.3v9q-0.6 0.3-1.6 0.3z"/><path class="y" d="m1082.2 362.1q0 0.6-0.1 1.3v17.6c0 2.6 1.1 4.9 2.8 6.6 1.7 1.6 4 2.7 6.5 2.7h59.1l-6.6 7h-0.1c-6.5 6.9-14.3 15.1-15.9 16.8l-0.2 0.2c0 0-2.2 2.2-3.2 2.2h-11.4-40-0.1-18.5c0 0-0.6 0-0.6-3.8l-0.1-14.8c-0.1-4.8 3.2-8.7 3.2-8.8h0.1c0-0.1 17.9-23.4 19.9-25.9 0.9-1.1 4.7-1.1 4.7-1.1z"/><path class="v" d="m1117.3 502.1c-12.1 10.3-1.7 22.4-1.6 22.5 0.1 0.1 24.5 28.9 35.3 42.7 5 6.4 8 13.2 9.7 19.9 1.7 6.7 2.2 13.4 2.2 19.4v163c0 2.4-1 4.7-2.6 6.3-1.7 1.6-3.9 2.6-6.4 2.6h-116.7c-2.5 0-4.7-1-6.3-2.6-1.7-1.6-2.7-3.9-2.7-6.3v-153.7-8.7c0.7-29.6 9-42.1 16.5-53.2 5.7-8.6 11-16.5 12.5-30l0.7-6c1.8-16 4.9-44.4 6.5-52.1 1.2-5.5 4.6-6.3 5.3-6.4h3.4c0.6 0 39.3 0 40 0h3.1c0.9 0.2 4.1 1.3 4.1 5.6v30.1c0 0.8 0 2.2-0.4 3.5v0.1c-0.4 1.1-1.1 2.2-2.3 3.1z"/><path class="w" d="m1081.9 524c-1.5 13.5-6.8 21.4-12.6 30-7.4 11.1-15.8 23.6-16.4 53.2v8.7 153.7c0 2.4 1 4.7 2.6 6.3 1.6 1.6 3.9 2.6 6.3 2.6h-24.6c-4.9 0-9-4-9-8.9v-153.7-1.2c0.1-12.1 0.8-21.2 2.2-28.7 1.5-7.2 3.5-13 5.9-17.9 2.2-4.6 5-9.1 8.4-14.1 1.4-2.2 2.8-4.3 4.2-6.4 2.8-4.7 4.7-8.3 6-12.7 1.1-3.3 1.9-6.8 2.3-10.9l0.7-5.8q0-0.1 0-0.2c1.8-16 4.9-44.4 6.5-52.1 0.8-3.6 2.5-5.2 3.8-5.9 0.8-0.3 1.5-0.4 2.3-0.5h2.6 21.3c-0.7 0.1-4.2 0.9-5.3 6.4-1.6 7.7-4.8 36.1-6.5 52.1z"/><path class="m" d="m1129.8 595.3h-68.4c-4.6 0-8.4 3.8-8.4 8.4v122c0 4.6 3.8 8.3 8.4 8.3h68.4c4.6 0 8.3-3.7 8.3-8.3v-122c0-4.6-3.7-8.4-8.3-8.4z"/><path class="n" d="m1065.1 663.1l16.8-44.2c0.6-1.6 2.1-2.6 3.8-2.6l36.3 0.2c0.9-0.1 1.7 0.1 2.5 0.7 1.8 1.2 2.3 3.7 1 5.5l-14.1 20.7h9.3q1 0.1 1.9 0.5c2 1.1 2.7 3.5 1.7 5.4l-32.7 61.7c-0.9 1.6-2.8 2.5-4.6 2-2.1-0.6-3.4-2.8-2.9-4.9l10.6-39.6h-25.8q-0.7 0-1.4-0.3c-2.1-0.8-3.1-3.1-2.4-5.1z"/><path fill-rule="evenodd" class="m" d="m1182.5 356.8q1.1 1.1 1.8 2.6h7.3c2.3 0 4.4 0.5 6 1.5 2.3 1.3 3.7 3.3 3.7 5.8v11c0 2.5-1.4 4.5-3.7 5.8-1.6 1-3.7 1.5-6 1.5h-7.3q-0.7 1.5-1.8 2.6c-1.5 1.4-3.3 2.4-5.4 2.6v26.4c0 7.5 1.1 14.9 2.8 21.4 1.9 7.5 4.7 13.8 7.5 18.3q0.4 0.6 0.6 1.3c0.4 1.8 1.7 8.2-5.5 8.2h-4.7c0 0-7.4 0-13-8.7-1.5-2.5-4.5-9.5-7.8-17.9-4-10.3-8.8-23.3-11.8-31.7l-11.5 12.1-0.4 0.4c0 0-4.6 4.5-8.8 4.5h-1.8q0.2 0.9 0.2 1.8v23.4c0 1.3-0.3 2.6-0.8 3.7 3 1.8 6.3 5.3 6.3 11.7v30.1c0 1.3-0.1 3.4-0.8 5.8l-0.1 0.3c-0.8 2.4-2.3 5-5.1 7-5.5 4.8-1.1 10.6-0.6 11.1 0.1 0.1 24.9 29.3 35.6 43 5.7 7.3 9.1 15.1 11 22.8 2 7.6 2.5 14.9 2.5 21.4v163c0 4.6-1.9 8.9-5 12-3 3.1-7.3 5-12 5h-116.7c-4.7 0-9-1.9-12-5-3.1-3.1-5-7.4-5-12 0-54.2-0.1-108.4 0-162.6 0.7-31.9 9.8-45.4 17.8-57.4 5.2-7.8 10-14.9 11.3-26.5l0.6-6c1.8-16.1 5-44.7 6.7-52.9 1.3-6 4.5-9.2 7.4-10.9-0.5-1.1-0.7-2.3-0.7-3.6v-23.4q0-0.9 0.1-1.8h-8.9c0 0-8.7 0-8.7-11.8v-14.7c-0.1-7.8 4.9-13.8 4.9-13.8 0.6-0.8 17.7-23.1 20-26 3.5-4.4 11-4.1 11-4.1h94.2c2.6 0 4.9 1 6.6 2.7zm-64.9 145.1c1.2-0.9 1.9-2 2.3-3.1v-0.1c0.4-1.3 0.4-2.7 0.4-3.5v-30.1c0-4.3-3.2-5.4-4.1-5.6-0.6 0-45.9 0-46.5 0-0.7 0.1-4.1 0.9-5.3 6.4-1.6 7.7-4.7 36.1-6.5 52.1l-0.7 6c-1.5 13.5-6.8 21.4-12.5 30-7.5 11.1-15.8 23.6-16.5 53.2v8.7 153.7c0 2.4 1 4.7 2.7 6.3 1.6 1.6 3.8 2.6 6.3 2.6h116.7c2.5 0 4.7-1 6.4-2.6 1.6-1.6 2.6-3.9 2.6-6.3v-163c0-6-0.5-12.7-2.2-19.4-1.7-6.7-4.7-13.5-9.7-19.9-10.8-13.8-35.2-42.6-35.3-42.7-0.1-0.1-10.5-12.2 1.6-22.5zm-35.9-139.8c0 0-3.8 0-4.7 1.1-2 2.5-19.9 25.8-19.9 25.9 0 0.1-3.3 4-3.2 8.8v14.8c0 3.8 0.7 3.8 0.7 3.8h69.9c1 0 3.2-2.2 3.2-2.2l0.2-0.2c1.7-1.7 9.4-9.9 16-16.8l6.7-7h-59.1c-2.6 0-4.9-1.1-6.6-2.7-1.7-1.7-2.7-4-2.7-6.6v-17.6q0-0.7 0.1-1.3zm109.9 14.9q1 0 1.6-0.3v-9q-0.6-0.3-1.6-0.3h-6.4v9.6zm-101.1-14.5c-0.2 0.2-0.4 0.5-0.4 0.9v17.6c0 0.4 0.2 0.7 0.4 0.9 0.2 0.2 0.6 0.4 0.9 0.4h84.5q0.5-0.1 0.8-0.4c0.3-0.2 0.4-0.5 0.4-0.9v-17.7q0-0.5-0.4-0.8c-0.2-0.2-0.5-0.4-0.8-0.4h-84.5c-0.3 0-0.7 0.2-0.9 0.4zm22.6 89c0.4 0 0.9-0.2 1.2-0.5 0.3-0.4 0.5-0.8 0.5-1.3v-23.4c0-0.5-0.2-0.9-0.5-1.3-0.3-0.3-0.8-0.5-1.2-0.5h-40.1c-0.4 0-0.8 0.2-1.1 0.4l-0.1 0.1c-0.3 0.4-0.5 0.8-0.5 1.3v23.4c0 0.5 0.2 0.9 0.5 1.3 0.3 0.3 0.8 0.5 1.3 0.5zm51.4-15.2c3.1 7.9 5.8 14.5 7.1 16.5 3.2 5 6.1 5 6.1 5h1.3c-2.7-4.8-5.1-10.9-6.9-17.7-1.9-7.3-3.1-15.3-3.1-23.5v-26.3c-1.5 0.1-8 0.7-10.6 3.3-1.3 1.3-3.9 4.1-7.1 7.5 2.7 7.5 8.3 22.8 13.2 35.2z"/><path class="n" d="m1133.1 558.4c-1.8-1.4-4.3-1.1-5.7 0.6-1.3 1.7-1 4.2 0.7 5.6 0 0 2.7 1.9 6.2 5.7 1.4 1.6 4 1.8 5.6 0.3 1.7-1.5 1.8-4 0.3-5.7-3.9-4.3-7.1-6.5-7.1-6.5zm19.8 28.6c-0.7-2.1-2.9-3.2-5.1-2.6-2.1 0.7-3.2 2.9-2.6 5q1.2 3.7 1.9 8c0.5 2.8 0.7 5.9 0.7 9.2v75.6c0 2.2 1.8 4 4 4 2.2 0 4-1.8 4-4v-75.6c0-3.7-0.3-7.1-0.8-10.4-0.5-3.3-1.2-6.3-2.1-9.2z"/><path class="m" d="m96.1 680.8h135.2 50.1c3.2 0 6.1 1.3 8.3 3.4 2.1 2.1 3.4 5.1 3.4 8.3v69.6c1.8 0.6 3.5 1.6 4.8 3 2.3 2.3 3.7 5.4 3.7 8.9 0 3.4-1.4 6.6-3.7 8.9-2.2 2.2-5.4 3.7-8.8 3.7h-48.4-9.7-194.6c-3.4 0-6.6-1.5-8.9-3.7-2.2-2.3-3.6-5.4-3.6-8.9 0-3.5 1.4-6.6 3.6-8.9 1.8-1.8 4.2-3.1 6.8-3.5v-69.1c0-3.2 1.3-6.2 3.4-8.3 2.1-2.1 5-3.4 8.2-3.4z"/><path class="y" d="m285 761.4v-68.9c0-1-0.4-1.9-1-2.6-0.7-0.6-1.6-1.1-2.6-1.1h-39.1c0.4 1.2 0.6 2.4 0.6 3.7v68.9z"/><path class="x" d="m225.4 761.4h0.1 9.4v-68.9c0-1-0.4-1.9-1.1-2.6-0.6-0.6-1.5-1-2.5-1.1h-135.2-50.2c-1 0-1.9 0.5-2.5 1.1-0.7 0.7-1.1 1.6-1.1 2.6v68.9z"/><path class="m" d="m252.5 778.5h36.6c1.2 0 2.3-0.5 3.2-1.3 0.8-0.8 1.3-2 1.3-3.2 0-1.3-0.5-2.4-1.3-3.2-0.9-0.8-2-1.4-3.2-1.4h-36.6c0.5 1.5 0.8 3 0.8 4.6 0 1.6-0.3 3.1-0.8 4.5z"/><path class="B" d="m231 778.5h9.7 0.1c1.2 0 2.3-0.5 3.1-1.3 0.9-0.8 1.4-2 1.4-3.2 0-1.3-0.5-2.4-1.4-3.2-0.7-0.8-1.7-1.3-2.8-1.3h-16-0.4q-0.9 0.1-1.7-0.1h-184.7-1.9c-1.2 0-2.3 0.6-3.2 1.4-0.8 0.8-1.3 1.9-1.3 3.2 0 1.2 0.5 2.4 1.3 3.2 0.9 0.8 2 1.3 3.2 1.3z"/><path class="y" d="m56.3 737.4c5.1-0.9 9.9 2.5 10.8 7.6 0.9 5.1-2.5 9.9-7.6 10.8-5 0.9-9.9-2.5-10.8-7.6-0.9-5 2.5-9.9 7.6-10.8z"/><path class="y" d="m76 711.7c7.2-1.3 14.1 3.5 15.4 10.7 1.3 7.3-3.5 14.1-10.8 15.4-7.2 1.3-14.1-3.5-15.4-10.7-1.2-7.3 3.6-14.1 10.8-15.4z"/><path class="y" d="m77.7 745.7c2.4-0.4 4.6 1.1 5.1 3.5 0.4 2.4-1.2 4.6-3.6 5.1-2.3 0.4-4.6-1.2-5-3.6-0.4-2.3 1.1-4.6 3.5-5z"/><path class="y" d="m192.1 697c3.7 3.6 3.7 9.5 0.1 13.2-3.6 3.7-9.5 3.8-13.2 0.2-3.7-3.6-3.7-9.6-0.1-13.3 3.6-3.6 9.5-3.7 13.2-0.1z"/><path class="y" d="m224.5 698.1c5.2 5.1 5.3 13.5 0.2 18.8-5.2 5.2-13.6 5.3-18.8 0.2-5.2-5.2-5.3-13.6-0.2-18.8 5.1-5.3 13.5-5.3 18.8-0.2z"/><path class="y" d="m197.8 719.3c1.7 1.6 1.8 4.4 0.1 6.1-1.7 1.7-4.5 1.8-6.2 0.1-1.7-1.7-1.7-4.5-0.1-6.2 1.7-1.7 4.5-1.7 6.2 0z"/><path class="x" d="m276.1 725.7c-2.2 3.1-6.6 3.8-9.8 1.6-3.1-2.3-3.8-6.7-1.5-9.8 2.2-3.2 6.6-3.9 9.7-1.6 3.2 2.3 3.9 6.6 1.6 9.8z"/><path class="x" d="m278.9 749.8c-3.2 4.4-9.4 5.4-13.8 2.2-4.5-3.2-5.5-9.4-2.3-13.9 3.2-4.4 9.4-5.4 13.9-2.2 4.4 3.2 5.4 9.4 2.2 13.9z"/><path class="x" d="m260.3 732.4c-1.1 1.5-3.1 1.8-4.6 0.7-1.4-1-1.8-3.1-0.7-4.5 1-1.5 3.1-1.8 4.5-0.8 1.5 1.1 1.8 3.1 0.8 4.6z"/><path fill-rule="evenodd" class="m" d="m281.4 680.8c3.2 0 6.1 1.3 8.3 3.4 2.1 2.1 3.4 5.1 3.4 8.3v69.6c1.8 0.6 3.5 1.6 4.8 3 2.3 2.3 3.7 5.4 3.7 8.9 0 3.4-1.4 6.6-3.7 8.9-2.2 2.2-5.4 3.7-8.8 3.7h-252.7c-3.4 0-6.6-1.5-8.9-3.7-2.2-2.3-3.6-5.4-3.6-8.9 0-3.5 1.4-6.6 3.6-8.9 1.8-1.8 4.2-3.1 6.8-3.5v-69.1c0-3.2 1.3-6.2 3.4-8.3 2.1-2.1 5-3.4 8.2-3.4zm-40.6 97.7c1.2 0 2.3-0.5 3.2-1.3 0.8-0.8 1.3-2 1.3-3.2 0-1.3-0.5-2.4-1.3-3.2-0.8-0.8-1.8-1.3-2.9-1.3h-16-0.4q-0.9 0.1-1.7-0.1h-186.6c-1.2 0-2.3 0.6-3.2 1.4-0.8 0.8-1.3 1.9-1.3 3.2 0 1.2 0.5 2.4 1.3 3.2 0.9 0.8 2 1.3 3.2 1.3zm11.7 0h36.6c1.2 0 2.4-0.5 3.2-1.3 0.8-0.8 1.3-2 1.3-3.2 0-1.3-0.5-2.4-1.3-3.2-0.8-0.8-2-1.4-3.2-1.4h-36.6c0.6 1.5 0.9 3 0.9 4.6 0 1.6-0.3 3.1-0.9 4.5zm-17.6-17.1v-68.9c0-1-0.4-1.9-1-2.6-0.7-0.6-1.6-1-2.6-1.1h-185.3c-1 0-1.9 0.5-2.6 1.1-0.7 0.7-1.1 1.6-1.1 2.6v68.9zm50.2 0v-68.9c0-1-0.4-1.9-1.1-2.6-0.6-0.6-1.6-1.1-2.5-1.1h-39.1c0.4 1.2 0.6 2.4 0.6 3.7v68.9z"/><path class="m" d="m303 583.1h-135.1-50.2c-3.2 0-6.1 1.3-8.2 3.4-2.2 2.1-3.5 5-3.5 8.3v69.5c-1.8 0.7-3.5 1.7-4.8 3.1-2.3 2.3-3.7 5.4-3.7 8.9 0 3.4 1.4 6.6 3.7 8.9 2.2 2.2 5.4 3.6 8.8 3.6h48.4 9.7 194.6c3.4 0 6.6-1.4 8.9-3.6 2.2-2.3 3.7-5.5 3.7-8.9 0-3.5-1.5-6.6-3.7-8.9-1.8-1.8-4.1-3.1-6.7-3.5v-69.1c0-3.3-1.4-6.2-3.5-8.3-2.1-2.1-5-3.4-8.2-3.4z"/><path class="y" d="m114.1 663.7v-68.9c0-1 0.4-1.9 1-2.6 0.7-0.7 1.6-1.1 2.6-1.1h39.1c-0.4 1.2-0.6 2.4-0.6 3.7v68.9z"/><path class="x" d="m173.7 663.7h-0.1-9.4v-68.9c0-1 0.4-1.9 1.1-2.6 0.6-0.7 1.5-1.1 2.5-1.1h0.1 135.1 50.2c1 0 1.9 0.4 2.6 1.1 0.6 0.7 1 1.6 1 2.6v68.9z"/><path class="m" d="m146.6 680.8h-36.6c-1.2 0-2.3-0.5-3.2-1.3-0.8-0.8-1.3-2-1.3-3.2 0-1.3 0.5-2.4 1.3-3.2 0.9-0.9 2-1.4 3.2-1.4h36.6c-0.5 1.4-0.8 3-0.8 4.6 0 1.6 0.3 3.1 0.8 4.5z"/><path class="B" d="m168.1 680.8h-9.7-0.1c-1.2 0-2.3-0.5-3.1-1.3-0.9-0.8-1.4-2-1.4-3.2 0-1.3 0.5-2.4 1.4-3.2 0.7-0.8 1.7-1.3 2.8-1.4h16l0.4 0.1q0.9 0.1 1.7-0.1h184.7 1.9c1.2 0 2.4 0.5 3.2 1.4 0.8 0.8 1.3 1.9 1.3 3.2 0 1.2-0.5 2.4-1.3 3.2-0.8 0.8-2 1.3-3.2 1.3z"/><path class="y" d="m342.8 639.7c-5.1-0.9-9.9 2.5-10.8 7.6-0.9 5 2.5 9.9 7.6 10.8 5 0.9 9.9-2.5 10.8-7.6 0.9-5.1-2.5-9.9-7.6-10.8z"/><path class="y" d="m323.1 613.9c-7.2-1.2-14.1 3.6-15.4 10.8-1.3 7.2 3.6 14.1 10.8 15.4 7.2 1.3 14.1-3.5 15.4-10.8 1.3-7.2-3.6-14.1-10.8-15.4z"/><path class="y" d="m321.4 648c-2.4-0.5-4.6 1.1-5.1 3.5-0.4 2.4 1.2 4.6 3.6 5 2.3 0.5 4.6-1.1 5-3.5 0.4-2.3-1.1-4.6-3.5-5z"/><path class="y" d="m207 599.3c-3.7 3.6-3.7 9.5-0.1 13.2 3.6 3.7 9.5 3.7 13.2 0.1 3.7-3.6 3.8-9.5 0.1-13.2-3.6-3.7-9.5-3.7-13.2-0.1z"/><path class="y" d="m174.6 600.4c-5.2 5.1-5.3 13.5-0.2 18.7 5.2 5.3 13.6 5.4 18.8 0.2 5.2-5.1 5.3-13.5 0.2-18.7-5.1-5.3-13.5-5.4-18.8-0.2z"/><path class="y" d="m201.3 621.5c-1.7 1.7-1.7 4.5-0.1 6.2 1.7 1.7 4.5 1.7 6.2 0.1 1.7-1.7 1.7-4.5 0.1-6.2-1.7-1.7-4.5-1.7-6.2-0.1z"/><path class="x" d="m123 628c2.3 3.1 6.6 3.8 9.8 1.5 3.1-2.2 3.8-6.6 1.6-9.7-2.3-3.2-6.7-3.9-9.8-1.6-3.2 2.2-3.9 6.6-1.6 9.8z"/><path class="x" d="m120.2 652.1c3.2 4.4 9.4 5.4 13.9 2.2 4.4-3.2 5.4-9.4 2.2-13.9-3.2-4.4-9.4-5.4-13.9-2.2-4.4 3.2-5.4 9.4-2.2 13.9z"/><path class="x" d="m138.8 634.7c1.1 1.4 3.1 1.8 4.6 0.7 1.4-1 1.8-3.1 0.7-4.5-1-1.5-3.1-1.8-4.5-0.8-1.5 1.1-1.8 3.1-0.8 4.6z"/><path fill-rule="evenodd" class="m" d="m353.2 583.1c3.2 0 6.1 1.3 8.2 3.4 2.1 2.1 3.5 5 3.5 8.3v69.1c2.6 0.4 4.9 1.7 6.7 3.5 2.2 2.3 3.7 5.4 3.7 8.9 0 3.4-1.5 6.6-3.7 8.9-2.3 2.2-5.5 3.6-8.9 3.6h-252.7c-3.4 0-6.6-1.4-8.8-3.6-2.3-2.3-3.7-5.5-3.7-8.9 0-3.5 1.4-6.6 3.7-8.9 1.3-1.4 3-2.4 4.8-3.1v-69.5c0-3.3 1.3-6.2 3.5-8.3 2.1-2.1 5-3.4 8.2-3.4zm9.5 97.7c1.2 0 2.4-0.5 3.2-1.3 0.8-0.8 1.3-2 1.3-3.2 0-1.3-0.5-2.4-1.3-3.2-0.8-0.9-2-1.4-3.2-1.4h-186.6q-0.8 0.2-1.7 0.1l-0.3-0.1h-16.1c-1.1 0.1-2.1 0.6-2.8 1.4-0.9 0.8-1.4 1.9-1.4 3.2 0 1.2 0.5 2.4 1.4 3.2 0.8 0.8 1.9 1.3 3.1 1.3zm-216.9-4.5c0-1.6 0.3-3.2 0.9-4.6h-36.6c-1.3 0-2.4 0.5-3.2 1.4-0.8 0.8-1.4 1.9-1.4 3.2 0 1.2 0.6 2.4 1.4 3.2 0.8 0.8 1.9 1.3 3.2 1.3h36.6c-0.6-1.4-0.9-2.9-0.9-4.5zm211.1-12.6v-68.9c0-1-0.4-1.9-1.1-2.6-0.7-0.7-1.6-1.1-2.6-1.1h-185.4c-0.9 0-1.8 0.4-2.5 1.1-0.6 0.7-1 1.6-1 2.6v68.9zm-200.7 0v-68.9c0-1.3 0.2-2.5 0.6-3.7h-39.1c-1 0-1.9 0.4-2.5 1.1-0.7 0.7-1.1 1.6-1.1 2.6v68.9z"/><path class="m" d="m329.5 680.8h135.1 50.2c3.2 0 6.1 1.3 8.2 3.4 2.1 2.1 3.5 5.1 3.5 8.3v69.6c1.8 0.6 3.5 1.6 4.8 3 2.3 2.3 3.7 5.4 3.7 8.9 0 3.4-1.4 6.6-3.7 8.9-2.2 2.2-5.4 3.7-8.9 3.7h-48.3-9.7-194.6c-3.5 0-6.6-1.5-8.9-3.7-2.3-2.3-3.7-5.4-3.7-8.9 0-3.5 1.4-6.6 3.7-8.9 1.8-1.8 4.1-3.1 6.7-3.5v-69.1c0-3.2 1.3-6.2 3.5-8.3 2.1-2.1 5-3.4 8.2-3.4z"/><path class="y" d="m518.4 761.4v-68.9c0-1-0.4-1.9-1-2.6-0.7-0.6-1.6-1.1-2.6-1.1h-39.1c0.4 1.2 0.6 2.4 0.6 3.7v68.9z"/><path class="x" d="m458.7 761.4h0.1 9.5v-68.9c0-1-0.4-1.9-1.1-2.6-0.7-0.6-1.5-1-2.5-1.1h-0.1-135.1-50.2c-1 0-1.9 0.5-2.6 1.1-0.6 0.7-1 1.6-1 2.6v68.9z"/><path class="m" d="m485.8 778.5h36.6c1.3 0 2.4-0.5 3.2-1.3 0.9-0.8 1.4-2 1.4-3.2 0-1.3-0.5-2.4-1.4-3.2-0.8-0.8-1.9-1.4-3.2-1.4h-36.6c0.6 1.5 0.9 3 0.9 4.6 0 1.6-0.3 3.1-0.9 4.5z"/><path class="B" d="m464.4 778.5h9.7 0.1c1.2 0 2.3-0.5 3.1-1.3 0.9-0.8 1.4-2 1.4-3.2 0-1.3-0.5-2.4-1.4-3.2-0.7-0.8-1.7-1.3-2.8-1.3h-16.1-0.3q-0.9 0.1-1.7-0.1h-184.8-1.8c-1.2 0-2.4 0.6-3.2 1.4-0.8 0.8-1.3 1.9-1.3 3.2 0 1.2 0.5 2.4 1.3 3.2 0.8 0.8 2 1.3 3.2 1.3z"/><path class="y" d="m289.7 737.4c5-0.9 9.9 2.5 10.8 7.6 0.9 5.1-2.5 9.9-7.6 10.8-5.1 0.9-9.9-2.5-10.8-7.6-0.9-5 2.5-9.9 7.6-10.8z"/><path class="y" d="m309.4 711.7c7.2-1.3 14.1 3.5 15.4 10.7 1.2 7.3-3.6 14.1-10.8 15.4-7.2 1.3-14.1-3.5-15.4-10.7-1.3-7.3 3.6-14.1 10.8-15.4z"/><path class="y" d="m311.1 745.7c2.4-0.4 4.6 1.1 5 3.5 0.5 2.4-1.1 4.6-3.5 5.1-2.4 0.4-4.6-1.2-5-3.6-0.5-2.3 1.1-4.6 3.5-5z"/><path class="y" d="m425.5 697c3.7 3.6 3.7 9.5 0.1 13.2-3.6 3.7-9.5 3.8-13.2 0.2-3.7-3.6-3.8-9.6-0.2-13.3 3.7-3.6 9.6-3.7 13.3-0.1z"/><path class="y" d="m457.9 698.1c5.2 5.1 5.3 13.5 0.2 18.8-5.2 5.2-13.6 5.3-18.8 0.2-5.3-5.2-5.3-13.6-0.2-18.8 5.1-5.3 13.5-5.3 18.8-0.2z"/><path class="y" d="m431.2 719.3c1.7 1.6 1.7 4.4 0 6.1-1.6 1.7-4.4 1.8-6.1 0.1-1.7-1.7-1.8-4.5-0.1-6.2 1.7-1.7 4.5-1.7 6.2 0z"/><path class="x" d="m509.5 725.7c-2.3 3.1-6.6 3.8-9.8 1.6-3.1-2.3-3.8-6.7-1.6-9.8 2.3-3.2 6.7-3.9 9.8-1.6 3.1 2.3 3.9 6.6 1.6 9.8z"/><path class="x" d="m512.3 749.8c-3.2 4.4-9.4 5.4-13.9 2.2-4.4-3.2-5.4-9.4-2.2-13.9 3.2-4.4 9.4-5.4 13.9-2.2 4.4 3.2 5.4 9.4 2.2 13.9z"/><path class="x" d="m493.7 732.4c-1.1 1.5-3.1 1.8-4.6 0.7-1.5-1-1.8-3.1-0.7-4.5 1-1.5 3.1-1.8 4.5-0.8 1.5 1.1 1.8 3.1 0.8 4.6z"/><path fill-rule="evenodd" class="m" d="m514.8 680.8c3.2 0 6.1 1.3 8.2 3.4 2.1 2.1 3.5 5.1 3.5 8.3v69.6c1.8 0.6 3.5 1.6 4.8 3 2.3 2.3 3.7 5.4 3.7 8.9 0 3.4-1.4 6.6-3.7 8.9-2.2 2.2-5.4 3.7-8.9 3.7h-252.6c-3.5 0-6.6-1.5-8.9-3.7-2.3-2.3-3.7-5.4-3.7-8.9 0-3.5 1.4-6.6 3.7-8.9 1.8-1.8 4.1-3.1 6.7-3.5v-69.1c0-3.2 1.3-6.2 3.5-8.3 2.1-2.1 5-3.4 8.2-3.4zm-40.6 97.7c1.2 0 2.3-0.5 3.1-1.3 0.9-0.8 1.4-2 1.4-3.2 0-1.3-0.5-2.4-1.4-3.2-0.7-0.8-1.7-1.3-2.8-1.3h-16.1-0.3q-0.9 0.1-1.7-0.1h-186.6c-1.2 0-2.4 0.6-3.2 1.4-0.8 0.8-1.3 1.9-1.3 3.2 0 1.2 0.5 2.4 1.3 3.2 0.8 0.8 2 1.3 3.2 1.3zm11.7 0h36.6c1.2 0 2.4-0.5 3.2-1.3 0.8-0.8 1.3-2 1.3-3.2 0-1.3-0.5-2.4-1.3-3.2-0.8-0.8-2-1.4-3.2-1.4h-36.6c0.5 1.5 0.8 3 0.8 4.6 0 1.6-0.3 3.1-0.8 4.5zm-17.6-17.1v-68.9c0-1-0.4-1.9-1.1-2.6-0.6-0.6-1.5-1-2.5-1.1h-185.4c-1 0-1.9 0.5-2.5 1.1-0.7 0.7-1.1 1.6-1.1 2.6v68.9zm50.2 0v-68.9c0-1-0.4-1.9-1.1-2.6-0.7-0.6-1.6-1.1-2.6-1.1h-39c0.3 1.2 0.5 2.4 0.5 3.7v68.9z"/><path class="C" d="m924.5 296c-3.1 3.1-4.9 7.3-4.9 11.8 0 0.3-0.2 0.5-0.5 0.5h-1.8c-0.3 0-0.6-0.2-0.6-0.5 0-4.5-1.7-8.7-4.9-11.8-3.1-3.2-7.3-4.9-11.8-4.9-0.3 0-0.5-0.3-0.5-0.6v-1.8c0-0.3 0.2-0.5 0.5-0.5 4.5 0 8.7-1.8 11.8-4.9 3.2-3.1 4.9-7.4 4.9-11.8 0-0.3 0.3-0.6 0.6-0.6h1.8c0.3 0 0.5 0.3 0.5 0.6 0 4.4 1.8 8.7 4.9 11.8 3.2 3.1 7.4 4.9 11.8 4.9 0.3 0 0.6 0.2 0.6 0.5v1.8c0 0.3-0.3 0.6-0.6 0.6-4.4 0-8.6 1.7-11.8 4.9z"/><path class="C" d="m957.5 254.7c-4.6 4.7-7.2 10.9-7.2 17.5 0 0.4-0.4 0.8-0.8 0.8h-2.7c-0.4 0-0.8-0.4-0.8-0.8 0-6.6-2.6-12.8-7.2-17.5-4.7-4.6-10.9-7.2-17.4-7.2-0.5 0-0.9-0.3-0.9-0.8v-2.6c0-0.5 0.4-0.9 0.9-0.9 6.5 0 12.7-2.6 17.4-7.2 4.6-4.6 7.2-10.9 7.2-17.4 0-0.5 0.4-0.9 0.8-0.9h2.7c0.4 0 0.8 0.4 0.8 0.9 0 6.5 2.6 12.8 7.2 17.4 4.7 4.6 10.9 7.2 17.4 7.2 0.5 0 0.9 0.4 0.9 0.9v2.6c0 0.5-0.4 0.8-0.9 0.8-6.5 0-12.7 2.6-17.4 7.2z"/><path class="C" d="m1012.5 305.3c-7.7 7.8-12.1 18.2-12.1 29.2 0 0.8-0.6 1.4-1.4 1.4h-4.4c-0.8 0-1.4-0.6-1.4-1.4 0-11-4.3-21.4-12.1-29.2-7.8-7.7-18.2-12-29.2-12-0.7 0-1.4-0.7-1.4-1.4v-4.5c0-0.7 0.7-1.4 1.4-1.4 11 0 21.4-4.3 29.2-12.1 7.8-7.7 12.1-18.2 12.1-29.1 0-0.8 0.6-1.5 1.4-1.5h4.4c0.8 0 1.4 0.7 1.4 1.5 0 10.9 4.4 21.4 12.1 29.1 7.8 7.8 18.2 12.1 29.2 12.1 0.8 0 1.4 0.7 1.4 1.4v4.5c0 0.7-0.6 1.4-1.4 1.4-11 0-21.4 4.3-29.2 12z"/><path class="y" d="m192.1 697c3.7 3.6 3.7 9.5 0.1 13.2-3.6 3.7-9.5 3.8-13.2 0.2-3.7-3.6-3.7-9.6-0.1-13.3 3.6-3.6 9.5-3.7 13.2-0.1z"/><path class="y" d="m224.5 698.1c5.2 5.1 5.3 13.5 0.2 18.8-5.2 5.2-13.6 5.3-18.8 0.2-5.2-5.2-5.3-13.6-0.2-18.8 5.1-5.3 13.5-5.3 18.8-0.2z"/><path class="y" d="m197.8 719.3c1.7 1.6 1.8 4.4 0.1 6.1-1.7 1.7-4.5 1.8-6.2 0.1-1.7-1.7-1.7-4.5-0.1-6.2 1.7-1.7 4.5-1.7 6.2 0z"/><path class="m" d="m877.9 530c0.3 3.8 4 6.4 4 6.4l0.1 0.1c5.3 4 10.8 7.9 16 11.6 15.8 11.1 28.2 19.9 32.7 30.3 6.5 15.2-3.5 23.6-3.6 23.6l-0.1 0.1c0 0-4.6 4-9.1 8-3 2.7-2.4 7.2-2.4 7.2v0.3c0.1 0.4 10 121.3 10 142.8 0 25.3-24.2 25.9-24.3 25.9-35.9 0.6-72.2 0-108.2 0h-0.6c-3.3-0.2-23.8-2.6-23.8-25.9 0-21.5 9.9-142.4 10-142.8v-0.4c0.1-0.7 0.4-4.6-2.4-7.1-4.5-4-9.1-8-9.1-8q-0.2-0.2-0.5-0.4c-1.6-1.6-9-9.7-3.2-23.3 4.5-10.4 16.9-19.2 32.7-30.3 5.2-3.7 10.7-7.6 16-11.6l0.1-0.1c0.2-0.1 3.7-2.7 4-6.4q-0.9-0.6-1.8-1.5c-1.7-1.7-2.8-4.2-2.8-6.9v-23.4c0-2.6 1-4.9 2.6-6.6l0.2-0.3c1.8-1.8 4.3-2.9 7-2.9h51.3c2.7 0 5.2 1.1 6.9 2.9h0.1c1.7 1.8 2.8 4.2 2.8 6.9v23.4c0 2.7-1.1 5.2-2.8 6.9q-0.9 0.9-1.8 1.5z"/><path class="y" d="m870 531.4h-45.9c-0.9 6.3-6 10.5-7.1 11.4l-0.1 0.1c-5.9 4.4-11.2 8.2-16.2 11.7-14.7 10.4-26.3 18.6-29.9 26.9-3.9 9 0.6 13.7 1.3 14.3 0.5 0.5 5 4.4 9.4 8.3 5.2 4.6 5.2 11.6 5.1 13.8v0.4c-0.1 0.3-10 120.8-10 142.1 0 16.2 14.2 17.8 16.3 17.9 35.7-0.8 72.3 0 108.2 0 1.4 0 16.4-1.2 16.4-17.9 0-21.3-9.9-141.8-10-142.1-0.1-1.7-0.4-9.3 5.1-14.2 4.4-3.9 8.9-7.8 9.4-8.3 0.7-0.6 5.2-5.3 1.3-14.3-3.6-8.3-15.2-16.5-29.9-26.9-5-3.5-10.3-7.3-16.2-11.7-0.9-0.6-6.3-5-7.2-11.5z"/><path class="x" d="m819.6 520.7q0.3-0.1 0.7-0.1h53.5q0.4 0 0.7 0.1v-22.5c0-0.5-0.2-0.9-0.5-1.3-0.3-0.3-0.8-0.5-1.3-0.5h-51.3c-0.5 0-1 0.2-1.3 0.5l-0.1 0.2c-0.2 0.3-0.4 0.7-0.4 1.1z"/><path class="n" d="m818.1 586.9h57.9c8.6 0 15.7 7 15.7 15.7v121.6c0 8.6-7.1 15.7-15.7 15.7h-57.9c-8.6 0-15.7-7.1-15.7-15.7v-121.6c0-8.7 7.1-15.7 15.7-15.7z"/><path class="p" d="m881.5 554.6c14.7 10.4 26.3 18.6 29.9 26.9 3.8 9-0.6 13.7-1.3 14.3-0.5 0.5-5 4.4-9.4 8.3-5.5 4.9-5.2 12.5-5.1 14.2 0.1 0.3 10 120.8 10 142.1 0 15.7-13.3 17.7-16 17.9q5.7 0 11.5 0c1.4 0 16.4-1.2 16.4-17.9 0-21.3-9.9-141.8-10-142.1-0.1-1.7-0.4-9.3 5.1-14.2 4.4-3.9 8.9-7.8 9.4-8.3 0.7-0.6 5.2-5.3 1.3-14.3-3.6-8.3-15.2-16.5-29.9-26.9-5-3.5-10.3-7.3-16.2-11.7-0.9-0.6-6.3-5-7.2-11.5h-11.9c0.9 6.5 6.3 10.9 7.2 11.5 5.9 4.4 11.2 8.2 16.2 11.7z"/><path class="z" d="m857.9 498.2v22.4h15.9q0.4 0 0.7 0.1v-22.5c0-0.5-0.2-0.9-0.5-1.3-0.3-0.3-0.8-0.5-1.3-0.5h-16.5c0.5 0 0.9 0.2 1.2 0.5 0.3 0.4 0.5 0.8 0.5 1.3z"/><path class="x" d="m829.4 672.1c-4.8 0-8.7-3.9-8.7-8.7 0-4.8 3.9-8.7 8.7-8.7h8.9v-9c0-4.8 3.9-8.7 8.7-8.7 4.9 0 8.8 3.9 8.8 8.7v9h8.9c4.8 0 8.7 3.9 8.7 8.7 0 4.8-3.9 8.7-8.7 8.7h-8.9v8.9c0 4.9-3.9 8.8-8.8 8.8-4.8 0-8.7-3.9-8.7-8.8v-8.9z"/><path fill-rule="evenodd" class="m" d="m877.9 530c0.3 3.8 4 6.4 4 6.4l0.1 0.1c5.3 4 10.8 7.9 16 11.6 15.8 11.1 28.2 19.9 32.7 30.3 6.5 15.2-3.5 23.6-3.6 23.6l-0.1 0.1c0 0-4.6 4-9.1 8-3 2.7-2.4 7.2-2.4 7.2v0.3c0.1 0.4 10 121.3 10 142.8 0 25.3-24.2 25.9-24.3 25.9-35.9 0.6-72.2 0-108.2 0h-0.6c-3.3-0.2-23.8-2.6-23.8-25.9 0-21.5 9.9-142.4 10-142.8v-0.4c0.1-0.7 0.4-4.6-2.4-7.1-4.5-4-9.1-8-9.1-8q-0.2-0.2-0.5-0.4c-1.6-1.6-9-9.7-3.2-23.3 4.5-10.4 16.9-19.2 32.7-30.3 5.2-3.7 10.7-7.6 16-11.6l0.1-0.1c0.2-0.1 3.7-2.7 4-6.4q-0.9-0.6-1.8-1.5c-1.7-1.7-2.8-4.2-2.8-6.9v-23.4c0-2.6 1-4.9 2.6-6.6l0.2-0.3c1.8-1.8 4.3-2.9 7-2.9h51.3c2.7 0 5.2 1.1 6.9 2.9h0.1c1.7 1.8 2.8 4.2 2.8 6.9v23.4c0 2.7-1.1 5.2-2.8 6.9q-0.9 0.9-1.8 1.5zm-58.3-9.3q0.3-0.1 0.7-0.1h53.5q0.4 0 0.7 0.1v-22.5c0-0.5-0.2-0.9-0.5-1.3-0.3-0.3-0.8-0.5-1.3-0.5h-51.3c-0.5 0-1 0.2-1.3 0.5l-0.1 0.2c-0.2 0.3-0.4 0.7-0.4 1.1zm50.4 10.7h-45.9c-0.9 6.3-6 10.6-7.1 11.4l-0.1 0.1c-5.9 4.4-11.2 8.2-16.2 11.7-14.7 10.4-26.3 18.6-29.9 26.9-3.9 9 0.6 13.7 1.3 14.3 0.5 0.5 5 4.4 9.4 8.3 5.2 4.6 5.2 11.6 5.1 13.8v0.4c-0.1 0.3-10 120.8-10 142.1 0 16.3 14.2 17.8 16.3 17.9 35.7-0.8 72.3 0 108.2 0 1.4 0 16.4-1.2 16.4-17.9 0-21.3-9.9-141.8-10-142.1-0.1-1.7-0.4-9.3 5.1-14.2 4.4-3.9 8.9-7.8 9.4-8.3 0.7-0.6 5.2-5.3 1.3-14.3-3.6-8.3-15.2-16.5-29.9-26.9-5-3.5-10.3-7.3-16.2-11.7-0.9-0.6-6.3-4.9-7.2-11.5z"/><path class="n" d="m822.3 550.3c1.7-1.3 4.3-1 5.6 0.8 1.3 1.7 1 4.2-0.8 5.6l-40.8 31c-1.7 1.3-4.2 1-5.6-0.8-1.3-1.7-1-4.2 0.8-5.6z"/><path class="m" d="m11.7 801.4h1244.6c6.3 0 11.4-5.2 11.4-11.4 0-6.3-5.1-11.5-11.4-11.5h-1244.6c-6.3 0-11.4 5.2-11.4 11.5 0 6.2 5.1 11.4 11.4 11.4z"/><path class="C" d="m364.4 218.8c3.2 3.1 4.9 7.3 4.9 11.8 0 0.3 0.3 0.5 0.6 0.5h1.8c0.3 0 0.5-0.2 0.5-0.5 0-4.5 1.8-8.7 4.9-11.8 3.2-3.2 7.4-4.9 11.8-4.9 0.3 0 0.6-0.3 0.6-0.6v-1.8c0-0.3-0.3-0.5-0.6-0.5-4.4 0-8.6-1.8-11.8-4.9-3.1-3.2-4.9-7.4-4.9-11.8 0-0.3-0.2-0.6-0.5-0.6h-1.8c-0.3 0-0.6 0.3-0.6 0.6 0 4.4-1.7 8.6-4.9 11.8-3.1 3.1-7.3 4.9-11.8 4.9-0.3 0-0.5 0.2-0.5 0.5v1.8c0 0.3 0.2 0.6 0.5 0.6 4.5 0 8.7 1.7 11.8 4.9z"/><path class="C" d="m331.4 177.5c4.7 4.7 7.3 10.9 7.3 17.4 0 0.5 0.3 0.9 0.8 0.9h2.6c0.5 0 0.9-0.4 0.9-0.9 0-6.5 2.5-12.7 7.2-17.4 4.6-4.6 10.8-7.2 17.4-7.2 0.5 0 0.8-0.4 0.8-0.8v-2.7c0-0.4-0.3-0.8-0.8-0.8-6.6 0-12.8-2.6-17.4-7.2-4.7-4.7-7.2-10.9-7.2-17.4 0-0.5-0.4-0.9-0.9-0.9h-2.6c-0.5 0-0.8 0.4-0.8 0.9 0 6.5-2.6 12.7-7.3 17.4-4.6 4.6-10.8 7.2-17.4 7.2-0.4 0-0.8 0.4-0.8 0.8v2.7c0 0.4 0.4 0.8 0.8 0.8 6.6 0 12.8 2.6 17.4 7.2z"/><path class="C" d="m276.4 228.1c7.8 7.8 12.1 18.2 12.1 29.2 0 0.8 0.6 1.4 1.4 1.4h4.4c0.8 0 1.4-0.6 1.4-1.4 0-11 4.4-21.4 12.1-29.2 7.8-7.7 18.2-12.1 29.2-12.1 0.8 0 1.4-0.6 1.4-1.4v-4.4c0-0.8-0.6-1.4-1.4-1.4-11 0-21.4-4.3-29.2-12.1-7.7-7.7-12.1-18.2-12.1-29.2 0-0.7-0.6-1.4-1.4-1.4h-4.4c-0.8 0-1.4 0.7-1.4 1.4 0 11-4.3 21.5-12.1 29.2-7.7 7.8-18.2 12.1-29.2 12.1-0.7 0-1.4 0.6-1.4 1.4v4.4c0 0.8 0.7 1.4 1.4 1.4 11 0 21.5 4.4 29.2 12.1z"/><path class="n" d="m1044.5 223.9c-4.6 4.6-7.2 10.8-7.2 17.4 0 0.5-0.4 0.8-0.8 0.8h-2.7c-0.4 0-0.8-0.3-0.8-0.8 0-6.6-2.6-12.8-7.2-17.4-4.7-4.7-10.9-7.2-17.4-7.2-0.5 0-0.9-0.4-0.9-0.9v-2.6c0-0.5 0.4-0.8 0.9-0.8 6.5 0 12.7-2.6 17.4-7.3 4.6-4.6 7.2-10.8 7.2-17.4 0-0.4 0.4-0.8 0.8-0.8h2.7c0.4 0 0.8 0.4 0.8 0.8 0 6.6 2.6 12.8 7.2 17.4 4.7 4.7 10.9 7.3 17.4 7.3 0.5 0 0.9 0.3 0.9 0.8v2.6c0 0.5-0.4 0.9-0.9 0.9-6.5 0-12.7 2.5-17.4 7.2z"/><path class="n" d="m130.8 363.3c-4.7 4.6-7.3 10.8-7.3 17.4 0 0.5-0.3 0.8-0.8 0.8h-2.6c-0.5 0-0.9-0.3-0.9-0.8 0-6.6-2.5-12.8-7.2-17.4-4.6-4.7-10.8-7.2-17.4-7.2-0.5 0-0.8-0.4-0.8-0.9v-2.6c0-0.5 0.3-0.8 0.8-0.8 6.6 0 12.8-2.6 17.4-7.3 4.7-4.6 7.2-10.8 7.2-17.4 0-0.4 0.4-0.8 0.9-0.8h2.6c0.5 0 0.8 0.4 0.8 0.8 0 6.6 2.6 12.8 7.3 17.4 4.6 4.7 10.8 7.3 17.4 7.3 0.4 0 0.8 0.3 0.8 0.8v2.6c0 0.5-0.4 0.9-0.8 0.9-6.6 0-12.8 2.5-17.4 7.2z"/><path class="n" d="m919.1 319c-2.7 2.7-4.1 6.2-4.1 9.9 0 0.3-0.3 0.5-0.5 0.5h-1.5c-0.3 0-0.5-0.2-0.5-0.5 0-3.7-1.5-7.2-4.1-9.9-2.6-2.6-6.2-4.1-9.9-4.1-0.3 0-0.5-0.2-0.5-0.5v-1.5c0-0.2 0.2-0.4 0.5-0.4 3.7 0 7.3-1.5 9.9-4.2 2.6-2.6 4.1-6.1 4.1-9.9 0-0.2 0.2-0.4 0.5-0.4h1.5c0.2 0 0.5 0.2 0.5 0.4 0 3.8 1.4 7.3 4.1 9.9 2.6 2.7 6.1 4.2 9.9 4.2 0.2 0 0.5 0.2 0.5 0.4v1.5c0 0.3-0.3 0.5-0.5 0.5-3.8 0-7.3 1.5-9.9 4.1z"/><path class="n" d="m916.2 54.7c-2.7 2.6-4.2 6.2-4.2 9.9 0 0.3-0.2 0.5-0.4 0.5h-1.5c-0.3 0-0.5-0.2-0.5-0.5 0-3.7-1.5-7.3-4.1-9.9-2.7-2.6-6.2-4.1-9.9-4.1-0.3 0-0.5-0.2-0.5-0.5v-1.5c0-0.2 0.2-0.4 0.5-0.4 3.7 0 7.2-1.5 9.9-4.2 2.6-2.6 4.1-6.1 4.1-9.9 0-0.2 0.2-0.5 0.5-0.5h1.5c0.2 0 0.4 0.3 0.4 0.5 0 3.8 1.5 7.3 4.2 9.9 2.6 2.7 6.1 4.2 9.9 4.2 0.2 0 0.4 0.2 0.4 0.4v1.5c0 0.3-0.2 0.5-0.4 0.5-3.8 0-7.3 1.5-9.9 4.1z"/><path class="n" d="m336.8 161.5c-2.7 2.6-4.1 6.1-4.1 9.9 0 0.2-0.2 0.5-0.5 0.5h-1.5c-0.3 0-0.5-0.3-0.5-0.5 0-3.8-1.5-7.3-4.1-9.9-2.6-2.7-6.2-4.1-9.9-4.1-0.3 0-0.5-0.3-0.5-0.5v-1.5c0-0.3 0.2-0.5 0.5-0.5 3.7 0 7.3-1.5 9.9-4.1 2.6-2.6 4.1-6.2 4.1-9.9 0-0.3 0.2-0.5 0.5-0.5h1.5c0.3 0 0.5 0.2 0.5 0.5 0 3.7 1.4 7.3 4.1 9.9 2.6 2.6 6.2 4.1 9.9 4.1 0.3 0 0.5 0.2 0.5 0.5v1.5c0 0.2-0.2 0.5-0.5 0.5-3.7 0-7.3 1.4-9.9 4.1z"/><path class="n" d="m189 160.6c-2.6 2.6-4.1 6.2-4.1 9.9 0 0.3-0.2 0.5-0.5 0.5h-1.5c-0.2 0-0.5-0.2-0.5-0.5 0-3.7-1.4-7.3-4.1-9.9-2.6-2.7-6.1-4.1-9.9-4.1-0.2 0-0.5-0.2-0.5-0.5v-1.5c0-0.3 0.3-0.5 0.5-0.5 3.8 0 7.3-1.4 9.9-4.1 2.7-2.6 4.1-6.2 4.1-9.9 0-0.3 0.3-0.5 0.5-0.5h1.5c0.3 0 0.5 0.2 0.5 0.5 0 3.7 1.5 7.3 4.1 9.9 2.6 2.7 6.2 4.1 9.9 4.1 0.3 0 0.5 0.2 0.5 0.5v1.5c0 0.3-0.2 0.5-0.5 0.5-3.7 0-7.3 1.4-9.9 4.1z"/><path class="n" d="m521.7 21.2c-2.6 2.6-4.1 6.2-4.1 9.9 0 0.3-0.2 0.5-0.4 0.5h-1.5c-0.3 0-0.5-0.2-0.5-0.5 0-3.7-1.5-7.3-4.1-9.9-2.7-2.7-6.2-4.1-9.9-4.1-0.3 0-0.5-0.2-0.5-0.5v-1.5c0-0.3 0.2-0.5 0.5-0.5 3.7 0 7.2-1.5 9.9-4.1 2.6-2.6 4.1-6.2 4.1-9.9 0-0.3 0.2-0.5 0.5-0.5h1.5c0.2 0 0.4 0.2 0.4 0.5 0 3.7 1.5 7.3 4.1 9.9 2.7 2.6 6.2 4.1 10 4.1 0.2 0 0.4 0.2 0.4 0.5v1.5c0 0.3-0.2 0.5-0.4 0.5-3.8 0-7.3 1.4-10 4.1z"/><path class="n" d="m1205.2 235.4c-2.7 2.6-4.2 6.2-4.2 9.9 0 0.3-0.2 0.5-0.4 0.5h-1.5c-0.3 0-0.5-0.2-0.5-0.5 0-3.7-1.5-7.3-4.1-9.9-2.6-2.7-6.2-4.1-9.9-4.1-0.3 0-0.5-0.2-0.5-0.5v-1.5c0-0.3 0.2-0.5 0.5-0.5 3.7 0 7.3-1.4 9.9-4.1 2.6-2.6 4.1-6.2 4.1-9.9 0-0.3 0.2-0.5 0.5-0.5h1.5c0.2 0 0.4 0.2 0.4 0.5 0 3.7 1.5 7.3 4.2 9.9 2.6 2.7 6.1 4.1 9.9 4.1 0.2 0 0.4 0.2 0.4 0.5v1.5c0 0.3-0.2 0.5-0.4 0.5-3.8 0-7.3 1.4-9.9 4.1z"/></svg>