<svg version="1.2" xmlns="http://www.w3.org/2000/svg" viewBox="0 0 1430 901" width="1430" height="901"><style>.a{fill:#dfe7ea}.b{fill:#38677c}.c{fill:#24586f}.d{fill:none;stroke:#24586f;stroke-miterlimit:10;stroke-width:2}.e{fill:#fff}.f{fill:#94c19b}.g{fill:#ca3d16}.h{fill:#92482d}.i{fill:#ba6c57}.j{fill:#e15938}.k{fill:#171842}.l{fill:#484b84}.m{fill:#edbd22}.n{fill:#ea9700}.o{fill:#5a8192}.p{fill:none;stroke:#212121;stroke-miterlimit:10;stroke-width:4}.q{fill:none;stroke:#212121;stroke-linecap:round;stroke-linejoin:round;stroke-width:4}.r{fill:#212121}.s{fill:none;stroke:#212121;stroke-linecap:round;stroke-linejoin:round;stroke-width:10}</style><path class="a" d="m222.1 742.6c-119 0-215.2-5.8-215.2-13.1 0-7.2 96.2-13 215.2-13 119 0 215.2 5.8 215.2 13 0 7.3-96.2 13.1-215.2 13.1z"/><path class="a" d="m936.5 900.5c-119 0-215.1-5.9-215.1-13.1 0-7.2 96.1-13 215.1-13 119 0 215.2 5.8 215.2 13 0 7.2-96.2 13.1-215.2 13.1z"/><path class="a" d="m1195.9 747.3c-119 0-215.2-5.9-215.2-13.1 0-7.2 96.2-13 215.2-13 118.9 0 215.1 5.8 215.1 13 0 7.2-96.2 13.1-215.1 13.1z"/><path class="a" d="m400.3 496.1c16.7-57.1 61.3-103.4 114.1-130.6 52.8-27.2 113.2-37 172.6-37.6 99.4-0.9 201.9 24.7 278.4 88.1 76.5 63.4 122 168.5 98.6 265.1-20 82.5-88.1 149.3-168.4 177-80.3 27.6-170.7 18.5-248.5-15.4-121.3-53-291.4-194.2-246.8-346.6z"/><path class="a" d="m681.2 147.2c29.7-62.5 89.5-107.5 155.2-129.1 65.6-21.6 136.8-21.7 205.1-11.4 114.4 17.1 227.4 65.4 303.7 152.2 76.3 86.9 109.2 216 64.6 322.7-38.1 91.2-128.6 155.4-226 172.4-97.3 17-199.5-10-282.7-63.3-129.6-83.1-299.1-276.6-219.9-443.5z"/><path class="a" d="m12 460.9c-21.6-62.5-10.8-133.3 19.6-192 30.4-58.7 79-106.4 132.6-145.1 89.6-64.8 199.1-107.6 309.4-99.2 110.3 8.3 219.1 74.5 260.1 177.2 35 87.8 16.2 192.3-39 269.1-55.2 76.8-143 126.7-235.6 145.9-144.2 30-389.5 11.2-447.1-155.9z"/><path class="b" d="m626.4 479.7h-15.1v-44.1c0-12.2 10-22.2 22.3-22.2 12.3 0 22.3 10 22.3 22.2v14.3h-15.1v-14.3c0-3.9-3.2-7.2-7.2-7.2-4 0-7.2 3.3-7.2 7.2z"/><path class="c" d="m617.5 479.7h-15.1v-44.1c0-12.2 10-22.2 22.3-22.2 12.3 0 22.3 10 22.3 22.2v14.3h-15.1v-14.3c0-3.9-3.2-7.2-7.2-7.2-4 0-7.2 3.3-7.2 7.2z"/><path  d="m666.5 463.1v16.6h-15.1v-16.6z"/><path  d="m596.4 463.1v16.6h-15v-16.6z"/><path class="b" d="m672.2 472.1v15.1h-85.5v-15.1z"/><path class="c" d="m611.3 472.1v15.1h-40v-15.1z"/><path class="b" d="m736.9 487.2v22.6h-212.6v-22.6z"/><path class="c" d="m583.8 487.2v22.6h-59.5v-22.6z"/><path class="d" d="m524.3 487.2h212.6"/><path class="b" d="m680.4 580h-156.1v-70.2h203.4v22.9c0 26.1-21.1 47.3-47.3 47.3z"/><path class="c" d="m568.1 580h-43.8v-70.2h91.1v22.9c0 26.1-21.2 47.3-47.3 47.3z"/><path class="d" d="m727.7 509.8h-203.4"/><path class="c" d="m707.9 641.1c0 8.8-7.1 15.8-15.8 15.8h-94.3v-31.6h94.3c4.3 0 8.3 1.8 11.2 4.6q2 2.1 3.2 4.7c0.9 2 1.4 4.2 1.4 6.5z"/><path class="b" d="m706.5 634.6c-2.5 5.5-8 9.3-14.4 9.3h-94.3v-18.6h94.3c4.3 0 8.3 1.8 11.2 4.6q2 2.1 3.2 4.7z"/><path class="c" d="m638.9 625.3v31.6h-41.1v-31.6z"/><path class="b" d="m614.4 700.7h-29.9v-103.2h40v93.1c0 5.6-4.5 10.1-10.1 10.1z"/><path class="c" d="m589.4 700.7h-9.8c-5.6 0-10.1-4.5-10.1-10.1v-93.1h30v93.1c0 5.6-4.5 10.1-10.1 10.1z"/><path class="b" d="m640.1 607h-69.9c-10.1 0-18.2-8.2-18.2-18.2v-8.8h106.2v8.8c0 10-8.1 18.2-18.1 18.2z"/><path class="c" d="m580.5 607h-17.7c-10 0-18.1-8.2-18.1-18.2v-8.8h53.9v8.8c0 10-8.1 18.2-18.1 18.2z"/><path class="d" d="m544.7 580h113.5"/><path class="d" d="m571.7 607h52.8"/><path class="d" d="m569.5 649.1h55"/><path class="d" d="m569.5 664.7h55"/><path class="b" d="m632.5 663.4h-65.9c-2.4 0-4.3-2-4.3-4.4v-4.2c0-2.4 1.9-4.3 4.3-4.3h65.9c2.4 0 4.3 1.9 4.3 4.3v4.2c0 2.4-1.9 4.4-4.3 4.4z"/><path class="c" d="m585.9 663.4h-19.3c-2.4 0-4.3-2-4.3-4.4v-4.2c0-2.4 1.9-4.3 4.3-4.3h19.3c2.4 0 4.4 1.9 4.4 4.3v4.2c0 2.4-2 4.4-4.4 4.4z"/><path class="e" d="m872 836.8l-44.1 3.2-8.5-54.9 46.6-0.1z"/><path  d="m881.5 872.7l-100.3 2.6 0.7-9c0.2-2.9 0.9-5.6 2-8.1 2.3-5.3 6.5-9.4 12.1-11.7l2.5-1q3.7-1.5 6.7-3.9 2.6-2 4.6-4.5c2.8-3.6 4.7-8 5.5-12.9l56.3-1.5 6.4 33z"/><path class="e" d="m833.2 830.6l-19.8 0.5-0.1-2.5 19.8-0.5z"/><path class="e" d="m829.6 837.6l-19.8 0.5-0.1-2.5 19.8-0.5z"/><path fill-rule="evenodd" class="e" d="m855.6 852.9c-2 0.1-3.9-1.4-4.4-3.3-0.2-1 0-2.1 0.6-2.9 0.5-0.7 1.5-1.2 2.5-1.2 1.9 0 3.8 1.4 4.3 3.3 0.3 1.1 0.1 2.1-0.5 2.9-0.6 0.7-1.5 1.2-2.5 1.2zm-1.3-4.8c-0.1 0-0.4 0-0.5 0.2q-0.2 0.2-0.1 0.7c0.2 0.7 1 1.4 1.8 1.4 0.2 0 0.4-0.1 0.6-0.3q0.1-0.2 0-0.6c-0.2-0.8-1-1.5-1.8-1.4z"/><path fill-rule="evenodd" class="e" d="m843.6 853.2c-1.9 0.1-3.8-1.4-4.3-3.3-0.3-1-0.1-2.1 0.5-2.8 0.6-0.8 1.5-1.2 2.5-1.3 1.9 0 3.9 1.4 4.3 3.3v0.1c0.3 1 0.1 2-0.5 2.8-0.6 0.8-1.5 1.2-2.5 1.2zm-1.2-4.8c-0.2 0-0.4 0-0.6 0.2q-0.2 0.3 0 0.7c0.1 0.7 1 1.4 1.7 1.4 0.2 0 0.5-0.1 0.6-0.2q0.2-0.3 0.1-0.7c-0.2-0.8-1.1-1.4-1.8-1.4z"/><path class="e" d="m881.5 872.7l-100.3 2.6 0.7-9c0.2-2.9 0.9-5.6 2-8.1l94.1-2.5z"/><path class="f" d="m879.5 865.5l-63.1 1.6-0.1-2.5 63.1-1.7z"/><path class="e" d="m837.5 873.8l-56.3 1.5 0.7-9c0.2-2.9 0.9-5.6 2-8.1 2.3-5.3 6.5-9.4 12.1-11.7l2.5-1q3.7-1.5 6.7-3.9c14.4 5.7 26.8 17.7 32.3 32.2z"/><path  d="m815.3 824.2l-2.4-5c-1.7-3.4 0.1-6.8 3.7-6.9l5.1-0.2c3.9-0.1 8.1 1.8 11.1 5.1l5.9 6.3z"/><path class="e" d="m1055.2 802.4l3.2 44.1-54.9 8.5-0.1-46.6z"/><path  d="m1091.1 792.9l2.6 100.3-9-0.7c-2.9-0.2-5.6-0.9-8.1-2-5.3-2.3-9.4-6.6-11.7-12.2l-1-2.5q-1.5-3.6-3.9-6.6-2-2.6-4.5-4.6c-3.6-2.8-8-4.7-12.9-5.5l-1.5-56.3 33-6.4z"/><path class="e" d="m1049 841.2l0.5 19.8-2.5 0.1-0.5-19.8z"/><path class="e" d="m1056 844.8l0.5 19.8-2.5 0.1-0.5-19.8z"/><path fill-rule="evenodd" class="e" d="m1071.3 818.8c0.1 2-1.4 3.9-3.3 4.3-1 0.3-2.1 0.1-2.9-0.5-0.7-0.5-1.2-1.5-1.2-2.5 0-1.9 1.4-3.8 3.3-4.3 1.1-0.3 2.1-0.1 2.9 0.5 0.7 0.6 1.2 1.5 1.2 2.5zm-4.8 1.2c0 0.2 0 0.5 0.2 0.6q0.2 0.2 0.7 0.1c0.7-0.2 1.4-1.1 1.4-1.8 0-0.2-0.1-0.4-0.3-0.6q-0.2-0.1-0.6 0c-0.8 0.2-1.5 1-1.4 1.7z"/><path fill-rule="evenodd" class="e" d="m1071.6 830.8c0.1 1.9-1.4 3.8-3.3 4.3-1 0.3-2.1 0.1-2.8-0.5-0.8-0.6-1.2-1.5-1.3-2.5 0-2 1.4-3.9 3.4-4.4 1-0.2 2 0 2.8 0.6 0.8 0.5 1.2 1.5 1.2 2.5zm-4.8 1.2c0 0.2 0 0.4 0.2 0.6q0.3 0.1 0.7 0c0.8-0.2 1.4-1 1.4-1.8 0-0.1-0.1-0.4-0.2-0.5q-0.3-0.2-0.7-0.1c-0.8 0.2-1.4 1.1-1.4 1.8z"/><path class="e" d="m1091.1 792.9l2.6 100.3-9-0.7c-2.9-0.2-5.6-0.9-8.1-2l-2.5-94.1z"/><path class="f" d="m1083.9 794.9l1.6 63.1h-2.5l-1.7-63z"/><path class="e" d="m1092.2 836.9l1.5 56.3-9-0.7c-2.9-0.2-5.6-0.9-8.1-2-5.3-2.3-9.4-6.6-11.7-12.2l-1-2.5q-1.5-3.6-3.9-6.6c5.7-14.4 17.7-26.9 32.2-32.3z"/><path  d="m1042.6 859.1l-5 2.4c-3.4 1.7-6.8-0.2-6.9-3.8l-0.2-5c-0.1-3.9 1.8-8.1 5.1-11.1l6.3-5.9z"/><path class="b" d="m1018.1 804.7l-4.9 62.4-15 1.8 0.9-10.5-66.3 17.6c-17.7 4.7-33.7-6-38.7-21-2.4-7.1-2.3-15.1 1.2-23l18.3-78.5c0 0-16.1-5.8-52.5-17l10.9 57.9 9.5 0.5 1.3 17.6-31.3-0.2-29.8-0.2-27.8-121.8c-4.4-19.1 12-36.6 31.4-33.4l95.8 15.7 67.3-11.9c0 0 36.9 75.8-15.8 151.4z"/><path class="g" d="m916.8 611.7c-26.1 27.8-69.5 30.6-111.1 23 0-0.1 27.8-39.1 27.8-39.1l31.3-7.4 14.9-3.5 25-5.9c4.1-0.8 8.2-0.1 11.7 1.8 3.2 1.8 5.9 4.5 7.6 8 4 8.4-0.8 16.3-7.2 23.1z"/><path class="h" d="m833.5 595.6l-84.4-24-8.7 9.2c0 0 17.7 30.8 65.4 53.9z"/><path class="h" d="m719.6 543.5l-23.6 4.6c-1.8 0.4-3.1 2-3 3.9 0.2 2 1.9 3.5 3.9 3.4l23.4-1.3z"/><path class="h" d="m736.9 553.7l-17.3-10.2-26.8 9.8c-1.8 0.7-2.8 2.7-2.1 4.6 0.6 1.3 1.9 2.2 3.3 2.2l18-0.2 23.7 20.6z"/><path class="h" d="m729.9 568.2l-10.7-22.7-14.3-1c-1.1-0.1-1.9-0.9-2.1-1.9-0.1-1.3 0.7-2.4 1.9-2.6l18.4-2.9 13.7 10.6z"/><path class="h" d="m767.4 601.1c-26.6-0.5-43.8-19.6-43.8-19.6l13.2-33.8 21.4 28.7z"/><path class="h" d="m731.6 569.3l-23.1-6-12.5 4.5c-1.4 0.5-1.9 2.1-1.1 3.4l0.1 0.1c0.4 0.6 1.2 1 2 0.9l11.4-0.7 15.2 10z"/><path class="i" d="m910.9 580l-29.6 9.1-6.6-11.9-9.7-17.6-3.9-6.9 25.8-49.5z"/><path class="h" d="m887.1 549.9c0 0 2 18.1-12.4 27.3l-9.7-17.6z"/><path class="i" d="m893.1 551.5l-30.9 17.5c-7.7 4.3-17.5-0.2-19.1-8.9-2.3-11.9-3.8-28 0.2-41.4 2.3-7.9 7.2-14.5 13.5-19.1 2.9-2 6.1-3.7 9.4-4.8h0.1l1.9-0.6 0.2-0.1q1.4-0.4 2.9-0.6 3.5-0.7 7.2-0.6c2.3 0 4.6 0.5 6.7 1.2 8.7 3.2 14.5 12.2 13.1 22l-1.3 8.5z"/><path  d="m855.1 501c18.2-21.1 48.6-11.8 57.8-2.2 15.6 16.3 7.2 40.2-10.2 54.9l-18.8-45z"/><path  d="m913.6 547.5c-9.6 0-17.4-7.8-17.4-17.4 0-9.7 7.8-17.5 17.4-17.5 9.7 0 17.5 7.8 17.5 17.5 0 9.6-7.8 17.4-17.5 17.4z"/><path  d="m862.7 505.6c-9.7 0-17.5-7.8-17.5-17.4 0-9.7 7.8-17.5 17.5-17.5 9.6 0 17.4 7.8 17.4 17.5 0 9.6-7.8 17.4-17.4 17.4z"/><path  d="m891.1 509.7c-11.8 0-21.5-9.6-21.5-21.5 0-11.9 9.7-21.5 21.5-21.5 11.9 0 21.5 9.6 21.5 21.5 0 11.9-9.6 21.5-21.5 21.5z"/><path class="i" d="m842.3 522.4c-1.8 6.7-6.2 8.6-9.2 9-1.9 0.3-3.3 2-3.2 4 0.1 2.5 1.7 4.8 4.1 5.7l8.5 3.3c4.7 0.9 9.1-2.4 9.5-7.1l1.6-16z"/><path  d="m894.5 526.7c0 0-24.9 2.9-30.6-18.4l11.5-9.3c11.3-1.3 21.9 6 24.6 17.1l1.6 6.6z"/><path class="i" d="m884.4 530.3c32.7-24.5 36.8 19 1.4 16.6z"/><path  d="m882.3 515.1l-1.4 21.6 4-0.5 7.3-13.4z"/><path  d="m852.3 518.1c6.7 0.9 7.5-2.6 2.5-4-5.3-1.6-10.7 2.9-2.5 4z"/><path  d="m848.4 530.8c-0.7 3.1-0.2 5.8 1.2 6.1 1.4 0.4 3.1-1.8 3.9-4.8 0.7-3.1 0.2-5.8-1.2-6.2-1.4-0.3-3.1 1.9-3.9 4.9z"/><path class="b" d="m889 623.4l-12.1 5.5c-8.4-18.1-8.1-32.9-6-42.8l14.9-3.5c-2.5 6-6.3 20.3 3.2 40.8z"/><path class="j" d="m990.9 686.5l-40.2 5.5-23.3 1.3-5.1-16.9-4.2-13.9-7.3-9.8c0 0-7.7-1.8-16.1-7.3-1.2-0.8-2.5-1.7-3.7-2.7q-1.9-1.4-3.6-3.1-1.8-1.7-3.4-3.7c-2.4-2.7-4.4-5.9-6.1-9.5-3.1-7-4.8-15.7-3.5-26.5q0.1-0.5 0.1-1.1 0.1-0.7 0.3-1.5c0.6-4.5 1.8-9.3 3.6-14.5l20.7-12.2c3.1-0.3 6-0.5 8.9-0.5q1.2 0 2.3 0c5.5 0.1 10.6 0.7 15.3 1.8 64.3 14.8 65.3 114.6 65.3 114.6z"/><path  d="m919.9 523.1c-9.7 0-17.5-7.8-17.5-17.5 0-9.6 7.8-17.4 17.5-17.4 9.6 0 17.4 7.8 17.4 17.4 0 9.7-7.8 17.5-17.4 17.5z"/><path  d="m884.4 529.1c-7.5 7.1-43.6 14.6-43.6 14.6 0 0-0.1 15 2.4 21.7 2.4 6.6 15.9 16.9 44.9-10.3l2.4-29.2z"/><path class="e" d="m860.6 549.8c-1.8 6.5-8.8 4.2-9.6 0.6-0.8-3.6 11.6-7.7 9.6-0.6z"/><path class="c" d="m670.6 601.2l22 8.8 9.8-6.9 1.5-23.3-14.9-6.7-5.4 3.4 11.6 5.1 1.6 13.1-9.7 6.2-11.3-7-1.4-11.6-5.4 3.5z"/><path class="b" d="m666.4 603.9l22 8.7 9.8-6.8 1.6-23.3-15-6.8-3.6 2.3 9.8 6.2 1.6 13.2-9.7 6.1-11.2-7-1.4-11.6-3.7 2.4z"/><path class="c" d="m688.4 612.6l33.2 56.5c3.9 6.6 12.5 8.4 18.7 4l5.3-3.7c6.5-4.6 7.3-13.9 1.8-19.6l-45-46.7z"/><path class="b" d="m688.4 612.6l33.2 56.5c3.9 6.6 12.5 8.4 18.7 4 6.4-4.5 7.4-13.6 2.1-19.4l-44.2-47.9z"/><path class="b" d="m914.6 612l-13.2 1.3c-2-20.5 3.5-34.6 8.9-43.2 5.5 0.1 10.6 0.7 15.3 1.8-4.1 4.3-13.3 16.7-11 40.1z"/><path class="i" d="m748 626.5c-21.2-9-47.7-4.3-47.7-4.3l17 38.9 32.6-20.6z"/><path class="i" d="m738.2 643.2l-23 21.4-20.6-31.3 5.7-11.1z"/><path class="i" d="m848.8 645.8l-100.8-19.3-8.5 12.6c0 0 27.1 33 88 50.7z"/><path class="g" d="m943.2 618.5c0 21.1-8 40.5-20.9 57.9l-4.2-13.9-7.3-9.8c0 0-7.7-1.8-16.1-7.3-1.2-0.8-2.5-1.7-3.7-2.7q-1.9-1.4-3.6-3.1-1.8-1.7-3.4-3.7c5.2-21 59.2-71.8 59.2-17.4z"/><path class="b" d="m988.4 660.7l-43.7-2.6-47.2-37.1-19.6 5.4c0 0 25.7 21.7 40.2 36.1l7.3 39.3 69.2-8.5z"/><path class="c" d="m936.5 651.7c-4.9 14.4-16.5 21.1-16.5 21.1l-1.9-10.3-7.4-7.2 14.7-13.4z"/><path class="j" d="m940.3 626.4c-18.7 39.2-64.9 57.1-112.7 63.2-0.1 0 14.4-45.2 14.4-45.2l73.8-49.7c4.2-2.2 8.9-2.9 13.4-2 4.1 0.8 7.9 2.8 10.9 6 7.3 7.8 4.8 18.1 0.2 27.7z"/><path class="i" d="m908 570.1c-3.3 8.7-26.7 19-29.6 12.7l20.7-12.2c3.1-0.3 6-0.5 8.9-0.5z"/><path class="c" d="m925.4 707.8l-11.8 45.7c0 0-16.1-5.8-52.5-17l10.9 57.9 9.5 0.5 1.3 17.6-31.3-0.2-21.9-112.9z"/><path class="e" d="m1321.2 648.5l-41.6 29.5-41.2-49.1 40.7-74.9z"/><path  d="m1352.1 678.1l-97.4 62.7-4.7-9.3c-1.6-3-2.5-6.1-2.9-9.2-0.9-6.6 0.8-13.2 5-18.8l1.8-2.5q2.7-3.8 4.3-7.8 1.3-3.5 1.8-7.2c0.6-5.3-0.1-10.8-2.3-16.1l54.7-35.2 26.1 28.8z"/><path class="e" d="m1279.2 665.6l-19.2 12.3-1.6-2.4 19.2-12.4z"/><path class="e" d="m1279.9 674.6l-19.3 12.4-1.6-2.5 19.3-12.4z"/><path fill-rule="evenodd" class="e" d="m1314.7 674.2c-1.9 1.2-4.7 0.9-6.3-0.7-0.9-0.9-1.3-2-1.2-3.1 0.1-1.1 0.7-2.1 1.7-2.8 1.9-1.2 4.7-0.9 6.3 0.7 0.9 0.9 1.3 2 1.2 3.1-0.1 1.1-0.8 2.1-1.7 2.8zm-4.2-4.1c-0.1 0.1-0.3 0.3-0.4 0.6q0 0.3 0.4 0.7c0.6 0.6 1.8 0.8 2.6 0.3 0.1-0.1 0.3-0.3 0.4-0.6q0-0.3-0.4-0.7c-0.6-0.6-1.8-0.8-2.6-0.3z"/><path fill-rule="evenodd" class="e" d="m1303 681.6c-1.9 1.3-4.6 0.9-6.2-0.7-0.9-0.8-1.3-1.9-1.2-3.1 0.1-1.1 0.7-2.1 1.7-2.7 1.9-1.2 4.7-0.9 6.3 0.7 0.9 0.9 1.3 2 1.2 3.1-0.1 1.1-0.8 2.1-1.8 2.7zm-4.1-4c-0.2 0.1-0.4 0.3-0.4 0.5q0 0.4 0.3 0.7c0.7 0.7 1.9 0.8 2.6 0.4 0.2-0.1 0.4-0.3 0.4-0.6q0.1-0.3-0.3-0.7c-0.6-0.6-1.9-0.8-2.6-0.3z"/><path class="e" d="m1352.1 678.1l-97.4 62.7-4.7-9.3c-1.6-3-2.5-6.1-2.9-9.2l91.4-58.8z"/><path class="f" d="m1345.8 672.2l-61.3 39.4-1.6-2.4 61.3-39.4z"/><path class="e" d="m1309.3 705.6l-54.6 35.2-4.7-9.3c-1.6-3-2.5-6.1-2.9-9.2-0.9-6.6 0.8-13.2 5-18.8l1.8-2.5q2.7-3.8 4.3-7.8c17.6-3.1 37 1.3 51.1 12.4z"/><path  d="m1257.7 669.9l-5.3-3.4c-3.8-2.5-4-6.9-0.5-9.2l4.9-3.1c3.8-2.5 9.1-3.1 14-1.7l9.6 2.8z"/><path class="b" d="m1319.2 635.5l-26.9 17.5-45.2 29.4-15.5-17.5 11.4-10.9-75.8-119 6-8.1 35.5-48.4z"/><path class="b" d="m1208.7 478.5l-35.5 48.4-6 8.1-2.2-7.1-33.7-105.8-10-31.5-12.8-40.1 30.6-2.7 25.6-2.3 25.8 77.9v0.1z"/><path class="e" d="m1136.1 701l-51 2.3-8-109.1 50.1-2.7z"/><path  d="m1146.1 742.6h-115.8l1-10.3c0.3-3.4 1.2-6.5 2.6-9.4 2.8-6 7.8-10.6 14.3-13.1l3-1.1q4.3-1.6 7.8-4.2 3-2.3 5.3-5.1c3.5-4.1 5.8-9.1 6.8-14.8h65.1l6.4 38.3z"/><path class="e" d="m1091.6 689.7v2.9h-22.9v-2.9z"/><path class="e" d="m1087.2 697.6v3h-22.8v-3z"/><path fill-rule="evenodd" class="e" d="m1116.7 719c-2.2 0-4.4-1.7-4.9-3.9-0.2-1.2 0-2.4 0.7-3.3 0.7-0.9 1.8-1.4 3-1.4 2.2 0 4.3 1.8 4.9 4 0.2 1.2 0 2.4-0.7 3.3-0.7 0.8-1.8 1.3-3 1.3zm-1.2-5.6c-0.2 0-0.5 0-0.7 0.2q-0.2 0.3-0.1 0.8c0.2 0.9 1.2 1.7 2 1.7 0.2 0 0.5-0.1 0.7-0.3q0.2-0.2 0.1-0.7c-0.2-0.9-1.2-1.7-2-1.7z"/><path fill-rule="evenodd" class="e" d="m1102.9 719c-2.2 0-4.4-1.7-4.9-3.9-0.3-1.2 0-2.4 0.7-3.3 0.7-0.9 1.8-1.4 2.9-1.4 2.3 0 4.4 1.8 4.9 4 0.3 1.2 0.1 2.4-0.6 3.3-0.7 0.8-1.8 1.3-3 1.3zm-1.3-5.6c-0.2 0-0.4 0-0.6 0.2q-0.2 0.3-0.1 0.8c0.2 0.9 1.1 1.7 2 1.7 0.2 0 0.5-0.1 0.7-0.3q0.2-0.2 0.1-0.7c-0.2-0.9-1.2-1.7-2.1-1.7z"/><path class="e" d="m1146.1 742.6h-115.8l1-10.3c0.3-3.4 1.2-6.5 2.6-9.4h108.7z"/><path class="f" d="m1143.9 731.3v2.9h-72.8v-2.9z"/><path class="e" d="m1095.3 742.6h-65.4l1-10.4c0.4-3.4 1.2-6.5 2.6-9.4 2.9-6 7.9-10.7 14.5-13.2l2.9-1.1q4.3-1.7 7.9-4.3c16.5 7 30.5 21.4 36.5 38.4z"/><path  d="m1071.1 684.6l-2.6-5.8c-1.8-4 0.4-7.9 4.6-7.9h5.8c4.5 0 9.3 2.4 12.7 6.2l6.5 7.5z"/><path class="b" d="m1140.4 684.6h-75.9l-4.4-17.3 11-0.9-6.7-140.9-1.6-33.6 61.2 17.4z"/><path class="c" d="m1124 509.3l16.4 175.3h-26.1l-12-152.8-37.9-6.3-1.6-33.6z"/><path class="b" d="m1062.8 492l44.7-146.5h57.2l-40.7 163.8z"/><path class="k" d="m1142.9 247.1c15.8 17.2-40.5 71.2-81.4 91.4-0.1 0-1.2-51.8-1.2-51.8l50.9-60.4c3.1-3.3 7.1-5.3 11.3-5.9 3.9-0.6 8 0.1 11.7 2 8.9 4.7 1.9 17.3 8.7 24.7z"/><path class="h" d="m1030.2 232.6c-12.8-16.2-41.8-18.3-41.8-18.3l2.7 32.5 34.6-2.3z"/><path class="h" d="m1072.7 279.1l-42.5-46.5-13.1 3.9c0 0 1.2 38.9 44.2 102 22.7-10.9 28.5-40.7 11.4-59.4z"/><path class="i" d="m1131.5 227.6h-39.9l-4.5-21.5-2.5-22.4-1.1-8.9 35.3-42.4z"/><path class="l" d="m1161.4 387.2l-60.3-20.6-5.6-50.2c0 0-13.3-21.7-14.6-39.5-1-14 1.6-32.2 9.1-57l38.3-17.7c82.5 45.4 33.1 185 33.1 185z"/><path class="k" d="m1111.4 216.5c-4.5 34.7 28.5 66.4 28.5 66.4l24.8 62.6-39.5 20.2c0 0-36-101.9-13.8-149.2z"/><path class="b" d="m1190.5 423.5l-59.2-1.4-9.7-0.2-38.5-0.9 16.3-69.9 40.2-4.5 32.1-3.6 18.8 80.4z"/><path class="b" d="m1143 357.5l-43.6-6.4c0 0-2.9-7.3-6.5-18.4-5.1-15.3-11.5-38-13.8-58.8-0.5-5.2-0.8-10.3-0.8-15.1l28.6-7.7c0 0 8.6 69.1 36.1 106.4z"/><path class="c" d="m1106.6 312.6l-13.7 20.1c-5.1-15.3-11.5-38-13.8-58.8l18.1-2.5z"/><path class="b" d="m1106.9 251.2c-1.5-26.5 12.6-43.6 24.6-47.1l-3.2-1.9c0 0-37.8 6.6-30.2 54.2z"/><path class="h" d="m1111.7 183.1c0 0-5.7 19.6-24.6 23l-2.5-22.4z"/><path class="i" d="m1120.1 184.7l-34.8 19.4c-8.7 4.9-19.7-0.2-21.4-10.1-2.5-13.3-4.1-31.4 0.4-46.4 2.7-8.9 8.2-16.3 15.4-21.3 3.2-2.3 6.8-4.1 10.6-5.4l2.2-0.7h0.2q1.6-0.5 3.3-0.7 4-0.8 8.1-0.7c2.6 0.1 5.1 0.6 7.4 1.5 9.8 3.6 16.2 13.7 14.6 24.8l-1.4 9.4z"/><path  d="m1077.7 127.8c20.6-23.6 54.7-12.9 65-2.1 17.4 18.4 3.5 48-16.2 64.4l-16.5-53.5z"/><path class="i" d="m1063.2 151.8c-2 7.4-7 9.5-10.4 10-2.1 0.3-3.7 2.2-3.6 4.4 0.1 2.9 1.9 5.4 4.6 6.5l9.5 3.7c5.3 1 10.2-2.6 10.8-7.9l1.8-17.9z"/><path  d="m1121.9 156.9c0 0-28.1 3.1-34.3-20.9l12.9-10.4c12.8-1.3 24.6 7 27.6 19.5l1.7 7.3z"/><path class="i" d="m1110.4 160.9c36.9-27.3 41.3 21.5 1.5 18.6z"/><path  d="m1108.2 143.8l-1.7 24.3 4.4-0.6 6.5-15.4z"/><path  d="m1074.5 147c7.5 1 8.4-2.9 2.8-4.5-5.9-1.8-12 3.2-2.8 4.5z"/><path  d="m1070.1 161.2c-0.9 3.4-0.3 6.5 1.2 6.9 1.6 0.4 3.6-2 4.4-5.5 0.9-3.4 0.3-6.4-1.3-6.8-1.5-0.4-3.5 2-4.3 5.4z"/><path class="e" d="m1083.6 182.7c-2.1 7.2-9.9 4.6-10.8 0.5-0.9-4 13.1-8.5 10.8-0.5z"/><path class="l" d="m1078.9 488l19.5-1.2-4.4-73.1c-0.1-3-2.7-5.2-5.7-5.1l-8.7 0.6c-3 0.1-5.3 2.7-5.1 5.7z"/><path class="k" d="m1087.1 487.5l11.3-0.7-4.4-74.2c-0.2-2.4-2.2-4.2-4.5-4l-2.9 0.1c-2.3 0.2-4.1 2.2-4 4.6z"/><path class="l" d="m1121.3 483.9l19.2 4 14.9-71.6c0.6-2.9-1.2-5.8-4.2-6.4l-8.5-1.8c-3-0.6-5.8 1.3-6.4 4.2z"/><path class="k" d="m1129.4 485.6l11.1 2.3 15.2-72.7c0.4-2.3-1-4.6-3.4-5.1l-2.7-0.6c-2.3-0.4-4.6 1-5.1 3.3z"/><path class="l" d="m1104.5 471.5l19.4-2.5-9.3-72.6c-0.4-2.9-3.1-5-6.1-4.6l-8.7 1.1c-2.9 0.4-5 3.1-4.7 6z"/><path class="k" d="m1112.6 470.5l11.3-1.5-9.5-73.7c-0.3-2.3-2.4-4-4.8-3.7l-2.8 0.4c-2.3 0.3-4 2.4-3.7 4.8z"/><path class="g" d="m1069.4 407.8v44.6h-9.9v-44.6z"/><path class="j" d="m1060.6 407.8v44.6h-9.8v-44.6z"/><path class="m" d="m1176.8 417.9v11.3h-112.2v-11.3z"/><path class="n" d="m1176.8 424.8v4.4h-112.2v-4.4z"/><path class="g" d="m1179.7 407.8v44.6h-10.1v-44.6z"/><path class="j" d="m1170.7 407.8v44.6h-10.1v-44.6z"/><path class="c" d="m1319.2 635.5l-26.9 17.5c-35-53.4-83.6-130.2-83.6-130.2l-35.5 4.1-8.2 1-33.7-105.8-9.7-0.2-5.4-19 5.1-12.3 17.8-42.8 0.5-1.2 32.1-3.6 18.8 80.4v0.1l18.2 55z"/><path class="g" d="m1183.4 509.3h-134.5c-6.8 0-12.4-5.5-12.4-12.4v-52.7h159.4v52.7c0 6.9-5.6 12.4-12.5 12.4z"/><path class="j" d="m1148 509.3h-99.1c-6.8 0-12.4-5.5-12.4-12.4v-52.7h123.9v52.7c0 6.9-5.6 12.4-12.4 12.4z"/><path class="n" d="m1202.7 444.2v11.6h-173v-11.6z"/><path class="m" d="m1164.2 444.2v11.6h-134.5v-11.6z"/><path class="i" d="m1106.9 392.6c-12.8 16.7-14.6 41.3-14.6 41.3l38.3-6.3-10.8-33.5z"/><path class="i" d="m1119.5 405l13.7 25.3-32.3 11.1-8.6-7.5z"/><path class="l" d="m1150.6 222.3c30.4 25.5 35.8 70.5 30.3 114.2 0 0-38 2-38 2l-26-101.7c-1-4.2-0.4-8.5 1.3-12.3 1.6-3.4 4.3-6.4 7.9-8.3 8.4-4.7 17-0.1 24.5 6.1z"/><path class="i" d="m1127.8 348.2l-20.9 44.4 9.3 10.4c0 0 35.3-16.5 64.9-66.4-17.3-14.6-43.6-8.8-53.3 11.6z"/><path class="c" d="m1005.7 105.8v242.3h-109.5v-242.3z"/><path class="b" d="m996 105.8v242.3h-99.8v-242.3z"/><path class="m" d="m936.5 176.6l-16.9 52 28.9-5.9-11.5 51.3 40.2-66-36.7 2.4 24.1-33.8z"/><path class="b" d="m840.8 105.8v242.3h-79.8v-242.3z"/><path class="c" d="m896.2 105.8v242.3h-55.4v-242.3z"/><path  d="m879.7 125.5v202.9h-22.4v-202.9z"/><path class="h" d="m1029.7 233l-16.8-29.2-20-8.1c-1.8-0.7-3.9 0.4-4.4 2.3-0.4 1.5 0.3 3 1.7 3.7l8.7 4.5 7.2 22.2z"/><path class="c" d="m493.3 522.8l-3.7 41-1.7 19.1-4.9 53.9h-90.2l-11.5-114z"/><path class="o" d="m493.3 522.8l-3.7 41-1.7 19.1-4.9 53.9h-27.4c-21.6 0-40.2-15-44.7-36.1l-16.5-77.9z"/><path class="m" d="m489.6 563.8l-1.7 19.1c-7.2 3.5-18 5.8-30.2 5.8-21.5 0-39-7.1-39-15.8 0-8.7 17.5-15.8 39-15.8 13.2 0 24.8 2.6 31.9 6.7z"/><path class="p" d="m478.9 522.8c0 26.8-18.6 48.5-41.6 48.5-23 0-41.6-21.7-41.6-48.5"/><path class="e" d="m437.3 533.5c-31 0-56-4.8-56-10.7 0-6 25-10.8 56-10.8 31 0 56 4.8 56 10.8 0 5.9-25 10.7-56 10.7z"/><path class="c" d="m493.3 522.8c0 2-2.7 3.8-7.5 5.4-9.7 3.2-27.8 5.3-48.5 5.3-20.7 0-38.8-2.1-48.5-5.3-4.8-1.6-7.5-3.4-7.5-5.4 0-5.9 25.1-10.8 56-10.8 30.9 0 56 4.9 56 10.8z"/><path class="m" d="m485.8 528.2c-9.7 3.2-27.8 5.3-48.5 5.3-20.7 0-38.8-2.1-48.5-5.3 9.7-3.2 27.8-5.4 48.5-5.4 20.7 0 38.8 2.2 48.5 5.4z"/><path class="j" d="m394.9 601.1h-71.6l4.7 25.4c1.1 6 6.3 10.3 12.4 10.3h37.4c6.1 0 11.4-4.3 12.5-10.3z"/><path class="g" d="m364.6 601.1h-41.3l4.7 25.4c1.1 6 6.3 10.3 12.4 10.3h7c6.2 0 11.4-4.3 12.5-10.3z"/><path class="j" d="m355.3 601.1h-77l12 25.2h53.1z"/><path class="j" d="m297.8 601.1h-110.4l4.6 25.4c1.1 6 6.4 10.3 12.5 10.3h76.2c6.1 0 11.3-4.3 12.4-10.3z"/><path class="g" d="m259 601.1h-71.6l4.6 25.4c1.1 6 6.4 10.3 12.5 10.3h37.4c6.1 0 11.3-4.3 12.4-10.3z"/><path class="m" d="m557 178.4v215.1h-127.4v-215.1z"/><path class="m" d="m429.6 418.7h127.4v-33.6l-127.4 13.9z"/><path class="m" d="m429.6 418.7l127.4 27v-18.6l-127.4-18.6z"/><path class="m" d="m429.6 440.7l127.4 13.4v-18.5l-127.4-5.1z"/><path class="m" d="m429.6 170.7l127.4 13.4v-18.5l-127.4-15.5z"/><path class="m" d="m429.6 115.5l127.4 30.2v-32.9l-127.4-32.1z"/><path class="m" d="m429.6 170.7l127.4-20.6v-20.6l-127.4 20.6z"/><path class="e" d="m76.1 644l36 25.6 35.7-42.5-35.3-64.9z"/><path  d="m49.3 669.7l84.4 54.3 4.1-8c1.3-2.6 2.1-5.3 2.5-8 0.7-5.7-0.8-11.5-4.3-16.3l-1.7-2.2q-2.3-3.2-3.7-6.7-1.1-3.1-1.5-6.3c-0.6-4.5 0.1-9.3 2-13.9l-47.4-30.5-22.6 24.9z"/><path class="e" d="m112.4 658.8l16.7 10.8 1.4-2.2-16.7-10.7z"/><path class="e" d="m111.9 666.7l16.6 10.7 1.4-2.1-16.7-10.8z"/><path fill-rule="evenodd" class="e" d="m80.2 663.9c-0.1-0.9 0.3-1.9 1-2.7 1.5-1.3 3.8-1.6 5.5-0.6 0.8 0.6 1.4 1.5 1.5 2.4 0.1 1-0.3 2-1.1 2.7-1.4 1.4-3.8 1.7-5.4 0.6-0.8-0.6-1.4-1.4-1.5-2.4zm2.8-0.8q-0.3 0.3-0.3 0.6c0.1 0.2 0.2 0.4 0.4 0.5 0.6 0.4 1.7 0.2 2.3-0.3q0.3-0.3 0.2-0.6c0-0.3-0.2-0.4-0.3-0.5-0.6-0.4-1.7-0.3-2.3 0.3z"/><path fill-rule="evenodd" class="e" d="m90.3 670.4c-0.1-1 0.2-1.9 1-2.7 1.4-1.4 3.8-1.6 5.4-0.6 0.9 0.6 1.4 1.4 1.5 2.4 0.1 1-0.2 1.9-1 2.7-1.4 1.4-3.8 1.6-5.4 0.6-0.9-0.6-1.4-1.4-1.5-2.4zm2.8-0.9q-0.3 0.3-0.3 0.7c0 0.2 0.2 0.3 0.4 0.4 0.6 0.4 1.7 0.3 2.2-0.2q0.3-0.4 0.3-0.7c0-0.2-0.2-0.3-0.3-0.4-0.7-0.4-1.7-0.3-2.3 0.2z"/><path class="e" d="m49.3 669.7l84.4 54.3 4.1-8c1.3-2.6 2.1-5.3 2.5-8l-79.2-51z"/><path class="f" d="m54.8 664.6l53 34.2 1.4-2.2-53-34.1z"/><path class="e" d="m86.3 693.5l47.4 30.5 4.1-8c1.3-2.6 2.1-5.3 2.5-8 0.7-5.7-0.8-11.5-4.3-16.3l-1.7-2.2q-2.3-3.2-3.7-6.7c-15.2-2.7-32.1 1.1-44.3 10.7z"/><path  d="m131.1 662.6l4.6-3c3.2-2.1 3.4-5.9 0.4-7.9l-4.2-2.7c-3.4-2.1-8-2.7-12.2-1.5l-8.3 2.5z"/><path class="m" d="m280.7 401.8l-94.5-0.1 13.3-40.4 4.7-11.3 2.5-5.9 1.5-3.6 41.2-14.4 2.2 5.3 2.9 7.1 5.4 13.1z"/><path class="q" d="m376 267.7l58.4-46.7-8.5-42.7 57.3-49.6"/><path class="h" d="m236.6 280c7.8 34.1 40.8 56.3 77.2 69.5 0 0-3.9-43.8-3.9-43.8l-48.5-46.2c-2.9-2.4-6.5-3.7-10.2-3.9-3.3-0.1-6.7 0.8-9.6 2.8-7.1 4.8-6.9 13.3-5 21.6z"/><path class="h" d="m342.4 283.9c4.7-16.9 26.7-28 26.7-28l8.6 26.3-27.9 9.6z"/><path class="h" d="m357 286.1l23.7-3.4 6.2-23.1-17.8-3.7z"/><path class="h" d="m279.2 322.5l67.7-43.3 10 5.8c0 0-7.3 31.7-43.1 64.5z"/><path class="i" d="m268.1 285.8l-16.5 45.6-2.8 7.7-5.9 16.2-11.4 31.2c-6.8-3.5-13.8-8.4-20.7-14.4q-1.7-1.5-3.4-3-3.9-3.7-7.9-7.8c-10.8-11.4-21-24.9-29.5-39.1-0.3-0.5-0.6-1.1-1-1.6-7.4-12.7-14.2-25.1-10.2-36.1 3.1-8.5 12.6-16.2 33.2-22.5q0.9-0.3 1.8-0.6l36.8-9.5 18.2 2.3q1.4 0.2 2.6 0.5c13.6 3.2 21.6 17.7 16.7 31.1z"/><path class="m" d="m260.5 327.8l30.6-44.4c0 0-34.8-42.3-57.3-25.5-22.5 16.9 10.7 61.8 26.7 69.9z"/><path class="m" d="m268.1 285.8l-16.5 45.6-2.8 7.7-5.9 16.2-11.4 31.2c-6.8-3.5-13.8-8.4-20.7-14.4q-1.7-1.5-3.4-3-3.9-3.7-7.9-7.8c-10.8-11.4-21-24.9-29.5-39.1-0.3-0.5-0.6-1.1-1-1.6-7.4-12.7-14.2-25.1-10.2-36.1 3.1-8.5 2.7-15.2 33.2-22.5 0.6-0.2 1.2-0.4 1.8-0.6l36.8-9.5 18.2 2.3q1.4 0.2 2.6 0.5c13.6 3.2 21.6 17.7 16.7 31.1z"/><path class="b" d="m244.6 251.9c15.3 4 26.3 25 18.3 48.3h-7.5c0 0 8.8-45.1-28.6-47.5z"/><path class="b" d="m335.8 508.4l-0.1 0.1-34.5 16.6-18.2 8.7-1-1.8-59.2-104.4c0 0 0.7-1.8 1.6-4.5 2.1-6 5.7-16.5 7.2-22.7q0.1-0.7 0.3-1.4l34.5 2 3.5 0.2 10.8 0.6z"/><path class="e" d="m272.2 689.5l44.2 2 7-94.5-43.4-2.3z"/><path  d="m263.6 725.6h100.4l-0.9-9c-0.3-2.9-1.1-5.6-2.2-8.1-2.5-5.2-6.8-9.2-12.5-11.3l-2.5-1q-3.8-1.4-6.8-3.7-2.6-1.9-4.7-4.4c-2.9-3.5-4.9-7.8-5.8-12.8h-56.4l-5.5 33.2z"/><path class="e" d="m330.7 679.7v2.6h-19.9v-2.6z"/><path class="e" d="m334.4 686.6v2.6h-19.8v-2.6z"/><path fill-rule="evenodd" class="e" d="m286.5 704c-0.6-0.8-0.8-1.8-0.6-2.8 0.5-2 2.3-3.5 4.3-3.5 1 0 1.9 0.5 2.5 1.2 0.6 0.8 0.8 1.8 0.6 2.8-0.4 2-2.3 3.5-4.2 3.5-1.1 0-2-0.5-2.6-1.2zm1.9-2.3q-0.1 0.5 0.1 0.7c0.1 0.2 0.4 0.2 0.6 0.2 0.7 0 1.5-0.7 1.7-1.4q0.1-0.5-0.1-0.7c-0.1-0.2-0.4-0.2-0.5-0.2-0.8 0-1.6 0.7-1.8 1.4z"/><path fill-rule="evenodd" class="e" d="m298.5 704c-0.6-0.8-0.8-1.8-0.6-2.8 0.4-2 2.3-3.5 4.2-3.5 1.1 0 2 0.5 2.6 1.2 0.6 0.8 0.8 1.8 0.6 2.8-0.5 2-2.3 3.5-4.3 3.5-1 0-1.9-0.5-2.5-1.2zm1.9-2.3q-0.1 0.5 0.1 0.7c0.1 0.2 0.3 0.2 0.5 0.2 0.8 0 1.6-0.7 1.8-1.4q0.1-0.5-0.1-0.7c-0.2-0.2-0.4-0.2-0.6-0.2-0.7 0-1.6 0.7-1.7 1.4z"/><path class="e" d="m263.6 725.6h100.4l-0.9-9c-0.3-2.9-1.1-5.6-2.2-8.1h-94.2z"/><path class="f" d="m328.6 715.8v2.5h-63.1v-2.5z"/><path class="e" d="m307.7 725.6h56.6l-0.9-9c-0.3-3-1.1-5.7-2.2-8.2-2.5-5.2-6.9-9.2-12.6-11.4l-2.5-1q-3.8-1.4-6.8-3.6c-14.3 6-26.5 18.4-31.6 33.2z"/><path  d="m328.6 675.3l2.2-4.9c1.6-3.6-0.3-6.9-3.9-6.9h-5c-4 0-8.1 2-11.1 5.4l-5.6 6.4z"/><path class="b" d="m338.2 660.4l-3.9 14.9h-65.7l13.4-143.3 0.8-8.6 17.6-5 35.3-9.9 0.1-0.1-7.2 151.2z"/><path class="c" d="m301.6 520.2l-0.4 4.9-12.3 150.2h-20.3l13.4-143.3-59.2-104.4c0 0 0.7-1.8 1.6-4.5l10.3-6.7 65.7 102z"/><path class="b" d="m246.2 399.2l-36.8 146.5-53.1-18.7v-0.1c0 0 0 0 0-0.1l24.4-106.5 1.6-6.9 2-8.9 12.6-1.1q0 0 0 0l19-1.6z"/><path class="n" d="m259.9 351.6l-17 3.7-30.3 6.5-1.8 10.3-4.3 24.2-18.4 4.4 11.4-39.4c-10.8-11.4-21-24.9-29.5-39.1l11-20.8 24.5 42.8 1.2-0.1 42.1-5 5.7-0.6z"/><path class="b" d="m212.9 408.1l-11.8 24.8-44.8 94c0 0 0 0 0-0.1 0.4-3.4 9.4-82.1 20.7-116.1 1-3.1 2-5.9 3.1-8.1 5.3-0.8 11.1-0.3 16.8 0.8q0 0 0 0c5.7 1.1 11.2 2.8 16 4.7z"/><path class="b" d="m280.7 401.8c-7.2 12.5-79.6 31.1-100.6 0.8l10.3-23.5 20.6-4.1 54.2-10.6z"/><path class="b" d="m264.3 367.5c0 0 9.3-18.3 10.5-38.3 0.4-7.6-6-34.7-6-34.7l-62 2c0 0 4.6 17.8 4.6 34.5 0 21.2-14.9 53.8-14.9 53.8z"/><path class="c" d="m226.2 319.2l42.4-3.1-3 33.4-19.4 14.9-23.4-14.9z"/><path class="r" d="m247.7 187.9c-15.2-24.8-55.7-18.1-64.7 6.1-11.4 30.7 23 71.3 56.6 33.4z"/><path class="i" d="m203.4 212.6l-3.2 50.1 32.8 13.2 5.7-54.6z"/><path class="h" d="m235.3 252.7c0 0-14.3-4.7-16.5-20.6l18 7.6z"/><path class="i" d="m202.9 195l4.1 11.9 1.9 5.4 5.1 14.6c2.7 7.9 9.3 13.8 17.5 15.6l12.6 2.8c11 2.5 21.3-5.9 21.3-17.1 0-8.3-0.8-17.8-4.8-27.7-4.6-11.4-14.9-19.8-26.4-22.5h-0.1l-2-0.4-0.2-0.1q-1.5-0.2-3.1-0.4-3.6-0.3-7.4 0.2l-8 0.9c-8 0.9-13.2 9.1-10.5 16.8z"/><path class="i" d="m261.9 204c2.5 6.7 7 8.2 10.1 8.3 2 0.1 3.6 1.7 3.7 3.7 0.1 2.7-1.3 5.2-3.7 6.4l-8.4 4.2c-4.7 1.4-9.6-1.6-10.5-6.4l-3.2-16.2z"/><path class="r" d="m212.9 216.1c22.4-6.3 18.1-40.3 18.1-40.3l-14 1.2c-16.1 1.4-25.6 18.7-18.3 33.1l0.9 1.7z"/><path class="r" d="m201.7 189.9c21.9-2.7 18.9-46.6-8.7-44.4-27.5 2.2-29.4 49.2 8.7 44.4z"/><path class="i" d="m215.9 216.7c-31.4-28.3-39.7 16.1-2.9 16.9z"/><path class="r" d="m253 206.9c1.3 3.2 1.2 6.3-0.3 6.8-1.4 0.6-3.7-1.5-5-4.7-1.3-3.2-1.1-6.2 0.3-6.8 1.5-0.6 3.7 1.5 5 4.7z"/><path class="r" d="m243.7 192.2c-6.8 2.9-8.7-0.5-3.9-3.6 5.2-3.2 12.3-0.1 3.9 3.6z"/><path class="e" d="m241.2 224.7c3 11.5 14.9 7.9 17.4 2.1 1.5-3.5-18.3-6-17.4-2.1z"/><path class="s" d="m365.4 277l-209.8 183"/><path class="i" d="m193.2 307.9c-7.1 22.7-18.5 49.7-33.6 80.7 0 0-19.1-39.6-19.1-39.6l18.1-64.5c1.2-3.6 3.6-6.6 6.7-8.5 2.8-1.8 6.2-2.8 9.7-2.6 1.8 0.1 3.8 0.9 5.9 2.1 11.2 6.5 16.1 20.1 12.3 32.4z"/><path class="i" d="m208.4 384.8c16.5 6 28.9 22.4 28.9 22.4l-29.8 12.9-7.5-28.5z"/><path class="i" d="m205.1 399.2l1.8 23.9 27.8-6.7 2.6-9.2z"/><path class="i" d="m143.9 336.9l64.5 47.9-1.9 11.5c0 0-32.2 4.4-75.6-17.4z"/><path class="n" d="m533.1 163.8l-100.5-36.3c-5.3-1.9-8-7.7-6.1-13l2.3-6.3c1.9-5.3 7.7-8 13-6.1l100.5 36.3c5.3 1.9 8 7.7 6.1 13l-2.3 6.3c-1.9 5.3-7.7 8.1-13 6.1z"/><path class="e" d="m533.1 163.8l-6.3-2.2c-5.3-2-8.1-7.8-6.1-13.1l2.2-6.3c1.9-5.3 7.8-8 13.1-6.1l6.3 2.3c5.3 1.9 8 7.7 6.1 13l-2.3 6.3c-1.9 5.3-7.7 8.1-13 6.1z"/><path class="r" d="m525.6 161.4l-85.4-30.8c-9.8-3.6-14.9-14.5-7.4-22.9l85.4 30.9c-7.6 8.3-2.5 19.2 7.4 22.8z"/><path class="b" d="m209.4 545.7l-65.6 103.1 9.8 9.5-13.3 15.1-62.5-40.6 95.7-136z"/><path class="b" d="m190.3 261.4c18.6 2.7 31 14.5 30.9 42.9h-10c0 0-0.7-35.8-34.2-37.9z"/><path class="m" d="m148.9 311.2l41.5 17.7c0 0 17.2-39.4-5.8-55.5-23-16.2-33 20-35.7 37.8z"/></svg>