<svg version="1.2" xmlns="http://www.w3.org/2000/svg" viewBox="0 0 3071 1546" width="3071" height="1546"><style>.a{fill:#312725}.b{fill:#ffad7b}.c{fill:#201f24}.d{fill:#1c3070}.e{fill:#d8d8d8}.f{fill:#efefef}.g{fill:#ffae7b}.h{fill:#dd946c}.i{fill:#ffd03a}.j{fill:#ccc0b8}.k{fill:#ff8a33}.l{fill:#fff}.m{fill:#bc932b}.n{fill:#e5b735}.o{fill:#666}.p{fill:#939393}.q{fill:#966a3b}.r{fill:#a87742}.s{fill:#d18e69}.t{fill:#bf8949}.u{fill:#162751}</style><path class="a" d="m442.4 141.1c0 0 2.3 48.2-13 58.7-15.4 10.5-16.9-69.9-16.9-69.9z"/><path class="b" d="m669.7 432.9c0 0 85-61.2 68.8-91.5-16.2-30.3-66.8 14.2-66.8 14.2 0 0 9.7-18.3-5.1-20-14.8-1.7-39.6 71.5-39.6 71.5z"/><path class="c" d="m275.8 1478.6c0 0-17.4 51.7-7.9 60.5 9.7 9 87.1 7.1 90.5 0.4 3.3-6.7-26.6-63.2-26.6-63.2z"/><path class="c" d="m449.3 1451.5c0 0-10.7 71.3-5.9 76.3 4.8 5 142.3 18 148.2 14.7 5.9-3.3 10.4-33.4-25.4-41.8-14.7-3.5-27.9-11.2-38.4-19.2-15.1-11.4-24.6-23.2-24.6-23.2z"/><path class="d" d="m385.3 718.2c-3-41.3-38.9-72.3-80.2-69.3-41.3 3-72.3 38.9-69.3 80.2l12.4 411.9q-0.1 2.2 0.1 4.4c2.1 28.9 27.2 50.6 56.1 48.5 28.8-2.1 50.5-27.2 48.4-56.1l30.8-397.1c1.6-7.2 2.3-14.7 1.7-22.5z"/><path class="d" d="m352.8 1137.8q0.4 5-0.2 9.7l-6.4 331.5-84.8 3.3-13-336q-0.1-0.4-0.1-0.9-0.2-2.2-0.1-4.4c0.3-27 21.2-49.7 48.6-51.6 28.8-2.1 53.9 19.6 56 48.4z"/><path class="d" d="m510.5 700c-11.7-39.7-53.3-62.4-93-50.8-39.8 11.7-62.5 53.4-50.8 93.1l99.4 399.9q0.5 2.2 1.1 4.3c8.2 27.8 37.3 43.7 65.1 35.5 27.7-8.2 43.6-37.3 35.5-65.1l-54.2-394.6c0.1-7.4-0.9-14.9-3.1-22.3z"/><path class="d" d="m567.7 1142.5l-41.4 329q0 0.1 0 0.1-0.1-0.1-0.1-0.1l-84.4-5.5h-0.1q0-0.1 0-0.1l22.4-335.6q0-0.4 0-0.8 0.1-1 0.1-2 0.1-1.2 0.3-2.5c3.1-26.7 26.3-47.1 53.7-46.2 28.9 1 51.6 25.2 50.7 54.1q-0.2 5-1.2 9.6z"/><path class="e" d="m683.4 426.9c0 0-90.8 161.6-124.2 191.1-33.4 29.5-79.7-14.8-41.7-77.8 37.9-62.9 110-151 110-151 0 0 48.5 29.8 55.9 37.7z"/><path class="e" d="m459.3 316.4c0 0-44.8 55.7-16.5 145.9 28.2 90.2 53.6 164.1 90 165.2 36.3 1.1 48.4-30.7 22-112.7-26.5-81.9-55.1-204.7-95.5-198.4z"/><path class="f" d="m364 749.5c-57.4-1.3-115.9-23.2-127-44.8 0 0 1.2-292.8-4.6-337.9-5.8-45.1-9.4-50.7 8.3-57.7 8.1-3.1 23.3-7.1 40.5-11 29-6.5 63.6-12.7 78.7-13.6 11-0.8 33.5 4.5 55.4 11.2 26 8 51.1 17.9 55.2 22.2 8.5 9 40.8 369.8 42.6 387.7 1 10.1-74.9 45.6-149.1 43.9z"/><path class="g" d="m385.7 240.2v60.6c0 7.4-4.3 14.1-11.1 18.7-5.8 3.9-13.3 6.2-21.6 6.2-6.8 0-13.1-1.5-18.3-4.2-8.7-4.5-14.5-12.1-14.5-20.7v-60.6c0-6.5 3.3-12.5 8.7-16.9 6-5 14.5-8.1 24.1-8.1 3.9 0 7.7 0.6 11.2 1.5 3.5 1 6.8 2.5 9.6 4.2 7.3 4.6 11.9 11.5 11.9 19.3z"/><path class="h" d="m385.7 265v34.9c-33.6 4.7-55.1-10.8-65.5-21.5v-18.1l17.6-21.3c0 0 27.5 12.4 47.9 26z"/><path class="g" d="m364.9 279.9c-42.7 0-77.4-34.6-77.4-77.4v-109.6h144.1v120.2c0 20.9-9.5 39.5-24.5 51.7-11.5 9.4-26.2 15.1-42.2 15.1z"/><path class="a" d="m288.4 208.9c0 0 40.1 13.4 15.8-71-17.9-62.1-78.2-37-15.8 71z"/><path class="e" d="m237.3 310.4c0 0 38.8 60.4 10.6 150.6-28.3 90.2-53.7 164-90 165.2-36.4 1.1-48.5-30.8-22-112.7 26.4-81.9 60.6-196.7 101.4-203.1z"/><path class="a" d="m276.7 120.6c0 0 69.9 61.1 165.7 20.7 0 0 23.2-52.8-36.1-54.1-59.3-1.3-127.8-24.1-129.6 33.4z"/><path class="i" d="m297.2 155.9c0 0 11.7 14.5 63.6 14.1 52-0.4 107.2-10.3 107.7-27 0.5-16.8-47-22-47-22z"/><path class="j" d="m290.3 157.7c0 0-14.4 28.6-28.6 34.7 0 0-8.4-23.1-7.5-35.1 0.8-11.9 36.5-0.1 36.5-0.1z"/><path class="g" d="m302.9 190.2c6.1 13.3 2.2 28.1-8.7 33.1-11 5.1-24.8-1.7-30.9-14.9-6.1-13.3-2.1-28.2 8.8-33.2 10.9-5 24.7 1.7 30.8 15z"/><path class="i" d="m459 140.6l-48.7 5.5-30.5 3.5h-0.1l-16.5 1.9-113.7 12.9c-5.9-51.5 15.9-98.6 51.7-121.5q3.8-2.4 7.8-4.4 2.5-1.3 5.1-2.4c8.2-3.6 16.9-6 26.1-7.1 8.8-1 17.5-0.6 25.9 0.8 47.1 8.3 86.3 53 92.9 110.8z"/><path class="k" d="m396.3 649.7q0 0.2-0.1 0.3v0.4c-2.6 70.1-12.3 129.6-12.3 129.6 0 0-112.9 11.9-171.7-3.9l9.4-112 3.3-39.8 3-35.2 3.4-41 2.8-33.4c0 0 87.5-91.4 11.9-208.7 0 0 36.9-22.4 58.4-15.4 0 0 10.6 32.5 28.1 67.1 21.2 41.9 50.2 88.5 54.1 102.9 1 4.1 4.5 32 7 69.9 0.9 12 1.6 25.1 2.2 38.7 0.5 13.6 0.9 27.6 1 41.8 0.1 12.9-0.1 26-0.5 38.7z"/><path class="k" d="m527.7 760.8c-32.1 23.7-116.7 18.9-116.7 18.9 0 0-10.6-89.8-14.8-129.7q0 0 0 0 0-0.1 0-0.3c-1-10.3-1.7-17.6-1.7-19.5 0-1.7-0.3-8.9-0.8-19.2-0.5-11.1-1.2-25.9-2-41.9-0.6-12.5-1.2-25.9-1.9-38.7-1.7-35.2-3.2-66.8-3.2-69.8 0-3.1 13.4-36.4 20.6-74.6 8.1-42.9 2.8-92.6 2.8-92.6 4-11.9 60.5 13 64.4 22.7 2.1 5 15.3 118.3 27.7 226.9 1.6 13.8 3.1 27.4 4.6 40.8 1.4 12.4 2.8 24.6 4.1 36.3 1.6 14 3.1 27.4 4.5 39.8 5.5 48.8 12.4 100.9 12.4 100.9z"/><path class="i" d="m506.7 583.8c-39.2-9.6-77.1-13.6-110.9-14.6q-2.1 0-4.1-0.1c-29.5-0.6-55.9 1.1-77.1 3.4-51.3 5.6-84 15.9-84.3 16q-1.2 0.3-2.4 0.6l3.4-41c15.1-3.9 42.8-10.1 79.1-14 26.5-2.9 53.1-4.2 79.4-3.7q1.9 0 3.8 0.1 6.6 0.1 13.2 0.4c32.6 1.4 64.5 5.5 95.3 12.1 1.6 13.8 3.1 27.4 4.6 40.8z"/><path class="i" d="m515.3 659.9c-42.1-6.7-82.3-9.6-119-10.2h-0.1c-42.6-0.6-80.6 1.9-111.5 5.2-23.9 2.6-45.1 5.9-63.1 9.2l3.3-39.8c16.5-2.9 35.1-5.6 55.6-7.8 37.7-4.1 75.7-6 113.2-5.5q1.6 0 3.1 0 13.3 0.2 26.4 0.8c29.6 1.3 58.9 4.1 87.6 8.3 1.6 14 3.1 27.4 4.5 39.8z"/><path class="a" d="m378.2 253.3c-5.9 0-11.4-1.9-15.9-5.1-7-5-11.5-13.1-11.5-22.3h54.4v0.4c0 14.9-12.1 27-27 27z"/><path class="l" d="m392.3 234.2h-28.8c-1.4 0-2.6-0.6-3.6-1.5-0.9-0.9-1.5-2.2-1.5-3.6v-3.5h40.1v2.4c0 1.6-0.6 3.1-1.6 4.2-1.1 1.2-2.7 2-4.6 2z"/><path class="h" d="m294.4 194.1c3.5 7.6 1.3 16-5 18.9-6.2 2.8-14.1-1-17.5-8.6-3.5-7.5-1.3-16 4.9-18.8 6.3-2.9 14.1 0.9 17.6 8.5z"/><path class="m" d="m379.8 149.6q0 0.1 0 0.1 0-0.1-0.1-0.1c-35.2-80.6-69.4-102.2-78.5-106.7q3.8-2.4 7.8-4.4 2.5-1.3 5.1-2.4c19.4 6.6 44 16 55.7 23.8 20.5 13.4 10.4 87 10 89.7z"/><path class="n" d="m425.4 143.6l-45.8 6.1c-16.8-82.5-66-108.5-70.6-111.2q-0.4-0.3-0.4-0.3c18.6-27.8 53.9-10.2 53.9-10.2q1.9 0.9 3.6 1.8c41.1 22.6 59.1 98.6 59.3 113.8z"/><path class="o" d="m788.5 502.8l-142.5-170.9 12.5-10.5 142.6 170.9z"/><path class="o" d="m696.7 580.3l-142.6-170.9 12.6-10.5 142.6 170.9z"/><path class="o" d="m597.3 661.5l-142.6-170.9 12.6-10.5 142.6 170.9z"/><path class="o" d="m493 752.9l-142.6-170.9 12.6-10.5 142.6 170.9z"/><path class="o" d="m388.4 837.5l-142.5-170.9 12.5-10.5 142.6 170.9z"/><path class="o" d="m277 927.8l-142.5-170.9 12.5-10.5 142.6 170.9z"/><path class="p" d="m151.8 1042c-1.8-2.2-2.7-4.9-2.7-7.6 0.1-3.3 1.5-6.5 4.2-8.7l738.2-615.9c4.9-4.1 12.2-3.4 16.3 1.5 4.1 4.9 3.5 12.2-1.5 16.3l-738.1 615.9c-4.9 4.1-12.3 3.4-16.4-1.5z"/><path class="p" d="m3.6 864.3c-1.9-2.2-2.8-4.9-2.7-7.6 0-3.3 1.4-6.5 4.1-8.8l738.2-615.8c4.9-4.1 12.2-3.5 16.3 1.5 4.1 4.9 3.5 12.2-1.4 16.3l-738.2 615.9c-4.9 4.1-12.2 3.4-16.3-1.5z"/><path class="b" d="m299.9 751.1c0 0 49.6 92.3 81.7 80.2 32.1-12.1-5.4-68.1-5.4-68.1 0 0 16.9 12.1 20.6-2.4 3.6-14.5-65.8-48.7-65.8-48.7z"/><path class="e" d="m304 765.5c0 0-148.3-111.2-173.2-148.1-24.9-37 25.1-77.1 82.6-31.2 57.4 45.8 135.3 128.8 135.3 128.8 0 0-35.9 44.2-44.7 50.5z"/><path class="b" d="m1478.9 258.2c0 0 25.2-101.7-6.7-114.3-32-12.6-41.8 54.1-41.8 54.1 0 0-4.4-20.3-16.8-12-12.4 8.3 16.1 80.2 16.1 80.2z"/><path class="q" d="m1563 183.2l6.8 13.7-673.2-25.5-6.8-13.7z"/><path class="q" d="m1534.5 295.7l-637.9-124.3 37.4-97.4 635.8 122.9z"/><path class="r" d="m1563 183.2l-35.3 98.9-637.9-124.4 5.6-14.6 4.3-11.1 10.5-27.5 4.5-11.7 8.1-21 2.9-7.6 1.5-3.9z"/><path class="s" d=""/><path class="q" d="m1541 251.2l-54.5-18.9 58.8 9.3 12.5-34.2-106-19.7 109.9 9c0 0-0.9 21.5-6 31.4-5.1 9.9-14.7 23.1-14.7 23.1z"/><path class="q" d="m899.7 132c12 5.4 49.8 22.3 49.2 22.2-0.6-0.1-44.2-9.2-53.5-11.1z"/><path class="q" d="m966.4 83l-43.6-11.2 2.9-7.6z"/><path class="q" d="m1002.4 122.2l-92.2-17.7 4.5-11.7z"/><path class="e" d="m1485.5 244.7c0 0 35.4 182 29 226.1-6.3 44.1-70.3 40.3-82.1-32.3-11.8-72.5-13.9-186.3-13.9-186.3 0 0 56.2-8.7 67-7.5z"/><path class="q" d="m1569.1 227.2l6.8 13.7-673.2-25.5-6.8-13.7z"/><path class="q" d="m1540.7 339.7l-638-124.3 37.4-97.5 635.8 123z"/><path class="t" d="m1569.1 227.2l-35.2 98.8-638-124.3 5.7-14.6 4.2-11.2 10.6-27.4 4.5-11.7 8-21.1 3-7.6 1.4-3.9z"/><path class="s" d=""/><path class="q" d="m1547.2 295.1l-54.6-18.8 58.9 9.2 12.4-34.1-106-19.7 109.9 9c0 0-0.9 21.4-6 31.4-5 9.9-14.6 23-14.6 23z"/><path class="q" d="m905.8 175.9c12 5.4 49.8 22.4 49.2 22.3-0.6-0.1-44.2-9.2-53.4-11.1z"/><path class="q" d="m972.6 126.9l-43.7-11.2 3-7.6z"/><path class="q" d="m1008.6 166.2l-92.2-17.7 4.5-11.7z"/><path class="a" d="m1254.5 131.2c0 0 2.2 48.2-13.1 58.7-15.3 10.4-16.8-69.9-16.8-69.9z"/><path class="c" d="m1087.8 1468.7c0 0-17.4 51.7-7.8 60.5 9.7 9 87 7.1 90.4 0.4 3.4-6.8-26.5-63.2-26.5-63.2z"/><path class="c" d="m1261.4 1441.5c0 0-10.8 71.4-6 76.4 4.9 5 142.3 18 148.2 14.7 6-3.3 10.4-33.4-25.3-41.8-14.7-3.5-28-11.2-38.5-19.2-15.1-11.4-24.5-23.2-24.5-23.2z"/><path class="d" d="m1197.3 708.3c-3-41.3-38.9-72.3-80.2-69.3-41.3 3-72.3 38.9-69.3 80.2l12.4 411.9q0 2.2 0.1 4.4c2.1 28.9 27.3 50.6 56.1 48.5 28.9-2.1 50.6-27.2 48.5-56.1l30.7-397.1c1.7-7.2 2.3-14.8 1.7-22.5z"/><path class="d" d="m1164.9 1127.9q0.3 4.9-0.2 9.7l-6.5 331.5-84.7 3.2-13.1-336q0-0.4-0.1-0.8-0.1-2.2-0.1-4.4c0.3-27 21.2-49.7 48.6-51.7 28.9-2.1 54 19.6 56.1 48.5z"/><path class="d" d="m1322.6 690.1c-11.7-39.8-53.4-62.5-93.1-50.8-39.7 11.7-62.4 53.4-50.7 93.1l99.4 399.9q0.4 2.1 1.1 4.3c8.1 27.8 37.3 43.6 65 35.5 27.8-8.2 43.7-37.3 35.5-65.1l-54.2-394.6c0.2-7.4-0.8-14.9-3-22.3z"/><path class="d" d="m1379.7 1132.6l-41.3 329q0 0 0 0.1-0.1-0.1-0.1-0.1l-84.5-5.5q0-0.1 0-0.1l22.4-335.6q0-0.4 0-0.9 0-0.9 0.1-1.9 0.1-1.3 0.2-2.5c3.1-26.8 26.3-47.1 53.8-46.2 28.9 0.9 51.6 25.2 50.6 54.1q-0.1 4.9-1.2 9.6z"/><path class="e" d="m1243.1 305.6c0 0 1.9 71.4 81.9 121.9 80 50.4 147.1 90.3 175.5 67.6 28.5-22.6 17.1-54.8-56.1-100.1-73.2-45.3-174.6-120.4-201.3-89.4z"/><path class="f" d="m1176 739.6c-57.3-1.3-115.8-23.2-127-44.8 0 0 1.3-292.8-4.6-337.9-5.8-45.1-9.4-50.7 8.3-57.7 8.1-3.2 23.4-7.2 40.6-11 29-6.6 63.6-12.7 78.6-13.7 11-0.7 33.5 4.6 55.4 11.3 26 8 51.2 17.9 55.2 22.2 8.6 9 40.8 369.7 42.6 387.7 1 10.1-74.9 45.5-149.1 43.9z"/><path class="g" d="m1197.7 230.3v60.6c0 7.4-4.3 14.1-11.1 18.7-5.7 3.9-13.3 6.2-21.6 6.2-6.8 0-13.1-1.6-18.3-4.2-8.7-4.5-14.4-12.1-14.4-20.7v-60.6c0-6.6 3.3-12.5 8.6-17 6-4.9 14.6-8 24.1-8 4 0 7.8 0.5 11.3 1.5 3.5 1 6.7 2.4 9.5 4.2 7.3 4.6 11.9 11.5 11.9 19.3z"/><path class="h" d="m1197.7 255.1v34.9c-33.6 4.7-55-10.9-65.4-21.5v-18.2l17.6-21.2c0 0 27.5 12.3 47.8 26z"/><path class="g" d="m1176.9 270c-42.7 0-77.3-34.7-77.3-77.4v-109.6h144.1v120.2c0 20.8-9.6 39.4-24.5 51.7-11.5 9.4-26.3 15.1-42.3 15.1z"/><path class="a" d="m1100.5 199c0 0 40 13.3 15.7-71.1-17.8-62-78.2-36.9-15.7 71.1z"/><path class="e" d="m1049.3 300.5c0 0 38.9 60.3 10.6 150.5-28.3 90.3-53.6 164.1-90 165.2-36.4 1.2-48.5-30.7-22-112.6 26.5-82 60.7-196.8 101.4-203.1z"/><path class="a" d="m1088.8 110.7c0 0 69.8 61 165.6 20.6 0 0 23.3-52.7-36-54-59.3-1.3-127.9-24.2-129.6 33.4z"/><path class="i" d="m1109.3 145.9c0 0 11.6 14.6 63.6 14.2 51.9-0.4 107.2-10.3 107.7-27.1 0.5-16.7-47.1-22-47.1-22z"/><path class="j" d="m1102.4 147.8c0 0-14.4 28.6-28.6 34.6 0 0-8.5-23-7.6-35 0.9-12 36.6-0.1 36.6-0.1z"/><path class="g" d="m1115 180.3c6.1 13.3 2.2 28.1-8.8 33.1-10.9 5-24.7-1.7-30.8-15-6.1-13.3-2.2-28.1 8.7-33.1 11-5 24.8 1.7 30.9 15z"/><path class="i" d="m1271 130.7l-48.6 5.5-30.6 3.5-16.6 1.9-113.7 12.9c-5.8-51.5 15.9-98.7 51.8-121.5q3.8-2.4 7.8-4.5 2.5-1.2 5-2.3c8.2-3.6 17-6 26.2-7.1 8.8-1 17.5-0.7 25.9 0.8 47.1 8.3 86.3 53 92.8 110.8z"/><path class="k" d="m1208.3 639.8q0 0.2 0 0.3v0.4c-2.6 70.1-12.3 129.6-12.3 129.6 0 0-112.9 11.9-171.8-3.9l9.4-112 3.4-39.9 2.9-35.2 3.5-41 2.8-33.3c0 0 87.4-91.4 11.8-208.7 0 0 36.9-22.4 58.5-15.4 0 0 10.6 32.4 28.1 67 21.1 42 50.2 88.6 54 103 1.1 4 4.5 32 7.1 69.8 0.8 12.1 1.6 25.2 2.1 38.8 0.6 13.5 1 27.6 1 41.8 0.1 12.9 0 25.9-0.5 38.7z"/><path class="k" d="m1339.8 750.9c-32.2 23.6-116.8 18.9-116.8 18.9 0 0-10.6-89.8-14.7-129.7q0 0 0 0 0-0.1 0-0.3c-1.1-10.3-1.8-17.6-1.8-19.5 0-1.8-0.3-8.9-0.7-19.3-0.5-11-1.2-25.8-2-41.8-0.6-12.6-1.3-25.9-1.9-38.7-1.7-35.2-3.3-66.9-3.3-69.8 0-3.1 13.4-36.4 20.7-74.7 8.1-42.8 2.8-92.6 2.8-92.6 3.9-11.8 60.4 13.1 64.4 22.8 2 5 15.3 118.3 27.7 226.9 1.5 13.7 3.1 27.4 4.6 40.7 1.4 12.5 2.8 24.7 4.1 36.4 1.6 14 3 27.4 4.4 39.8 5.5 48.8 12.5 100.9 12.5 100.9z"/><path class="i" d="m1318.8 573.8c-39.3-9.5-77.2-13.5-111-14.5q-2 0-4-0.1c-29.6-0.6-55.9 1.1-77.2 3.4-51.2 5.6-83.9 15.8-84.2 15.9q-1.3 0.4-2.5 0.6l3.5-41c15-3.8 42.7-10 79-14 26.5-2.8 53.2-4.1 79.5-3.6q1.9 0 3.8 0 6.6 0.2 13.1 0.5c32.6 1.4 64.6 5.5 95.4 12.1 1.5 13.7 3.1 27.4 4.6 40.7z"/><path class="i" d="m1327.3 650c-42-6.7-82.2-9.6-119-10.2-42.7-0.7-80.7 1.8-111.6 5.2-23.8 2.6-45.1 5.9-63.1 9.2l3.4-39.9c16.4-2.8 35-5.5 55.5-7.7 37.8-4.2 75.8-6 113.3-5.6q1.5 0.1 3 0.1 13.3 0.2 26.5 0.8c29.6 1.3 58.9 4.1 87.6 8.3 1.6 14 3 27.4 4.4 39.8z"/><path class="a" d="m1190.2 243.4c-5.9 0-11.4-1.9-15.9-5.1-6.9-5-11.4-13.1-11.4-22.3h54.4v0.3c0 15-12.1 27.1-27.1 27.1z"/><path class="l" d="m1204.4 224.3h-28.8c-1.4 0-2.7-0.6-3.6-1.5-0.9-0.9-1.5-2.2-1.5-3.6v-3.5h40.1v2.4c0 1.6-0.6 3-1.6 4.1-1.2 1.3-2.8 2.1-4.6 2.1z"/><path class="h" d="m1106.5 184.2c3.4 7.5 1.2 16-5 18.9-6.3 2.8-14.1-1-17.6-8.6-3.5-7.6-1.2-16 5-18.9 6.2-2.8 14.1 1 17.6 8.6z"/><path class="m" d="m1191.8 139.7q0 0.1 0 0.1 0-0.1 0-0.1c-35.3-80.6-69.5-102.2-78.5-106.7q3.8-2.4 7.8-4.5 2.5-1.2 5-2.3c19.5 6.6 44 16 55.8 23.7 20.4 13.5 10.3 87 9.9 89.8z"/><path class="n" d="m1237.4 133.6l-45.8 6.1c-16.8-82.4-65.9-108.5-70.5-111.2q-0.4-0.2-0.4-0.2c18.6-27.8 53.8-10.2 53.8-10.2q1.9 0.8 3.7 1.8c41.1 22.6 59 98.6 59.2 113.7z"/><path class="b" d="m1175.7 562.1c0 0 103.6 15.6 113.2-17.4 9.5-32.9-57.8-36.5-57.8-36.5 0 0 19.8-6.3 10.4-17.8-9.4-11.6-78.4 23.5-78.4 23.5z"/><path class="e" d="m1189.7 567.5c0 0-177.9 52.1-222.4 49.9-44.5-2.2-46.6-66.3 24.5-84.8 71.2-18.5 184.2-31.2 184.2-31.2 0 0 13.9 55.2 13.7 66.1z"/><path class="b" d="m1660.9 297.2c0 0-74.3-73.8-53.5-101.2 20.7-27.3 63.7 24.6 63.7 24.6 0 0-6.7-19.6 8.2-19 14.9 0.7 27.8 76.9 27.8 76.9z"/><path class="e" d="m1648.3 289.2c0 0 64.2 173.9 92.5 208.3 28.3 34.4 81.1-2.1 53.5-70.3-27.6-68.1-84.9-166.4-84.9-166.4 0 0-52.5 21.8-61.1 28.4z"/><path class="a" d="m1988.4 137.9c0 0-1.5 48.2 13.9 58.4 15.5 10.3 15.8-70.1 15.8-70.1z"/><path class="c" d="m2183.3 1471.7c0 0 19.6 50.9 10.5 60.2-9.4 9.3-86.7 10.8-90.4 4.2-3.6-6.5 23.8-64.2 23.8-64.2z"/><path class="c" d="m2035.8 1456c0 0 4.7 72.1-0.5 76.6-5.3 4.6-143.3 5.9-149 2.1-5.6-3.8-7.5-34.1 28.9-39.5 14.9-2.2 28.8-8.8 39.9-15.8 16-10.1 26.4-21.1 26.4-21.1z"/><path class="d" d="m2054.1 714.1c2.4-41.4 37.9-72.9 79.2-70.5 41.3 2.3 72.9 37.8 70.5 79.1l-6.2 412q0 2.2-0.1 4.5c-1.7 28.9-26.5 50.9-55.4 49.3-28.9-1.7-50.9-26.5-49.2-55.4l-36.7-396.6c-1.8-7.2-2.5-14.7-2.1-22.4z"/><path class="d" d="m2091.6 1134.6q-0.1 5 0.6 9.7l20.8 330.9 84.8-0.4-1.5-336.3q0.1-0.4 0.1-0.8 0-2.3-0.1-4.5c-1.5-26.9-23.3-48.6-50.8-49.4-28.9-0.9-53 21.9-53.9 50.8z"/><path class="d" d="m1919.6 708.4c3.8-41.2 40.3-71.5 81.6-67.7 41.2 3.8 71.5 40.3 67.7 81.6l-20.7 411.5q0 2.2-0.2 4.4c-2.7 28.9-28.2 50-57 47.4-28.9-2.7-50.1-28.3-47.4-57.1l-22.7-397.6c-1.6-7.2-2-14.8-1.3-22.5z"/><path class="d" d="m1944.1 1138.2l13.3 331.3q0 0 0 0.1 0.1-0.1 0.1-0.1l84.6 1.7h0.1q0-0.1 0-0.1l6.2-336.3q0-0.4 0-0.8 0.1-1 0.1-2 0-1.2 0-2.5c-0.9-26.9-22.3-49.2-49.7-50.6-28.9-1.5-53.6 20.7-55.1 49.6q-0.2 5 0.4 9.7z"/><path class="e" d="m2002.4 312c0 0-0.9 71.5-80.1 123.2-79.2 51.6-145.7 92.5-174.5 70.2-28.8-22.2-17.9-54.5 54.7-100.9 72.5-46.4 172.7-123 199.9-92.5z"/><path class="f" d="m2075.9 745c57.4-2.1 115.5-24.9 126.3-46.7 0 0-5.6-292.7-0.4-337.9 5.1-45.2 8.7-50.9-9.2-57.5-8.1-3.1-23.4-6.9-40.7-10.5-29.1-6.1-63.7-11.7-78.8-12.5-11-0.5-33.4 5.1-55.3 12.2-25.8 8.3-50.8 18.6-54.8 22.9-8.4 9.2-35.3 370.4-36.8 388.3-0.9 10.2 75.5 44.5 149.7 41.7z"/><path class="g" d="m2046.6 236.1l0.9 60.6c0.1 7.4 4.5 14 11.4 18.5 5.8 3.8 13.4 6 21.7 5.9 6.8-0.1 13.1-1.7 18.2-4.5 8.7-4.6 14.3-12.3 14.2-20.9l-0.9-60.6c-0.1-6.5-3.5-12.4-8.9-16.8-6.1-4.9-14.7-7.8-24.2-7.7-4 0.1-7.8 0.7-11.3 1.7-3.5 1-6.7 2.5-9.5 4.3-7.2 4.7-11.7 11.7-11.6 19.5z"/><path class="h" d="m2047 260.9l0.5 34.9c33.7 4.2 54.9-11.7 65.1-22.5l-0.2-18.1-17.9-21c0 0-27.3 12.7-47.5 26.7z"/><path class="g" d="m2068 275.4c42.7-0.6 76.8-35.7 76.2-78.4l-1.6-109.6-144.1 2.1 1.8 120.2c0.3 20.8 10.1 39.3 25.3 51.3 11.6 9.3 26.4 14.7 42.4 14.4z"/><path class="a" d="m2143.4 203.3c0 0-39.8 14-16.8-70.8 16.9-62.3 77.6-38.1 16.8 70.8z"/><path class="e" d="m2201.5 308.7c0 0-30.5 64.9 9.5 150.6 40 85.7 74.9 155.5 111.1 151.8 36.2-3.7 44-36.9 6.9-114.6-37.1-77.7-86.3-186.9-127.5-187.8z"/><path class="a" d="m2153.8 114.9c0 0-69 62.1-165.3 23.1 0 0-24.1-52.4 35.2-54.6 59.3-2.2 127.5-26 130.1 31.5z"/><path class="i" d="m2133.8 150.4c0 0-11.4 14.7-63.4 15.1-51.9 0.4-107.3-8.6-108-25.4-0.8-16.8 46.7-22.7 46.7-22.7z"/><path class="j" d="m2140.8 152.2c0 0 14.8 28.4 29.1 34.2 0 0 8-23.2 7-35.1-1-12-36.6 0.4-36.6 0.4z"/><path class="g" d="m2128.6 184.8c-5.9 13.4-1.7 28.2 9.3 33.1 11 4.8 24.7-2.1 30.6-15.5 5.9-13.4 1.7-28.2-9.3-33-11-4.9-24.7 2.1-30.6 15.4z"/><path class="i" d="m1971.8 137.6l48.8 4.8 30.6 3 16.6 1.6 113.9 11.2c5.1-51.5-17.4-98.3-53.6-120.6q-3.8-2.4-7.8-4.4-2.5-1.2-5.1-2.3c-8.3-3.4-17.1-5.7-26.3-6.6-8.8-0.9-17.5-0.5-25.9 1.1-46.9 9-85.5 54.3-91.2 112.2z"/><path class="k" d="m2042.2 645.7q0 0.2 0 0.3v0.4c3.6 70.1 14.2 129.4 14.2 129.4 0 0 113.1 10.2 171.7-6.5l-11.1-111.8-3.9-39.8-3.5-35.1-4-41-3.3-33.3c0 0-88.8-90.1-15-208.5 0 0-37.2-21.9-58.7-14.5 0 0-10.1 32.6-27.1 67.4-20.5 42.3-48.8 89.3-52.5 103.8-1 4-4 32-6 69.9-0.7 12.1-1.2 25.2-1.6 38.8-0.3 13.6-0.5 27.6-0.4 41.8 0.2 12.9 0.5 26 1.2 38.7z"/><path class="k" d="m1912.4 758.8c32.5 23.1 117 17.1 117 17.1 0 0 9.2-89.9 12.8-129.9q0 0 0 0 0-0.1 0-0.3c0.9-10.3 1.5-17.6 1.4-19.5 0-1.8 0.2-8.9 0.5-19.3 0.4-11 0.8-25.8 1.4-41.8 0.4-12.6 0.9-26 1.3-38.8 1.2-35.2 2.3-66.9 2.2-69.8 0-3.1-13.9-36.2-21.7-74.4-8.8-42.7-4.2-92.5-4.2-92.5-4.2-11.8-60.3 14-64.1 23.7-2 5-13.5 118.6-24.3 227.3-1.3 13.8-2.7 27.4-4 40.8-1.2 12.5-2.4 24.7-3.5 36.4-1.4 14.1-2.7 27.5-3.9 39.9-4.8 48.9-10.9 101.1-10.9 101.1z"/><path class="i" d="m1930.7 581.4c39.1-10.1 76.9-14.7 110.7-16.2q2.1-0.1 4.1-0.1c29.5-1.1 55.9 0.2 77.2 2.2 51.3 4.8 84.1 14.6 84.5 14.7q1.2 0.4 2.4 0.6l-4-41c-15.2-3.6-43-9.4-79.3-12.8-26.5-2.5-53.2-3.3-79.5-2.5q-1.9 0-3.8 0.1-6.6 0.3-13.1 0.7c-32.6 1.9-64.5 6.4-95.2 13.5-1.3 13.8-2.7 27.4-4 40.8z"/><path class="i" d="m1923.3 657.7c42-7.3 82.1-10.8 118.9-12 42.6-1.3 80.7 0.6 111.6 3.6 23.9 2.2 45.2 5.2 63.2 8.2l-3.9-39.8c-16.5-2.6-35.1-5-55.7-6.9-37.8-3.6-75.8-4.9-113.3-3.9q-1.5 0.1-3.1 0.1-13.2 0.4-26.4 1.2c-29.6 1.7-58.8 5-87.4 9.6-1.4 14.1-2.7 27.5-3.9 39.9z"/><path class="a" d="m2054.3 249.1c5.9-0.1 11.4-2.1 15.8-5.4 6.9-5 11.3-13.2 11.2-22.4v-0.1l-54.4 0.9v0.3c0.2 15 12.5 26.9 27.4 26.7z"/><path class="l" d="m2039.9 230.2l28.8-0.5c1.4 0 2.6-0.6 3.5-1.5 1-0.9 1.5-2.2 1.5-3.6l-0.1-3.5-40 0.6v2.4c0 1.6 0.7 3 1.7 4.1 1.1 1.2 2.8 2 4.6 2z"/><path class="h" d="m2137.2 188.6c-3.4 7.6-1 16.1 5.3 18.8 6.2 2.8 14-1.1 17.4-8.8 3.4-7.6 1-16-5.3-18.8-6.2-2.8-14 1.2-17.4 8.8z"/><path class="m" d="m2051.2 145.4q0 0.1 0 0.1 0-0.1 0-0.1c34.1-81.1 68-103.2 76.9-107.8q-3.8-2.4-7.8-4.4-2.5-1.2-5.1-2.3c-19.3 6.9-43.8 16.7-55.4 24.6-20.2 13.8-9.1 87.2-8.6 89.9z"/><path class="n" d="m2005.5 140.1l45.9 5.4c15.5-82.7 64.3-109.5 68.9-112.3q0.3-0.2 0.4-0.2c-19.1-27.6-54.1-9.4-54.1-9.4q-1.8 0.8-3.6 1.8c-40.7 23.2-57.6 99.5-57.5 114.7z"/><path fill-rule="evenodd" class="o" d="m2326.6 1088c-14.5 0-28.5-3.4-41.8-10-12.6-6.3-24-15.3-33.8-26.7-19.8-23.4-30.8-54.3-30.8-87.2 0-32.9 11-63.8 30.8-87.2 9.8-11.4 21.2-20.4 33.8-26.7 13.3-6.6 27.3-10 41.8-10 14.5 0 28.6 3.4 41.8 10 12.7 6.3 24.1 15.3 33.9 26.7 19.8 23.4 30.8 54.3 30.8 87.2 0 32.9-11 63.8-30.8 87.2-9.8 11.4-21.2 20.4-33.9 26.7-13.2 6.6-27.3 10-41.8 10zm92.9-123.9c0-61-41.5-110.3-92.9-110.3-51.3 0-92.8 49.3-92.8 110.3 0 61 41.5 110.3 92.8 110.3 51.4 0 92.9-49.3 92.9-110.3z"/><path class="p" d="m2435.6 971v206.7h-219.2v-206.7z"/><path class="d" d="m2435.6 971v47.5c-2 3.9-4.9 6.4-9 6.5-20.3 0.3-3.6-47.2-23.9-41-20.3 6.1 11.8 60.5-12.6 61.1-24.5 0.5 8.9-56.8-36.5-60.2-48.1-3.5 10.7 105.3-21.3 118.9-16.7 7.1-28.4-10.7-24.6-56.9 3.9-46.1-0.6-70-27.1-67.5-17.9 1.8-21.3 30.1-12.3 59.1 9.1 29.1-7.4 42.7-22.6 31-15.1-11.6 8.8-62.9-2.5-80.7-11.3-17.8-26.8-17.8-26.8-17.8z"/><path class="q" d="m1736 175.5c-13.3 23.1-45.4 29.4-71.7 14.1-26.3-15.2-36.9-46.2-23.6-69.2 13.3-23 45.5-29.3 71.8-14.1 26.3 15.2 36.9 46.2 23.5 69.2z"/><path class="q" d="m1614.2 300.2l-18.6-10.8 65-112.4 18.6 10.8z"/><path class="e" d="m1773.6 137.7l-6.8 6.8-29.6 29.5-95.3-55.1 10.1-42.5 1.9-8.2c0 0 10 2.8 23.3 7.6 13 4.7 29.3 11.3 42.4 19.2 20.4 12.2 41.8 31.3 50.2 39.2 2.5 2.2 3.8 3.5 3.8 3.5z"/><path class="d" d="m1773.6 137.7l-6.8 6.8c-3.9-4-7.8-9.4-13.2-11.5-6.8-2.7-16.6 21.8-26.3 35.3-4.6 6.4-9.2 10.3-13.3 7.4-4.1-2.8-2.8-8.2 0.8-14.7 7.8-14 26.1-32.8 22.3-40.2-5.6-10.8-22.9-21.6-31.1-22.2-8.3-0.6-13.8 27.9-22 22.6-8.2-5.3 12.7-26.1-0.2-29.9-9.3-2.8-14.3 26-21.6 39.3-2.9 5.3-6.2 8.2-10.2 5.6-3.8-2.4-4-7.2-2.6-13 3.9-16 20.1-40 9.2-43.6-3.1-1.1-5.2-2.1-6.6-3.2l1.9-8.2c0 0 10 2.8 23.3 7.6 13 4.7 29.3 11.3 42.4 19.2 20.4 12.2 41.8 31.3 50.2 39.2 2.5 2.2 3.8 3.5 3.8 3.5z"/><path class="b" d="m2334.6 783.6c0 0 33.7 99.2 3 114.5-30.7 15.2-46.2-50.4-46.2-50.4 0 0-2.7 20.6-15.7 13.4-13.1-7.2 9.2-81.3 9.2-81.3z"/><path class="e" d="m2342.4 796.4c0 0 19.8-184.3 9.7-227.7-10-43.4-73.5-34.2-79.1 39.1-5.6 73.3 2 186.9 2 186.9 0 0 56.7 3.8 67.4 1.7z"/><path class="a" d="m2741 119.4c0 0 2.3 48.2-13 58.7-15.4 10.4-16.9-69.9-16.9-69.9z"/><path class="b" d="m2968.2 411.1c0 0 85.1-61.2 68.9-91.4-16.2-30.3-66.8 14.2-66.8 14.2 0 0 9.7-18.3-5.1-20.1-14.8-1.7-39.6 71.6-39.6 71.6z"/><path class="c" d="m2574.4 1456.8c0 0-17.4 51.8-7.9 60.6 9.7 8.9 87.1 7.1 90.5 0.3 3.3-6.7-26.6-63.1-26.6-63.1z"/><path class="c" d="m2747.9 1429.7c0 0-10.7 71.4-5.9 76.4 4.8 4.9 142.3 18 148.2 14.7 5.9-3.3 10.4-33.4-25.4-41.8-14.7-3.5-27.9-11.3-38.4-19.2-15.1-11.4-24.6-23.2-24.6-23.2z"/><path class="d" d="m2683.9 696.5c-3-41.3-38.9-72.3-80.2-69.3-41.3 3-72.3 38.9-69.3 80.2l12.4 411.8q-0.1 2.2 0.1 4.5c2.1 28.9 27.2 50.6 56.1 48.4 28.8-2.1 50.5-27.2 48.4-56l30.8-397.2c1.6-7.1 2.3-14.7 1.7-22.4z"/><path class="d" d="m2651.4 1116.1q0.4 4.9-0.2 9.7l-6.4 331.5-84.8 3.2-13-336q-0.1-0.4-0.1-0.8-0.2-2.3-0.1-4.5c0.3-26.9 21.2-49.6 48.6-51.6 28.8-2.1 53.9 19.6 56 48.5z"/><path class="d" d="m2809.1 678.2c-11.7-39.7-53.3-62.4-93-50.7-39.8 11.7-62.5 53.4-50.8 93.1l99.4 399.9q0.5 2.1 1.1 4.3c8.2 27.7 37.3 43.6 65.1 35.4 27.7-8.1 43.6-37.3 35.5-65l-54.2-394.6c0.1-7.4-0.9-14.9-3.1-22.4z"/><path class="d" d="m2866.3 1120.8l-41.4 329q0 0 0 0.1-0.1-0.1-0.1-0.1l-84.4-5.6h-0.1q0 0 0 0l22.4-335.6q0-0.5 0-0.9 0.1-1 0.1-1.9 0.1-1.3 0.3-2.5c3.1-26.8 26.3-47.1 53.7-46.2 28.9 0.9 51.6 25.1 50.7 54.1q-0.2 4.9-1.2 9.6z"/><path class="e" d="m2982 405.2c0 0-90.8 161.6-124.2 191.1-33.4 29.5-79.7-14.8-41.7-77.8 37.9-62.9 110-151 110-151 0 0 48.5 29.8 55.9 37.7z"/><path class="e" d="m2757.9 294.7c0 0-44.8 55.7-16.5 145.9 28.2 90.2 53.6 164 90 165.2 36.3 1.1 48.4-30.8 22-112.7-26.5-81.9-55.1-204.7-95.5-198.4z"/><path class="f" d="m2662.6 727.8c-57.4-1.3-115.9-23.2-127-44.8 0 0 1.2-292.8-4.6-337.9-5.8-45.1-9.4-50.7 8.3-57.7 8.1-3.2 23.3-7.2 40.5-11.1 29-6.5 63.6-12.6 78.7-13.6 11-0.7 33.5 4.6 55.4 11.3 26 7.9 51.1 17.9 55.2 22.1 8.5 9.1 40.8 369.8 42.6 387.8 1 10.1-74.9 45.5-149.1 43.9z"/><path class="g" d="m2684.3 218.4v60.6c0 7.5-4.3 14.2-11.1 18.8-5.8 3.8-13.3 6.2-21.6 6.2-6.8 0-13.1-1.6-18.3-4.3-8.7-4.5-14.5-12-14.5-20.7v-60.6c0-6.5 3.3-12.4 8.7-16.9 6-4.9 14.5-8 24.1-8 3.9 0 7.7 0.5 11.2 1.5 3.5 1 6.8 2.4 9.6 4.2 7.2 4.6 11.9 11.5 11.9 19.2z"/><path class="h" d="m2684.3 243.3v34.9c-33.6 4.7-55.1-10.9-65.5-21.5v-18.2l17.6-21.2c0 0 27.5 12.3 47.9 26z"/><path class="g" d="m2663.5 258.1c-42.8 0-77.4-34.6-77.4-77.3v-109.6h144.1v120.2c0 20.8-9.5 39.4-24.5 51.7-11.5 9.4-26.2 15-42.2 15z"/><path class="a" d="m2587 187.1c0 0 40.1 13.4 15.8-71-17.9-62.1-78.2-37-15.8 71z"/><path class="e" d="m2535.9 288.7c0 0 38.8 60.3 10.5 150.5-28.2 90.3-53.6 164.1-90 165.2-36.3 1.1-48.4-30.7-21.9-112.6 26.4-82 60.6-196.8 101.4-203.1z"/><path class="a" d="m2575.3 98.9c0 0 69.9 61 165.7 20.6 0 0 23.2-52.7-36.1-54-59.3-1.3-127.8-24.2-129.6 33.4z"/><path class="i" d="m2595.8 134.1c0 0 11.7 14.6 63.6 14.2 52-0.4 107.2-10.3 107.7-27.1 0.5-16.8-47-22-47-22z"/><path class="j" d="m2588.9 136c0 0-14.4 28.6-28.6 34.6 0 0-8.4-23-7.6-35 0.9-12 36.6-0.1 36.6-0.1z"/><path class="g" d="m2601.5 168.4c6.1 13.3 2.2 28.2-8.7 33.2-11 5-24.8-1.7-30.9-15-6.1-13.3-2.1-28.1 8.8-33.1 10.9-5.1 24.7 1.6 30.8 14.9z"/><path class="i" d="m2757.6 118.9l-48.7 5.5-30.5 3.5h-0.1l-16.5 1.8-113.7 12.9c-5.9-51.4 15.8-98.6 51.7-121.4q3.8-2.4 7.8-4.5 2.5-1.2 5.1-2.4c8.2-3.5 16.9-6 26.1-7 8.8-1 17.5-0.7 25.9 0.8 47.1 8.2 86.3 52.9 92.9 110.8z"/><path class="k" d="m2694.9 628q0 0.1-0.1 0.3v0.4c-2.6 70.1-12.3 129.6-12.3 129.6 0 0-112.9 11.9-171.7-4l9.4-111.9 3.3-39.9 3-35.2 3.4-41 2.8-33.4c0 0 87.4-91.3 11.9-208.6 0 0 36.9-22.4 58.4-15.4 0 0 10.6 32.4 28.1 67 21.2 42 50.2 88.6 54.1 103 1 4 4.4 31.9 7 69.8 0.9 12.1 1.6 25.2 2.2 38.8 0.5 13.5 0.9 27.6 1 41.8 0.1 12.9-0.1 25.9-0.5 38.7z"/><path class="k" d="m2826.3 739.1c-32.1 23.6-116.7 18.9-116.7 18.9 0 0-10.6-89.8-14.8-129.7q0 0 0 0 0-0.2 0-0.3c-1.1-10.3-1.7-17.6-1.7-19.5 0-1.8-0.3-8.9-0.8-19.3-0.5-11-1.2-25.8-2-41.8-0.6-12.6-1.2-25.9-1.9-38.8-1.7-35.2-3.2-66.8-3.2-69.7 0-3.1 13.4-36.4 20.6-74.7 8.1-42.8 2.8-92.6 2.8-92.6 4-11.8 60.5 13.1 64.4 22.8 2.1 5 15.3 118.3 27.7 226.9 1.6 13.7 3.1 27.4 4.6 40.7 1.4 12.5 2.8 24.6 4.1 36.4 1.6 14 3.1 27.4 4.5 39.8 5.5 48.8 12.4 100.9 12.4 100.9z"/><path class="i" d="m2805.3 562c-39.2-9.5-77.1-13.5-110.9-14.5q-2.1-0.1-4.1-0.1c-29.6-0.6-55.9 1-77.1 3.4-51.3 5.6-84 15.8-84.3 15.9q-1.2 0.4-2.4 0.6l3.4-41c15.1-3.8 42.8-10 79.1-14 26.5-2.9 53.1-4.1 79.4-3.7q1.9 0.1 3.8 0.1 6.6 0.2 13.2 0.5c32.6 1.4 64.5 5.5 95.3 12.1 1.6 13.7 3.1 27.4 4.6 40.7z"/><path class="i" d="m2813.9 638.2c-42.1-6.7-82.3-9.6-119-10.2h-0.1c-42.6-0.7-80.6 1.8-111.5 5.2-23.9 2.6-45.1 5.9-63.1 9.2l3.3-39.9c16.4-2.8 35.1-5.5 55.6-7.7 37.7-4.2 75.7-6 113.2-5.6q1.6 0 3.1 0.1 13.3 0.2 26.4 0.7c29.6 1.4 58.9 4.1 87.6 8.4 1.6 14 3.1 27.4 4.5 39.8z"/><path class="a" d="m2676.8 231.5c-6 0-11.4-1.8-15.9-5.1-7-4.9-11.5-13.1-11.5-22.2v-0.1h54.4v0.4c0 14.9-12.1 27-27 27z"/><path class="l" d="m2690.9 212.5h-28.8c-1.4 0-2.6-0.6-3.6-1.5-0.9-0.9-1.5-2.2-1.5-3.6v-3.5h40.1v2.4c0 1.6-0.6 3-1.6 4.1-1.1 1.3-2.7 2.1-4.6 2.1z"/><path class="h" d="m2593 172.3c3.5 7.6 1.3 16.1-5 18.9-6.2 2.9-14.1-0.9-17.6-8.5-3.4-7.6-1.2-16 5-18.9 6.3-2.9 14.1 1 17.6 8.5z"/><path class="m" d="m2678.4 127.9q0 0 0 0 0 0-0.1 0c-35.2-80.7-69.4-102.2-78.5-106.7q3.8-2.4 7.8-4.5 2.5-1.2 5.1-2.4c19.4 6.7 44 16.1 55.7 23.8 20.5 13.5 10.4 87 10 89.8z"/><path class="n" d="m2724 121.8l-45.8 6.1c-16.8-82.4-66-108.5-70.6-111.2q-0.4-0.2-0.4-0.2c18.6-27.8 53.9-10.2 53.9-10.2q1.9 0.8 3.6 1.8c41.1 22.5 59.1 98.6 59.3 113.7z"/><path class="u" d="m3003.6 291l-92.8-5.7c-3-0.2-5.7-1.6-7.7-3.6-2.1-2.3-3.4-5.4-3.2-8.8l1.5-24.1c0.2-3.6 2-6.6 4.7-8.6 2.1-1.6 4.8-2.5 7.6-2.3l92.8 5.8c3.7 0.2 6.9 2.1 8.9 4.9 1.4 2.1 2.2 4.7 2 7.4l-1.5 24.1c-0.2 3.2-1.6 6-3.9 8-2.2 2-5.2 3.1-8.4 2.9z"/><path class="d" d="m2901.6 578.7l-167.4-8.9c-10-0.5-18.1-6.1-22.6-13.8-4.6-7.8-5.4-17.8-0.7-26.9l133.7-257.4c2.5-4.8 6.3-8.7 10.9-11.3 4.6-2.6 9.9-4 15.3-3.7l173.1 9.2c10.2 0.5 18.4 6.3 22.8 14.2 4.5 7.9 5.1 17.9 0.2 26.9l-139.3 257.1c-2.4 4.5-6 8.1-10.2 10.7-4.7 2.7-10.1 4.2-15.8 3.9z"/><path class="b" d="m3022.3 391.4c0 0-41.9 0.3-54.2 24.4-12.3 24.1 4.3 50.6 22.7 45.8 18.4-4.7 46.4-66.7 31.5-70.2z"/><path class="b" d="m2662.3 554.6c0 0 103.3 17.9 113.6-14.8 10.3-32.7-57-37.8-57-37.8 0 0 19.9-5.9 10.8-17.6-9.1-11.8-78.9 21.7-78.9 21.7z"/><path class="e" d="m2676.2 560.3c0 0-179 48.2-223.4 45-44.5-3.2-45.2-67.3 26.3-84.2 71.6-17 184.9-27.1 184.9-27.1 0 0 12.6 55.5 12.2 66.3z"/></svg>