<svg version="1.2" xmlns="http://www.w3.org/2000/svg" viewBox="0 0 264 274" width="264" height="274"><style>.a{fill:#ffe99c}.b{fill:#2865dd}.c{fill:#cc9483}.d{fill:#a0593a}.e{fill:#929bb7}.f{fill:#66bcf7}.g{fill:#8acdff}.h{fill:#232121}.i{opacity:.7;mix-blend-mode:multiply;fill:#232121}.j{fill:#3f3d3d}.k{fill:#282626}.l{fill:#e0ac9b}.m{fill:#5a2570}.n{fill:#39184f}.o{fill:#ba784a}.p{fill:#7581a0}.q{fill:#b2bcce}.r{opacity:.7;fill:#b2bcce}.s{fill:#d3dcea}.t{opacity:.7;fill:#ebf2fc}.u{fill:#5193f4}</style><path class="a" d="m48.1 238.1c-13.2-2.7-45.4-33-35.1-77.6 10.2-44.7 48.3-109.1 51.9-125.2 3.7-16.1 46.2-52.7 95.2-25.6 49.1 27.1 81.3 41.7 95.9 56.4 14.6 14.6 4.4 49-10.2 62.9-14.7 13.9-8.1 60.8-8.1 74.7 0 13.9-46.1 63.7-189.6 34.4z"/><path class="b" d="m116.1 194.2c2.5-3.9 4.1-5.5 4.3-8.1 0.2-1.6-3.9-6.5-8.1-8-3.1-1-14.6 0.5-18.3 0.5-8.8 0-15.1 12.8-10.2 15.2 4.9 2.5 32.3 0.4 32.3 0.4z"/><path  d="m173.7 20c-0.9 9 9.7 38.2 0.8 43.8 4.7 1.4 20.9-3.5 22.4-6.4 1.6-2.8 0-22.7-5.2-29.3-5.2-6.6-18-8.1-18-8.1z"/><path class="c" d="m199.2 21c1 9.2-6.5 17.6-10.9 18.7-2.6 0.6-7.2-1.9-11.8-12.9-3.9-9-5-19.8 6.9-22.7 11.2-2.6 14.7 7.2 15.8 16.9z"/><path class="d" d="m137.9 68.1c-2.1-2.1-8-1-6.3 1.7 5.4 8.9-0.5 27-0.5 27l2.7-6.4-1.5 7.9 3-7.5c0 0-1.3 5.5-2.6 8.7 4.7-5.1 7.4-24.3 7.2-28.8z"/><path class="e" d="m141 72.8c1.5 1.4 1.8 3.5 0.7 4.8-1.1 1.3-3.3 1.2-4.8-0.1l-11-9.7c-1.6-1.3-1.2-2.8-0.1-4.1 1.2-1.3 2.6-1.9 4.2-0.5z"/><path class="f" d="m137.7 79.3l-3.1-2.5c0 0 0.7-4.9 5.3-5.8 3.1 2.3 3.2 3.1 3.2 3.1 0 0-1 4.3-5.4 5.2z"/><path class="g" d="m142.4 74c0.5 0.6-0.2 2-1.6 3.1-1.3 1.2-2.8 1.6-3.2 1.1-0.5-0.6 0.2-1.9 1.5-3.1 1.4-1.1 2.9-1.6 3.3-1.1z"/><path class="f" d="m154.2 87.7c-0.8 1-1.8 1.5-3 0.6l-12.5-10.2c-1.1-0.9 2.3-4.2 3.4-3.3l12.1 9.7c1.2 0.9 0.8 2.1 0 3.2z"/><path class="g" d="m153.6 87.1c-0.5 0.7-1.4 1-2 0.5-0.5-0.4-0.5-1.3 0.1-2 0.6-0.7 1.5-1 2-0.6 0.5 0.4 0.5 1.4-0.1 2.1z"/><path class="c" d="m153.9 48.3c-4.2 1.5-5.5 0-7.4-0.7-1.9-0.6-2.1-2.9-2.1-2.9 0 0-0.9-8 1.5-8.5 2.4-0.6 5.9 1.8 8.7 2.9 2.8 1.2 17.8 16.6 20.2 17.8 2.4 1.3 19.7-3.3 31.4-6.6 6.9-1.9-1.1 16.1-1.1 16.1 0 0-31.2 2.3-34.9 2-3.6-0.3-16.3-20.1-16.3-20.1z"/><path  d="m145.6 34.3c0.8 3.7 2 16.5 3 19.9 1 3.4 4.1 2.6 4.1-0.7 0-3.3-1.9-21.3-1.9-21.3z"/><path class="c" d="m144.8 46.1c0.8 1.8 3.1 2.2 3.2 1.5 0.2-1.4-2.4-3.3-3-3.6-0.6-0.2-0.3 1.9-0.2 2.1z"/><path class="c" d="m144.9 41.3c-0.6 0.2-1.1 2.3-0.3 2.7 0.7 0.5 4.2 3.8 4.9 3.5 0.8-0.3 0.8-0.4 0-1.2-0.7-0.7-4.6-5-4.6-5z"/><path class="c" d="m145.5 39.2c1.2 2.6 8.2 5.2 6.8 5.6-1.3 0.5-2.8 0.9-4.7-0.6-1.9-1.6-4.5-2.9-3.9-4 0.7-1 1.8-1 1.8-1z"/><path class="c" d="m155.7 39.7c-1.1 0.4-3 0.8-3.7 2.1-0.6 1.3-0.4 3.2-1.7 3-1.3-0.2-1.1-2.4-0.6-4.1 0.4-1.7 1.3-3.4 2.8-3.4 1.5 0 3.2 2.4 3.2 2.4z"/><path  d="m126.6 51.5c-0.1 0.1 0.1 0.9 0.7 1.3 0.7 0.3 7 5.5 7.5 5.3 0.4-0.3 0.7-0.4 0.4-0.7-0.4-0.4-8.6-5.9-8.6-5.9z"/><path  d="m152.6 18.8c-4 1.2-6.4 1.8-8.1 4.5-1.2 1.9-12.2 23.8-12.2 23.8 0 0 5.3 0.4 5.9 3.5 7.7-6.8 16.2-14.2 19.1-17 2.8-2.7 2.5-8.3 2.5-9.4 0-2.1-5.5-5.9-7.2-5.4z"/><path class="h" d="m133.7 44.6c0 0-2.7 4.2-4 4.7-1.4 0.4-3.1 2.2-3.1 2.2l8.8 6.2c0 0 1-2 1.5-3.7 0.5-1.7 3.3-5.3 3.3-5.3 0 0-2.6-4-6.5-4.1z"/><path class="h" d="m151.4 22.9c1.5 0.9 5.1 3.6 5.7 4.9 1.6-3.5 1.7-4.3 1.7-4.3 0 0-3-3-3.9-3.2-0.9-0.2-3.5 2.6-3.5 2.6z"/><path class="h" d="m151 23.3c0.6 0.3 5.9 4.4 5.8 5.2-1.5 0.8-17 18.5-17 18.5l-2.5-2.2z"/><path class="i" d="m129 51.6l4.5 3.2c0 0 2.4-4.6 2.3-6.1 0-0.8-1.9-2.4-3.7-0.4-2.1 2.1-3.1 3.3-3.1 3.3z"/><path class="j" d="m139.5 48.3c-0.4 0.3-2.6 3.7-3 4.5-0.3 0.9-1.4 4.2-1.4 4.2l-0.9-0.7c0 0 1.7-3.5 2-4.6 0.4-1 2-4.2 2.4-4.2 0.3 0 0.9 0.8 0.9 0.8z"/><path class="k" d="m239.7 251.5c0.6 0.8 1.1 1.4 0.9 2.3-0.2 1-0.9 2.5-0.9 2.5 0 0-8 2.2-10.2 1.2-1.5-0.6-4.1-0.1-5.8 0.9-1.8 0.9-10 2-14.5-0.2-3.1-1.7-3.8-5.2-1.4-6.5 2.6-1.3 4.3-1.1 6.9-1 2.5 0.2 25 0.8 25 0.8z"/><path class="c" d="m234.4 231.9c0.1 3.8 1.8 7.8 2.6 9 1.8 2.7 1.9 4.5 1.4 7.1-0.5 2.5-15.6 3.8-17.5 3.4-1.9-0.4-2.4-4.2-0.1-4.7 2.3-0.6 4.9-3.7 5.5-7.8 0.5-4.1 0.8-6.5 0.8-6.5z"/><path  d="m238.8 243.6c0.6-1.9 1.4 9.2 1 10.4-0.5 1.1-8.4 2.4-10 2.3-1.6 0-1.5-2-5.2-0.2-3.6 1.8-11.5 2-14.3 1-4.1-1.6-4.2-6.9 0.1-7.1 4.2-0.1 10.4-3.3 10.4-3.3 0 0-2.8 1.8 0.8 2.3 3.5 0.6 15.8-1.5 17.2-5.4z"/><path  d="m218.5 247.9c1.1-1.1 3.1-3 3.5-2.5 0.4 0.6 3 2.3 1.6 3.6-1.5 1.3-3.1 2.1-3.4 2.1-0.4 0.1-1.7-3.2-1.7-3.2z"/><path  d="m196.9 118.9c0 4.8 2.3 12 3.2 14.9 0.9 2.8 9.8 51.4 10.9 57 1.9 9.6 2.1 8.4 4 12.2 1.8 3.7 7.9 29.4 8.4 34.5 8.4 0.7 12.6-0.7 14.8-4.9-2.2-9.9-3.3-38-8.2-43.6-5-5.6-8.5-69.3-10.6-73.5-2.1-4.2-22.5 3.4-22.5 3.4z"/><path class="k" d="m215.4 256.6c1.3 1.1 2.1 2.4 1.9 3.4-0.2 1.1-0.4 3.7-0.4 3.7 0 0-5.5 3-8 5.4-2.6 2.6-12.5 5.1-16.9 4-4.5-1-6.1-5.3-3.2-7.4 3-2.1 26.6-9.1 26.6-9.1z"/><path class="l" d="m216 220.3c2.9 12.4-1 15.3-1.5 31.1l0.9 3.1-0.6 4.4c0 0-22.1 6.8-20 4.2 1.9-2.6 9.3-9.9 10.6-15.8 1.4-6.5 4.1-31.5 4.1-31.5z"/><path  d="m214.9 251.3c1.8 3.2 2.4 6.6 0.8 9.9-5.1 1.8-10.4 7.3-10.4 7.3 0 0-5.2 2.9-9.8 2.8-4 0-9.5-3.3-6-5.5 3.2-2 5.9-6.1 10.3-9.7 2.2 3.5 6.5-0.1 8.7 1.8 4 3.4 6.4-6.6 6.4-6.6z"/><path  d="m199 256.8c0.2-3.4 6.1-4 7.2-0.2 1 3.8-1.1 2.5-1.9 3-0.9 0.4-5.3-2.8-5.3-2.8z"/><path class="c" d="m209.8 41.4c-2.8-1.4-4.9-8.2-12.6-17.2l-10.5 8.2c3.7 3 7 8.9 6.4 11.1-1.4 5.6-2.9 8.2-2.9 8.2-1.8 19 20.3-11.3 19.6-10.3z"/><path  d="m178 14.7c-2.8 0.6-3.5 4.6-3.3 8.8-4.3-4.5-2.5-12.8 3.3-17.5 3.9-3.2 6.3-1.5 7.2 1.3 1.1 3.5-7.2 7.4-7.2 7.4z"/><path  d="m182.1 4.4c1.2-2.2 12.8-3.2 17.4 1.6 3.8 3.3 9.6 10.5 13.1 20.3 6.1 17 9.9 24.5 14.4 25.5 1.6 0.4-10.4 7.2-11.3 6.7-1-0.5-9.5-22.7-9.9-23.5-0.8-2.2 0.2-4.4-11.2-17.1l-16-7.4z"/><path class="h" d="m225.8 110.2c1.1 4.3 9.2 11 8.4 21-0.5 5.7-2.2 9.5-2.8 11.7-1.8 6.8-7.8 33-6.6 46.1 0 0 3.8 21.3-8 54.1-9 2.1-13.9-0.5-13.9-0.5 0 0 2.4-43.2 1.5-53.1-0.7-8.1 0.2-45.8-0.4-51.1-1.2-10-2.3-17.8-2.6-23.6z"/><path class="m" d="m200.5 47.6c-8.1 7.4-10.7 3.5-10.7 3.5-2.3 5.5-6.8 14.2-7.5 17.1-1.1 3.9 3 8.1 4.4 10 1.3 1.9 3.1 7.9 3.5 10.5 3.2 23.2 6.3 39.2 6.3 39.2 0 0 16.7-1.8 27.7-8.4 1.8-1.1-10-31.7-6-58.5 1.5-10.3 0.5-11.4-9.2-22.6-3.1 2.8-5.3 6.3-8.5 9.2z"/><path class="n" d="m219 54c1 10.2 1 15.4 2.5 23.3 3.9 20.6 13.9 38.7 12.6 39.4-3.8 2.1-9.3 4.7-14.9 5.8 0 0-8.1-31.3-8.2-32.9-2.3-25.5 1.5-36.8-0.6-41.2-1.3-2.5-2.1-6.4-5-8.2 2.4-2.1 3.4-0.3 3.7-2.8 4.2 3.8 9 8 9.9 16.6z"/><path class="c" d="m139.2 79.1c1-1.2 4.9-3.2 5.8-3.3 1.2-0.1 6.9 1.1 8.6 1.6 6-0.8 21.1-3.4 22.8-3.6l21.5-17.9 8.3 6.8c-6.6 9.7-19.1 19.1-23.6 20.8-7.3 2.6-25.2 0.7-30.5 0.1-2.4 0.4-6.2 1.2-7.1 0.9-1-0.3-1.7 0.1-2.5-0.1-0.7-0.3-0.2-1.3 0.7-1.1-0.2-0.7-1.5-0.1-2.1-0.4-0.7-0.4 0.6-1.6 1.1-1.8-0.4 0-2.1 0.4-2.4 0.1-0.7-0.5-0.2-1.3 1.2-1.7-1.1 0.4-2.6 0.5-1.8-0.4z"/><path class="m" d="m210.8 48.9c2.8 2.1 1.6 5.8 1.5 9-0.1 5-13.3 15.6-13.3 15.6l-11.9-8.8c0 0 9.9-13.8 13.1-16 6.8-4.7 10.6 0.2 10.6 0.2z"/><path class="n" d="m213.4 55.5c-0.1 5-10.7 20.8-10.7 20.8l-8.3-6.1c2.8-5.4 12.2-14.3 14.4-22.7 4.4 1.6 4.6 4.9 4.6 8z"/><path class="h" d="m181.1 13.9c5.4 1.3 10.7 7.3 12.3 13.6 1.1 3.9 5.9 26.1 2.5 28.6 3.2-1.6 7.6-16.9 6.4-22.4 1.9 11-1.8 21.1-4.5 22.5 4.9-3.4 12.2-12.7 12.2-12.7l3.3-0.9c0 0-11-40.8-34.4-34.7l-1.3 6.9c1.3-0.3 2.2-1.2 3.5-0.9z"/><path class="c" d="m189.4 20.6c-0.1-1 2.7-2.4 3.5-0.8 0.7 1.6 3.5 7.1 0.3 7.8-2.1 0.4-3.8-7-3.8-7z"/><path class="d" d="m108.4 63.9c3.9-0.4 13 1.4 17.6 1.7 4.5 0.4 5.3-0.3 8.1-0.3 2.8 0 5.8 5.7 5.8 5.7 0 0 0.8-2.2-4.1-1.2-4.9 1.1-11.9 2.1-17.5 1.8-5.7-0.4-9.9-7.7-9.9-7.7z"/><path class="o" d="m111.9 64.2c1.6 0 8.5 2.6 12 2.6 9.3 0.1 11.2-1.3 12.3-0.4 0.6 0.4 0.9 0.4 0.9 0.4 0 0-6.6 1.5-13.8 0.6-7.2-0.9-11.4-3.2-11.4-3.2z"/><path class="o" d="m114.6 65.7c3.1 2.1 12 3.1 16.5 2.5 4.4-0.7 5.9-0.6 6.8-0.1-0.6 0.1-4 0.5-7.4 0.8-3.3 0.3-10.6-0.3-12.4-0.9-1.7-0.6-3.5-2.3-3.5-2.3z"/><path class="p" d="m74.9 214.9c2.1-1.7 24.8-7 34.8 0.5 0 0 0.4 2.1-1.2 2.1-1.7 0-6.4-3.4-8.5-3.6-5.2-0.5-14.7 2.8-17.2 2.7-2.6-0.2-7.9-1.7-7.9-1.7z"/><path class="p" d="m91.2 255h-13.2v-43.6h13.2z"/><path class="q" d="m91.2 211.2c0 0.5-2.9 1-6.6 1-3.7 0-6.7-0.5-6.7-1 0-0.5 3-0.9 6.7-0.9 3.7 0 6.6 0.4 6.6 0.9z"/><path class="r" d="m83.6 212.5v41.3h6v-41.5c-1.2 0.2-2.7 0.3-4.4 0.3q-0.8 0-1.6-0.1z"/><path class="p" d="m117.6 261.6q0 0 0 0v-2.2h-3c-5.2-1.9-16.7-3.1-30-3.1-13.4 0-24.8 1.2-30 3.1h-3v2.3c0.5 2.9 15.1 5.2 33 5.2 17.9 0 32.5-2.3 33-5.2z"/><path class="s" d="m117.6 259.4c0 2.9-14.8 5.3-33 5.3-18.3 0-33-2.4-33-5.3 0-3 14.7-5.3 33-5.3 18.2 0 33 2.3 33 5.3z"/><path class="s" d="m85.2 259.2c4.9-0.6 22.2-2.8 20.8-2.8-1.6 0-11.6-3-14.4-4.7-0.3-0.2-0.5 0.4-3 0.7-1.3 0.2-2.8 0.2-3.7 0.2-0.9 0-2.2 0-3.5-0.2-2.5-0.3-2.9-0.9-3.2-0.7-2.8 1.7-13.4 4.7-15 4.7-1.4 0 16 2.2 20.8 2.8v0.2q0 0 0.6-0.1 0.6 0.1 0.6 0.1z"/><path class="t" d="m78.2 252.6c-2.9 3.4-22.1 8-23 7.8 5.5 2.8 34.5 4 46.2 2.2-5-2.6-11.2-8.1-11.7-9.7-6.7 1.3-11.5-0.3-11.5-0.3z"/><path class="e" d="m88 192.2h-6.8v18.8h6.8z"/><path class="e" d="m88 211c0-0.3-1.5-0.5-3.4-0.5-1.9 0-3.4 0.2-3.4 0.5 0 0.4 1.5 0.6 3.4 0.6 1.9 0 3.4-0.2 3.4-0.6z"/><path class="r" d="m84.9 210.2c0.9 0 1.6 0.1 2.2 0.2v-17.4h-3v17.2q0.4 0 0.8 0z"/><path class="r" d="m86.5 216.1c-0.1 1-1 1.7-2 1.6l-7.9-0.8c-1.1-0.1-1.8-1-1.7-2 0.1-1 1-1.8 2.1-1.7l7.8 0.8c1.1 0.1 1.8 1 1.7 2.1z"/><path class="e" d="m85.9 216c0 0.7-0.4 1.3-1 1.3-0.5 0-1-0.6-1-1.3 0-0.6 0.5-1.2 1-1.2 0.6 0 1 0.6 1 1.2z"/><path class="e" d="m76.7 216.7l7.3 0.8c-0.3-0.3-0.5-1.6-0.5-1.6l-8.4-0.8c0.1 0.8 0.7 1.5 1.6 1.6z"/><path class="c" d="m12.4 167.7c5.9 15.8 35 65.7 35.5 68.3 1.8 8.8-2.4 17.7-7.1 23.4 4.6 1.1 9.1-1.1 14.2-9.5 2.1-3.5 5.3-6.3 5.2-8.9 0-5.6-1.4-1.8-4.1-9.5-2.6-7.7-15-47.7-23.4-61.2-1.5-2.4-20.3-2.6-20.3-2.6z"/><path class="k" d="m58.4 236c1.9 0.8 3.9 3.8 4 7.2 0 3.3-2 5.7 0.3 13.1-1.5 0.8-1.6 0.5-1.6 0.5 0 0-2.4-9.2-3.7-8.2-1.4 1.1-2.3 5.9-4.1 9.8-1.8 3.9-12.1 6-13 5.3-0.9-0.8-2.4-3.5-0.2-5.1 2.1-1.7 2.4-2.6 2.4-2.6 0 0 4.8 1.2 7.5-3 3.3-5.4 8.4-17 8.4-17z"/><path class="l" d="m18.8 168.3c0.8 16.8 14.9 74.3 14.6 77-1 8.9-7.7 16.1-14 20 4.1 2.5 9 1.8 16.5-4.7 3.1-2.6 6.9-4.4 7.7-6.8 1.7-5.4-0.8-2.2-1-10.3-0.1-8.1 0.4-50-3.4-65.4-0.7-2.8-20.4-9.8-20.4-9.8z"/><path  d="m43.3 248.5c1.6 1.3 2.7 4.9 1.7 8-1 3.2-3.7 4.9-3.7 12.6-1.7 0.4-1.7 0-1.7 0 0 0 0.5-9.5-1.1-8.9-1.6 0.6-3.9 4.9-6.9 8-2.9 3.1-13.3 2-13.9 1-0.6-0.9-1.3-4 1.3-4.9 2.6-0.9 3.2-1.7 3.2-1.7 0 0 4.1 2.7 7.9-0.6 4.9-4 13.2-13.5 13.2-13.5z"/><path class="l" d="m122.7 111.1c-1.4-3.7-5.9-10.1-6-10.2-3-5.1-6.3-17.6-6.4-22.4-0.2-6.4-14.2 10.4-14.2 10.4 3.4 4.6 4.3 6.6 4.1 15.9 0 0-0.7 9.6-6.9 24.1-1.1 2.6 32.6-9 29.4-17.8z"/><path class="c" d="m117.5 81.9c2.7-9.7-1.6-15.1-9.3-17.2-7.7-2-14.8 1.4-17.5 11.1-0.5 1.8 0 4.1-0.2 5.8-0.2 2.5-1.6 3.9-2.4 5-0.3 0.8 0.7 1.4 1.8 1.9 0.5 5.2 0.4 9.4 5.2 9.4 8 0 19.8-6.3 22.4-16z"/><path class="b" d="m128.6 122.5c-7.8-2.4-11.6-2.1-24.6 4.6-25.6 18.5-58.8 26.8-62.6 28.4-5.2 2.1-7.3 12.3-14.8 26.9 0 0-4.8 7.6 2.2 7.7 4.9 0.2 75.2 1.4 83.6-3.5 1.1-0.6 2.2-1.9 3.2-3.6-8.4 1.2-31 1.6-33.4 1.1-2.8-0.6-4.6-1.2-1.9-3.3 2.5-1.9 32.3-11.5 42.7-17.9 3.5-12.8 6-26.6 7-30.4 1.7-7-1.4-10-1.4-10z"/><path  d="m91.2 106.2c1.8-1.5 6-2.3 6.9-3.3 0.4-0.5 1.3-0.8 1.3-0.8 2.2 4.2 10.7-3 12.3-4.3 1.6-1.3 2.8 2.7 2.8 2.7 0 0 6.4 7.1 9.3 11.4 2.8 4.2 3.6 14.1 0.8 21.2-2.8 7-5.6 14-9.2 21.7-3.5 7.8-55.5 28.1-59.7 32.3 0 0 3.3 21.6 7.8 34.2 2 5.8-7.9 1.7-24.9-0.2-6.3-0.7-18.5-13.8-23.4-12.4-5 1.4-14.8-6.3-14.8-6.3 0 0 7.6-38.7 13.2-42.9 5.6-4.2 30-8 36.3-14.3 6.3-6.3 22.1-21 27.7-27.3 2.6-2.9 8.5-7.4 13.6-11.7z"/><path class="k" d="m119.1 108.1c-6.3 0-10.5 3.9-13 10.2-2 4.7-26.2 27.1-31.2 30.6-4.9 3.5-26.9 17.9-31.8 18.6-2.1 0.3-6.8-6.4-14.8-4.9-6.2 1.1-11.7-6.1-5.1-6.8 27.6-3.1 49.7-32.4 73.6-50.5 0.8-0.6-1.7 2.8 6.6 0.8 3-0.7 7.8-3.3 7.8-3.3z"/><path  d="m33.7 156.8c4.6-1.4 17-6.6 21.7-9.9 4.7-3.2 19.1-19.2 19.1-19.2 0 0-15.4 16.1-23 19.2-5 2.2-23.7 9.5-25.1 9.5-1.4 0 7.3 0.4 7.3 0.4z"/><path class="u" d="m131.9 124c-1.8-2-3.3-2.5-5.2-3-0.5 0-0.2 3.9 0.2 4.1 1.7 0.8 2 2.7 2 3.6 0.2 14.1-44.3 36.4-65.8 39.8-5.6 0.9-8.2 14.1-13.6 26.7 0 0-3.5 7.9 3.5 8.1 4.9 0.1 52.6-0.3 61-5.3 2.2-1.2 4.4-5.7 6.4-11.9-9.6 2.2-34.6 1.9-36.2 1.9-1.9 0-5.2-1.4-1.9-3.3 3-1.7 35.6-9.1 43.5-18.3 3.6-15.4 6.3-31.3 7.2-34.9 0.8-3.3 0-5.8-1.1-7.5z"/><path class="d" d="m120.7 81.3c1.5-6.4 0.2-14-10.5-17-8.4-2.4-15.9 2.1-15.7 4.3l7.2 5.6c0 0 11.5 15.9-5.2 35.5-7.4 8.6-10.6 16.4-3.3 28.4 1.9-2.5-11-11.5 7.6-22.4 10-6 22-24.2 19.8-33.9q0.1-0.3 0.1-0.5z"/><path class="d" d="m93.3 68.1c4.3 1.5 12.5 25 6.4 35.2 0 0 3.9-2.5 4.6-11.7 0.7-9.3 0-18.2-2.6-24-2.6-5.8-8.4 0.5-8.4 0.5z"/><path class="d" d="m109.7 64.8c4.6 0.6 11.7 4 13.8 16.5 2.1 12.6 0.6 27.6 2.3 33 1.7 5.5 3.4 12.1 0 14.9 0 0 0.9-12.6-4.2-19.8-3.2-4.6-7.2-4.6-7.9-12-0.7-7.3-0.1-24.4-1.7-26.9-1.6-2.5-2.3-5.7-2.3-5.7z"/><path class="o" d="m99.3 65.4c2.8 0.6 8.9 13.5 8.9 21 0.1 14-5 17.8-13.8 28.4 3.1-1.9 7.9-7.6 11.4-13.7-3.2 7-9.8 11.4-14.4 19.5 0 0 3.8-5.3 6-6.5 2.1-1.2 8.9-10.5 10.3-13.2-0.1 2.3-3.1 9.3-5.6 11.5 4.4-3.8 9.3-10.1 10.2-16.4 0.9-6.3 0.9-19.6-6-28.6-2.3-3-3.7-2.5-4.3-2.6-0.6-0.1-2.7 0.6-2.7 0.6z"/><path  d="m123.7 131.3c-0.6 8.1-6 25.1-15.6 27.2-9.5 2.1-40.9 9.5-43.7 9.5-2.9 0 20.8-8.8 33.1-22.6 12.4-13.8 26.2-14.1 26.2-14.1z"/><path  d="m33.4 157.9c5.9 0.5 27.1-9 35.3-17.7 8.2-8.7 18.8-13.4 20.2-12.7-3.5-0.4-13.1 7.6-17.8 13.4-4.7 5.9-21.9 15.1-27.3 16.3-5.4 1.2-10.4 0.7-10.4 0.7z"/></svg>