<svg version="1.2" xmlns="http://www.w3.org/2000/svg" viewBox="0 0 201 174" width="201" height="174"><defs><linearGradient id="P" gradientUnits="userSpaceOnUse"/><linearGradient id="g1" x2="1" href="#P" gradientTransform="matrix(124.338,215.36,-670.233,386.959,132.573,-75.174)"><stop stop-color="#eeebe2"/><stop offset="1" stop-color="#e8e8de"/></linearGradient></defs><style>.a{fill:#d5d5cc}.b{fill:url(#g1)}.c{opacity:.2}.d{fill:#18181a}.e{fill:#4d4d4d}.f{fill:#fff}.g{fill:#ababa4}.h{fill:#8f9194}.i{fill:#b6b7ba}.j{fill:#d9d6cd}.k{fill:#c2bfb8}.l{fill:#5ea9f0}.m{opacity:.4;fill:#fff}.n{opacity:.2;fill:#fff}</style><path class="a" d="m4.7 96.9c11.7 2.6 28.3 18 28.3 31.2 0 13.5-0.1 27.8-8.9 39.4-2.2 2.8-4 4.6-5.6 5.5-2.6 1.5-4.8 0.9-7.5-0.7-3.2-1.8-6.8-3.8-8.9-5.1-1.3-0.7-2.1-2.1-2.1-3.6v-60.9c0-3 0.5-4.8 1.8-5.6q1.1-0.6 2.9-0.2z"/><g style="opacity:.1"><path fill-rule="evenodd" d="m11.3 165.6c-2.1-1.4-4.3-2.9-5.8-4-1-0.6-1.5-1.9-1.5-3.1v-46.6c0-2.7 0.4-4.1 1.3-4.7q0.9-0.6 2.3-0.3c3.8 1 8.5 4.5 12.2 9.1 4.1 5 6.5 10.6 6.5 15.3 0 10 0 21.3-5.8 30.4-1.5 2.2-2.7 3.6-3.8 4.4-0.8 0.5-1.5 0.7-2.2 0.7-1.1 0-2.1-0.5-3.2-1.2zm-3.9-57.6q-1-0.3-1.5 0c-0.6 0.4-0.9 1.7-0.9 3.9v46.6c0 0.9 0.4 1.8 1.1 2.3 1.5 1 3.7 2.5 5.8 3.9 1.8 1.2 2.9 1.4 4.2 0.5 1-0.7 2.1-2 3.5-4.1 5.6-8.8 5.6-20 5.6-29.8 0-4.5-2.2-9.8-6.2-14.7-3.6-4.4-8-7.7-11.6-8.6z"/></g><path class="b" d="m24.1 167.5c8.8-11.6 8.9-25.9 8.9-39.4 0-13.2-16.6-28.6-28.3-31.2q-1.8-0.4-2.9 0.2c0 0 165.8-95.7 167-96.4q1.1-0.6 3-0.2c11.6 2.6 28.2 17.9 28.2 31.1 0 13.5-0.1 27.9-8.8 39.4-2.2 2.9-4 4.7-5.7 5.6-2.5 1.4-167 96.4-167 96.4 1.6-0.9 3.4-2.7 5.6-5.5z"/><path class="c" d="m146.6 13.5q-0.6 0.4-1.4 0.8z"/><path class="c" d="m14.6 89.7q0.6 0 1.2 0.1c8 1.3 19 9.7 24.7 18.6 1.3 1.9 3.4 3 5.5 3 1.1 0 2.3-0.3 3.3-0.9l132.4-76.4c3-1.7 3.9-5.6 2.1-8.5-5.8-8.8-16-16.5-23.9-18.2q-0.8-0.2-1.4-0.2-0.9 0-1.5 0.3l1.7-0.9q0.6 0 1.3 0.1c4 0.9 8.6 3.2 13 6.6 4.5 3.4 8.5 7.7 11.3 12 1 1.5 1.3 3.4 0.9 5.1-0.5 1.8-1.6 3.3-3.2 4.2l-132.4 76.5c-1.1 0.6-2.3 0.9-3.6 0.9-2.4 0-4.7-1.2-6-3.3-5.5-8.5-16.4-17-24.3-18.3q-0.7-0.1-1.3-0.1c-0.5 0.1-1.1 0.2-1.4 0.4z"/><path class="d" d="m38.8 161.3q-0.1 0.1-0.2 0.1z"/><path class="d" d="m44.3 155.9c1.7-2.4 3.3-5.3 4.6-8.3 1.5-3.3 3.9-6 7.1-7.8l117.3-67.8c1.5-0.8 3.2 0.7 2.5 2.2-1.2 3-2.7 5.8-4.8 8.4-2.2 2.9-4 4.7-5.6 5.6l-126.6 73.1c1.6-0.9 3.3-2.6 5.5-5.4z"/><path class="e" d="m44.8 155.1c1.6-2.2 3-4.8 4.1-7.5 1.5-3.3 3.9-6 7.1-7.8l37.9-22 61.4-35.4 7.7 4.4-118.2 68.3q0 0 0 0z"/><path class="f" d="m38.8 161.3q-0.1 0.1-0.2 0.1z"/><path class="g" d="m44.3 155.9q0.2-0.4 0.5-0.8l118.2-68.3c1.7-0.9 3.5-2.6 5.7-5.5 2.2-3 3.9-6.2 5.2-9.5 1.3-0.2 2.5 1.1 1.9 2.4-1.2 3-2.7 5.8-4.8 8.4-2.2 2.9-4 4.7-5.6 5.6l-126.6 73.1c1.6-0.9 3.3-2.6 5.5-5.4z"/><path class="h" d="m148.2 98.2q-0.9 0.6-1.6 0.9 0.1-0.1 0.2-0.1z"/><path class="h" d="m126.8 109.1q-0.1 0-0.2 0.1z"/><path class="h" d="m108 119.9q-0.1 0.1-0.2 0.1z"/><path class="h" d="m89.2 130.8q-0.1 0-0.2 0.1z"/><path class="h" d="m70.4 141.6q-0.1 0.1-0.2 0.1z"/><path class="h" d="m51.6 152.5q-0.1 0-0.1 0.1z"/><path class="a" d="m156.8 90.9c-2.2 2.9-4 4.6-5.6 5.5l-4.4 2.6c1.6-1 3.4-2.7 5.5-5.5 3-4.1 5-8.4 6.4-13l4.5-2.7c-1.3 4.6-3.3 9-6.4 13.1z"/><path class="a" d="m138.1 101.7c-2.2 2.9-4 4.6-5.7 5.6l-4.4 2.5c1.6-1 3.4-2.7 5.5-5.5 3.1-4 5.1-8.4 6.4-13l4.6-2.6c-1.4 4.6-3.4 8.9-6.4 13z"/><path class="a" d="m119.3 112.5c-2.2 2.9-4 4.7-5.7 5.6l-4.3 2.5c1.6-0.9 3.3-2.6 5.4-5.4 3.1-4.1 5.1-8.5 6.4-13l4.6-2.7c-1.3 4.6-3.3 9-6.4 13z"/><path class="a" d="m100.5 123.4c-2.2 2.9-4 4.6-5.6 5.5l-4.4 2.6c1.6-1 3.3-2.7 5.4-5.5 3.1-4 5.1-8.4 6.4-13l4.6-2.6c-1.3 4.5-3.3 8.9-6.4 13z"/><path class="a" d="m81.7 134.2c-2.2 2.9-4 4.7-5.6 5.6l-4.4 2.5c1.6-0.9 3.3-2.7 5.5-5.4 3-4.1 5-8.5 6.4-13.1l4.5-2.6c-1.3 4.6-3.3 9-6.4 13z"/><path class="a" d="m58.4 147.7c3.1-4.1 5.1-8.4 6.4-13l4.5-2.7c-1.3 4.6-3.3 9-6.3 13-2.2 2.9-4 4.7-5.7 5.6l-4.4 2.5c1.6-0.9 3.4-2.6 5.5-5.4z"/><path class="g" d="m152.3 93.5c-2.1 2.8-3.9 4.5-5.5 5.5l-0.2 0.1-1.3-0.8c1.7-0.9 3.5-2.6 5.7-5.5 2.7-3.6 4.5-7.3 5.8-11.3l1.9-1c-1.4 4.6-3.4 8.9-6.4 13z"/><path class="g" d="m133.5 104.3c-2.1 2.8-3.9 4.5-5.5 5.5l-0.2 0.1-1.2-0.7c1.6-1 3.4-2.7 5.6-5.6 2.7-3.5 4.5-7.3 5.8-11.2l1.9-1.1c-1.3 4.6-3.3 9-6.4 13z"/><path class="g" d="m114.7 115.2c-2.1 2.8-3.8 4.5-5.4 5.4l-0.2 0.1-1.3-0.7c1.6-0.9 3.4-2.7 5.6-5.6 2.7-3.5 4.6-7.3 5.9-11.2l1.8-1c-1.3 4.5-3.3 8.9-6.4 13z"/><path class="g" d="m95.9 126c-2.1 2.8-3.8 4.5-5.4 5.5l-0.2 0.1-1.3-0.8c1.7-0.9 3.5-2.6 5.7-5.5 2.6-3.5 4.5-7.3 5.8-11.2l1.8-1.1c-1.3 4.6-3.3 9-6.4 13z"/><path class="g" d="m77.2 136.9c-2.2 2.7-3.9 4.5-5.5 5.4l-0.2 0.1-1.3-0.7c1.7-0.9 3.5-2.7 5.7-5.6 2.6-3.5 4.5-7.3 5.8-11.2l1.9-1.1c-1.4 4.6-3.4 9-6.4 13.1z"/><path class="g" d="m57.1 147c2.7-3.6 4.5-7.3 5.8-11.3l1.9-1c-1.3 4.6-3.3 8.9-6.4 13-2.1 2.8-3.9 4.5-5.5 5.4l-0.2 0.2-1.2-0.8c1.6-0.9 3.4-2.7 5.6-5.5z"/><path class="i" d="m146.6 99.1l0.2-0.1q-0.1 0-0.2 0.1z"/><path class="e" d="m154.1 13.7q2.1 0.8 4.2 2l-20.2 11.6q-2.1-1.2-4.1-2z"/><path class="j" d="m156.8 16.5l-3.3-1.5 0.6-1.3c2.4 0.9 4.2 2 4.2 2z"/><path class="k" d="m154.1 13.7l-0.6 1.3-18.6 10.7-0.9-0.4z"/><path class="e" d="m103.2 47.4q-2.1-1.1-4.1-1.9l20.1-11.6q2 0.8 4.1 1.9z"/><path class="j" d="m121.8 36.7l-3.2-1.6 0.6-1.2c2.4 0.9 4.1 1.9 4.1 1.9z"/><path class="k" d="m119.2 33.9l-0.6 1.2-18.6 10.8-0.9-0.4z"/><path class="e" d="m68.2 67.6q-2.1-1.1-4.1-1.9l20.1-11.7q2.1 0.8 4.2 2z"/><path class="j" d="m86.9 56.8l-3.3-1.5 0.6-1.3c2.4 1 4.2 2 4.2 2z"/><path class="k" d="m84.2 54l-0.6 1.3-18.5 10.7-1-0.3z"/><path class="e" d="m33.3 87.8q-2.1-1.2-4.1-2l20.1-11.6q2 0.8 4.1 2z"/><path class="j" d="m52 77l-3.3-1.5 0.6-1.3c2.4 0.9 4.1 2 4.1 2z"/><path class="k" d="m49.3 74.2l-0.6 1.3-18.6 10.7-0.9-0.4z"/><path class="e" d="m39.4 92q-1.6-1.3-3.3-2.5l20.2-11.6q1.6 1.1 3.3 2.5z"/><path class="j" d="m56.3 77.9l-1 1.3 2.8 2 1.5-0.8q-0.8-0.7-1.7-1.3-0.8-0.6-1.6-1.2z"/><path class="k" d="m55.3 79.2l-18.6 10.7-0.6-0.4 20.2-11.6z"/><path class="e" d="m91.2 57.7q1.7 1.2 3.3 2.5l-20.1 11.6q-1.6-1.3-3.3-2.4z"/><path class="j" d="m91.2 57.7l-0.9 1.3 2.7 2 1.5-0.8q-0.8-0.7-1.6-1.3-0.9-0.6-1.7-1.2z"/><path class="k" d="m90.3 59l-18.6 10.8-0.6-0.4 20.1-11.7z"/><path class="e" d="m126.2 37.6q1.6 1.1 3.3 2.4l-20.2 11.6q-1.6-1.3-3.3-2.4z"/><path class="j" d="m126.2 37.6l-1 1.2 2.8 2.1 1.5-0.9q-0.8-0.6-1.7-1.3-0.8-0.6-1.6-1.1z"/><path class="k" d="m125.2 38.8l-18.6 10.8-0.6-0.4 20.2-11.6z"/><path class="e" d="m161.1 17.4q1.7 1.1 3.3 2.4l-20.1 11.6q-1.6-1.3-3.3-2.4z"/><path class="j" d="m161.1 17.4l-0.9 1.3 2.7 2 1.5-0.9q-0.8-0.6-1.7-1.2-0.8-0.7-1.6-1.2z"/><path class="k" d="m160.2 18.7l-18.6 10.7-0.6-0.4 20.1-11.6z"/><path class="l" d="m32.5 143.4c0.5-5.1 0.5-10.3 0.5-15.3q0-0.9-0.1-1.7l167.1-96.5q0 0.9 0 1.7c0 5.1 0 10.3-0.5 15.4z"/><path class="f" d="m110.6 87.2v2.3l1.9-1.1v1l-1.9 1.1v2.4l-0.9 0.5v-2.3l-1.9 1.1v-1l1.9-1.1v-2.3z"/><path class="f" d="m115.1 90.9v-0.9l0.8-1.3c1.3-2.1 1.9-3.2 2-4 0-0.6-0.3-0.9-1-0.5-0.5 0.3-1 0.9-1.3 1.3l-0.4-0.9c0.5-0.6 1.2-1.4 2-1.8 1.3-0.8 2.1-0.3 2.1 0.9 0 1.2-0.8 2.5-1.6 3.9l-0.6 0.9 2.3-1.3v1.3z"/><path fill-rule="evenodd" class="f" d="m122.7 86.5v-1.6l-2.6 1.5v-1l2.2-5.5 1.7-1v4l0.7-0.4v1.2l-0.7 0.4v1.7zm0-2.9v-1.5q0-0.6 0.1-1.3h-0.1c-0.2 0.6-0.3 1.1-0.5 1.6l-0.8 2z"/><path fill-rule="evenodd" class="m" d="m102 89.8l28.6-16.5v10.2l-28.6 16.5zm28-15.4l-27.4 15.8v8.8l27.4-15.8z"/><path class="n" d="m80.1 115.9l-4.7 2.7-17.1-6.9 4.7-2.7z"/><path class="n" d="m94.2 107.8l-10 5.7-17.1-6.9 10-5.7z"/><path class="n" d="m153.4 56.8l9.9-5.7 17.1 6.9-9.9 5.8z"/><path class="n" d="m141.8 63.5l4.7-2.7 17.1 6.9-4.7 2.7z"/></svg>