<svg version="1.2" xmlns="http://www.w3.org/2000/svg" viewBox="0 0 4864 4291" width="4864" height="4291"><style>.a{fill:#54747f}.b{fill:#b6b7b2}.c{fill:#e7e4e0}.d{fill:#d8d9d3}.e{fill:#fefdff}.f{fill:#948ea2}.g{fill:#b6bccc}.h{fill:#f50003}.i{fill:#0100ff}.j{fill:#595563}.k{fill:#efedea}.l{fill:#dddddb}.m{fill:#5b8485}.n{fill:#bfdee1}.o{fill:#aad2d4}.p{fill:#f4840b}.q{fill:#e8bb4d}.r{fill:#768c8b}.s{fill:#639999}.t{fill:#45636b}</style><path class="a" d="m0 4122.1c0 92.9 805.3 168.2 1798.7 168.2 993.4 0 1798.7-75.3 1798.7-168.2 0-92.8-805.3-168.1-1798.7-168.1-993.4 0-1798.7 75.3-1798.7 168.1z"/><path class="a" d="m3514.2 3593.7c0 83.6 302.1 151.4 674.7 151.4 372.7 0 674.8-67.8 674.8-151.4 0-83.6-302.1-151.4-674.8-151.4-372.6 0-674.7 67.8-674.7 151.4z"/><path class="b" d="m2339.7 4012.7c0 55.4 20.3 140.1 151.9 140.1 131.5 0 324.4-84.7 324.4-140.1 0-55.4-106.6-100.3-238.2-100.3-131.5 0-238.1 44.9-238.1 100.3z"/><path class="b" d="m1135.6 4012.7c0 55.4-20.3 140.1-151.9 140.1-131.5 0-324.4-84.7-324.4-140.1 0-55.4 106.6-100.3 238.2-100.3 131.5 0 238.1 44.9 238.1 100.3z"/><path class="c" d="m400.3 3246.5c84.3 173 378.4 529.8 1371.4 529.8 993 0 1384.3-356.8 1515.8-529.8h204.1c0 442-341.5 802-762.7 802h-1921.3c-421.2 0-762.7-360-762.7-802z"/><path class="d" d="m1771.7 3776.3c-993 0-1287.1-356.8-1371.4-529.8h2887.2c-131.5 173-522.8 529.8-1515.8 529.8z"/><path class="e" d="m44.8 3246.3c0 55 770 99.6 1719.9 99.6 949.8 0 1726.9-44.4 1726.9-99.4 0-55-777.1-99.8-1726.9-99.8-949.9 0-1719.9 44.6-1719.9 99.6z"/><path class="f" d="m888.5 2858c0-29.6-23.9-53.5-53.5-53.5h-443c-29.6 0-53.5 23.9-53.5 53.5 0 29.6 23.9 53.5 53.5 53.5h443c29.6 0 53.5-23.9 53.5-53.5z"/><path class="g" d="m297.7 2839c4.2-22.3 15.8-42 32.1-56.4 17.6 15.4 40.6 24.7 65.8 24.7 25.3 0 48.4-9.4 66-24.9 16.6 14.6 28.3 34.5 32.4 57.2-39.1 13.5-67.2 50.6-67.2 94.3 0 6.1 0.6 12 1.6 17.8-10.2 3.5-21.2 5.5-32.6 5.5-10.8 0-21.2-1.8-30.9-4.9 1.1-6 1.6-12.1 1.6-18.4 0-44.3-28.8-81.8-68.8-94.9z"/><path class="h" d="m359.9 2858.6c0 18.5 15 33.5 33.5 33.5 18.6 0 33.6-15 33.6-33.5 0-18.6-15-33.6-33.6-33.6-18.5 0-33.5 15-33.5 33.6z"/><path class="g" d="m728.6 2839c4.1-22.3 15.7-42 32.1-56.4 17.5 15.4 40.5 24.7 65.7 24.7 25.3 0 48.4-9.4 66-24.9 16.6 14.6 28.3 34.5 32.4 57.2-39.1 13.5-67.2 50.6-67.2 94.3 0 6.1 0.6 12 1.6 17.8-10.2 3.5-21.1 5.5-32.6 5.5-10.8 0-21.2-1.8-30.9-4.9 1.1-6 1.7-12.1 1.7-18.4 0-44.3-28.9-81.8-68.8-94.9z"/><path class="i" d="m790.7 2858.6c0 18.5 15 33.5 33.6 33.5 18.5 0 33.5-15 33.5-33.5 0-18.6-15-33.6-33.5-33.6-18.6 0-33.6 15-33.6 33.6z"/><path class="g" d="m986.7 3078.8c0 0-214.9 0.3-300.1 0-91.5-0.4-72.9-99-72.9-99l0.1-67.3h35.7v67l0.2 1.9-0.3 2.3c-0.9 8.7-0.7 35.8 11.2 49.1 3.5 3.9 9.9 8.7 26 8.7h300.1l0.7 0.3c5.3 0.1 32.7 1.8 60.3 22.3 24.7 18.3 54.1 55.7 54.2 129.5h-36.3c-0.9-123.1-78.9-114.8-78.9-114.8z"/><path class="f" d="m577.5 2977.6v-65.1h36.3l-0.1 67.3c0 0-18.6 98.8 72.9 99.2 85.2 0.3 300.1-0.1 300.1-0.1 0 0 78-8.3 78.9 114.8h-36.5c0-32.8-7.8-57-22.6-69.4-9.2-7.9-18.9-9.8-21.1-9.8h-298.8c-41.9 0-66.6-18.1-80.2-33.4-32.9-37-30.9-90.2-28.9-103.5z"/><path class="f" d="m1128.5 3181.3c0-7.6-6.2-13.8-13.8-13.8h-107.4c-7.6 0-13.8 6.2-13.8 13.8v27.4c0 7.6 6.2 13.8 13.8 13.8h107.4c7.6 0 13.8-6.2 13.8-13.8z"/><path class="g" d="m857.8 496.4c231.7-6.2 243.4 155 244 172.1l-36.3-0.1c0-0.5-1-48.6-39.9-86.6-35.4-34.5-91.5-51-166.8-49-83.9 2.3-144.6 59.3-180.2 169.4-29 89.5-29.6 180.5-29.6 181.4l-0.5 1921.2h-36.4l0.5-1921.3c0 0 0.7-380.4 245.2-387.1z"/><path class="f" d="m576.2 883.5c0-4.1 0.6-101.9 32.6-202.1 19.6-60.9 46.8-110.3 81-146.6 45-47.8 101.2-72.9 167-74.7 50.5-1.4 95.5 4.6 133.7 17.8 33.8 11.7 62.7 29.1 86 51.8 25.3 24.8 44 56.2 54 91 7.6 26.2 7.8 45.7 7.7 47.9l-36.4-0.1c-0.6-17.1-12.3-178.3-244-172.1-244.5 6.7-245.2 387.1-245.2 387.1l-0.5 1921.3h-36.4z"/><path class="g" d="m1003.9 669.8l202.9-60.9c78.3-23.6 234.6-11.2 273.6 56.9l-675.3 202.7c-4.9-78.3 120.4-175.2 198.8-198.7z"/><path class="f" d="m805.7 870.5c-4.6-15.5 142.8-73.6 329.2-129.5 186.5-56 341.5-88.8 346.1-73.3 4.7 15.6-142.7 73.6-329.1 129.6-186.5 56-341.5 88.8-346.2 73.2z"/><path class="j" d="m1424.3 685.5c0.8 2.9 8.1 3.2 16.2 0.8 8.1-2.4 14-6.8 13.1-9.6-0.9-2.9-8.1-3.3-16.2-0.8-8.1 2.4-14 6.7-13.1 9.6z"/><path class="j" d="m1327 703.4c0.8 2.9 8.1 3.3 16.2 0.8 8.1-2.4 13.9-6.7 13.1-9.6-0.9-2.9-8.2-3.2-16.3-0.8-8 2.4-13.9 6.8-13 9.6z"/><path class="j" d="m1272.4 713.9c0.9 2.9 8.2 3.3 16.3 0.9 8.1-2.5 13.9-6.8 13.1-9.7-0.9-2.8-8.2-3.2-16.3-0.8-8.1 2.5-13.9 6.8-13.1 9.6z"/><path class="j" d="m1217.9 730.3c0.9 2.9 8.1 3.3 16.2 0.8 8.1-2.4 14-6.7 13.1-9.6-0.8-2.9-8.1-3.2-16.2-0.8-8.1 2.4-14 6.7-13.1 9.6z"/><path class="j" d="m1164.6 746.3c0.9 2.9 8.1 3.3 16.2 0.8 8.1-2.4 14-6.7 13.1-9.6-0.8-2.9-8.1-3.2-16.2-0.8-8.1 2.4-14 6.7-13.1 9.6z"/><path class="j" d="m1116.2 760.8c0.9 2.9 8.2 3.3 16.3 0.9 8.1-2.5 13.9-6.8 13.1-9.7-0.9-2.8-8.2-3.2-16.3-0.8-8.1 2.5-13.9 6.8-13.1 9.6z"/><path class="j" d="m1066.2 775.9c0.9 2.8 8.2 3.2 16.3 0.8 8.1-2.5 13.9-6.8 13.1-9.6-0.9-2.9-8.2-3.3-16.3-0.9-8.1 2.5-13.9 6.8-13.1 9.7z"/><path class="j" d="m1012.1 792.1c0.9 2.9 8.1 3.3 16.2 0.8 8.1-2.4 14-6.7 13.1-9.6-0.8-2.9-8.1-3.2-16.2-0.8-8.1 2.4-14 6.7-13.1 9.6z"/><path class="j" d="m961.3 807.4c0.8 2.9 8.1 3.2 16.2 0.8 8.1-2.4 14-6.8 13.1-9.6-0.9-2.9-8.1-3.3-16.2-0.8-8.1 2.4-14 6.7-13.1 9.6z"/><path class="j" d="m908.8 829c0.8 2.9 8.1 3.2 16.2 0.8 8.1-2.4 13.9-6.7 13.1-9.6-0.9-2.9-8.1-3.2-16.2-0.8-8.1 2.4-14 6.7-13.1 9.6z"/><path class="j" d="m860.8 849.3c0.8 2.8 8.1 3.2 16.2 0.8 8.1-2.5 14-6.8 13.1-9.6-0.9-2.9-8.1-3.3-16.2-0.9-8.1 2.5-14 6.8-13.1 9.7z"/><path class="j" d="m820.9 866.6c0.9 2.9 8.2 3.3 16.3 0.8 8.1-2.4 13.9-6.7 13.1-9.6-0.9-2.9-8.2-3.2-16.3-0.8-8.1 2.4-13.9 6.7-13.1 9.6z"/><path class="j" d="m889.1 852c0.9 2.9 8.1 3.3 16.2 0.8 8.1-2.4 14-6.7 13.1-9.6-0.8-2.9-8.1-3.2-16.2-0.8-8.1 2.4-14 6.7-13.1 9.6z"/><path class="j" d="m942.4 841.9c0.8 2.9 8.1 3.2 16.2 0.8 8.1-2.4 13.9-6.7 13.1-9.6-0.9-2.9-8.1-3.3-16.2-0.8-8.1 2.4-14 6.7-13.1 9.6z"/><path class="j" d="m990.7 827.4c0.9 2.8 8.1 3.2 16.2 0.8 8.1-2.5 14-6.8 13.1-9.6-0.8-2.9-8.1-3.3-16.2-0.8-8.1 2.4-14 6.7-13.1 9.6z"/><path class="j" d="m1046.3 816.1c0.9 2.9 8.2 3.2 16.3 0.8 8.1-2.4 13.9-6.8 13.1-9.6-0.9-2.9-8.2-3.3-16.3-0.8-8.1 2.4-13.9 6.7-13.1 9.6z"/><path class="j" d="m1108.4 797.9c0.9 2.9 8.2 3.2 16.3 0.8 8.1-2.4 13.9-6.8 13.1-9.6-0.9-2.9-8.2-3.3-16.3-0.8-8.1 2.4-13.9 6.7-13.1 9.6z"/><path class="j" d="m1159.7 782.5c0.8 2.9 8.1 3.2 16.2 0.8 8.1-2.4 14-6.7 13.1-9.6-0.9-2.9-8.1-3.3-16.2-0.8-8.1 2.4-14 6.7-13.1 9.6z"/><path class="j" d="m1203.5 769.3c0.8 2.9 8.1 3.3 16.2 0.8 8.1-2.4 14-6.7 13.1-9.6-0.9-2.8-8.1-3.2-16.2-0.8-8.1 2.5-14 6.8-13.1 9.6z"/><path class="j" d="m1255.2 748c0.8 2.8 8.1 3.2 16.2 0.8 8.1-2.5 14-6.8 13.1-9.6-0.9-2.9-8.1-3.3-16.2-0.9-8.1 2.5-14 6.8-13.1 9.7z"/><path class="j" d="m1305.9 732.3c0.8 2.9 8.1 3.2 16.2 0.8 8.1-2.4 14-6.7 13.1-9.6-0.9-2.9-8.1-3.3-16.2-0.8-8.1 2.4-14 6.7-13.1 9.6z"/><path class="j" d="m1353.8 717.9c0.9 2.9 8.1 3.2 16.2 0.8 8.1-2.4 14-6.7 13.1-9.6-0.8-2.9-8.1-3.3-16.2-0.8-8.1 2.4-13.9 6.7-13.1 9.6z"/><path class="j" d="m1246.3 733.5c0.9 2.9 8.2 3.2 16.3 0.8 8.1-2.4 13.9-6.7 13.1-9.6-0.9-2.9-8.2-3.3-16.3-0.8-8.1 2.4-13.9 6.7-13.1 9.6z"/><path class="j" d="m1198.4 752.4c0.9 2.9 8.1 3.2 16.2 0.8 8.1-2.4 14-6.7 13.1-9.6-0.8-2.9-8.1-3.3-16.2-0.8-8.1 2.4-14 6.7-13.1 9.6z"/><path class="j" d="m1143.7 769.7c0.8 2.9 8.1 3.3 16.2 0.8 8.1-2.4 14-6.7 13.1-9.6-0.9-2.9-8.1-3.2-16.2-0.8-8.1 2.4-14 6.7-13.1 9.6z"/><path class="j" d="m1085.5 787.6c0.9 2.9 8.2 3.3 16.3 0.8 8.1-2.4 13.9-6.7 13.1-9.6-0.9-2.9-8.2-3.2-16.3-0.8-8.1 2.4-13.9 6.8-13.1 9.6z"/><path class="j" d="m1034.8 801.5c0.8 2.9 8.1 3.3 16.2 0.8 8.1-2.4 13.9-6.7 13.1-9.6-0.9-2.9-8.1-3.2-16.2-0.8-8.1 2.4-14 6.7-13.1 9.6z"/><path class="j" d="m986 811.7c0.9 2.8 8.1 3.2 16.2 0.8 8.1-2.5 14-6.8 13.1-9.6-0.8-2.9-8.1-3.3-16.2-0.9-8.1 2.5-14 6.8-13.1 9.7z"/><path class="j" d="m1378.3 693.3c0.8 2.7 8.2 2.8 16.5 0.4 8.2-2.5 14.3-6.7 13.5-9.4-0.8-2.8-8.2-2.9-16.5-0.4-8.3 2.4-14.3 6.6-13.5 9.4z"/><path class="c" d="m3726.4 2170.5c43.2 206 220.7 361 433.3 361 212.5 0 390.1-155 433.2-361h212.4c-30.6 260-175.8 463.4-645.6 463.4-527.2 0-614.9-203.4-645.5-463.4z"/><path class="d" d="m4159.7 2531.5c-212.6 0-390.1-155-433.3-361h866.5c-43.1 206-220.7 361-433.2 361z"/><path class="e" d="m3514.2 2183.9c0 51.1 289 92.6 645.5 92.6 356.6 0 645.6-41.5 645.6-92.6 0-51.2-289-92.6-645.6-92.6-356.5 0-645.5 41.4-645.5 92.6z"/><path class="c" d="m4035.5 2977.6c43.7-92.7 95-170.1 150-192.1v839.1c-152 0-238-104.4-238-104.4 88.4-145.1 100.1-358.8 88-542.6z"/><path class="d" d="m4035.5 2977.6c-13.2-201.4-54.8-366.9-54.8-366.9l204.8-0.1v174.9c-55 22-106.3 99.4-150 192.1z"/><path class="k" d="m4345.1 2874.1c-22.9 201.3-27.1 472.6 78.6 646.1 0 0-85.2 104.4-238.2 104.4v-839.1c68-27.1 121.2 22.3 159.6 88.6z"/><path class="l" d="m4185.5 2785.5v-174.9l205.1 0.1c0 0-28.2 111.8-45.5 263.4-38.5-66.3-91.6-115.7-159.6-88.6z"/><path class="f" d="m4401.5 1760.5c0-23.2-18.8-42-42-42h-352c-23.2 0-42 18.8-42 42 0 23.2 18.8 42 42 42h352c23.2 0 42-18.8 42-42z"/><path class="g" d="m3934.2 1745.2c3.3-17.7 12.5-33.3 25.4-44.8 13.9 12.3 32.2 19.7 52.2 19.7 20 0 38.3-7.5 52.3-19.8 13.1 11.5 22.4 27.4 25.6 45.3-30.9 10.7-53.2 40.1-53.2 74.8q0 7.2 1.3 14.1c-8.1 2.8-16.8 4.3-25.9 4.3-8.5 0-16.8-1.4-24.5-3.9q1.3-7.1 1.3-14.5c0-35.1-22.8-64.9-54.5-75.2z"/><path class="h" d="m3983.5 1760.7c0 14.6 11.9 26.6 26.6 26.6 14.6 0 26.5-12 26.5-26.6 0-14.7-11.9-26.6-26.5-26.6-14.7 0-26.6 11.9-26.6 26.6z"/><path class="g" d="m4275.7 1745.2c3.3-17.7 12.4-33.3 25.4-44.8 13.9 12.3 32.1 19.7 52.1 19.7 20.1 0 38.4-7.5 52.3-19.8 13.2 11.5 22.5 27.4 25.7 45.3-31 10.7-53.2 40.1-53.2 74.8q0 7.2 1.2 14.1c-8.1 2.8-16.8 4.3-25.8 4.3-8.6 0-16.8-1.4-24.5-3.9q1.3-7.1 1.3-14.5c0-35.1-22.9-64.9-54.5-75.2z"/><path class="i" d="m4324.9 1760.7c0 14.6 11.9 26.6 26.6 26.6 14.7 0 26.6-12 26.6-26.6 0-14.7-11.9-26.6-26.6-26.6-14.7 0-26.6 11.9-26.6 26.6z"/><path class="g" d="m4480.2 1935.2c0 0-170.3 0.3-237.8 0-72.5-0.3-57.8-78.9-57.8-78.9l0.1-53.8h28.8v54l-0.1 1.5-0.3 1.8c-0.8 7-0.7 28.9 8.8 39.4 2.7 3 7.8 7.3 20.5 7.3h237.8l0.6-0.2c4.2 0.1 25.9 1.2 47.8 17.5 19.6 14.5 42.9 44 42.9 102.5h-28.7c-0.8-97.6-62.6-91.1-62.6-91.1z"/><path class="f" d="m4154.5 1855v-52.5h30.2l-0.1 53.8c0 0-14.7 78.5 57.8 78.8 67.5 0.3 237.8 0.1 237.8 0.1 0 0 61.8-6.6 62.6 91l-29 0.1c0-26.1-6.1-45.2-17.8-55.1-7.4-6.2-15.1-7.7-16.8-7.7h-236.8c-33.2 0-53.5-14.3-64.3-26.4-26-29.4-23.6-71.5-23.6-82.1z"/><path class="f" d="m4592.5 2016.5c0-6.1-4.9-11-11-11h-85c-6.1 0-11 4.9-11 11v21c0 6.1 4.9 11 11 11h85c6.1 0 11-4.9 11-11z"/><path class="m" d="m3551.9 606.2c20.9-108.9 58.5-209 109-295 32.5-55.5 70.4-105.2 112.6-147.7 101.5-102.1 228-162.7 365.1-162.7 334.4 0 605.4 360.3 605.4 804.8 0 27.5-1 54.6-3 81.3-5.7 74.7-19 146.3-38.9 213.5-22 74.4-52.2 143.4-89 205.1-65.6 109.9-152.3 196.5-252 248.9-68.9 36.2-144 56.1-222.5 56.1-313.3 0-571-316.3-602.2-721.8-2.1-27.3-3.2-55-3.2-83.1 0-68.8 6.5-135.6 18.7-199.4z"/><path class="n" d="m3820.5 171.5l967.5 723.4c-5.7 74.7-19 146.3-38.9 213.5l-1041.2-789.2c32.5-55.5 70.4-105.2 112.6-147.7z"/><path class="o" d="m4185.6 8.8c334.4 0 605.4 360.3 605.4 804.8 0 27.5-1 54.6-3 81.3l-967.5-723.4c101.5-102.1 228-162.7 365.1-162.7z"/><path class="n" d="m4089.7 1263.3l-506.3-366.6c-2.1-27.3-3.2-55-3.2-83.1 0-68.8 6.5-135.6 18.7-199.4l1061.2 699.3c-65.6 109.9-152.3 196.5-252 248.9l-617.1-380.9z"/><path class="o" d="m4089.7 1263.3l-298.7-81.8 617.1 380.9c-68.9 36.2-144 56.1-222.5 56.1-313.3 0-571-316.3-602.2-721.8z"/><path class="o" d="m3707.9 319.2l1041.2 789.2c-22 74.4-52.2 143.4-89 205.1l-1061.2-699.3c20.9-108.9 58.5-209 109-295z"/><path class="f" d="m3273.3 2204.5c-55.5 0-334.7 0-334.7 0h-1.7c0 0-279.2 0-334.7 0-55.5 0-67.7-61-67.7-61v-61h25v56.2c1 3.9 3.6 11.1 8.5 18 8.5 12 19.5 17.8 34.2 17.8h671.1c14.7 0 26.5-5.8 35-17.8 4.8-6.9 7.2-14.1 9.2-18v-56.2h24v61c0 0-12.7 61-68.2 61z"/><path class="g" d="m2534.5 2082.5v61c0 0 12.2 61 67.7 61 55.5 0 334.7 0 334.7 0h1.7c0 0 279.2 0 334.7 0 55.5 0 68.2-61 68.2-61v-61h25v64.7l-0.8 3.6c-0.4 2.2-4.8 22.2-18 41.9-12.6 19.1-35.8 41.8-74.4 41.8h-671.1c-38.6 0-61.7-22.7-74.4-41.8-13.1-19.7-17.8-39.7-18.3-41.9l-1-3.6v-64.7z"/><path class="p" d="m3059 2636.5l-27.6 17 5.7-27.4 25.5-123.6h-0.1v-0.5l0.1-0.3-33.2 15.8 31.1-141h-0.1l-0.2-0.3v-0.5l-0.2-0.2v-0.1l-28.8 9.7 21.8-136v0.1-0.1l-0.1 0.1 0.1-0.1h-0.1v0.1l-24.8 18.4 22-129.1h94.8l-21.7 127.4v-0.1 0.1l24.9-18.5-22 135.9-0.1 0.1 0.1 0.1 0.2-0.1v0.2l29-9.7-23.2 106.8-7.6 34.6v-0.8h-0.1l0.1 0.4v0.2l0.1-0.4-0.1-0.2 7.6-3 25.3-10.9-24.8 11 25.1-11.5-25 121.9-6.2 30.1 27.7-17.4-0.8 5.5-18.5 139.3h-0.1l21.9-18.2-17.1 122.5 20.6-15.1-0.1 77.8c-1-0.1-2-0.3-3-0.4-33.4-4.6-63.8-3.6-92.1 0.8l0.1-76.4-20.7 15 17.2-122.4-21.8 18.2 18.5-139.7z"/><path class="q" d="m3154.2 2634.7l-27.6 17 5.7-27.5 25.5-123.7h0.7v-0.2h-0.4l-0.2-0.3-33.2 15.2 31-141.3-0.1-0.1-0.3 0.1 0.3-0.2-0.1-0.1-29 9.7 21.8-136h-0.1 0.2l0.1 0.1-0.1-0.1h-0.2l-0.1 0.1-24.9 18.4 21.7-127.3h53.3c0 0 6.8 0.8 13.8 9.2 7.1 8.3 4.9 17.6 4.9 23.8 0 276.5 14.1 575.5 64.7 813.5-9.5-11.2-38.2-26.7-121.4-38.5l0.3-77.8v-0.2h-0.1l-20.8 15.3 17.2-122.3-21.9 18.1 18.6-139.8z"/><path class="p" d="m2822.2 2912.7l-21.8 16.2 18.8-130.7-22.9 19.3 21-154.1-29.2 18.9 33.8-161.5v-0.4l-0.1-0.3v-0.6h-0.3v0.6l-34.7 16.7 32.4-146.1 1.1-4.8-0.2 0.1-0.2-0.2-0.4-0.1-30.2 10.7 23.9-145.1v0.1l0.1-0.1-0.1 0.1 0.1-0.1h-0.1v0.1l-26.3 19.9 23.1-132.8h106.8l-14.3 83.9h-0.1l14.9-11.3 11.4-8.7-23.9 145.3 0.3-0.1v0.3l30.4-10.4-0.3 0.2-30.1 10.2h0.1l30-10.2 0.4-0.4-33.4 150.2v0.2l0.1 0.2 0.2 0.1 5.5-2.5 29.1-13.4h-0.1l-29.2 13.4-5.4 2.5 34.8-16.4-3.9 18.6-30 143.4v-0.1 0.1 0.1l18.1-11.8 10.9-7-21.2 154 0.5-0.4-0.1 0.6 22.9-19.4-18.8 130.3 0.1-0.1v0.1l21.8-16.1-0.8 123.1c-38.3 15.4-76.2 30-115.2 34.9 0 0-0.1 0-0.1 0z"/><path class="q" d="m2915.7 2879.9l18.9-130.4-0.3 0.2 0.1-0.3-22.8 19.5 21-153.4h-0.1v-0.5h-0.2v-0.2l-10.9 7.2-18 11.5 31.3-150.1 2.5-11.9h0.3v-0.1l-35.2 16.6 2.1-9.5 31.6-141.1h0.2v0.1l-0.2-0.2-0.1 0.2-0.3 0.1 0.1-0.6-30.6 10.6 23.7-145.1-0.1-0.1-26.4 19.9 14.6-83.8h108.8l-0.1 0.5h-0.1l0.2 0.1 0.1 0.4v-0.2l0.7-0.8h23.5l-22 129.2v-0.1 0.1l24.9-18.5-22 135.9-0.1 0.1 0.1 0.1 0.3-0.1-0.1 0.2 29.1-9.7-23.3 106.8-7.5 34.6h0.1v-0.6h-0.3l0.1 0.3v0.1l0.1-0.3v-0.1l7.5-3.1 25.4-11-0.1 0.1-24.7 10.9 25-11.5-25 121.8-6.4 29.8h-0.6v0.4l28.1-17.4-0.6 5.6-18.4 139.4 21.9-18.3-17.1 122.4 20.7-15.1-0.2 76.5c-47 7.3-88.3 24.1-128.3 40.1l0.9-123.3v0.1-0.1z"/><path class="q" d="m2809.9 2138.5l-23 132.8v0.1l26.3-20-23.9 145-0.2 0.1h0.1 0.3l-0.1 0.2v-0.1 0.1l30.7-10.7-33 150-0.3 2.5 0.1-0.8-0.3-0.3-0.1-0.3 1.2-0.4 33.8-15.3-33.6 162.1-0.1-0.6-0.3-0.5 29.4-18.9-20.9 154h0.1l23-19.3-18.8 130.7 21.8-16.2-0.8 109.1c-5.6 0.7-11.3 1.3-17 1.6-114.4 5.6-161.9-50.5-161.9-50.5 0 0 24.3-421.6 34-811.5 0.1-5.3-0.4-7.6 5.6-16.1 6-8.6 18.2-6.8 18.2-6.8z"/><path class="f" d="m3851.1 1817.2c-2.8-5.6-6.8-10.1-11.8-13.7-12.8-9.2-27.9-9-33.1-8h-101.7v-9h-31v55h31v-18h102.7l1.1-0.2 1.4-0.4c0.9-0.1 6.7-0.5 10.5 2.3 3.9 2.9 5 8.9 5.3 13.5l30.7-1.4c-0.4-7.6-2.1-14.4-5.1-20.1z"/><path class="r" d="m3668 1843.8c-31.5 8.2-54.5 34.2-54.5 65.1v151.2c0 29.4 21 54.3 50 63.8v-218.3c0 0-2.8-32.2 4.5-61.8z"/><path class="s" d="m3689 1841.1c-7.3 0-14.3 0.9-21.1 2.7-7.2 29.6-4.4 61.8-4.4 61.8v218.3c8 2.6 16.6 4.1 25.6 4.1 41.7 0 75.4-30.4 75.4-67.9v-151.2c0-37.5-33.7-67.8-75.5-67.8z"/><path class="a" d="m3597.5 2041.5v106h126v-106z"/><path class="t" d="m3781.5 2041.5h-58v106h58z"/></svg>