<svg version="1.2" xmlns="http://www.w3.org/2000/svg" viewBox="0 0 431 284" width="431" height="284"><style>tspan{white-space:pre}.a{fill:#0290be}.b{opacity:.5;mix-blend-mode:multiply;fill:#99c1a1}.c{fill:#af452f}.d{fill:#efdf9c}.e{fill:#d6bb78}.f{fill:#b3ebec}.g{fill:#95d2db}.h{fill:#1d1d1d}.i{fill:#024787}.j{fill:#0057a5}.k{fill:#f4dc4e}.l{fill:#e2db83}.m{fill:#ce995f}.n{fill:#a3c6ce}.o{fill:#e5372e}.p{fill:#364d60}.q{fill:#d8c568}.r{fill:#b2934f}.s{fill:#ffaf7a}.t{fill:#f1845b}.u{fill:#f9c032}.v{fill:#fff066}.w{fill:#ffd939}.x{fill:#5f1e34}.y{fill:#966c50}.z{fill:#6d81a4}.A{fill:#b3c4e0}.B{fill:#ff7a7b}.C{fill:#fff}.D{fill:#f4ad31}.E{fill:#f9c535}.F{fill:#ffe448}.G{fill:#fccf3f}.H{fill:#6d4129}.I{fill:#419193}.J{fill:#6bb2ab}.K{fill:#5e2939}.L{fill:#472231}.M{fill:#c45a35}.N{fill:#323c56}.O{fill:#efc130}.P{fill:#e2a92b}.Q{fill:#7798af}.R{fill:#1f3144}.S{fill:#912424}.T{fill:#a0382a}.U{fill:#d88850}</style><path class="a" d="m430.3 283.8h-404.9v-12.5h404.9z"/><path class="b" d="m327.3 123l-178 2.5-6.9-119.8 184.7 5.3z"/><path class="c" d="m329.3 120.1l-178.1 2.5-4.9-121.8 184.8 5.3z"/><path class="d" d="m321.4 116l-162.9 1.5-4.5-111.6 169 5.6z"/><path class="e" d="m158.5 117.5l-4.5-111.6 169.3 4.8-1.6 104.5-2.2-100.4-160.9-5z"/><path class="e" d="m270.5 20.7c0 0-6.3 10.5 4.9 16.4 0 0-2.4 28.2-2.4 32.1-0.1 3.9 0.8 13 5.3 13.2 4.5 0.3 5.4-6.6 5.4-6.6l-7.7-46z"/><path class="e" d="m286.1 17.1l-1.9 1 0.6 6.9 2.3-1.9z"/><path class="f" d="m276.7 34.8c0 0-1.7 25.8-1.8 32.5-0.1 6.3 0.7 13.4 4.3 13.6 3.7 0.1 6.7-1.8 5.5-14-1.3-12.1-2.6-32.5-2.6-32.5 0 0 14-4.6 5.5-18.4l-2.1 0.8 0.7 5.4-3.7 4.6-6.5 0.1-2.8-4 1.7-6.3-2.7-0.6c0 0-9.3 12.5 4.5 18.8z"/><path class="g" d="m278.1 35.1c0 0 1.6 0.1 2.6-0.3 0 0 1.6 30 1.7 32.8 0.2 2.7 0.6 9.5-2.2 9.5-3.4 0-3.3-10.4-3.2-12.8 0.2-2.5 1.1-29.2 1.1-29.2z"/><path class="g" d="m272.5 28.8c0.4 1.9 2.4 4.3 7.1 4.3 5 0 8-4.1 7.5-5.5-0.6-1.4-3.4 2.2-7.3 2.3-4.9 0.1-7.9-4.5-7.3-1.1z"/><path class="h" d="m288.1 34.7c0 1.3-1.7 1.4-3.8 1.4-2.1 0.1-3.9 0-3.9-1.2 0-1.2 1.7-1.4 3.8-1.5 2.1 0 3.9 0.2 3.9 1.3z"/><path class="h" d="m270.2 35.1c0.1 1.4 1.8 1.3 3.9 1.2 2.1-0.1 3.9-0.2 3.8-1.5-0.1-1.2-1.8-1.3-3.9-1.2-2.1 0.1-3.8 0.4-3.8 1.5z"/><path class="e" d="m247.6 20c0 0-5.8 9.2 3.7 14.3 0 0-2 24-2.1 27.3 0 3.3 1.1 11.7 5 11.9 3.8 0.2 4.6-6.2 4.6-6.2l-6.5-39.5z"/><path class="e" d="m260.9 16.9l-2.1 0.9 0.5 6.2 2.5-1.9z"/><path class="f" d="m252.9 32.1c0 0-1.5 22.1-1.6 27.9 0 5.4 0.6 11.4 3.7 11.6 3.1 0.1 5.8-1.6 4.7-12-1.1-10.3-2.2-27.8-2.2-27.8 0 0 12-4 4.7-15.8l-1.8 0.7 0.6 4.6-3.1 4-5.6 0.1-2.4-3.5 1.4-5.4-2.3-0.5c0 0-7.9 10.7 3.9 16.1z"/><path class="g" d="m254.1 32.3c0 0 1.4 0.1 2.2-0.2 0 0 1.4 25.7 1.5 28.1 0.1 2.4 0.5 8.1-2 8.1-2.8 0-2.8-8.8-2.7-11 0.1-2.1 1-25 1-25z"/><path class="g" d="m249.3 27c0.3 1.6 2 3.6 6.1 3.6 4.3 0.1 6.8-3.5 6.3-4.7-0.4-1.2-2.8 2-6.2 2-4.2 0.1-6.8-3.8-6.2-0.9z"/><path class="h" d="m262.6 32c0 1.2-1.4 1.2-3.2 1.2-1.9 0.1-3.4 0.1-3.4-1 0-1 1.5-1.2 3.3-1.3 1.8 0 3.3 0.2 3.3 1.1z"/><path class="h" d="m247.3 32.4c0.1 1.1 1.5 1.1 3.4 1 1.8-0.1 3.3-0.2 3.2-1.3-0.1-1-1.5-1.1-3.3-1-1.8 0.1-3.3 0.4-3.3 1.3z"/><path class="e" d="m225.7 21.1c0 0-4.5 7.7 3.6 11.9 0 0-1.7 20.6-1.8 23.5 0 2.8 0.6 9.4 3.9 9.6 3.3 0.2 3.9-4.8 3.9-4.8l-5.6-33.6z"/><path class="e" d="m237.1 17.9l-1.4 0.7 0.4 5 1.7-1.3z"/><path class="f" d="m230.3 30.8c0 0-1.3 18.8-1.4 23.7 0 4.6 0.5 9.7 3.2 9.9 2.6 0.1 4.9-1.3 3.9-10.2-0.9-8.8-1.8-23.7-1.8-23.7 0 0 10.2-3.4 4-13.4l-1.5 0.5 0.4 4-2.6 3.4h-4.8l-2-2.9 1.2-4.6-1.9-0.4c0 0-6.8 9.1 3.3 13.7z"/><path class="g" d="m231.3 31c0 0 1.1 0 1.9-0.2 0 0 1.1 21.9 1.2 23.9 0.1 2 0.4 6.9-1.6 6.9-2.5 0-2.4-7.5-2.3-9.3 0.1-1.8 0.8-21.3 0.8-21.3z"/><path class="g" d="m227.2 26.4c0.2 1.4 1.7 3.1 5.2 3.1 3.6 0 5.8-2.9 5.4-4-0.4-1-2.5 1.7-5.3 1.7-3.6 0.1-5.8-3.3-5.3-0.8z"/><path class="h" d="m238.5 30.7c0 1-1.2 1-2.7 1.1-1.6 0-2.9 0-2.9-1 0-0.8 1.3-1 2.8-1 1.6-0.1 2.8 0.1 2.8 0.9z"/><path class="h" d="m225.5 31c0.1 1 1.3 0.9 2.9 0.9 1.5-0.1 2.8-0.2 2.7-1.1 0-0.9-1.3-0.9-2.8-0.9-1.6 0.1-2.8 0.3-2.8 1.1z"/><path class="e" d="m299.7 21.1c0 0-2.7 5.8-1.7 16.1 1 10.2 4.8 42.9 4.8 42.9l-8.8 1.8c0 0-1.6 8.6 1.2 8.8 0 0 1 9.8 7.8 12.3l-0.2-13.2 4.2 0.2c0 0 0.5 12.1 2.3 12.1 1.7 0-9.6-81-9.6-81z"/><path class="e" d="m300.9 24.4c0 0 3.5-2.1 4.8 0 1.6 2.4 0.5 4.2-1.3 4.9h4.7l-2-9-6.2 1.6z"/><path class="g" d="m298 86.8c0 0-2.4 10.5 6 15.3l1.1-15.3z"/><path fill-rule="evenodd" class="f" d="m310.6 102.9c-0.6 0.3-1.3-0.2-1.3-0.8l-1.4-12.3c-0.1-0.5-0.5-0.9-1-0.9l-10.3 0.3c-0.5 0-1-0.5-1-1.1v-7.7c0-0.5 0.4-1 0.8-1.1l6.7-0.9c0.5-0.1 0.9-0.6 0.8-1.2-0.6-6.3-4-40.4-4.7-45.4-0.9-5.6-0.7-14 4.4-14.4 5-0.5 7.1 8.8 7.3 15.6 0.2 6 0.8 37.8 0.9 43.9 0 0.6 0.5 1.1 1 1.1l3.3-0.1c0.4 0 0.8 0.3 0.9 0.7 1.1 3.5 5.2 18.7-6.4 24.3zm-3.5-77.2c0-1.7-1.2-3.1-2.7-3.1-1.5 0-2.8 1.4-2.8 3.1 0 1.7 1.3 3 2.8 3 1.5 0 2.7-1.3 2.7-3z"/><path fill-rule="evenodd" class="g" d="m309.7 78h-3.8c0 0-4.3-41-4.9-47.5-0.5-6.5-0.3-9 3.4-9.4 3.7-0.4 3.8 5.4 4.4 10.4 0.6 5 0.9 46.5 0.9 46.5zm-2.6-52.3c0-1.7-1.2-3.1-2.7-3.1-1.5 0-2.8 1.4-2.8 3.1 0 1.7 1.3 3 2.8 3 1.5 0 2.7-1.3 2.7-3z"/><path class="g" d="m300.1 81.2l13-1.2c0.8 0 1.5 0.7 1.6 1.7l0.1 1.6c0.2 1.1-0.5 2.1-1.3 2.2l-13.2 1.3c-0.9 0.1-1.6-0.8-1.6-2v-1.6c0-1 0.6-1.9 1.4-2z"/><path class="h" d="m306.6 23.7c0 1.5-1.1 2.8-2.5 2.8-1.4 0-2.6-1.3-2.6-2.8 0-1.6 1.2-2.8 2.6-2.8 1.4 0 2.5 1.2 2.5 2.8z"/><path class="e" d="m212.6 19.6c-0.6 0.7-1.7 1.6-1.3 6.2 0.4 4.5 1.1 18.1 2.1 18.4 0 0-3.8 2.4 1.1 3.2l0.2 3.2-2.1 4.4 1.2 14.4 4.4-0.2z"/><path class="f" d="m215.1 46.1l0.3 4.5-1.6 3.1 1.2 14.5h3.6l0.2-14.8-1.9-3 0.3-5.2z"/><path class="g" d="m215.2 47.3h1.9l0.1-1.3-2.1 0.3z"/><path class="i" d="m214.3 45l0.5-2.9h3l0.5 3.2z"/><path class="j" d="m216.2 44.4c1.3 0 2.3-1 2.5-2.3l1.7-20.9c0.1-1.1-0.6-2.2-1.7-2.5l-2.2-0.7q-0.7-0.2-1.4 0l-1.7 0.5c-1.1 0.3-1.9 1.4-1.8 2.6l2.1 21.1c0.1 1.2 1.2 2.2 2.5 2.2z"/><path class="j" d="m213.1 45.4c-0.2 0.7 0.3 1.4 1 1.3 0 0 4.6 0.2 5.1-0.2 0.6-0.4 0.3-1.1 0.3-1.1-0.2-0.4-0.6-0.7-1.1-0.7l-4.3-0.1c-0.5 0-0.9 0.3-1 0.8z"/><path class="k" d="m216.6 42.1c0.5-0.1 0.9-0.6 1-1.1l1.4-17.4c0.1-1.2-0.6-2.3-1.7-2.8-0.8-0.4-1.8-0.3-2.6 0.1l-0.2 0.2c-1 0.5-1.5 1.6-1.4 2.8l2 17.1c0.1 0.7 0.8 1.2 1.5 1.1z"/><path class="e" d="m196.3 18.7c-0.5 0.7-1.7 1.6-1.2 6.2 0.4 4.5 1.1 18.1 2.1 18.4 0 0-2.2 2.5 0.5 3.7v3.6l-1.3 3.5 0.7 17.9h5.5l0.2-2.4z"/><path class="f" d="m198.8 44.9l0.3 4.5-1.6 3.3 0.4 18.2h5.5v-18.4l-1.9-3.5 0.4-4.8z"/><path class="g" d="m198.9 46.2h2.8l0.1-1.3-3 0.2z"/><path class="i" d="m198.5 43.9l0.4-2.9h3l0.5 3.2z"/><path class="j" d="m200.3 43.3c1.3 0 2.4-1 2.5-2.3l1.7-20.9c0.1-1.1-0.6-2.2-1.7-2.5l-2.2-0.7q-0.7-0.2-1.4 0l-1.7 0.5c-1.1 0.3-1.9 1.4-1.8 2.6l2.1 21.1c0.1 1.2 1.2 2.2 2.5 2.2z"/><path class="j" d="m197.2 44.3c-0.2 0.7 0.3 1.4 1 1.3 0 0 4.6 0.2 5.1-0.2 0.6-0.4 0.3-1.1 0.3-1.1-0.2-0.4-0.6-0.7-1.1-0.7l-4.3-0.1c-0.5 0-0.9 0.3-1 0.8z"/><path class="k" d="m200.7 41c0.5-0.1 1-0.6 1-1.1l1.4-17.4c0.1-1.2-0.6-2.3-1.7-2.8-0.8-0.4-1.8-0.3-2.6 0.1l-0.2 0.2c-1 0.5-1.5 1.6-1.4 2.8l2.1 17.1c0 0.7 0.7 1.2 1.4 1.1z"/><path class="e" d="m187.3 36c0 0 2.2 2.2-1 2.9-2.1 0.5-3.7-0.6-3.7-0.6 0 0-10.8 44.5-11.6 44.7-2.5 0.5-4.8-0.8-5.8-1.2-0.3-0.2 0.7-2.8 0.8-3.2l11.7-42.1c0 0-2.7-0.3-3.2-0.9-2.5-3.2-4.6-5-7.3-4.2 0.7-1.1 2.3-3 5-3.8z"/><path class="l" d="m169.8 82.1c-1.7 0.4-3.3 0-5-1.3l13-49.1 5 1.3z"/><path class="m" d="m176.5 36.6c1.2 0.7 2.9 1.3 5.1 1l1.2-4.6-5-1.3z"/><path class="f" d="m177.8 25.3c0.8 0.2 8.2 1.2 8.6 2.3 0.3 1.1-1.7 9-2.4 9.1-0.7 0.2-8.6-1.8-9.1-2.4-0.4-0.6 2.1-9.2 2.9-9z"/><path class="h" d="m184.9 37.9c0 1.2-1 2.3-2.3 2.3-1.3 0-2.3-1.1-2.3-2.3 0-1.3 1-2.3 2.3-2.3 1.3 0 2.3 1 2.3 2.3z"/><path class="f" d="m185.2 29c0 0 1.3 0.4 1.6 0.1 0.2-0.1 0.4-1 0.5-1.4 0.1-0.9 3.8-0.2 3.8 0.5 0 0.8-1.6 9.3-2.4 9.6-0.3 0.2-3 0-3.4-0.6-0.1-0.4 0.1-1.4 0-1.7-0.1-0.4-0.7-0.5-1.4-0.5-1.3 0 1.3-6 1.3-6z"/><path class="f" d="m177.7 26.5c0 0-6.7-5-11 3.2 0 0 6.8-1.2 8.7 4.2z"/><path fill-rule="evenodd" class="e" d="m255 101.6c-0.8 1.6-4.1 2-4.1 2l-1.5 4.9-2.3-8-2.7 7.5-2.1-5.4-2.1 5.5-1.5-4.7-1.2-4-1.3 4.1-1.4 4.9-1.5-4.8-1.1-3.5-1 3.6-1.5 4.9-2.9-6.9-2.5 7.1-1.5-4.7-0.6-2.1-0.7 2.1-1.5 4.9-1.4-4.8-1.3-4-1.2 4.1-1.5 5-1.4-4.8-1.3-4.2-1.3 4.3-1.5 4.9-1.5-4.8-1.2-4-1.2 4.1-1.5 4.9-1.5-4.7-0.6-2.1-0.7 2.1-1.4 4.9-1.5-4.8-1.2-4-1.3 4.2-1.4 4.9-1.5-4.8-1.1-3.5-1 3.6-1.5 4.9-1.5-4.8-1.2-4-1.2 4.1-1.5 4.9-1.5-4.8-0.6-2.1-0.7 2.2-1.5 4.9-1.4-4.8-1.3-4-1.2 4.1-1.5 5-1.4-4.8-2.8-8.7 79.8-13.3 2.1-0.5q0 0 0 0v0.1c4.3-0.9 14.1-2.7 15.7-1.5 2.2 1.8 2.5 8.9 2.6 12.5 0 2.1 1.9 2.6 2.1 4.4 0.5 4.5-16.5 1.2-17 2.3zm9.7-15c-0.8-1.4-8.6-0.8-9.1 0-0.4 0.9-0.1 10.2 1.4 11 1.4 0.9 8.4 0.6 8.9-0.9 0.7-2.2-0.5-8.7-1.2-10.1z"/><path class="n" d="m249.9 83.1l-79.8 13.3 2.8 8.7 1.5 4.8 1.4-4.9 1.3-4.1 1.2 4 1.5 4.8 1.5-5 0.6-2.1 0.6 2.1 1.5 4.8 1.5-4.9 1.2-4.2 1.3 4 1.4 4.8 1.5-4.9 1.1-3.5 1 3.4 1.5 4.8 1.5-4.9 1.2-4.1 1.2 4 1.5 4.8 1.5-4.9 0.6-2.2 0.7 2.1 1.4 4.8 1.5-4.9 1.3-4.1 1.2 4 1.5 4.8 1.4-5 1.3-4.3 1.3 4.2 1.5 4.8 1.4-4.9 1.3-4.1 1.2 4 1.5 4.8 1.5-4.9 0.6-2.2 0.7 2.1 1.4 4.8 1.5-4.9 1.2-4.1 1.3 4 1.4 4.7 1.5-4.9 1.1-3.5 1 3.4 1.5 4.8 1.5-4.9 1.2-4.1 1.2 4 1.5 4.8 1.5-4.9 0.6-2.2 0.7 2.1 1.4 4.8 1.5-4.9 1.3-4.1 1.2 4 1.5 4.8 1.4-5z"/><path fill-rule="evenodd" class="o" d="m267.7 81.2c2.3 1.8 2.5 8.9 2.6 12.6 0 2 1.9 2.5 2.1 4.4 0.6 4.4-16.4 1.2-17 2.3-0.8 1.3-3.7 1.1-3.7 1.1l-1.8-18.5c0 0 15.8-3.4 17.8-1.9zm-11.6 4.3c-0.5 0.8-0.1 10.1 1.3 11 1.4 0.8 8.4 0.6 8.9-1 0.7-2.2-0.4-8.6-1.2-10.1-0.7-1.4-8.6-0.8-9 0.1z"/><path class="p" d="m252 82.7q0 0 0 0l-2.1 0.4 1.8 18.5c0 0 1.1 0.1 2 0z"/><path class="q" d="m124.5 149.8c0.4-0.3 4.2-2.3 5.7 0 1.5 2.4 1.6 11.1 2.2 12.2 0.6 1.2-3.7 4.1-6.6 2.4-2.9-1.6-3.4-12.7-1.3-14.6z"/><path class="r" d="m129.9 150.5c-0.8-1-3.5-0.6-3.8 0.3 0 0 4.7 0.7 3.8-0.3z"/><path class="l" d="m125.8 153.5c0 0-0.2-2.8 2-3.3 2.3-0.6 3.1 1.2 3.8 5.5 0 0 0.4 0.3 0.3-1.1-0.1-1.3-0.1-5.7-2.5-6.3-2.3-0.7-4.9 0.2-5.1 1.4-0.2 1.1 0.6 3.4 1.5 3.8z"/><path class="s" d="m140.6 118.4c0.8 1.3 19.8 43 19.8 43l-9.3 2-24-38.7z"/><path class="t" d="m145.2 128.1c-2.5-5.4-4.3-9.3-4.6-9.7l-13.5 6.3 6.8 10.8c3.7-1.4 8-4.6 11.3-7.4z"/><path class="u" d="m131.4 96.8c0 0 2.3 0.8 6.9 11 4.5 10.2 7 16.2 7 16.2 0 0-13.7 8.3-16.6 8.4-2.9 0.1-10.2-12.7-10.2-12.7z"/><path class="v" d="m126.3 131.9c0 0 18.6-11.5 19-11.8 0.3-0.3 0.7 4.5 0.6 5.1-0.2 0.5-15.8 9-16.6 9-0.8 0-3-2.3-3-2.3z"/><path class="s" d="m110 78.6c0 0-0.6 10.2-5.4 12.1-4.9 1.9-6.2 2.1-6.2 2.1 0 0 12.4 17 19.3 14.8 6.9-2.3 12-11.6 12-11.6 0 0-7.3-1.4-8-3.7-0.6-2.3 0-6.2 0-6.2z"/><path class="t" d="m109.2 83.8c2.1 3.2 6.2 7.7 12.3 7.5-0.2-2.3 0.2-5.2 0.2-5.2l-11.7-7.5c0 0-0.1 2.5-0.8 5.2z"/><path class="w" d="m105.5 90.2c3.7 5.9 7.3 11.8 10 14 3.5-1.9 5.3-6.3 6.6-11.3 0 0 9.8 2.1 11.8 6.9 0.7 1.8-8.8 31.7-8.1 56.4l-43.6-1.3c1-5.9 6.4-53.3 10.9-58.8 3.8-4.6 12.4-5.9 12.4-5.9z"/><path class="u" d="m94.3 110l-6.2 4.7c-2.8 15.9-5.2 36.4-5.9 40.2l43.6 1.3c-0.2-4.6 0.1-9.4 0.5-14.1-29.7 7.6-34.7-28.8-32-32.1z"/><path class="x" d="m110.3 258.3c0 0-3.8 6.1-3.2 14.6l7.9 0.1 0.8-1.6c0 0 2.4 1.5 6.2 1.9 3.8 0.5 21.4 0.9 19-5.9-2.3-6.7-9.9-4.5-12.4-4.9-2.6-0.4-3.4-2.6-3.4-2.6z"/><path class="y" d="m141.2 268.5c-12.4 7.6-24.7 0.7-24.7 0.7 0 0-1.9 1.9-2.3 0.6-0.4-1-4.5-2-6.9-2.4-0.2 1.6-0.4 3.5-0.2 5.5l7.9 0.1 0.8-1.6c0 0 2.4 1.5 6.2 1.9 3.6 0.4 19.5 0.8 19.2-4.8z"/><path class="x" d="m63.9 261.2c0 0-3.8 6.1-3.2 14.6l7.9 0.1 0.8-1.5c0 0 2.4 1.4 6.2 1.9 3.8 0.4 21.3 0.8 19-6-2.3-6.7-9.9-4.5-12.4-4.9-2.6-0.4-3.4-2.5-3.4-2.5z"/><path class="y" d="m94.8 271.4c-12.4 7.6-24.7 0.8-24.7 0.8 0 0-1.9 1.8-2.4 0.5-0.3-1-4.5-2-6.8-2.4-0.3 1.7-0.4 3.5-0.2 5.5l7.9 0.1 0.8-1.5c0 0 2.4 1.4 6.2 1.9 3.6 0.4 19.4 0.8 19.2-4.9z"/><path class="z" d="m83 148.9c0 0 28.2 4.2 42.8 2.4 0 0 8 37.7 8.1 61.1 0 10.2-8.7 47.5-8.7 47.5l-16.1 0.6c0 0 3.9-28 4.4-41.1 0.5-11.7-4.5-32.3-7.4-38.2 0 0-4 29.2-7.7 41.2-2.9 9.4-8.3 25.1-19.6 41.3h-16.5c0 0 15.4-36.3 16.4-44.4 2.3-18.7 1.4-50.1 4.3-70.4z"/><path class="A" d="m63.7 254.7c1-0.2 22.8-0.1 22.5 0.2l-6.6 8.8c-4.3 1.7-12.3 1.6-17.3 0z"/><path class="A" d="m109.1 260.5c6 1.1 11.5 1 16.1-0.6l4.5-8.1c-6.7-0.3-14.7-0.9-22.6-0.1z"/><path class="B" d="m139.2 71.9c0.2 2.4-1.8 4.6-4.5 4.8-2.7 0.3-5-1.5-5.2-3.9-0.3-2.4 1.8-4.5 4.5-4.8 2.6-0.2 5 1.5 5.2 3.9z"/><path class="x" d="m135.7 64c1.6-0.3 1.4 6 0 7.8-3.8 5-3.3-6.3-3.3-6.3z"/><path class="s" d="m135 62.6c0 0 4 22.8-7.4 25.6-8.9 2.1-16.8-4.9-19.2-8.8-3.4-5.4-6.3-22.7 7-27.7 13.3-5.1 18.9 4.7 19.6 10.9z"/><path class="t" d="m133.5 59.4c-0.8-0.8-1.9-1.4-3-1.7-4.7-1.5-9.9-0.6-14.2 1.7-2.2 1.2-4.3 2.8-5.4 5-0.7 1.2-1 2.5-1.2 3.9-0.2 1.6-0.2 3.4 0.5 4.9l0.4 0.4q0.6-0.8 0.9-1.7 0.4 0.8 0.8 1.5c1.1-0.7 3-3.4 3.2-3.5 0.2-0.1 3.1-0.4 4.4-0.5 5.2-0.6 10.5-1.1 15.7-1.3-0.1-3.2-0.6-5.5-0.6-5.5q0-0.1 0-0.2 0-0.1-0.1-0.2c-0.3-1-0.7-2-1.4-2.8z"/><path class="x" d="m107.4 77.9c0.3 0 3.9-2.5 4-7.5 0 0 0.5 0.8 0.8 1.7 0.2 0.9 3.8-3.5 2.6-6.2-1.2-2.7-10.2 2.4-10.3 4 0 1.7 0.5 7.2 2.9 8z"/><path class="s" d="m111 76.3c0.2 2.4-1.8 4.6-4.5 4.8-2.7 0.3-5.1-1.5-5.3-3.9-0.2-2.4 1.8-4.5 4.5-4.8 2.7-0.2 5.1 1.5 5.3 3.9z"/><path class="x" d="m120 74.9c0 0.8-0.5 1.4-1 1.4-0.5 0-1-0.6-1-1.4 0-0.7 0.5-1.3 1-1.3 0.5 0 1 0.6 1 1.3z"/><path class="x" d="m131.4 73.6c0 0.8-0.5 1.3-1 1.3-0.5 0-1-0.5-1-1.3 0-0.7 0.5-1.3 1-1.3 0.5 0 1 0.6 1 1.3z"/><path class="x" d="m129 69.5c0.4-0.2 0.9-0.3 1.3-0.3 0.7 0 1.4 0.2 1.9 0.7 0.1 0.1 0.4 0.1 0.5 0 0.1-0.1 0.1-0.4 0-0.5-0.6-0.7-1.5-1-2.4-1-0.6 0-1.2 0.2-1.7 0.5-0.2 0.1-0.2 0.3-0.1 0.5 0.1 0.2 0.3 0.2 0.5 0.1z"/><path class="x" d="m119.9 70q-0.6-0.1-1.1-0.1c-1.2 0-2.4 0.5-3 1.6-0.1 0.1-0.1 0.4 0.1 0.5 0.1 0.1 0.4 0 0.5-0.1 0.5-0.8 1.5-1.3 2.4-1.3q0.4 0 0.8 0.1c0.2 0.1 0.4 0 0.5-0.2 0.1-0.2-0.1-0.4-0.2-0.5z"/><path class="x" d="m127.3 71.6q0.4 2.2 0.5 4.4 0 0.2 0 0.3 0 0.5-0.1 0.7c-0.1 0.3-0.4 0.5-0.7 0.6-0.3 0.1-0.7 0.1-1.1 0.1-0.2 0.1-0.3 0.2-0.3 0.4 0 0.2 0.2 0.4 0.4 0.4 0.4 0 0.8-0.1 1.3-0.2 0.4-0.2 0.8-0.5 1.1-0.9 0.1-0.4 0.2-0.7 0.2-1.1q0-0.2 0-0.3-0.2-2.3-0.6-4.6c0-0.2-0.2-0.3-0.4-0.3-0.2 0.1-0.3 0.3-0.3 0.5z"/><path class="x" d="m128.7 80.5c-2.7 0-5.7-0.8-8.8-2.1 0 0-1.6 5.7 2.9 6.5 4.1 0.7 5.5-2 5.9-4.4z"/><path class="C" d="m128.3 80.5c-2.6-0.1-5.5-0.9-8.4-2.1 0 0-0.1 0.3-0.2 0.8 1.4 0.7 3.7 1.8 5.7 2 1.6 0.1 2.4-0.3 2.9-0.7z"/><path class="D" d="m104.5 70.9c0 0 13.1-5.1 31.7-5.3 0 0 0.7-20.2-19.5-15.3-20.2 4.9-12.2 20.6-12.2 20.6z"/><path class="w" d="m130.2 65.1c-0.1 0.1-2.6-15.9-4.9-16.6-3.1-0.8-9.4-0.3-12.5 3 0 0 7-2.1 8.2 0.6 1.2 2.8 3 13.8 3 13.8z"/><path class="E" d="m121 52.1c1.2 2.8 3 13.8 3 13.8l1.2-0.1c-0.4-2.3-2.2-11.7-3.7-15-1.6-3.5-7.4-0.1-8.5 0.6q-0.2 0.1-0.2 0.1c0 0 7-2.1 8.2 0.6z"/><path class="F" d="m112.2 68.7c0 0 4.7-4.1 15.4-5.2 11.6-1.3 13.4 2 12.5 2.6-0.8 0.5-25.1 2.7-27.9 2.6z"/><path class="G" d="m140.1 66.1q0.2-0.2 0.2-0.6c-2.4-0.4-28.1 3.2-28.1 3.2 2.8 0.1 27.1-2.1 27.9-2.6z"/><path class="u" d="m71 116.5c0 0-1.3 7 14.1 20.5 0 0-7.5-20.4-14.1-20.5z"/><path class="s" d="m96.7 93.2c0 0-6.5 3.7-11.6 9.8-5 6.2-32.3 65.4-32.3 65.4l7.8 5.3c0 0 33.8-50.4 34.6-52.1 0.7-1.8 2.7-27.8 1.5-28.4z"/><path class="t" d="m72.8 126.2c2.4 1.7 6.8 5.7 10.5 13.5 4.3-6.3 8-12 10.1-15.2 0.6-3.5 0.9-6.1 0.9-6.1l-10-14.2c-2.3 3.5-6.7 12.2-11.5 22z"/><path class="w" d="m95.2 121.6c0.7-1.8 2.7-27.8 1.5-28.4 0 0-8.5 5.6-12.7 9.8-3.8 3.8-5.8 5.2-9.9 10.7 2 4.4 9.3 18 12.2 21.5 5.7-4.3 8.4-12.5 8.9-13.6z"/><path class="v" d="m84.5 139.4c0 0 3.3-3 3.9-3.4 1.7-0.8-12.7-25.8-14.3-25.3-0.6 0.2-3.6 5.4-3.1 5.8 3.8 2.3 11.9 19.2 13.5 22.9z"/><path class="t" d="m59.7 175.2c-1.1 1.4-3.5 3.5-6.1 5.7l-9.3-6.1 2.8-3.4z"/><path class="n" d="m36.2 183.9l-36.1 55.7 6.8 3.1 3.8 1.8-2.2-3.6-1.8-3.1 3.1 1.5 3.7 1.8-2.2-3.7-0.9-1.5 1.6 0.7 3.7 1.8-2.1-3.6-1.8-3 3.1 1.4 3.7 1.8-2.2-3.6-1.5-2.6 2.6 1.2 3.7 1.8-2.1-3.6-1.8-3.1 3.1 1.5 3.7 1.8-2.2-3.6-0.9-1.6 1.6 0.7 3.7 1.8-2.1-3.6-1.8-3 3.1 1.4 3.7 1.8-2.2-3.6-1.9-3.2 3.3 1.5 3.7 1.8-2.2-3.6-1.8-3 3.1 1.4 3.7 1.8-2.1-3.6-1-1.6 1.6 0.8 3.7 1.7-2.1-3.6-1.8-3 3.1 1.4 3.7 1.8-2.2-3.6-1.5-2.6 2.6 1.2 3.8 1.8-2.2-3.6-1.8-3 3.1 1.4 3.7 1.8-2.2-3.6-0.9-1.6 1.6 0.8 3.7 1.7-2.1-3.6-1.8-3 3.1 1.4 3.7 1.8-2.2-3.6z"/><path fill-rule="evenodd" class="o" d="m44.9 172c2.3-0.4 6.7 3.4 9 5.4 1.3 1.1 2.6 0.3 3.8 1.1 3 2.1-8.3 10.7-8 11.6 0.4 1.2-1.3 2.9-1.3 2.9l-12.2-9.1c0 0 6.6-11.5 8.7-11.9zm-3.9 9.4c0.3 0.8 6.1 5.7 7.4 5.3 1.3-0.4 5-4.8 4.4-5.9-1-1.7-5.5-4.5-6.8-4.9-1.3-0.3-5.3 4.8-5 5.5z"/><path class="p" d="m37.1 182.3q0 0 0 0l-0.9 1.6 12.2 9.1c0 0 0.6-0.6 1.1-1.3z"/><path class="s" d="m46.7 174.4c-0.1 0.1-5.4 3.6-3.7 5.6 1.1 1.3 2.6 0.4 2.6 0.4 0 0 0.8 1.8 2.3 1.3 0 0 0.4 1.8 2.4 1.1 0 0 0.4 1.6 1.7 0.9 1.3-0.7 3.2-3.3 2.5-3.9-0.6-0.6-1.3-0.3-1.3-0.3 0 0 0.4-1.4-0.5-2-0.8-0.6-1.5 0.2-1.5 0.2 0 0 0.8-1.1-0.3-1.9-1-0.8-2 0.2-2 0.2 0 0 1-3-2.2-1.6z"/><path class="s" d="m51.7 168.1c0 0-11.5 1.4-11.5 3.2 0.1 1.9 4.8 1.9 5.8 1.4 1.1-0.4 3.6 2.4 6.2 1.9 0 0 3.9 7.3 8.4-0.9 0 0-7.1-5.7-8.9-5.6z"/><path class="z" d="m85.1 149.2c0 0 5.7-5.1 7.8-5.5 2-0.5 30.1-0.5 31.1 0 1 0.4 1.8 7.6 1.8 7.6l-18.8 4.3z"/><path class="z" d="m98.1 143.4c0 0 5.3-19.6 4.8-30.7-0.5-10.4-3.3-21.2-3.3-21.2q-2.1 0.5-3.9 1.9c0 0 3.3 16.8 2.7 25.5-0.6 8.8-5.2 26.3-5.2 26.3z"/><path class="z" d="m119 143.4c0 0 5.2-21 5.2-29 0-7.9 0-21.2 0-21.2 1.7 0.3 3.3 0.8 4.4 1.5 0 0 0.1 19.9-0.9 25.2-1 5.4-3.7 26.3-3.7 26.3z"/><path class="v" d="m114.3 103c0 0-7-3.7-8.8-0.8 0 0-3.5-10.7-2.6-11.4 1-0.8 3-1 3.2-0.6 0.2 0.3 5.2 6.8 8.2 12.8z"/><path class="v" d="m117.1 103c0 0 6.9-3 7.9 0 0 0 0.1-9.7-0.9-10.1-1-0.4-2-0.7-2.4 0-0.3 0.7-2.8 7.8-4.6 10.1z"/><path class="x" d="m83.2 146.2c0-0.4 28.5 5.9 42.7 5.1 0.6 1.5 1.3 4.9 1.2 6.4 0 0-28.4-0.2-44.9-5.8-0.2-1.4 0.5-4.4 1-5.7z"/><path class="q" d="m90.9 150.6c0-1.4 0.4-3.3 1.3-4 1.4-1 8.2-0.4 9.4 1.5 0.8 1.3-0.3 8.6-2.5 9.8-2.2 1.3-7.7 0-8.2-0.9-0.5-1 0.1-4.8 0-6.4z"/><path class="r" d="m100.8 148.7c0 0 0.7 0.2 0.7 0.4 0 0.9-3 0.7-3 0.7z"/><path class="l" d="m101.8 149.3c0 0 0.5-1.6-0.4-2-0.5-0.3-3.7-0.9-4.7-1.1-1.1-0.2-5.4-0.7-5.7 1.5-0.3 2.3 2.6 4.8 3.7 5 2.6 0.5 6.2-4 6.7-4.1 0.4 0 0.4 0.7 0.4 0.7z"/><path class="H" d="m96 150.9c0 0.5-0.4 0.8-0.8 0.8-0.5 0-0.9-0.3-0.9-0.8 0-0.5 0.4-0.8 0.9-0.8 0.4 0 0.8 0.3 0.8 0.8z"/><path class="l" d="m119.1 177.2q-1.5 0.7-3.2-0.2l2.1-31.7 3.2 0.3z"/><path class="q" d="m117.8 148.5c0.8 0.3 1.9 0.5 3.2 0l0.2-2.9-3.2-0.3z"/><path class="n" d="m117.2 141.4c0.5 0.1 5.2-0.3 5.6 0.4 0.3 0.7 0 5.7-0.4 5.9-0.5 0.2-5.5-0.1-5.9-0.4-0.3-0.3 0.2-5.9 0.7-5.9z"/><path class="n" d="m122.2 142.8c0 0 0.9 0.1 1-0.1 0.1-0.1 0.1-0.7 0.1-1 0-0.5 2.3-0.5 2.4-0.1 0.1 0.5 0.1 5.9-0.3 6.2-0.2 0.1-1.8 0.4-2.2 0-0.1-0.2-0.1-0.8-0.2-1-0.1-0.2-0.5-0.2-0.9-0.2-0.8 0.2 0.1-3.8 0.1-3.8z"/><path class="n" d="m117.3 142.2c0 0-4.7-2.3-6.4 3.2 0 0 4-1.5 5.8 1.6z"/><path class="x" d="m117 152.4c0 0 2.4 0.7 4.2 0.3l-0.2 3.7c0 0-2.1 1.1-4.3-0.2z"/><path class="I" d="m155.9 185.4h-22.8v-3.2h22.8z"/><path class="J" d="m268 185.4h-112.1v-3.2h112.1z"/><path class="K" d="m279.8 182.2h-133.1v-7.5h133.1z"/><path class="L" d="m146.7 182.2h-24.1v-7.5h24.1z"/><path class="M" d="m235.3 174.7h-111.2v-7.7h111.2z"/><path class="c" d="m124.7 174.7h-29.3v-7.7h29.3z"/><path class="J" d="m261.8 271.6h-5.1v-86.2h5.1z"/><path class="N" d="m256.5 276.9q2.8 0.6 5.5 0v-5.6h-5.5z"/><path class="J" d="m167.1 271.6h-5v-86.2h5z"/><path class="N" d="m161.9 276.9q2.7 0.6 5.4 0v-5.6h-5.4z"/><path class="I" d="m238.4 268.8h-5.1v-83.4h5.1z"/><path class="N" d="m233.1 274q2.7 0.5 5.5 0v-5.4h-5.5z"/><path class="I" d="m143.7 268.8h-5.1v-83.4h5.1z"/><path class="N" d="m138.4 274q2.8 0.5 5.5 0v-5.4h-5.5z"/><path class="s" d="m151.7 163.2l7.3 1.7c0 0 3.5 0.7 4.9 1.6 1.4 0.9-1 2-8.2 1.6-7.2-0.5-4.4-4.9-4.4-4.9"/><path class="t" d="m160.4 162.5c0 0 8.2-1 9.9 0 1.6 1 3.8 3.7 3 4-0.8 0.4-3.9-1.1-3.9-1.1 0 0-8-1.2-9-2.9z"/><path class="s" d="m163.1 167c0 0 12 1.4 11.5-0.4-0.6-1.8-12.2-4-12.9-4.2-0.7-0.2-2.4-2.1-2.4-2.1l-7.8 1.5v2.2z"/><path class="t" d="m164.4 166.3c-0.1 0-1.5-1.7-5.2-2.1-0.2 0-0.4 0.2-0.5 0.4 0 0.2 0.2 0.4 0.4 0.4 1.8 0.2 2.9 0.7 3.7 1.1q0.5 0.3 0.7 0.6 0.1 0.1 0.2 0.1v0.1l0.1-0.1-0.1 0.1 0.1-0.1-0.1 0.1c0.2 0.1 0.4 0.2 0.6 0 0.2-0.1 0.2-0.4 0.1-0.6z"/><path class="O" d="m342.2 163.6l12.2-12.1 12.2 12.1z"/><path class="O" d="m356.4 156.1h-4v-19.4h4z"/><path class="w" d="m356.4 136.7h1.3l0.2 16.8 10.5 10.1h-1.8l-10.2-10.1z"/><path class="n" d="m342.5 177.6l61.3-39.8-5.4-6.2-3-3.4 0.6 4.6 0.4 3.8-2.4-2.8-3-3.5 0.6 4.6 0.2 2.1-1.3-1.5-2.9-3.5 0.5 4.6 0.5 3.9-2.5-2.9-2.9-3.4 0.5 4.6 0.4 3.3-2.1-2.5-2.9-3.4 0.5 4.6 0.5 3.8-2.5-2.8-2.9-3.5 0.5 4.6 0.3 2-1.3-1.5-3-3.4 0.6 4.6 0.4 3.9-2.4-2.9-3-3.4 0.6 4.6 0.5 4-2.6-3-2.9-3.5 0.5 4.6 0.5 3.9-2.5-2.9-2.9-3.4 0.5 4.6 0.2 2-1.2-1.5-3-3.4 0.6 4.6 0.4 3.8-2.4-2.8-3-3.5 0.6 4.6 0.4 3.3-2.1-2.4-3-3.5 0.6 4.6 0.4 3.9-2.4-2.9-3-3.4 0.6 4.6 0.2 2-1.3-1.5-2.9-3.4 0.5 4.6 0.5 3.8-2.5-2.9-2.9-3.4 0.5 4.6z"/><path fill-rule="evenodd" class="o" d="m328.5 185.6c-2.5-0.7-5.3-6.5-6.7-9.5-0.8-1.7-2.5-1.4-3.3-2.9-2.1-3.4 13.1-6.9 13.2-8 0.2-1.4 2.6-2.3 2.6-2.3l8.2 14.7c0 0-11.8 8.6-14 8zm8.1-7.7c0-0.9-3.6-8.5-5.1-8.7-1.5-0.2-7.2 2.6-7 4 0.2 2.1 3.5 7 4.6 8 1.1 0.9 7.4-2.5 7.5-3.3z"/><path class="p" d="m340.9 178.7q0 0 0.1 0l1.5-1.1-8.2-14.7c0 0-0.8 0.3-1.6 0.8z"/><path class="l" d="m332.2 183.7c-1.6 0.4-3.1 0-4.5-1.2l11.7-44.3 4.5 1.2z"/><path class="m" d="m338.2 142.6c1.1 0.6 2.6 1.2 4.6 0.9l1.1-4.1-4.5-1.2z"/><path class="n" d="m339.4 132.4c0.7 0.2 7.4 1 7.7 2.1 0.4 1-1.5 8.1-2.2 8.2-0.6 0.1-7.7-1.6-8.1-2.1-0.4-0.6 1.9-8.4 2.6-8.2z"/><path class="n" d="m346.1 135.8c0 0 1.2 0.3 1.4 0.1 0.2-0.2 0.3-1 0.4-1.4 0.2-0.8 3.5-0.1 3.5 0.6 0 0.7-1.5 8.3-2.2 8.6-0.2 0.1-2.7 0-3-0.6-0.2-0.3 0.1-1.2 0-1.5-0.2-0.3-0.7-0.5-1.3-0.5-1.2 0.1 1.2-5.3 1.2-5.3z"/><path class="n" d="m339.3 133.5c0 0-6.1-4.5-9.9 2.9 0 0 6.1-1.1 7.8 3.8z"/><path class="P" d="m354.1 141h-55.7v-3.1h55.7q1.2 1.5 0 3.1z"/><path class="Q" d="m316.2 143c0 0-0.5-6.7-6.4-8.1l2.2 9.5z"/><path fill-rule="evenodd" class="n" d="m305.7 135.7c0.3-0.3 0.7-0.2 0.9 0.2l3.1 7.2c0.2 0.3 0.5 0.5 0.8 0.4l6.1-2.1c0.4-0.2 0.7 0 0.8 0.4l1.5 4.7c0.1 0.3-0.1 0.6-0.3 0.8l-3.9 1.8c-0.3 0.1-0.4 0.5-0.3 0.8 1.6 3.7 9.9 23.7 11.3 26.6 1.6 3.2 3 8.3 0.1 9.5-3 1.2-6-4-7.4-8.1-1.2-3.6-7.5-22.6-8.7-26.3-0.1-0.4-0.4-0.6-0.7-0.5l-2 0.7c-0.3 0-0.6 0-0.7-0.3-1.3-1.9-6.6-10.3-0.6-15.8zm16.4 45.9c0.3 1 1.3 1.6 2.2 1.4 0.9-0.3 1.4-1.4 1.1-2.4-0.3-1-1.3-1.6-2.2-1.3-0.9 0.3-1.4 1.3-1.1 2.3z"/><path fill-rule="evenodd" class="Q" d="m310.8 150.5l2.3-0.7c0 0 10.2 24 11.7 27.8 1.6 3.8 1.9 5.4-0.3 6.3-2.1 0.9-3.2-2.5-4.5-5.5-1.3-2.9-9.2-27.9-9.2-27.9zm11.3 31.1c0.3 1 1.3 1.6 2.2 1.4 0.9-0.3 1.4-1.4 1.1-2.4-0.3-1-1.3-1.6-2.2-1.3-0.9 0.3-1.4 1.3-1.1 2.3z"/><path class="Q" d="m316 146.8l-7.6 3.1c-0.5 0.2-1-0.1-1.3-0.7l-0.4-0.9c-0.2-0.6-0.1-1.4 0.4-1.6l7.8-3.2c0.5-0.2 1.1 0.2 1.3 0.9l0.3 0.9c0.2 0.7 0 1.3-0.5 1.5z"/><path class="n" d="m326.5 158.7l-0.5-4.1 1.4-3-1.1-16.4-5 0.2 0.7 16.6 1.8 3-0.1 4.4z"/><path class="g" d="m326.4 157.5l-2.6 0.1-0.1 1.1 2.8-0.3z"/><path class="i" d="m326.8 159.6l-0.3 2.6-2.7 0.1-0.6-2.8z"/><path class="j" d="m325.2 160.2c-1.2 0-2.1 1-2.2 2.1l-0.8 18.9c0 1.1 0.7 2 1.7 2.3l1.9 0.5q0.7 0.1 1.3-0.1l1.5-0.5c1-0.3 1.7-1.3 1.5-2.4l-2.6-18.9c-0.1-1.1-1.2-2-2.3-1.9z"/><path class="j" d="m327.9 159.2c0.2-0.7-0.3-1.3-1-1.2 0 0-4.1 0-4.5 0.3-0.5 0.5-0.3 1-0.3 1 0.2 0.4 0.6 0.7 1 0.7l4-0.1c0.4 0 0.7-0.3 0.8-0.7z"/><path class="w" d="m310.7 163.6h57.7v22.8h-57.7z"/><path class="O" d="m310.7 186.4v-22.8h-24.5v22.8z"/><path class="O" d="m286.2 163.6l12.2-12.1 12.3 12.1z"/><path class="O" d="m300.5 156.1h-4.1v-19.4h4.1z"/><path class="w" d="m300.5 136.7h1.2l0.2 16.8 10.5 10.1h-1.7l-10.2-10.1z"/><path class="R" d="m321.5 264.7l1 8.7q2.9 0.6 5.8 0l1-8.7z"/><path class="R" d="m399.1 264.7l1 8.7q2.8 0.6 5.7 0l1-8.7z"/><path class="R" d="m366.7 264.7l1 8.7q2.9 0.6 5.7 0l1-8.7z"/><path class="R" d="m280.6 264.7l1 8.7c1.9 0.4 3.8 0.4 5.7 0.2l1.1-8.7z"/><path class="c" d="m408.5 197h-93.1l-1.5-10.6h97.2z"/><path class="S" d="m316.3 186.4l1.1 10.6h-39.1l-1.5-10.6z"/><path class="M" d="m408.5 268.5h-90.9v-71.5h90.9z"/><path class="T" d="m317.6 268.5h-39.3v-71.5h39.3z"/><path class="c" d="m326.3 202c0 0-1.9 1.4-1.9 3.2 0 1.7-0.2 13.7 0.7 14.8 0.8 0.9 1.8 1.7 4.1 1.7 2.4 0 67.3 0 68.2 0 0.9-0.1 3.9-1 3.9-2.8-0.1-1.9-75-16.9-75-16.9z"/><path class="U" d="m395.6 220.9h-64.2c-3.3 0-6-2.7-6-6v-8c0-3.3 2.7-6 6-6h64.2c3.3 0 6 2.7 6 6v8c0 3.3-2.7 6-6 6z"/><path class="R" d="m368 206.3c0 1.5-1.2 2.8-2.7 2.8-1.5 0-2.7-1.3-2.7-2.8 0-1.5 1.2-2.7 2.7-2.7 1.5 0 2.7 1.2 2.7 2.7z"/><path class="c" d="m326.3 228.6c0 0-1.9 2.6-1.9 5.8 0 3.1-0.3 25.7 0 26.8 0.3 1.8 2.5 3 4.9 3 2.4 0 67.2-0.1 68.1-0.2 0.9-0.1 3.9-1.8 3.9-5.1-0.1-3.3-75-30.3-75-30.3z"/><path class="U" d="m395.6 263.2h-64.2c-3.3 0-6-2.7-6-6v-23.6c0-3.3 2.7-6 6-6h64.2c3.3 0 6 2.7 6 6v23.6c0 3.3-2.7 6-6 6z"/><path class="R" d="m368 232.7c0 1.5-1.2 2.8-2.7 2.8-1.5 0-2.7-1.3-2.7-2.8 0-1.5 1.2-2.7 2.7-2.7 1.5 0 2.7 1.2 2.7 2.7z"/></svg>