<svg version="1.2" xmlns="http://www.w3.org/2000/svg" viewBox="0 0 111 148" width="111" height="148"><defs><linearGradient id="P" gradientUnits="userSpaceOnUse"/><linearGradient id="g1" x2="1" href="#P" gradientTransform="matrix(0,61.4,-13,0,133.941,83.341)"><stop stop-color="#d1d1d3"/><stop offset=".98" stop-color="#bec0c1"/></linearGradient><linearGradient id="g2" x2="1" href="#P" gradientTransform="matrix(29.153,0,0,16.833,33.806,6.517)"><stop stop-color="#f4f4f4"/><stop offset=".16" stop-color="#e4e4e6"/><stop offset=".5" stop-color="#c6c6c7"/><stop offset="1" stop-color="#e4e4e6"/></linearGradient><linearGradient id="g3" x2="1" href="#P" gradientTransform="matrix(29.15,0,0,3.018,33.816,11.918)"><stop stop-color="#f4f4f4"/><stop offset=".16" stop-color="#e4e4e6"/><stop offset=".5" stop-color="#c6c6c7"/><stop offset="1" stop-color="#e4e4e6"/></linearGradient><linearGradient id="g4" x2="1" href="#P" gradientTransform="matrix(0,12.17,-21.08,0,51.741,6.066)"><stop stop-color="#d1d1d3"/><stop offset=".98" stop-color="#bec0c1"/></linearGradient><linearGradient id="g5" x2="1" href="#P" gradientTransform="matrix(0,31.693,-42.912,0,33.125,118.051)"><stop offset=".02" stop-color="#bec0c1"/><stop offset="1" stop-color="#d1d1d3"/></linearGradient></defs><style>.a{fill:#f4f4f4}.b{fill:#d3d3d3}.c{fill:url(#g1)}.d{fill:#ededed}.e{fill:#fff}.f{fill:url(#g2)}.g{fill:url(#g3)}.h{fill:url(#g4)}.i{fill:#4d4c4d}.j{fill:url(#g5)}</style><path class="a" d="m110.1 108.6l-67.4 39.3-42.1-24.3 67.6-39.1 41.9 17.4z"/><path class="b" d="m45 89.8l-2.3 51.3-42.1-24.3 31.3-34.6z"/><path class="c" d="m45 89.8l-13.1-7.6v-60.2l13.1 7.5 1.3 26.8z"/><path class="d" d="m64.9 78.6l-19.9 11.2v-60.3l19.9-11.5z"/><path class="a" d="m75.9 12v0.1c-4.1 7.5-10.7 14.7-18.2 18.9-7.4 4.3-14 4.8-18.1 2.1v-0.1z"/><path class="e" d="m75.9 12l-36.3 21-19.5-11.3 36.3-21z"/><path class="f" d="m58.7 9c5.7 3.3 5.7 8.6 0 11.9-5.7 3.3-14.9 3.3-20.6 0-5.7-3.3-5.7-8.6 0-11.9 5.7-3.3 14.9-3.3 20.6 0z"/><path class="g" d="m33.8 11.9h29.2v3h-29.2z"/><path class="a" d="m58.7 6.3c5.7 3.3 5.7 8.6 0 11.9-5.7 3.3-14.9 3.3-20.6 0-5.7-3.3-5.7-8.6 0-11.9 5.7-3.3 14.9-3.3 20.6 0z"/><path class="h" d="m55.5 8.1c3.9 2.3 3.9 6 0 8.2-3.9 2.3-10.3 2.3-14.2 0-4-2.2-4-5.9 0-8.2 3.9-2.3 10.3-2.3 14.2 0z"/><path class="i" d="m33.9 36.7c-0.3-0.2-0.5 0-0.5 0.3 0 0.3 0.2 0.7 0.5 0.8 0.3 0.2 0.5 0.1 0.5-0.3 0-0.3-0.2-0.7-0.5-0.8zm0 2.3c-0.3-0.2-0.5-0.1-0.5 0.3 0 0.3 0.2 0.6 0.5 0.8 0.3 0.2 0.5 0 0.5-0.3 0-0.3-0.2-0.7-0.5-0.8zm2-1.2c-0.3-0.1-0.5 0-0.5 0.3 0 0.3 0.2 0.7 0.5 0.9 0.3 0.1 0.5 0 0.5-0.3 0-0.3-0.2-0.7-0.5-0.9zm0 2.3c-0.3-0.2-0.5 0-0.5 0.3 0 0.3 0.2 0.7 0.5 0.8 0.3 0.2 0.5 0.1 0.5-0.2 0-0.4-0.2-0.7-0.5-0.9zm2-1.1c-0.3-0.2-0.5-0.1-0.5 0.3 0 0.3 0.2 0.6 0.5 0.8 0.2 0.2 0.5 0 0.5-0.3 0-0.3-0.3-0.7-0.5-0.8zm0 2.2c-0.3-0.1-0.5 0-0.5 0.3 0 0.3 0.2 0.7 0.5 0.9 0.2 0.1 0.5 0 0.5-0.3 0-0.3-0.3-0.7-0.5-0.9zm1.9-1.1c-0.2-0.2-0.4 0-0.4 0.3 0 0.3 0.2 0.7 0.4 0.8 0.3 0.2 0.5 0.1 0.5-0.2 0-0.4-0.2-0.7-0.5-0.9zm0 2.3c-0.2-0.2-0.4 0-0.4 0.3 0 0.3 0.2 0.7 0.4 0.8 0.3 0.2 0.5 0.1 0.5-0.3 0-0.3-0.2-0.7-0.5-0.8zm2-1.2c-0.2-0.1-0.5 0-0.5 0.3 0 0.3 0.3 0.7 0.5 0.9 0.3 0.1 0.5 0 0.5-0.3 0-0.3-0.2-0.7-0.5-0.9zm0 2.3c-0.2-0.1-0.5 0-0.5 0.3 0 0.3 0.3 0.7 0.5 0.9 0.3 0.1 0.5 0 0.5-0.3 0-0.3-0.2-0.7-0.5-0.9z"/><path class="i" d="m33.9 72c-0.3-0.2-0.5-0.1-0.5 0.3 0 0.3 0.2 0.7 0.5 0.8 0.3 0.2 0.5 0 0.5-0.3 0-0.3-0.2-0.7-0.5-0.8zm0 2.2c-0.3-0.1-0.5 0-0.5 0.3 0 0.3 0.2 0.7 0.5 0.9 0.3 0.1 0.5 0 0.5-0.3 0-0.3-0.2-0.7-0.5-0.9zm2-1.1c-0.3-0.1-0.5 0-0.5 0.3 0 0.3 0.2 0.7 0.5 0.8 0.3 0.2 0.5 0.1 0.5-0.2 0-0.4-0.2-0.7-0.5-0.9zm0 2.3c-0.3-0.2-0.5 0-0.5 0.3 0 0.3 0.2 0.7 0.5 0.8 0.3 0.2 0.5 0.1 0.5-0.3 0-0.3-0.2-0.7-0.5-0.8zm2-1.2c-0.3-0.1-0.5 0-0.5 0.3 0 0.3 0.2 0.7 0.5 0.9 0.2 0.1 0.5 0 0.5-0.3 0-0.3-0.3-0.7-0.5-0.9zm0 2.3c-0.3-0.1-0.5 0-0.5 0.3 0 0.3 0.2 0.7 0.5 0.9 0.2 0.1 0.5 0 0.5-0.3 0-0.3-0.3-0.7-0.5-0.9zm1.9-1.1c-0.2-0.2-0.4 0-0.4 0.3 0 0.3 0.2 0.7 0.4 0.8 0.3 0.2 0.5 0.1 0.5-0.3 0-0.3-0.2-0.7-0.5-0.8zm0 2.3c-0.2-0.2-0.4-0.1-0.4 0.3 0 0.3 0.2 0.7 0.4 0.8 0.3 0.2 0.5 0 0.5-0.3 0-0.3-0.2-0.7-0.5-0.8zm2-1.2c-0.2-0.1-0.5 0-0.5 0.3 0 0.3 0.3 0.7 0.5 0.9 0.3 0.1 0.5 0 0.5-0.3 0-0.3-0.2-0.7-0.5-0.9zm0 2.3c-0.2-0.1-0.5 0-0.5 0.3 0 0.3 0.3 0.7 0.5 0.8 0.3 0.2 0.5 0.1 0.5-0.2 0-0.4-0.2-0.7-0.5-0.9z"/><path class="e" d="m42.7 141.1l2.3-51.3 19.9-11.2 45.2 23.3z"/><path class="j" d="m0.6 116.8v6.8l42.1 24.3v-6.8z"/></svg>