<svg version="1.2" xmlns="http://www.w3.org/2000/svg" viewBox="0 0 406 283" width="406" height="283"><style>tspan{white-space:pre}.a{fill:#0290be}.b{fill:#6c7187}.c{fill:#f08058}.d{fill:#b1ddb2}.e{fill:#95c69c}.f{fill:#c4e8c1}.g{fill:#fff}.h{fill:#b2d6c6}.i{fill:#acacac}.j{fill:#3d3b51}.k{fill:#192259}.l{fill:#97979b}.m{fill:#c1c1c1}.n{fill:#76757c}.o{fill:none;stroke:#97979b;stroke-miterlimit:10;stroke-width:2}.p{fill:#ef3a43}.q{fill:#3da368}.r{fill:#fffaa1}.s{fill:none;stroke:#ef3a43;stroke-miterlimit:10;stroke-width:4}.t{fill:none;stroke:#daf4f7;stroke-miterlimit:10;stroke-width:2}.u{fill:#162b64}.v{fill:#471a39}.w{fill:none;stroke:#331330;stroke-linecap:round;stroke-linejoin:round;stroke-width:1.5}.x{fill:#331330}.y{fill:#44150f}.z{fill:#754f2d}.A{fill:#ffe45f}.B{fill:#eab849}.C{fill:#daf4f7}.D{fill:#8b96a0}.E{fill:#f9c358}.F{fill:#ea394e}.G{fill:#db5b36}.H{fill:#fff578}.I{fill:#feb6a0}.J{fill:#5a5d75}.K{fill:#300a0a}.L{fill:#633e25}.M{fill:#ef978e}.N{fill:none;stroke:#ef978e;stroke-miterlimit:10;stroke-width:2}</style><path class="a" d="m405.7 282.8h-404.9v-12.5h404.9z"/><path class="b" d="m285.6 160.6c0 0 18.3-1.9 28.9 12.5 8.8 12 10.2 33.3 10.2 33.3-9.4 10.8-33.9 11.4-34.1 4.8 0-0.8 2.1-10.1-4.4-17.3-6.5-7.1-10.2-19.3-9.2-23.5 1.1-4.1 8.6-9.8 8.6-9.8z"/><path class="c" d=""/><path class="d" d="m392.1 270.7h-63.1v-129.6h63.1z"/><path class="e" d="m386.3 182.6h-53.5v-31.8h53.5z"/><path class="f" d="m387.3 180.7h-53.6v-31.9h53.6z"/><path class="e" d="m366.6 152.9h-10.6v-1.8h10.6z"/><path class="e" d="m386.3 223h-53.5v-31.9h53.5z"/><path class="f" d="m387.3 221h-53.6v-31.9h53.6z"/><path class="e" d="m365.9 192.3h-10.6v-1.6h10.6z"/><path class="e" d="m386.3 263.3h-53.5v-31.9h53.5z"/><path class="f" d="m387.3 261.3h-53.6v-31.9h53.6z"/><path class="e" d="m365.9 233.1h-10.6v-1.7h10.6z"/><path class="g" d="m208.4 94.5v89.8h-12.6c-0.3 0-0.5 0.1-0.7 0.3-0.2 0.2-0.3 0.4-0.3 0.7v16.8c0 0.6 0.4 1 1 1 0.5 0 1-0.4 1-1v-15.8h12.5c0.3 0 0.5-0.2 0.7-0.3 0.2-0.2 0.3-0.5 0.3-0.7v-90.8c0-0.6-0.4-1-1-1-0.5 0-0.9 0.4-0.9 1z"/><path class="h" d="m196.9 222.9h-4.2c-4.6 0-8.3-3.7-8.3-8.3v-4.1c0-4.6 3.7-8.4 8.3-8.4h4.2c4.6 0 8.3 3.8 8.3 8.4v4.1c0 4.6-3.7 8.3-8.3 8.3z"/><path class="i" d="m197.8 221.9h-4.1c-4.6 0-8.3-3.7-8.3-8.3v-4.1c0-4.6 3.7-8.4 8.3-8.4h4.1c4.7 0 8.4 3.8 8.4 8.4v4.1c0 4.6-3.7 8.3-8.4 8.3z"/><path class="b" d="m203.1 211.5c0 4.1-3.3 7.3-7.3 7.3-4 0-7.3-3.2-7.3-7.3 0-4 3.3-7.2 7.3-7.2 4 0 7.3 3.2 7.3 7.2z"/><path class="j" d="m193.8 211.5c0 0.7-0.5 1.2-1.1 1.2-0.7 0-1.2-0.5-1.2-1.2 0-0.6 0.5-1.1 1.2-1.1 0.6 0 1.1 0.5 1.1 1.1z"/><path class="j" d="m200.1 211.5c0 0.7-0.5 1.2-1.2 1.2-0.6 0-1.1-0.5-1.1-1.2 0-0.6 0.5-1.1 1.1-1.1 0.7 0 1.2 0.5 1.2 1.1z"/><path class="k" d="m279.9 94.7h-137v-94.1h137z"/><path class="i" d="m272.1 89.4h-121.5v-83.4h121.5z"/><path class="l" d="m157.2 14.9l-1.5 1.9v32.4l77.4 0.1 2.7-1.6z"/><path class="m" d="m235.8 47.7h-78.6v-32.8h78.6z"/><path class="l" d="m161.9 53.6l-1 2v15.7h29.2l2-1.9z"/><path class="l" d="m197.8 53.6l-1.3 1.7v16h29.8l1.6-1.9-29.9-15.4"/><path class="m" d="m192.1 69.4h-30.2v-15.8h30.2z"/><path class="m" d="m227.9 69.4h-30.1v-15.8h30.1z"/><path class="n" d="m272.1 89.4h-121.5v-6.1h121.5z"/><path class="n" d="m150.6 7.9h119v75.4h2.5v-77.3h-121.5z"/><path class="l" d="m189.4 67.3h-25.5v-11.6h25.5z"/><path class="l" d="m226.2 67.3h-25.8v-11.6h25.8z"/><path class="o" d="m218.4 44.6h-55.5v-26.5h55.5z"/><path class="n" d="m229.7 21c0 1.1-0.9 1.9-1.9 1.9-1.1 0-2-0.8-2-1.9 0-1.1 0.9-1.9 2-1.9 1 0 1.9 0.8 1.9 1.9z"/><path class="n" d="m229.7 29.9c0 1-0.9 1.9-1.9 1.9-1.1 0-2-0.9-2-1.9 0-1.1 0.9-2 2-2 1 0 1.9 0.9 1.9 2z"/><path class="n" d="m229.7 39.1c0 1.1-0.9 1.9-1.9 1.9-1.1 0-2-0.8-2-1.9 0-1.1 0.9-1.9 2-1.9 1 0 1.9 0.8 1.9 1.9z"/><path class="p" d="m230 20.6c0 1-0.8 1.9-1.9 1.9-1.1 0-1.9-0.9-1.9-1.9 0-1.1 0.8-2 1.9-2 1.1 0 1.9 0.9 1.9 2z"/><path class="q" d="m230 29.4c0 1.1-0.8 1.9-1.9 1.9-1.1 0-1.9-0.8-1.9-1.9 0-1.1 0.8-1.9 1.9-1.9 1.1 0 1.9 0.8 1.9 1.9z"/><path class="r" d="m230 38.6c0 1.1-0.8 2-1.9 2-1.1 0-1.9-0.9-1.9-2 0-1 0.8-1.9 1.9-1.9 1.1 0 1.9 0.9 1.9 1.9z"/><path class="s" d="m167.8 70.6v12.7"/><path class="s" d="m172.6 70.6v12.7"/><path class="s" d="m177.3 70.6v12.7"/><path class="s" d="m182.1 70.6v12.7"/><path class="s" d="m204.6 70.6v12.7"/><path class="s" d="m209.3 70.6v12.7"/><path class="s" d="m214.1 70.6v12.7"/><path class="s" d="m218.8 70.6v12.7"/><path class="s" d="m204.3 48.5v5.1"/><path class="s" d="m209 48.5v5.1"/><path class="s" d="m213.7 48.5v5.1"/><path class="s" d="m218.5 48.5v5.1"/><path class="s" d="m167.8 48.5v5.1"/><path class="s" d="m172.6 48.5v5.1"/><path class="s" d="m177.3 48.5v5.1"/><path class="s" d="m182.1 48.5v5.1"/><path class="s" d="m193.4 7.9v7"/><path class="t" d="m263.9 16.5h2.3v28.1h4.7"/><path class="t" d="m263.1 73.4h3.1v-28.8"/><path class="t" d="m266.2 35.7h-2.3"/><path class="t" d="m266.2 54.8h-2.6"/><path class="t" d="m243.9 73.4h-3l-0.6-60.9h-43.8v-4.6"/><path class="t" d="m243.9 16.5h-3.5"/><path class="t" d="m243.9 35.4h-3.4"/><path class="t" d="m243.9 54.8h-3.4"/><path class="n" d="m261.6 20.3h-16.9c-1.3 0-2.4-1.1-2.4-2.4v-1.3c0-1.3 1.1-2.4 2.4-2.4h16.9c1.3 0 2.4 1.1 2.4 2.4v1.3c0 1.3-1.1 2.4-2.4 2.4z"/><path class="r" d="m262 19.5h-16.8c-1.4 0-2.5-1.1-2.5-2.4v-1.3c0-1.3 1.1-2.4 2.5-2.4h16.8c1.4 0 2.5 1.1 2.5 2.4v1.3c0 1.3-1.1 2.4-2.5 2.4z"/><path class="p" d="m260.1 13.8q0 0 0 0.2c0.1 0.3 0.3 1.2 0.3 2.4 0 0.8-0.1 1.7-0.3 2.7-0.1 0.2 0 0.4 0.2 0.4 0.2 0 0.3-0.1 0.4-0.2 0.2-1.1 0.3-2.1 0.3-2.9 0-1.7-0.3-2.8-0.4-2.8 0-0.1-0.2-0.2-0.3-0.2-0.2 0.1-0.3 0.2-0.2 0.4z"/><path class="q" d="m253.3 13.8q0 0 0.1 0.2c0.1 0.3 0.3 1.2 0.3 2.4 0 0.8-0.1 1.7-0.4 2.7 0 0.2 0.1 0.4 0.2 0.4 0.2 0 0.3-0.1 0.4-0.2 0.3-1.1 0.3-2.1 0.3-2.9 0-1.7-0.3-2.8-0.3-2.8-0.1-0.2-0.2-0.2-0.4-0.2-0.1 0.1-0.2 0.2-0.2 0.4z"/><path class="q" d="m247.6 13.8q0 0 0.1 0.2c0.1 0.3 0.3 1.2 0.3 2.4 0 0.8-0.1 1.7-0.4 2.7 0 0.2 0.1 0.4 0.2 0.4 0.2 0 0.4-0.1 0.4-0.2 0.3-1.1 0.4-2.1 0.4-2.9 0-1.7-0.4-2.8-0.4-2.8-0.1-0.2-0.2-0.2-0.4-0.2-0.1 0.1-0.2 0.2-0.2 0.4z"/><path class="p" d="m261.1 13.8q0 0 0.1 0.2c0.1 0.3 0.3 1.2 0.3 2.4 0 0.8-0.1 1.7-0.4 2.7 0 0.2 0.1 0.4 0.2 0.4 0.2 0 0.3-0.1 0.4-0.2 0.3-1.1 0.3-2.1 0.3-2.9 0-1.7-0.3-2.8-0.3-2.8-0.1-0.1-0.2-0.2-0.4-0.2-0.1 0.1-0.2 0.2-0.2 0.4z"/><path class="n" d="m261.6 39.3h-16.9c-1.3 0-2.4-1.1-2.4-2.5v-1.2c0-1.3 1.1-2.4 2.4-2.4h16.9c1.3 0 2.4 1.1 2.4 2.4v1.2c0 1.4-1.1 2.5-2.4 2.5z"/><path class="r" d="m262 38.5h-16.8c-1.4 0-2.5-1.1-2.5-2.5v-1.2c0-1.3 1.1-2.4 2.5-2.4h16.8c1.4 0 2.5 1.1 2.5 2.4v1.2c0 1.4-1.1 2.5-2.5 2.5z"/><path class="p" d="m260.1 32.8q0 0 0 0.1c0.1 0.4 0.3 1.3 0.3 2.5 0 0.8-0.1 1.7-0.3 2.7-0.1 0.2 0 0.3 0.2 0.4 0.2 0 0.3-0.1 0.4-0.2 0.2-1.1 0.3-2.1 0.3-2.9 0-1.7-0.3-2.8-0.4-2.8 0-0.2-0.2-0.3-0.3-0.2-0.2 0-0.3 0.2-0.2 0.4z"/><path class="q" d="m253.3 32.8q0 0 0.1 0.1c0.1 0.4 0.3 1.3 0.3 2.5 0 0.8-0.1 1.7-0.4 2.7 0 0.2 0.1 0.3 0.2 0.4 0.2 0 0.3-0.1 0.4-0.2 0.3-1.1 0.3-2.1 0.3-2.9 0-1.7-0.3-2.8-0.3-2.8-0.1-0.2-0.2-0.3-0.4-0.2-0.1 0-0.2 0.2-0.2 0.4z"/><path class="q" d="m247.6 32.8q0 0 0.1 0.1c0.1 0.4 0.3 1.3 0.3 2.5 0 0.8-0.1 1.7-0.4 2.7 0 0.2 0.1 0.3 0.2 0.4 0.2 0 0.4-0.1 0.4-0.2 0.3-1.1 0.4-2.1 0.4-2.9 0-1.7-0.4-2.8-0.4-2.8-0.1-0.2-0.2-0.3-0.4-0.2-0.1 0-0.2 0.2-0.2 0.4z"/><path class="p" d="m261.1 32.8q0 0 0.1 0.1c0.1 0.4 0.3 1.3 0.3 2.5 0 0.8-0.1 1.7-0.4 2.7 0 0.2 0.1 0.3 0.2 0.4 0.2 0 0.3-0.1 0.4-0.2 0.3-1.1 0.3-2.1 0.3-2.9 0-1.7-0.3-2.8-0.3-2.8-0.1-0.2-0.2-0.3-0.4-0.2-0.1 0-0.2 0.2-0.2 0.4z"/><path class="n" d="m261.6 58.3h-16.9c-1.3 0-2.4-1.1-2.4-2.5v-1.2c0-1.4 1.1-2.5 2.4-2.5h16.9c1.3 0 2.4 1.1 2.4 2.5v1.2c0 1.4-1.1 2.5-2.4 2.5z"/><path class="r" d="m262 57.5h-16.8c-1.4 0-2.5-1.1-2.5-2.5v-1.2c0-1.4 1.1-2.5 2.5-2.5h16.8c1.4 0 2.5 1.1 2.5 2.5v1.2c0 1.4-1.1 2.5-2.5 2.5z"/><path class="p" d="m260.1 51.7q0 0 0 0.2c0.1 0.4 0.3 1.2 0.3 2.4 0 0.8-0.1 1.8-0.3 2.8-0.1 0.1 0 0.3 0.2 0.3 0.2 0.1 0.3 0 0.4-0.2 0.2-1 0.3-2 0.3-2.9 0-1.6-0.3-2.7-0.4-2.8 0-0.1-0.2-0.2-0.3-0.1-0.2 0-0.3 0.2-0.2 0.3z"/><path class="q" d="m253.3 51.7q0 0 0.1 0.2c0.1 0.4 0.3 1.2 0.3 2.4 0 0.8-0.1 1.8-0.4 2.8 0 0.1 0.1 0.3 0.2 0.3 0.2 0.1 0.3 0 0.4-0.2 0.3-1 0.3-2 0.3-2.9 0-1.6-0.3-2.7-0.3-2.8-0.1-0.1-0.2-0.2-0.4-0.1-0.1 0-0.2 0.2-0.2 0.3z"/><path class="q" d="m247.6 51.7q0 0 0.1 0.2c0.1 0.4 0.3 1.2 0.3 2.4 0 0.8-0.1 1.8-0.4 2.8 0 0.1 0.1 0.3 0.2 0.3 0.2 0.1 0.4 0 0.4-0.2 0.3-1 0.4-2 0.4-2.9 0-1.6-0.4-2.7-0.4-2.8-0.1-0.1-0.2-0.2-0.4-0.1-0.1 0-0.2 0.2-0.2 0.3z"/><path class="p" d="m261.1 51.7q0 0 0.1 0.2c0.1 0.4 0.3 1.2 0.3 2.4 0 0.8-0.1 1.8-0.4 2.8 0 0.1 0.1 0.3 0.2 0.3 0.2 0.1 0.3 0 0.4-0.2 0.3-1 0.3-2 0.3-2.9 0-1.6-0.3-2.7-0.3-2.8-0.1-0.1-0.2-0.2-0.4-0.1-0.1 0-0.2 0.2-0.2 0.3z"/><path class="n" d="m261.6 77.2h-16.9c-1.3 0-2.4-1.1-2.4-2.4v-1.2c0-1.4 1.1-2.5 2.4-2.5h16.9c1.3 0 2.4 1.1 2.4 2.5v1.2c0 1.3-1.1 2.4-2.4 2.4z"/><path class="r" d="m262 76.4h-16.8c-1.4 0-2.5-1.1-2.5-2.4v-1.2c0-1.4 1.1-2.5 2.5-2.5h16.8c1.4 0 2.5 1.1 2.5 2.5v1.2c0 1.3-1.1 2.4-2.5 2.4z"/><path class="p" d="m260.1 70.7q0 0 0 0.2c0.1 0.3 0.3 1.2 0.3 2.4 0 0.8-0.1 1.7-0.3 2.8-0.1 0.1 0 0.3 0.2 0.3 0.2 0.1 0.3 0 0.4-0.2 0.2-1.1 0.3-2.1 0.3-2.9 0-1.7-0.3-2.8-0.4-2.8 0-0.1-0.2-0.2-0.3-0.2-0.2 0.1-0.3 0.2-0.2 0.4z"/><path class="q" d="m253.3 70.7q0 0 0.1 0.2c0.1 0.3 0.3 1.2 0.3 2.4 0 0.8-0.1 1.7-0.4 2.7 0 0.2 0.1 0.4 0.2 0.4 0.2 0 0.3-0.1 0.4-0.2 0.3-1.1 0.3-2.1 0.3-2.9 0-1.7-0.3-2.8-0.3-2.8-0.1-0.1-0.2-0.2-0.4-0.2-0.1 0.1-0.2 0.2-0.2 0.4z"/><path class="q" d="m247.6 70.7q0 0 0.1 0.2c0.1 0.3 0.3 1.2 0.3 2.4 0 0.8-0.1 1.7-0.4 2.7 0 0.2 0.1 0.4 0.2 0.4 0.2 0 0.4-0.1 0.4-0.2 0.3-1.1 0.4-2.1 0.4-2.9 0-1.7-0.4-2.8-0.4-2.8-0.1-0.1-0.2-0.2-0.4-0.2-0.1 0.1-0.2 0.2-0.2 0.4z"/><path class="p" d="m261.1 70.7q0 0 0.1 0.2c0.1 0.3 0.3 1.2 0.3 2.4 0 0.8-0.1 1.7-0.4 2.8 0 0.1 0.1 0.3 0.2 0.3 0.2 0.1 0.3 0 0.4-0.2 0.3-1.1 0.3-2.1 0.3-2.9 0-1.7-0.3-2.8-0.3-2.8-0.1-0.1-0.2-0.2-0.4-0.2-0.1 0.1-0.2 0.2-0.2 0.4z"/><path class="c" d="m124.3 70.5c0 0 4.1 2.9 8.8 11.4 2.2 4.1 9.7 14 13 15.4 5.2 2.4 30-8.4 30-8.4l3 8.5c0 0-27.5 16.6-35.9 15.5-6.5-0.9-22.1-16.7-22.1-16.7z"/><path class="b" d="m144.2 94.9c-3.7-3.1-8.8-9.6-10.6-13.1-4.7-8.5-9.3-11.3-9.3-11.3l-3.2 25.7c0 0 6.8 9 12 14.5 3.9-2.1 7.6-7.4 11.1-15.8z"/><path class="u" d=""/><path class="b" d="m110.8 70.2c0 0 11.5-7 14.9 4.8 3.1 10.7 3.8 35.7 0.7 61-5.8 2.2-19.3-0.3-36.3-2.4 0 0-1.2-21.9-1.9-33.1-0.9-14.1 5.2-30.6 12.3-33.5z"/><path class="v" d="m128.8 88.9c0 0 2.1-22.1-13.5-22.6l-2.5 2.1c0 0 14-1.6 13.4 22 0 0 1.6 0.2 2.6-1.5z"/><path class="v" d="m100.5 134.5c0 0 6.2-38.4 8.2-38.8 2.2-0.4 19.7-5.2 20.1-6.8 0.4-1.3-1.1 46.3-2.3 47.9 0 0-22.4-0.4-26-2.3z"/><path class="v" d="m115.3 94c0 0-1-25.3-18-24.8 0 0-2.8 0.9-3.5 4.9 0 0 13.7-5.6 17 22.1z"/><path class="w" d=""/><path class="v" d="m75.1 258.2c1.2-13 14.9-126.9 14.9-126.9 16.6 1.7 31.6 1.9 37.3-0.9 0 0 3.8 91.1 5.8 127.8h-17.7c-2.3-25.3-6.1-61.5-6.1-61.5 0 0-13.2 51.9-17.4 63.7z"/><path class="x" d="m123.9 159l-5.9 2.5-8.7 35.2c0 0 3.8 36.2 6.1 61.5h8.9c-4.8-6.8-7-25.8-9.6-52.9-3.5-35.9 9.2-46.3 9.2-46.3z"/><path class="w" d="m101.9 132.5c0 0 16.7 0.9 24.9 0"/><path class="w" d="m90.7 135.3c4.9 1.5 28.1 2.4 36.1 0.7"/><path class="w" d="m95.5 136.1l-15.9 125.7"/><path class="y" d="m104.6 269.4c-1.2-1.5-6.8-2.9-11-3.8l1.2-8.9c0 0-24.2-1.8-24-0.4 0.1 0.9 1.8 5.1 2.7 7.7-0.7 2.2-1.8 6.3-1.8 8.4 0 2.9 23.7 2.1 28.3 1.9 4.6-0.2 6.4-2.4 4.6-4.9z"/><path class="z" d="m71.7 272.4q0-0.6 0.1-1.5c16.8 3.9 29.1 0.9 33.3-0.4 0.7 2-1.2 3.6-5.1 3.8-4.6 0.2-28.3 1-28.3-1.9z"/><path class="y" d="m148.7 263.9c-1.7-2-11.5-3.3-15.3-3.8l1.5-7.5c0 0-21.7-0.2-22 1-0.3 1.2 2.8 8.1 2.8 8.1-0.6 2.5-1.2 5.9-1.1 7.8 0.1 3.1 24.8 0.5 29.6-0.1 4.8-0.6 6.5-3 4.5-5.5z"/><path class="z" d="m114.6 269.5q-0.1-0.7 0-1.6c17.7 2.9 30.4-1.2 34.7-3 0.9 2.1-1 4-5.1 4.5-4.8 0.6-29.5 3.2-29.6 0.1z"/><path class="A" d="m176 88.9c0 0 4.4-4.6 7.4-4.2 3.1 0.4 8.6-0.6 8 0.7-0.5 1.3-2.6 1.3-2.6 1.3 0 0 3.7 1 3.7 2.2 0 1.2-0.8 1.5-0.8 1.5 0 0 0.8 0.7 0.5 1.7-0.2 1-1.1 1.1-1.1 1.1 0 0 1.4 0.7-1.3 2.2 0 0 0.6 1.6-1.8 2-2.5 0.5-9.1 0-9.1 0z"/><path class="A" d="m176.4 88.4l-4.5-0.3c0 0-0.4 10.4 5.4 12.7l2.5-4.3z"/><path class="B" d="m184.8 90.6c-0.1 0-0.4 0.1-0.7 0.3-0.3 0.2-0.7 0.6-0.7 1.1q0 0.5 0.4 1c0.6 0.8 1.9 1.4 3.1 1.9 1.2 0.4 2.2 0.7 2.2 0.7 0.2 0 0.3-0.1 0.4-0.2 0-0.2-0.1-0.3-0.2-0.4 0 0-0.3 0-0.7-0.2-0.6-0.1-1.5-0.5-2.4-0.8-0.8-0.4-1.6-0.9-1.9-1.3-0.2-0.3-0.3-0.5-0.3-0.7 0-0.2 0.2-0.5 0.4-0.6q0.2-0.2 0.4-0.2l0.1-0.1c0.2 0 0.3-0.2 0.2-0.4 0-0.1-0.2-0.2-0.3-0.1z"/><path class="B" d="m184 92.8c0 0-0.3-0.1-0.6-0.1-0.3 0-0.6 0-0.9 0.2-0.3 0.1-0.5 0.5-0.5 0.9 0 0.4 0.2 0.9 0.6 1.5 0.1 0.2 0.3 0.4 0.6 0.6 0.7 0.5 2 1.3 2 1.3 0.1 0.1 0.3 0 0.4-0.1 0.1-0.1 0-0.3-0.1-0.4 0 0-0.6-0.4-1.2-0.7-0.2-0.2-0.5-0.4-0.8-0.6-0.2-0.2-0.4-0.4-0.4-0.4-0.4-0.6-0.5-1-0.5-1.2 0-0.3 0.1-0.3 0.2-0.4 0.1-0.1 0.3-0.1 0.6-0.1q0.2 0 0.3 0l0.2 0.1c0.1 0 0.3-0.1 0.3-0.3 0.1-0.1 0-0.3-0.2-0.3z"/><path class="B" d="m188.3 86.6c0 0-0.8 0.2-1.7 0.4-0.4 0.1-0.8 0.3-1.2 0.4q-0.2 0-0.4 0.1c-0.1 0.1-0.2 0.1-0.3 0.2-0.1 0.1-0.2 0.1-0.2 0.3-0.3 0.4-0.7 1.2-1.3 2-0.5 0.8-1.1 1.4-1.7 1.6-0.2 0-0.3 0.2-0.2 0.3 0 0.2 0.2 0.3 0.3 0.3 1-0.3 1.8-1.3 2.4-2.2 0.3-0.5 0.5-0.9 0.7-1.3q0.2-0.3 0.3-0.4v-0.2h0.1l-0.1-0.1 0.1 0.1-0.1-0.1 0.1 0.1-0.1-0.1v0.1h0.1l-0.1-0.1v0.1h0.1c0 0 0.3-0.1 0.6-0.2 1.1-0.3 2.7-0.7 2.7-0.7 0.2-0.1 0.3-0.2 0.2-0.4 0-0.1-0.2-0.2-0.3-0.2z"/><path class="B" d="m191.4 90c0 0-0.4 0-0.9-0.1-0.8-0.1-1.9-0.3-2.9-0.6-0.5-0.2-0.9-0.4-1.2-0.6q-0.4-0.3-0.3-0.5c0-0.2 0-0.3 0.2-0.5 0.1-0.2 0.1-0.3 0-0.4-0.2-0.2-0.3-0.1-0.5 0q-0.3 0.4-0.3 0.9c0 0.2 0.1 0.5 0.3 0.7 0.3 0.4 0.8 0.6 1.4 0.8 1.7 0.7 4.1 0.9 4.1 0.9 0.2 0 0.3-0.1 0.3-0.2 0-0.2-0.1-0.3-0.2-0.4z"/><path class="B" d="m191 92.9c0 0-0.4-0.1-0.9-0.3-0.9-0.2-2.1-0.6-3.2-1.1-0.5-0.2-1-0.5-1.4-0.7-0.3-0.3-0.5-0.6-0.5-0.8l-0.1-0.2c0.1-0.4 0.2-0.5 0.4-0.7 0.2-0.1 0.5-0.1 0.6-0.1h0.1c0.2 0 0.3-0.1 0.3-0.3 0-0.1-0.1-0.3-0.3-0.3h-0.1c-0.1 0-0.5 0-0.9 0.2-0.3 0.2-0.7 0.6-0.6 1.2q0 0.1 0 0.3c0.1 0.6 0.6 1 1.2 1.4 1.9 1.2 5.2 2 5.3 2 0.1 0 0.3-0.1 0.3-0.3 0-0.1-0.1-0.3-0.2-0.3z"/><path class="C" d="m195.2 84.5c0 0 3.5-1.1 3.5-1.3 0.1-0.2 0.1-0.4 0.5-0.5 0.4-0.1 1.6-0.2 1.7-0.1 0 0.1-1.3 1.1-1.5 1.1-0.1 0-0.4-0.1-0.5 0-1.4 0.6-3.4 1.7-3.5 1.7-0.1-0.1-0.4-1-0.2-0.9z"/><path class="p" d="m188.8 86.7c0 0 6.1-2.5 6.5-2.4 0.3 0.1 0.6 1 0.4 1.2-0.3 0.2-4.8 2-4.8 2z"/><path class="p" d="m182.8 91.3c-0.1 0.1-2.4 1.7-2.4 6 0 1.7 0.4 3.9 1.5 6.5 1 2.4 4.7 12.2 4.7 19.3 0 1.8-0.2 3.4-0.8 4.7-0.6 1.2-1.5 2.1-2.9 2.5q-1.2 0.4-2.1 0.4c-1.4-0.1-2.3-0.6-3-1.5-1-1.3-1.4-3.5-1.9-5.8-0.4-2.2-0.9-4.5-2.2-5.9-0.6-0.7-1.1-1.1-1.6-1.4q-0.7-0.4-1.3-0.4c-0.4 0-0.8 0.1-1 0.2-0.3 0.1-0.6 0.2-0.8 0.3l0.1 0.8c0.4 0 0.7-0.2 1-0.3 0.2-0.1 0.5-0.1 0.7-0.1 0.2 0 0.5 0 0.9 0.2 0.3 0.3 0.8 0.6 1.4 1.3 0.7 0.7 1.1 1.9 1.5 3.3 0.5 2.1 0.8 4.5 1.6 6.5 0.3 1 0.9 1.9 1.6 2.6 0.7 0.7 1.7 1 3 1q1 0 2.3-0.3c1.7-0.5 2.8-1.6 3.5-3 0.7-1.5 0.9-3.2 0.9-5.1 0-7.3-3.8-17.1-4.8-19.6-1-2.6-1.4-4.6-1.4-6.2 0-2 0.5-3.3 1-4.1 0.3-0.4 0.5-0.7 0.7-0.9l0.2-0.2h0.1v-0.1z"/><path class="c" d="m104.2 81.4c4.7 8.1 3.7 30.9 6.9 34.1 3.2 3.1 31.6 4 31.6 4v9.4c0 0-34.1 4-40.4 0.1-6.3-3.9-10.1-19.7-11.8-25.7-4.5-15.7 5.4-36.2 13.7-21.9z"/><path class="D" d="m111.2 111.7c-1.6-7.4-3.1-23.6-7-30.3-8.3-14.3-18 5.6-14.5 21.5 0.7 3.3 2.4 9.3 3.4 14.4 3.6 0.2 9.8-1.8 18.1-5.6z"/><path class="A" d="m142.7 119.5c0 0 7.5-2.6 11-2.2 3.5 0.5 10.4-3.7 12.6-1.2 2.2 2.5-0.5 7.8-6.3 10-4.9 1.8-17.3 2.8-17.3 2.8z"/><path class="A" d="m143.1 119.3l-3.8-2.7c0 0-4.1 8.5 0 14.1l5.1-2.4z"/><path class="B" d="m166.3 116.1c-2.2-2.5-9.1 1.7-12.6 1.2-0.7-0.1-1.5 0-2.5 0.1l0.5 7.4c0.1 0.1 4.6 1.1 9.4 0.8 5-2.3 7.2-7.1 5.2-9.5z"/><path class="k" d="m144.3 124.8l25.3-2.7-1.1-11.3-25.4 2.6z"/><path class="i" d="m145.2 122l23.1-2.4-0.9-7.9-23 2.4z"/><path class="E" d="m161.2 116c0.1 1.5-1.6 3-3.8 3.2-2.3 0.2-4.2-0.9-4.4-2.4-0.1-1.5 1.6-3 3.8-3.2 2.3-0.2 4.2 0.8 4.4 2.4z"/><path class="A" d="m161 115.6c0.2 1.5-1.5 3-3.8 3.2-2.2 0.2-4.2-0.8-4.3-2.4-0.2-1.5 1.5-3 3.8-3.2 2.2-0.2 4.2 0.9 4.3 2.4z"/><path class="b" d="m162 118.4l3.5 0.4c0.5-2.2 0.3-4.4-0.7-6.3l-3.3 1.4c0.9 1.6 1.2 3.1 0.5 4.5z"/><path class="F" d="m151.5 115.9l-6.1 0.7-0.2-1.7 6.1-0.7z"/><path class="F" d="m151.8 118l-6.1 0.7-0.2-1.7 6.1-0.7z"/><path class="F" d="m152.1 120.2l-6.1 0.7-0.2-1.6 6.1-0.8z"/><path class="A" d="m152.3 126.8c0 0 8.3-3.5 9.5-3.8 1.2-0.4-1.3-2.8-5.4-0.9-3.4 1.6-7.2-2.5-10.1 3"/><path class="c" d="m119.8 60.8c0 0-3.5 7.5-3 9.9 1.1 4.4 2.1 7.1 2.1 7.1-0.8 1.3-7.5-4.7-18.8-10.3 0 0 6.9-7.7 6.5-15.5z"/><path class="c" d="m132.6 40.6c0.4 3.6-2 6.6-0.6 10.8 0.7 2.1 1.7 1.2 1.6 2.6-0.2 1.3-5 11.4-11 10.8-5.1-0.5-16.9-6-19.4-14.9-1.7-6.2-1.7-20.1 6.7-22.1 15.9-3.9 22.2 7.6 22.7 12.8z"/><path class="G" d="m132.6 40.6c-0.2-1.5-0.8-3.5-1.9-5.5l-12.4 0.3-0.3 6.9c0 0 8.8 2.5 13.9 3.4 0.4-1.7 0.9-3.4 0.7-5.1z"/><path class="y" d="m122.7 38.2c-1.3 2.9-3.1 6-6.1 7.1-1.5 0.5-3.1 0.5-4.3 1.4-0.5 0.4-0.9 0.9-1.3 1.4-0.7 1-1.4 1.9-1.9 3-0.7 1.3-1.1 2.7-1.9 3.9-1.1 1.5-2.7 2.5-4.5 2.8 0.2-1 0.6-1.9 1.1-2.8-0.6 0.2-1.1 0.3-1.7 0.2-0.6-0.2-1.1-0.7-0.9-1.3 0.2-0.7 1-0.9 1.4-1.3 0.8-0.8 0.5-2.2 0.1-3.2-1.2-3.7-1.6-7.9 0.6-11.1 1.5-2.3 4.1-3.6 6.6-4.7 1.7-0.8 3.4-1.6 5.3-1.8 2.3-0.2 4.6 0.5 6.8 1.1 1.1 0.3 2.3 0.7 3.2 1.5 1.1 0.9 1.6 2.2 2.2 3.4z"/><path class="y" d="m132.7 41.3c-0.3 3.7-2.5 10.3 1.4 12.3 0.1 0.1 0.1 0.2 0 0.3q-1.2 2.5-2.7 4.9c-0.2 0.3-0.7 0-0.5-0.3 0.6-1 1.8-2.9 2.1-4 0.3-0.7-0.4-1.1-0.8-1.6-0.6-0.7-0.8-0.9-0.9-1.6-0.8-2.9 0.8-7.2 1.3-10.1 0.1-0.1 0.1 0.1 0.1 0.1z"/><path class="y" d="m127.2 49.7c-0.5 0.9-0.6 1.8-0.2 2 0.4 0.2 1.1-0.4 1.5-1.3 0.5-0.9 0.6-1.8 0.2-2-0.4-0.2-1.1 0.4-1.5 1.3z"/><path class="c" d="m107.6 46.4c-1 2.3-0.4 4.7 1.2 5.4 1.6 0.7 3.7-0.6 4.7-2.9 1-2.2 0.4-4.6-1.2-5.3-1.7-0.7-3.8 0.6-4.7 2.8z"/><path class="y" d="m130.4 60.4c-0.7-0.6-1.5-0.9-2.3-1.3-1-0.6-1.6-1.3-2.2-2.4-0.2-0.3-0.8 0-0.6 0.4 0.8 2 2.9 2.9 4.8 3.6 0.3 0.1 0.5-0.2 0.3-0.3z"/><path class="A" d="m101.4 42.3c13.6-1 26-1.6 31.7-0.3 0 0 3.1-16.8-16.6-16.3-16.8 0.5-15.1 16.6-15.1 16.6z"/><path class="E" d="m103.7 32.9c0 0 5.7-7.5 14.7-6.3 9.1 1.2 12 5 12.6 11.4l2.2 0.2 0.6-0.2c0 0-3-9.7-8.2-10.9-5.1-1.2-8.3-2.5-12.8-1.1-4.5 1.4-8.8 5.8-9.1 6.9z"/><path class="H" d="m118.3 41.4c0 0 8.1-4.4 15-2 6.9 2.4 8.5 3.9 8.1 4.9-0.5 0.9-23.1-2.9-23.1-2.9z"/><path class="H" d="m131.8 37.6l2 0.4c0 0 1.1-11.6-14.1-12.8-15.3-1.2-17.7 10.8-17.7 10.8 0 0 4.6-12.3 18.2-9.8 13.2 2.5 11.6 11.4 11.6 11.4z"/><path class="I" d="m277 170.4c0 0-2.3 26.7-3.6 29.8-1.3 3.1-27.3 15.3-27.3 15.3l3.2 7.3c0 0 31-7.6 33.2-12.5 2.1-4.9 10.1-22.3 10.1-22.3z"/><path class="J" d="m287.8 200.5c2.7-6 4.8-12.5 4.8-12.5l-15.6-17.6c0 0-2.3 18.1-3.5 26.2 3.9 2.3 10.5 4.4 14.3 3.9z"/><path class="x" d="m290.6 211.2c0 0-39.4 33.6-35.6 45.8 3.7 12.2 9.7 13.1 19.2 13.3 9.4 0.2 43.5-15.6 43.5-15.6l-1.7-13.1-26.3 7.8 20.3-27.8-7.5-15.2z"/><path class="K" d="m320.3 270.3c-1.2-0.1-2.2-2.8-0.5-4.5 2.2-2.5 3.3-5.6 2.9-7.6-1.6 2.7-3.6 2.4-6.1 2.5 0 0-3.4-19.9-2.5-20.8 1.1-1.2 10.2 0.3 10.2 0.9 2.4-0.8 5.8-1.7 7.6-1.7 3.2-0.1 1.2 21.2-0.3 25.8-2 6.1-9.5 5.5-11.3 5.4z"/><path class="L" d="m331.9 239.1c-0.5 0-1.2 0.1-2 0.2 0.8 5.1 2.7 18.3 0.3 22.6-2.4 4.1-8.3 6.5-11.1 7.4 0.3 0.5 0.7 0.9 1.2 1 1.8 0.1 9.3 0.7 11.3-5.4 1.5-4.6 3.5-25.9 0.3-25.8z"/><path class="v" d="m296 220.6c0 0-28.5 20.4-28.9 33.4-0.4 12.9 6.3 16.3 15.4 16.3 9 0 47.8-11.7 47.8-11.7l-0.9-16.9c0 0-27.2 5.8-28.2 4.6-0.6-0.7 30.5-11.8 23.5-39.9l-25.8 3.1z"/><path class="y" d="m332.1 270.3c-1.2-0.1-2.1-2.8-0.5-4.5 2.3-2.5 3.3-5.6 2.9-7.6-1.6 2.7-3.5 2.4-6 2.5 0 0-3.5-19.9-2.6-20.8 1.2-1.2 10.2 0.3 10.2 0.9 2.5-0.8 5.9-1.7 7.7-1.7 3.1-0.1 1.2 21.2-0.3 25.8-2 6.1-9.6 5.5-11.4 5.4z"/><path class="z" d="m343.8 239.1c-0.6 0-1.3 0.1-2.1 0.2 0.9 5.1 2.8 18.3 0.3 22.6-2.3 4.1-8.3 6.5-11 7.4 0.2 0.5 0.7 0.9 1.1 1 1.8 0.1 9.4 0.7 11.4-5.4 1.5-4.6 3.4-25.9 0.3-25.8z"/><path class="I" d="m246.1 215.5c0 0-11.1-0.1-13.6 1.8-2.6 1.9-8.2 9-6.3 9.8 1.9 0.8 7.7-6.8 7.7-6.8 0 0-5.3 10.4-3.3 11.2 2 0.8 2.9-1.7 2.9-1.7 0 0-0.1 2.6 1.4 1.8 1.4-0.7 2.1-2 2.1-2 0 0-0.1 1.1 1.3 0.7 1.3-0.3 3.8-5.2 3.8-5.2 0 0 5.7 0.1 7.2-2.3 1.6-2.3-3.2-7.3-3.2-7.3z"/><path class="M" d="m238.5 217.6c0 0-1.2 1.1-2.5 2.5-0.6 0.7-1.3 1.4-1.8 2.1q-0.3 0.5-0.6 1c-0.1 0.3-0.2 0.6-0.2 0.9q0 0.3 0.1 0.6 0.2 0.2 0.4 0.4 0.5 0.2 1 0.2c1-0.1 2.1-0.6 2.9-1.1 0.8-0.5 1.4-1 1.4-1l-0.3-0.4-0.1 0.5c0 0 0.7 0.1 1.6 0.1 1.2 0 3-0.1 4.4-1 0.2-0.5 0-0.8-0.5-0.9-1.2 0.8-2.8 0.9-3.9 0.9q-0.7 0-1.1 0-0.2 0-0.3 0l-0.1-0.1h-0.2l-0.2 0.2h-0.1c-0.2 0.2-0.7 0.7-1.4 1.1-0.7 0.4-1.5 0.7-2.1 0.7q-0.3 0-0.5-0.1h-0.1 0.1-0.1 0.1v-0.1c0 0 0-0.2 0.1-0.5 0.4-0.8 1.6-2.2 2.7-3.3 0.5-0.6 1-1.1 1.4-1.4 0.4-0.4 0.6-0.6 0.6-0.6 0.1-0.6-0.2-0.7-0.7-0.7z"/><path fill-rule="evenodd" class="g" d="m240.8 226.2v14.2h-25.5v-14.2zm-3.8 2.8h-17.9v10.1h17.9z"/><path class="i" d="m256.6 270.3h-57.1v-28.1h57.1z"/><path class="i" d="m257.7 245.3h-59.3v-8.3h59.3z"/><path class="b" d="m256.6 247.5h-57.1v-2.2h57.1z"/><path class="I" d="m272.4 166.4c0 0 7 4.5 7.8 6.8 1.4 4.3 3.4 7.8 3.4 7.8 1 0 2.4-8.7 9-19.5 0 0-10-2.7-13.8-9.6z"/><path class="I" d="m252 153.6c1.1 3.4 4.6 5.2 5 9.5 0.2 2.3-1.1 1.9-0.4 3.1 0.7 1.1 9.2 8.4 14.5 5.4 4.4-2.6 12.9-12.4 11.5-21.6-1-6.3-6.6-19-15.1-17.4-16.2 2.9-17.1 16-15.5 21z"/><path class="N" d="m252 153.6c-0.4-1.4-0.7-3.5-0.4-5.8l11.3-4.8 3.2 6.1c0 0-7 5.9-11.4 8.9-1-1.4-2.1-2.7-2.7-4.4z"/><path class="y" d="m263.3 147.2c0-0.1 3.1 3.8 8.7 4.1 5.5 0.4 5.3 2.9 5.3 2.9l4.8 2.3c0 0 4.2-7.7-2.2-14.6-6.3-6.9-16.6 5.3-16.6 5.3z"/><path class="y" d="m252.2 154.3c1.8 3.2 6.5 8.4 3.8 11.8 0 0.1 0 0.2 0.1 0.3q2.1 1.8 4.5 3.3c0.3 0.2 0.6-0.3 0.3-0.5-1-0.6-2.8-1.9-3.6-2.7-0.5-0.6 0-1.2 0.2-1.8 0.2-0.9 0.2-1.2 0.1-1.9-0.5-2.9-3.7-6.3-5.4-8.6 0-0.1 0 0.1 0 0.1z"/><path class="y" d="m260.7 159.7c0.8 0.6 1.3 1.4 1 1.7-0.3 0.4-1.1 0.1-2-0.5-0.8-0.7-1.2-1.5-0.9-1.8 0.2-0.3 1.1-0.1 1.9 0.6z"/><path class="I" d="m277.2 148.7c1.8 1.6 2.3 4.1 1.1 5.3-1.2 1.3-3.6 1-5.4-0.6-1.8-1.7-2.3-4.1-1.1-5.4 1.2-1.3 3.6-1 5.4 0.7z"/><path class="A" d="m281.2 142.3c-12.8 4.7-24.3 9.3-29.1 12.8 0 0-9.7-14.1 8.6-21.7 15.5-6.5 20.5 8.9 20.5 8.9z"/><path class="E" d="m275.3 134.8c0 0-8.3-4.6-16.1 0.2-7.7 4.8-8.9 9.5-6.8 15.6l-2 1-0.5 0.1c0 0-1.3-10.1 3-13.3 4.2-3.2 6.6-5.7 11.2-6.2 4.7-0.5 10.4 1.6 11.2 2.6z"/><path class="H" d="m265.4 148.4c0 0-9.2-0.6-14.5 4.4-5.3 5-6.2 7-5.4 7.7 0.8 0.7 19.9-12.1 19.9-12.1z"/><path class="H" d="m251.5 150.5l-1.6 1.2c0 0-5.8-10.1 7.6-17.4 13.5-7.4 20.5 2.5 20.5 2.5 0 0-9.2-9.3-20.5-1.4-11 7.6-6 15.1-6 15.1z"/><path class="y" d="m265.4 165.5c-0.6 1.4-1.2 2.7-2.3 3.8-0.1 0.1 0 0.4 0.2 0.3 1.5-0.5 2.3-2.5 2.8-3.8 0.2-0.4-0.5-0.7-0.7-0.3z"/><path class="I" d="m292.6 178c-1.4 8.1-2.2 29.1-4.8 32.5-2.7 3.4-26.4 19.8-26.4 19.8l5.5 7.1c0 0 29.8-14.3 33.9-21.1 4.1-6.8 8.2-24.1 9.2-28.3 3.2-13.1-12.7-36.9-17.4-10z"/><path class="I" d="m261.4 230.3c0 0-12.4 0.2-15.3 1.1-3 1-8.4 5.6-7.8 7.3 0.6 1.8 8.4-4.2 8.4-4.2 0 0-7.7 7.9-6.1 8.8 1.6 0.9 2.9-0.5 2.9-0.5 0 0 0.2 2 3 0.8 0 0 0.8 1.6 3 0.4 2.2-1.2 6.3-3.1 6.3-3.1 0 0 9.6 0.6 11.6-4.4 2-5-6-6.2-6-6.2z"/><path class="M" d="m246.8 244q0 0 0.2-0.2c0.4-0.4 1.3-1.4 2.5-2.4 1.1-1 2.5-2.1 3.7-2.6 0.2-0.2 0.3-0.4 0.2-0.7-0.1-0.2-0.4-0.3-0.6-0.2-1.5 0.7-3.2 2-4.5 3.2-1.3 1.2-2.2 2.2-2.2 2.2-0.2 0.2-0.2 0.5 0 0.7 0.2 0.2 0.5 0.2 0.7 0z"/><path class="M" d="m244.1 242.7c0 0 0.2-0.3 0.6-0.8 0.5-0.8 1.4-2 2.3-3.1 0.9-1.1 1.9-2.1 2.6-2.5 0.2-0.1 0.3-0.4 0.2-0.7-0.2-0.2-0.5-0.3-0.7-0.1-0.6 0.3-1.2 0.9-1.9 1.6-1.9 2.1-3.9 5-3.9 5-0.2 0.3-0.1 0.6 0.1 0.7 0.2 0.2 0.5 0.1 0.7-0.1z"/><path class="D" d="m292.6 178c-0.9 5.5-2.2 16.8-3.4 24.6 4.1 1 11.9 2.6 17 2.1 2.2-6.8 3.2-14.2 3.8-16.7 3.2-13.1-12.7-36.9-17.4-10z"/><path class="x" d="m313.9 125.6h-32.8l16.4-28.4 16.4-28.4 16.4 28.4 16.4 28.4z"/><path class="A" d="m313.9 123.2h-27.5l13.8-24.9 13.7-24.9 13.7 24.9 13.8 24.9z"/><path class="x" d="m313.7 112.4l7.1-19.8-5-3.8-4 19.8-3.8-1.6-1.9 8.7-3.7-1.6v8.3l9.4-4.3-4.2-1.8 1.9-4.8z"/></svg>