<svg version="1.2" xmlns="http://www.w3.org/2000/svg" viewBox="0 0 73 129" width="73" height="129"><style>.a{fill:#231f20}.b{fill:#d1d3d4}.c{fill:#2b2b2b}.d{fill:#e6e7e8}.e{fill:#f1f2f2}.f{fill:#a7a9ac}.g{fill:#bcbec0}.h{fill:#3498db}.i{fill:#414042}</style><path class="a" d="m46.3 126.9v2.2c-2.8 0-5.6-0.7-7.8-1.9l-34.9-20.2c-2.2-1.3-3.3-3-3.2-4.6v-1.7c0.1 1.5 1.2 3 3.2 4.1l34.9 20.2c2.2 1.2 5 1.9 7.8 1.9z"/><path class="b" d="m46.3 41.6v85.3c-2.8 0-5.6-0.7-7.8-1.9l-34.9-20.2c-2-1.1-3.1-2.6-3.2-4.1v-85.2c0.2 1.4 1.2 2.9 3.2 4.1l34.9 20.1c2.2 1.3 5 1.9 7.8 1.9z"/><path class="c" d="m72.3 114.4v2.2l-18.4 10.6c-2.1 1.2-4.9 1.9-7.6 1.9v-2.2c2.7 0 5.5-0.6 7.6-1.9z"/><path class="d" d="m72.3 29.1v85.3l-18.4 10.6c-2.1 1.3-4.9 1.9-7.6 1.9v-85.3c2.7 0 5.5-0.6 7.6-1.8z"/><path class="e" d="m72.3 29.1l-18.4 10.7c-2.1 1.2-4.9 1.8-7.6 1.8-2.8 0-5.6-0.6-7.8-1.9l-34.9-20.1c-2-1.2-3-2.7-3.2-4.1-0.1-1.8 0.9-3.5 3.1-4.8l18.5-10.6z"/><path class="f" d="m19.1 105.4q0 0-0.1 0 0 0-0.1 0-0.1 0-0.1 0-0.1 0-0.1 0-0.1-0.1-0.2-0.1 0 0 0 0-0.1 0.1-0.2 0.1 0 0-0.1 0 0 0-0.1 0 0 0 0 0-0.1 0.1-0.2 0.1l1.4-0.8q0 0 0 0 0.1-0.1 0.2-0.1 0 0 0 0 0 0 0 0 0.1 0 0.1 0 0 0 0.1-0.1 0 0 0 0 0 0 0.1 0 0 0 0.1 0 0 0 0 0 0 0 0.1 0 0 0 0.1 0 0 0 0 0 0.1 0 0.1 0 0 0 0.1 0 0 0 0.1 0 0 0 0.1 0.1 0 0 0 0 0 0 0.1 0 0.1 0 0.2 0.1 0 0 0 0 0.1 0 0.1 0 0.1 0.1 0.3 0.2 0.3 0.1 0.5 0.3 0.1 0.1 0.2 0.1 0.1 0.1 0.2 0.2 0 0.1 0.1 0.1 0 0.1 0.1 0.1 0 0.1 0.1 0.2 0.1 0.1 0.2 0.2 0 0.1 0.1 0.1 0 0 0 0.1 0 0 0.1 0.1 0.1 0.1 0.1 0.2 0.1 0.1 0.2 0.2 0 0 0 0 0 0 0 0 0 0.1 0.1 0.2 0.1 0.1 0.1 0.3 0.1 0.1 0.1 0.2 0 0 0 0 0 0 0 0 0.1 0.1 0.1 0.2 0.1 0.1 0.1 0.3 0 0 0 0.1 0.1 0 0.1 0 0 0.1 0 0.1 0 0.2 0.1 0.3 0 0.1 0 0.2 0 0.1 0 0.1 0 0.1 0 0.1 0.1 0.3 0.1 0.5c0 0.9-0.3 1.5-0.8 1.7l-1.4 0.9c0.4-0.3 0.7-0.9 0.7-1.7q0-0.3 0-0.6 0-0.1 0-0.1-0.1-0.3-0.2-0.6 0 0 0-0.1-0.1-0.3-0.2-0.6 0 0 0 0-0.2-0.3-0.3-0.6 0 0 0 0-0.2-0.3-0.4-0.6 0 0-0.1 0-0.1-0.3-0.4-0.5 0-0.1 0-0.1-0.2-0.2-0.4-0.3-0.1-0.1-0.1-0.2-0.3-0.1-0.5-0.3-0.2-0.1-0.4-0.2 0 0-0.1 0-0.1 0-0.2-0.1z"/><path class="g" d="m19.8 105.7c-1.5-0.8-2.7-0.2-2.7 1.5 0 1.7 1.2 3.8 2.7 4.6 1.5 0.8 2.6 0.2 2.6-1.5 0-1.7-1.2-3.8-2.6-4.6z"/><path class="h" d="m16.1 92.4v7.1l11.1 6.4v-7.1z"/><path class="a" d="m42.3 18.4q0-0.1 0-0.1v-4.1l-0.2 0.1q-0.3-0.7-1.2-1.2c-1.9-1.1-4.9-1.1-6.7 0q-0.9 0.5-1.2 1.2l-0.2-0.1v4.1q0 0 0 0.1c0.1 0.7 0.5 1.3 1.4 1.8 1.9 1.1 4.9 1.1 6.7 0.1 0.9-0.6 1.3-1.2 1.4-1.9z"/><path class="i" d="m40.9 16.2c-1.8 1.1-4.8 1.1-6.7 0-1.8-1.1-1.8-2.8 0-3.9 1.8-1 4.8-1 6.7 0.1 1.8 1 1.8 2.7 0 3.8z"/><path class="a" d="m40 14.1v-0.1-2.2l-0.5 0.1q-0.1-0.1-0.2-0.2c-1-0.5-2.5-0.5-3.5 0q-0.2 0.1-0.3 0.3l-0.4-0.2v2.2c0 0.4 0.2 0.8 0.7 1 1 0.6 2.5 0.6 3.5 0 0.4-0.2 0.7-0.6 0.7-0.9z"/><path class="i" d="m39.3 12.8c-1 0.6-2.5 0.6-3.5 0-0.9-0.5-0.9-1.4 0-1.9 1-0.6 2.5-0.6 3.5 0 0.9 0.5 0.9 1.4 0 1.9z"/></svg>