<svg version="1.2" xmlns="http://www.w3.org/2000/svg" viewBox="0 0 102 170" width="102" height="170"><style>.a{fill:#f7967c}.b{fill:#e6eefc}.c{fill:#db6357}.d{fill:#e75860}.e{fill:#404082}.f{fill:#d9e3f9}.g{fill:#272443}.h{fill:#a9ccff}.i{fill:#6981b7}.j{fill:#d83f4e}.k{fill:#fff}.l{fill:#c9644d}.m{fill:#ec8161}</style><path class="a" d="m37.1 46c0.5 1.3 0.8 2.7 0.8 4.1 0 0.6 0 1.3-0.4 1.8-0.3 0.5-0.9 0.7-1.4 0.8-0.6 0-1.2-0.1-1.7-0.3-2.3-0.8-4.4-2.8-5.9-4.7-2.1-2.9-3.5-6.2-4.7-9.6-0.9-2.5-1.7-5.2-1.8-8-0.1-2 0.1-5.4 1.9-6.7 0.9-0.6 2.2 0.2 2.9 0.8 1.5 1.2 2.2 3.2 3 4.8 0.8 1.9 1.6 3.8 2.4 5.6 0.8 1.9 1.8 3.7 2.6 5.5q1.2 2.9 2.3 5.9z"/><path class="b" d="m27.6 42.2q1-0.8 2.1-1.5 1-0.6 2.1-1.1 1.2-0.5 2.3-1.1-0.7-1.5-1.3-3.1-1.1-2.6-2.3-5.2c-0.7-1.7-1.5-3.2-2.5-4.8-0.7-1.2-1.8-2.2-3.3-2.5-0.2 0-0.5 0-0.7 0.1q-0.1 0.1-0.3 0.2c-0.2 0.3-0.3 0.7-0.5 1-0.2 0.2-0.3 0.4-0.4 0.6q-0.4 0.9-0.6 1.8c-0.2 1.2-0.2 2.4-0.2 3.5 0.1 2.8 0.9 5.5 1.8 8 0.6 1.8 1.4 3.6 2.2 5.4q0.8-0.7 1.6-1.3z"/><path class="a" d="m43.2 39q0.5-1.6 0.8-3.3c0.2-1 0.5-1.9 0.7-2.8 0.1-0.7 0.1-1.4 0.4-2 0.2-0.7 0.4-1.2 0.2-1.9-0.2-0.6-0.7-1.2-1.3-1.4-0.5-0.3-1.3-0.4-1.9-0.1-0.6 0.3-0.6 1-0.8 1.7q-0.4 1.1-0.8 2.2-1.2 3.1-2.3 6.1c-0.7 1.9-1.4 3.8-2.3 5.6-0.6 1-1.2 2-1.6 3.1q-0.5 1.2-0.7 2.6c-0.1 0.9-0.2 2 0.2 2.8 0.4 0.8 1.4 1.1 2.3 1.2 1 0.1 1.8-0.1 2.6-0.9 0.8-0.7 1.3-1.8 1.7-2.9 0.6-1.6 1.1-3.2 1.5-4.8q0.4-1.3 0.7-2.7c0.2-0.7 0.6-1.7 0.6-2.5z"/><path class="c" d="m35.7 43.1q-0.6 1.1-1.1 2.1c-0.3 0.8-0.6 1.5-0.8 2.2q-0.1 0.7-0.2 1.3c0 0.1 0.2 0.1 0.2 0 0.1-0.7 0.2-1.5 0.5-2.2q0.4-1.1 1-2.2 0.3-0.6 0.6-1.2c0-0.1-0.2-0.1-0.2 0z"/><path class="d" d="m10.8 15.2q0.1-0.4 0.3-0.8c0.3-1 0.6-2 0.9-3 0.9-2.5 2.2-4.8 3.8-6.8 0.8-1 1.7-2 2.9-2.6 0.6-0.3 1.3-0.4 2-0.4 0.7 0.1 1.1 0.4 1.7 0.6 1.5 0.5 2.9 0.9 4.2 1.7 1.4 0.9 1.9 2.2 2.5 3.8 0.1 0.2 0.2 0.5 0.4 0.6 0.5 0.4 1.3-0.1 1.6 0.5 0.4 0.5 0 2.1-0.1 2.7q-0.2 2.9-0.9 5.7c-0.4 1.6-0.8 3.1-1.7 4.5-1.6 2.3-4.2 3.1-6.9 2.9-0.8-0.1-1.6-0.3-2.3-0.5-1.6-0.6-3.3-1-5-1-1.6 0.1-3.3 0.4-4.7-0.2-0.3-0.2-0.6-0.4-0.7-0.7-0.1-0.2 0-0.4 0-0.6 0.2-1.2 0.8-2.2 1.1-3.4q0.5-1.5 0.9-3z"/><path class="a" d="m26.2 158q0.1-1 0.2-1.9 0-0.1 0-0.2 0.6-7.2 1.2-14.4c0.3-3.7 0.6-7.5 0.7-11.2 0.3-3.2 0.5-6.4 0.6-9.6 0-0.9-0.4-2.2-1.1-2.8-0.5-0.3-1.1-0.4-1.7-0.5-1.3 0-2.6 0.1-3.9 0.6-3.2 1.1-3 3.6-3 6.8q0 5.9 0.3 11.8c0.3 7.8 0.9 15.6 1.4 23.5 0.1 2.1 0.5 4.2 0 6.2-0.2 0.7-0.3 1.6 0.4 2q0.2 0.1 0.5 0.2c1.3 0.2 2.7-0.1 4-0.3 0.6-0.1 1.3-0.2 1.8-0.4q0.1-0.1 0.2-0.2c0.1-0.2 0.1-0.4 0-0.6-0.1-0.2-0.2-0.3-0.4-0.5-1.9-2.2-1.5-6-1.2-9v0.5q0 0 0 0z"/><path class="d" d="m26.6 69.8c-2.1-0.2-4.5 0.5-5.9 1.2-2.4 1.2-3.4 3.1-3.9 5.5v17.9c0.2 3.3 0.3 6.6 0.3 9.9 0.1 3.6 0 7.3 0 10.9q-0.1 4.1-0.1 8.1c0-0.5 3.9-0.2 4.4-0.2q1.9 0 3.8 0.1c1 0 2.1 0.5 3.1 0.9 1 0.4 1.4 0.4 1.7-1 1.6-6.3 0.8-13.3 1-19.8 0.2-6.6 0.4-13.1 0.5-19.7 0-3 0-5.9-0.5-8.8-0.2-1.3-0.6-2.6-1.3-3.6-0.7-0.9-1.8-1.3-3.1-1.4z"/><path class="e" d="m33.5 169.1q0 0 0 0.1h-13.1q0-0.1 0-0.3-0.1-0.3-0.1-0.6c0.1-0.8 0.3-1.6 0.7-2.3 0-0.2 0.2-0.4 0.3-0.4 0.2 0 0.4 0.1 0.6 0.2 0.6 0.4 1.6 0.6 2.3 0.3 0.5-0.2 0.9-0.5 1.2-0.9 0.2-0.1 0.3-0.3 0.5-0.4q0.3-0.2 0.7-0.1c0.6 0.1 1.2 0.7 1.8 1q1 0.5 2 0.9c0.6 0.3 1.3 0.4 1.8 0.7 0.4 0.2 1 0.5 1.3 0.9 0.2 0.3 0.2 0.6 0 0.9z"/><path class="f" d="m33.5 169.1q0 0 0 0.1h-13.1q0-0.1 0-0.3-0.1-0.3-0.1-0.6l13.2-0.1c0.2 0.3 0.2 0.6 0 0.9z"/><path class="g" d="m30.6 167.1c-0.1-0.1-0.3-0.2-0.4-0.2q-1.2-0.5-2.2-1.1-0.6-0.3-1.2-0.7-0.1-0.1-0.2-0.1c0 0-0.1 0.1 0 0.1q1 0.8 2.2 1.4 0.6 0.3 1.2 0.5c0.1 0 0.2 0.1 0.2 0.1 0.1 0.1 0 0.2 0 0.3-0.1 0.1-0.5 0.6-0.4 0.7 0.2 0.3 0.5-0.2 0.5-0.3q0.1-0.1 0.1-0.2c0.1-0.2 0.2-0.3 0.2-0.5z"/><path class="g" d="m22.8 168.1c-0.2-0.9-0.6-1.8-1.4-2.2-0.1-0.1-0.2-0.1-0.2 0q-0.1 0 0 0.1c0.7 0.4 1.2 1.3 1.3 2.1 0 0.1 0.4 0.1 0.3 0z"/><path class="f" d="m27.9 165.1q-0.1 0-0.1 0-0.1 0-0.1 0.1-0.3 0.2-0.5 0.5c0 0 0 0.1 0.1 0.1q0 0 0.1 0 0 0 0.1 0 0.2-0.3 0.5-0.5c0-0.1 0-0.1-0.1-0.2z"/><path class="f" d="m28.6 165.5c-0.1 0-0.2 0-0.2 0.1q-0.3 0.2-0.5 0.5 0 0 0 0 0.1 0.1 0.1 0.1 0.1 0 0.1 0 0.1 0 0.1-0.1 0.2-0.2 0.4-0.4c0.1-0.1 0-0.1 0-0.2z"/><path class="f" d="m29.4 166q0-0.1-0.1-0.1 0 0-0.1 0 0 0-0.1 0-0.1 0.3-0.3 0.5-0.1 0 0 0.1 0 0 0 0 0.1 0 0.2 0 0 0 0 0 0.2-0.2 0.4-0.5 0 0 0 0z"/><path class="f" d="m30.2 166.2c-0.1 0-0.2 0-0.2 0.1q-0.3 0.2-0.4 0.5-0.1 0.1 0 0.1 0 0 0.1 0c0 0 0.1 0 0.2 0q0-0.1 0-0.2 0.1 0 0.1 0 0 0 0-0.1 0 0 0 0 0 0 0 0 0.1-0.1 0.3-0.2c0-0.1 0-0.1-0.1-0.2z"/><path class="e" d="m18.4 139.5c0.1 7 0.1 14 0.2 21 2.7 0.7 6.1 1.2 8.8 0.7 0.3-1.2 0.4-2.3 0.5-3.6q0.1-2.8 0.3-5.6 0.4-5.7 0.9-11.4c0.6-7.6 1.1-15.1 1.3-22.7 0-1.3 0.6-3.4-0.4-4.5-1-1-2.6-1.4-4-1.3-1.9 0.1-4.2 0.7-5.8 1.8-2.8 2.1-1.9 7.3-1.9 10.2q0 7.7 0.1 15.4z"/><path class="a" d="m7.6 158q0.2-1 0.4-1.9 0-0.1 0-0.1 1.5-7.1 3-14.2c0.8-3.6 1.6-7.3 2.2-11 0.6-3.2 1.2-6.3 1.7-9.5 0.1-0.9-0.1-2.2-0.7-2.9-0.5-0.4-1.1-0.6-1.7-0.7-1.2-0.2-2.6-0.2-3.9 0.1-3.3 0.7-3.4 3.2-3.8 6.4q-0.8 5.8-1.2 11.7c-0.7 7.8-1 15.6-1.6 23.5-0.1 2 0 4.2-0.7 6.1-0.3 0.7-0.5 1.6 0.1 2.1q0.2 0.1 0.5 0.2c1.3 0.4 2.7 0.3 4 0.2 0.6 0 1.3 0.1 1.8-0.2q0.2 0 0.3-0.1c0.1-0.2 0.1-0.4 0-0.6 0-0.2-0.1-0.3-0.3-0.5-1.6-2.5-0.7-6.1 0-9.1l-0.1 0.5q0 0 0 0z"/><path class="d" d="m14.8 70c-2.4-0.3-6.3 0.1-8 2-2 2.3-2.2 6.2-2.3 9.1-0.7 14.2-0.7 28.5 0.1 42.7 0 0.6 1.9-0.7 2-0.8 0.9-0.2 2.1 0.1 3 0.1q1.9 0 3.7 0.1c1.3 0 4.2 1.8 5 0.6 0.4-0.6 0.5-1.4 0.5-2.2q1-20.7 2-41.5c0.1-2.2 0.2-4.5-0.7-6.5-1-2.3-3.1-3.3-5.3-3.6z"/><path class="e" d="m13.5 170q-0.1 0-0.1 0l-13-1.6q0-0.2 0-0.3 0-0.3 0.1-0.7c0.1-0.8 0.4-1.5 0.9-2.2 0.1-0.1 0.2-0.3 0.4-0.3 0.2 0 0.4 0.1 0.5 0.3 0.6 0.4 1.5 0.7 2.3 0.6 0.5-0.2 0.9-0.4 1.3-0.7 0.2-0.2 0.3-0.3 0.5-0.4q0.4-0.2 0.7 0c0.6 0.2 1.1 0.8 1.7 1.2q0.9 0.7 1.9 1.2c0.6 0.3 1.2 0.6 1.7 0.9 0.3 0.2 0.9 0.6 1.1 1.1 0.2 0.3 0.2 0.6 0 0.9z"/><path class="f" d="m13.5 170q-0.1 0-0.1 0l-13-1.6q0-0.2 0-0.3 0-0.3 0.1-0.7l13 1.7c0.2 0.3 0.2 0.6 0 0.9z"/><path class="g" d="m10.8 167.6c-0.1-0.1-0.3-0.2-0.4-0.3q-1.1-0.6-2-1.3-0.6-0.5-1.1-0.9-0.1-0.1-0.2-0.1c0 0-0.1 0.1 0 0.1q0.9 0.9 2 1.6 0.5 0.4 1.1 0.7c0.1 0.1 0.2 0.1 0.2 0.2 0.1 0.1 0 0.2 0 0.2-0.1 0.1-0.6 0.5-0.5 0.7 0.1 0.3 0.5-0.2 0.5-0.3q0.1-0.1 0.2-0.2c0.1-0.1 0.2-0.2 0.2-0.4z"/><path class="g" d="m3 167.5c-0.1-0.9-0.4-1.8-1.2-2.3 0-0.1-0.1-0.1-0.2-0.1q-0.1 0.1 0 0.1c0.7 0.6 1 1.5 1.1 2.3 0 0.1 0.3 0.1 0.3 0z"/><path class="f" d="m8.4 165.3q-0.1 0-0.1 0-0.1 0-0.1 0-0.3 0.2-0.6 0.4c0 0.1 0 0.1 0 0.2q0.1 0 0.2 0 0 0 0.1-0.1 0.2-0.2 0.5-0.4c0.1 0 0-0.1 0-0.1z"/><path class="f" d="m9 165.8c-0.1 0-0.2-0.1-0.2 0q-0.3 0.2-0.5 0.4 0 0 0 0.1 0 0 0 0 0.1 0 0.2 0 0 0 0 0 0.3-0.2 0.5-0.4c0.1 0 0-0.1 0-0.1z"/><path class="f" d="m9.8 166.3q-0.1 0-0.1-0.1-0.1 0-0.1 0-0.1 0-0.1 0-0.2 0.2-0.4 0.4 0 0.1 0 0.1 0 0 0 0.1 0.1 0 0.1 0 0.1 0 0.1 0 0.2-0.2 0.4-0.4 0.1-0.1 0.1-0.1z"/><path class="f" d="m10.5 166.7c0 0-0.1-0.1-0.2 0q-0.3 0.2-0.5 0.5 0 0 0 0 0 0.1 0.1 0.1c0.1 0 0.1 0 0.2-0.1q0 0 0.1-0.1 0 0 0 0 0.1 0 0.1-0.1 0 0 0 0 0 0 0 0 0.1-0.1 0.3-0.2c0 0 0-0.1-0.1-0.1z"/><path class="e" d="m16.7 124.9q-2.1 9.9-4.1 19.8-1.1 5.7-2.2 11.4-0.2 1.4-0.5 2.8c-0.1 0.7-0.1 2.3-0.5 2.8-0.6 0.9-2.5 0.2-3.5 0-1.5-0.2-3-0.4-4.5-0.8-0.4-0.1-0.7-0.2-1.1 0 0.4-6.2 1.5-12.5 2.3-18.6q1.1-9.3 2.3-18.7c0.2-2.2 0.5-4.4 1.1-6.6 1.1-4 5.6-4.7 9.2-4.4 5.4 0.5 2.8 6.3 2.1 9.8q-0.3 1.2-0.6 2.5z"/><path class="d" d="m22.3 83.1c2.6 0.4 6.9 1.5 8.6-1.2 1.2-1.9 0.7-4.7 0.7-6.8-0.1-4.7-0.5-9.3-1.4-13.9-0.3-2.1-0.1-4.7-2.2-5.1-1.2-0.2-2.6 0-3.8 0q-4.4 0-8.8 0c-2 0-5.1-1.5-6.7 0.2-0.7 0.8-1.1 1.9-1.3 3-1.6 6.4-2.4 13.1-2.4 19.7-0.1 4.3 2.6 5.5 6.6 4.4 1.9-0.6 3.5-1.1 5.7-1 1.7 0.1 3.3 0.5 5 0.7z"/><path class="b" d="m31.4 44.9q0 0.2 0 0.3-0.1 0.5-0.2 1.1c-0.4 3.1-1.3 6.1-1.6 9.2-0.3 2.9-3.1 2.1-5.3 2.1h-3.9c-3.5 0-7 0.5-10.5 0.3-0.7 0-1.4-0.1-1.9-0.5-0.4-0.4-0.6-1-0.8-1.6-1.6-4.7-3.1-9.5-4.3-14.3-1.1-4.7-1.9-9.5-1.2-14.2 0.1-0.9 0.3-1.8 0.8-2.6 0.5-0.8 1.3-1.4 2.2-1.9q0.3-0.2 0.6-0.4 2.5-1.2 5.1-1.8c2.3-0.5 4.6-0.7 6.8-0.6 2.2 0.1 4 1 5.9 1.8 1.5 0.7 3.2 1.4 4 3 0.2 0.4 0.3 0.9 0.5 1.3 0.4 1.5 1 2.9 1.4 4.3 0.7 2.5 1.5 4.9 2 7.5 0.4 2.3 0.5 4.7 0.4 7z"/><path class="h" d="m33.3 124.9c-1.7 0.3-3.9 0-5.7 0h-20.4c-0.2 0-3.9 0-3.9 0q0.3-11 0.2-21.9c0-12.4-0.7-24.6 0.9-36.8q0.1-0.7 0.2-1.4c0.4-2.8 0.8-5.7 1.7-8.5q1.3-4.2 2.8-8.3c1.7-4.8 3-9.9 4-14.9q0.1-0.3 0.1-0.7 0 0 0.1 0 0.2 0 0.5 0 7.4-0.4 14.9 0 0.5 0 0.9 0 0 0 0 0l0.1 0.1q0.2 1.1 0.5 2.1c0.3 1.1 0.6 2.2 0.8 3.3 0.4 2.3 0.5 4.7 0.4 7 0 2.4-0.3 4.8-0.6 7.2q-0.1 1.8-0.2 3.6c0 1 0 2.1 0 3.1 0 0.9 0 1.8 0 2.8 0.1 0.8 0.2 1.7 0.6 2.4q0 0.1 0.1 0.1c1.5 17.1 1.9 34.2 2 51.4q0 4.7 0 9.4z"/><path class="a" d="m22.9 21.9c-0.2 1.9-1 6.5-3 6.4-0.2 0-0.5-0.1-0.7-0.2-2-1.1-4.1-2.2-5.8-3.6q-1.3-1.1-2.2-2.4c-0.3-0.5-0.6-1-0.8-1.5 2.3-0.5 4.6-0.7 6.8-0.6 2.1 0.1 4 0.9 5.7 1.9z"/><path class="i" d="m30 33.8q-0.2-0.7-0.3-1.3l-0.1-0.1q0 0 0 0-0.4 0-0.9 0-7.5-0.4-14.9 0-0.3 0-0.5 0-0.1 0-0.1 0 0 0.4-0.1 0.7-0.1 0.3-0.2 0.7z"/><path class="i" d="m29.6 32.4q-0.4 0-0.9 0c-1.4-3.4-3.3-6.5-5.5-9.4-1.7-2.2-3.4-3.3-5.6-3.7-0.9-0.2-1.9-0.4-2.8-0.5q-0.3 0-0.5-0.1c-0.5 0-1.1 0.5-1.7 1.4-0.9 1.5-0.7 3.4-0.5 5.1 0.3 2.4 1.2 4.8 1.9 7.2-0.2 0-0.6 0-0.7 0q-0.1 0-0.1 0c0 0.2 0-0.2 0 0-0.8-2.5-1.6-4.5-1.9-7.1-0.2-1.8-0.5-3.9 0.6-5.6 0.5-0.9 1.4-1.9 2.5-1.8q0.3 0.1 0.5 0.1c1 0.1 1.9 0.3 2.9 0.5 2.4 0.5 4.2 1.7 6.1 4 2.3 3.1 4.3 6.4 5.7 9.9z"/><path class="b" d="m24.4 16.5c-1.1 0-2 0.9-2 2 0 1.1 0.9 2 2 2 1.1 0 2.1-0.9 2.1-2 0-1.1-1-2-2.1-2z"/><path class="a" d="m24 15.7c-0.3-0.5-1.2-0.6-1.7-0.9q-0.2-0.1-0.5-0.2-2.3-1.1-4.6-2.4c-0.7-0.4-0.9 0.2-1.2 0.8q-0.7 1.3-1.4 2.5-0.5 1.1-1 2.1v-0.1q-0.3 0.6-0.6 1.1-0.4 0.9-0.7 1.8c-0.1 0.3-0.2 0.6 0 0.9q0.2 0.3 0.5 0.3c0.6 0.5 1.7 0.6 2.3 0.7q1.8 0.3 3.6 0.3 0.2 0 0.4 0c1.2-0.1 1.8 0 2.3-1.1q0.1-0.3 0.2-0.5 0.1-0.1 0.1-0.3 0.6-1 1.2-2c0.2-0.4 0.6-0.9 0.9-1.4q0.2-0.3 0.3-0.5c0.1-0.4 0.1-0.8-0.1-1.1z"/><path class="c" d="m24.1 16.8q-0.1 0.2-0.3 0.5c-0.3 0.5-0.7 1-0.9 1.4q-0.6 1-1.2 2c-0.3 0.1-0.7 0.1-1.1 0.1-0.8 0-1.5-0.2-2.2-0.6-1.5-1.1-1.7-3.2-1.5-4.9 0.2-1.2 0.8-1.5 2-1.5 1 0.1 2 0.5 2.8 1 0.9 0.4 1.7 1 2.3 1.8q0 0.1 0.1 0.2z"/><path class="a" d="m30.6 6.1c-0.7-1.7-1.8-3.1-3.6-3.7-1.7-0.5-3.5-0.5-5.1 0.1-2.7 1-4.3 3.1-5.1 5.8-0.5 1.5-0.7 3-0.6 4.6 0 1.7 0.3 3.3 1.1 4.8 0.9 1.5 2.9 2.9 4.7 2.6 1.3-0.2 2.3-0.7 3.3-1.5q0.5-0.5 1-1c1.6-1.7 2.6-3.4 3.6-5.5 0.8-1.8 1.5-4 0.8-6q0-0.1-0.1-0.2z"/><path class="c" d="m25.8 11.9q0 0 0-0.1c-0.2-0.1-0.6 0.5-0.7 0.7q-0.3 0.5-0.5 1.1c-0.1 0.4-0.2 0.9-0.3 1.4-0.2 0.5-0.9 0.4-1.4 0.3-0.2-0.1-0.1 0.1 0 0.2 0.4 0.1 1 0.2 1.4 0 0.2-0.1 0.2-0.3 0.3-0.5q0.1-0.4 0.2-0.8 0.1-0.6 0.4-1.2 0.1-0.3 0.3-0.5c0.1-0.2 0.3-0.3 0.3-0.5q0.1-0.1 0-0.1z"/><path class="j" d="m29.1 13.3q0 0 0 0c0 0 0.1 0.1 0.1 0.1q0 0 0.1-0.1 0-0.3-0.1-0.5c-0.1-0.4-0.2-0.7-0.5-1q-0.5-0.4-1.1-0.6c-0.2-0.1-0.6-0.3-0.7 0.2-0.1 0.2 0.1 0.3 0.2 0.4q0.2 0.1 0.4 0.1c0.3 0.1 0.5 0.1 0.7 0.2q0.3 0.1 0.6 0.4 0.1 0.2 0.2 0.5 0.1 0.1 0.1 0.3z"/><path class="j" d="m21.1 8.5c0.3-0.2 1.1-0.1 1.4-0.1 0.8 0.1 1.6 0.5 2.1 1 0.3 0.2 0.3 0.7-0.1 0.7q-0.2 0-0.4-0.1-0.3-0.2-0.7-0.5c-0.3-0.3-0.5-0.6-0.9-0.7-0.2-0.1-0.5-0.1-0.7-0.1-0.2-0.1-0.5 0-0.7-0.2z"/><path class="g" d="m27.8 13.9c0-0.1-0.1-0.3-0.3-0.3q-0.2-0.1-0.4-0.1-0.3 0.1-0.4 0.3-0.2 0.2-0.3 0.4c0 0.2 0.1 0.4 0.3 0.5q0 0 0 0 0 0 0.1 0.1 0 0 0 0 0 0 0 0 0.1 0 0.2 0c0.2 0 0.4-0.1 0.5-0.3q0.1-0.1 0.2-0.3 0.1-0.1 0.1-0.3z"/><path class="g" d="m22.9 11.1c0-0.2-0.2-0.3-0.3-0.3q-0.2-0.1-0.4 0-0.3 0.1-0.4 0.3-0.2 0.2-0.2 0.5c0 0.2 0.2 0.4 0.4 0.4q0 0 0 0 0 0 0.1 0 0 0 0 0 0 0.1 0 0.1 0.1 0 0.2 0c0.2-0.1 0.3-0.2 0.4-0.4q0.1-0.2 0.2-0.3 0-0.2 0-0.3z"/><path class="k" d="m21 15.9c0-0.1 0.1-0.1 0.3-0.1 0.2 0 0.4 0.2 0.6 0.4 0.4 0.4 1 0.6 1.6 0.6 0.1 0 0.2 0 0.3 0.1 0.4 0.2-0.5 0.5-0.7 0.6-0.6 0-1.3-0.2-1.7-0.6-0.1-0.1-0.5-0.7-0.4-1z"/><path class="d" d="m14.6 9.1c-0.3 0.7-0.7 1.3-1.1 1.9-0.2 0.4-0.4 0.8-0.6 1.2-0.2 0.4-0.5 0.8-0.8 1.2-0.4 0.9-0.6 1.8-0.8 2.7-0.3 1.1-0.8 2-0.9 3.1-0.1 0.2-0.1 0.5 0.1 0.7 0.1 0.1 0.3 0.1 0.5 0.1q0.5 0 0.9-0.2c0.2-0.1 0.4-0.2 0.5-0.3 0.1-0.1 0-0.2 0.1-0.3 0.2-0.2 0.6-0.3 0.9-0.4q0.5-0.3 0.9-0.6c1.2-0.7 2.1-1.7 3-2.8 1.3-1.6 2.2-3.4 3.3-5.1 0.6-1 1.2-2.1 2-2.9 1-0.9 2.2-1.6 3.4-2.1 0.4-0.2 1-0.6 1.5-0.5 0.3 0.1 0.5 0.6 0.7 0.9 0.5 1 1 2 1.4 3.1q0.3 1.1 0.3 2.2c0.1 0.5 0 1 0 1.5-0.1 0.2-0.3 0.6-0.1 0.8 0.7 0.7 1.3-0.9 1.4-1.3 0.6-2.3 1.1-5-0.1-7.3-0.3-0.7-0.8-1.3-1.5-1.8-0.7-0.5-1.5-0.6-2.3-0.9q-0.2-0.1-0.4-0.3c-1.3-0.8-3-1.3-4.6-1.1-1.7 0.1-3.4 1.2-4.6 2.3-0.5 0.6-1 1.2-1.3 1.9-0.3 0.7-0.6 1.2-0.9 1.9-0.4 0.8-0.5 1.6-0.9 2.4z"/><path class="j" d="m29.6 5.6c0-0.1-0.3-0.1-0.3 0 0.7 1.1 0.9 2.5 1.1 3.7 0 0.1 0.3 0.1 0.3 0-0.2-1.3-0.3-2.6-1.1-3.7z"/><path class="j" d="m30.7 5.2c0-0.1-0.3-0.1-0.3 0q0.4 0.7 0.5 1.3c0 0.1 0.1 0.1 0.1 0.1 0.1 0 0.2 0 0.2-0.1q-0.1-0.7-0.5-1.3z"/><path class="j" d="m24.7 4.3c0 0-0.1 0-0.2 0-2.5 0.8-4.9 2.2-6.9 4.1q-0.8 0.8-1.5 1.7c-0.1 0.1 0.2 0.1 0.2 0 1.7-2 3.9-3.7 6.3-4.8q1-0.5 2.1-0.9c0 0 0.1 0 0-0.1z"/><path class="j" d="m21.8 3.4c-0.1 0-0.2 0-0.2 0-1.5 0.9-2.9 2-4.1 3.3q-0.5 0.6-0.9 1.2c-0.1 0 0.1 0.1 0.1 0.1q0.1 0 0.2-0.1c1-1.4 2.2-2.6 3.7-3.6q0.6-0.4 1.2-0.7 0.1-0.1 0-0.2z"/><path class="j" d="m28.8 17.1c-0.4 1.8-0.9 3.8-2.4 5-0.1 0.1 0 0.1 0 0.1q0.1 0.1 0.2 0c1.2-0.9 1.8-2.3 2.2-3.7q0.2-0.7 0.3-1.4c0-0.1-0.3-0.1-0.3 0z"/><path class="j" d="m12.7 13.2q-1.1 2.1-1.7 4.4c-0.1 0.1 0.2 0.2 0.3 0.1q0.6-2.4 1.7-4.5c0.1-0.1-0.2-0.1-0.3 0z"/><path fill-rule="evenodd" class="k" d="m20 97.3q0 0.1 0 0.1c-0.1 0.1-0.2 0.1-0.3 0q-0.2-0.3-0.4-0.6c-1-1.8-1.8-3.7-2.5-5.7q-0.4-0.9-0.7-1.9-0.4-0.9-0.8-1.8 0-0.1-0.1-0.3-0.1-0.4-0.3-0.8c-0.3-0.7-0.7-1.3-1.3-1.5q0 0-0.1 0-0.2-0.1-0.4-0.3-0.1-0.3-0.2-0.5c-0.1-0.3-0.2-0.6-0.3-0.9-0.1-0.1-0.4-0.5-0.5-0.5-0.8-0.2-1.7-0.6-2.1-1.3-0.4-0.7-0.4-1.5 0-2.2q0-0.1 0.2-0.2c1-1.4 2.9 0 3.2 1.3 0.1 0.4 0 0.9-0.1 1.4-0.1 1 0.2 2 1 2.6q0.1 0.1 0.3 0.2c0.2 0.1 0.4 0.2 0.6 0.3q0 0 0.1 0.1 0.2 0.1 0.3 0.4 0.3 0.4 0.5 0.8c0.5 0.9 0.8 1.8 1.1 2.6q0.5 1.4 1 2.8 0.6 1.7 1.1 3.3 0.3 0.9 0.5 1.8c0.1 0.2 0.3 0.6 0.2 0.8zm-7.8-18c-0.4-0.3-0.9-0.7-1.4-0.4q-0.3 0.2-0.4 0.5c-0.2 0.4-0.2 0.8 0 1.2 0.2 0.5 0.6 1.2 1.2 1.3q0 0 0 0 0.1 0 0.1 0c0.6 0.1 1-0.5 1.1-1 0.1-0.6-0.2-1.2-0.6-1.6z"/><path fill-rule="evenodd" class="k" d="m19 79.6c-0.1 0.9-0.8 1.6-1.5 2-0.1 0.1-0.2 0.6-0.3 0.7-0.1 0.3 0 0.6 0 0.9q0 0.3 0 0.5-0.1 0.3-0.2 0.4-0.1 0.1-0.1 0.1c-0.6 0.4-0.7 1.1-0.8 1.8q0 0.6 0 1 0 1.1 0 2.2-0.1 1-0.1 2c0 2.1-0.1 4.2-0.4 6.3q-0.1 0.3-0.2 0.6c0 0.2-0.2 0.2-0.3 0.1-0.1-0.2-0.1-0.7-0.1-0.9q-0.1-0.9-0.1-1.8-0.1-1.7-0.1-3.5-0.1-1.4 0-2.9c0-1 0-1.9 0.1-2.8q0-0.5 0.2-1 0-0.3 0.2-0.5 0-0.1 0-0.1c0.1-0.2 0.3-0.3 0.4-0.5q0.2-0.2 0.4-0.5c0.4-0.8 0.4-1.8-0.1-2.6-0.3-0.4-0.5-0.8-0.5-1.3-0.2-1.3 1.1-3.2 2.5-2.3q0.2 0.1 0.3 0.2c0.6 0.5 0.9 1.2 0.7 1.9zm-1-1.5q-0.2-0.3-0.6-0.4c-0.6-0.1-0.9 0.4-1.1 0.9-0.3 0.5-0.4 1.2-0.1 1.7 0.3 0.5 0.9 0.8 1.4 0.6q0 0 0.1-0.1 0 0 0 0c0.5-0.3 0.7-1 0.7-1.6 0-0.4-0.1-0.8-0.4-1.1z"/><path fill-rule="evenodd" class="e" d="m14.3 84.2c-0.2 0.2-0.3 0.3-0.5 0.5q-0.1 0-0.2 0.1 0 0-0.1 0-0.2-0.1-0.4-0.3-0.1-0.3-0.2-0.5c-0.1-0.3-0.2-0.6-0.3-0.9-0.1-0.1-0.4-0.5-0.5-0.5-0.8-0.2-1.7-0.6-2.1-1.3-0.4-0.7-0.4-1.5 0-2.2q0-0.1 0.2-0.2c1-1.4 2.9 0 3.2 1.3 0.1 0.4 0 0.9-0.1 1.4-0.1 1 0.2 2 1 2.6zm-2.1-4.9c-0.4-0.3-0.9-0.7-1.4-0.4q-0.3 0.2-0.4 0.5c-0.2 0.4-0.2 0.8 0 1.2 0.2 0.5 0.6 1.2 1.2 1.3q0 0 0 0 0.1 0 0.1 0c0.6 0.1 1-0.5 1.1-1 0.1-0.6-0.2-1.2-0.6-1.6z"/><path fill-rule="evenodd" class="e" d="m19 79.6c-0.1 0.9-0.8 1.6-1.5 2-0.1 0.1-0.2 0.6-0.3 0.7-0.1 0.3 0 0.6 0 0.9q0 0.3 0 0.5-0.1 0.3-0.2 0.4-0.2 0-0.3-0.1-0.3-0.1-0.6-0.3c0.4-0.8 0.4-1.8-0.1-2.6-0.3-0.4-0.5-0.8-0.5-1.3-0.2-1.3 1.1-3.2 2.5-2.3q0.2 0.1 0.3 0.2c0.6 0.5 0.9 1.2 0.7 1.9zm-1-1.5q-0.2-0.3-0.6-0.4c-0.6-0.1-0.9 0.4-1.1 0.9-0.3 0.5-0.4 1.2-0.1 1.7 0.3 0.5 0.9 0.8 1.4 0.6q0 0 0.1-0.1 0 0 0 0c0.5-0.3 0.7-1 0.7-1.6 0-0.4-0.1-0.8-0.4-1.1z"/><path class="e" d="m15.7 85.4q-0.1 0-0.2 0-0.2 0-0.3 0.2c0 0.1 0 0.3 0.1 0.4 0.2 0.2 0.7 0 0.6-0.3 0-0.1-0.1-0.2-0.2-0.3z"/><path class="i" d="m20 97.4c-0.1 0.1-0.2 0.1-0.3 0q-0.2-0.3-0.4-0.6c-1-1.8-1.8-3.7-2.5-5.7q-0.4-0.9-0.7-1.9-0.4-0.9-0.8-1.8c0.3 0 0.6 0.1 0.7 0.3 0.2 0.2 0.4 0.5 0.5 0.8q1.6 4.5 3.4 8.8 0.1 0.1 0.1 0.1z"/><path class="d" d="m7.5 93l-1-5.3 3.1-0.5-0.1-0.4-3 0.6-0.1-0.7 3-0.5-0.1-0.4-3 0.6-0.1-0.7 3-0.5-0.1-0.4-3 0.5-0.1-0.6 3-0.5-0.1-0.4-3 0.5-0.1-0.6 3-0.5v-0.4l-3.1 0.5-0.1-0.6 3-0.6v-0.3l-3 0.5-0.2-0.6 3.1-0.6-0.1-0.3-3 0.5-0.1-0.6 3-0.6-0.1-0.3-3.6 0.6c-0.2 0.1-0.4 0.3-0.3 0.5l2.2 12.3z"/><path class="h" d="m21.7 101.7q0-1.3 0-2.7 0-4.2 0-8.5c0-1.5 0.1-3.2 0-4.8-1.3 0.3-2.7 0.4-4 0.5q-2.1 0.1-4.1 0-0.7-0.1-1.4-0.2c-0.3-0.1-0.6-0.2-1-0.2q-0.1 0-0.1 0c-0.9 0.1-1.8 0.3-2.8 0.3-0.3 0-4-0.1-4-0.4 0 0 0 0.1 0 0.1-0.1 0.1 0 0.5 0 0.6q0 0.6 0 1.1 0 1.8 0 3.5 0 4.2 0 8.3 0 1.4 0 2.7c0 0.4-0.1 1 0 1.4 0.2 0.5 1.7 0.8 2.2 0.8 0.6 0.1 1.1 0.1 1.7 0q1 0 2-0.2c0.5-0.1 0.8-0.2 1.3-0.1q0.8 0.1 1.6 0.2 1.7 0.2 3.3 0.3c1.6 0 3.5 0.1 5-0.6q0.2 0 0.2-0.1c0.1-0.2 0.1-0.3 0.1-0.6q0-0.7 0-1.4z"/><path fill-rule="evenodd" class="i" d="m17.7 104.6q-0.7 0-1.3-0.1c-1.1 0-2.3-0.1-3.3-0.2q-0.2-0.1-0.5-0.1-0.5-0.1-1.1-0.1c-0.4-0.1-0.6 0-0.9 0q-0.2 0-0.4 0.1-1 0.1-2 0.2c-0.5 0-1.1 0.1-1.7 0q-2.1-0.3-2.3-0.9c-0.1-0.3-0.1-0.7-0.1-1.1q0-0.2 0-0.4v-15.6q0-0.1 0-0.1 0-0.4 0-0.5 0-0.1 0-0.1 0 0 0 0h0.1q0 0 0 0 0 0 0 0h0.2q0-0.1 0-0.1c0.3 0.2 3.5 0.4 3.9 0.4 0.6 0 1.2-0.1 1.8-0.2q0.4-0.1 1-0.2c0.3 0 0.5 0.1 0.8 0.2q0.2 0 0.4 0.1c0.4 0.1 0.9 0.1 1.3 0.1q2 0.1 4.1 0 0.2 0 0.4 0c1.2-0.1 2.4-0.1 3.5-0.4l0.2-0.1v0.2c0.1 1.1 0.1 2.2 0.1 3.3q-0.1 0.8-0.1 1.5v12.6q0 0.1 0 0.2c0 0.2 0 0.3-0.1 0.5q0 0.1-0.3 0.2c-1.1 0.5-2.5 0.6-3.7 0.6zm-13.5-18.9q0 0 0 0 0 0 0 0zm7 18q0.2 0 0.3 0.1 0.6 0 1.2 0.1 0.2 0 0.4 0c1.1 0.2 2.2 0.3 3.3 0.3 1.4 0.1 3.4 0.1 4.9-0.5q0.1-0.1 0.2-0.1 0-0.1 0-0.3 0-0.1 0-0.2v-12.6q0-0.7 0-1.5c0.1-1 0.1-2.1 0-3.1-1.1 0.3-2.2 0.3-3.4 0.4q-0.2 0-0.4 0-2.1 0.1-4.1 0c-0.5 0-0.9 0-1.4-0.1q-0.2-0.1-0.4-0.1c-0.2-0.1-0.4-0.2-0.7-0.2q-0.5 0.1-1 0.2c-0.6 0.1-1.2 0.2-1.8 0.2-0.2 0-1.2-0.1-2.1-0.1-1-0.1-1.5-0.2-1.8-0.2 0 0 0 0.2 0 0.2q0 0.1 0.1 0.2l-0.1 15.6q0 0.2 0 0.4c0 0.4 0 0.7 0 1 0.1 0.1 0.3 0.4 2.1 0.7 0.6 0.1 1.1 0 1.7 0q1-0.1 2-0.2 0.2-0.1 0.3-0.1 0.3-0.1 0.7-0.1z"/><path class="i" d="m11.3 103.9h-0.3v-18.1h0.3z"/><path class="h" d="m29.7 32.5q-0.1 0-0.1-0.1 0 0 0 0z"/><path class="g" d="m31.7 139.4q0.1 0 0.2 0l14.9-5.6q0.2 0 0.3-0.2l11.2-13.4c0.3-0.3 0.2-0.7-0.1-1-0.2-0.2-0.7-0.2-0.9 0.1l-11.1 13.4-14.8 5.4c-0.3 0.1-0.5 0.5-0.4 0.9 0.1 0.2 0.4 0.4 0.7 0.4z"/><path class="g" d="m56 161.4h3.7v-48.2h-3.7z"/><path class="g" d="m46.6 118.6h22.4v-3.3h-22.4z"/><path class="g" d="m37.9 170c3.3-6.4 9.1-11.2 16-13.4l1.5-0.4q1.2-0.4 2.4-0.4 1.2 0 2.4 0.4l1.6 0.4c6.9 2.2 12.6 7 15.9 13.4h-19.3-1.2z"/><path class="e" d="m40 169.1c1.4-2.1 3-4.1 4.9-5.8 1.8-1.8 3.8-3.3 6-4.5q1.8-1 3.8-1.6c0.1-0.1 0.2-0.1 0.3 0 0 0.1 0 0.1-0.1 0.1-2.4 0.8-4.6 1.9-6.6 3.4-2 1.4-3.8 3.2-5.4 5q-1.4 1.6-2.6 3.4c-0.1 0.1-0.4 0.1-0.3 0z"/><path class="e" d="m57.4 120v34.7c0 0.1-0.4 0.1-0.4 0v-34.7c0-0.1 0.4-0.1 0.4 0z"/><path class="e" d="m68.7 161.1c2.1 1.4 4 3 5.6 5q0.6 0.8 1.2 1.7c0.1 0.1-0.2 0.1-0.3 0-1.4-2-3.1-3.8-5-5.4q-0.8-0.6-1.7-1.2c-0.2-0.1 0.1-0.1 0.2-0.1z"/><path class="d" d="m57.8 117c-10.9 0-19.7-8.8-19.7-19.7v-6.3c0-10.9 8.8-19.7 19.7-19.7 10.9 0 19.7 8.8 19.7 19.7v6.3c0 10.9-8.8 19.7-19.7 19.7z"/><path class="d" d="m90.5 117h-13v-26.7c0-3.6 2.9-6.5 6.5-6.5 3.8 0 6.9 3.1 6.9 6.9v25.9c0 0.2-0.2 0.4-0.4 0.4z"/><path class="j" d="m74.6 104.5h-34.2c-0.1 0-0.1 0.2 0 0.2h34.2c0.1 0 0.1-0.2 0-0.2z"/><path class="d" d="m80.1 117h-35.9c-3.3 0-6.1-2.8-6.1-6.1 0-3.4 2.8-6.2 6.1-6.2h35.9c3.4 0 6.1 2.8 6.1 6.2 0 3.3-2.7 6.1-6.1 6.1z"/><path class="d" d="m42.1 117h-13v-26.7c0-3.6 2.9-6.5 6.5-6.5 3.8 0 6.9 3.1 6.9 6.9v25.9c0 0.2-0.2 0.4-0.4 0.4z"/><path class="g" d="m74.6 152.2l-13.5-35.6 1-0.3 13.5 35.5z"/><path class="g" d="m96.3 152.2l-13.5-35.6 0.9-0.3 13.6 35.1z"/><path class="g" d="m91.3 157.3h-10.8c-3.3 0-5.9-2.6-5.9-5.9h22.7c0 3.3-2.7 5.9-6 5.9z"/><path class="j" d="m87 152.1c0.1 0 0.3-0.1 0.5-0.1-0.1-0.9-0.1-2 0.4-2.9q0.1-0.1 0.1-0.2 0-0.2-0.1-0.3c0-0.1-0.2-0.2-0.3-0.2-0.2-0.1-0.3-0.1-0.4-0.2-0.2-0.1-1.4-0.8-1.4-0.4q0 0.1 0.1 0.2c0.5 1.1 0.6 2.3 0.8 3.4 0 0.2 0 0.5 0.2 0.6q0 0.1 0.1 0.1z"/><path class="a" d="m87 145.7q0-0.1-0.1-0.1c-0.5-1.1-0.5-2.3-0.7-3.4-0.2-1.5-0.7-2.9-1.1-4.4-2.5-10.9-5.4-21.6-6.4-32.8-0.1-1.8-0.2-3.8 0.9-5.2 0.5-0.6 1.2-1 1.9-1.4 2.6-1.3 5-1.1 5.8 2.2 0.8 3.3 1.2 6.7 1.5 10.1q0.7 6 1.4 12c0.4 3.7 0.5 7.3 0.7 10.9q0.3 3.5 0.4 7c0.1 1.5 0.8 4.5-0.3 5.8-0.3 0.4-0.8 0.5-1.2 0.6-1.2 0.3-2.2-0.3-2.8-1.3z"/><path class="a" d="m86.6 148c0.4 0.3 0.7 0.6 1.2 0.8q0.8 0.4 1.6 0.8c0.1 0.1 0.3 0.1 0.4 0.2q0.3 0.2 0.5 0.4 0.4 0.4 0.7 0.8c0.1 0.3 0.3 0.6 0.5 0.8q0.3 0.3 0.6 0.5c1.3 0.8 2.8 0.6 4.2 0.6 0-0.3-0.1-0.5-0.3-0.7-0.2-0.3-0.4-0.6-0.6-0.9-0.4-0.5-0.7-1-1-1.5q-1-2.1-2-4.1c-0.8-1.5-1.7-3.5-3.7-3.4-0.6 0.1-1.3 0.2-1.7 0.7-0.8 0.8-1.3 2.4-1.2 3.6 0.1 0.5 0.3 0.9 0.6 1.3q0.1 0 0.2 0.1z"/><path class="d" d="m97.3 152.9q-0.1-0.1-0.2-0.2c-0.4-0.5-0.9-1-1.6-1.3 0.3 0.5-1.1 0.5-1.3 0.5-0.3 0-0.9 0.1-1.4 0-0.4 0-0.9-0.2-1-0.4-0.8-1.2-1.9-2-3.1-2.7-0.6-0.3-1.4-0.6-1.8-1.1q-0.1-0.1-0.2-0.2c-0.2-0.2-0.2-0.6-0.3-0.9 0-0.5 0-1.1 0-1.7 0-0.2 0.1-0.6 0-0.9-0.1-0.2-0.1-0.2-0.2-0.1-0.1 0.2-0.2 0.5-0.3 0.7q-0.1 0.4-0.3 0.7-0.3 0.8-0.3 1.7c-0.1 1 0.9 1.4 1.7 1.7q0.5 0.2 1 0.5c0.7 0.2 1.3 0.6 1.8 1q0.6 0.4 1 1 0.2 0.4 0.4 0.7 0.1 0.3 0.3 0.5c0.2 0.2 0.4 0.2 0.6 0.3 1.1 0.4 2.3 0.8 3.5 0.8 0.4 0.1 2.1 0.1 1.7-0.6z"/><path class="d" d="m91.4 143.6q0.1 0 0.3 0c0.3 0.1 0.1 0.6-0.1 0.7-1 0.4-2.1 0.5-3.2 0.4q-0.8 0-1.6-0.1c-0.3 0-0.6 0-0.7-0.2-0.1-0.2 0-0.4 0.1-0.6q0-0.1 0.1-0.1c0.1-0.1 0.3 0 0.5 0 0.7 0.4 1.5 0.4 2.3 0.3 0.8-0.1 1.5-0.1 2.2-0.3q0-0.1 0.1-0.1z"/><path class="h" d="m73.7 64.6q0.6 3.5 1 7 0.6 4.4 0.9 8.9 0.1 2.1 0.2 4.3c0 1.2-0.2 2.1-1.6 2q-1.4 0-2.7-0.3c-0.7-0.1-1.4-0.3-1.9-0.8-0.5-0.5-0.7-1.2-0.9-1.9-1.4-5.5-2.2-11.1-3.1-16.7-0.3-2-0.6-4.1-0.5-6.2 0.1-1.1 0.3-2.3 0.9-3.3 1.5-2.7 4.8-2 6.2 0.4 1 1.8 1.1 4.2 1.5 6.3q0 0.1 0 0.3z"/><path class="a" d="m80.6 90.6c2 2 4.4 3.7 6.1 6 1.8 2.4 3.1 4.7 3.3 7.8 0 0.3 0 0.6-0.3 0.9-0.3 0.3-0.8 0.2-1.2 0-1.9-1.1-2.3-3.7-4.2-4.8-2.4-1.4-4.8-2.8-7.1-4.3-2.3-1.5-4.6-3.1-6.3-5.2-0.9-1-3.2-4-2-5.3 0.3-0.4 0.8-0.6 1.3-0.8 1.4-0.5 2.9-0.8 4.3-0.7 1.2 0 1.6 1.3 2.2 2.1 1 1.2 2 2.3 3 3.4q0.5 0.4 0.9 0.9z"/><path class="h" d="m74.7 102c-0.5 1.6-2.3 2-3.7 2.2q-7.4 1-14.8 0.9c-3.3 0-8.3-0.3-9.8-3.9-1-2.5 0-5.3 0.2-7.9 0.5-4.4 0.1-8.9-0.1-13.2-0.3-4.7-0.5-9.3-1.4-13.9-0.5-2.5-0.9-5.1-0.3-7.5 0.9-3.2 3.4-4.3 6.2-4.7 1.7-0.3 3.4-0.4 5-0.5 2.3-0.2 4.6-0.7 6.9-0.2 2 0.4 4 0.9 5.6 2 1.3 0.9 2.4 2.2 3 4.2 0.5 1.7 0.5 3.5 0.6 5.2 0 1.4 0.4 2.9 0.4 4.3-0.1 1.2-0.3 2.4-0.3 3.6-0.1 3.3-0.7 6.6-1 9.8-0.2 3.7-0.2 7 1.2 10.4 0.6 1.4 1.3 2.6 1.8 4 0.4 1.5 1.1 3.7 0.5 5.2z"/><path class="j" d="m77.4 152.1c0.1 0 0.3-0.1 0.5-0.1-0.1-0.9-0.1-2 0.4-2.9q0.1-0.1 0.1-0.2 0-0.2-0.1-0.3c0-0.1-0.2-0.2-0.3-0.2-0.2-0.1-0.3-0.1-0.4-0.2-0.2-0.1-1.4-0.8-1.4-0.4q0 0.1 0.1 0.2c0.5 1.1 0.6 2.3 0.8 3.4 0 0.2 0 0.5 0.2 0.6q0 0.1 0.1 0.1z"/><path class="a" d="m77.4 145.7q0-0.1-0.1-0.1c-0.5-1.1-0.5-2.3-0.7-3.4-0.2-1.5-0.7-2.9-1.1-4.4-2.1-9.1-4.3-18.1-6.2-27.2-0.4-2.1-0.8-4.1-0.6-6.2 0.2-2 1.1-4.9 3.3-5.5 1.6-0.4 4.3-0.2 5.4 1.3 0.6 0.8 0.8 1.9 1 2.9 1.6 10.2 2.2 20.3 2.9 30.5q0.3 3.5 0.4 7c0.1 1.5 0.8 4.5-0.3 5.8-0.3 0.4-0.8 0.5-1.2 0.6-1.2 0.3-2.2-0.3-2.8-1.3z"/><path class="a" d="m77 148c0.4 0.3 0.7 0.6 1.2 0.8q0.8 0.4 1.6 0.8c0.1 0.1 0.3 0.1 0.4 0.2q0.3 0.2 0.5 0.4 0.4 0.4 0.7 0.8c0.1 0.3 0.3 0.6 0.5 0.8q0.3 0.3 0.6 0.5c1.3 0.8 2.8 0.6 4.2 0.6 0-0.3-0.1-0.5-0.3-0.7-0.2-0.3-0.4-0.6-0.7-0.9-0.3-0.5-0.6-1-0.9-1.5q-1-2.1-2-4.1c-0.8-1.5-1.7-3.5-3.7-3.4-0.6 0.1-1.3 0.2-1.7 0.7-0.8 0.8-1.3 2.4-1.2 3.6 0.1 0.5 0.3 0.9 0.6 1.3q0.1 0 0.2 0.1z"/><path class="d" d="m87.7 152.9q-0.1-0.1-0.2-0.2c-0.4-0.5-1-1-1.6-1.3 0.3 0.5-1.1 0.5-1.3 0.5-0.3 0-0.9 0.1-1.4 0-0.4 0-0.9-0.2-1-0.4-0.8-1.2-1.9-2-3.1-2.7-0.6-0.3-1.4-0.6-1.8-1.1q-0.1-0.1-0.2-0.2c-0.2-0.2-0.2-0.6-0.3-0.9 0-0.5 0-1.1 0-1.7 0-0.2 0.1-0.6 0-0.9-0.1-0.2-0.1-0.2-0.2-0.1-0.1 0.2-0.2 0.5-0.3 0.7q-0.1 0.4-0.3 0.7-0.3 0.8-0.3 1.7c-0.1 1 0.9 1.4 1.7 1.7q0.5 0.2 1 0.5c0.7 0.2 1.3 0.6 1.8 1q0.6 0.4 1 1 0.2 0.4 0.4 0.7 0.1 0.3 0.3 0.5c0.2 0.2 0.4 0.2 0.6 0.3 1.1 0.4 2.3 0.8 3.5 0.8 0.4 0.1 2.1 0.1 1.7-0.6z"/><path class="d" d="m81.8 143.6q0.1 0 0.3 0c0.3 0.1 0.1 0.6-0.1 0.7-1 0.4-2.1 0.5-3.2 0.4q-0.8 0-1.6-0.1c-0.3 0-0.6 0-0.7-0.2-0.1-0.2 0-0.4 0.1-0.6q0-0.1 0.1-0.1c0.1-0.1 0.3 0 0.4 0 0.8 0.4 1.6 0.4 2.4 0.3 0.7-0.1 1.5-0.1 2.2-0.3q0-0.1 0.1-0.1z"/><path class="h" d="m87.5 99.5c-1.6-3.5-4.3-5.5-8-6.1-3-0.5-6.1 0.3-8.9-0.4-2.9-0.7-5.8-0.4-8.8-0.5q-5.1 0-10.3-0.2c-1.2 0-3-0.4-4.2 0.3-1.1 0.7-1.4 2.4-1.7 3.6q-0.1 0.9-0.2 1.9c-0.1 2.8 0.8 5.7 3 7.4 1.7 1.4 4 1.7 6.2 2q5 0.5 9.9 0.4c1.7 0 3-0.6 3.8 1.1 0.6 1.3 0.9 2.8 0.7 4.2q10.6-0.6 21.1-2.1c-0.1-3.4-0.7-6.8-1.9-10q-0.3-0.8-0.7-1.6z"/><path class="h" d="m34.4 77q-0.5 1.9-0.9 3.8c-0.3 1.1-0.4 2.3 0.1 3.3 0.8 1.4 2.5 1.3 3.8 1 1.7-0.5 2.8-1.8 3.6-3.4 0.8-1.4 1.3-3 1.9-4.4 0.5-1.3 1.1-2.5 1.8-3.7q2.8-5.6 5.3-11.3c0.6-1.5 1.1-3.1 0.6-4.5-1.1-2.7-4.3-2.1-6.1-0.5-0.8 0.7-1.5 1.7-2.1 2.6-1.8 2.7-3.6 5.3-4.7 8.3-1.1 2.9-2.4 5.8-3.3 8.8z"/><path class="a" d="m34 85.7q0 0.1 0.1 0.3c0.6 1 1.6 1.9 2.5 2.7 3.7 3.6 6.7 7.9 10.8 11.1 0.3 0.2 0.7 0.5 1.1 0.6 0.8 0.2 1.5-0.2 2.2-0.6 0.2-0.1 0.4-0.2 0.5-0.4 0.1-0.3 0-0.5-0.1-0.7q-1.9-3.9-4.2-7.5c-0.7-1.1-1.5-2.1-2.2-3.1-0.8-1.2-1.4-2.7-2.1-3.9-0.8-1.3-1.4-3.1-2.9-3.7-1-0.3-2-0.7-3.1-0.8-0.7-0.1-1.4-0.1-2 0.1-2.2 0.9-1.4 4.2-0.6 5.9z"/><path class="a" d="m46.7 100.7c-0.3-1.4-1.2-2.8 0.6-3.4 0.9-0.3 2.1-0.2 2.9 0.2 0.9 0.5 1.4 1.5 1.8 2.4 0.8 2 1.3 4.2 1.4 6.3 0 0.3 0 1.5-0.6 1.1-0.3-0.3-0.4-1.1-0.5-1.5-0.1-0.5-0.2-1-0.4-1.5q-0.1-0.3-0.3-0.6c-0.1-0.2-0.3-0.4-0.4-0.6 0.6 1.6 0.8 3.2 0.7 4.9 0 0.2-0.1 0.6-0.4 0.6-0.2 0-0.4-0.3-0.5-0.5-0.4-1.6-0.3-3.4-1.3-4.7q0.6 2.4 0.4 4.9c0 0.2-0.1 0.5-0.3 0.5-0.3 0.1-0.4-0.3-0.5-0.6q-0.3-2.2-0.7-4.4 0 1.9 0 3.8c-0.1 0.4-0.1 0.9-0.4 1.1-0.4-0.4-0.5-0.9-0.5-1.4-0.2-1.1-0.2-2.3-0.4-3.4-0.2-1-0.6-2.1-0.6-3.2z"/><path class="i" d="m71.6 64.6q-0.2-2.3-0.7-4.5c0-0.2-0.3-0.1-0.3 0 0.6 2.7 0.9 5.4 0.9 8.2 0.1 2.7 0 5.5-0.2 8.3q-0.2 2.3-0.5 4.6c0 0.1 0.3 0.1 0.4 0 0.2-2.7 0.5-5.5 0.6-8.3 0.1-2.7 0.1-5.5-0.2-8.3z"/><path class="i" d="m71.9 93.4q-2.6 0.2-5.2 0.6-2.6 0.3-5.2 0.8-1.5 0.3-2.9 0.6c-0.1 0.1-0.1 0.1-0.1 0.2 0.1 0 0.2 0 0.2 0q2.6-0.6 5.1-1 2.6-0.5 5.1-0.7 1.5-0.2 3-0.3c0 0 0.1 0 0.1-0.1 0 0-0.1-0.1-0.1-0.1z"/><path class="i" d="m49.5 61.5q0-0.7-0.1-1.5-0.1-0.7-0.2-1.5c-0.2-0.5-0.3-1-0.7-1.4-0.3-0.4-0.7-0.7-1.1-0.8-0.1 0-0.2 0-0.2 0.1-0.1 0 0 0.1 0.1 0.1 0.9 0.2 1.4 1.1 1.5 2q0.2 0.7 0.3 1.4 0 0.8 0.1 1.5c0.1 1.9 0 3.9-0.5 5.8q-0.4 1.6-1.1 3.1c0 0.2 0.3 0.2 0.3 0.1 0.9-1.8 1.4-3.8 1.5-5.8q0.2-1.6 0.1-3.1z"/><path class="a" d="m68.5 55.3c-0.4 0.8-1 1.5-1.7 2-1.2 0.9-2.7 1.3-4.1 1.5q-1.8 0.2-3.5 0c-2-0.3-4-1-5.7-2.2-0.9-0.6-2.2-1.6-2.5-2.6 1.7-0.3 3.4-0.4 5-0.5 2.3-0.2 4.6-0.7 6.9-0.2 2 0.4 4 0.9 5.6 2z"/><path class="l" d="m55.4 34.5c0.1-0.1 0.2-0.3 0.3-0.4 0.6-1 1.8-1.3 2.9-1.3 1.4 0 2.3 0.3 3.5 0.9 1.2 0.6 2.4 1.3 3.2 2.3 0.3 0.5 0.5 1 0.7 1.4 0.8 2 1.4 4.1 1.6 6.2 0.1 0.7 0.2 1.4 0.4 2.1 0.4 0.8 1.1 1.6 1.5 2.4 0.2 0.7 0.3 1.4 0.4 2.1 0 0.8 0.1 1.6 0 2.5 0 0.8-0.4 1.8-1.2 2.1-0.8 0.2-1.8-0.3-2.6-0.4-0.9-0.3-1.8-0.3-2.7-0.4-0.8 0-1.6-0.3-2.4-0.2-1.8 0.2-3.6-0.5-5.4-0.5q-1.6 0-3.1 0.4c-0.5 0.2-1.7 0.5-1.7-0.4 0.2-2.7 0.6-5.4 0.9-8.1q0.1-1.9 0.3-3.8c0.1-1.9-0.2-3.7 0.9-5.3 0.5-0.6 1.1-1.1 1.8-1.3 0.2-0.1 0.5-0.1 0.6-0.3q0.1 0 0.1 0z"/><path class="a" d="m63 54.4h-8.8q0-0.1 0-0.1 0.1-0.6 0.2-1.2c0.2-1.3 0.2-2.5 0.3-3.9 0-1-0.4-3 0.8-3.5 0.4-0.2 0.9-0.2 1.3-0.2 0.4-0.1 0.9 0 1.3-0.1q0.9-0.1 1.8-0.2c0.7 0 1.4-0.1 2.1 0.1 0.7 0.2 0.7 0.9 0.8 1.5 0 0.8 0 1.6 0 2.5q-0.1 2.5 0.2 5.1z"/><path class="c" d="m55.7 49.5q0.1 0.3 0.2 0.6c0.2 0.4 0.5 0.6 0.8 0.9 1.1 1 2.7 1.3 4 0.8 0.9-0.3 1.8-1 2-2 0.3-1-0.2-1.7-0.8-2.3-0.3-0.3-0.6-0.6-1-0.7q-0.3-0.1-0.6-0.1-0.5-0.1-1-0.1c-0.3-0.1-0.6-0.1-0.8 0q-0.9 0.2-1.8 0.5c-0.7 0.1-1.1 1-1.1 1.6q0 0.4 0.1 0.8z"/><path class="e" d="m36.5 93.7c1.1 0.7 2.4 1.3 3.1 2.3 0.6 0.7 0.9 1.6 1.1 2.5 1 3.8 1.4 7.8 2.1 11.7q1.4 6.8 2.7 13.6c0.2 0.7 0.3 1.3 0.7 1.8 0.6 0.6 1.4 0.8 2.2 1.1 4.7 1.8 6.6 7.4 10.4 10.6 2.2 1.8 4.9 2.7 7.7 3.2 1.4 0.2 3 0 4.4 0.4 1.1 0.2 1.6 0.6 3.1 0.6q7 0.1 13.9 0.1c3.5 0 8 1.1 10.3-2.1 1.4-1.9 2.7-5.1 2.9-7.4 0.2-3.1-1.3-7-1.9-10q-2-10.1-4-20.1c-0.3-1.6-0.7-3.2-1.4-4.7-1-2.3-2.9-4.1-5-5.5-1.9-1.3-4.5-1.2-5.6-3.5-0.8-1.4-0.8-3.3-1.2-4.9q-0.7-2.9-1.6-5.7-1.7-5.7-3.9-11.2c-1.2-3-2.4-6.8-4.3-9.5-1-1.3-2.6-2-4.1-2.5-2-0.5-3.9-2.1-6.1-1.6-2.1 0.5-4.2 0.3-6.3-0.1-1.8-0.3-3.3 0.2-4.9 0.7-1.9 0.6-3.6 1.3-5.1 2.5-3 2.4-5.3 5.7-7.2 9-2.8 4.8-5.1 9.8-6.9 15-0.9 2.6-1.6 5.4-0.6 7.9 0.8 2.1 2.6 3.1 4.1 4.6 0.4 0.5 0.9 0.8 1.4 1.2z"/><path class="g" d="m55.1 117.7q-0.4-3.2-0.6-6.5-0.1-1.8-0.3-3.6c0-0.1-0.3-0.1-0.3 0q0.2 3.2 0.5 6.5 0.3 3.2 0.6 6.4 0.2 1.8 0.5 3.7c0 0.1 0.3 0.1 0.3 0q-0.4-3.3-0.7-6.5z"/><path class="g" d="m72.7 131.4q-0.8-3.9-1.6-7.7-0.8-3.9-1.6-7.7-0.4-2.2-0.9-4.3c0-0.2-0.3-0.1-0.3 0q0.8 3.8 1.6 7.7 0.8 3.8 1.6 7.6 0.4 2.2 0.9 4.4c0 0.1 0.3 0.1 0.3 0z"/><path class="g" d="m90.3 124.3q-1-4.8-2-9.6-0.3-1.4-0.6-2.7c-0.1-0.2-0.4-0.1-0.3 0q1 4.8 2 9.6 0.3 1.3 0.6 2.7c0.1 0.1 0.4 0.1 0.3 0z"/><path class="l" d="m49.4 24.5q0.1 2.6 0.4 5.1c0.2 2.5 0.3 5 1.6 7.2 0.4 0.8 1.7 1.6 1.9 2.4 0.3 1.3-0.3 2.7-0.5 4 0 0.5-0.3 1-0.4 1.5-0.1 0.4-2.4-1.2-2.6-1.3-0.9-0.8-1.8-1.8-2.3-2.9-1.1-2.3-0.6-4.9-0.5-7.3 0.2-2.8 0.4-5.6 0.8-8.3 0.3-1.6 0.4-3.5 1.2-4.9 0.2 0.2 0.1 0.6 0.2 0.9q0.2 0.6 0.2 1.2c0.1 0.8 0 1.6 0 2.4z"/><path class="a" d="m53.3 45.7c0.4 1.5 1.2 3 2.4 4.2 0.9 0.9 2.4 1.5 3.7 1.4 1.4 0 2.7-0.9 3.6-1.9 1.3-1.4 1.8-3.3 2.2-5.1q0.2-0.7 0.3-1.4 0.2-1.5 0.1-3.1c-0.1-0.9-0.2-2.1-0.6-3-0.1-0.3-0.5-0.5-0.7-0.8q-0.4-0.5-0.8-1c-0.6-0.6-1.3-1.2-2.2-1.5-0.6-0.2-1.4-0.3-2.1-0.3-0.7 0-1.4 0-2 0.2-0.6 0.2-1.1 0.5-1.6 0.9-0.9 0.6-1.6 1.3-2.2 2.2-0.8 1.4-0.7 2.9-0.8 4.4-0.1 1.7 0.2 3.3 0.7 4.8z"/><path class="l" d="m52.2 41q0-0.5 0-1c0-1.5 0.1-2.7 1-3.9 1.3-1.8 3-3.3 5.2-3.3 0.6 0 1.3 0 1.9 0.1 0.7 0.2 1.3 0.5 2 0.8 0.5 0.3 1 0.5 1.4 0.9 0.9 0.7 1.5 1.7 2.1 2.7 0.6 1.3 0.9 2.3 0.9 3.8 0 1.3 0 2.7 0.9 3.8 0.5 0.6 1.2 1 1.8 1.6 1.2 1.3 1.3 3.2 1.3 5 0 1.7-0.1 3.6 0.7 5.2 0.7 1.3 2.1 2.3 2.9 3.7 2 3.3 0 7.8 1.4 11.4 0.7 1.8 2.1 3.3 2.7 5.1 0.8 2.6-0.3 5.4-1.8 7.7-0.6 0.9-1.4 1.8-2.4 1.9-1.3 0.2-2.3-0.8-3.5-1-1-0.2-2 0.2-3 0.1-2-0.3-3.2-2.5-3.1-4.5 0.1-1.4 0.6-2.7 0.8-4 0.1-1.4-0.1-2.8-0.6-4.1-0.6-1.3-1.6-2.4-2.2-3.8-1.1-2.5-0.8-5.3-0.1-7.9 0.4-1.2 0.9-2.4 1.3-3.6 0.4-1.2 0.2-2.5-0.1-3.8-0.3-1.3-0.7-2.7-0.7-4.1 0.1-1.8 1-3.4 1.4-5.1 0.2-0.9-0.1-2.1-0.3-3-0.2-1-0.6-1.9-1.1-2.8-0.4-0.8-0.8-1.6-1.5-2.1-0.6-0.6-1.4-0.9-2.2-1.2-0.8-0.3-1.5-0.1-2.2 0.3-0.3 0.2-0.6 0.4-0.9 0.5-0.2 0.1-0.4 0.1-0.6 0.2-0.2 0.1-0.3 0.5-0.4 0.7q-0.4 0.7-0.8 1.5c-1 2.6-1.4 5.8-0.6 8.6q1.1 3.6 1.7 7.4c0.8 5 0.9 10 0.4 15-0.1 1.3-0.3 2.7-0.4 4-0.4 5.9 1 12.3-1.4 17.9-0.6 1.4-0.9 2.4-2.6 2-1.6-0.4-2.6-1.4-3.1-3-0.8-2.1-0.8-4.3-0.7-6.4q0.1-10.1 1.2-20.1c0.7-6.5 2-12.8 3-19.3q0.3-1.9 0.3-3.9z"/><path class="a" d="m53.5 42q-0.1-0.1-0.2-0.2c-0.3-0.2-0.7-0.3-1-0.2-0.5 0.1-0.9 0.7-0.9 1.2-0.2 1.1 0.4 2.5 1.3 3.2 0.3 0.3 0.8 0.6 1.2 0.4 0.3-0.2 0.4-0.5 0.4-0.8 0.2-1 0.1-2.2-0.4-3.1q-0.1-0.3-0.4-0.5z"/><path class="c" d="m59.9 41.5q0 0 0 0c-0.3 0-0.2 0.6-0.2 0.8q0 0.5 0.2 1c0.1 0.5 0.3 0.9 0.4 1.3 0.2 0.5-0.5 0.8-0.9 0.9-0.2 0 0 0.2 0.2 0.1 0.3-0.1 0.8-0.3 1-0.6 0.1-0.2 0.1-0.4 0-0.6q-0.1-0.3-0.3-0.7-0.2-0.5-0.3-1.1 0-0.2 0-0.5c0-0.2 0.1-0.4 0-0.6q0 0-0.1 0z"/><path class="l" d="m64.3 41.1q0.1 0 0.1 0c0 0 0.1 0.1 0.1 0.1q0-0.1 0-0.1c0-0.2-0.2-0.4-0.3-0.5-0.3-0.3-0.6-0.6-1-0.7q-0.7-0.2-1.4-0.3c-0.3 0-0.9 0-0.8 0.5 0.1 0.2 0.3 0.2 0.4 0.2q0.3 0.1 0.6 0c0.3 0 0.5-0.1 0.8 0q0.4 0 0.8 0.2 0.3 0.1 0.5 0.4 0.1 0.1 0.2 0.2z"/><path class="l" d="m54 40.9c0.1-0.4 0.8-0.8 1.1-1 0.8-0.4 1.6-0.5 2.4-0.4 0.3 0.1 0.7 0.4 0.3 0.7q-0.2 0.1-0.4 0.1-0.4 0-0.9 0c-0.4-0.1-0.8-0.2-1.2-0.1-0.3 0.1-0.5 0.2-0.7 0.4-0.1 0.1-0.4 0.3-0.6 0.3z"/><path class="g" d="m57 41.5c-0.1-0.1-0.3-0.1-0.4 0q-0.2 0-0.4 0.2-0.1 0.2-0.1 0.6 0 0.2 0.1 0.5c0.2 0.1 0.4 0.2 0.6 0.1q0 0 0 0 0 0 0.1 0 0 0 0 0 0 0 0 0 0.1-0.1 0.1-0.1c0.2-0.2 0.3-0.4 0.2-0.6q0-0.2 0-0.4-0.1-0.1-0.2-0.3z"/><path class="g" d="m62.8 41.7c-0.1-0.2-0.3-0.2-0.5-0.1q-0.2 0.1-0.3 0.3-0.2 0.2-0.1 0.5 0 0.3 0.2 0.5c0.1 0.2 0.3 0.2 0.5 0.2q0 0 0 0 0.1-0.1 0.1-0.1 0 0 0 0 0 0 0.1 0 0 0 0.1-0.1c0.1-0.1 0.2-0.4 0.1-0.6q0-0.2-0.1-0.4 0-0.1-0.1-0.2z"/><path class="k" d="m57.9 46.9q0 0 0 0c-0.1-0.7 1-0.3 1.3-0.3q0.2 0.1 0.4 0.1c0.2 0 0.4-0.1 0.6-0.1 0.2-0.1 0.4-0.1 0.6-0.1 0.7 0.3 0 0.8-0.4 0.9-0.4 0.2-0.9 0.3-1.4 0.2-0.4 0-1-0.2-1.1-0.7z"/><path class="m" d="m63.8 39.7c-0.4-1.4-0.9-2.7-1.8-3.8-0.5-0.6-1-1.1-1.7-1.4-0.6-0.3-1.4-0.3-2.1 0-0.8 0.3-1.4 0.9-2 1.6-0.1 0.1 0.2 0.1 0.2 0 0.5-0.5 1.1-1 1.7-1.3 0.7-0.4 1.4-0.5 2.1-0.2 0.6 0.3 1.1 0.8 1.5 1.3q0.7 0.8 1.1 1.7 0.4 1 0.7 2.1c0 0.1 0.3 0.1 0.3 0z"/><path class="m" d="m57.7 33.8c-0.1-0.1-0.1-0.1-0.2-0.1-0.7 0.2-1.4 0.7-1.8 1.3 0 0.1 0.2 0.1 0.3 0.1 0.4-0.6 1-1.1 1.6-1.2 0.1-0.1 0.1-0.1 0.1-0.1z"/><path class="m" d="m54.2 35.7q-0.1 0-0.2 0-0.7 0.6-1.1 1.5c0 0.1 0.2 0.1 0.3 0.1q0.3-0.9 1.1-1.5c0-0.1 0-0.1-0.1-0.1z"/><path class="m" d="m73.5 64.3c-0.3-1.5-1.1-3-2-4.2q-0.9-1-1.9-1.8-0.1 0-0.2 0c-0.1 0-0.1 0.1-0.1 0.1 1.3 0.9 2.3 2.1 3 3.4 0.8 1.5 1.2 3.1 1.2 4.8q0 1.5-0.4 2.9c-0.1 0.1 0.2 0.1 0.2 0 0.5-1.7 0.6-3.5 0.2-5.2z"/><path class="m" d="m70.5 63.3c-0.1-0.1-0.3-0.1-0.3 0 0.9 1.1 0.8 2.6 0.7 3.9 0 0.1 0.2 0.1 0.2 0 0.2-1.3 0.2-2.8-0.6-3.9z"/><path class="m" d="m69.2 84.3c-1-0.4-1.6-1.3-2-2.2-0.4-1.1-0.3-2.4-0.2-3.6 0.1-0.7 0.1-1.5 0.1-2.2 0-0.1-0.2-0.1-0.2 0 0 2.3-0.8 5.1 0.8 7.1q0.6 0.7 1.4 1c0.1 0 0.2-0.1 0.1-0.1z"/><path class="m" d="m74.2 82.5c-0.1-0.1-0.1-0.1-0.2 0-0.7 0.3-1.6 0-2.1-0.5-0.7-0.7-0.9-1.6-1.1-2.4 0-0.1-0.2-0.1-0.2 0 0.1 0.7 0.3 1.5 0.8 2.1 0.4 0.6 1 1 1.7 1.1q0.6 0 1.1-0.2 0.1-0.1 0-0.1z"/><path class="m" d="m75.6 77.7c-0.6-0.1-1.2-0.5-1.5-1-0.1-0.1-0.3-0.1-0.3 0 0.4 0.7 1.1 1.1 1.8 1.1 0 0 0.1 0 0.1-0.1 0 0-0.1 0-0.1 0z"/><path class="m" d="m65.5 53.1c-1-0.9-0.9-2.4-0.7-3.6 0.1-0.1-0.2-0.1-0.2 0-0.3 1.2-0.4 2.7 0.7 3.6 0 0.1 0.3 0.1 0.2 0z"/><path class="m" d="m54.4 60.1q0-1.9-0.1-3.9c-0.1-0.1-0.3 0-0.3 0q0.3 3.5 0.2 6.9-0.2 3.5-0.7 6.9-0.3 1.9-0.7 3.8c0 0.1 0.2 0.1 0.3 0q0.7-3.4 1-6.8 0.4-3.4 0.3-6.9z"/><path class="m" d="m51.9 62.6q-0.5 3.1-1 6.3-0.5 3.1-0.9 6.2-0.3 1.8-0.6 3.5c0 0.1 0.3 0.1 0.3 0q0.5-3.1 0.9-6.2 0.5-3.1 1-6.3 0.3-1.7 0.6-3.5c0-0.1-0.3-0.1-0.3 0z"/><path class="m" d="m52.5 83.2q-0.1-1.1-0.1-2.1c0-0.1-0.3-0.1-0.3 0q0.3 3.8 0.1 7.7 0 1.1-0.1 2.2c0 0.1 0.2 0.1 0.3 0q0.2-3.9 0.1-7.8z"/><path class="m" d="m49.8 40.8c-1.6-0.8-1.8-2.7-2-4.2q-0.1-0.8-0.1-1.6c0-0.1-0.3-0.1-0.3 0 0 0.9 0.1 1.9 0.3 2.8 0.1 0.8 0.4 1.6 0.9 2.3q0.4 0.5 1 0.8c0 0.1 0.1 0.1 0.2 0q0.1 0 0-0.1z"/><path class="m" d="m51.2 38.8c-0.8-0.5-1.5-1.3-1.8-2.2-0.1-0.1-0.4-0.1-0.3 0.1 0.3 0.9 1 1.7 1.9 2.2q0.1 0 0.2 0 0.1-0.1 0-0.1z"/><path class="d" d="m42.1 117h-13v-26.7c0-3.6 2.9-6.5 6.5-6.5 3.8 0 6.9 3.1 6.9 6.9v25.9c0 0.2-0.2 0.4-0.4 0.4z"/><path class="a" d="m44 30.9q0.1 0 0.1 0c1 0.1 2.5-0.9 3.3-1.5 0.2-0.2 0.6-0.4 0.7-0.7 0.2-0.3 0.1-0.7 0-1-0.1-0.3-0.1-0.9 0.1-1.2 0.1-0.2 0.3-0.4 0.5-0.5 0.5-0.5 1-1.1 1.5-1.6q0.1-0.3 0.2-0.6 0 0-0.1-0.1 0-0.1-0.1-0.1c-0.4-0.1-0.7 0-1 0q-0.6-0.1-1.2-0.1c-0.8 0.1-1.6 0.2-2.3 0.4-1.1 0.4-2.4 1-3.1 1.9-0.8 0.9-1.6 3-0.7 4 0.3 0.3 0.7 0.5 1.1 0.7 0.3 0.2 0.6 0.4 1 0.4z"/><path class="e" d="m49.2 22.6l4.4-12.4-1.6-0.7-5.9 12.3z"/><path class="g" d="m53.6 10.2l-0.5 1.6-1.8-0.8 0.7-1.5z"/><path class="g" d="m41.3 34.5q0.1 0.2 0.3 0.3c0.2 0.2 0.5 0.4 0.9 0.5 1.8 0.5 2.8-1.9 3.2-3.2 0.4-1 0.5-2.1 0.8-3.1q0.3-1 0.7-2 0.7-1.5 1.4-3c0-0.1 0.8-1.8 0.8-1.8q-0.2-0.1-0.5-0.1c-0.4-0.1-0.8-0.3-1.3-0.4q-0.7-0.2-1.4-0.4c-0.2 0-0.8 2-0.9 2.2q-0.7 1.5-1.5 3.1c-0.2 0.5-0.5 1.1-0.8 1.7-0.2 0.5-0.6 1-0.8 1.5-0.8 1.2-1.9 3.4-0.9 4.7z"/><path class="l" d="m49.9 19.8q0.1 0 0.1 0 0.2 0 0.4-0.1c0.2-0.2 0.5-0.3 0.6-0.6 0.4-0.8-0.8-0.8-1.2-1.1-0.3-0.2-0.5-0.4-0.7-0.7-0.2-0.2-0.3-0.5-0.5-0.7-0.5-0.3-0.7 0.7-0.7 1 0 0.5 0.4 1 0.8 1.3 0.2 0.2 0.8 0.8 1.2 0.9z"/><path class="l" d="m51.4 17.1q0 0 0-0.1c0.4-0.1 0.4-0.6 0.2-0.8q-0.1-0.2-0.3-0.3c-0.6-0.4-1.2-0.8-1.5-1.5 0-0.1-0.1-0.2-0.2-0.2q-0.1 0-0.1 0.1c-0.2 0.3-0.4 0.7-0.3 1.1 0.1 0.3 0.5 0.7 0.7 0.9q0.5 0.5 1.1 0.7 0.2 0.1 0.4 0.1z"/><path class="l" d="m51.5 14.2c0.2 0.2 0.4 0.5 0.7 0.5 0.3 0.1 0.4-0.5 0.3-0.7-0.2-0.3-0.7-0.5-1-0.7q-0.3-0.3-0.6-0.6c-0.2-0.2-0.5-0.7-0.6-0.2 0 0.2 0.1 0.5 0.3 0.6 0.2 0.4 0.6 0.7 0.9 1.1z"/><path class="e" d="m56.4 13.4c-1.3 1.3-2.5 2.6-3.9 3.9q-1 1-2 1.9c-0.6 0.5-1.3 0.9-1.9 1.3-0.6 0.3-1.3 0.8-2 0.6-0.1 0-0.2 0-0.3 0q-0.1 0.1-0.1 0.2-0.2 0.2-0.3 0.4 0 0 0 0.1 0 0 0.1 0.1c0.6 0.2 1.1 0.3 1.6 0.8q0.5 0.4 0.8 1c0.2 0.4 0.2 0.8 0.3 1.2 0.1 0.4 0.3 1 0.6 1.2q0.2 0.1 0.5 0.1c0.5-0.2 0.5-0.9 0.4-1.3 0-0.4-0.2-0.7-0.3-1q-0.2-0.6-0.2-1.3c-0.1-0.8 0.9-1.5 1.4-2q0.9-1.1 1.8-2.1 1.9-2.1 3.7-4.2c0.2-0.1 0.3-0.3 0.4-0.5 0.1-0.3-0.2-0.8-0.5-0.5q-0.1 0-0.1 0.1z"/><path class="a" d="m43.5 24.8c-0.8 0.7-1.6 1.7-1.7 2.7 0 0.3 0 0.5 0.1 0.7 0.1 0.3 0.3 0.4 0.6 0.5 0.3 0 0.6-0.3 0.8-0.5q0.8-0.9 1.5-1.9c0.2-0.3 0.3-0.5 0.6-0.7 0.5-0.5 1.2-0.6 1.8-0.8 0.3-0.1 0.7-0.2 0.9-0.4 0.3-0.3-0.1-0.6-0.4-0.6q-0.4-0.1-0.8-0.1-0.6 0-1.1 0.1c-0.8 0.1-1.7 0.5-2.3 1z"/><path class="a" d="m46.9 29.4q0.5-0.1 1-0.4 0.2-0.1 0.4-0.3c0.1-0.2 0-0.4 0-0.6 0-0.2 0.3-0.4 0.4-0.6q0-0.3-0.1-0.5c0-0.1-0.2-0.4-0.2-0.4 0.2-0.2 0.1-0.6-0.1-0.8-0.2-0.1-0.4-0.1-0.7-0.1-0.4 0.1-0.9 0.3-1.2 0.5-0.2 0.2-0.4 0.3-0.4 0.5 0 0.1 0 0.5 0.2 0.5-0.2 0.2-0.4 0.3-0.4 0.6 0 0.2 0.2 0.4 0.4 0.5-0.2 0.2-0.3 0.5-0.3 0.7 0.1 0.5 0.6 0.5 1 0.4z"/><path class="c" d="m48.3 26.5c-0.7 0-1.4 0.3-2 0.6q-0.1 0 0 0.1 0 0 0.1 0c0.6-0.3 1.2-0.6 1.9-0.6 0.1 0 0.1-0.1 0-0.1z"/><path class="c" d="m48.2 27.9q-1 0-1.9 0.4c-0.1 0 0 0.1 0.1 0.1q0.9-0.4 1.8-0.4c0 0 0.1 0 0.1 0 0-0.1-0.1-0.1-0.1-0.1z"/><path class="c" d="m47.3 29.3q-0.1-0.1-0.2 0-0.3 0.1-0.7 0.1c0 0-0.1 0-0.1 0.1 0 0 0.1 0 0.1 0q0.5 0 0.9-0.2 0 0 0 0z"/><path class="a" d="m49.5 24q-0.1 0.1-0.2 0.3-0.1 0.1-0.1 0.3c-0.1 0.2 0 0.4 0.1 0.5 0.1 0.1 0.2 0.2 0.3 0.2 0.4 0 0.6-0.2 0.8-0.5q0.2-0.2 0.2-0.5 0-0.2-0.1-0.4-0.1-0.1-0.1-0.2-0.1 0-0.2 0c-0.3 0-0.6 0.1-0.7 0.3z"/><path class="g" d="m49.5 19.8q-0.7 0.4-1.4 0.8c-0.5 0.2-1 0.4-1.5 0.4-0.1 0-0.1 0.1 0 0.1 0.5 0 1-0.1 1.5-0.4 0.5-0.2 1-0.5 1.5-0.8 0.1-0.1-0.1-0.1-0.1-0.1z"/><path class="g" d="m47 21.6q-0.1-0.1-0.2-0.1-0.1 0-0.1 0 0 0-0.1 0 0 0 0 0 0 0-0.1 0 0 0.1 0 0.1-0.1 0-0.1 0.1 0.1 0.1 0.1 0.2 0.1 0.1 0.3 0c0.1 0 0.2-0.1 0.2-0.3z"/><path class="g" d="m46.7 21.7z"/><path class="d" d="m45.2 29.9c0 0.2-0.1 0.5-0.2 0.8q-0.1 0.1-0.1 0.2c-0.3 0.7-0.8 1.6-1.3 1.1-0.2-0.2-0.1-0.5 0-0.7q0-0.1 0-0.1 0.1-0.3 0.2-0.6 0-0.1 0.1-0.2 0.1-0.2 0.1-0.5 0.1-0.2 0.3-0.4c0.1-0.2 0.4-0.4 0.6-0.4 0.2 0.1 0.3 0.2 0.4 0.4q0 0.2-0.1 0.4z"/><path class="j" d="m45 30.7q-0.1 0.1-0.1 0.2-0.5-0.2-1.1-0.3 0-0.1 0.1-0.2 0.5 0.1 1.1 0.3z"/><path class="g" d="m43.4 33.2c-0.8 1.6-1.3 3.4-1.7 5.6-0.4 2.7-0.5 5.5-0.6 8.2-0.2 2.8-0.3 5.8-0.8 8.7-0.7 3.8-2.1 7.4-3.5 10.9q-0.5 1.3-1 2.6-0.4 1.3-0.9 2.7-0.8 1.8-1.6 3.6c0.5-2.2 1.3-4.4 2.1-6.5q0.5-1.3 1-2.6c1.3-3.5 2.7-7.1 3.4-10.8 0.5-2.9 0.6-5.8 0.7-8.7 0.1-2.7 0.3-5.4 0.7-8.1 0.4-2.3 1-4.2 1.8-5.8z"/><path class="a" d="m44.2 61.1q0 0 0 0c0.6 0.2 1.1 0.3 1.7 0.3q0.4 0 0.8-0.1c0.2 0 0.4 0.1 0.5 0.2 0.2 0.2 0.1 0.3-0.1 0.4-0.6 0.5-1.8 0.3-2.6 0.4-1.8 0-3.5-0.3-5.3-0.8-1-0.3-1.8-1.1-1.9-2.2-0.4-3 4-3.3 6.2-3.9 0.2-0.1 0.5-0.2 0.8-0.1 0.6 0.1 0.2 0.6-0.2 0.8-0.5 0.4-1.3 0.6-1.6 1.1 0.3 0.2 0.9 0.2 1.3 0.2q0.6 0 1.3 0 0.6 0 1.2-0.1c0.4 0 0.9-0.1 1.3-0.1 0.2 0 0.5 0 0.6 0.2 0.2 0.3-0.5 0.7-0.7 0.8-0.4 0.1-0.8 0.1-1.1 0.1-0.6 0-1.3 0.1-1.9 0-0.2 0 0.1 0.2 0.2 0.2q0.2 0 0.4 0 0.4 0.1 0.8 0.1c0.6 0 1.1 0 1.7-0.1 0.3 0 0.6-0.1 0.9-0.1 0.2 0 0.5 0.1 0.5 0.3 0 0.3-0.3 0.5-0.5 0.7-0.2 0.1-0.5 0.2-0.8 0.2q-0.4 0-0.8 0.1c-0.6 0-1.2 0-1.8-0.1-0.2 0-0.6 0-0.5 0.2 0.1 0.2 0.4 0.2 0.6 0.2q0.8 0.1 1.7 0.1 0.4 0 0.8-0.1c0.2 0 0.5-0.2 0.7-0.2 0.2 0.1 0.3 0.3 0.2 0.5-0.1 0.2-0.3 0.4-0.5 0.5-0.3 0.2-0.7 0.2-1.1 0.3q-0.8 0-1.6 0c-0.2 0-0.4 0-0.6 0q-0.1-0.1-0.3-0.1c-0.1 0-0.1 0-0.2 0q0 0-0.1 0.1z"/><path class="a" d="m34 56q-3.9-1.2-7.7-2.3c-2.3-0.7-4.6-1.8-6.9-2.6-1.5-0.6-3-1.1-4.5-0.9-2.5 0.4-3.3 2.8-2.8 5.1 0.4 1.7 2 2.8 3.6 3.2 1.8 0.4 3.6 1 5.5 1.3 3 0.5 6.1 0.8 9.2 1.1 1.5 0.2 3 0.3 4.6 0.3 0.7-0.1 1.4-0.2 2.1-0.2 0.8-0.1 1.6 0 2.3-0.1q0.1 0 0.1-0.1c0.1 0 0.1-0.1 0.1-0.2q-0.2-0.8-0.3-1.5c0-0.3 0.1-1-0.1-1.3-0.2-0.5-1.2-0.6-1.6-0.7q-1.8-0.6-3.6-1.1z"/><path class="a" d="m5.1 42q1 2.6 2.1 5.2c1.3 3 2.4 6 4.5 8.6 0.8 1 1.8 2 3.1 2.2 1.1 0.1 2.2-0.3 3.1-0.9 1.2-0.7 2.3-1.8 2.4-3.2 0-1.6-1.3-2.8-2.3-3.9-2.6-2.9-3.5-6.9-4.8-10.5-1.4-3.9-2.5-8-3.8-11.9-0.6-1.7-2.1-6.1-4.5-5.1-0.6 0.2-1.1 0.6-1.5 1.1-1.5 1.8-1.8 3.8-1.7 6 0.3 4.4 1.8 8.5 3.4 12.4z"/><path class="b" d="m8.2 46.3c1.6-0.9 3.1-1.9 4.8-2.6 0.4-0.2 1.1-0.3 1.4-0.5 0.6-0.4 0.2-0.8 0-1.5q-0.5-1.8-1.1-3.7-1.3-3.8-2.7-7.6c-0.7-1.8-2.6-9.1-5.7-7.9-2.4 0.9-3.5 3.2-3.7 5.7-0.2 2 0.1 4 0.5 6q1.2 6.2 2.8 12.3c0.5 2 2.7 0.4 3.7-0.2z"/><path class="h" d="m6.4 47.1c-0.1 0.2-0.2 0.3-0.4 0.3q-1.8-4.3-3-8.9-0.3-1.3-0.6-2.6c0-0.1-0.4-0.1-0.3 0q0.5 2.6 1.3 5.2 0.8 2.5 1.8 5 0.1 0.3 0.3 0.7 0 0.2 0.1 0.3 0.1 0.2 0.2 0.4c0 0.1 0.3 0.1 0.5 0q0.2-0.1 0.4-0.3c0-0.1-0.3-0.2-0.3-0.1z"/><path class="h" d="m12.2 34.7q-1-2.8-1.9-5.6c-0.6-1.6-1.2-3.3-2.3-4.7-0.5-0.7-1.2-1.3-2-1.7 0-0.1-0.1-0.1-0.2 0q-0.1 0 0 0.1c1.4 0.8 2.4 2.1 3.1 3.6 0.4 0.8 0.7 1.7 1 2.5q0.5 1.4 0.9 2.7l1.1 3.2c0 0.1 0.3 0 0.3-0.1z"/></svg>