<svg version="1.2" xmlns="http://www.w3.org/2000/svg" viewBox="0 0 210 199" width="210" height="199"><defs><linearGradient id="P" gradientUnits="userSpaceOnUse"/><linearGradient id="g1" x2="1" href="#P" gradientTransform="matrix(-37.768,0,0,-25.373,200.952,122.151)"><stop stop-color="#eeebe2"/><stop offset="1" stop-color="#e8e8de"/></linearGradient><linearGradient id="g2" x2="1" href="#P" gradientTransform="matrix(-37.768,0,0,-28.922,118.398,169.817)"><stop stop-color="#eeebe2"/><stop offset="1" stop-color="#e8e8de"/></linearGradient><linearGradient id="g3" x2="1" href="#P" gradientTransform="matrix(-44.787,0,0,-32.974,170.299,148.084)"><stop stop-color="#eeebe2"/><stop offset="1" stop-color="#e8e8de"/></linearGradient><linearGradient id="g4" x2="1" href="#P" gradientTransform="matrix(-11.591,0,0,-21.756,187.037,105.119)"><stop stop-color="#eeebe2"/><stop offset="1" stop-color="#e8e8de"/></linearGradient><linearGradient id="g5" x2="1" href="#P" gradientTransform="matrix(-8.844,0,0,-15.411,152.372,82.111)"><stop stop-color="#eeebe2"/><stop offset="1" stop-color="#e8e8de"/></linearGradient><linearGradient id="g6" x2="1" href="#P" gradientTransform="matrix(-30.556,0,0,-24.758,178.588,161.086)"><stop stop-color="#eeebe2"/><stop offset="1" stop-color="#e8e8de"/></linearGradient></defs><style>.a{fill:url(#g1)}.b{fill:url(#g2)}.c{fill:#d5d5cc}.d{fill:url(#g3)}.e{fill:#fcf9f0}.f{fill:#dbb067}.g{fill:#f2c172}.h{fill:#f09a35}.i{fill:#3886d1}.j{fill:#d9dade}.k{fill:#bbbcbf}.l{fill:#c5c6c9}.m{fill:#feb938}.n{fill:url(#g4)}.o{fill:#ff5102}.p{fill:#54304f}.q{opacity:.2;mix-blend-mode:screen;fill:#fff}.r{fill:url(#g5)}.s{fill:#8c3b1e}.t{fill:#cc6e3a}.u{fill:#632b16}.v{fill:#7d351b}.w{fill:#d48d00}.x{fill:#e39b0d}.y{opacity:.3;fill:#fff}.z{fill:#ff8f11}.A{fill:#e13d02}.B{opacity:.3;mix-blend-mode:overlay}.C{opacity:.2;mix-blend-mode:overlay}.D{fill:url(#g6)}.E{fill:#b6b7ba}</style><path class="a" d="m169.3 147.5l31.7-18.2v-7.1l-37.8 21.8z"/><path class="b" d="m80.6 191.6v7.1l37.8-21.8v-7.1z"/><path class="c" d="m118.4 169.8v7.1l7.1 4.2v-7.2z"/><path class="d" d="m125.5 173.9v7.2l44.8-25.9v-7.1z"/><path class="c" d="m9.3 150.4v7.1l71.3 41.2v-7.1z"/><path class="e" d="m167.7 141.3l33.3-19.1-2.6-1.5v1.5l-30.7 17.7z"/><path class="e" d="m80.6 190.1l-68.8-39.7v-1.5l-2.5 1.5 71.3 41.2 37.8-21.8v-1.5z"/><path class="e" d="m167.7 146.6v1.5l-42.2 24.4-7.1-4.2v1.5l7.1 4.1 44.8-25.8z"/><path class="f" d="m80.6 135.2l-68.8-39.7 117.8-68 68.8 39.7z"/><path class="g" d="m129.6 27.5v54.9l68.8 39.8v-55z"/><path class="h" d="m11.8 95.3v55.1l68.8 39.7v-54.9l-34.4-61.1z"/><path class="i" d="m50.2 96.1l-7-4.1v13.3l7 4z"/><path fill-rule="evenodd" class="j" d="m51.8 114.3l-12.1-6.9v-19.3l12.1 7zm-1.6-18.3l-8.8-5.2v15.5l8.8 5.1z"/><path class="k" d="m41.4 90.9v15.5l1.8-1.1v-13.3z"/><path class="l" d="m50.2 109.3l-7-4-1.8 1.1 8.8 5.1v-15.4z"/><path class="l" d="m40.6 87.5l-0.9 0.6 12.1 7v19.2l1-0.5v-19.3z"/><path class="m" d="m198.4 67.2v55l-117.8 67.9v-54.9z"/><path class="i" d="m175.4 124.8l9.8-5.7v-19.6l-9.8 5.6z"/><path class="c" d="m179 111.3l0.3 0.2-3.9 2.3v-0.5z"/><path class="c" d="m179.3 102.9v8.6l-0.3-0.2v-8.2z"/><path fill-rule="evenodd" class="e" d="m173.8 104.1l14.9-8.6v25.7l-14.9 8.6zm1.6 22.7l11.6-6.7v-21.7l-11.6 6.7z"/><path class="c" d="m187 98.4v21.8l-1.8-1.1v-19.6z"/><path class="n" d="m175.4 124.8l9.8-5.7 1.8 1.1-11.6 6.7v-21.8z"/><path class="c" d="m187.8 95l0.9 0.5-14.9 8.6v25.7l-0.9-0.6v-25.6z"/><path class="e" d="m175.4 113.8l3.9-2.3v-8.6l0.9-0.5v8.6l5.4-3.1v1l-5.4 3.1v10.4l-0.9 0.5v-10.4l-3.9 2.3z"/><path class="c" d="m180.2 111v-0.4l5-2.9 0.4 0.2z"/><path class="c" d="m179.3 112.5v10.4l-0.3-0.2v-10z"/><path class="o" d="m168.6 0.2l-127 73.3 41.5 73.5 42.4-24.5-5.3-9.3 20.9-12.8 26.6-2.3 42.4-24.4z"/><path  d="m139.4 22.4l-0.9 0.5 36.9 65.5 0.9-0.6z"/><path class="p" d="m168.6 5.5l-29.2 16.9 36.9 65.4 29.3-16.9z"/><path fill-rule="evenodd" class="q" d="m193.7 66l5 8.9-0.9 0.5-5-8.9-6.4 3.7 5 8.9-0.9 0.5-5-8.8-6.4 3.7 5 8.8-0.9 0.6-5-8.9-6.9 3.9-0.5-0.9 6.8-3.9-4.7-8.5-6.9 4-0.5-0.9 6.9-4-4.8-8.4-6.8 3.9-0.6-0.9 6.9-3.9-4.8-8.5-6.8 4-0.6-0.9 6.9-4-4.8-8.4-6.8 4-0.5-1 6.8-3.9-4.7-8.4-6.9 3.9-0.5-0.9 6.8-4-5-8.9 1-0.5 5 8.9 6.4-3.7-5.1-8.9 1-0.5 5 8.9 6.4-3.7-5-8.9 0.9-0.5 5 8.8 6.9-3.9 0.5 0.9-6.9 4 4.8 8.4 6.8-4 0.6 1-6.9 3.9 4.8 8.4 6.8-3.9 0.5 0.9-6.8 4 4.7 8.4 6.9-4 0.5 0.9-6.8 4 4.7 8.4 6.9-3.9 0.5 0.9-6.9 4 4.8 8.4 6.9-4 0.5 0.9zm-11.5-18.1l-6.4 3.7 4.8 8.4 6.4-3.7zm-5.3-9.3l-6.4 3.6 4.7 8.5 6.4-3.7zm-5.2-9.4l-6.4 3.7 4.7 8.4 6.4-3.7zm-11.7-5.6l4.8 8.4 6.4-3.7-4.8-8.4zm-2.5 12.6l6.4-3.7-4.8-8.4-6.4 3.7zm5.3 9.4l6.4-3.7-4.8-8.4-6.4 3.6zm5.3 9.4l6.4-3.7-4.7-8.4-6.4 3.7zm5.2 9.3l6.4-3.7-4.7-8.4-6.4 3.7zm11.7 5.7l-4.8-8.5-6.4 3.7 4.8 8.5zm7.3-4.3l-4.8-8.4-6.4 3.7 4.8 8.4z"/><path class="m" d="m167.7 77.1v71l-42.2 24.4v-70.8l21.1-37.6z"/><path class="i" d="m143.5 95.4l7-4v-13.3l-7 4z"/><path fill-rule="evenodd" class="e" d="m141.9 81.1l12.1-7v19.3l-12.1 7zm1.6 16.4l8.9-5.1v-15.4l-8.9 5.1z"/><path class="c" d="m152.4 77v15.4l-1.9-1v-13.3z"/><path class="r" d="m143.5 95.4l7-4 1.9 1-8.9 5.1v-15.4z"/><path class="c" d="m153.1 73.6l0.9 0.5-12.1 7v19.3l-0.9-0.5v-19.3z"/><path class="s" d="m140.4 129.2l14.9-8.6-0.7-0.4-14.9 8.6v34.4l0.7 0.4z"/><path class="t" d="m140.4 129.2v17.2 17.2l14.9-8.6v-17.2-17.2z"/><path class="u" d="m143.6 131.1l-1-0.6v12.2l1-1.9z"/><path class="s" d="m152.1 136l-8.5 4.8-1 1.9 10.5-6.1z"/><path class="v" d="m152.1 126.2l1-1.8-10.5 6.1 1 0.6z"/><path class="u" d="m152.1 126.2v9.8l1 0.6v-12.2z"/><path class="t" d="m143.6 140.8l8.5-4.8v-9.8l-8.5 4.9z"/><path class="u" d="m143.6 148.3l-1-0.6v12.1l1-1.8z"/><path class="s" d="m152.1 153.1l-8.5 4.9-1 1.8 10.5-6z"/><path class="v" d="m152.1 143.4l1-1.8-10.5 6.1 1 0.6z"/><path class="u" d="m152.1 143.4v9.7l1 0.7v-12.2z"/><path class="t" d="m143.6 158l8.5-4.9v-9.7l-8.5 4.9z"/><path class="w" d="m142.4 147.1l-0.4 0.2q-0.1 0.1-0.2 0-0.1 0-0.1-0.2v-3c0-0.2 0.1-0.5 0.3-0.6l0.4-0.2q0.1-0.1 0.2 0 0.1 0 0.1 0.2v3c0 0.2-0.1 0.5-0.3 0.6z"/><path class="w" d="m141.7 147.1v-3c0-0.2 0.1-0.5 0.3-0.6l0.4-0.2q0.1-0.1 0.2 0c0 0-0.1-0.1-0.2-0.1q-0.1-0.1-0.2 0l-0.4 0.2c-0.2 0.1-0.3 0.4-0.3 0.6v3q0 0.2 0.1 0.2c0 0 0.2 0.1 0.2 0.1q-0.1 0-0.1-0.2z"/><g style="opacity:.1"><path  d="m141.7 147.1v-3c0-0.2 0.1-0.5 0.3-0.6l0.4-0.2q0.1-0.1 0.2 0c0 0-0.1-0.1-0.2-0.1q-0.1-0.1-0.2 0l-0.4 0.2c-0.2 0.1-0.3 0.4-0.3 0.6v3q0 0.2 0.1 0.2c0 0 0.2 0.1 0.2 0.1q-0.1 0-0.1-0.2z"/></g><path  d="m142.5 144.3c0 0.3-0.1 0.5-0.3 0.6-0.2 0.1-0.4 0.1-0.4-0.2 0-0.2 0.2-0.5 0.4-0.6 0.2-0.1 0.3 0 0.3 0.2z"/><path  d="m142.3 145.8q0-0.2-0.1-0.1c-0.1 0.1-0.2 0.2-0.2 0.3q0 0.1 0.1 0.1v0.4l0.2-0.2v-0.3q0-0.1 0-0.2z"/><path class="x" d="m145.1 143.5q0-0.1-0.2-0.2c-0.1 0-0.3 0-0.4 0.1l-1.4 0.8c-0.2 0.1-0.4 0.1-0.5 0q-0.2-0.1-0.4 0c-0.2 0.1-0.3 0.3-0.3 0.4v0.1q0 0.2 0.2 0.3l0.1 0.1c0.4 0.2 0.9 0.2 1.2 0l1.6-0.9q0.1-0.1 0.1-0.2c0 0 0-0.5 0-0.5z"/><path class="y" d="m144.9 143.3q-0.2 0-0.4 0.1l-1.5 0.8c-0.1 0.1-0.3 0.1-0.4 0q-0.2-0.1-0.4 0-0.2 0.1-0.2 0.2l0.2 0.2c0.4 0.1 0.9 0.1 1.2 0l1.6-1c0.1-0.1 0.1-0.2-0.1-0.3z"/><path class="h" d="m125.5 101.7l-17.5-10.1 17.5 30.9z"/><path class="z" d="m151.2 63.5l-28.2 49.9 1.5 0.9 26.7-47.3 26.7 16.4 1.6-2.5z"/><path class="A" d="m105.1 36.8l-0.3 66.1 18.2 10.5 28.2-49.9z"/><path class="h" d="m118.4 126.6l7.1-4.1v50l-7.1-4.2z"/><path class="B" d="m80.6 151.2l37.8-21.8 7.1-6.9-43.9 25.3-1-1.7z"/><path class="C" d="m41.6 77l-29.8 18.3v5.2l29.8-18.3 39 69v-5.1z"/><path class="B" d="m167.7 100.9l30.7-17.7v-2.8l-30.7 17.7z"/><path  d="m47.9 75.2l-0.9 0.6 36.9 65.4 0.9-0.6z"/><path class="p" d="m77.2 58.3l-29.3 16.9 36.9 65.4 29.3-16.9z"/><path fill-rule="evenodd" class="q" d="m102.2 118.8l5.1 8.9-1 0.5-5-8.8-6.4 3.6 5 8.9-0.9 0.6-5-8.9-6.4 3.7 5 8.9-0.9 0.5-5-8.9-6.9 4-0.5-1 6.9-3.9-4.8-8.4-6.9 3.9-0.5-0.9 6.9-4-4.8-8.4-6.8 4-0.6-1 6.9-3.9-4.8-8.4-6.8 3.9-0.5-0.9 6.8-4-4.7-8.4-6.9 4-0.5-0.9 6.8-4-4.7-8.4-6.9 3.9-0.5-0.9 6.9-4-5.1-8.8 1-0.6 5 8.9 6.4-3.7-5-8.9 0.9-0.5 5 8.9 6.4-3.7-5-8.9 0.9-0.5 5 8.9 6.9-4 0.5 0.9-6.9 4 4.8 8.4 6.8-3.9 0.6 0.9-6.9 3.9 4.8 8.5 6.8-4 0.6 0.9-6.9 4 4.8 8.4 6.8-4 0.5 1-6.8 3.9 4.7 8.4 6.9-3.9 0.5 0.9-6.8 4 4.7 8.4 6.9-4 0.5 1zm-11.5-18.2l-6.4 3.7 4.8 8.4 6.4-3.7zm-5.3-9.3l-6.4 3.7 4.8 8.4 6.3-3.7zm-5.2-9.4l-6.4 3.7 4.7 8.5 6.4-3.7zm-11.7-5.7l4.8 8.4 6.4-3.7-4.8-8.4zm-2.5 12.7l6.4-3.7-4.8-8.5-6.4 3.7zm5.3 9.4l6.4-3.7-4.8-8.4-6.4 3.7zm5.3 9.3l6.4-3.7-4.7-8.4-6.4 3.7zm5.3 9.3l6.3-3.6-4.7-8.5-6.4 3.7zm11.7 5.7l-4.8-8.4-6.4 3.7 4.8 8.4zm7.3-4.3l-4.8-8.4-6.4 3.7 4.8 8.4z"/><path class="e" d="m132.6 169.8l15.4 8.9 30.6-17.6-15.4-8.9z"/><path class="D" d="m148 178.7v7.1l30.6-17.6v-7.1z"/><path class="c" d="m148 178.7v7.1l-15.4-8.9v-7.1z"/><path class="A" d="m129.2 110.9v9.5l18.3 10.6z"/><path class="o" d="m129.2 110.9l18.3 20.1 34.9-20.2-18.3-20.1z"/><path class="A" d="m41.6 73.5l-41.5 25.6 1.5 2.5 40-24.6 40 70.8 1.5-0.8z"/><path class="i" d="m36.4 134.3l-9.8-5.6v19.6l9.8 5.7z"/><path class="l" d="m32.8 140.5l-0.3 0.2 3.9 2.3v-0.5z"/><path class="E" d="m32.5 132.1v8.6l0.3-0.2v-8.2z"/><path fill-rule="evenodd" class="j" d="m38 159l-14.8-8.6v-25.7l14.8 8.6zm-1.6-24.6l-11.6-6.7v21.7l11.6 6.7z"/><path class="k" d="m24.8 127.6v21.8l1.8-1.1v-19.6z"/><path class="l" d="m36.4 154l-9.8-5.7-1.8 1.1 11.6 6.7v-21.8z"/><path class="l" d="m24.1 124.2l-0.9 0.5 14.8 8.6v25.7l0.9-0.6v-25.6z"/><path class="j" d="m36.4 143l-3.9-2.3v-8.6l-0.9-0.5v8.6l-5.3-3.1v1l5.3 3.1v10.4l0.9 0.5v-10.4l3.9 2.2z"/><path class="l" d="m31.6 140.2v-0.4l-5-2.9-0.3 0.2z"/><path class="E" d="m32.5 141.7v10.4l0.3-0.2v-10z"/><path class="i" d="m65.1 150.9l-9.7-5.6v19.6l9.7 5.7z"/><path class="l" d="m61.6 157.1l-0.4 0.2 3.9 2.3v-0.5z"/><path class="E" d="m61.2 148.7v8.6l0.4-0.2v-8.2z"/><path fill-rule="evenodd" class="j" d="m66.8 175.6l-14.9-8.6v-25.7l14.9 8.6zm-1.7-24.6l-11.6-6.7v21.7l11.6 6.7z"/><path class="k" d="m53.5 144.2v21.8l1.9-1.1v-19.6z"/><path class="l" d="m65.1 170.6l-9.7-5.7-1.9 1.1 11.6 6.7v-21.8z"/><path class="l" d="m52.8 140.8l-0.9 0.5 14.9 8.6v25.7l0.9-0.6v-25.6z"/><path class="j" d="m65.1 159.6l-3.9-2.3v-8.6l-0.8-0.5v8.6l-5.4-3.1v1l5.4 3.1v10.4l0.8 0.5v-10.4l3.9 2.3z"/><path class="l" d="m60.4 156.8v-0.4l-5-2.9-0.4 0.2z"/><path class="E" d="m61.2 158.3v10.4l0.4-0.2v-10z"/><path class="i" d="m94.2 171.7l9.7-5.7v-19.6l-9.7 5.6z"/><path class="l" d="m97.7 158.2l0.4 0.2-3.9 2.3v-0.4z"/><path class="E" d="m98.1 149.8v8.6l-0.4-0.2v-8.2z"/><path fill-rule="evenodd" class="j" d="m92.5 151l14.9-8.5v25.6l-14.9 8.6zm1.7 22.7l11.6-6.7v-21.7l-11.6 6.7z"/><path class="k" d="m105.8 145.4v21.7l-1.9-1.1v-19.6z"/><path class="l" d="m94.2 171.7l9.7-5.7 1.9 1.1-11.6 6.7v-21.8z"/><path class="l" d="m106.5 141.9l0.9 0.6-14.9 8.5v25.7l-0.9-0.5v-25.7z"/><path class="j" d="m94.2 160.7l3.9-2.3v-8.6l0.8-0.5v8.6l5.4-3.1v1l-5.4 3.1v10.5l-0.8 0.5v-10.5l-3.9 2.3z"/><path class="l" d="m98.9 157.9v-0.4l5-2.9 0.4 0.2z"/><path class="E" d="m98.1 159.4v10.5l-0.4-0.3v-10z"/></svg>