<svg version="1.2" xmlns="http://www.w3.org/2000/svg" viewBox="0 0 182 175" width="182" height="175"><style>.a{fill:#272443}.b{fill:#404082}.c{fill:#e75860}.d{fill:#d83f4e}.e{fill:#a9ccff}.f{fill:#6981b7}.g{fill:#e6eefc}.h{fill:#f7967c}.i{fill:#db6357}.j{fill:#fff}</style><path class="a" d="m12.3 94.7h-0.1c-0.1 0-0.2 0.1-0.2 0.2v0.2q0 1.6-0.5 3.2c-0.1 0.1 0 0.3 0.2 0.3h1.1c0.2 0 0.3-0.2 0.2-0.3q-0.5-1.6-0.5-3.2v-0.2c0-0.1-0.1-0.2-0.2-0.2h-0.1z"/><path class="b" d="m12.3 99.7h-0.1c-0.5 0-0.9-0.4-0.9-1 0-0.5 0.4-0.9 0.9-0.9h0.1c0.5 0 0.9 0.4 0.9 0.9 0 0.6-0.4 1-0.9 1z"/><path class="c" d="m14.3 99.8v7.9c0 0.4-0.3 0.7-0.7 0.7h-2.7c-0.4 0-0.7-0.3-0.7-0.7v-7.9c0-0.4 0.3-0.7 0.7-0.7h2.7c0.4 0 0.7 0.3 0.7 0.7z"/><path class="a" d="m14.3 99.8v7.9c0 0.4-0.3 0.7-0.7 0.7h-2.7c-0.4 0-0.7-0.3-0.7-0.7v-7.9c0-0.4 0.3-0.7 0.7-0.7h2.7c0.4 0 0.7 0.3 0.7 0.7z"/><path class="b" d="m13.8 106.1h-2.9v-4.3h2.9z"/><path class="b" d="m13.8 101.3h-2.9v-0.5h2.9z"/><path class="c" d="m24.9 98c-0.7-0.8-1-1.8-1-2.8v-1.4h-1-1-1v1.4c0 1-0.4 2-1 2.8-0.8 1-1.2 2.2-1.2 3.5v5.5c0 0.8 0.7 1.4 1.4 1.4h1.8 1 1.7c0.8 0 1.5-0.6 1.5-1.4v-5.5c0-1.3-0.5-2.5-1.2-3.5z"/><path class="d" d="m23.9 93.8h-3c0-0.8 0.6-1.4 1.4-1.4h0.2c0.8 0 1.4 0.6 1.4 1.4z"/><path class="d" d="m24.8 105h-4.8v-5.1h4.8z"/><path class="e" d="m36.8 106c0 0.5-0.1 1-0.4 1.4-0.5 0.6-1.2 1-2 1h-3.8q-0.6 0-1.2-0.2-0.5-0.3-0.9-0.8c-0.4-0.6-0.5-1.4-0.3-2.1l1-3.5 0.3-0.9h6l0.2 0.9 1 3.5q0.1 0.4 0.1 0.7z"/><path class="f" d="m35.7 101.8h-6.5l0.3-0.9h6z"/><path class="f" d="m35 105.5h-5.1v-1.6h5.1z"/><path class="e" d="m40.5 166.7h-37.2v-58.3h37.2z"/><path class="f" d="m4.9 168.9h-1.9v-60.5h1.9z"/><path class="f" d="m40.9 168.9h-2v-60.5h2z"/><path class="f" d="m39.6 114.9h-36v-1.3h36z"/><path class="f" d="m34.5 122.3h-25.2c-0.9 0-1.7-0.8-1.8-1.8l-0.8-6.3h30.4l-0.8 6.3c-0.1 1-0.9 1.8-1.8 1.8z"/><path class="f" d="m39.6 128h-36v-1.4h36z"/><path class="f" d="m34.5 135.4h-25.2c-0.9 0-1.7-0.8-1.8-1.9l-0.8-6.3h30.4l-0.8 6.3c-0.1 1.1-0.9 1.9-1.8 1.9z"/><path class="f" d="m39.6 141h-36v-1.3h36z"/><path class="f" d="m34.5 148.5h-25.2c-0.9 0-1.7-0.8-1.8-1.9l-0.8-6.3h30.4l-0.8 6.3c-0.1 1.1-0.9 1.9-1.8 1.9z"/><path class="f" d="m39.6 154.1h-36v-1.3h36z"/><path class="f" d="m34.5 161.6h-25.2c-0.9 0-1.7-0.8-1.8-1.9l-0.8-6.3h30.4l-0.8 6.3c-0.1 1.1-0.9 1.9-1.8 1.9z"/><path class="f" d="m40.8 109.8h-37.8v-1.4h37.8z"/><path class="a" d="m42.4 171.8c0 1.8-1.4 3.2-3.1 3.2-1.8 0-3.2-1.4-3.2-3.2 0-1.7 1.4-3.1 3.2-3.1 1.7 0 3.1 1.4 3.1 3.1z"/><path class="b" d="m43.8 171.8c0 1.8-1.5 3.2-3.2 3.2-1.8 0-3.2-1.4-3.2-3.2 0-1.7 1.4-3.1 3.2-3.1 1.7 0 3.2 1.4 3.2 3.1z"/><path class="a" d="m6.5 171.8c0 1.8-1.4 3.2-3.2 3.2-1.7 0-3.2-1.4-3.2-3.2 0-1.7 1.5-3.1 3.2-3.1 1.8 0 3.2 1.4 3.2 3.1z"/><path class="b" d="m7.8 171.8c0 1.8-1.4 3.2-3.2 3.2-1.7 0-3.1-1.4-3.1-3.2 0-1.7 1.4-3.1 3.1-3.1 1.8 0 3.2 1.4 3.2 3.1z"/><path class="a" d="m126 137.3c-3.3 0-6.5-0.6-9.4-2-4.8-2.2-9.1-6.4-13.4-12.9-2.6-3.9-4.8-8-6.7-12.3l0.5-0.2c1.9 4.2 4.1 8.3 6.6 12.2 4.3 6.5 8.5 10.5 13.2 12.8 7.1 3.3 16.3 2.3 23.5-2.4 6.5-4.3 10.9-11.9 12.4-21.4 1.7-10.5 3-21.3 4-31.9 0.7-6.6 1.2-13.3 1.5-20 0.1-1.9 0.2-3.9 0.2-5.8 0.1-4.1 0.2-8.4 0.9-12.5l0.5 0.1c-0.6 4.1-0.7 8.3-0.9 12.4 0 1.9 0 3.9-0.2 5.8-0.3 6.7-0.8 13.4-1.4 20-1.1 10.7-2.4 21.4-4.1 32-0.7 4.5-2.1 8.6-4 12.2-2.2 4-5.1 7.2-8.6 9.5-3.5 2.3-7.6 3.8-11.8 4.3q-1.4 0.1-2.8 0.1z"/><path class="g" d="m130.7 113.1q0.2 5.3 0.4 10.5c0 0.5 0.1 1.1 0.4 1.5 0.3 0.4 0.8 0.5 1.3 0.6 2.5 0.6 4.8 0.8 7.3 1.2 1.5 0.2 3 0.3 4.6 0.2 0.2 0 0.4 0 0.5-0.2 0.2-0.1 0.2-0.3 0.2-0.5q0.1-4.6 0.3-9.2c0.2-6.3 0.5-12.5 0.7-18.8 0.2-6.4 0.6-12.9 0.3-19.3 0-0.9-0.1-1.7-0.4-2.5-0.2-0.8-0.7-1.5-1.2-2.1-1.6-2.4-3-4.9-5.7-6.1-2.9-1.3-5.7-0.6-8.2 1-2.4 1.6-1.8 4.8-1.7 7.3 0 7.6 0.5 15.3 0.8 22.9q0.2 6.8 0.4 13.5z"/><path class="h" d="m145 174.4c-0.9 0.3-2.8 0.5-3.5-0.2-0.8-0.9-1.6-1.8-2.6-2.3-0.8-0.5-1.6-0.6-2.5-0.8q-0.4 0-0.8-0.1 0 0 0 0c-0.5-0.1-1-0.3-1.5-0.5-0.6-0.4-1.2-1-1.1-1.8q0.1-0.4 0.4-0.8 0.1-0.3 0.3-0.5 0 0 0.1-0.1c0.5-0.7 0.7-1.6 1.4-2.1 0.7-0.4 1.6-0.6 2.4-0.4 0.7 0.1 1.8 0.5 2.2 1.1 0.5 0.7 0.8 1.7 1.2 2.4 1 1.7 2 3.4 3.4 4.8 0.3 0.4 0.7 0.8 0.6 1.3z"/><path class="c" d="m147.1 174.9c0.1 0 0.2-0.1 0.2-0.1 0.1-0.2-0.1-0.3-0.2-0.4-0.9-0.5-1.9-1.2-3-1.2-0.5 0-1.1 0.1-1.6 0.3-0.5 0.1-0.8 0.4-1.2 0.1-0.3-0.1-0.5-0.3-0.7-0.5-0.9-1-2-1.7-3.2-2.2q-1.1-0.5-2.3-0.8c-0.5-0.2-1.5-0.7-2-0.4-0.2 0.2-0.2 0.5-0.1 0.7 0.1 0.2 0.2 0.3 0.4 0.5 0.8 0.9 0.9 2.2 1 3.4 0.1 0.4 0.3 0.4 0.6 0.4 0.1 0 0.7 0 0.7 0q0-0.6 0-1.2 0-0.6 0-1.1c0-0.3-0.2-0.7 0.2-0.9q0.1 0 0.1 0 0.3-0.1 0.7 0 0 0 0.1 0c0.3 0.1 0.6 0.2 0.8 0.3 1.5 0.5 2.5 1.5 3.3 2.7q0.2 0.2 0.4 0.4c0 0 1 0 1 0h0.3l4.1 0.1h0.1q0.1 0 0.3-0.1z"/><path class="h" d="m134.7 165.9c-0.1-0.8-0.2-1.6-0.3-2.4q-0.6-6.8-1.3-13.5c-0.4-4-1.8-7.8 0.9-11.2 0.9-1.1 2.2-2 3.5-1.9 1.9 0.1 3.3 1.9 3.6 3.8 0.9 4.4 0 9.2-0.4 13.6-0.3 3.7-0.4 7.3-1 10.9 0 0.5-0.1 1.1-0.5 1.4-0.3 0.4-0.7 0.5-1.2 0.6-0.6 0.2-0.8 0-1.3-0.1-0.6-0.2-1.2 0.2-1.7-0.4-0.1-0.1-0.2-0.4-0.2-0.6q-0.1-0.1-0.1-0.2z"/><path class="g" d="m144.9 131.7q-0.2 5.6-0.4 11.2-0.2 6.9-0.3 13.8-0.1 1.6-0.1 3.2h-14.2q0.1-3 0.2-6 0.2-4.9 0.3-9.8 0-0.4 0-0.8 0.2-5.5 0.4-10.9 0-2.1 0.1-4.2 0-0.3 0-0.5 0-0.4 0.1-0.8c0-1.4-0.2-3 0.4-4.3 0.5-1.1 2.3-1.8 3.3-2.3q0.8-0.4 1.6-0.7 0.2 0 0.4 0c0.8-0.2 1.6-0.2 2.4-0.1 1.8 0.4 4.4 0.6 5.4 2.3q0.3 0.4 0.4 0.8 0 0.1 0.1 0.1 0 0.1 0.1 0.3c0.8 2.6-0.1 6.2-0.2 8.7z"/><path class="g" d="m123.7 97.2q3.6 8.7 7.1 17.5c0.4 0.9 0.7 1.8 1.3 2.6 1.2 1.5 3 2.4 4.8 2.7 1.9 0.4 3.8 0.3 5.6 0.2 0.7 0 1.3 0 1.9-0.2 0.7-0.2 2.1-0.9 2.5-1.6 0.4-0.8-0.2-2.3-0.3-3.2q-0.6-3.7-1.5-7.3c-0.7-3.3-1.9-6.5-2.5-9.8-1.4-7-3.7-14-5.9-20.8-0.5-1.8-1.1-3.7-2.7-4.7-0.8-0.4-1.7-0.5-2.6-0.6-4.2-0.3-9.9 0.9-12.9 4.1-1.3 1.3-0.9 3-0.5 4.7 0.6 2.6 1.5 5.2 2.4 7.8 1 2.9 2.2 5.7 3.3 8.6z"/><path class="h" d="m119.7 163c-0.9-0.3-2.6-1.1-2.8-2.1-0.3-1.1-0.5-2.3-1-3.3-0.5-0.8-1.1-1.4-1.8-1.9q-0.3-0.3-0.6-0.6 0 0 0 0c-0.4-0.3-0.7-0.8-1-1.2-0.3-0.7-0.5-1.5 0-2.1q0.3-0.3 0.7-0.5 0.3-0.1 0.6-0.2 0-0.1 0.1-0.1c0.8-0.4 1.4-1 2.3-1 0.8 0 1.7 0.3 2.3 0.9 0.5 0.5 1.2 1.3 1.2 2.1 0.1 0.8-0.1 1.8-0.2 2.7-0.1 1.9 0 3.9 0.3 5.8 0.1 0.5 0.2 1-0.1 1.5z"/><path class="c" d="m121.2 164.5c0.1 0 0.2 0 0.3 0 0.1-0.1 0-0.3 0-0.5-0.5-0.9-1-2-1.9-2.5-0.5-0.3-1-0.5-1.6-0.7-0.4-0.1-0.8 0-1-0.5-0.2-0.2-0.2-0.5-0.3-0.8-0.3-1.3-0.9-2.4-1.6-3.5q-0.7-1-1.5-1.9c-0.4-0.4-1-1.4-1.6-1.4-0.2 0-0.4 0.3-0.4 0.5-0.1 0.2 0 0.4 0.1 0.7 0.2 1.2-0.4 2.3-1 3.4-0.1 0.4 0.1 0.5 0.4 0.7 0 0 0.5 0.3 0.5 0.3q0.3-0.5 0.7-1 0.3-0.5 0.5-1c0.2-0.2 0.3-0.7 0.7-0.6q0 0 0.1 0 0.3 0.1 0.6 0.4 0 0 0 0c0.2 0.3 0.4 0.5 0.6 0.7 1 1.2 1.3 2.6 1.4 4.1q0 0.3 0.1 0.5c0 0 0.8 0.5 0.8 0.5l0.3 0.2 3.5 2.3q0.1 0 0.3 0.1z"/><path class="h" d="m115.4 150.3c0.3-0.8 0.7-1.5 1-2.2q3.1-6.1 6-12.2c1.8-3.6 2.5-7.5 6.6-9 1.4-0.5 2.9-0.6 4.1 0.2 1.5 1 1.7 3.3 1 5.1-1.6 4.2-4.8 7.8-7.5 11.4-2.2 2.9-4.2 6-6.6 8.8-0.3 0.3-0.7 0.8-1.1 0.9-0.5 0.1-1 0-1.4-0.1-0.5-0.2-0.7-0.5-1-0.9-0.4-0.4-1.2-0.4-1.3-1.1 0-0.3 0.1-0.5 0.1-0.7q0.1-0.1 0.1-0.2z"/><path class="g" d="m146.9 117.9q0 0.4 0 0.7-0.2 0.9-0.6 1.8c-0.3 0.8-0.8 1.6-1.3 2.3q-0.2 0.2-0.3 0.4c-0.9 1.2-1.9 2.4-2.7 3.5q-3.1 4.6-6.2 9.3-1.3 2-2.7 4.1-0.8 1.3-1.7 2.6-0.5 0.8-1 1.5-1 1.7-2.1 3.3-0.9 1.4-1.7 2.7l-6.9-4.2-0.2-0.2-5-3q1.6-2.5 3.3-5 2.9-4.5 5.9-8.9 3-4.6 6-9.1 1.5-2.3 3-4.6c0.5-0.8 1-1.8 1.7-2.6q0.1-0.1 0.2-0.2 0.3-0.4 0.7-0.6c1-0.6 2.9-0.3 4-0.3 1.6 0.2 3.1 0.7 4.2 1.8 1.2 1 2.8 2.3 3.3 3.9q0.1 0.4 0.1 0.8z"/><path class="g" d="m146.1 79.6c-0.5 0.6-1.5 0.7-2.1 0.9-1 0.4-2.1 0.5-3.2 0.7q-1 0.1-2 0.3h-0.4q-0.4 0.1-0.8 0.1-0.1 0.1-0.3 0.1-1 0.1-2.1 0.3c-2 0.3-4.1 0.5-6.1 0.6q-2.7 0.1-5.3-0.2-0.2 0-0.3-0.1-0.3 0-0.6 0c-0.9-0.2-1.8-0.2-2.7-0.5-0.7-0.3-1.8-0.7-2.2-1.3-0.3-0.5-0.4-1-0.5-1.5-0.5-2.9-0.7-5.7-0.4-8.7q0.3-2.5 0.6-4.9c0.3-2.6 0.7-5.3 1.9-7.6 1-1.7 3.2-2.2 5-2.4 1.7-0.2 3.4-0.1 5.1-0.2 2 0 4-0.1 6.1-0.2q1.5 0 3 0.1c0.8 0 2.2-0.2 2.9 0.2 1.4 0.7 2.1 3.4 2.5 4.8q0.1 0.3 0.2 0.6 0 0.1 0.1 0.2 0.8 3.2 1.3 6.5c0.4 3.5 0.6 7.1 0.6 10.6 0 0.6 0 1.2-0.3 1.6z"/><path class="f" d="m147.1 116.7q0 0.9-0.2 1.8 0 0.1 0 0.1-0.2 0.9-0.6 1.8 0 0 0 0-0.3 0.8-0.7 1.5-0.3 0.6-0.5 1.1c-0.9 1.4-1.8 2.8-2.7 4.2q-1.7 2.6-3.5 5.2-1.4 1.9-2.8 3.9 0.1 0 0.1 0.1 0 2.8-0.1 5.7-0.1 5-0.1 10.1 0 3.8 0.1 7.7h-0.3q0-1.6 0-3.3-0.1-5-0.1-10.1 0.1-5 0.2-9.9-0.3 0.4-0.6 0.9-1.9 2.5-3.7 5-0.1 0.1-0.2 0.1 0 0 0 0c-0.1 0-0.2-0.1-0.1-0.1q0.2-0.3 0.4-0.6 0.7-1 1.4-1.9 0 0 0 0 1.2-1.6 2.3-3.2 1.8-2.5 3.6-5.1 1.8-2.6 3.5-5.2c0.7-1.1 1.5-2.3 2.2-3.4q0 0 0-0.1 0.1-0.2 0.2-0.4 0.4-0.6 0.7-1.3c0.5-1 0.9-2.1 1.1-3.2q0-0.5 0.1-1 0 0 0 0 0-0.3 0-0.7c0-0.5-0.2-1-0.3-1.5q-0.7-3.6-1.6-7.1-0.8-3.6-1.7-7.1-1-3.5-2-7-1-3.5-2.1-6.9-0.9-2.6-1.8-5.1-0.3-0.9-0.6-1.8c0-0.1 0.3-0.2 0.3-0.1q0.2 0.5 0.3 0.9 0.2 0.5 0.3 0.9 0.1 0.2 0.2 0.4 0.3-0.2 0.6-0.5 0.2-0.2 0.4-0.4c0.6-0.7 1.2-1.4 1.7-2.1q1-1.2 1.9-2.4c0-0.1 0.3 0 0.2 0.1q-0.5 0.7-1 1.4-0.9 1.1-1.8 2.3-0.5 0.6-1 1.1 0 0 0 0-0.4 0.4-0.9 0.6 0 0.1-0.1 0.1 1 2.7 1.8 5.4 1.2 3.5 2.2 7 1 3.5 1.9 7 0.9 3.5 1.8 7 0.4 1.9 0.8 3.8 0.2 1 0.4 1.9c0.1 0.3 0.1 0.6 0.2 0.9 0.1 0.4 0.2 0.7 0.2 1q0 0.2 0 0.5z"/><path class="f" d="m136.8 119.1q-0.1 0.2-0.1 0.5c-0.2 1.1-0.8 2.1-1.5 3-0.8 1.1-1.7 2.1-2.5 3.2q-0.9 1.2-1.8 2.4-1.7 2.3-3.4 4.7-4.2 6.3-7.8 13l-0.2-0.2q4-7.5 8.9-14.5 1.3-1.8 2.5-3.5 1.3-1.7 2.6-3.4c0.9-1.1 1.8-2.1 2.4-3.3q0.3-0.7 0.4-1.4 0.3-1.4-0.1-2.9c-0.4-1.4-1.1-2.7-1.7-4.1q-0.1 0-0.1-0.1-0.8-1.9-1.7-3.8-1.7-4.1-3.4-8.1c-2.1-5.4-4-10.9-5.4-16.6q-0.2-0.8-0.4-1.7c-1.2-5-1.9-10.1-2.1-15.3 0-0.1 0.3-0.1 0.3 0q0 1.1 0.1 2.1c0.3 4.5 1 8.9 2 13.3q0.4 2 1 4c1.5 5.6 3.6 11.1 5.8 16.5q1.7 4 3.4 8.1 0.3 0.6 0.6 1.3 0.7 1.3 1.3 2.7c0.5 1.3 1 2.7 0.9 4.1z"/><path fill-rule="evenodd" class="f" d="m144.5 60.9q-0.5 0-0.9 0-1.4 0-2.9 0-0.1 3.8-0.1 7.7c-0.1 0.6-0.1 1.2-0.2 1.8q-0.2 0.7-0.7 1.4c-0.7 0.8-1.6 1.3-2.5 1.9 0 0-0.2 0-0.2-0.1q0-1.9 0-3.8 0-3.3-0.1-6.7-0.1-1.1-0.1-2.2c-2 0.2-3.9 0.7-5.9 0.4 0 0-0.1 0-0.1-0.1 0 0 0.1 0 0.2 0 1.2 0.1 2.3 0 3.5-0.2q1.1-0.2 2.3-0.3-0.1-2.2-0.3-4.4c0-0.1 0.3-0.1 0.3 0q0.2 1.9 0.3 3.9 0 0.2 0 0.5 0.2 0 0.5 0 1.4 0 2.8 0 0.1-2.3 0.2-4.6c0-0.1 0.3-0.1 0.3 0q-0.1 2.3-0.2 4.5 0 0.1 0 0.1 0.1 0 0.1 0 1.8 0 3.6 0 0 0.1 0.1 0.2zm-4.1 0c-1.1 0-2.2-0.1-3.2 0q-0.1 0-0.1 0 0.1 3 0.2 6 0 3.2 0 6.5c0.9-0.5 1.8-1.2 2.3-2 0.7-1.1 0.6-2.3 0.7-3.5q0-1.9 0-3.9 0.1-1.6 0.1-3.1z"/><path class="f" d="m139.5 58.8q-0.1-0.3-0.3-0.4-0.2-0.2-0.5-0.2c-0.3 0-0.7 0.2-0.7 0.5q0 0 0 0 0 0.1 0 0.1c-0.1 0.3 0.1 0.5 0.3 0.7 0.3 0.1 0.7 0.2 0.9 0.1 0.1-0.1 0.2-0.3 0.2-0.4q0.1-0.2 0.1-0.4z"/><path class="b" d="m126.7 27.4c-0.6-0.1-1.4-0.4-2-0.4-0.6 0-1.3 0.1-1.9 0.1q-2.1 0.1-4.1-0.1c-0.2-0.1-0.4-0.1-0.6-0.2-0.2-0.2-0.3-0.5-0.4-0.8-0.3-1.6-0.6-3.3-0.1-4.9 0.2-0.7 0.5-1.3 0.9-1.9q0.3-0.6 0.6-1.2c1-1.9 1.2-4.1 1.3-6.2 0-0.8 0-1.6 0.2-2.4 0.1-0.6 0.2-1.1 0.4-1.7 0.2-0.6 0.4-1.3 0.7-2 0.8-1.6 2.1-2.9 3.6-3.9 1-0.7 2.1-1 3.2-1.3 0.8-0.1 2.5-0.6 3.2 0 0.1 0.1 0.2 0.3 0.4 0.4 0.4 0.2 0.7-0.1 1.1-0.1 0.4 0.1 0.9 0.3 1.2 0.5 0.8 0.3 1.6 0.8 2.2 1.4 0.9 1 1.2 2.4 1.8 3.5 0.8 1.2 1.6 2.4 2.2 3.7 0.8 1.7 1.1 3.6 0.8 5.5-0.2 1.4-0.7 2.8-0.3 4.2 0.1 0.6 0.4 1.2 0.6 1.7 0.5 1.3 0.7 2.7 0.3 4-0.3 0.7-0.8 1.4-1.4 2-0.7 0.6-1.3 0.7-2.2 0.7-2.3 0.2-4.5-0.3-6.7-0.1-1.2 0.1-2.8 0.1-4-0.3-0.4-0.2-0.7-0.5-1.1-0.6-0.6-0.2-1.2-0.1-1.8 0q-0.1 0-0.1 0z"/><path class="c" d="m144.8 39.7q-0.1 0.6-0.1 1.1 0 1.3 0.2 2.5 0 0.8 0.1 1.5 0 0 0 0c0.1 1 0.2 1.9 0.3 2.9q0 0.2 0 0.3 0 1.4 0 2.7 0 0 0 0-0.1 1.2-0.1 2.4-0.1 0.5-0.1 1.1-0.1 2-0.3 4c0 0.2-0.1 0.4-0.2 0.5-0.1 0.2-0.3 0.2-0.5 0.2q-0.8 0.1-1.5-0.1c-1.1-0.2-2.1-0.7-3.2-1.1q-0.5-0.1-1-0.2 0 0 0 0-0.6-0.1-1.3 0.1c-0.6 0.1-1.2 0.5-1.7 0.9-0.6 0.5-1.1 1.1-1.6 1.7q-1.2 1.6-2.3 3.2c-1.3 1.7-2.5 3.5-3.9 5q-0.1 0.1-0.2 0.2c-1.7 1.7-3.9 2.9-6.2 3.6q-1.7 0.6-3.6 0.8c-0.3 0-0.8 0-0.9-0.3-0.1-0.2-0.1-0.3-0.1-0.5q0.2-5.7 0.5-11.5c0.1-2.3 0.3-4.7 0.4-7q0-0.9 0-1.8 0-1.3-0.1-2.5c-0.1-2.5-0.3-4.9-0.6-7.3q-0.2-1.4-0.4-2.9-0.2-1.4-0.4-2.8-0.1-0.8-0.2-1.6-0.1-0.3-0.1-0.7c-0.3-1.4-0.8-3.2-0.5-4.5q0.1-0.5 0.5-0.9 0 0 0.1-0.1c0.5-0.6 1.2-1 1.8-1.5q0.1 0 0.2-0.1 0.3-0.1 0.6-0.3 0.7-0.4 1.5-0.8 0.1-0.1 0.3-0.2 0.1-0.1 0.2-0.1 0.8-0.5 1.5-0.9 0.2-0.1 0.4-0.2 0.2-0.1 0.4-0.2 0.2-0.2 0.5-0.3 0.5-0.4 1.1-0.7 0.2-0.1 0.5-0.3 0.1 0 0.1 0 0.2-0.1 0.3-0.1c1-0.3 1.9-0.6 2.9-0.8 0.5-0.1 1.1 0 1.6 0 1.4 0.2 2.7 0.4 4 0.7 0.7 0.2 1.5 0.6 2.2 1 0.9 0.6 1.7 1.1 2.6 1.5q0.6 0.3 1.1 0.5 1 0.5 2 0.9c0.5 0.3 1.1 0.5 1.6 0.9q0.5 0.3 0.9 0.7c0.6 0.5 0.9 1.2 1.1 2q0 0 0 0 0.3 0.9 0.3 1.9c0.1 1.5-0.1 3-0.2 4.1 0 1.2-0.4 2.2-0.5 3.4z"/><path class="h" d="m136.1 31.7c0 0.5-0.5 4.4-1.2 3.9-2.2-1.6-3.9-3.7-5.5-5.8-1.4-1.8-2.6-3.7-3.8-5.7-0.2-0.3-0.4-0.8-0.4-1.2 1-0.3 1.9-0.6 2.9-0.8 0.5-0.1 1.1 0 1.6 0 1.4 0.2 2.7 0.4 4 0.7 0.7 0.2 1.5 0.6 2.2 1q0.1 1.8 0.2 3.6 0 0.4 0 0.9c0.1 1.1 0.1 2.3 0 3.4z"/><path class="c" d="m151.8 54.4c-0.1 0.3-0.3 0.6-0.5 0.8-0.4 0.3-0.9 0.2-1.4 0.1q-0.9-0.1-1.9-0.2c-1-0.2-2.1-0.3-2.9-0.9q-0.2-0.1-0.3-0.2c-0.5-0.5-0.9-1.1-1.2-1.6q-1.7-3.1-2.9-6.5-0.1-0.1-0.1-0.3-0.9-2.4-1.4-5c-0.7-2.7-1-5.7 0.1-8.3q0.1-0.1 0.2-0.3c0.6-1.3 1.6-2.4 2.8-3.2 0.3-0.3 0.7-0.6 1.1-0.6q0.2 0 0.4 0 0 0 0.1 0.1c0.5 0.2 0.8 0.7 0.9 1.1q0.2 0.4 0.4 0.9 0 0 0 0c1 2.3 1.8 4.8 2.5 7.3q0.3 1.3 0.6 2.7 0 0.2 0.1 0.4c0.2 0.9 0.6 2 1.5 2.3q0.2 0 0.4 0.1c0.3 0.3 0.1 0.8 0.1 1.2 0.1 0.7 0.7 1.2 1.1 1.8 0.6 1.1 0.7 2.3 0.8 3.6 0 1.6 0 3.2-0.5 4.7z"/><path class="h" d="m147.6 53.4q0.1 0.6 0.5 1.1c0.6 0.8 1.6 1.1 2.6 1.1 2 0.1 3.2-1.2 4-2.8 1.7-3.3 3.1-6.8 4.1-10.4 0.5-1.6 0.8-3.5 1.4-5.1 0.8-1.8 1.2-3.9 1.7-5.8 0.1-0.5 0.2-1.1 0.2-1.6 0-0.5-0.3-1.1-0.8-1.4-1.4-0.8-2-0.8-2.8 0.7q-1 1.8-2 3.6c-1.7 3.2-3.1 6.7-5.1 9.7-1.8 2.7-3.6 5.9-3.9 9.2 0 0.6 0 1.1 0.1 1.7z"/><path class="h" d="m159.2 30.4q0 0 0 0c0.3 0.2 0.6 0.2 0.9 0.3q0.7 0 1.4 0c0.5 0 1.1 0 1.4-0.5 0.2-0.4 0.5-1 0.7-1.5 0.3-0.8 0.3-1.7 0.4-2.6 0-0.3 0-0.7-0.2-1-0.1-0.3-0.3-0.5-0.6-0.7-0.4-0.3-0.8-0.5-1.3-0.5-0.4 0-0.9 0.1-1.3 0.4-1.2 1.1-1.8 2.7-2 4.3-0.1 0.7 0 1.4 0.6 1.8z"/><path class="b" d="m181.6 17.9q-0.4 1.8-0.9 3.6 0 0.1 0 0.2 0 0.1 0 0.1-0.4 1.9-0.8 3.7c0 0.2-0.1 0.6-0.4 0.5-0.2-0.1-0.3-0.2-0.4-0.3-0.6-0.8-1.3-1.6-1.9-2.4-0.4-0.5-0.9-0.6-1.5-0.7q0 0-0.1 0-0.1 0-0.1 0-0.4 0-0.7 0c-1.3-0.1-2.5-0.2-3.8-0.2q-1.2 0-2.4 0-1.5 0-3-0.2-0.7 0-1.3-0.1-0.3 0-0.5-0.1-0.3 0-0.5-0.1-0.2 0-0.5-0.1-0.8-0.1-1.7-0.4-0.4-0.2-0.8-0.4c-0.9-0.4-2-1-2.8-1.7q0 0-0.1 0c-0.5-0.5-0.9-1-1-1.6q0 0 0 0c-0.3-1 0-2 0.6-2.8q0 0 0 0c0.4-0.4 1-0.7 1.6-0.9q0.1-0.1 0.1-0.1c1.1-0.3 2.3-0.3 3.2-0.3q1.3 0 2.6 0.3 0.2 0 0.4 0.1 0.3 0.1 0.6 0.2 0.3 0 0.5 0.1 2.1 0.7 4.1 1.6 1.1 0.5 2.1 1c1.2 0.5 2.4 1 3.5 1.4q0.3 0.2 0.6 0.3 0.1 0.1 0.2 0.1 0 0 0.1 0c0.5 0.2 1.1 0.3 1.6 0 0.9-0.5 1.9-0.8 2.8-1.3 0.1-0.1 0.3-0.1 0.4-0.1 0.3 0 0.3 0.4 0.2 0.6z"/><path class="a" d="m180.7 21.8q-0.4 1.9-0.8 3.7c0 0.2-0.1 0.6-0.4 0.5-0.2-0.1-0.3-0.2-0.4-0.3-0.6-0.8-1.3-1.6-1.9-2.4-0.4-0.5-0.9-0.6-1.5-0.7q0 0-0.1 0-0.1 0-0.1 0l0.8-4q0.1 0.1 0.2 0.1 0 0 0.1 0c0.5 0.2 1.1 0.3 1.6 0 0.9-0.5 1.9-0.8 2.8-1.3 0.1-0.1 0.3-0.1 0.4-0.1 0.3 0 0.3 0.4 0.2 0.6q-0.4 1.8-0.9 3.6 0 0.1 0 0.2 0 0.1 0 0.1z"/><path class="a" d="m158.6 14l-1.2 5.3c-0.5-0.5-0.9-1-1-1.6q0 0 0 0c-0.3-1 0-2 0.6-2.8q0 0 0 0c0.4-0.4 1-0.7 1.6-0.9z"/><path class="a" d="m159.1 40q0.1 0 0.2 0c0.1 0.1 0.2 0.2 0.1 0.3q0 0-0.1 0c-0.2 0.1-0.3 0.3-0.3 0.5 0 0.2-0.1 0.4-0.1 0.7q0 0 0 0.1c0 0.2 0.2 0.2 0.3 0.2 0.2 0.1 0.4 0.1 0.6 0 0.3-0.1 0.5-0.4 0.6-0.7q0.1-0.3 0.3-0.7 0.5-1.4 0.9-2.9 0.1-0.6 0.2-1.2c0-0.3-0.1-0.3-0.4-0.3q-0.7 0-1.3 0.1c-0.2 0-0.5 0-0.6 0.2-0.2 0.2-0.3 0.6-0.3 0.9q0 0.1 0 0.1c0.1 0.2 0.6 0.2 0.6 0.4-0.2 0.1-0.3 0.1-0.4 0.2-0.2 0.1-0.2 0.3-0.1 0.4 0 0 0.2 0 0.3 0 0.1 0.1 0.2 0.1 0.2 0.2-0.1 0.1-0.3 0.1-0.4 0.1-0.2 0.1-0.3 0.3-0.2 0.4 0 0.1 0.2 0.1 0.3 0.2 0.1 0 0.2 0.1 0.1 0.2q0 0-0.1 0.1c-0.2 0-0.3 0-0.4 0.1-0.1 0.1-0.2 0.2-0.1 0.3q0 0.1 0.1 0.1z"/><path class="b" d="m165.8 21.9q-0.1 0.2-0.2 0.3 0 0 0 0c-0.3 0.4-0.6 0.7-0.9 1-0.4 0.7-0.5 1.6-0.7 2.3q-0.7 2.3-0.9 4.7c-0.1 2.2 0 4.6-1.3 6.5-0.2 0.4-0.6 0.5-1 0.6q0 0 0 0-0.2 0.1-0.4 0.1 0 0-0.1 0 0 0-0.1 0-0.1 0-0.2-0.1-0.2 0-0.2-0.1c-0.5-0.4-0.7-0.8-0.8-1.4-0.3-2-0.3-4.1 0.1-6.1 0.4-1.4 0.9-3 1.5-4.4 0.5-1.2 0.6-2.6 0.5-3.9q0-0.2 0-0.4c0-0.3 0-0.6 0.1-0.9 0.2-0.6 1.1-0.7 1.7-0.7q0.2 0 0.4 0 0.3 0 0.5 0.1 0.1 0 0.2 0.1c0.5 0.1 0.9 0.3 1.3 0.5 0.3 0.1 0.5 0.3 0.6 0.6 0.2 0.4 0.1 0.9-0.1 1.2z"/><path class="a" d="m164.9 14c-0.6 1.3-0.7 2.8-0.9 4.3q-0.1 0.6-0.2 1.2-0.2 1.2-0.5 2.4-0.1 0.7-0.3 1.3c-0.4 1.6-0.9 3.3-1.3 4.9q-0.3 1.3-0.5 2.6-0.2 1.3-0.2 2.5-0.1 2.1-0.2 4.1 0 0 0 0-0.2 0.1-0.4 0.1 0 0-0.1 0c0.1-1.6 0.1-3.2 0.2-4.8q0-1.3 0.3-2.6 0.2-1.3 0.6-2.5c0.4-1.7 0.9-3.3 1.3-5q0.1-0.3 0.1-0.7 0.2-0.9 0.4-1.8 0.1-0.3 0.1-0.6 0.1-0.9 0.3-1.8c0.1-1.2 0.3-2.5 0.9-3.7q0.2 0 0.4 0.1z"/><path class="h" d="m161 23.1c0.3-0.4 0.6-0.7 1-0.8 0.6-0.2 1.2-0.1 1.7-0.2q0.4 0 0.7-0.1c0.2-0.1 0.5-0.2 0.8-0.1 0.1 0.2 0.1 0.5 0 0.7-0.3 0.6-0.9 0.9-1.6 1.1-1.2 0.5-1.7 2.3-2.3 3.3-0.6 0.8-1.4 1.6-2.4 1.7-0.4 0 0.2-2.2 0.3-2.4 0.4-0.8 0.7-1.6 1.2-2.3 0.2-0.3 0.4-0.6 0.6-0.9z"/><path class="h" d="m163.4 24.6c-0.1 0.2-0.1 0.4-0.1 0.5 0.1 0.2 0.2 0.4 0.4 0.4q-0.3 0.2-0.5 0.5c-0.3 0.2-0.5 0.4-0.7 0.7-0.1 0.3 0 0.7 0.2 0.8-0.2 0-0.5 0.3-0.5 0.5 0 0.3 0.2 0.6 0.5 0.6-0.2 0.2-0.5 0.5-0.4 0.7 0 0.2 0.2 0.3 0.4 0.4q0.3 0 0.5-0.1 0.4-0.1 0.7-0.5 0.1-0.1 0.1-0.3c0-0.1 0-0.3-0.1-0.3q0.3-0.3 0.5-0.7 0.2-0.2 0.1-0.5c0-0.2-0.1-0.4-0.3-0.4q0.4-0.3 0.6-0.8 0.1-0.2 0.1-0.5c0-0.1-0.1-0.3-0.2-0.4 0.2-0.2 0.4-0.4 0.5-0.8 0.1-0.5-0.2-0.8-0.7-0.7-0.5 0.1-0.9 0.4-1.1 0.9z"/><path class="i" d="m163.8 28.5q0-0.1-0.1 0-0.4 0.1-0.9 0.1c0 0-0.1 0-0.1 0.1 0 0 0.1 0 0.1 0q0.6 0.1 1-0.2 0.1 0 0 0z"/><path class="i" d="m164 26.9q-0.5 0.4-1.2 0.6-0.1 0 0 0.1c0 0 0.1 0 0.1 0q0.7-0.2 1.3-0.6c0.1-0.1-0.1-0.1-0.2-0.1z"/><path class="i" d="m164.6 25.1q-0.1 0-0.1 0-0.2 0.1-0.3 0.2-0.1 0.1-0.2 0.1 0 0 0 0-0.1 0-0.1 0c-0.1 0-0.1 0.1-0.1 0.1 0 0 0.1 0 0.1 0q0.4-0.1 0.7-0.3c0.1-0.1 0-0.1 0-0.1z"/><path class="c" d="m121.5 39.9q-0.1 0.2-0.1 0.3 0 0.3-0.1 0.7-0.3 2.9-0.8 5.8c-0.2 0.9-0.4 1.7-0.7 2.5-0.5 1.5-0.7 3.2-2.1 4.3q-0.1 0.1-0.2 0.2c-0.2 0.1-0.4 0.3-0.5 0.5q0 0.2-0.1 0.4c-0.7 2-3.9 2.3-5.7 2.5-0.6 0.1-1.2 0.1-1.8-0.1-1.3-0.6-1.2-2.1-0.9-3.3q0-0.3 0.1-0.6c0.4-1.5 0.3-2.6 0-4.2-0.1-0.9-0.1-1.9 0.5-2.6 0.2-0.2 0.4-0.4 0.6-0.6 0.2-0.3 0.2-0.6 0.3-0.9 0.1-0.9 0.1-1.9 0.3-2.7 0.2-0.8 0.6-1.4 0.9-2.1q0.8-1.5 1.2-3.2c0.3-1 0.3-2 0.6-2.9q0.1-0.5 0.3-0.9 0-0.1 0.1-0.2c0.6-2.3 1.6-4.2 3.8-5.4q0.3-0.2 0.6-0.4c0.4-0.1 0.7-0.1 1.2 0.2 0.5 0.3 0.8 0.7 1.1 1.2q0.3 0.6 0.6 1.2c0.6 1.4 0.9 3 1 4.6 0.1 1.9 0 3.8-0.2 5.7z"/><path class="h" d="m113.9 54c0 0.4-0.1 0.8-0.3 1.2-0.3 0.5-0.8 0.7-1.3 1-0.8 0.4-1.6 0.8-2.5 0.8-0.8 0.1-1.5-0.2-2-0.8-1.3-1.3-2.4-3.1-3.5-4.6q-1.7-2.5-3.4-5.1-3.2-5.1-6-10.6c-0.3-0.5-0.5-0.9-0.6-1.5-0.1-0.5 0-1.1 0.4-1.5 1.2-1.1 1.8-1.2 2.9 0q1.4 1.6 2.8 3.1 3.6 4.2 7.2 8.5 1.8 2.2 3.6 4.4c0.6 0.8 1.5 1.5 2.1 2.4 0.7 0.9 0.7 1.6 0.6 2.7z"/><path class="h" d="m92.9 34.1c0.4 0.3 0.9 0.5 1.4 0.6q0 0 0.1 0c0.5 0.1 1 0.1 1.5-0.1 0.5-0.2 1-0.7 1.2-1.2q0.1-0.2 0.1-0.5c0.1-0.1 0.1-0.3 0.1-0.4-0.4-1.2-1-2.3-1.9-3.2q-0.5-0.6-1.1-1c-0.3-0.2-0.6-0.4-0.9-0.6q-0.5-0.2-1-0.5-0.5-0.2-0.9-0.4c-0.3-0.1-0.7-0.2-1-0.1-0.2 0-0.4 0.1-0.5 0.3q-0.1 0-0.1 0.1c0 0.1 0.2 0.2 0.3 0.2 0.5 0.2 1 0.5 1.5 0.8 0.4 0.3 0.9 0.7 1.1 1.1 0 0-0.4 0-0.4 0-0.2 0-0.3-0.1-0.5-0.1q-0.3-0.2-0.7-0.3c-0.6-0.3-1.2-0.4-1.8-0.6q-0.4-0.1-0.9-0.1c-0.2 0-0.7 0.1-0.8 0.3 0 0.2 0.2 0.4 0.4 0.5 0.3 0.3 0.8 0.5 1.2 0.7q0.6 0.2 1.1 0.5 0.3 0.1 0.6 0.3 0 0-0.1 0c-0.5-0.1-1 0.2-1.2 0.7-0.3 0.6 0.3 1.4 0.8 1.8q0.1 0.2 0.2 0.3 0.2 0 0.3 0c0.1 0 0.2-0.1 0.2-0.2 0-0.1 0.3 0.1 0.3 0.1q0.2 0.2 0.4 0.3 0.5 0.4 1 0.7z"/><path class="i" d="m92.1 32.2q-0.1-0.2-0.3-0.5-0.3-0.6-0.7-1.1c0-0.1-0.2-0.1-0.1 0q0.3 0.4 0.5 0.8c0.2 0.3 0.4 0.7 0.4 1q0 0.1 0 0.2c0 0.1-0.1 0.1-0.2 0.1q-0.3 0-0.5-0.1c-0.3-0.2-0.5-0.5-0.7-0.7q-0.2-0.5-0.4-1c0-0.1-0.2-0.1-0.1 0q0.1 0.5 0.4 1c0.2 0.3 0.4 0.6 0.7 0.7q-0.1 0 0 0.1 0 0 0 0.1 0 0.1 0 0.1 0 0.1 0 0.1 0.1 0 0.1 0c0 0 0.1 0 0.1-0.1q0-0.1-0.1-0.2 0.2 0.1 0.4 0.1c0.2 0 0.3 0 0.4-0.1 0.1-0.1 0.1-0.3 0.1-0.5z"/><path fill-rule="evenodd" class="e" d="m92.3 17.3q0 0 0.1 0c0-0.1 0.1-0.1 0.2 0.1q0 0.2 0.1 0.4c0.3 1.6 0.4 3.1 0.4 4.7q0.1 0.7 0.1 1.5 0 0.7 0 1.5 0.1 0.1 0.1 0.2 0 0.3 0 0.7c0 0.5 0.2 1 0.5 1.3q0.1 0 0.1 0.1 0.2 0.1 0.2 0.3 0 0.2 0 0.4c0 0.2 0 0.5 0.1 0.7 0 0.1 0.1 0.4 0.2 0.5 0.5 0.3 1 0.8 1.2 1.4 0.1 0.6-0.1 1.1-0.5 1.5q-0.1 0.1-0.2 0.2c-1.1 0.7-2.1-0.8-2-1.7 0-0.4 0.2-0.7 0.4-1 0.3-0.7 0.3-1.5-0.1-2.1q-0.1-0.1-0.2-0.2c-0.1-0.2-0.2-0.3-0.3-0.4q0 0 0 0-0.1-0.2-0.2-0.4-0.1-0.4-0.2-0.8c-0.1-0.7-0.1-1.4-0.1-2.1q0-1.1 0-2.2-0.1-1.3 0-2.6 0-0.7 0.1-1.3c0-0.2-0.1-0.6 0-0.7zm1.2 14.7c0.2 0.3 0.5 0.7 0.9 0.6q0.3-0.1 0.4-0.3 0.4-0.3 0.3-0.9c0-0.3-0.2-0.9-0.5-1.1q0 0 0-0.1-0.1 0-0.1 0c-0.4-0.2-0.9 0.1-1 0.5-0.2 0.4-0.2 0.9 0 1.3z"/><path fill-rule="evenodd" class="e" d="m88 29.3c0.4-0.5 1.1-0.6 1.8-0.6 0 0 0.3-0.3 0.4-0.3 0.1-0.2 0.3-0.4 0.4-0.6q0.1-0.2 0.2-0.3 0.1-0.1 0.3-0.2 0 0 0.1 0c0.5 0 0.9-0.4 1.2-0.9q0.2-0.3 0.4-0.5 0.5-0.7 0.9-1.4 0.4-0.7 0.8-1.3c0.9-1.3 1.8-2.6 2.9-3.7q0.1-0.2 0.3-0.4c0.1-0.1 0.2-0.1 0.2 0.1 0 0.2-0.2 0.4-0.3 0.6q-0.3 0.6-0.6 1.2-0.6 1.1-1.3 2.2-0.6 1-1.2 1.9c-0.4 0.6-0.8 1.2-1.2 1.7q-0.3 0.3-0.6 0.6-0.1 0.1-0.3 0.2 0 0 0 0c-0.2 0.1-0.3 0.1-0.5 0.2q-0.2 0-0.4 0.1c-0.6 0.4-1 1-1 1.7 0 0.4-0.1 0.7-0.2 1-0.4 0.9-2 1.6-2.6 0.5q0-0.1-0.1-0.3c-0.1-0.5 0-1.1 0.4-1.5zm0 1.4q0 0.3 0.2 0.5c0.3 0.3 0.8 0.1 1.1-0.1 0.4-0.3 0.7-0.6 0.7-1.1 0-0.4-0.2-0.8-0.6-0.9q-0.1 0-0.1 0 0 0 0 0c-0.5 0-0.9 0.4-1.1 0.7q-0.3 0.4-0.2 0.9z"/><path fill-rule="evenodd" class="b" d="m93.2 28c0.2-0.1 0.3-0.2 0.4-0.2q0.1-0.1 0.2-0.1 0.1 0 0.1 0.1 0.2 0.1 0.2 0.3 0 0.2 0 0.4c0 0.2 0 0.5 0.1 0.7 0 0.1 0.1 0.4 0.2 0.5 0.5 0.3 1 0.8 1.2 1.4 0.1 0.6-0.1 1.1-0.5 1.5q-0.1 0.1-0.2 0.2c-1.1 0.7-2.1-0.8-2-1.7 0-0.4 0.2-0.7 0.4-1 0.3-0.7 0.3-1.5-0.1-2.1zm0.3 4c0.2 0.3 0.5 0.7 0.9 0.6q0.3-0.1 0.4-0.3 0.4-0.3 0.3-0.9c0-0.3-0.2-0.9-0.5-1.1q0 0 0-0.1-0.1 0-0.1 0c-0.4-0.2-0.9 0.1-1 0.5-0.2 0.4-0.2 0.9 0 1.3z"/><path fill-rule="evenodd" class="b" d="m95.1 32.6q-0.1 0.1-0.2 0.2-0.3 0.2-0.6 0.1c-0.7 0-1.3-0.7-1.4-1.4q0-0.2 0-0.4c0-0.4 0.2-0.7 0.4-1q0-0.1 0-0.1c0.3-0.6 0.3-1.4-0.1-2 0.2-0.1 0.3-0.2 0.4-0.2q0.1-0.1 0.2-0.1 0.1 0 0.1 0.1 0.2 0.1 0.2 0.3 0 0.2 0 0.4c0 0.2 0 0.5 0.1 0.7 0 0.1 0.1 0.4 0.2 0.5q0.4 0.2 0.8 0.6 0.3 0.4 0.4 0.8c0.1 0.6-0.1 1.1-0.5 1.5zm0-1.1c0-0.4-0.2-1-0.5-1.2q0 0 0-0.1-0.1 0-0.1 0 0 0 0 0-0.2-0.1-0.4 0c-0.3 0.1-0.5 0.3-0.6 0.5-0.2 0.4-0.2 0.9 0 1.3 0.2 0.3 0.5 0.7 0.9 0.6q0.3-0.1 0.4-0.3 0.4-0.3 0.3-0.8z"/><path fill-rule="evenodd" class="b" d="m88 29.3c0.4-0.5 1.1-0.6 1.8-0.6 0 0 0.3-0.3 0.4-0.3 0.1-0.2 0.3-0.4 0.4-0.6q0.1-0.2 0.2-0.3 0.1-0.1 0.3-0.2 0.1 0.1 0.1 0.2 0.2 0.2 0.3 0.4c-0.6 0.4-1 1-1 1.7 0 0.4-0.1 0.7-0.2 1-0.4 0.9-2 1.6-2.6 0.5q0-0.1-0.1-0.3c-0.1-0.5 0-1.1 0.4-1.5zm0 1.4q0 0.3 0.2 0.5c0.3 0.3 0.8 0.1 1.1-0.1 0.4-0.3 0.7-0.6 0.7-1.1 0-0.4-0.2-0.8-0.6-0.9q-0.1 0-0.1 0 0 0 0 0c-0.5 0-0.9 0.4-1.1 0.7q-0.3 0.4-0.2 0.9z"/><path class="b" d="m92.5 26.8q0.1 0 0.2 0 0.1 0.1 0.2 0c0.1-0.1 0.1-0.2 0.1-0.3-0.1-0.2-0.5-0.2-0.6 0 0 0.1 0 0.2 0.1 0.3z"/><path class="f" d="m92.4 17.3c0-0.1 0.1-0.1 0.2 0.1q0 0.2 0.1 0.4c0.3 1.6 0.4 3.1 0.4 4.7q0.1 0.7 0.1 1.5 0 0.7 0 1.5c-0.1-0.1-0.3-0.3-0.4-0.4-0.1-0.2-0.1-0.5-0.1-0.7q-0.1-3.6-0.3-7.1 0 0 0 0z"/><path class="h" d="m94.8 32.4c-0.4 0.2-1 0.1-1.3-0.2q-0.3-0.4-0.6-0.7-0.4-0.4-0.8-0.7c-0.2-0.1-0.5-0.2-0.7-0.3-0.2-0.1-0.4-0.3-0.5-0.5-0.1-0.3-0.1-0.5 0.1-0.6q0.3-0.1 0.6 0c0.2 0.1 0.5 0.2 0.7 0.3q0.5 0.2 1 0.3 0.2 0.1 0.5 0.1 0.2 0.1 0.4 0.1 0.2 0 0.3 0.1c0.5 0.2 0.6 0.8 0.6 1.2 0 0.2 0 0.5-0.2 0.7q0 0.1-0.1 0.2z"/><path class="i" d="m93.2 29.9q-0.6-0.1-1.2-0.4c-0.3-0.1-0.8-0.4-1.1-0.1-0.2 0.2-0.1 0.6 0 0.8 0.3 0.2 0.6 0.4 0.9 0.5 0.3 0.2 0.7 0.4 0.9 0.7 0 0.1 0.2 0 0.2 0-0.4-0.5-1-0.7-1.5-1-0.3-0.2-0.6-0.5-0.4-0.8q0-0.1 0.1-0.2c0.1 0 0.2 0 0.3 0q0.3 0.1 0.5 0.2 0.6 0.3 1.3 0.3c0 0.1 0.1 0 0 0z"/><path class="i" d="m95.7 33.3q-0.6 0-1-0.3c-0.1-0.1-0.2 0-0.1 0q0.5 0.4 1.1 0.4c0 0 0.1 0 0.1 0 0-0.1-0.1-0.1-0.1-0.1z"/><path class="d" d="m128.4 50.1c-0.4-0.4-0.9-0.8-1.3-1.2-0.4-0.3-0.8-0.6-1.4-0.7-0.7-0.1-1.4-0.1-2.1-0.1-0.5 0-1.1 0.1-1.5 0.4-0.5 0.4-0.7 0.9-0.8 1.4q-0.1 0.2-0.1 0.5c-0.5 0.8-1 1.8-1 2.7-0.1 1.4 1.2 1.3 1.9 2.2 0.7 0.8 1.4 1.3 2.6 1.3 1.2 0 2.4-0.5 3.3-1.1 0.9-0.6 1.6-1.4 1.8-2.4 0.2-1.2-0.5-2.2-1.4-3z"/><path class="d" d="m134.6 38.5c0-0.4 0-0.8-0.3-1.2-0.2-0.3-0.6-0.5-0.9-0.8-0.4-0.4-0.7-1-1.2-1.3-0.7-0.5-1.6-0.5-2.4-0.1-1.1 0.6-1.5 1.7-2.2 2.7-0.3 0.4-0.7 0.9-0.7 1.5 0 0.7 0.6 1 0.7 1.6 0.1 0.5-0.1 1 0.2 1.3 0.2 0.3 0.5 0.3 0.9 0.4q1.4 0.2 2.9 0.2c0.4 0 0.7 0 1.1-0.1 0.6-0.2 1.1-0.8 1.4-1.3 0.2-0.6 0.3-1.3 0.4-1.9q0.1-0.5 0.1-1z"/><path class="d" d="m120.7 29.7c0 0.4 0 0.8 0 1.2 0 1.3-1.1 2.2-2.2 2.7-0.9 0.4-1.9 0.6-2.8 0.5q-0.7 0-1.3-0.3c-0.4-0.2-0.8-0.5-1.1-0.8q0-0.1 0.1-0.2c0.6-2.3 1.6-4.2 3.8-5.4q0.3-0.2 0.6-0.4 0.3-0.1 0.6-0.3 0.7-0.4 1.5-0.8 0.1-0.1 0.3-0.2 0.1-0.1 0.2-0.1c0.4 0.2 0.7 0.6 0.8 1.1 0.2 0.6 0 1.2-0.2 1.8-0.1 0.4-0.3 0.7-0.3 1.1q0 0.1 0 0.1z"/><path class="d" d="m118.6 43.3q-0.1-0.3-0.3-0.6c-0.3-0.3-0.7-0.6-1.1-0.6-0.5-0.1-0.9 0.2-1.4 0-0.4-0.1-0.7-0.6-1-0.9-0.7-0.5-1.7-0.2-2.3 0.4-0.6 0.7-0.5 1.5-0.8 2.4-0.3 0.8-1.1 1.3-1.1 2.2 0 1.8 2.7 2.8 4 3.4 0.7 0.3 1.4 0.4 2.1 0.2 0.6-0.2 1.2-0.7 1.4-1.4 0.3-0.7 0.1-1.6 0.4-2.4 0.1-0.4 0.4-0.8 0.4-1.2 0.1-0.3 0-0.6-0.1-0.9q-0.1-0.3-0.2-0.6z"/><path class="d" d="m143.3 29.9c-0.2 0.8-0.6 1.7-1.1 2.3-0.2 0.1-0.5 0.2-0.8 0.1-0.2 0-0.4-0.1-0.6-0.1-0.2-0.1-0.5 0-0.7 0-0.2 0.1-0.5 0.1-0.8 0.1-0.3 0-0.6-0.1-0.8-0.5q0-0.1 0-0.2c-0.2-0.3-0.5-0.5-0.8-0.8-0.3-0.3-0.2-0.5-0.1-0.9 0-0.5-0.3-0.9-0.3-1.4 0-0.4 0.1-0.8 0.3-1.2 0.3-0.6 0.9-1.2 1.6-1.4q0.2-0.1 0.4-0.1 1 0.5 2 0.9c0.5 0.3 1.1 0.5 1.6 0.9q0 0 0.1 0 0.1 0.3 0.1 0.6c0.1 0.5 0 1.2-0.1 1.7z"/><path class="d" d="m147.8 43.5c0-0.4-0.2-0.7-0.6-1-0.2-0.1-0.3-0.3-0.5-0.5-0.1-0.2-0.1-0.4-0.3-0.6q-0.2-0.2-0.6-0.2c-1.2-0.7-2.8-0.4-4 0.4-0.3 0.3-0.7 0.6-0.9 0.9-0.2 0.4-0.1 0.8-0.1 1.2 0 0.5-0.1 1-0.2 1.5-0.1 0.3-0.1 0.7 0.3 0.9 0.2 0.2 0.5 0.3 0.8 0.3 0.5 0.1 0.6 0.4 0.8 0.8 0.4 0.8 1.4 0.6 2.1 0.5 0.8 0 1.7 0 2.3-0.6 0.3-0.2 0.5-0.5 0.7-0.9 0.3-0.4 0.2-0.7 0.2-1.1-0.1-0.6 0.1-1.1 0-1.6z"/><path class="d" d="m143 57.8c-0.2 0.3-0.3 0.7-0.4 1-1.1-0.2-2.1-0.7-3.2-1.1q-0.5-0.1-1-0.2 0 0 0 0-0.6-0.1-1.3 0.1c-0.6 0.1-1.2 0.5-1.7 0.9q-0.3-0.3-0.5-0.6c-0.4-0.8-0.1-1.7 0.4-2.4 0.8-1.5 2.4-2.7 4.2-2.2q0.5 0 1.1 0c0.4 0 0.8 0 1 0.3 0.4 0.3 0.6 0.9 0.8 1.3 0.3 0.5 0.7 1 0.8 1.6 0.1 0.4-0.1 0.9-0.2 1.3z"/><path class="d" d="m127.6 68.4q-0.1 0.1-0.2 0.2c-1.7 1.7-3.9 2.9-6.2 3.6q-0.2-0.2-0.5-0.4c-0.5 0.4-1.3 0.5-1.9 0.3-0.9-0.4-1.4-1.4-1.2-2.3q0.1-0.7 0.6-1.3 0.2-0.3 0.6-0.6c0.2-0.1 0.6-0.2 0.7-0.5 0.1-0.3 0-0.6 0-0.9 0.1-0.2 0.2-0.5 0.4-0.7q0.6-0.9 1.3-1.8c0.1-0.1 0.2-0.1 0.4-0.1 0.7-0.9 2.3-0.8 3.1 0 0.5 0.5 0.8 1.1 1 1.7 0.1 0.5 0.4 0.8 0.8 1.1 0.2 0.1 0.5 0.3 0.6 0.5 0.3 0.4 0.4 0.8 0.5 1.2z"/><path class="g" d="m132 38.3c-0.3-0.4-0.9-0.6-1.4-0.5-0.5 0.1-1 0.4-1.1 1-0.2 0.5 0.1 0.9 0.6 1 0.5 0.2 1.2 0.4 1.6-0.1q0.1-0.1 0.2-0.3 0.1-0.1 0.2-0.3c0.1-0.3 0-0.5-0.1-0.8z"/><path class="g" d="m125.5 51.8c-0.1 0-0.3 0-0.4 0 0-0.1-0.1-0.1-0.2-0.2-0.2-0.1-0.4-0.1-0.7 0-0.3 0.1-0.6 0.6-0.6 0.9 0.1 0.5 0.7 0.8 1 0.9q0.1 0 0.2 0.1 0.1 0 0.2 0c0.4 0 0.9-0.2 1-0.7 0.1-0.4-0.1-0.8-0.5-1z"/><path class="g" d="m115.7 44.9c-0.2-0.4-0.7-0.6-1.2-0.6-0.5 0-1 0.4-1.1 0.9-0.1 0.4 0.2 1 0.6 1.2 0.3 0.1 0.7 0.1 1-0.1q0.3 0 0.5-0.1c0.4-0.3 0.4-0.9 0.2-1.3z"/><path class="g" d="m124.5 68.7c0-0.2-0.2-0.3-0.4-0.5-0.2-0.2-0.4-0.4-0.7-0.4-0.4-0.2-1-0.2-1.2 0.3q-0.1 0.2-0.1 0.3c-0.1 0.2-0.2 0.5 0.1 0.8 0.3 0.3 0.9 0.7 1.4 0.5 0.2-0.1 0.4-0.3 0.6-0.5 0.2-0.1 0.4-0.2 0.3-0.5z"/><path class="g" d="m139.4 57.7q-0.5-0.1-1-0.2 0 0 0 0-0.1-0.1-0.1-0.2-0.1 0-0.2-0.1c-0.2-0.1-0.5-0.6-0.3-0.8 0.2-0.3 0.7-0.3 1-0.3 0.3 0 0.8 0 1 0.3 0.1 0.1 0.1 0.3 0.1 0.4 0 0.2 0.1 0.3 0.1 0.5 0 0.3-0.3 0.4-0.6 0.4z"/><path class="g" d="m145.2 43.6c-0.2-0.3-0.6-0.4-1-0.4-0.4 0-0.6 0.2-0.8 0.6-0.1 0.3-0.1 0.7 0.2 1q0 0 0 0 0.1 0.1 0.3 0.1 0 0.1 0.1 0 0.2 0.1 0.3 0 0 0.1 0 0.1c0.5 0.1 0.7-0.2 1-0.5 0.2-0.3 0.1-0.6-0.1-0.9z"/><path class="g" d="m141 28.6q0 0 0-0.1 0.1-0.1 0.1-0.2c0-0.1-0.1-0.1-0.2-0.2-0.7-0.1-1.6 0.1-1.6 0.9 0 0.7 0.8 1.1 1.4 0.8 0.3-0.1 0.6-0.5 0.7-0.8 0.1-0.3-0.1-0.4-0.4-0.4z"/><path class="g" d="m117.4 28.6c-0.4-0.3-0.9-0.2-1.3-0.1-0.3 0.1-0.6 0.3-0.8 0.6-0.3 0.3-0.2 0.6 0.2 0.8q0.1 0 0.2 0c0.2 0.2 0.5 0.2 0.7 0.2 0.2 0 0.4-0.1 0.5-0.2 0.2-0.1 0.4-0.2 0.5-0.4 0.2-0.2 0.2-0.8 0-0.9z"/><path class="d" d="m124.4 43q0.1-0.1 0.1-0.2-0.2-0.4-0.5-0.8-0.3-0.5-0.7-1-0.2-0.2-0.4-0.4c-0.3-0.4-1.1-1.2-1.6-0.6-0.5 0.5 0.5 1.4 0.8 1.8 0.5 0.6 1 1.3 1.8 1.5 0.1 0 0.7 0 0.6-0.3q0 0-0.1 0z"/><path class="d" d="m126.2 32.1c0-0.1-0.1-0.2-0.3-0.3-0.2-0.1-0.6-0.1-0.7 0q0 0 0 0c-0.4 0.2-0.5 0.5-0.7 0.9q-0.1 0.2-0.2 0.4c-0.2 0.3-0.5 1-0.4 1.3 0.1 0.4 0.6 0.4 0.8 0.2 0.4-0.1 0.8-0.8 1-1.1 0.2-0.4 0.6-0.9 0.5-1.4z"/><path class="d" d="m132.8 48.6c-0.1-0.3-0.3-0.6-0.6-0.9 0-0.1-0.3-0.2-0.5-0.2-0.3 0-0.6 0.1-0.6 0.5-0.2 0.8 0.5 2.3 1.2 2.7 0.2 0.2 0.5 0.1 0.7 0q0.1-0.1 0.1-0.3c0.3-0.4-0.1-1.5-0.3-1.8z"/><path class="d" d="m141.1 34.4c-0.2-0.5-1-0.3-1.2 0.2q0 0 0 0-0.2 0.5-0.4 1.1c-0.1 0.3-0.3 0.8-0.2 1.1 0.2 0.5 1 0.3 1.3 0 0.2-0.4 0.3-0.8 0.4-1.2 0.1-0.3 0.2-0.8 0.1-1.2z"/><path class="d" d="m125 25.3c0.1 0.4-0.6 0.2-0.7 0.2q-0.6-0.5-0.9-1.1-0.1-0.1-0.2-0.3 0 0 0-0.1 0.5-0.4 1.1-0.7 0 0.1 0.1 0.1 0.4 0.8 0.6 1.6 0 0 0.1 0.1c0.2 0.1 0.1 0.2-0.1 0.2z"/><path class="d" d="m116.8 36.4c-0.2-0.2-0.6-0.2-0.9 0q-0.2 0-0.2 0.2-0.3 0.6-0.4 1.3c-0.1 0.4-0.2 1-0.1 1.4 0.2 0.3 0.4 0.4 0.7 0.3 0.4 0 0.5-0.4 0.7-0.8q0.2-0.6 0.3-1.3c0.1-0.4 0.2-0.8-0.1-1.1z"/><path class="d" d="m120.3 59c-0.3-0.2-0.7-0.1-1 0.1-0.7 0.7-0.9 2-0.7 3 0 0.2 0.4 0.2 0.6 0.2 0.8-0.1 1.1-1.4 1.2-2 0.1-0.3 0.2-1-0.1-1.3z"/><path class="d" d="m127.6 59.3c-0.6 0.1-0.5 0.8-0.4 1.2 0 0.6 0 1.3 0.5 1.7 0.1 0.2 0.2 0.4 0.5 0.5 0.2 0.1 0.6 0.1 0.6-0.2 0.2-0.8 0.3-3.4-1.2-3.2z"/><path class="d" d="m145.6 51.4c-0.2-0.4-0.3-0.9-0.8-0.9-0.2-0.1-0.5 0-0.7 0.2q-0.1 0-0.1 0.1 0 0.1 0 0.1c-0.3 0.8 0.4 1.6 1 2q0.1 0.1 0.2 0.2c0.3 0.1 0.7 0 0.8-0.4 0.1-0.4-0.2-1-0.4-1.3z"/><path class="d" d="m148.4 40.7c-0.2 0.1-0.6 0.1-0.7-0.1-0.4-1-0.3-2 0-3q0.3 1.3 0.6 2.7 0 0.2 0.1 0.4z"/><path class="a" d="m128.3 28.8q-1 1-2.2 1.8-1.2-2.5-2-5.1-0.3-0.7-0.5-1.5c0-0.1-0.3-0.1-0.3 0.1q0.8 2.7 1.9 5.3 0.4 0.7 0.7 1.4c0.1 0.1 0.2 0.1 0.3 0q1.2-0.8 2.4-1.9c0.1-0.1-0.2-0.2-0.3-0.1z"/><path class="a" d="m137.9 25.1c0-0.1-0.3-0.1-0.3 0 0.3 1.4 0.8 2.7 0.7 4q-0.9-0.3-1.7-0.8-0.2 0-0.3 0 0 0.1 0 0.2 1 0.5 2.1 0.9c0.1 0 0.2 0 0.2-0.1 0.1-1.4-0.4-2.8-0.7-4.2z"/><path class="a" d="m137.4 40.7q0-0.1 0-0.2-0.1-0.1-0.2-0.2-0.1-0.1-0.2-0.1c-0.1-0.1-0.4-0.1-0.6 0-0.2 0.1-0.2 0.3-0.2 0.5q0 0.1 0 0.2 0 0.1 0.1 0.1c0.1 0.3 0.4 0.4 0.6 0.4q0.3-0.1 0.4-0.2c0.1-0.2 0.1-0.3 0.1-0.5z"/><path class="a" d="m138 49.3q0-0.1 0-0.2-0.1-0.2-0.2-0.2 0-0.1-0.1-0.1c-0.2-0.1-0.5-0.1-0.7 0-0.1 0.1-0.2 0.3-0.2 0.5q0 0.1 0 0.2 0 0.1 0.1 0.1c0.1 0.2 0.4 0.4 0.6 0.3q0.3 0 0.4-0.2c0.1-0.1 0.2-0.3 0.1-0.4z"/><path class="a" d="m145 38.4q0.8-1.6 1.2-3.3c0-0.1-0.3-0.1-0.3 0q-0.4 1.6-1.1 3.1c-0.3-1.2-0.7-2.3-1.3-3.4-0.1-0.1-0.4 0-0.3 0.1 1.2 2.1 1.7 4.5 1.8 6.9 0.1 1.3 0.2 2.6 0.2 3.9q-0.1 1.9-0.1 3.9 0 2.2 0.1 4.4c0 0.2 0.3 0.2 0.3 0q-0.1-3.9 0-7.9c0-2.5 0-5.1-0.6-7.5q0-0.1 0-0.1 0.1 0 0.1-0.1z"/><path class="a" d="m120.1 42.5q-0.6 4.2-1.7 8.3-0.3 1.1-0.7 2.2c0 0.2 0.3 0.2 0.3 0.1q1.3-4.1 2-8.3 0.2-1.1 0.4-2.3c0-0.1-0.3-0.2-0.3 0z"/><path class="a" d="m120.2 38.7q-0.4-1.2-0.7-2.4-0.2-1-0.6-2.1c-0.4-1.3-1-2.5-2.1-3.3-0.6-0.4-1.2-0.6-1.9-0.6-0.1 0-0.2 0-0.2 0 0 0.1 0.1 0.1 0.2 0.1 1.2 0 2.3 0.9 2.9 1.9 0.7 1.2 1 2.6 1.4 3.9q0.3 1.3 0.7 2.5c0 0.1 0.3 0.1 0.3 0z"/><path class="a" d="m115.2 51.1c-0.6-1.8-1.8-3.4-3.4-4.5q-0.6-0.5-1.4-0.9-0.1 0-0.2 0-0.1 0.1 0 0.2c1.7 0.8 3.1 2.2 4 3.8q0.4 0.7 0.7 1.4c0 0.1 0.3 0.1 0.3 0z"/><path class="a" d="m148.8 42.8c0-0.2-0.2-0.2-0.3-0.1-0.1 0-0.3 0.2-0.4 0.3q-0.3 0.4-0.6 0.8-0.7 0.9-1 1.9-0.2 0.5-0.2 1.1c-0.1 0.1 0.2 0.2 0.3 0q0.1-1.1 0.7-2.2 0.2-0.5 0.6-1 0.2-0.2 0.4-0.4 0.1-0.1 0.2-0.2 0-0.1 0.1-0.1 0 0 0 0c0.1 0 0.2-0.1 0.2-0.1z"/><path class="h" d="m135.1 19.9q-0.1 2.2-0.1 4.4c0 0.3 0 0.6-0.1 0.9-0.6 1.5-2.7 1.4-4 1.2-1.2-0.2-2.5-0.4-3.6-0.9-0.6-0.3-1.1-0.7-1.3-1.3-0.1-0.4 0-0.9 0.1-1.3 0.2-0.9 0.1-1.7 0-2.6q0-0.2 0-0.5 0-1 0-2 0-0.3 0-0.5c0.1-0.8 0-2.2 0.6-2.9q0 0 0 0c0.6-0.6 2-0.4 2.8-0.4q2 0 3.9 0.2c0.5 0 1 0.1 1.3 0.5 0.4 0.3 0.4 1 0.4 1.5 0 0.6 0 1.1 0.1 1.6 0 0.7-0.1 1.4-0.1 2.1z"/><path class="i" d="m134.2 18.2q0 0.2-0.1 0.5c-0.4 1.2-1.1 2-2.3 2.5-1 0.4-2.2 0.5-3.3 0.2-0.6-0.2-1.2-0.5-1.6-1-0.5-0.6-0.5-1.3-0.5-2 0-0.3 0-0.6 0.1-0.9 0.4-1.8 3.1-1.7 4.5-1.4 0.8 0.2 1.7 0.4 2.4 0.9 0.6 0.3 0.9 0.6 0.8 1.2z"/><path class="h" d="m127.2 2.5q0.8-0.5 1.6-0.8c0.6-0.3 1.5-0.4 2.2-0.4 0.6 0 1.3 0.5 1.8 0.9 1.2 0.9 2.2 2.2 2.8 3.5 1.7 3.8 1.5 8.8-0.8 12.1-0.7 1.1-2 2-3.1 2.5-1.7 0.8-3.5 0.7-5-0.4-2.7-2-2.8-5.9-3.3-8.9 0-0.5-0.1-1-0.1-1.6 0-1.5 0.5-3.1 1.4-4.3 0.6-0.9 1.5-1.9 2.5-2.6z"/><path class="b" d="m136.1 12.2c-0.2-0.4-0.5-0.8-0.7-1.1q-0.5-1.1-1-2.3c-0.3-0.6-0.7-1.1-1.1-1.7q-0.7-1-1.5-2c-0.5-0.7-0.7-1.3-1.1-2.1-0.3 2.1-1.6 4-3.5 5-0.6 0.3-1.3 0.5-1.8 0.9-0.8 0.6-1.2 1.5-1.7 2.4-0.5 0.8-1.3 1.6-2.2 1.6q-0.2 0-0.3 0c-0.1-0.1-0.1-0.4 0-0.6q0.4-0.9 0.8-1.8c0.3-0.6 0.5-1.3 0.7-1.9 0.7-1.8 1.8-3.4 3-4.9 0.5-0.6 0.9-1.1 1.5-1.6 0.7-0.5 1.6-0.9 2.4-1 1.1-0.1 2.1 0.5 3.1 0.3 0.2 0 0.4 0 0.7 0 0.5 0 0.8 0.5 1.1 0.9 1 1 1.6 2.3 2.2 3.6 1 2.2 2.1 4.6 2.2 7.1 0 0.4-0.3 4.2-0.9 4.2-0.4 0-0.6-2.1-0.6-2.4-0.1-0.5-0.4-0.9-0.6-1.4-0.1-0.4-0.4-0.7-0.6-1q-0.1-0.1-0.1-0.2z"/><path class="h" d="m137.6 11.7q0.1 0.3 0.1 0.6c0.2 0.9-0.3 1.8-0.9 2.5-0.4 0.5-0.8 1-1.4 1-0.2 0-0.5 0-0.6-0.3-0.6-1 0.3-3.7 1.3-4.1 0.3-0.1 0.5-0.1 0.8 0 0.2 0 0.4 0 0.5 0.2q0.1 0 0.2 0.1z"/><path class="h" d="m125.5 15.5q0.1-0.2 0.2-0.5c0.1-0.9-0.4-1.8-0.9-2.5-0.4-0.5-0.9-1-1.4-1-0.3-0.1-0.5 0-0.7 0.2-0.6 1.1 0.3 3.7 1.4 4.1 0.2 0.1 0.5 0.1 0.7 0.1 0.2 0 0.4-0.1 0.6-0.2q0-0.1 0.1-0.2z"/><path class="i" d="m129.1 10.5q0 0 0.1 0c0.2 0.1 0.1 0.8 0.1 1q0 0.6-0.2 1.2c-0.2 0.5-0.4 0.9-0.6 1.4-0.2 0.6 0.5 0.9 0.9 1.1 0.2 0.1 0 0.2-0.1 0.2-0.4-0.2-0.9-0.4-1.1-0.8-0.1-0.2-0.1-0.4 0-0.7q0.2-0.4 0.4-0.8 0.2-0.6 0.3-1.2 0.1-0.3 0.1-0.7c0-0.1-0.1-0.4 0-0.6q0.1-0.1 0.1-0.1z"/><path class="a" d="m124.5 10.3q0 0-0.1 0c0 0.1-0.1 0.1-0.1 0.1q0 0 0-0.1c0.1-0.2 0.2-0.4 0.4-0.5 0.3-0.3 0.6-0.5 1.1-0.6q0.7-0.2 1.5-0.1c0.3 0 0.9 0 0.7 0.5-0.1 0.2-0.2 0.2-0.4 0.2q-0.3 0.1-0.6 0c-0.3-0.1-0.5-0.2-0.8-0.2q-0.5 0-0.9 0.2-0.3 0.1-0.6 0.3-0.1 0.1-0.2 0.2z"/><path class="a" d="m135.2 10.3c-0.1-0.4-0.8-0.8-1.2-1-0.7-0.4-1.6-0.5-2.5-0.4-0.3 0.1-0.7 0.4-0.3 0.7q0.2 0.1 0.4 0.1 0.5 0.1 1 0c0.4 0 0.8-0.1 1.3 0 0.2 0 0.5 0.2 0.7 0.3 0.1 0.1 0.4 0.4 0.6 0.3z"/><path class="j" d="m131.5 16.4q0-0.1-0.2-0.2c-0.4-0.2-0.8-0.1-1.2 0-0.5 0-1 0-1.4 0-0.3 0-0.6 0-0.7 0.2 0 0.2 0.2 0.4 0.4 0.5 0.3 0.2 0.7 0.4 1.1 0.4q0.1 0 0.2 0 0.2 0 0.3 0c0.4 0 0.8-0.2 1.1-0.4 0.2-0.1 0.4-0.3 0.4-0.5z"/><path class="a" d="m126.6 11.2q0.2 0 0.4 0.1 0 0.1 0.1 0.1 0.1 0.1 0.1 0.3 0 0 0 0.1 0.1 0.2 0 0.4 0 0.1 0 0.2c-0.1 0.1-0.2 0.2-0.4 0.2-0.1 0.1-0.3 0.1-0.4 0-0.2-0.2-0.2-0.6-0.2-0.8 0-0.2 0.1-0.5 0.4-0.6z"/><path class="a" d="m132.7 11.1q0.2 0 0.3 0.1 0.1 0 0.1 0.1 0.1 0.1 0.1 0.2 0 0.1 0 0.1 0 0.2 0 0.5 0 0.1-0.1 0.2c0 0.1-0.2 0.2-0.3 0.2-0.2 0-0.4 0-0.5-0.1-0.1-0.2-0.1-0.5-0.1-0.8 0-0.2 0.1-0.5 0.5-0.5z"/><path class="b" d="m134.7 19.9q-0.1 0.6-0.1 1.3c0.1 0.8 0.3 1.6 0.3 2.4 0 0.9-0.1 1.9 0.2 2.8 0.2 0.7 0.7 1.4 1.3 1.9 0.2 0.1 0.4 0.3 0.7 0.3 0.5 0.2 1.1-0.2 1.6-0.1 0.7 0.1 1.2 0.4 1.8 0.1 0.6-0.3 0.8-0.9 1-1.5 0.5-1.4 0.9-3 0.5-4.5-0.3-1.1-1.1-1.8-1.6-2.7-0.5-0.9-0.9-1.8-1.7-2.4-0.7-0.5-1.7-0.9-2.6-0.7-0.3 0-0.5 0.1-0.7 0.3-0.2 0.2-0.3 0.4-0.3 0.7-0.2 0.7-0.4 1.4-0.4 2.1z"/><path class="a" d="m137.7 26.6c-0.8 0-1.3-0.6-1.6-1.3-0.3-0.8-0.2-1.7-0.1-2.6 0-0.5 0-1-0.1-1.6 0-0.1-0.3-0.1-0.3 0 0.2 1 0 2 0 3 0 0.8 0.2 1.7 0.9 2.3 0.3 0.2 0.8 0.4 1.2 0.4 0 0 0.1 0 0.1-0.1 0-0.1-0.1-0.1-0.1-0.1z"/><path class="a" d="m139.3 25.1c-0.7-0.2-1.3-0.7-1.4-1.4-0.1-0.1-0.4-0.1-0.3 0 0.2 0.8 0.8 1.4 1.6 1.6 0 0 0.1 0 0.2-0.1 0 0 0-0.1-0.1-0.1z"/><path class="a" d="m140.4 13.8c-0.1-0.1-0.4-0.1-0.4 0 0.3 1 0.3 2.1 0 3.1-0.1 0.2 0.2 0.2 0.3 0.1 0.3-1.1 0.3-2.2 0.1-3.2z"/><path class="a" d="m129.2 3.3c-0.4 1.1-1 2.1-1.8 3q-0.7 0.7-1.6 1c-0.5 0.3-1.2 0.3-1.7 0.7-0.5 0.4-0.8 0.9-1.2 1.4 0 0.1 0.3 0.2 0.3 0.1 0.3-0.5 0.6-1 1.1-1.4 0.5-0.3 1.2-0.4 1.7-0.6 1.1-0.5 2-1.4 2.6-2.4q0.5-0.9 0.9-1.8c0.1-0.1-0.2-0.1-0.3 0z"/><path class="a" d="m124.7 5.3c-0.1 0-0.2 0-0.3 0q-1 0.7-1.7 1.7c-0.1 0.1 0 0.1 0.1 0.1 0 0 0.1 0 0.1 0q0.7-1 1.8-1.7 0 0 0-0.1z"/><path class="a" d="m120.8 23c-0.6-0.5-0.9-1.3-0.9-2-0.1-0.9 0.2-1.8 0.6-2.6 0.1-0.1-0.2-0.1-0.3 0-0.4 0.8-0.7 1.7-0.6 2.6 0.1 0.8 0.4 1.6 1 2.1q0.1 0 0.2 0c0 0 0.1-0.1 0-0.1z"/><path class="a" d="m123.5 21.2c-0.5-0.4-0.8-1-1-1.7 0-0.1-0.3-0.1-0.3 0 0.2 0.7 0.5 1.3 1.1 1.8q0.1 0 0.2 0c0 0 0.1-0.1 0-0.1z"/><path class="a" d="m90.4 173h-3.1v-49.4h3.1z"/><path class="a" d="m92.8 174.2h-7.9v-42.1h7.9z"/><path class="a" d="m114.1 175h-50.5v-4h50.5z"/><path class="a" d="m70.9 147.4c-0.3 0-0.6-0.1-0.8-0.4-0.4-0.5-0.2-1.1 0.2-1.5l16.7-11c0.5-0.3 1.1-0.2 1.4 0.3 0.3 0.5 0.2 1.1-0.3 1.4l-16.6 11q-0.3 0.2-0.6 0.2z"/><path class="b" d="m91.6 134c0-0.3-0.8-0.3-0.8 0v35.9c0 0.3 0.8 0.3 0.8 0z"/><path class="b" d="m124.6 86.9c-1.3-0.8-3.1-0.7-4.4 0.2v-9.7c0-5.1-4-9.2-9.1-9.2h-44.4c-5.1 0-9.2 4.1-9.2 9.2v9.7c-1.2-0.9-3.1-1-4.4-0.2-2.1 1.3-1.6 3.8-1.5 5.8q0 0.2 0.1 0.4c0.2 2.8 0.6 5.5 1.2 8.2 1.1 4.8 2.8 9.4 4.6 14q0.5 1.2 1 2.4 0.1 0.1 0.2 0.3h-0.1v4.2 0.9c0 1.3 1.1 2.4 2.4 2.4h55.7c1.3 0 2.3-1.1 2.3-2.4v-0.8-4.3h0.1q0.1-0.2 0.1-0.3 0.5-1.2 1-2.4c1.9-4.6 3.6-9.2 4.6-14 0.7-2.7 1.1-5.4 1.3-8.2q0-0.2 0-0.4c0.2-2 0.7-4.5-1.5-5.8z"/><path class="a" d="m66.9 104.2c-1.9-2.4-3.2-5.3-4.3-8.2-1.2-2.8-2.4-5.7-4.4-8-0.4-0.6-0.8-0.8-1.1-0.8l-0.1-0.4c0.7-0.1 1.2 0.5 1.6 0.9 1.9 2.4 3.2 5.3 4.3 8.2 1.2 2.8 2.4 5.7 4.3 8z"/><path class="a" d="m110.9 104.2l-0.4-0.3c2-2.3 3.2-5.2 4.3-8 1.2-2.9 2.4-5.8 4.4-8.2 0.4-0.4 0.9-1 1.6-0.9l-0.1 0.4c-0.3 0-0.7 0.2-1.2 0.8-1.9 2.3-3.1 5.2-4.3 8-1.2 2.9-2.4 5.8-4.3 8.2z"/><path fill-rule="evenodd" class="a" d="m113.5 118.2h-49.2v-0.1c-1-1.2-1.4-3.1-1.6-4.4q-0.3-1.7-0.2-3.1c-0.1-2.3 0.6-4.2 1.8-5.4q2-1.9 5.8-1.4c2.5 0.4 4.9 1.3 7.3 2.3 1.2 0.5 2.5 1 3.7 1.4h0.1q0 0 0 0c5 1.6 10.3 1.6 15.4 0q0 0 0 0c1.3-0.4 2.6-0.9 3.8-1.4 2.4-1 4.8-1.9 7.3-2.3q3.8-0.5 5.8 1.4c1.2 1.2 1.9 3.1 1.8 5.4q0 1.4-0.2 3.1c-0.2 1.3-0.6 3.2-1.6 4.4zm-48.9-0.4h48.7c0.9-1.2 1.2-2.9 1.4-4.1q0.3-1.7 0.2-3v-0.1c0.1-2.1-0.5-4-1.7-5.1q-1.8-1.8-5.4-1.3c-2.5 0.4-4.9 1.3-7.2 2.3-1.2 0.5-2.5 1-3.8 1.4q0 0 0 0 0 0 0 0c-5.1 1.6-10.6 1.6-15.7 0q0 0 0 0 0 0 0 0c-1.3-0.4-2.6-0.9-3.8-1.4-2.4-1-4.8-1.9-7.2-2.3q-3.6-0.5-5.4 1.3c-1.2 1.1-1.8 3-1.7 5.1v0.1q-0.1 1.3 0.2 3c0.2 1.2 0.5 2.9 1.4 4.1z"/></svg>