<svg version="1.2" xmlns="http://www.w3.org/2000/svg" viewBox="0 0 133 217" width="133" height="217"><style>.a{fill:#a6a6a6}.b{fill:#773636}.c{fill:#1e1e1e}.d{fill:#cfcfcf}.e{fill:#662525}.f{fill:#fff}.g{fill:#ffab95}.h{fill:#ffc3b1}.i{fill:#562222}.j{fill:#f2bd3d}.k{fill:#808080}.l{fill:#b5b5b5}.m{fill:#232323}.n{fill:#474747}.o{fill:#303030}.p{fill:#707070}.q{fill:#3a3a3a}.r{fill:#045997}.s{fill:#0086d9}.t{fill:#2a78b5}.u{fill:#db9812}</style><path class="a" d="m95.5 25.2c0 0-5.8-0.3-10.3 10.3-4.6 10.6-5.6 21.1-5.6 21.1 0 0-13 4.7-16.8 7.6 2.4 2.7 2.7 9.2 2.7 9.2 0 0 11.2-0.9 16.7-3.2 4.4-1.7 8.9-5.1 8.9-5.1l5.9-37.8z"/><path class="b" d="m82.7 165.3c0 0-2.1 2.3-5 5.1-2.6 2.5-3.4 3.2-5.8 5.6-1.4 1.4-0.2 2.7 2.5 2.5 2.3 0 7.7-1.2 10.7-2.3 2.1-0.7 6-2.9 8-4.2 2-1.2 2.4-3 2.4-3v-4.2z"/><path class="b" d="m116.2 170.6c0 0-0.5 4.4-0.8 9.8-0.3 5.5 0.5 10.3 2.2 10.9 1.6 0.6 6.4 0.5 9.1-7.1 2.7-7.5 1.1-14.9 1.1-14.9z"/><path class="c" d="m121.6 95.9c1-15.6-7.6-23.8-7.6-23.8 0.7-5.2-23.6 2.1-23.6 2.1 0 0-5.2 28.2-7.4 43.1-2.5 16.8-1.4 47-1.4 47 0 0 0.3 3.6 6.6 3.6 4.8 0 8.8-3.9 8.8-3.9l0.5-35.2 5.6-27.8c0 0 0.9 25.9 4.5 33.4 6.4 13.7 6.4 37.7 6.4 37.7 0 0 8.2 3 13.8 0.2 5.6-2.8 4.5-6 4.5-6 0 0-1.4-18.6-8.6-34.8-0.6-12.3-2.5-28.5-2.1-35.6z"/><path class="d" d="m95.9 26.8c0 0-8.4 6.8-9.4 16.4-0.5 4.8 0.9 20.8 1 31.3 0 5.9-2.3 22.4-2.3 22.4 0 0 2.9 2.1 7.7 4.3 0-4.2 1.5-10.8 1.5-10.8 0 0 0.5 7.4 0.5 11.5 2.5 0.7 5.4 1.3 8.6 1.2 7.8 0 19.4-5.3 19.4-5.3 0 0-4.3-20.5-3.4-27.7 1.4-10.6 3.5-27.9 3.1-30.7-0.6-4.7-11.3-9.8-11.3-9.8 0 0-7.6-5.9-15.4-2.8z"/><path class="b" d="m89.4 38.6c-2.6 8.5-3.3 12-3.3 19.7-0.1 6.9-1 16.2-1.4 21.3-0.8 10-3.4 34.7-3.4 34.7 0 0 5.3 15.2 24.2 12.1 19-3.2 19.4-7.1 19.4-7.1 0 0-0.8-34.4-2-39.1-1.3-4.6-2.5-16.9-2.5-16.9 0 0-7.6-0.5-9.7-2.3-3.9-3.3-3.9-14.6-3.9-14.6 0 0-13.4-4.3-17.4-7.8z"/><path class="e" d="m84.7 79.6c0 0-2.9 13.3 0.5 20.8 3.1 6.8 9.4 9.7 16.5 6.2 7.1-3.4 9-21 9-21 0 0-3.4 1.4-10.6 0.6-6-0.7-13-4.2-15.4-6.6z"/><path class="f" d="m84.7 79.2l-0.4 2.5c0 0 6.1 5.2 12.3 6.3 6.1 1.2 13.8 0 13.8 0l0.2-2c0 0-9.1 1.2-16-1.1-7-2.3-9.9-5.7-9.9-5.7z"/><path class="e" d="m114.1 31.1c0 0-6.2 4.4-10.1 9.8-1.9 2.5-2.7 6-2 7.9 0.3 0.8 0.8 1 1.7 0.9 1.8-0.1 0.8-4.1 5.4-9.5 4.5-5.3 8.5-6.8 8.5-6.8z"/><path class="e" d="m101 24.3c0 0-5.1 3.9-9.1 9.3-1.9 2.6-3.7 7-3.1 9.1 0.2 0.7 1.1 1.5 1.9 0.8 1.4-1.1 0.7-4.7 5.3-10.1 4.5-5.3 8.5-6.9 8.5-6.9z"/><path class="g" d="m98.9 26.5l-0.5 7.4c0 0 0.9 1.5 3.4 3.6 2.7-0.8 8.9-6.6 8.9-6.6l-2.1-11.5z"/><path class="h" d="m109.8 6.8c-2.8-3.5-10.8-6.5-16 1.2-5.4 8.1-0.3 21.3 4.5 20.5 2.7-0.4 8.7-2.9 11.3-7.2 3-4.8 2.3-11.7 0.2-14.5z"/><path class="f" d="m98.7 29.4l0.6 6-4.8 2c0 0-0.6-6.4 4.2-8z"/><path class="f" d="m110.1 27.5c0 0-0.5 2.2-5 5.2-1.7 1.1-5.8 2.7-5.8 2.7l2.8 5.5c0 0 5.7-5.3 8.6-7.5 0 0 2.7-2.6-0.6-5.9z"/><path class="i" d="m91.8 10.7c1.1 1.8 2.8 3.9 7.2 4.1 3.7 0.2 6.6-0.9 6.6-0.9l-0.4 4.9c0 0 0.8 0 1.4-0.2 0.5-1.9 1.3-2.3 2.2-1.5 1 0.9 0.8 4.2 0.8 4.2 0 0 3.9-3.3 3.9-8.9 0-3.4-3.1-10.9-9.4-11.7-6.4-0.8-10.9 2.5-12.5 5.9-0.7 1.7-0.3 3.3 0.2 4.1z"/><path class="j" d="m90.3 40.2c-1-0.4-1.3 1.6-0.4 2 1.1 0.6 1.8-1.5 0.4-2z"/><path class="i" d="m92.6 22.7c0 0-1.5 7.3 3.1 8.6 4.6 1.3 8.4-5.9 9.8-8.9 1.4-3 1.3-4.6 1.3-4.6h-1.5c0 0-2.6 7.5-6.9 8.3-4.5 0.9-5.8-3.4-5.8-3.4z"/><path class="e" d="m95.3 53.1c-4.1-2.5-7.5 0.1-7.5 5.7 0 5.5 3.4 12 7.5 14.4 4.2 2.4 7.6-0.2 7.6-5.7 0-5.6-3.4-12-7.6-14.4z"/><path class="j" d="m103.6 46.4c-1.1-0.3-1.4 1.6-0.5 2 1.1 0.6 1.8-1.5 0.5-2z"/><path fill-rule="evenodd" class="f" d="m90 52.7l-0.2 0.4 0.2 0.6v1.4l-0.4 0.8-2.1-1.2 0.2-0.4v-1.9l-0.2-0.1 0.2-0.4v-2.1l-0.2-0.6 2.1 1.2 0.4 1.3zm-1.6-0.9l0.7 0.4 0.1-0.2v-0.5l-0.1-0.3-0.7-0.4zm0.7 2.8l0.1-0.2v-0.9l-0.1-0.3-0.7-0.4v1.4z"/><path fill-rule="evenodd" class="f" d="m92 56.3l-0.7-0.5-0.2 1-0.8-0.5 0.3-1.4-0.2-0.6 0.2 0.1 0.5-2.6-0.2-0.6 1.3 0.7 0.8 6-0.8-0.5zm-0.2-1.1l-0.2-1.7-0.2 1.4z"/><path fill-rule="evenodd" class="f" d="m96 59.6l-0.9-0.5-0.3-2.2-0.5-0.3v2l-0.9-0.5 0.2-0.4v-1.5l-0.2-0.1 0.2-0.4v-2.5l-0.2-0.6 2 1.2 0.5 1.3v1.4l-0.4 0.6 0.3 1.9zm-1-3.6l0.1-0.2v-0.9l-0.1-0.3-0.7-0.4v1.4z"/><path fill-rule="evenodd" class="f" d="m99 57.9l-0.3 0.4 0.3 0.6v1.4l-0.4 0.8-2.1-1.2 0.2-0.4v-1.9l-0.2-0.1 0.2-0.4v-2.1l-0.2-0.6 2 1.2 0.5 1.3zm-1.6-0.9l0.7 0.4 0.1-0.2v-0.5l-0.1-0.4-0.7-0.3zm0.7 2.8l0.1-0.2v-0.9l-0.1-0.3-0.7-0.4v1.4z"/><path class="f" d="m101.8 59.1l-0.7-0.5v-0.5l-0.8-0.5v1.3l0.4 0.2v1l-0.4-0.2v1.2l0.8 0.4v-0.5l0.7 0.4v1.6l-2.5-1.5 0.3-0.3v-1.8l-0.3-0.1 0.3-0.4v-2.2l-0.3-0.6 2.5 1.4z"/><path fill-rule="evenodd" class="f" d="m104.8 64.7l-0.9-0.5-0.3-2.2-0.4-0.3v2.1l-1-0.6 0.2-0.4v-1.5l-0.2-0.1 0.2-0.4v-2.4l-0.2-0.7 2.1 1.2 0.4 1.3v1.4l-0.3 0.6 0.2 1.9zm-0.9-3.6l0.1-0.2v-0.9l-0.2-0.3-0.6-0.4v1.4z"/><path class="f" d="m92.5 67.1l-0.6-0.4v-0.2l-0.1-0.3-0.5-0.3v0.9l1 1 0.2 0.5v1.1l-0.3 0.6-1.2-0.6-0.3-1.1v-0.4l0.6 0.4v0.2l0.1 0.2 0.4 0.3 0.1-0.1v-0.7l-1-1-0.2-0.6v-1.4l-0.2-0.6 1.7 1 0.3 1z"/><path class="f" d="m95 71.7l-0.8-0.5v-1.8l-0.6-0.3v1.8l-0.8-0.5 0.2-0.3v-1.5l-0.2-0.1 0.2-0.4v-1.6l-0.2-0.5 0.8 0.4v1.8l0.6 0.4v-1.8l0.8 0.4-0.2 0.4v3.6z"/><path fill-rule="evenodd" class="f" d="m97.4 69.4v2.8l-0.3 0.7-1.2-0.7-0.4-1v-3.2l-0.1-0.5 1.7 0.9 0.3 1zm-0.7-0.4l-0.6-0.3v2.6l0.1 0.2 0.5 0.3 0.1-0.2v-2.3z"/><path fill-rule="evenodd" class="f" d="m99.7 71.9l-0.3 0.6-0.9-0.5v1.7l-0.8-0.5 0.2-0.3v-1.2l-0.2-0.1 0.2-0.3v-2l-0.2-0.5 1.7 1 0.3 1zm-0.6-1.3l-0.1-0.3-0.5-0.3v1.2l0.5 0.3 0.1-0.2z"/><path class="f" d="m101 67v-2c0-0.6-0.3-1.3-0.7-1.5l-10.5-6c-0.4-0.3-0.7 0-0.7 0.6v2z"/><path class="f" d="m89.5 62.7l-0.4-0.2v-3.4l0.4 0.2z"/><path class="f" d="m90.3 63.2l-0.5-0.2v-3.5l0.5 0.3z"/><path class="f" d="m91.1 63.7l-0.4-0.2v-3.5l0.4 0.3z"/><path class="f" d="m91.9 64.1l-0.4-0.2v-3.4l0.4 0.2z"/><path class="f" d="m92.8 64.7l-0.4-0.3v-3.4l0.4 0.2z"/><path class="f" d="m93.6 65.1l-0.5-0.2v-3.4l0.5 0.2z"/><path class="f" d="m94.4 65.6l-0.4-0.2v-3.5l0.4 0.3z"/><path class="f" d="m95.2 66.1l-0.4-0.3v-3.4l0.4 0.2z"/><path class="f" d="m96.1 66.6l-0.4-0.3v-3.4l0.4 0.2z"/><path class="f" d="m96.9 67l-0.4-0.2v-3.4l0.4 0.2z"/><path class="f" d="m97.7 67.5l-0.4-0.2v-3.4l0.4 0.2z"/><path class="f" d="m98.5 68l-0.4-0.3v-3.4l0.4 0.2z"/><path class="f" d="m99.4 68.5l-0.4-0.3v-3.4l0.4 0.3z"/><path class="f" d="m100.2 68.9l-0.4-0.2v-3.4l0.4 0.2z"/><path class="f" d="m101 69.4l-0.4-0.2v-3.4l0.4 0.2z"/><path class="a" d="m33.6 124.1c0 0 0 0 0 2.8 0 3.6 5.3 1.3 7.3 0.2 2-1.2 7.3-5 7.3-8.6 0-2.9 0-2.9 0-2.9l4.6-2.6c0 0 0 3.3 0 5.7 0 3.3-2.2 7.7-10.5 12.8-0.4 0.2-1.1 0.7-1.5 0.9-8.3 4.4-11.7 0.9-11.7-2.4 0-2.5 0-3.3 0-3.3z"/><path class="k" d="m34.5 124.5c0 0 0 0 0 2.9 0 3.6 5.3 1.3 7.4 0.1 2-1.1 7.3-5 7.3-8.6 0-2.8 0-2.8 0-2.8l4.5-2.6c0 0 0 3.2 0 5.6 0 3.4-2.2 7.7-10.4 12.9-0.4 0.2-1.2 0.7-1.6 0.9-8.2 4.4-11.7 0.8-11.7-2.5 0-2.4 0-3.3 0-3.3z"/><path class="k" d="m86 202.7c0 7.6-11.6 13.8-25.9 13.8-14.3 0-26-6.2-26-13.8 0-7.6 11.7-13.8 26-13.8 14.3 0 25.9 6.2 25.9 13.8z"/><path class="k" d="m86 199.8h-51.9v3.4h51.9z"/><path class="l" d="m86 199.8c0 7.6-11.6 13.7-25.9 13.7-14.3 0-26-6.1-26-13.7 0-7.7 11.7-13.8 26-13.8 14.3 0 25.9 6.1 25.9 13.8z"/><path class="a" d="m75 198.3c0 4.4-6.7 7.9-14.9 7.9-8.3 0-14.9-3.5-14.9-7.9 0-4.4 6.6-7.9 14.9-7.9 8.2 0 14.9 3.5 14.9 7.9z"/><path class="k" d="m67.6 198.7v-40.9h-15.1v40.9z"/><path class="m" d="m59.5 109.1c0 0.2 1.5 3.7-0.3 5.7-2.1 2.3-5.9-4.3-5.9-4.3z"/><path class="m" d="m24.8 120.6c0 0-2.1 3.8 0.3 6.2 2.8 2.7 3.7-5.2 3.7-5.2z"/><path class="m" d="m58 115.8l-21.9 12.7c-2.4 1.4-6.6 1.2-9.3-0.4-2.8-1.6-3.1-4-0.7-5.3l22-12.7c2.3-1.4 6.5-1.2 9.3 0.4 2.7 1.5 3 4 0.6 5.3z"/><path class="n" d="m58 112.3l-21.9 12.7c-2.4 1.4-6.6 1.2-9.3-0.4-2.8-1.6-3.1-4-0.7-5.3l22-12.7c2.3-1.4 6.5-1.2 9.3 0.4 2.7 1.6 3 4 0.6 5.3z"/><path class="c" d="m92.9 140.9c4 2.6 6.7 0.6 6.7-4.2v-24.2c0-11.7-4.5-21.9-13.3-26.9l-8.3-4.8c-8.8-5.1-15.9-0.7-15.9 10.9v22c0 8 3.8 12.9 11.3 15.9 8.6 3.5 14.8 8.3 19.5 11.3z"/><path class="c" d="m92.2 144.8l5.2-3 1-4-5.9 3z"/><path class="c" d="m67 79.8l-4.9 2.9 6.1 4z"/><path class="o" d="m87.4 144.1c4 2.5 6.7 0.6 6.7-4.2v-24.3c0-11.6-4.6-21.8-13.3-26.9l-8.3-4.8c-8.8-5-16-0.7-16 11v21.9c0 8.1 3.8 12.9 11.3 16 8.6 3.4 14.8 8.2 19.6 11.3z"/><path class="p" d="m34.1 208.6l12-6.9c4.6-2.7 6.2-9.9 6.2-15.4v-26.7h2.2v26.7c0 6-2 14.2-7.4 17.3 0 0-7.1 4.1-9.5 5.5-1.6 0.9-3.5-0.5-3.5-0.5z"/><path class="p" d="m12 196.4l-2.6-1 12.2-7.1c4.6-2.6 6.2-9.9 6.2-15.3v-26.8h2.2v26.8c0 6-1.9 14.1-7.3 17.2z"/><path class="c" d="m84.1 67.4c-0.6-0.3-2.1-1.2-3-1.7 0 0-0.4-0.3-1-0.6-0.9-0.5-2.4-1.4-3-1.7-4.8-2.8-8.8-0.6-8.8 4.2 0 4.8 2.9 9.7 6.9 10.5 2.8 0.6 8 3.5 10.9 6.3 3.9 3.8 6.8 2.2 6.8-2.6 0-4.8-4-11.6-8.8-14.4z"/><path class="c" d="m65.5 65.8c0 0 2.3-2.7 6.1-3.4 3.1-0.6 3.9 5.6 2.4 6.3-1.5 0.8-8.5-2.9-8.5-2.9z"/><path class="c" d="m86.8 88.7l4.6-2.7c0 0-1.6-3-1.7-3-0.1-0.1-4.1 2.4-4.1 2.4z"/><path class="o" d="m79.6 70c-0.6-0.3-2.1-1.2-3-1.7 0 0-0.4-0.3-1-0.6-0.9-0.5-2.4-1.4-3-1.7-4.8-2.8-8.8-0.6-8.8 4.2 0 4.8 2.9 9.7 6.8 10.5 2.9 0.5 8.1 3.5 10.9 6.3 4 3.8 6.9 2.2 6.9-2.6 0-4.9-4-11.6-8.8-14.4z"/><path class="c" d="m52.7 170.7c-3.7-0.9-10.7-3.5-14.2-5.6-4.9-2.8-10.3-6.8-12.8-10-1.6-1.9-3.9-7 1.2-9.9l16.8-9.7c4.8-3.5 12.7-4.2 17.2-0.7 3.5 2.6 10.5 8.7 14 10.7 3.2 1.9 9.8 3.5 13 4.9 4.2 1.8 3.8 7-1.2 9.9l-16.8 9.7c-5.1 2.9-13 1.8-17.2 0.7z"/><path class="c" d="m38.5 145.5c0 0-12.6-6.4-13.6-3-1.2 4.3-1.1 7.3-1.1 7.3l14.7 0.9z"/><path class="c" d="m89.4 145.9c-2-2.9-14.3 3.4-14.3 3.4v6.1l15.7-1.2c0 0 0.8-5.3-1.4-8.3z"/><path class="q" d="m52.9 162.8c-3.6-0.9-10.4-3.4-13.8-5.3-3.1-1.8-9.9-6.7-12.4-9.7-1.5-1.9-3.7-6.8 1.2-9.6l16.2-9.4c4.7-3.3 12.3-4 16.7-0.7 3.4 2.6 10.1 8.4 13.5 10.4 3.1 1.8 9.5 3.4 12.6 4.7 4 1.8 3.7 6.8-1.2 9.6l-16.2 9.4c-4.9 2.8-12.6 1.7-16.6 0.6z"/><path class="k" d="m67.6 198.8c0 2.2-3.4 4-7.5 4-4.2 0-7.6-1.8-7.6-4 0-2.2 3.4-4 7.6-4 4.1 0 7.5 1.8 7.5 4z"/><path class="a" d="m78.6 150.6c0 0 0 0 0 2.9 0 3.6 5.4 1.3 7.4 0.1 2-1.2 7.3-5 7.3-8.6 0-2.9 0-2.9 0-2.9l4.5-2.6c0 0 0 3.3 0 5.7 0 3.4-2.2 7.7-10.4 12.8-0.4 0.3-1.2 0.8-1.5 0.9-8.3 4.5-11.8 0.9-11.8-2.4 0-2.4 0-3.3 0-3.3z"/><path class="k" d="m79.8 151c0 0 0 0 0 2.8 0 3.6 5.3 1.4 7.3 0.2 2-1.2 7.4-5 7.4-8.6 0-2.9 0-2.9 0-2.9l4.5-2.6c0 0 0 3.3 0 5.7 0 3.4-2.2 7.7-10.5 12.8-0.3 0.3-1.1 0.7-1.5 0.9-8.2 4.5-11.7 0.9-11.7-2.4 0-2.4 0-3.3 0-3.3z"/><path class="m" d="m104.5 134.6c0.1 0.1 1.5 3.7-0.3 5.7-2 2.3-5.8-4.3-5.8-4.3z"/><path class="m" d="m69.8 146.1c0 0-2.1 3.7 0.4 6.1 2.8 2.7 3.7-5.1 3.7-5.1z"/><path class="m" d="m103.1 141.3l-22 12.7c-2.3 1.3-6.5 1.2-9.3-0.4-2.7-1.6-3-4-0.6-5.4l21.9-12.7c2.4-1.3 6.6-1.2 9.3 0.4 2.8 1.6 3.1 4 0.7 5.4z"/><path class="n" d="m103.1 137.8l-22 12.7c-2.3 1.3-6.5 1.2-9.3-0.4-2.7-1.6-3-4-0.6-5.4l21.9-12.7c2.4-1.3 6.6-1.2 9.3 0.4 2.8 1.6 3.1 4 0.7 5.4z"/><path class="k" d="m76.8 165.9c0 0 8.6-3.7 8.6-9.7 5.4-1.3 7.8-4 7.8-4 0 0-1.7 13.7-16.4 13.7z"/><path class="c" d="m29.2 161.7c-2.7-0.4-3.7 1.5-3.7 1.5h0.5c0 0 5.6-1.1 3.2-1.5z"/><path class="c" d="m52.6 199.5c0.1 0 2.2 0 3.6-1.8 1.5-1.8-2.6-1.7-2.6-1.7z"/><path fill-rule="evenodd" class="c" d="m57.3 183.7v11.1c0 3.3-2 4.8-4.5 3.4l-22.2-12.8c-2.5-1.5-4.6-5.4-4.6-8.7v-11.1c0-3.3 2.1-4.8 4.6-3.4l22.2 12.8c2.5 1.5 4.5 5.4 4.5 8.7zm-6.4-3.9c0-0.9-0.5-1.9-1.2-2.2l-16.8-9.8c-0.6-0.3-1.2 0.1-1.2 0.9 0 0.9 0.6 1.9 1.2 2.2l16.8 9.7c0.7 0.4 1.2 0 1.2-0.8z"/><path fill-rule="evenodd" class="o" d="m55.8 184.4v11.1c0 3.3-2 4.9-4.5 3.4l-22.3-12.8c-2.5-1.4-4.5-5.3-4.5-8.7v-11c0-3.4 2-4.9 4.5-3.5l22.3 12.9c2.5 1.4 4.5 5.3 4.5 8.6zm-6.4-3.9c0-0.9-0.5-1.9-1.2-2.2l-16.8-9.7c-0.6-0.4-1.2 0-1.2 0.8 0 0.9 0.6 1.9 1.2 2.3l16.8 9.7c0.7 0.3 1.2-0.1 1.2-0.9z"/><path class="a" d="m34.3 214.4l-31.2-18 13.6-7.9 31.2 18z"/><path class="k" d="m47.9 206.5v2.5l-13.6 7.9v-2.5z"/><path class="l" d="m3.1 196.4v2.5l31.2 18v-2.5z"/><path class="r" d="m38.4 108.4c1.1 1.3 2.1 2.7 3.4 3.9 1.2 1.2-0.5 3.6 0.8 4.5 0.8-0.7 2.8-2.3 4.7-5 3.6-5.1 4.7-14.1 5.1-16.1 0.4-6.6 3.7-17.8 8.1-22.3 0 0-3.7-2-6.5 0.6-1.7 1.5-5.5 5.7-7.4 9.5-0.9 1.8-5.3 11.9-7.2 16.5-0.6 1.7-1.7 4-2.9 6.5 0.7 0.7 1.4 1.3 1.9 1.9z"/><path class="c" d="m7.2 194.2c-2.6 2.7-3.5 3.4-6 5.9-1.4 1.4-0.2 2.7 2.5 2.6 2.5-0.1 8-1.3 11.1-2.4 2.2-0.8 6.3-3 8.3-4.3 2.1-1.3 2.5-3.1 2.5-3.1v-4.4l-13.3 0.5c0 0-2.1 2.4-5.1 5.2z"/><path class="c" d="m30.6 208.1c-2.7 2.6-3.5 3.4-6 5.8-1.5 1.5-0.3 2.8 2.5 2.7 2.4-0.1 8-1.3 11.1-2.4 2.2-0.8 6.2-3.1 8.3-4.4 2-1.3 2.4-3.1 2.4-3.1v-7.7l-13.2 3.9c0 0-2.2 2.4-5.1 5.2z"/><path class="s" d="m77.9 131.6l-26.5-10.2c0 0-4.3 4.2-12.3 9-4.6 2.9-17.5 10.4-21.6 13.3-2.5 1.8-3.7 5.7-4.6 14.4-1.7 14.3-2.9 30.7-2.9 30.7 0 0 2.9 4 9.4 4 5 0 8.7-1.5 8.7-1.5l1-33.1 21.7-12.5c0 0-12.3 7.6-14.1 14.3-1.4 5.5-1.9 9.6-2.1 16.4-0.4 14.6-0.6 24.2-0.6 24.2 0 0 1 4.8 7.5 4.8 5 0 9.1-4.1 9.1-4.1l1.3-33.5c0 0 18.7-13.3 23.6-19 5.5-6.3 2.4-17.2 2.4-17.2z"/><path class="t" d="m57 74.9c0 0-8.4 6.8-9.4 16.4-0.5 4.8 0.8 21.2 0.8 31.8-4.1 2.8-15.7 9.6-15.7 9.6 0 0 9.4 2.8 13 9.3 3.8-1.6 6.8-4 6.8-4 0 0-0.4 1.1-2.5 5.3 2.5 0.8 11.2-1.2 19.3 2.3 8.1 3.5 13.7 1.9 13.7 1.9 0 0 1.4-6.9 0.4-13.4-0.9-5.8-3-12.3-2.6-15.7 1.4-10.7 3.5-28 3.1-30.9-0.6-4.7-11.4-9.8-11.4-9.8 0 0-7.6-5.9-15.5-2.8z"/><path class="g" d="m60 74.6l-0.5 7.4c0 0 1 1.5 3.5 3.6 2.7-0.8 8.9-6.6 8.9-6.6l-2.1-11.5z"/><path class="h" d="m71 54.8c-2.8-3.6-10.8-6.6-16.1 1.2-5.4 8.1-0.3 21.4 4.5 20.6 2.7-0.5 8.8-2.9 11.4-7.2 3-4.9 2.4-11.9 0.2-14.6z"/><path class="c" d="m52.5 60.6c1.2 1.7 3.8 3.6 8.2 2.5 3.5-0.8 6-0.9 6-0.9l-0.3 4.6c0 0 0.8 0 1.4-0.2 0.5-1.9 1.3-2.3 2.2-1.5 1 0.9 0.8 4.3 0.8 4.3 0 0 3.9-3.4 3.9-9 0-3.5-3.1-11-9.4-11.8-3.5-0.4-8 1.2-10.6 3-0.4 0.3-1.3 0.1-1.7-0.7-0.4 0.5-0.6 1.6-0.4 2.6-0.4-0.1-0.5-0.4-1.2-1-1 3.2 0 6.4 1.1 8.1z"/><path class="r" d="m38.7 101.8c0 0-3 6.3-4.6 9.1-1.7 2.8-6.2 11.9-6.2 11.9 0 0 3.2 0.1 5.1 1.3 1.9 1.2 3.1 3.2 3.1 3.2 0 0 10.6-14.3 11.4-16.2 0.9-2-8.8-9.3-8.8-9.3z"/><path class="r" d="m88.8 110.9c1.7-11.4 1.6-21.3-4.7-25.4-4.5-3-7.1 9.1-8.4 18.2-0.3 2.1-2.3 12.1-2.8 14.5-3 0.7-19.5 11.4-21.5 13.4 0.5 1 3.6 3.1 4.7 9.3 6.8-1.5 18.3-7.4 25.5-11.1 5.3-2.7 6.5-13.5 7.2-18.9z"/><path class="j" d="m101.5 139.9c0 0-6.5-31.3-7.4-34.3-3.3-10.9-3.1-13.1-5.7-17-3.9-5.7-17.2-13.7-17.2-13.7 0 0-0.6 3.8-4.6 5.3-6.9 2.5-6.7-3.7-6.7-3.7 0 0-1.4 0.4-2.2-0.2-1.6-1.3-3-3.3-3-3.3 0 0-6.8 1.3-10.3 10-2.9 7.4-9.5 24.7-19.9 36.3-4.9 5.5-11.3 17.5-13.3 25.9-1.2 5.4-2.3 10.5-3.3 18.8 13.3 14.3 45.2 22 66 10.5 0.2-5.1 0.9-9 1.6-13.5 3.2 1.6 10.5 1.4 17.4-3.5 0.5-7.7 0-5.2 0-9.6 0 0-0.7-7.2-0.7-13.9 0-9-1.4-31.2-1.4-31.2 2.9 6 7.6 32.7 7.8 42 1.4-1.3 2.2-2.9 2.9-4.9z"/><path class="u" d="m92.2 134c0 6.7 0.7 13.9 0.7 13.9 2.6-0.9 4.4-1.9 5.7-3.1-0.2-9.3-4.9-36-7.8-42 0 0 1.4 22.2 1.4 31.2z"/><path class="u" d="m78.7 96c0 0-4 17.5-11.1 24.8-4.5 4.7-18.7 12.3-18.7 12.3 0 0 14.3-0.3 24-8.9 9.6-8.7 5.8-28.2 5.8-28.2z"/><path class="u" d="m51 81.3c0 0-5.3 14.3-5.8 26-0.5 11.7 8.5 14.1 8.5 14.1 0 0-3.3-6.1-3.3-17.9 0-8.8 0.6-22.2 0.6-22.2z"/><path class="u" d="m86 113.5c0 0-4.5 18.6-6.5 27.1-2.1 8.6-4.4 22.8-4.4 22.8 0 0 3.1 0.6 6.6-0.2 2.2-0.6 6.8-3.1 6.8-3.1 0 0-0.7-16.7-1.4-23-1.1-11.2-1.1-23.6-1.1-23.6z"/><path class="u" d="m17.5 146.1c0 0 0.7 12.3 11.7 15.6 11 3.3 20.2-5.3 20.2-5.3 0 0-11.2 1.8-19.4-1-8.2-2.7-12.5-9.3-12.5-9.3z"/><path class="u" d="m71.2 144.7c0 0-8.5 13.5-17.4 19.3-7.2 4.6-17.4 4.9-17.4 4.9 0 0 14 4.8 23.1-3 9.2-7.9 11.7-21.2 11.7-21.2z"/><path class="f" d="m57.4 76.1c0 0-0.6 6.3 4.9 6.9 5.8 0.5 11.5-6.5 11.5-6.5l-2.6-1.6c0 0-6.6 6.7-9.1 5.6-2.6-1.2-2.2-4-2.2-4 0 0-0.9 0.2-1.2 0.2-0.3-0.1-1.3-0.6-1.3-0.6z"/><path class="h" d="m112.2 71.3c0 0-19.2 9.6-22.5 10.5-0.8 0.2-3.5 1.5-5.1 1.5-1.3 0-2.2 0.6-1.5 1.4 0.7 0.7 3.6 0.1 4 0.5 0.7 0.6-3.3 3.1-4.8 5.1-1.5 2-1.9 4.9 2.9 3.5 4.7-1.3 5.8-3.3 8.3-5.6 0.8-0.7 4.2-2.3 7.7-3.9 6.3-2.9 15.1-4 15.1-4z"/><path class="a" d="m128.4 50c-2.2-9.1-3.3-14.1-8.2-14.5-2.2 1.4-4 8.2-4 15.4 0 6.7-1.5 16.6-1.5 16.6 0 0-2.1 2.5-4.6 3.9 4.5 2.8 4.5 4.5 4.2 9.6 3.9-0.5 9.8-2.5 10.6-5.5 1.2-4.2 5.2-18.2 3.5-25.5z"/><path class="d" d="m113.1 69.1c0 0-2.5-2-3.1 0.1-0.7 2-1.7 0.1-2.3 1.1-0.5 0.9 0.2 3.1 0.2 3.1 0 0 2.4-0.7 3.8 3.1 1.2 3.1 0 4.6 0 4.6 0 0 3.5 1.2 4.6 0.2 0.5-0.5 0.4-0.8 0.7-1.5 0.4-0.2 1.4-0.7 1.2-2.1-0.5-2.2-2.5-6.1-5.1-8.6z"/></svg>