<svg version="1.2" xmlns="http://www.w3.org/2000/svg" viewBox="0 0 133 214" width="133" height="214"><style>.a{fill:#a6a6a6}.b{fill:#773636}.c{fill:#1e1e1e}.d{fill:#cfcfcf}.e{fill:#662525}.f{fill:#fff}.g{fill:#ffab95}.h{fill:#ffc3b1}.i{fill:#562222}.j{fill:#f2bd3d}.k{fill:#808080}.l{fill:#b5b5b5}.m{fill:#232323}.n{fill:#474747}.o{fill:#3a3a3a}.p{fill:#707070}.q{fill:#303030}.r{fill:#0086d9}.s{fill:#db9812}</style><path class="a" d="m77.2 25.3c0 0 5.8-0.3 10.3 10.3 4.6 10.6 5.6 21.1 5.6 21.1 0 0 13.4 4.9 17.2 7.8-2.4 2.7-2.5 8.1-2.5 8.1 0 0-11.8 0-17.3-2.3-4.4-1.7-8.9-5.1-8.9-5.1l-5.9-37.8z"/><path class="b" d="m90 165.4c0 0 2.1 2.3 5 5.1 2.6 2.5 3.4 3.2 5.8 5.6 1.4 1.4 0.2 2.6-2.5 2.5-2.3 0-7.7-1.2-10.7-2.3-2.1-0.7-6-2.9-8-4.2-2-1.2-2.4-3-2.4-3v-4.2z"/><path class="b" d="m56.5 170.7c0 0 0.5 4.3 0.8 9.8 0.3 5.5-0.5 10.3-2.2 10.9-1.6 0.6-6.4 0.5-9.1-7.1-2.7-7.5-1.1-14.9-1.1-14.9z"/><path class="c" d="m51.1 96c-1-15.6 7.6-23.8 7.6-23.8-0.7-5.2 23.6 2.1 23.6 2.1 0 0 5.2 28.2 7.4 43 2.5 16.9 1.4 47 1.4 47 0 0-0.3 3.7-6.6 3.7-4.8 0-8.8-4-8.8-4l-0.5-35.1-5.6-27.8c0 0-0.9 25.9-4.5 33.4-6.4 13.7-6.4 37.7-6.4 37.7 0 0-8.2 2.9-13.8 0.2-5.6-2.8-4.5-6-4.5-6 0 0 1.4-18.6 8.6-34.8 0.6-12.3 2.5-28.5 2.1-35.6z"/><path class="d" d="m76.8 26.9c0 0 8.4 6.8 9.4 16.4 0.5 4.7-0.9 20.8-1 31.3 0 5.9 2.3 22.4 2.3 22.4 0 0-2.9 2.1-7.7 4.3 0-4.2-1.5-10.8-1.5-10.8 0 0-0.5 7.4-0.5 11.5-2.5 0.7-5.4 1.2-8.6 1.2-7.8 0-19.4-5.3-19.4-5.3 0 0 4.3-20.5 3.4-27.7-1.4-10.7-3.5-27.9-3.1-30.7 0.6-4.7 11.3-9.8 11.3-9.8 0 0 7.6-5.9 15.4-2.8z"/><path class="b" d="m83.3 38.7c2.6 8.5 3.3 12 3.3 19.7 0.1 6.9 1 16.2 1.4 21.2 0.8 10.1 3.4 34.8 3.4 34.8 0 0-5.3 15.2-24.2 12.1-19-3.2-19.4-7.1-19.4-7.1 0 0 0.8-34.4 2-39.1 1.3-4.6 2.5-16.9 2.5-16.9 0 0 7.6-0.5 9.7-2.3 3.9-3.3 3.9-14.6 3.9-14.6 0 0 13.4-4.3 17.4-7.8z"/><path class="e" d="m88 79.6c0 0 2.9 13.4-0.5 20.9-3.1 6.8-9.4 9.7-16.5 6.2-7.1-3.4-9-21-9-21 0 0 3.4 1.4 10.6 0.6 6-0.7 13-4.2 15.4-6.7z"/><path class="f" d="m88 79.3l0.4 2.5c0 0-6.2 5.2-12.3 6.3-6.2 1.2-13.8 0-13.8 0l-0.2-2c0 0 9.1 1.2 16-1.1 7-2.3 9.9-5.7 9.9-5.7z"/><path class="e" d="m58.6 31.2c0 0 6.2 4.4 10.1 9.8 1.9 2.5 2.7 6 2 7.9-0.3 0.7-0.9 1-1.7 0.9-1.8-0.1-0.8-4.1-5.4-9.5-4.5-5.3-8.5-6.8-8.5-6.8z"/><path class="e" d="m71.7 24.4c0 0 5.1 3.9 9.1 9.3 1.9 2.5 3.7 6.9 3.1 9-0.2 0.8-1.1 1.5-1.9 0.9-1.4-1.1-0.7-4.7-5.3-10.1-4.5-5.3-8.5-6.9-8.5-6.9z"/><path class="g" d="m73.8 26.6l0.5 7.4c0 0-0.9 1.5-3.4 3.6-2.7-0.9-8.9-6.6-8.9-6.6l2.1-11.5z"/><path class="h" d="m62.9 6.9c2.8-3.5 10.8-6.5 16 1.2 5.4 8.1 0.3 21.3-4.5 20.5-2.7-0.4-8.7-2.9-11.3-7.2-3-4.8-2.3-11.7-0.2-14.5z"/><path class="f" d="m74 29.5l-0.6 6 4.8 2c0 0 0.6-6.4-4.2-8z"/><path class="f" d="m62.6 27.6c0 0 0.5 2.2 5 5.1 1.7 1.2 5.8 2.8 5.8 2.8l-2.8 5.5c0 0-5.8-5.3-8.6-7.5 0 0-2.7-2.6 0.6-5.9z"/><path class="i" d="m80.9 10.8c-1.1 1.8-2.7 3.8-6.3 4-3.6 0.2-7.4 0.1-7.4 0.1l0.3 4c0 0-0.8 0-1.4-0.2-0.5-1.9-1.5-1.9-2.4-1.1-1.1 0.9-0.7 3.4-0.7 3.4 0 0-2.3-1.1-3.3-7.1-0.3-1.8-1-6.1 0.7-9.1 0.8-1.4 2.2-3.1 4.1-3.7 11.2-3.5 15.9 3.3 16.6 5.6 0.5 1.8 0.3 3.3-0.2 4.1z"/><path class="j" d="m82.3 40.3c1.1-0.4 1.4 1.6 0.5 2-1.1 0.5-1.8-1.5-0.5-2z"/><path class="e" d="m76.6 54.5c4.1-2.4 7.5 0.2 7.5 5.7 0 5.6-3.4 12.1-7.5 14.5-4.2 2.4-7.6-0.2-7.6-5.7 0-5.6 3.4-12.1 7.6-14.5z"/><path class="f" d="m70.7 67.8v-2c0-0.6 0.4-1.2 0.8-1.5l10.4-6c0.5-0.2 0.8 0 0.8 0.6v2z"/><path class="f" d="m82.3 63.6l0.4-0.3v-3.4l-0.4 0.3z"/><path class="f" d="m81.5 64l0.4-0.2v-3.4l-0.4 0.2z"/><path class="f" d="m80.7 64.5l0.4-0.2v-3.4l-0.4 0.2z"/><path class="f" d="m79.9 65l0.4-0.3v-3.4l-0.4 0.3z"/><path class="f" d="m79 65.5l0.4-0.3v-3.4l-0.4 0.3z"/><path class="f" d="m78.2 65.9l0.4-0.2v-3.4l-0.4 0.2z"/><path class="f" d="m77.4 66.4l0.4-0.2v-3.4l-0.4 0.2z"/><path class="f" d="m76.6 66.9l0.4-0.3v-3.4l-0.4 0.3z"/><path class="f" d="m75.7 67.4l0.4-0.2v-3.5l-0.4 0.3z"/><path class="f" d="m74.9 67.8l0.4-0.2v-3.4l-0.4 0.2z"/><path class="f" d="m74 68.3l0.5-0.2v-3.4l-0.5 0.2z"/><path class="f" d="m73.3 68.8l0.4-0.2v-3.5l-0.4 0.3z"/><path class="f" d="m72.4 69.3l0.4-0.2v-3.5l-0.4 0.3z"/><path class="f" d="m71.6 69.8l0.4-0.3v-3.4l-0.4 0.2z"/><path class="f" d="m70.7 70.2l0.5-0.2v-3.4l-0.5 0.2z"/><path class="j" d="m69.1 46.5c1.1-0.4 1.4 1.6 0.5 2-1.1 0.6-1.8-1.5-0.5-2z"/><path fill-rule="evenodd" class="f" d="m70.4 60l-0.2 0.7 0.2 0.4v1.3l-0.4 1.3-2.1 1.2 0.2-0.6v-1.9l-0.2 0.1 0.2-0.6v-2.1l-0.2-0.4 2-1.2 0.5 0.8zm-1.6 0.9l0.7-0.4 0.1-0.3v-0.5l-0.1-0.2-0.7 0.4zm0.7 2l0.1-0.3v-0.9l-0.1-0.2-0.7 0.4v1.4z"/><path fill-rule="evenodd" class="f" d="m72.4 61.2l-0.7 0.4-0.2 1.2-0.8 0.4 0.3-1.7-0.2-0.3 0.2-0.2 0.5-3.1-0.3-0.4 1.4-0.8 0.8 5-0.8 0.5zm-0.2-1l-0.2-1.4-0.2 1.7z"/><path fill-rule="evenodd" class="f" d="m76.4 60l-0.9 0.5-0.3-1.9-0.5 0.3v2l-0.9 0.6 0.2-0.6v-1.6l-0.2 0.2 0.2-0.7v-2.4l-0.2-0.4 2-1.2 0.4 0.8v1.4l-0.3 1 0.3 1.6zm-1-2.5l0.1-0.3v-0.8l-0.1-0.3-0.7 0.4v1.4z"/><path fill-rule="evenodd" class="f" d="m79.3 54.8l-0.2 0.7 0.2 0.4v1.4l-0.4 1.2-2.1 1.2 0.3-0.6v-1.9l-0.3 0.1 0.3-0.6v-2.1l-0.3-0.4 2.1-1.2 0.4 0.8zm-1.5 0.9l0.7-0.4 0.1-0.3v-0.5l-0.1-0.2-0.7 0.4zm0.7 2l0.1-0.3v-0.9l-0.1-0.2-0.7 0.4v1.4z"/><path class="f" d="m82.2 52.7l-0.7 0.4v-0.5l-0.8 0.4v1.2l0.4-0.2v1l-0.4 0.3v1.2l0.8-0.5v-0.5l0.7-0.5v1.6l-2.5 1.4 0.2-0.6v-1.7l-0.2 0.1 0.2-0.6v-2.2l-0.2-0.4 2.5-1.5z"/><path fill-rule="evenodd" class="f" d="m85.2 54.9l-0.9 0.5-0.3-1.9-0.4 0.3v2l-1 0.6 0.2-0.6v-1.6l-0.2 0.2 0.2-0.7v-2.4l-0.2-0.4 2.1-1.2 0.4 0.8v1.4l-0.3 1 0.2 1.6zm-1-2.5l0.1-0.3v-0.9l-0.1-0.2-0.6 0.4v1.4z"/><path class="f" d="m74 71.1l-0.6 0.4v-0.2l-0.1-0.2-0.5 0.3v0.9l1-0.3 0.2 0.4v1.1l-0.3 1-1.2 0.7-0.4-0.7v-0.4l0.7-0.4v0.3 0.1l0.5-0.2 0.1-0.3v-0.6l-1.1 0.2-0.2-0.4v-1.5l-0.1-0.3 1.7-0.9 0.3 0.6z"/><path class="f" d="m76.5 72.9l-0.8 0.4v-1.8l-0.6 0.4v1.8l-0.8 0.4 0.2-0.5v-1.5l-0.2 0.1 0.2-0.5v-1.7l-0.2-0.3 0.8-0.4v1.8l0.6-0.4v-1.8l0.8-0.5-0.2 0.6v3.6z"/><path fill-rule="evenodd" class="f" d="m78.9 67.9v2.8l-0.4 1-1.2 0.7-0.3-0.7v-3.2l-0.2-0.3 1.7-0.9 0.3 0.6zm-0.7 0.4l-0.5 0.3v2.6l0.1 0.1 0.5-0.2v-0.3-2.3z"/><path fill-rule="evenodd" class="f" d="m81.2 67.7l-0.4 1-0.9 0.5v1.7l-0.7 0.4 0.1-0.5v-1.2l-0.1 0.1 0.1-0.5v-2l-0.1-0.3 1.6-1 0.4 0.7zm-0.6-0.6l-0.1-0.2-0.6 0.3v1.2l0.6-0.3 0.1-0.3z"/><path class="i" d="m79 21.9c0 0-2.7 0.9-3.6 1.7-0.9 0.8-1.9 2.2-1.9 2.2 0 0 2.3 0.2 5-1.2 2.2-1.1 2.7-2.1 2.7-2.1 0 0-0.6-1.2-2.2-0.6z"/><path class="a" d="m53.7 34.9c-3 0.3-4.6 2.9-6.2 9-1.6 6.5-1.6 16.5 2.8 21.1 3.7 3.9 11.1 3.8 10.9-5.2-0.2-10-3.9-25.2-7.5-24.9z"/><path class="a" d="m53.9 121.4c0 0 0 0 0 2.8 0 3.6 5.3 1.3 7.3 0.1 2-1.1 7.4-5 7.4-8.6 0-2.8 0-2.8 0-2.8l4.5-2.6c0 0 0 3.3 0 5.7 0 3.3-2.2 7.7-10.5 12.8-0.3 0.2-1.1 0.7-1.5 0.9-8.3 4.4-11.7 0.9-11.7-2.5 0-2.4 0-3.2 0-3.2z"/><path class="k" d="m54.8 121.8c0 0 0 0 0 2.8 0 3.6 5.4 1.4 7.4 0.2 2-1.2 7.3-5 7.3-8.6 0-2.9 0-2.9 0-2.9l4.5-2.6c0 0 0 3.3 0 5.7 0 3.4-2.2 7.7-10.4 12.8-0.4 0.3-1.2 0.7-1.6 0.9-8.2 4.5-11.7 0.9-11.7-2.4 0-2.4 0-3.3 0-3.3z"/><path class="k" d="m106.3 200c0 7.6-11.6 13.8-25.9 13.8-14.3 0-25.9-6.2-25.9-13.8 0-7.6 11.6-13.8 25.9-13.8 14.3 0 25.9 6.2 25.9 13.8z"/><path class="k" d="m106.3 197h-51.8v3.5h51.8z"/><path class="l" d="m106.3 197c0 7.6-11.6 13.8-25.9 13.8-14.3 0-25.9-6.2-25.9-13.8 0-7.6 11.6-13.8 25.9-13.8 14.3 0 25.9 6.2 25.9 13.8z"/><path class="a" d="m95.3 195.6c0 4.4-6.7 7.9-14.9 7.9-8.3 0-14.9-3.5-14.9-7.9 0-4.4 6.6-7.9 14.9-7.9 8.2 0 14.9 3.5 14.9 7.9z"/><path class="k" d="m87.9 196v-40.9h-15.1v40.9z"/><path class="m" d="m79.8 106.4c0 0.2 1.5 3.7-0.3 5.7-2.1 2.3-5.9-4.3-5.9-4.3z"/><path class="m" d="m45.1 117.9c0 0-2.1 3.7 0.4 6.1 2.7 2.7 3.6-5.1 3.6-5.1z"/><path class="m" d="m78.3 113.1l-21.9 12.7c-2.4 1.4-6.6 1.2-9.3-0.4-2.8-1.6-3.1-4-0.7-5.4l22-12.6c2.3-1.4 6.5-1.2 9.3 0.3 2.7 1.6 3 4 0.6 5.4z"/><path class="n" d="m78.3 109.6l-21.9 12.7c-2.4 1.4-6.6 1.2-9.3-0.4-2.8-1.6-3.1-4-0.7-5.4l22-12.6c2.3-1.4 6.5-1.2 9.3 0.3 2.7 1.6 3 4 0.6 5.4z"/><path class="c" d="m73 168c-3.7-1-10.7-3.5-14.2-5.6-4.9-2.8-10.3-6.9-12.8-10-1.6-2-3.9-7 1.2-10l16.8-9.6c4.9-3.5 12.7-4.2 17.2-0.8 3.5 2.7 10.5 8.7 14 10.8 3.2 1.8 9.8 3.5 13 4.8 4.2 1.9 3.9 7.1-1.2 10l-16.8 9.7c-5.1 2.9-13 1.7-17.2 0.7z"/><path class="c" d="m58.8 142.8c0 0-12.6-6.4-13.6-3-1.2 4.3-1.1 7.3-1.1 7.3l14.7 0.8z"/><path class="c" d="m109.7 143.1c-2-2.8-14.3 3.5-14.3 3.5v6.1l15.7-1.2c0 0 0.8-5.4-1.4-8.4z"/><path class="o" d="m73.2 160.1c-3.6-0.9-10.3-3.4-13.8-5.4-3.1-1.7-9.9-6.6-12.4-9.7-1.5-1.8-3.7-6.7 1.2-9.6l16.2-9.3c4.7-3.4 12.3-4 16.7-0.7 3.4 2.6 10.1 8.4 13.5 10.4 3.1 1.8 9.5 3.3 12.6 4.7 4 1.7 3.7 6.7-1.2 9.6l-16.2 9.3c-4.9 2.9-12.6 1.8-16.6 0.7z"/><path class="k" d="m87.9 196.1c0 2.2-3.4 4-7.5 4-4.2 0-7.6-1.8-7.6-4 0-2.2 3.4-4.1 7.6-4.1 4.1 0 7.5 1.9 7.5 4.1z"/><path class="a" d="m98.9 147.9c0 0 0 0 0 2.8 0 3.6 5.4 1.3 7.4 0.2 2-1.2 7.3-5 7.3-8.6 0-2.9 0-2.9 0-2.9l4.5-2.6c0 0 0 3.3 0 5.7 0 3.3-2.1 7.7-10.4 12.8-0.4 0.3-1.2 0.7-1.5 0.9-8.3 4.4-11.8 0.9-11.8-2.4 0-2.5 0-3.3 0-3.3z"/><path class="k" d="m100.1 148.3c0 0 0 0 0 2.8 0 3.6 5.3 1.3 7.3 0.2 2.1-1.2 7.4-5.1 7.4-8.7 0-2.8 0-2.8 0-2.8l4.5-2.6c0 0 0 3.3 0 5.7 0 3.3-2.2 7.7-10.5 12.8-0.3 0.2-1.1 0.7-1.5 0.9-8.2 4.4-11.7 0.9-11.7-2.5 0-2.4 0-3.2 0-3.2z"/><path class="p" d="m37.9 156.3l-26 18.8 1.2 1.6 26-18.8q-0.6-0.7-1.2-1.6z"/><path class="p" d="m58.1 169.7l-25 18.1 1.2 1.6 26-18.8q-1.2-0.3-2.2-0.9z"/><path class="a" d="m31.6 193.1l-31.2-18 13.6-7.9 31.2 18z"/><path class="k" d="m45.2 185.2v2.5l-13.6 7.9v-2.5z"/><path class="l" d="m0.4 175.1v2.5l31.2 18v-2.5z"/><path fill-rule="evenodd" class="c" d="m46.3 153.1l22.3 12.8c2.5 1.4 2.1 4-0.7 5.6l-9.6 5.5c-2.9 1.7-7.3 1.9-9.8 0.5l-22.2-12.9c-2.5-1.4-2.2-3.9 0.7-5.6l9.6-5.5c2.9-1.7 7.3-1.9 9.7-0.4zm-3.3 5.4l16.9 9.7c0.6 0.4 1.7 0.3 2.4-0.1 0.8-0.4 0.9-1.1 0.2-1.4l-16.8-9.8c-0.6-0.3-1.8-0.3-2.5 0.1-0.7 0.5-0.8 1.1-0.2 1.5z"/><path class="c" d="m27.4 160.3h-2.8v2h2.8z"/><path class="c" d="m70.2 166.6h-2.7v1.9h2.7z"/><path fill-rule="evenodd" class="q" d="m46.3 151.2l22.3 12.8c2.5 1.4 2.1 4-0.7 5.6l-9.6 5.5c-2.9 1.7-7.3 1.9-9.8 0.5l-22.2-12.9c-2.5-1.4-2.2-3.9 0.7-5.6l9.6-5.5c2.9-1.7 7.3-1.9 9.7-0.4zm-3.3 5.4l16.9 9.7c0.6 0.4 1.7 0.3 2.4-0.1 0.8-0.4 0.9-1.1 0.2-1.4l-16.8-9.8c-0.6-0.3-1.8-0.3-2.5 0.1-0.7 0.5-0.8 1.1-0.2 1.5z"/><path class="d" d="m16.1 168.5c0 0-2.7 2.7-7.8 4.9-4.1 1.8-3.3 3-2.9 5.4 0.4 2.7 3.2 3.3 7.6 1.4 1.5-0.7 2.5-1.5 6.2-2.2 3.7-0.7 5.1-1.6 6.2-5 1.1-3.4-9.3-4.5-9.3-4.5z"/><path class="d" d="m28 178.1c0 0-1.8 3.7-6.7 6.1-5 2.4-6.5 4.4-2 6.3 2.6 1.1 3.5 1.7 7.5 0 1.5-0.6 2.5-1.6 5.9-3.2 3.4-1.6 5.2-3.4 5.5-7 0.3-3.5-10.2-2.2-10.2-2.2z"/><path class="r" d="m72 115.9c0 0-28.9 15.9-33.6 19.1-3.2 2.2-10.6 11.2-13.8 16.1-5.3 8.2-11.7 16.8-11.7 16.8 0 0 1.9 2.5 5.6 4.9 3.2 2.2 8.9 0.5 8.9 0.5 0 0 13.3-18.2 17.3-23.1 2-2.4 17.5-10.8 17.5-10.8 0 0-11.2 10.8-14.8 14.6-5.4 5.7-20.7 23.9-20.7 23.9 0 0 0.9 5.6 5.7 7.1 3.6 1.1 7.5 1.4 7.5 1.4 0 0 19.9-21.7 22.5-23.3 2.6-1.5 20.4-8 29.7-15.7 5.5-4.6 12.5-13.9 12.5-13.9z"/><path class="c" d="m111.7 132.9c3.9 2.5 7.7 1.2 9.1-2.8l7.3-20c3.5-9.6 1.2-18.5-7.6-23.6l-8.3-4.8c-8.7-5-18.4-2.2-22 7.5l-6.6 18.1c-2.4 6.7 0.6 11.1 8.5 14.3 9 3.8 14.9 8.3 19.6 11.3z"/><path class="c" d="m114 136l4.3-2.6-1.1-2.5-4.7 2.5z"/><path class="c" d="m92.2 83.8l4.1-2.5 2.4 1.3-6 3.9z"/><path class="q" d="m107.4 135.5c3.9 2.5 7.7 1.1 9.1-2.8l7.3-20c3.5-9.7 1.2-18.5-7.5-23.6l-8.3-4.8c-8.8-5.1-18.5-2.2-22 7.5l-6.6 18.1c-2.4 6.6 0.6 11 8.4 14.3 9.1 3.7 14.9 8.3 19.6 11.3z"/><path class="c" d="m108.2 68.5l2.9-1.5 19 20.6-2.9 1.5z"/><path class="c" d="m126.3 71.9c-0.6-0.3-2.1-1.2-3-1.7 0 0-0.4-0.3-1-0.6-0.9-0.5-2.4-1.4-3-1.7-4.8-2.8-10.1-1.4-11.6 2.6-1.4 3.9 0.5 8.3 4.9 9.3 3.2 0.8 8.3 3.8 10.9 6.3 3.5 3.6 7.4 2.5 8.8-1.5 1.4-3.9-1.2-9.9-6-12.7z"/><path class="q" d="m123.7 73.3c-0.6-0.4-2.1-1.3-3-1.8 0 0-0.4-0.2-1-0.5-0.9-0.6-2.4-1.4-3-1.8-4.8-2.8-10.1-1.4-11.6 2.6-1.4 4 0.5 8.3 4.9 9.4 3.2 0.7 8.3 3.7 10.9 6.3 3.5 3.5 7.3 2.4 8.8-1.5 1.4-4-1.2-10-6-12.7z"/><path class="m" d="m124.8 131.9c0.1 0.1 1.5 3.7-0.3 5.7-2 2.3-5.8-4.4-5.8-4.4z"/><path class="m" d="m90.1 143.3c0 0-2.1 3.8 0.4 6.2 2.8 2.7 3.7-5.2 3.7-5.2z"/><path class="m" d="m123.4 138.6l-21.9 12.6c-2.4 1.4-6.6 1.2-9.4-0.3-2.7-1.6-3-4-0.6-5.4l21.9-12.7c2.4-1.4 6.6-1.2 9.3 0.4 2.8 1.6 3.1 4 0.7 5.4z"/><path class="n" d="m123.4 135.1l-21.9 12.7c-2.4 1.3-6.6 1.2-9.4-0.4-2.7-1.6-3-4-0.6-5.4l21.9-12.7c2.4-1.4 6.6-1.2 9.3 0.4 2.8 1.6 3.1 4 0.7 5.4z"/><path class="k" d="m97.1 163.1c0 0 8.6-3.6 8.6-9.7 5.4-1.2 7.8-3.9 7.8-3.9 0 0-1.6 13.6-16.4 13.6z"/><path class="g" d="m107.7 83l-4.3 6c0 0 0 1.8 1.1 4.9 2.7 0.7 11-1 11-1l4.3-10.9z"/><path class="h" d="m127.4 71.9c-0.5-4.5-5.7-11.3-14.2-7.5-9 4.1-11.5 18.1-7 19.9 2.5 1.1 8.9 2.2 13.5-0.1 5.1-2.6 8.1-8.8 7.7-12.3z"/><path class="j" d="m105.1 86.6c0 0-2.2-0.8-5.7-2.7-3.3-1.8-6.7-1.5-9.5 0-6.7 3.5-17.9 19-19.7 21.3-5.2 6.9-16.4 11.9-26.1 18-11.5 7.3-20.3 20.8-20.3 20.8 0 0 4.3 7.8 14.3 14.7 15 10.4 28.9 15.1 39.5 18 7.8-4.2 12.3-11.5 17.7-16 10.4-8.6 11-14 13.9-24.2 7.4 0 11.7-0.7 12.8-1.5 0.4-9.3 1.2-23.2 1.2-28.6 0-6.1-7-15.1-7-15.1z"/><path class="f" d="m104.3 82c0 0-3.5 1.6-5.6 2.8-2.1 1.1-10.9 10.3-10.9 10.3 0 0 8.1 7.5 10.5 9.5 2.3 2 8.9 3.5 8.9 3.5 0 0 4.4-7.6 5.8-8.9 2.1-1.9 6.8-2.5 6.8-2.5 0.3-0.8-0.8-6.3-2.8-7.6-5.9 0-7.9-1.8-8.8-4.1-2.9-0.6-3.9-3-3.9-3z"/><path class="s" d="m117.4 102.9c0 0-3.3 13.1-4.9 20.3-1.9 9-3.3 13.3-3.3 13.3l5.8-0.2c0 0 3-11.9 4.3-18.4 2-10.6-1.9-15-1.9-15z"/><path class="s" d="m103.7 118.2c0 0-7.5 10.3-16.9 11.9-9.4 1.7-17.9 0-17.9 0 0 0 9.7 7.4 20.8 4.4 11.2-2.9 14-16.3 14-16.3z"/><path class="s" d="m40 135c0 0-3.9 13.2 6.6 20.4 10.5 7.2 18.1 4 18.1 4 0 0-12.5-2.7-16.7-9.8-4.1-7-8-14.6-8-14.6z"/><path class="s" d="m51.5 143.4c0 0 3 8.2 10.9 8.8 7.9 0.6 16.2-3.7 16.2-3.7 0 0-19.8 1.6-27.1-5.1z"/><path class="m" d="m107.6 75.8c-1 0.1-1.8 0.4-3.1-0.2-1.1-0.5-1.3-1.7-1.3-1.7 0 0-0.4 2 0.6 3.4 0.9 1.4 3.5 0.8 3.5 0.8 0 0 0.1 2.5 1.6 3.2 2.2 1.1 3.7 0 3.7 0 0 0-2.5-1.7-2.8-3.2-0.4-1.6-0.7-2.5-2.2-2.3z"/><path class="f" d="m104 78.7c0 0-0.5 3.6 1.5 5.2 1.9 1.6 7.9 1.9 9 1.6 1.7-0.5 2.5-1.8 0.1-2.8-0.9-0.4-3.6-0.1-5.4 0-1.2 0-2.8-0.4-3.7-1.1-1.3-1.2-1.5-2.9-1.5-2.9z"/><path class="g" d="m109.9 64.3c0 0 4.7-2.5 7.2-2.9 1.8-0.4 3.6 2.5 4.9 2.8 1.2 0.3 1 0.9 0 1.3-1.1 0.4-1.9 0.4-2.8-0.3-1-0.7-2.8-1.4-2.8-1.4 0 0-2.6-0.1-4.9 1.7-2.4 1.9-3.7 3.3-3.7 3.3 0 0 0-3.2 2.1-4.5z"/><path class="h" d="m78.2 60c0 0 15.6 3.7 19.1 3.5 1.7-0.1 3.3 1.2 4.2 2.8 1 1.6 1.3 3.5 0.5 4.6-1.4 2.3-4.2 3.5-5.7 4-1.5 0.4-1.2-2-3.3-4.6-1.1-0.3-4.9 1.6-8.5-1.5-1.8-1.7-8.6-3.4-8.6-3.4z"/><path class="a" d="m53.4 55.8c0 0 15.4 1.7 21.9 2.8 5.7 1 10.1 2.6 10.1 2.6l-2.6 7.1c0 0-2.2 0.6-5.9 0.8-7.3 0.3-20.7 0.7-24.7-1.8-5.9-3.7 1.2-11.5 1.2-11.5z"/><path class="d" d="m81 59.8c0 0-1.3 2.2-1.8 4.3-0.5 2.3-0.3 3.7 0 4.5h4.7c0 0-0.1-2.8 0.1-3.7 0.3-1 1.7-3.6 1.7-3.6z"/><path class="b" d="m93 69.3c0 0 6.2-8.6 8.1-11.3 1.8-2.8 3.6-2.3 2.7 0-1 2.2-4.3 7.1-5.1 8.1-0.9 1-4.7 4.5-4.7 4.5z"/><path class="d" d="m91.1 65.2c0 0 1.1 6.5 3.2 9.7 2.1 3.1 4.6 4.7 5.9 5.2 1.2 0.5 1.7 0 1.1-1-0.9-1.3-2.6-1.3-5.5-5.5-2.3-3.4-3.7-8.6-3.7-8.6z"/><path class="h" d="m98.1 74.2c0 0-1.5 1-2.6 0.8-1.2-0.1 0-1.9 0-1.9 0 0-1.2 0.5-1.6-0.4-0.3-0.6 1.1-2.1 1.1-2.1z"/><path class="d" d="m104.5 82.7c-1.6 2.5-3.5 6.7-0.2 9.6 4.8 4.3 11-0.9 11-0.9 0 0-7.7 0.3-9.5-2.3-0.9-1.2-0.3-3 0.1-4.9-1.1-0.8-1.3-1.3-1.4-1.5z"/><path class="d" d="m112.3 95.2c0 0-6 2.9-10.8 1.7-3.3-0.7-6.5-2.8-6.5-2.8 0 0 0.1 4 5.7 5.5 5.5 1.5 11.6-4.4 11.6-4.4z"/></svg>