<svg version="1.2" xmlns="http://www.w3.org/2000/svg" viewBox="0 0 184 181" width="184" height="181"><defs><linearGradient id="P" gradientUnits="userSpaceOnUse"/><linearGradient id="g1" x2="1" href="#P" gradientTransform="matrix(179.416,0,0,103.58,.672,.467)"><stop stop-color="#eeebe2"/><stop offset="1" stop-color="#e8e8de"/></linearGradient></defs><style>.a{fill:url(#g1)}.b{fill:#919191}.c{fill:#fcf9f0}.d{fill:#c0bcb3}.e{fill:#5ea9f0}.f{fill:#2a2b2b}.g{fill:#343636}.h{opacity:.2;fill:#fff}.i{fill:#fff}.j{fill:#1c1c1c}.k{fill:#363636}.l{fill:#d4d0c5}.m{fill:#d5d5cc}.n{fill:#e8e4d7}.o{opacity:.9}.p{opacity:.6}.q{opacity:.5}.r{opacity:.5;fill:#fff}</style><path class="a" d="m180.1 34.6l-120.4 69.4-59-34 120.4-69.5z"/><path class="b" d="m180.1 111l-120.4 69.5v-76.5l120.4-69.4 3.2 13.1v53.8z"/><path class="c" d="m59.7 104l120.4-69.4 3.2 13.1-110.6 63.9z"/><path class="d" d="m72.7 165.3l-13 15.2 120.4-69.5 3.2-9.5z"/><path class="e" d="m183.3 47.7l-110.6 63.9v53.7l110.6-63.8z"/><path class="f" d="m156.2 63.4l1.4-0.8v53.7l-1.4 0.8z"/><path class="g" d="m154.4 49.4l-1.4 0.8 3.2 13.2 1.4-0.8z"/><path  d="m157.6 116.3l-1.4 0.8-3.2 9.5 1.4-0.8z"/><path class="h" d="m108.1 144.9l-18.4 10.6 31.1-71.7 18.4-10.6z"/><path class="h" d="m119.8 138.1l-6.7 3.9 31.1-71.7 6.7-3.9z"/><g style="opacity:.4"><path fill-rule="evenodd" class="i" d="m161.7 96v-32.4l18-10.4v32.5zm0.5-32.1v31.1l16.8-9.7v-31.2z"/></g><g style="opacity:.4"><path fill-rule="evenodd" class="i" d="m166.3 100l-3.4 1.9c-0.6 0.4-1.1 0.1-1.1-0.6v-1c0-0.7 0.5-1.6 1.1-2l3.4-1.9c0.6-0.4 1.1-0.1 1.1 0.6v1c0 0.8-0.5 1.6-1.1 2zm-3.4-1.2c-0.4 0.2-0.8 0.8-0.8 1.3v1c0 0.4 0.4 0.6 0.8 0.4l3.4-2c0.4-0.2 0.7-0.8 0.7-1.2v-1c0-0.5-0.3-0.7-0.7-0.5z"/><path fill-rule="evenodd" class="i" d="m172.4 96.5l-3.4 1.9c-0.6 0.4-1.1 0.1-1.1-0.6v-1c0-0.8 0.5-1.6 1.1-2l3.4-1.9c0.6-0.4 1.1-0.1 1.1 0.6v1c0 0.7-0.5 1.6-1.1 2zm-3.4-1.2c-0.4 0.2-0.7 0.8-0.7 1.2v1c0 0.5 0.3 0.7 0.7 0.5l3.4-2c0.4-0.2 0.7-0.8 0.7-1.3v-1c0-0.4-0.3-0.6-0.7-0.4z"/><path fill-rule="evenodd" class="i" d="m178.5 92.9l-3.4 2c-0.6 0.4-1.1 0.1-1.1-0.7v-1c0-0.7 0.5-1.6 1.1-1.9l3.4-2c0.6-0.3 1.1 0 1.1 0.7v1c0 0.7-0.5 1.6-1.1 1.9zm-3.4-1.2c-0.4 0.3-0.7 0.8-0.7 1.3v1c0 0.5 0.3 0.7 0.7 0.4l3.4-1.9c0.4-0.2 0.7-0.8 0.7-1.3v-1c0-0.5-0.3-0.6-0.7-0.4z"/><path fill-rule="evenodd" class="i" d="m166.3 104.3l-3.4 1.9c-0.6 0.4-1.1 0.1-1.1-0.6v-1c0-0.7 0.5-1.6 1.1-2l3.4-1.9c0.6-0.4 1.1-0.1 1.1 0.6v1c0 0.7-0.5 1.6-1.1 2zm-3.4-1.2c-0.4 0.2-0.8 0.8-0.8 1.2v1.1c0 0.4 0.4 0.6 0.8 0.4l3.4-2c0.4-0.2 0.7-0.8 0.7-1.2v-1.1c0-0.4-0.3-0.6-0.7-0.4z"/><path fill-rule="evenodd" class="i" d="m172.4 100.8l-3.4 1.9c-0.6 0.4-1.1 0.1-1.1-0.6v-1.1c0-0.7 0.5-1.5 1.1-1.9l3.4-2c0.6-0.3 1.1 0 1.1 0.7v1c0 0.7-0.5 1.6-1.1 2zm-3.4-1.2c-0.4 0.2-0.7 0.8-0.7 1.2v1c0 0.5 0.3 0.7 0.7 0.5l3.4-2c0.4-0.2 0.7-0.8 0.7-1.3v-1c0-0.4-0.3-0.6-0.7-0.4z"/><path fill-rule="evenodd" class="i" d="m178.5 97.2l-3.4 2c-0.6 0.3-1.1 0.1-1.1-0.7v-1c0-0.7 0.5-1.6 1.1-1.9l3.4-2c0.6-0.3 1.1 0 1.1 0.7v1c0 0.7-0.5 1.6-1.1 1.9zm-3.4-1.2c-0.4 0.3-0.7 0.8-0.7 1.3v1c0 0.5 0.3 0.7 0.7 0.4l3.4-1.9c0.4-0.3 0.7-0.8 0.7-1.3v-1c0-0.5-0.3-0.7-0.7-0.4z"/><path fill-rule="evenodd" class="i" d="m166.3 108.6l-3.4 1.9c-0.6 0.4-1.1 0.1-1.1-0.6v-1c0-0.8 0.5-1.6 1.1-2l3.4-1.9c0.6-0.4 1.1-0.1 1.1 0.6v1c0 0.7-0.5 1.6-1.1 2zm-3.4-1.2c-0.4 0.2-0.8 0.8-0.8 1.2v1c0 0.5 0.4 0.7 0.8 0.5l3.4-2c0.4-0.2 0.7-0.8 0.7-1.3v-1c0-0.4-0.3-0.6-0.7-0.4z"/><path fill-rule="evenodd" class="i" d="m172.4 105l-3.4 2c-0.6 0.4-1.1 0.1-1.1-0.7v-1c0-0.7 0.5-1.6 1.1-1.9l3.4-2c0.6-0.3 1.1 0 1.1 0.7v1c0 0.7-0.5 1.6-1.1 1.9zm-3.4-1.2c-0.4 0.3-0.7 0.8-0.7 1.3v1c0 0.5 0.3 0.7 0.7 0.4l3.4-1.9c0.4-0.2 0.7-0.8 0.7-1.3v-1c0-0.5-0.3-0.6-0.7-0.4z"/><path fill-rule="evenodd" class="i" d="m178.5 101.5l-3.4 2c-0.6 0.3-1.1 0-1.1-0.7v-1c0-0.7 0.5-1.6 1.1-1.9l3.4-2c0.6-0.4 1.1-0.1 1.1 0.7v1c0 0.7-0.5 1.6-1.1 1.9zm-3.4-1.2c-0.4 0.2-0.7 0.8-0.7 1.3v1c0 0.5 0.3 0.7 0.7 0.4l3.4-1.9c0.4-0.3 0.7-0.8 0.7-1.3v-1c0-0.5-0.3-0.7-0.7-0.4z"/></g><path class="j" d="m158.9 117.8c0.3-1.1 1.1-2.1 2.1-2.7l18.8-10.8c0.7-0.4 1.3-0.4 1.7-0.2 0.1 0 0.4 0.2 0.4 0.2l-22.4 20.6-2.5-1.4z"/><path class="k" d="m161.2 115.4l18.9-10.9c1.4-0.8 2.5-0.2 2.5 1.4v3.7c0 1.6-1.1 3.5-2.5 4.3l-18.9 10.9c-0.6 0.4-1.2 0.4-1.7 0.1-0.4-0.2-0.7-0.8-0.7-1.5v-3.8c0-1.5 1.1-3.4 2.4-4.2z"/><path class="l" d="m161.2 116.1l18.9-10.9c1-0.5 1.8-0.1 1.8 1.1v3.7c0 1.1-0.8 2.5-1.8 3.1l-18.9 10.9c-1 0.6-1.8 0.1-1.8-1v-3.8c0-1.1 0.8-2.5 1.8-3.1z"/><path class="m" d="m0.7 70l59 34v76.5l-6.1-3.5v-1.3l-1.1 0.6-51.8-29.9z"/><path class="i" d="m170.7 77.6c0.7-0.4 1.3-0.1 1.3 0.8 0 0.8-0.6 1.8-1.3 2.3-0.8 0.4-1.3 0-1.3-0.8 0-0.9 0.5-1.9 1.3-2.3z"/><path class="i" d="m172.9 75.5c-0.2 0.3-0.5 0.6-0.8 0.5q-0.6-0.1-1.4 0.4c-0.5 0.2-1 0.7-1.5 1.3-0.2 0.3-0.6 0.5-0.8 0.4-0.3-0.2-0.2-0.8 0.1-1.2 0.6-0.9 1.4-1.6 2.2-2.1 0.8-0.4 1.5-0.6 2.2-0.4 0.3 0 0.3 0.6 0 1.1z"/><path class="i" d="m174.5 72.7c-0.2 0.4-0.6 0.6-0.8 0.5-1.8-0.6-4.3 0.9-6 3.5-0.3 0.4-0.6 0.6-0.9 0.4-0.3-0.1-0.2-0.7 0.1-1.1 2.2-3.3 5.4-5.2 7.6-4.4 0.3 0.1 0.3 0.6 0 1.1z"/><path class="i" d="m176.1 69.8c-0.2 0.4-0.6 0.7-0.9 0.6-2.6-1.1-6.4 1.2-9.1 5.2-0.2 0.4-0.6 0.6-0.8 0.5-0.3-0.2-0.3-0.7 0-1.1 3.1-4.9 7.7-7.5 10.8-6.3 0.2 0.2 0.3 0.7 0 1.1z"/><path class="n" d="m59.7 104l13 7.6v53.7l-13 15.2z"/><g style="opacity:.6"><path class="o" d="m8.6 121.6l28.9 16.7c0.4 0.2 0.7 0 0.7-0.5 0-0.5-0.3-1.1-0.7-1.3l-28.9-16.7c-0.4-0.2-0.8 0-0.8 0.5 0 0.5 0.4 1.1 0.8 1.3z"/><path class="o" d="m37.5 140.2l-28.9-16.7c-0.4-0.2-0.8 0-0.8 0.5 0 0.5 0.4 1.1 0.8 1.3l28.9 16.7c0.4 0.2 0.7 0 0.7-0.5 0-0.5-0.3-1.1-0.7-1.3z"/><path class="o" d="m37.5 143.9l-28.9-16.7c-0.4-0.2-0.8 0-0.8 0.5 0 0.5 0.4 1.1 0.8 1.3l28.9 16.7c0.4 0.3 0.7 0.1 0.7-0.4 0-0.5-0.3-1.1-0.7-1.4z"/><path class="o" d="m37.5 147.6l-28.9-16.7c-0.4-0.2-0.8 0-0.8 0.5 0 0.5 0.4 1.1 0.8 1.3l28.9 16.7c0.4 0.3 0.7 0.1 0.7-0.4 0-0.5-0.3-1.1-0.7-1.4z"/><path class="o" d="m37.5 151.3l-28.9-16.6c-0.4-0.3-0.8-0.1-0.8 0.4 0 0.5 0.4 1.1 0.8 1.4l28.9 16.6c0.4 0.3 0.7 0.1 0.7-0.4 0-0.5-0.3-1.1-0.7-1.4z"/><path class="o" d="m37.5 155l-28.9-16.6c-0.4-0.3-0.8-0.1-0.8 0.4 0 0.5 0.4 1.1 0.8 1.4l28.9 16.6c0.4 0.3 0.7 0.1 0.7-0.4 0-0.5-0.3-1.1-0.7-1.4z"/></g><path class="p" d="m53.6 100.5v75.2l-1.1 0.6v-76.4z"/><path class="q" d="m154.4 49.4l-7.2-4.1-94.7 54.6 1.1 0.6 93.3-53.8 6.1 3.5z"/><path class="r" d="m123 67.5l-2.2 16.3 18.4-10.6 2.8-16.6z"/><path class="r" d="m153.2 51l-2.3 15.4-6.7 3.9 2.7-16.6 6.1-3.5z"/></svg>