<?xml version="1.0" encoding="UTF-8" standalone="no" ?>
<!DOCTYPE svg PUBLIC "-//W3C//DTD SVG 1.1//EN" "http://www.w3.org/Graphics/SVG/1.1/DTD/svg11.dtd">
<svg xmlns="http://www.w3.org/2000/svg" xmlns:xlink="http://www.w3.org/1999/xlink" version="1.1" width="1280" height="720" viewBox="0 0 1280 720" xml:space="preserve">
<desc>Created with Fabric.js 5.2.4</desc>
<defs>
</defs>
<rect x="0" y="0" width="100%" height="100%" fill="transparent"></rect>
<g transform="matrix(1 0 0 1 640 360)" id="102dd273-9c9c-404b-8c53-b9aa4dc573d5"  >
<rect style="stroke: none; stroke-width: 1; stroke-dasharray: none; stroke-linecap: butt; stroke-dashoffset: 0; stroke-linejoin: miter; stroke-miterlimit: 4; fill: rgb(255,255,255); fill-rule: nonzero; opacity: 1; visibility: hidden;" vector-effect="non-scaling-stroke"  x="-640" y="-360" rx="0" ry="0" width="1280" height="720" />
</g>
<g transform="matrix(Infinity NaN NaN Infinity 0 0)" id="5ed83e2c-71a1-422f-9fb1-b644bd15e150"  >
</g>
<g transform="matrix(3.24 0 0 3.24 618.53 360.84)"  >
<g style="" vector-effect="non-scaling-stroke"   >
		<g transform="matrix(1 0 0 1 -90.65 55.25)"  >
<path style="stroke: none; stroke-width: 1; stroke-dasharray: none; stroke-linecap: butt; stroke-dashoffset: 0; stroke-linejoin: miter; stroke-miterlimit: 4; fill: rgb(255,160,120); fill-rule: nonzero; opacity: 1;" vector-effect="non-scaling-stroke"  transform=" translate(-54.13, -142.8)" d="M 72.7 118.6 C 72.7 118.6 85.8 121.1 78.3 129.9 C 77.2 131.3 46.5 147 43.099999999999994 152.20000000000002 C 40.599999999999994 156.10000000000002 45.599999999999994 161.20000000000002 48.599999999999994 162.10000000000002 C 53.49999999999999 163.60000000000002 54.49999999999999 162.3 55.89999999999999 164.50000000000003 C 57.29999999999999 166.60000000000002 48.69999999999999 167.30000000000004 43.49999999999999 166.90000000000003 C 42.29999999999999 166.80000000000004 36.599999999999994 163.10000000000002 34.599999999999994 162.50000000000003 C 32.699999999999996 161.80000000000004 29.099999999999994 160.20000000000002 28.099999999999994 158.40000000000003 C 27.399999999999995 157.30000000000004 27.199999999999996 154.90000000000003 29.699999999999996 153.00000000000003 C 32.099999999999994 151.10000000000002 32.49999999999999 151.20000000000002 33.9 149.90000000000003 C 35.3 148.70000000000005 44.9 136.00000000000003 51 129.10000000000002 C 54.5 125.10000000000002 65.5 120.90000000000002 65.5 120.90000000000002 z" stroke-linecap="round" />
</g>
		<g transform="matrix(1 0 0 1 -120.32 49.59)"  >
<path style="stroke: none; stroke-width: 1; stroke-dasharray: none; stroke-linecap: butt; stroke-dashoffset: 0; stroke-linejoin: miter; stroke-miterlimit: 4; fill: rgb(105,129,183); fill-rule: nonzero; opacity: 1;" vector-effect="non-scaling-stroke"  transform=" translate(-24.45, -137.15)" d="M 41.9 143.9 L 7 143.9 C 3.3 143.9 0.2999999999999998 140.8 0.2999999999999998 137.1 C 0.2999999999999998 133.4 3.3 130.4 7 130.4 L 41.9 130.4 C 45.6 130.4 48.6 133.4 48.6 137.1 C 48.6 140.79999999999998 45.6 143.9 41.9 143.9 z" stroke-linecap="round" />
</g>
		<g transform="matrix(1 0 0 1 68.32 -22.25)"  >
<path style="stroke: none; stroke-width: 1; stroke-dasharray: none; stroke-linecap: butt; stroke-dashoffset: 0; stroke-linejoin: miter; stroke-miterlimit: 4; fill: rgb(105,129,183); fill-rule: nonzero; opacity: 1;" vector-effect="non-scaling-stroke"  transform=" translate(-213.09, -65.31)" d="M 281.7 35.6 C 281.7 35.6 265 28.200000000000003 256.3 26.900000000000002 C 247.60000000000002 25.700000000000003 239 26.200000000000003 233.4 28.900000000000002 C 227.70000000000002 31.6 215.3 43.7 203.70000000000002 58.900000000000006 C 192.00000000000003 74.10000000000001 166.3 68.2 158.60000000000002 73.9 C 150.90000000000003 79.60000000000001 145.50000000000003 79.80000000000001 144.00000000000003 86.60000000000001 C 142.40000000000003 93.4 154.70000000000002 101.00000000000001 167.60000000000002 103 C 180.60000000000002 105.1 200.3 104.7 209.60000000000002 101.9 C 219.00000000000003 99.10000000000001 223.00000000000003 93.2 222.00000000000003 90.7 C 221.10000000000002 88.10000000000001 222.50000000000003 81.10000000000001 233.20000000000002 72.80000000000001 C 244.00000000000003 64.50000000000001 280.40000000000003 44.000000000000014 281.70000000000005 41.000000000000014 C 283.1 38.000000000000014 281.70000000000005 35.600000000000016 281.70000000000005 35.600000000000016 z" stroke-linecap="round" />
</g>
		<g transform="matrix(1 0 0 1 106.53 -49.74)"  >
<path style="stroke: none; stroke-width: 1; stroke-dasharray: none; stroke-linecap: butt; stroke-dashoffset: 0; stroke-linejoin: miter; stroke-miterlimit: 4; fill: rgb(64,64,130); fill-rule: nonzero; opacity: 1;" vector-effect="non-scaling-stroke"  transform=" translate(-251.3, -37.82)" d="M 222.9 41.6 C 222.9 41.6 225 45.800000000000004 231 48.6 C 237.1 51.5 243.7 52.300000000000004 244.6 54.2 C 245.5 56.1 245.6 58 247.2 55.400000000000006 C 248.7 52.800000000000004 252 48.2 257.4 46.300000000000004 C 262.79999999999995 44.50000000000001 269.2 39.50000000000001 272.4 36.2 C 275.59999999999997 33 278.79999999999995 33.800000000000004 279.59999999999997 32.7 C 280.29999999999995 31.6 277.29999999999995 30.6 276.2 28.6 C 275.09999999999997 26.700000000000003 267.09999999999997 20.900000000000002 257.09999999999997 19.400000000000002 C 247.19999999999996 17.900000000000002 238.09999999999997 20.6 234.69999999999996 23.400000000000002 C 222.89999999999995 33.400000000000006 222.89999999999995 41.6 222.89999999999995 41.6 z" stroke-linecap="round" />
</g>
		<g transform="matrix(1 0 0 1 41.23 33.74)"  >
<path style="stroke: none; stroke-width: 1; stroke-dasharray: none; stroke-linecap: butt; stroke-dashoffset: 0; stroke-linejoin: miter; stroke-miterlimit: 4; fill: rgb(39,36,67); fill-rule: nonzero; opacity: 1;" vector-effect="non-scaling-stroke"  transform=" translate(-186, -121.3)" d="M 173.8 110 L 173.8 130.7 C 173.8 130.7 178.70000000000002 133.7 186.3 133.7 C 193.9 133.7 198.20000000000002 131.1 198.20000000000002 131.1 L 198.20000000000002 108.89999999999999 z" stroke-linecap="round" />
</g>
		<g transform="matrix(1 0 0 1 41.03 63.09)"  >
<path style="stroke: none; stroke-width: 1; stroke-dasharray: none; stroke-linecap: butt; stroke-dashoffset: 0; stroke-linejoin: miter; stroke-miterlimit: 4; fill: rgb(39,36,67); fill-rule: nonzero; opacity: 1;" vector-effect="non-scaling-stroke"  transform=" translate(-185.8, -150.65)" d="M 175.1 129.2 L 149.6 158.89999999999998 C 149.6 158.89999999999998 157.9 172.09999999999997 186.3 172.09999999999997 C 214.70000000000002 172.09999999999997 222 158.09999999999997 222 158.09999999999997 L 197.1 129.19999999999996 z" stroke-linecap="round" />
</g>
		<g transform="matrix(1 0 0 1 41.56 14.34)"  >
<path style="stroke: none; stroke-width: 1; stroke-dasharray: none; stroke-linecap: butt; stroke-dashoffset: 0; stroke-linejoin: miter; stroke-miterlimit: 4; fill: rgb(39,36,67); fill-rule: nonzero; opacity: 1;" vector-effect="non-scaling-stroke"  transform=" translate(-186.33, -101.9)" d="M 150.7 95.9 C 150.7 95.9 165.5 102.7 184.2 103 C 202.89999999999998 103.4 213.5 97.4 216.6 94.9 C 219.79999999999998 92.30000000000001 222.2 89.60000000000001 224.29999999999998 90.4 C 226.39999999999998 91.30000000000001 227.29999999999998 99.5 223.39999999999998 103 C 219.59999999999997 106.6 206.29999999999998 113 184.2 113.5 C 162.1 114 153.7 108.8 148.39999999999998 106.1 C 143.2 103.5 150.7 95.89999999999999 150.7 95.89999999999999 z" stroke-linecap="round" />
</g>
		<g transform="matrix(1 0 0 1 108.13 -23.48)"  >
<path style="stroke: none; stroke-width: 1; stroke-dasharray: none; stroke-linecap: butt; stroke-dashoffset: 0; stroke-linejoin: miter; stroke-miterlimit: 4; fill: rgb(39,36,67); fill-rule: nonzero; opacity: 1;" vector-effect="non-scaling-stroke"  transform=" translate(-252.91, -64.08)" d="M 220.2 93 C 220.2 93 223.2 89 228 85.8 C 232.8 82.6 279.4 50.599999999999994 283.5 48.5 C 287.5 46.3 289.6 43.6 289.2 40.6 C 288.8 37.6 286.2 34 283.09999999999997 34.5 C 279.9 35.1 239.79999999999995 63.8 230.99999999999997 71.2 C 222.19999999999996 78.60000000000001 217.79999999999998 85.60000000000001 217.29999999999998 87.5 C 214.6 96.6 220.2 93 220.2 93 z" stroke-linecap="round" />
</g>
		<g transform="matrix(1 0 0 1 58.92 -15.39)"  >
<path style="stroke: none; stroke-width: 1; stroke-dasharray: none; stroke-linecap: butt; stroke-dashoffset: 0; stroke-linejoin: miter; stroke-miterlimit: 4; fill: rgb(255,160,120); fill-rule: nonzero; opacity: 1;" vector-effect="non-scaling-stroke"  transform=" translate(-203.69, -72.16)" d="M 224.2 30.8 C 224.2 30.8 223.39999999999998 35.1 222.6 36.5 C 221.7 38 219.1 36.3 217 36.5 C 214.8 36.8 213.1 38.2 211.6 40.7 C 210.2 43.1 194.7 60.900000000000006 194.1 60.900000000000006 C 193.5 60.900000000000006 184.6 61.800000000000004 179.6 63.10000000000001 C 174.7 64.4 167.4 68.2 165.6 68.4 C 163.9 68.5 160.2 70.30000000000001 160.2 70.30000000000001 L 170.6 72.20000000000002 C 170.6 72.20000000000002 171 71.80000000000001 173.29999999999998 71.80000000000001 C 175.49999999999997 71.80000000000001 184.79999999999998 72.10000000000001 195.49999999999997 68.9 C 206.19999999999996 65.7 230.2 62.400000000000006 230.2 62.400000000000006 L 233.79999999999998 80.9 C 233.79999999999998 80.9 232.2 85.7 230.79999999999998 94.60000000000001 C 229.29999999999998 103.50000000000001 229.39999999999998 111.60000000000001 228.49999999999997 112.70000000000002 C 227.69999999999996 113.80000000000001 226.69999999999996 116.50000000000001 226.49999999999997 118.20000000000002 C 226.29999999999998 119.90000000000002 226.49999999999997 124.60000000000002 226.49999999999997 125.40000000000002 C 226.49999999999997 126.30000000000003 226.59999999999997 126.30000000000003 227.29999999999998 126.20000000000002 C 227.89999999999998 126.10000000000002 227.99999999999997 123.80000000000001 228.1 122.50000000000001 C 228.2 121.10000000000001 228.2 120.00000000000001 228.7 121.30000000000001 C 229.29999999999998 122.60000000000001 229.39999999999998 126.4 229.5 127.10000000000001 C 229.6 127.9 229.3 130.10000000000002 229.9 131.20000000000002 C 230.5 132.4 231.4 131.20000000000002 231.4 131.20000000000002 C 231.4 131.20000000000002 232 131.70000000000002 232.3 130.3 C 232.70000000000002 128.9 232.60000000000002 131.10000000000002 233.20000000000002 128.60000000000002 C 233.9 126.20000000000002 234.8 122.00000000000003 234.8 120.80000000000003 C 234.8 119.50000000000003 233.4 113.30000000000003 233.4 113.30000000000003 C 233.4 113.30000000000003 238.4 96.90000000000003 239.6 93.60000000000002 C 241.4 88.70000000000002 241.7 82.70000000000002 241.7 82.70000000000002 C 241.7 82.70000000000002 240 54.100000000000016 240 50.30000000000002 C 240 46.50000000000002 236.4 44.80000000000002 234.5 43.80000000000002 C 232.6 42.70000000000002 231.6 40.600000000000016 232.2 39.100000000000016 C 232.79999999999998 37.600000000000016 235.29999999999998 33.20000000000002 237 31.600000000000016 C 238.7 30.100000000000016 244.3 30.000000000000014 245.4 26.400000000000016 C 246.6 22.700000000000017 248 20.900000000000016 246.6 16.400000000000016 C 245.1 11.900000000000016 241.5 12.100000000000016 237.4 13.400000000000016 C 233.4 14.700000000000017 224.20000000000002 30.800000000000015 224.20000000000002 30.800000000000015 z" stroke-linecap="round" />
</g>
		<g transform="matrix(1 0 0 1 87.42 -70.06)"  >
<path style="stroke: none; stroke-width: 1; stroke-dasharray: none; stroke-linecap: butt; stroke-dashoffset: 0; stroke-linejoin: miter; stroke-miterlimit: 4; fill: rgb(255,180,142); fill-rule: nonzero; opacity: 1;" vector-effect="non-scaling-stroke"  transform=" translate(-232.19, -17.5)" d="M 235.2 3.4 C 233.7 3.5 232.29999999999998 3.1 229.39999999999998 5.6 C 226.39999999999998 8 223.49999999999997 11.6 221.7 15 C 219.89999999999998 18.4 218.7 27.4 219 28.6 C 219.3 29.8 220.5 30.200000000000003 221.5 30.8 C 222.6 31.400000000000002 228.2 31.900000000000002 231.2 31.400000000000002 C 234.1 31.000000000000004 237.39999999999998 29.000000000000004 237.39999999999998 29.000000000000004 C 237.39999999999998 29.000000000000004 237.59999999999997 30.100000000000005 238.7 30.100000000000005 C 239.79999999999998 30.100000000000005 242 29.100000000000005 243 27.800000000000004 C 243.9 26.600000000000005 243.8 25.300000000000004 243.4 25.100000000000005 C 243 24.900000000000006 242.20000000000002 24.700000000000006 242.20000000000002 24.700000000000006 C 242.20000000000002 24.700000000000006 244.4 21.300000000000008 245.10000000000002 18.200000000000006 C 245.70000000000002 15.100000000000007 245.60000000000002 11.300000000000006 243.70000000000002 8.300000000000006 C 241.8 5.400000000000006 238.00000000000003 3.300000000000006 235.20000000000002 3.4000000000000057 z" stroke-linecap="round" />
</g>
		<g transform="matrix(1 0 0 1 97.17 -65.1)"  >
<path style="stroke: none; stroke-width: 1; stroke-dasharray: none; stroke-linecap: butt; stroke-dashoffset: 0; stroke-linejoin: miter; stroke-miterlimit: 4; fill: rgb(39,17,19); fill-rule: nonzero; opacity: 1;" vector-effect="non-scaling-stroke"  transform=" translate(-241.94, -22.45)" d="M 228.7 6.1 C 228.7 6.1 229.2 3.8 231.39999999999998 2.9999999999999996 C 233.59999999999997 2.1999999999999993 233.79999999999998 1.1999999999999995 235.59999999999997 0.8999999999999995 C 237.29999999999995 0.5999999999999994 243.69999999999996 -0.6000000000000005 247.19999999999996 3.4999999999999996 C 250.59999999999997 7.699999999999999 251.29999999999995 8.5 251.79999999999995 9.6 C 252.29999999999995 10.799999999999999 253.19999999999996 13.1 252.79999999999995 15.899999999999999 C 252.39999999999995 18.599999999999998 252.39999999999995 18.599999999999998 252.39999999999995 18.599999999999998 C 252.39999999999995 18.599999999999998 251.99999999999994 14.999999999999998 253.39999999999995 15.899999999999999 C 254.69999999999996 16.9 255.79999999999995 20.4 254.79999999999995 23.9 C 253.89999999999995 27.4 253.19999999999996 29.7 250.89999999999995 31.599999999999998 C 248.59999999999994 33.5 241.89999999999995 36.199999999999996 240.09999999999994 31.999999999999996 C 239.49999999999994 30.499999999999996 237.59999999999994 32.099999999999994 238.09999999999994 35.099999999999994 C 238.99999999999994 40.599999999999994 233.29999999999993 41.099999999999994 234.49999999999994 42.8 C 235.69999999999993 44.5 236.69999999999993 44.4 236.69999999999993 44.4 C 236.69999999999993 44.4 232.89999999999992 44.4 233.69999999999993 41.3 C 234.09999999999994 39.599999999999994 238.09999999999994 37.5 235.79999999999993 35.699999999999996 C 234.29999999999993 34.49999999999999 237.39999999999992 28.999999999999996 237.39999999999992 28.999999999999996 C 238.0999999999999 32.5 248.29999999999993 25.199999999999996 240.5999999999999 24.299999999999997 C 239.39999999999992 24.099999999999998 241.0999999999999 22.099999999999998 243.2999999999999 17.299999999999997 C 244.6999999999999 14.199999999999998 243.3999999999999 8.999999999999996 241.5999999999999 6.899999999999997 C 239.6999999999999 4.799999999999997 238.5999999999999 3.7999999999999967 235.89999999999992 3.599999999999997 C 233.19999999999993 3.399999999999997 231.79999999999993 3.899999999999997 230.99999999999991 4.399999999999997 C 230.1999999999999 4.9999999999999964 228.6999999999999 6.099999999999997 228.6999999999999 6.099999999999997 z" stroke-linecap="round" />
</g>
		<g transform="matrix(1 0 0 1 -36.17 63.34)"  >
<path style="stroke: none; stroke-width: 1; stroke-dasharray: none; stroke-linecap: butt; stroke-dashoffset: 0; stroke-linejoin: miter; stroke-miterlimit: 4; fill: rgb(255,160,120); fill-rule: nonzero; opacity: 1;" vector-effect="non-scaling-stroke"  transform=" translate(-108.6, -150.9)" d="M 100.6 131.9 L 119.1 127.7 L 119.1 169.8 L 116.69999999999999 170.5 L 116.79999999999998 131.6 L 101.39999999999998 135 L 102.09999999999998 173.3 L 99.09999999999998 174.10000000000002 L 98.09999999999998 132.60000000000002 z" stroke-linecap="round" />
</g>
		<g transform="matrix(1 0 0 1 -35.67 63.49)"  >
<path style="stroke: none; stroke-width: 1; stroke-dasharray: none; stroke-linecap: butt; stroke-dashoffset: 0; stroke-linejoin: miter; stroke-miterlimit: 4; fill: rgb(39,36,67); fill-rule: nonzero; opacity: 1;" vector-effect="non-scaling-stroke"  transform=" translate(-109.1, -151.05)" d="M 116.7 170.5 L 101.8 158 L 101.39999999999999 135 L 116.8 131.6 z" stroke-linecap="round" />
</g>
		<g transform="matrix(1 0 0 1 -56.92 58.79)"  >
<path style="stroke: none; stroke-width: 1; stroke-dasharray: none; stroke-linecap: butt; stroke-dashoffset: 0; stroke-linejoin: miter; stroke-miterlimit: 4; fill: rgb(229,126,81); fill-rule: nonzero; opacity: 1;" vector-effect="non-scaling-stroke"  transform=" translate(-87.85, -146.35)" d="M 99.1 174.1 L 77.8 158.9 L 76.6 118.60000000000001 L 98.1 132.60000000000002 z" stroke-linecap="round" />
</g>
		<g transform="matrix(1 0 0 1 -46.92 36.09)"  >
<path style="stroke: none; stroke-width: 1; stroke-dasharray: none; stroke-linecap: butt; stroke-dashoffset: 0; stroke-linejoin: miter; stroke-miterlimit: 4; fill: rgb(229,126,81); fill-rule: nonzero; opacity: 1;" vector-effect="non-scaling-stroke"  transform=" translate(-97.85, -123.65)" d="M 98.1 132.6 L 119.1 127.69999999999999 L 94.19999999999999 114.69999999999999 L 76.6 118.6 z" stroke-linecap="round" />
</g>
		<g transform="matrix(1 0 0 1 -46.22 40.86)"  >
<path style="stroke: none; stroke-width: 1; stroke-dasharray: none; stroke-linecap: butt; stroke-dashoffset: 0; stroke-linejoin: miter; stroke-miterlimit: 4; fill: rgb(105,129,183); fill-rule: nonzero; opacity: 1;" vector-effect="non-scaling-stroke"  transform=" translate(-98.55, -128.42)" d="M 95.7 115 C 95.7 115 103.8 118.6 105.4 119.8 C 107.10000000000001 121 114.60000000000001 125 115.4 125.3 C 116.2 125.6 117 126 117.60000000000001 126.6 C 118.10000000000001 127.19999999999999 118.2 127.3 118.2 127.3 C 118.2 127.3 117.4 126.89999999999999 116.4 126.6 C 115.4 126.39999999999999 112 127.19999999999999 110 128.1 C 108 129.1 104.3 129.7 101.7 130 C 99 130.3 97 130.9 96.4 132.1 C 95.9 133.2 96.60000000000001 141.29999999999998 96.4 141.7 C 96.30000000000001 142.2 93.5 141.29999999999998 91 139.7 C 88.5 138.2 85.7 134.5 85.3 134.2 C 84.89999999999999 134 84.2 134.79999999999998 82.3 133.79999999999998 C 80.5 132.7 78.89999999999999 131.39999999999998 78.89999999999999 131.39999999999998 L 79.1 120.19999999999997 C 79.1 120.19999999999997 78.89999999999999 120.49999999999997 79.19999999999999 119.99999999999997 C 79.6 119.49999999999997 80.1 118.59999999999997 82.1 118.29999999999997 C 84.1 117.99999999999997 84.1 117.99999999999997 84.1 117.99999999999997 C 84.1 117.99999999999997 88.6 117.49999999999997 90.39999999999999 117.19999999999997 C 92.19999999999999 116.89999999999998 95.69999999999999 114.99999999999997 95.69999999999999 114.99999999999997 z" stroke-linecap="round" />
</g>
		<g transform="matrix(1 0 0 1 -45.17 34.99)"  >
<path style="stroke: none; stroke-width: 1; stroke-dasharray: none; stroke-linecap: butt; stroke-dashoffset: 0; stroke-linejoin: miter; stroke-miterlimit: 4; fill: rgb(11,50,80); fill-rule: nonzero; opacity: 1;" vector-effect="non-scaling-stroke"  transform=" translate(-99.6, -122.55)" d="M 96.1 116.1 C 96.1 116.1 91.6 117.69999999999999 88.89999999999999 118.1 C 86.3 118.5 82.89999999999999 117.69999999999999 82.99999999999999 118.39999999999999 C 83.19999999999999 119.1 84.99999999999999 122.19999999999999 90.29999999999998 121.99999999999999 C 93.59999999999998 121.89999999999999 96.39999999999998 120.69999999999999 96.39999999999998 122.09999999999998 C 96.49999999999997 123.39999999999998 91.59999999999998 125.29999999999998 93.09999999999998 126.39999999999998 C 94.59999999999998 127.49999999999997 96.59999999999998 128.99999999999997 99.69999999999997 128.99999999999997 C 102.79999999999997 128.99999999999997 104.89999999999998 128.49999999999997 107.69999999999997 127.99999999999997 C 110.59999999999998 127.49999999999997 115.49999999999997 126.69999999999997 115.89999999999998 126.19999999999997 C 116.29999999999998 125.69999999999997 116.79999999999998 126.09999999999998 113.89999999999998 124.59999999999998 C 110.99999999999997 122.99999999999999 96.09999999999998 116.09999999999998 96.09999999999998 116.09999999999998 z" stroke-linecap="round" />
</g>
		<g transform="matrix(1 0 0 1 -23.71 6.95)"  >
<path style="stroke: none; stroke-width: 1; stroke-dasharray: none; stroke-linecap: butt; stroke-dashoffset: 0; stroke-linejoin: miter; stroke-miterlimit: 4; fill: rgb(255,160,120); fill-rule: nonzero; opacity: 1;" vector-effect="non-scaling-stroke"  transform=" translate(-121.06, -94.51)" d="M 156.1 72.2 C 154.7 70.7 153.2 69.7 153.2 69.7 L 143.39999999999998 68.60000000000001 L 139.39999999999998 68.7 C 139.39999999999998 68.7 137.99999999999997 67.7 135.2 72.2 C 133.2 75.4 118.19999999999999 91.5 110.19999999999999 100 C 106.49999999999999 103.8 103.39999999999999 106.9 102.99999999999999 107.2 C 100.69999999999999 109.4 96.49999999999999 110.8 93.69999999999999 111.8 C 89.1 113.39999999999999 86.79999999999998 115.2 85.6 115.2 C 84.5 115.3 82.89999999999999 115.10000000000001 82.6 115.4 C 82.19999999999999 115.80000000000001 82.19999999999999 116.5 82.89999999999999 116.9 C 83.3 117.2 83.69999999999999 117 83.49999999999999 117.30000000000001 C 83.29999999999998 117.50000000000001 83.59999999999998 117.9 83.69999999999999 118.00000000000001 C 83.99999999999999 118.20000000000002 84.39999999999999 118.20000000000002 84.39999999999999 118.20000000000002 C 84.39999999999999 118.20000000000002 84.3 118.50000000000001 84.49999999999999 118.70000000000002 C 84.89999999999999 119.00000000000001 85.39999999999999 118.90000000000002 85.49999999999999 118.80000000000001 C 85.69999999999999 118.70000000000002 85.29999999999998 119.20000000000002 85.69999999999999 119.4 C 86.1 119.60000000000001 86.29999999999998 119.5 86.69999999999999 119.4 C 87.1 119.30000000000001 86.99999999999999 119.5 87.19999999999999 119.80000000000001 C 87.39999999999999 120.00000000000001 87.89999999999999 120.20000000000002 88.49999999999999 120.00000000000001 C 89.19999999999999 119.80000000000001 89.59999999999998 119.90000000000002 89.59999999999998 119.90000000000002 Q 89.59999999999998 119.90000000000002 89.59999999999998 119.90000000000002 Q 89.99999999999999 119.90000000000002 90.49999999999999 119.90000000000002 C 93.89999999999999 119.60000000000002 97.89999999999999 118.60000000000002 100.19999999999999 119.30000000000003 C 102.6 120.00000000000003 102.99999999999999 120.80000000000003 104.1 120.20000000000003 C 105.19999999999999 119.70000000000003 106.19999999999999 114.20000000000003 106.89999999999999 113.20000000000003 C 107.19999999999999 112.80000000000003 113.89999999999999 108.40000000000003 119.99999999999999 104.30000000000003 C 124.89999999999999 101.40000000000002 130.2 97.90000000000002 132.39999999999998 95.40000000000002 C 136.99999999999997 90.30000000000003 140.79999999999998 82.80000000000003 140.79999999999998 82.80000000000003 L 159.79999999999998 88.00000000000003 C 159.79999999999998 88.00000000000003 157.49999999999997 73.70000000000003 156.1 72.20000000000003 z" stroke-linecap="round" />
</g>
		<g transform="matrix(1 0 0 1 -66.48 10.86)"  >
<path style="stroke: none; stroke-width: 1; stroke-dasharray: none; stroke-linecap: butt; stroke-dashoffset: 0; stroke-linejoin: miter; stroke-miterlimit: 4; fill: rgb(255,160,120); fill-rule: nonzero; opacity: 1;" vector-effect="non-scaling-stroke"  transform=" translate(-78.3, -98.41)" d="M 64.9 67.6 C 64.9 67.6 65.9 73.6 66.60000000000001 75.6 C 67.30000000000001 77.69999999999999 71.50000000000001 99.6 71.50000000000001 99.6 C 71.50000000000001 99.6 86.30000000000001 117.3 89.4 119.5 C 89.4 119.5 93.7 119.8 96.10000000000001 120.5 C 97.80000000000001 120.9 97.9 121.5 97.9 121.5 C 97.9 121.5 99 123 95.9 122.5 C 92.60000000000001 122 95.60000000000001 123.6 95.60000000000001 123.6 C 95.60000000000001 123.6 99.4 125.3 101.4 125.3 C 101.7 125.3 101.7 126.6 101.10000000000001 127.3 C 99.7 128.9 100.2 128.9 97.9 129.2 C 95.80000000000001 129.39999999999998 91.60000000000001 128.29999999999998 90.2 127.1 C 88.8 126 86 122.39999999999999 86 122.39999999999999 C 86 122.39999999999999 65.3 110.6 64.3 108.49999999999999 C 63.199999999999996 106.29999999999998 55 82.19999999999999 55 82.19999999999999 z" stroke-linecap="round" />
</g>
		<g transform="matrix(1 0 0 1 -14.16 14.26)"  >
<path style="stroke: none; stroke-width: 1; stroke-dasharray: none; stroke-linecap: butt; stroke-dashoffset: 0; stroke-linejoin: miter; stroke-miterlimit: 4; fill: rgb(255,180,142); fill-rule: nonzero; opacity: 1;" vector-effect="non-scaling-stroke"  transform=" translate(-130.62, -101.82)" d="M 162.8 78.3 C 161.10000000000002 77.3 159.9 75.8 159.9 75.8 L 147.20000000000002 74.7 C 147.20000000000002 74.7 144.70000000000002 73.9 141.9 78.3 C 139.4 82.3 116.30000000000001 108.19999999999999 111.80000000000001 113.19999999999999 Q 111.60000000000001 113.49999999999999 111.50000000000001 113.6 C 109.50000000000001 116.1 105.70000000000002 118.3 103.10000000000001 119.8 C 98.9 122.2 97.00000000000001 124.3 95.7 124.6 C 94.7 124.8 93.10000000000001 124.89999999999999 92.9 125.19999999999999 C 92.5 125.69999999999999 92.60000000000001 126.39999999999999 93.4 126.69999999999999 C 93.9 126.89999999999999 94.2 126.69999999999999 94.10000000000001 126.89999999999999 C 93.9 127.3 94.2 127.6 94.4 127.6 C 94.7 127.69999999999999 95.10000000000001 127.69999999999999 95.10000000000001 127.69999999999999 C 95.10000000000001 127.69999999999999 95.10000000000001 127.99999999999999 95.30000000000001 128.1 C 95.70000000000002 128.4 96.20000000000002 128.2 96.30000000000001 128.1 C 96.50000000000001 128 96.20000000000002 128.5 96.60000000000001 128.6 C 97.00000000000001 128.79999999999998 97.2 128.7 97.60000000000001 128.5 C 98.00000000000001 128.3 97.9 128.5 98.2 128.8 C 98.4 129 98.9 129.10000000000002 99.4 128.8 C 100.10000000000001 128.4 100.5 128.5 100.5 128.5 Q 100.5 128.4 100.5 128.4 Q 101 128.4 101.4 128.3 C 104.7 127.4 108.5 125.70000000000002 110.9 126.00000000000001 C 113.30000000000001 126.20000000000002 113.9 126.90000000000002 114.9 126.20000000000002 C 115.9 125.50000000000001 115.9 119.90000000000002 116.30000000000001 118.80000000000001 C 116.4 118.70000000000002 120.50000000000001 115.20000000000002 122.10000000000001 114.30000000000001 C 126.50000000000001 111.80000000000001 137.5 106.9 142 101.80000000000001 C 146.5 96.70000000000002 149.2 88.4 149.2 88.4 L 160.7 95.10000000000001 C 160.7 95.10000000000001 176.89999999999998 87.10000000000001 162.79999999999998 78.30000000000001 z" stroke-linecap="round" />
</g>
		<g transform="matrix(1 0 0 1 -51.94 36.64)"  >
<path style="stroke: none; stroke-width: 1; stroke-dasharray: none; stroke-linecap: butt; stroke-dashoffset: 0; stroke-linejoin: miter; stroke-miterlimit: 4; fill: rgb(169,204,255); fill-rule: nonzero; opacity: 1;" vector-effect="non-scaling-stroke"  transform=" translate(-92.84, -124.2)" d="M 92.2 123.1 L 91.9 123.5 C 91.9 123.5 91.7 124.2 91.80000000000001 124.6 C 92.00000000000001 124.89999999999999 92.50000000000001 125.19999999999999 93.00000000000001 125.3 C 93.60000000000001 125.3 93.90000000000002 125.3 93.90000000000002 125.3 C 93.90000000000002 125.3 93.80000000000003 125 93.50000000000001 124.89999999999999 C 93.30000000000001 124.8 93.00000000000001 124.39999999999999 93.10000000000001 124.1 C 93.10000000000001 123.89999999999999 93.10000000000001 123.39999999999999 92.80000000000001 123.3 C 92.4 123.1 92.20000000000002 123.1 92.20000000000002 123.1 z" stroke-linecap="round" />
</g>
		<g transform="matrix(1 0 0 1 -53.07 33.46)"  >
<path style="stroke: none; stroke-width: 1; stroke-dasharray: none; stroke-linecap: butt; stroke-dashoffset: 0; stroke-linejoin: miter; stroke-miterlimit: 4; fill: rgb(39,17,19); fill-rule: nonzero; opacity: 1;" vector-effect="non-scaling-stroke"  transform=" translate(-91.7, -121.01)" d="M 91.5 118.4 L 92.8 123.30000000000001 C 92.8 123.30000000000001 92.7 123.50000000000001 92.39999999999999 123.60000000000001 C 92.19999999999999 123.7 91.89999999999999 123.50000000000001 91.89999999999999 123.50000000000001 L 90.6 118.50000000000001 z" stroke-linecap="round" />
</g>
		<g transform="matrix(1 0 0 1 -51.12 37.71)"  >
<path style="stroke: none; stroke-width: 1; stroke-dasharray: none; stroke-linecap: butt; stroke-dashoffset: 0; stroke-linejoin: miter; stroke-miterlimit: 4; fill: rgb(169,204,255); fill-rule: nonzero; opacity: 1;" vector-effect="non-scaling-stroke"  transform=" translate(-93.65, -125.27)" d="M 93 125.2 C 93.1 125.3 93.1 125.3 93.2 125.5 C 93.2 125.7 93.5 125.8 93.7 125.7 C 94 125.7 94.4 125.5 94.4 125.5 C 94.4 125.5 94.4 125.2 94.30000000000001 125.1 C 94.30000000000001 124.89999999999999 94.10000000000001 124.8 94.00000000000001 124.8 C 94.00000000000001 124.8 93.90000000000002 124.89999999999999 93.50000000000001 125 C 92.90000000000002 125.1 92.90000000000002 125.2 92.90000000000002 125.2 C 92.90000000000002 125.2 92.90000000000002 125.2 93.00000000000001 125.2 z" stroke-linecap="round" />
</g>
		<g transform="matrix(1 0 0 1 -50.07 39.29)"  >
<path style="stroke: none; stroke-width: 1; stroke-dasharray: none; stroke-linecap: butt; stroke-dashoffset: 0; stroke-linejoin: miter; stroke-miterlimit: 4; fill: rgb(169,204,255); fill-rule: nonzero; opacity: 1;" vector-effect="non-scaling-stroke"  transform=" translate(-94.7, -126.85)" d="M 94.2 126.8 C 94.2 126.8 94.4 126.8 94.4 126.89999999999999 C 94.5 126.99999999999999 94.5 127.1 94.60000000000001 127.1 C 94.7 127.1 95.2 126.89999999999999 95.2 126.89999999999999 C 95.2 126.89999999999999 95.10000000000001 126.8 95 126.69999999999999 C 94.9 126.6 94.8 126.6 94.6 126.6 C 94.5 126.6 94.19999999999999 126.8 94.19999999999999 126.8 z" stroke-linecap="round" />
</g>
		<g transform="matrix(1 0 0 1 -49.05 39.92)"  >
<path style="stroke: none; stroke-width: 1; stroke-dasharray: none; stroke-linecap: butt; stroke-dashoffset: 0; stroke-linejoin: miter; stroke-miterlimit: 4; fill: rgb(169,204,255); fill-rule: nonzero; opacity: 1;" vector-effect="non-scaling-stroke"  transform=" translate(-95.72, -127.48)" d="M 95.3 127.5 C 95.3 127.5 95.39999999999999 127.5 95.5 127.6 C 95.5 127.6 95.6 127.69999999999999 95.7 127.69999999999999 C 95.7 127.69999999999999 96 127.6 96.10000000000001 127.6 C 96.2 127.6 96.10000000000001 127.39999999999999 96.00000000000001 127.3 C 95.90000000000002 127.2 95.70000000000002 127.3 95.60000000000001 127.3 C 95.4 127.39999999999999 95.30000000000001 127.5 95.30000000000001 127.5 z" stroke-linecap="round" />
</g>
		<g transform="matrix(1 0 0 1 -47.92 40.44)"  >
<path style="stroke: none; stroke-width: 1; stroke-dasharray: none; stroke-linecap: butt; stroke-dashoffset: 0; stroke-linejoin: miter; stroke-miterlimit: 4; fill: rgb(169,204,255); fill-rule: nonzero; opacity: 1;" vector-effect="non-scaling-stroke"  transform=" translate(-96.85, -128)" d="M 96.4 128 C 96.4 128 96.60000000000001 127.9 96.7 128 Q 96.8 128.1 96.9 128.2 C 96.9 128.2 97 128.2 97.10000000000001 128.2 C 97.2 128.1 97.30000000000001 127.99999999999999 97.30000000000001 127.99999999999999 C 97.30000000000001 127.99999999999999 97.10000000000001 127.89999999999999 97.00000000000001 127.79999999999998 C 97.00000000000001 127.79999999999998 96.90000000000002 127.79999999999998 96.80000000000001 127.79999999999998 C 96.60000000000001 127.79999999999998 96.4 127.99999999999999 96.4 127.99999999999999 z" stroke-linecap="round" />
</g>
		<g transform="matrix(1 0 0 1 -46.37 40.77)"  >
<path style="stroke: none; stroke-width: 1; stroke-dasharray: none; stroke-linecap: butt; stroke-dashoffset: 0; stroke-linejoin: miter; stroke-miterlimit: 4; fill: rgb(169,204,255); fill-rule: nonzero; opacity: 1;" vector-effect="non-scaling-stroke"  transform=" translate(-98.4, -128.33)" d="M 98.2 128.3 C 98.2 128.3 98.3 128.3 98.4 128.3 C 98.5 128.4 98.5 128.5 98.5 128.5 L 98.7 128.4 C 98.7 128.4 98.60000000000001 128.20000000000002 98.4 128.20000000000002 C 98.30000000000001 128.10000000000002 98.2 128.20000000000002 98.2 128.20000000000002 Q 98.2 128.20000000000002 98.2 128.20000000000002 C 98.2 128.20000000000002 98.10000000000001 128.3 98.10000000000001 128.3 z" stroke-linecap="round" />
</g>
		<g transform="matrix(1 0 0 1 47.58 -18.98)"  >
<path style="stroke: none; stroke-width: 1; stroke-dasharray: none; stroke-linecap: butt; stroke-dashoffset: 0; stroke-linejoin: miter; stroke-miterlimit: 4; fill: rgb(169,204,255); fill-rule: nonzero; opacity: 1;" vector-effect="non-scaling-stroke"  transform=" translate(-192.35, -68.58)" d="M 220.8 37.1 C 220.8 37.1 215.10000000000002 41.7 213.8 43.300000000000004 C 212.5 44.900000000000006 211.60000000000002 49.6 211.60000000000002 49.6 C 211.60000000000002 49.6 220.60000000000002 50.800000000000004 223.90000000000003 48.1 C 228.70000000000005 44.300000000000004 232.90000000000003 44.1 234.50000000000003 43.800000000000004 L 236.30000000000004 44.800000000000004 C 236.30000000000004 44.800000000000004 232.40000000000003 45.1 229.90000000000003 46.300000000000004 C 226.70000000000005 47.800000000000004 225.30000000000004 53.7 225.60000000000002 56.300000000000004 C 226.20000000000002 61.400000000000006 230.20000000000002 62.400000000000006 230.20000000000002 62.400000000000006 L 230.9 66 C 224.5 71.9 208.8 86.2 208 88.2 C 207.3 90.2 205.7 94.7 205.7 94.7 C 205.7 94.7 196.7 98.7 191.6 99.8 C 186.5 100.8 164 99.8 157.89999999999998 95.7 C 157.89999999999998 95.7 160.7 91.9 161.29999999999998 88.7 C 161.99999999999997 84.9 159.99999999999997 76.8 156.99999999999997 76.10000000000001 C 153.59999999999997 75.2 153.49999999999997 76.50000000000001 153.39999999999998 73.2 C 153.29999999999998 69.60000000000001 148.39999999999998 69.4 148.39999999999998 69.4 C 148.39999999999998 69.4 149.09999999999997 69.10000000000001 158.59999999999997 70.2 C 176.69999999999996 72.10000000000001 183.79999999999995 75.7 188.39999999999998 75.9 C 190.09999999999997 75.9 191.29999999999998 75.10000000000001 192.79999999999998 73.2 C 194.2 71.3 200.29999999999998 60.900000000000006 200.49999999999997 59.400000000000006 C 200.69999999999996 57.900000000000006 197.79999999999998 54.60000000000001 199.69999999999996 49.900000000000006 C 201.59999999999997 45.2 207.19999999999996 45.60000000000001 210.49999999999997 44.400000000000006 C 213.79999999999998 43.300000000000004 211.79999999999998 43.7 214.79999999999998 41.300000000000004 C 217.7 38.900000000000006 220.1 37.00000000000001 220.1 37.00000000000001 z" stroke-linecap="round" />
</g>
		<g transform="matrix(1 0 0 1 -46.71 34.46)"  >
<path style="stroke: none; stroke-width: 1; stroke-dasharray: none; stroke-linecap: butt; stroke-dashoffset: 0; stroke-linejoin: miter; stroke-miterlimit: 4; fill: rgb(255,160,120); fill-rule: nonzero; opacity: 1;" vector-effect="non-scaling-stroke"  transform=" translate(-98.07, -122.01)" d="M 96.6 120.6 L 97.69999999999999 121.3 C 97.69999999999999 121.3 99.29999999999998 122.39999999999999 99.49999999999999 122.6 C 99.69999999999999 122.69999999999999 98.89999999999999 123.6 97.99999999999999 123.39999999999999 C 97.29999999999998 123.19999999999999 96.59999999999998 122.49999999999999 96.59999999999998 122.49999999999999 L 96.59999999999998 120.99999999999999 z" stroke-linecap="round" />
</g>
		<g transform="matrix(1 0 0 1 -81.07 -15.96)"  >
<path style="stroke: none; stroke-width: 1; stroke-dasharray: none; stroke-linecap: butt; stroke-dashoffset: 0; stroke-linejoin: miter; stroke-miterlimit: 4; fill: rgb(107,200,199); fill-rule: nonzero; opacity: 1;" vector-effect="non-scaling-stroke"  transform=" translate(-63.7, -71.6)" d="M 64.6 65.5 L 67.1 77.7 L 60.3 77.7 z" stroke-linecap="round" />
</g>
		<g transform="matrix(1 0 0 1 -92.27 -7.61)"  >
<path style="stroke: none; stroke-width: 1; stroke-dasharray: none; stroke-linecap: butt; stroke-dashoffset: 0; stroke-linejoin: miter; stroke-miterlimit: 4; fill: rgb(255,180,142); fill-rule: nonzero; opacity: 1;" vector-effect="non-scaling-stroke"  transform=" translate(-52.5, -79.94)" d="M 38.5 70 C 45.2 62.9 56.4 58.2 56.4 58.2 L 56.699999999999996 58.2 Q 56.4 58.2 56.4 58.2 C 56.4 58.2 61.6 56 61.699999999999996 56.1 C 66.6 53.800000000000004 72.69999999999999 50.7 77.1 47.5 C 83.6 42.7 91.19999999999999 42.9 94.3 45 C 97.39999999999999 47.1 99.89999999999999 48.8 100.1 50.2 C 100.19999999999999 51.6 101 52.2 100.89999999999999 53.2 C 100.69999999999999 54.7 98.8 57.900000000000006 97.8 59.1 C 96.8 60.4 93.89999999999999 62.9 93.5 63.1 C 93 63.300000000000004 92.1 63.7 91.3 64 C 90.6 64.3 90.1 65.2 89.39999999999999 66.7 C 88.8 68.3 88.69999999999999 69.8 87.89999999999999 70.10000000000001 C 87.1 70.4 85.99999999999999 69.9 85.6 69.2 C 85.39999999999999 68.60000000000001 84.39999999999999 69.10000000000001 84.1 69.4 C 83.69999999999999 69.9 83.8 70.4 83.19999999999999 70.7 C 82.19999999999999 71.10000000000001 81.6 69.8 81.6 69.8 C 81.5 69.8 81.89999999999999 70.8 81.1 71.2 C 80.8 71.4 80.19999999999999 71.2 80 70.9 C 79.8 70.4 77.1 72.30000000000001 76.7 72.5 C 76.2 72.7 75.10000000000001 72.5 74.2 71.1 C 73.3 69.6 72.60000000000001 67.39999999999999 72.4 66.8 C 72.10000000000001 66.2 72 65.5 71.30000000000001 65.5 C 69.00000000000001 66.8 65.30000000000001 69 65.30000000000001 69 C 63.90000000000001 71.5 59.90000000000001 89.8 58.90000000000001 92.1 C 58.000000000000014 94.5 54.000000000000014 98.39999999999999 49.80000000000001 97.19999999999999 C 45.60000000000001 95.99999999999999 38.500000000000014 100.89999999999999 36.10000000000001 103.69999999999999 C 33.60000000000001 106.49999999999999 32.20000000000001 108.89999999999999 33.50000000000001 109.49999999999999 C 34.900000000000006 110.09999999999998 36.300000000000004 111.99999999999999 39.50000000000001 112.99999999999999 C 41.00000000000001 113.49999999999999 30.60000000000001 116.79999999999998 23.200000000000006 115.19999999999999 C 15.800000000000006 113.49999999999999 4.100000000000005 116.29999999999998 4.100000000000005 116.29999999999998 C 4.100000000000005 116.29999999999998 4.100000000000005 111.09999999999998 8.200000000000005 103.69999999999999 C 12.000000000000004 96.69999999999999 31.800000000000004 77.19999999999999 38.50000000000001 69.99999999999999 z" stroke-linecap="round" />
</g>
		<g transform="matrix(1 0 0 1 -61.62 -52.27)"  >
<path style="stroke: none; stroke-width: 1; stroke-dasharray: none; stroke-linecap: butt; stroke-dashoffset: 0; stroke-linejoin: miter; stroke-miterlimit: 4; fill: rgb(70,50,51); fill-rule: nonzero; opacity: 1;" vector-effect="non-scaling-stroke"  transform=" translate(-83.15, -35.28)" d="M 100.2 55.3 C 101.4 54.8 103.2 53.099999999999994 103.7 51.199999999999996 C 104.2 49.3 104.8 43.99999999999999 101.7 40.199999999999996 C 99.7 37.699999999999996 100.8 35.99999999999999 98.7 34.3 C 96.60000000000001 32.699999999999996 93.60000000000001 30.699999999999996 90.9 30.799999999999997 C 90 30.9 89.4 30.9 89 30.9 C 88.2 31 88.2 31 88.2 31 C 88.2 31 88.8 30.6 89.4 29.9 C 89.80000000000001 29.4 90.30000000000001 28.799999999999997 90.60000000000001 28.099999999999998 C 91.4 26.4 93.80000000000001 21.099999999999998 90.9 18.199999999999996 C 88 15.299999999999995 86.60000000000001 12.499999999999996 82.80000000000001 14.599999999999996 C 79.00000000000001 16.599999999999994 76.9 18.899999999999995 76.60000000000001 21.799999999999997 C 76.30000000000001 24.699999999999996 74.80000000000001 25.699999999999996 77.4 28.199999999999996 C 80 30.699999999999996 80 30.699999999999996 80 30.699999999999996 C 80 30.699999999999996 77.5 25.799999999999997 74.5 26.999999999999996 C 71.4 28.099999999999998 67.8 29.999999999999996 67.8 29.999999999999996 C 67.8 29.999999999999996 70.2 29.299999999999997 71.8 29.499999999999996 C 73.39999999999999 29.699999999999996 76.3 30.499999999999996 76.3 30.499999999999996 C 76.3 30.499999999999996 72 29.999999999999996 70.7 30.599999999999998 C 69.4 31.299999999999997 68.4 34 65.9 37.599999999999994 C 63.400000000000006 41.099999999999994 63.300000000000004 40.699999999999996 65.5 39.099999999999994 C 67.6 37.39999999999999 68.3 36.699999999999996 70.2 36.199999999999996 C 72.2 35.8 78 32.699999999999996 79.10000000000001 32.49999999999999 C 80.30000000000001 32.29999999999999 81.50000000000001 31.599999999999994 81.50000000000001 31.599999999999994 C 81.50000000000001 31.599999999999994 83.40000000000002 31.999999999999993 81.70000000000002 28.199999999999996 C 80.00000000000001 24.499999999999996 80.30000000000001 21.199999999999996 81.60000000000002 20.299999999999997 C 83.00000000000003 19.299999999999997 83.20000000000002 16.699999999999996 83.20000000000002 20.199999999999996 C 83.20000000000002 23.599999999999994 82.30000000000001 31.899999999999995 81.60000000000002 32.39999999999999 C 80.80000000000003 32.79999999999999 81.60000000000002 30.79999999999999 81.60000000000002 30.79999999999999 C 81.60000000000002 30.79999999999999 75.10000000000002 34.29999999999999 73.30000000000003 36.69999999999999 C 71.50000000000003 38.999999999999986 69.10000000000002 40.89999999999999 68.70000000000003 42.999999999999986 C 68.30000000000003 44.999999999999986 66.80000000000003 48.499999999999986 67.70000000000003 49.499999999999986 C 68.60000000000004 50.499999999999986 68.40000000000003 51.59999999999999 68.40000000000003 51.59999999999999 C 68.40000000000003 51.59999999999999 67.80000000000004 49.59999999999999 66.50000000000003 49.499999999999986 C 65.20000000000003 49.399999999999984 63.60000000000003 49.19999999999999 63.00000000000003 50.399999999999984 C 62.50000000000003 51.59999999999999 62.20000000000003 52.399999999999984 62.20000000000003 52.399999999999984 C 62.20000000000003 52.399999999999984 63.60000000000003 50.19999999999998 64.40000000000003 50.399999999999984 C 65.10000000000004 50.69999999999998 66.30000000000004 49.69999999999998 66.90000000000003 50.899999999999984 C 67.40000000000003 52.09999999999999 67.40000000000003 51.59999999999999 68.20000000000003 52.19999999999998 C 69.00000000000003 52.899999999999984 69.00000000000003 52.899999999999984 69.00000000000003 52.899999999999984 C 69.00000000000003 52.899999999999984 69.40000000000003 53.19999999999998 68.00000000000003 53.69999999999998 C 66.60000000000002 54.19999999999998 65.80000000000003 54.399999999999984 65.30000000000003 55.49999999999998 C 64.80000000000003 56.59999999999998 64.80000000000003 56.59999999999998 64.80000000000003 56.59999999999998 C 64.80000000000003 56.59999999999998 65.40000000000002 55.39999999999998 66.30000000000003 54.99999999999998 C 67.30000000000003 54.49999999999998 69.90000000000002 54.59999999999998 70.30000000000003 53.89999999999998 C 70.70000000000003 53.299999999999976 71.40000000000002 53.09999999999998 71.40000000000002 53.09999999999998 C 71.40000000000002 53.09999999999998 73.50000000000001 53.69999999999998 74.00000000000001 53.69999999999998 C 74.40000000000002 53.59999999999998 75.50000000000001 53.59999999999998 75.50000000000001 53.59999999999998 C 75.50000000000001 53.59999999999998 76.80000000000001 51.69999999999998 77.50000000000001 50.79999999999998 C 78.20000000000002 49.999999999999986 81.00000000000001 47.899999999999984 81.40000000000002 48.29999999999998 C 81.80000000000003 48.59999999999998 82.60000000000002 49.899999999999984 82.00000000000001 50.399999999999984 C 81.50000000000001 50.899999999999984 80.70000000000002 51.19999999999998 80.70000000000002 52.399999999999984 C 80.80000000000001 53.69999999999998 78.90000000000002 55.79999999999998 78.10000000000002 56.19999999999998 C 77.40000000000002 56.69999999999998 77.40000000000002 56.69999999999998 77.40000000000002 56.69999999999998 C 77.40000000000002 56.69999999999998 79.30000000000003 56.09999999999998 80.00000000000001 55.19999999999998 C 80.70000000000002 54.399999999999984 81.50000000000001 53.09999999999998 81.60000000000001 52.399999999999984 C 81.7 51.69999999999998 82.10000000000001 51.09999999999999 82.80000000000001 50.59999999999999 C 83.50000000000001 50.19999999999999 84.9 49.399999999999984 85.80000000000001 49.29999999999999 C 86.70000000000002 49.09999999999999 88.80000000000001 52.59999999999999 90.4 52.09999999999999 C 92 51.499999999999986 92.60000000000001 50.19999999999999 93.4 50.19999999999999 C 94.2 50.09999999999999 97 50.499999999999986 97 51.09999999999999 C 96.9 53.499999999999986 100.2 55.29999999999999 100.2 55.29999999999999 z" stroke-linecap="round" />
</g>
		<g transform="matrix(1 0 0 1 -61.04 -56.01)"  >
<path style="stroke: none; stroke-width: 1; stroke-dasharray: none; stroke-linecap: butt; stroke-dashoffset: 0; stroke-linejoin: miter; stroke-miterlimit: 4; fill: rgb(169,204,255); fill-rule: nonzero; opacity: 1;" vector-effect="non-scaling-stroke"  transform=" translate(-83.73, -31.55)" d="M 85.4 29.5 C 86.4 29.5 89.4 29.9 89.4 29.9 L 89.30000000000001 30.9 C 89.30000000000001 30.9 85.4 33.5 84.10000000000001 33.6 C 82.80000000000001 33.6 78.50000000000001 32.6 78.10000000000001 32.9 C 77.80000000000001 33.1 79.60000000000001 31.099999999999998 80.00000000000001 30.7 C 80.30000000000001 30.3 84.00000000000001 29.599999999999998 85.40000000000002 29.5 z" stroke-linecap="round" />
</g>
		<g transform="matrix(1 0 0 1 -106.02 -2.24)"  >
<path style="stroke: none; stroke-width: 1; stroke-dasharray: none; stroke-linecap: butt; stroke-dashoffset: 0; stroke-linejoin: miter; stroke-miterlimit: 4; fill: rgb(64,64,130); fill-rule: nonzero; opacity: 1;" vector-effect="non-scaling-stroke"  transform=" translate(-38.75, -85.31)" d="M 62.7 68 C 62.7 68 61.6 65.4 60 64.4 C 58.4 63.400000000000006 54.1 61.2 48.1 64.4 C 42 67.60000000000001 39.3 69.2 39.3 69.2 C 39.3 69.2 28.499999999999996 79.4 23.4 84.9 C 18.4 90.4 14.799999999999999 94.7 14.799999999999999 94.7 C 14.799999999999999 94.7 20.299999999999997 101.3 24 103.9 C 27.8 106.5 35.2 107.9 35.2 107.9 C 35.2 107.9 39 102.80000000000001 42.300000000000004 100.5 C 45.7 98.2 45.6 98.6 49.300000000000004 97.9 C 53.00000000000001 97.2 54.6 97.60000000000001 56.2 96.9 C 57.7 96.30000000000001 59.2 93.4 59.800000000000004 90.80000000000001 C 60.50000000000001 88.30000000000001 58.900000000000006 86.10000000000001 58.6 80.9 C 58.300000000000004 75.80000000000001 62.7 68 62.7 68 z" stroke-linecap="round" />
</g>
		<g transform="matrix(1 0 0 1 -72.14 6.9)"  >
<path style="stroke: none; stroke-width: 1; stroke-dasharray: none; stroke-linecap: butt; stroke-dashoffset: 0; stroke-linejoin: miter; stroke-miterlimit: 4; fill: rgb(255,180,142); fill-rule: nonzero; opacity: 1;" vector-effect="non-scaling-stroke"  transform=" translate(-72.64, -94.45)" d="M 96.1 117.1 C 96.19999999999999 116.8 96 116.39999999999999 95.39999999999999 116.1 C 94.8 115.89999999999999 92.89999999999999 115.8 92.39999999999999 115.5 C 91.8 115.3 91.99999999999999 114.6 90.8 114.3 C 90.39999999999999 114.3 89.1 114.7 88.2 114.5 C 87.8 114.4 79.8 110.5 76.2 108.6 C 75.7 108.1 65.8 104.6 65.8 104.6 C 65.8 104.6 64.89999999999999 71.19999999999999 63 68.3 C 61.1 65.3 52.9 66.39999999999999 50.1 72.5 C 46.1 81.3 52.9 77.2 52.9 79 C 53 86.7 56 111.2 56 111.2 C 56 111.2 61.9 113.4 68.2 115 C 76 117 81.9 118 84.5 118.7 C 85.5 118.9 86.4 120.4 87.4 121.4 C 88.4 122.30000000000001 92.7 121.5 92.7 121.5 C 92.7 121.5 92.60000000000001 122 92.9 122.2 C 93.30000000000001 122.3 94.2 121.8 95.10000000000001 121.7 C 95.9 121.5 95.7 120.7 96.00000000000001 120.2 C 96.40000000000002 119.7 96.20000000000002 119.2 96.40000000000002 118.60000000000001 C 96.60000000000002 118.10000000000001 95.90000000000002 117.50000000000001 96.10000000000002 117.10000000000001 z" stroke-linecap="round" />
</g>
		<g transform="matrix(1 0 0 1 -90.25 60.85)"  >
<path style="stroke: none; stroke-width: 1; stroke-dasharray: none; stroke-linecap: butt; stroke-dashoffset: 0; stroke-linejoin: miter; stroke-miterlimit: 4; fill: rgb(255,180,142); fill-rule: nonzero; opacity: 1;" vector-effect="non-scaling-stroke"  transform=" translate(-54.52, -148.4)" d="M 74.3 122.2 C 74.3 122.2 84.6 126.60000000000001 77.1 135.5 C 76 136.8 47.99999999999999 154.6 44.699999999999996 159.8 C 42.099999999999994 163.70000000000002 47.099999999999994 168.8 50.199999999999996 169.70000000000002 C 54.99999999999999 171.20000000000002 55.99999999999999 169.9 57.4 172.10000000000002 C 58.8 174.20000000000002 50.3 174.90000000000003 45.099999999999994 174.50000000000003 C 43.89999999999999 174.40000000000003 38.099999999999994 170.70000000000002 36.199999999999996 170.00000000000003 C 34.3 169.40000000000003 30.699999999999996 167.80000000000004 29.599999999999994 165.90000000000003 C 28.999999999999993 164.80000000000004 28.799999999999994 162.50000000000003 31.199999999999996 160.60000000000002 C 33.699999999999996 158.70000000000002 33.99999999999999 158.8 35.4 157.50000000000003 C 36.8 156.30000000000004 46.4 143.60000000000002 52.5 136.70000000000002 C 56.1 132.70000000000002 67.1 128.50000000000003 67.1 128.50000000000003 z" stroke-linecap="round" />
</g>
		<g transform="matrix(1 0 0 1 -136.62 71.44)"  >
<path style="stroke: none; stroke-width: 1; stroke-dasharray: none; stroke-linecap: butt; stroke-dashoffset: 0; stroke-linejoin: miter; stroke-miterlimit: 4; fill: rgb(39,36,67); fill-rule: nonzero; opacity: 1;" vector-effect="non-scaling-stroke"  transform=" translate(-8.15, -159)" d="M 10.4 174.1 L 5.9 174.1 L 5.9 143.9 L 10.4 143.9 z" stroke-linecap="round" />
</g>
		<g transform="matrix(1 0 0 1 -103.87 71.44)"  >
<path style="stroke: none; stroke-width: 1; stroke-dasharray: none; stroke-linecap: butt; stroke-dashoffset: 0; stroke-linejoin: miter; stroke-miterlimit: 4; fill: rgb(39,36,67); fill-rule: nonzero; opacity: 1;" vector-effect="non-scaling-stroke"  transform=" translate(-40.9, -159)" d="M 43.1 174.1 L 38.7 174.1 L 38.7 143.9 L 43.1 143.9 z" stroke-linecap="round" />
</g>
		<g transform="matrix(1 0 0 1 -120.22 76.29)"  >
<path style="stroke: none; stroke-width: 1; stroke-dasharray: none; stroke-linecap: butt; stroke-dashoffset: 0; stroke-linejoin: miter; stroke-miterlimit: 4; fill: rgb(39,36,67); fill-rule: nonzero; opacity: 1;" vector-effect="non-scaling-stroke"  transform=" translate(-24.55, -163.85)" d="M 38.7 166 L 10.400000000000002 166 L 10.400000000000002 161.7 L 38.7 161.7 z" stroke-linecap="round" />
</g>
		<g transform="matrix(1 0 0 1 -101.71 35.69)"  >
<path style="stroke: none; stroke-width: 1; stroke-dasharray: none; stroke-linecap: butt; stroke-dashoffset: 0; stroke-linejoin: miter; stroke-miterlimit: 4; fill: rgb(231,88,96); fill-rule: nonzero; opacity: 1;" vector-effect="non-scaling-stroke"  transform=" translate(-43.07, -123.25)" d="M 33.4 107.5 C 33.4 107.5 22 109.2 19.2 109.2 C 16.4 109.2 6 106.4 6 106.4 C 6 106.4 2.7 113.5 2.8 121.10000000000001 C 2.9 128.60000000000002 4.3 134.20000000000002 11.7 135.70000000000002 C 19.1 137.20000000000002 38.7 138.8 55 134.60000000000002 C 55.3 134.50000000000003 52.5 136.70000000000002 52.5 136.70000000000002 C 59.4 133.20000000000002 65.1 133.10000000000002 67.1 133.70000000000002 C 74 136.00000000000003 74 140.10000000000002 78.6 140.10000000000002 C 82.69999999999999 140.00000000000003 83.19999999999999 136.50000000000003 83.19999999999999 136.50000000000003 C 83.19999999999999 136.50000000000003 84.1 124.80000000000003 81.29999999999998 121.90000000000003 C 79.29999999999998 119.80000000000004 78.89999999999998 118.20000000000003 64.89999999999998 116.70000000000003 C 32.49999999999998 113.10000000000004 33.39999999999998 107.50000000000003 33.39999999999998 107.50000000000003 z" stroke-linecap="round" />
</g>
</g>
</g>
</svg>