<svg version="1.2" xmlns="http://www.w3.org/2000/svg" viewBox="0 0 290 175" width="290" height="175"><style>.a{fill:#ffa078}.b{fill:#6981b7}.c{fill:#404082}.d{fill:#272443}.e{fill:#ffb48e}.f{fill:#271113}.g{fill:#e57e51}.h{fill:#0b3250}.i{fill:#a9ccff}.j{fill:#6bc8c7}.k{fill:#463233}.l{fill:#e75860}</style><path class="a" d="m72.7 118.6c0 0 13.1 2.5 5.6 11.3-1.1 1.4-31.8 17.1-35.2 22.3-2.5 3.9 2.5 9 5.5 9.9 4.9 1.5 5.9 0.2 7.3 2.4 1.4 2.1-7.2 2.8-12.4 2.4-1.2-0.1-6.9-3.8-8.9-4.4-1.9-0.7-5.5-2.3-6.5-4.1-0.7-1.1-0.9-3.5 1.6-5.4 2.4-1.9 2.8-1.8 4.2-3.1 1.4-1.2 11-13.9 17.1-20.8 3.5-4 14.5-8.2 14.5-8.2z"/><path class="b" d="m41.9 143.9h-34.9c-3.7 0-6.7-3.1-6.7-6.8 0-3.7 3-6.7 6.7-6.7h34.9c3.7 0 6.7 3 6.7 6.7 0 3.7-3 6.8-6.7 6.8z"/><path class="b" d="m281.7 35.6c0 0-16.7-7.4-25.4-8.7-8.7-1.2-17.3-0.7-22.9 2-5.7 2.7-18.1 14.8-29.7 30-11.7 15.2-37.4 9.3-45.1 15-7.7 5.7-13.1 5.9-14.6 12.7-1.6 6.8 10.7 14.4 23.6 16.4 13 2.1 32.7 1.7 42-1.1 9.4-2.8 13.4-8.7 12.4-11.2-0.9-2.6 0.5-9.6 11.2-17.9 10.8-8.3 47.2-28.8 48.5-31.8 1.4-3 0-5.4 0-5.4z"/><path class="c" d="m222.9 41.6c0 0 2.1 4.2 8.1 7 6.1 2.9 12.7 3.7 13.6 5.6 0.9 1.9 1 3.8 2.6 1.2 1.5-2.6 4.8-7.2 10.2-9.1 5.4-1.8 11.8-6.8 15-10.1 3.2-3.2 6.4-2.4 7.2-3.5 0.7-1.1-2.3-2.1-3.4-4.1-1.1-1.9-9.1-7.7-19.1-9.2-9.9-1.5-19 1.2-22.4 4-11.8 10-11.8 18.2-11.8 18.2z"/><path class="d" d="m173.8 110v20.7c0 0 4.9 3 12.5 3 7.6 0 11.9-2.6 11.9-2.6v-22.2z"/><path class="d" d="m175.1 129.2l-25.5 29.7c0 0 8.3 13.2 36.7 13.2 28.4 0 35.7-14 35.7-14l-24.9-28.9z"/><path class="d" d="m150.7 95.9c0 0 14.8 6.8 33.5 7.1 18.7 0.4 29.3-5.6 32.4-8.1 3.2-2.6 5.6-5.3 7.7-4.5 2.1 0.9 3 9.1-0.9 12.6-3.8 3.6-17.1 10-39.2 10.5-22.1 0.5-30.5-4.7-35.8-7.4-5.2-2.6 2.3-10.2 2.3-10.2z"/><path class="d" d="m220.2 93c0 0 3-4 7.8-7.2 4.8-3.2 51.4-35.2 55.5-37.3 4-2.2 6.1-4.9 5.7-7.9-0.4-3-3-6.6-6.1-6.1-3.2 0.6-43.3 29.3-52.1 36.7-8.8 7.4-13.2 14.4-13.7 16.3-2.7 9.1 2.9 5.5 2.9 5.5z"/><path class="a" d="m224.2 30.8c0 0-0.8 4.3-1.6 5.7-0.9 1.5-3.5-0.2-5.6 0-2.2 0.3-3.9 1.7-5.4 4.2-1.4 2.4-16.9 20.2-17.5 20.2-0.6 0-9.5 0.9-14.5 2.2-4.9 1.3-12.2 5.1-14 5.3-1.7 0.1-5.4 1.9-5.4 1.9l10.4 1.9c0 0 0.4-0.4 2.7-0.4 2.2 0 11.5 0.3 22.2-2.9 10.7-3.2 34.7-6.5 34.7-6.5l3.6 18.5c0 0-1.6 4.8-3 13.7-1.5 8.9-1.4 17-2.3 18.1-0.8 1.1-1.8 3.8-2 5.5-0.2 1.7 0 6.4 0 7.2 0 0.9 0.1 0.9 0.8 0.8 0.6-0.1 0.7-2.4 0.8-3.7 0.1-1.4 0.1-2.5 0.6-1.2 0.6 1.3 0.7 5.1 0.8 5.8 0.1 0.8-0.2 3 0.4 4.1 0.6 1.2 1.5 0 1.5 0 0 0 0.6 0.5 0.9-0.9 0.4-1.4 0.3 0.8 0.9-1.7 0.7-2.4 1.6-6.6 1.6-7.8 0-1.3-1.4-7.5-1.4-7.5 0 0 5-16.4 6.2-19.7 1.8-4.9 2.1-10.9 2.1-10.9 0 0-1.7-28.6-1.7-32.4 0-3.8-3.6-5.5-5.5-6.5-1.9-1.1-2.9-3.2-2.3-4.7 0.6-1.5 3.1-5.9 4.8-7.5 1.7-1.5 7.3-1.6 8.4-5.2 1.2-3.7 2.6-5.5 1.2-10-1.5-4.5-5.1-4.3-9.2-3-4 1.3-13.2 17.4-13.2 17.4z"/><path class="e" d="m235.2 3.4c-1.5 0.1-2.9-0.3-5.8 2.2-3 2.4-5.9 6-7.7 9.4-1.8 3.4-3 12.4-2.7 13.6 0.3 1.2 1.5 1.6 2.5 2.2 1.1 0.6 6.7 1.1 9.7 0.6 2.9-0.4 6.2-2.4 6.2-2.4 0 0 0.2 1.1 1.3 1.1 1.1 0 3.3-1 4.3-2.3 0.9-1.2 0.8-2.5 0.4-2.7-0.4-0.2-1.2-0.4-1.2-0.4 0 0 2.2-3.4 2.9-6.5 0.6-3.1 0.5-6.9-1.4-9.9-1.9-2.9-5.7-5-8.5-4.9z"/><path class="f" d="m228.7 6.1c0 0 0.5-2.3 2.7-3.1 2.2-0.8 2.4-1.8 4.2-2.1 1.7-0.3 8.1-1.5 11.6 2.6 3.4 4.2 4.1 5 4.6 6.1 0.5 1.2 1.4 3.5 1 6.3-0.4 2.7-0.4 2.7-0.4 2.7 0 0-0.4-3.6 1-2.7 1.3 1 2.4 4.5 1.4 8-0.9 3.5-1.6 5.8-3.9 7.7-2.3 1.9-9 4.6-10.8 0.4-0.6-1.5-2.5 0.1-2 3.1 0.9 5.5-4.8 6-3.6 7.7 1.2 1.7 2.2 1.6 2.2 1.6 0 0-3.8 0-3-3.1 0.4-1.7 4.4-3.8 2.1-5.6-1.5-1.2 1.6-6.7 1.6-6.7 0.7 3.5 10.9-3.8 3.2-4.7-1.2-0.2 0.5-2.2 2.7-7 1.4-3.1 0.1-8.3-1.7-10.4-1.9-2.1-3-3.1-5.7-3.3-2.7-0.2-4.1 0.3-4.9 0.8-0.8 0.6-2.3 1.7-2.3 1.7z"/><path class="a" d="m100.6 131.9l18.5-4.2v42.1l-2.4 0.7 0.1-38.9-15.4 3.4 0.7 38.3-3 0.8-1-41.5z"/><path class="d" d="m116.7 170.5l-14.9-12.5-0.4-23 15.4-3.4z"/><path class="g" d="m99.1 174.1l-21.3-15.2-1.2-40.3 21.5 14z"/><path class="g" d="m98.1 132.6l21-4.9-24.9-13-17.6 3.9z"/><path class="b" d="m95.7 115c0 0 8.1 3.6 9.7 4.8 1.7 1.2 9.2 5.2 10 5.5 0.8 0.3 1.6 0.7 2.2 1.3 0.5 0.6 0.6 0.7 0.6 0.7 0 0-0.8-0.4-1.8-0.7-1-0.2-4.4 0.6-6.4 1.5-2 1-5.7 1.6-8.3 1.9-2.7 0.3-4.7 0.9-5.3 2.1-0.5 1.1 0.2 9.2 0 9.6-0.1 0.5-2.9-0.4-5.4-2-2.5-1.5-5.3-5.2-5.7-5.5-0.4-0.2-1.1 0.6-3-0.4-1.8-1.1-3.4-2.4-3.4-2.4l0.2-11.2c0 0-0.2 0.3 0.1-0.2 0.4-0.5 0.9-1.4 2.9-1.7 2-0.3 2-0.3 2-0.3 0 0 4.5-0.5 6.3-0.8 1.8-0.3 5.3-2.2 5.3-2.2z"/><path class="h" d="m96.1 116.1c0 0-4.5 1.6-7.2 2-2.6 0.4-6-0.4-5.9 0.3 0.2 0.7 2 3.8 7.3 3.6 3.3-0.1 6.1-1.3 6.1 0.1 0.1 1.3-4.8 3.2-3.3 4.3 1.5 1.1 3.5 2.6 6.6 2.6 3.1 0 5.2-0.5 8-1 2.9-0.5 7.8-1.3 8.2-1.8 0.4-0.5 0.9-0.1-2-1.6-2.9-1.6-17.8-8.5-17.8-8.5z"/><path class="a" d="m156.1 72.2c-1.4-1.5-2.9-2.5-2.9-2.5l-9.8-1.1-4 0.1c0 0-1.4-1-4.2 3.5-2 3.2-17 19.3-25 27.8-3.7 3.8-6.8 6.9-7.2 7.2-2.3 2.2-6.5 3.6-9.3 4.6-4.6 1.6-6.9 3.4-8.1 3.4-1.1 0.1-2.7-0.1-3 0.2-0.4 0.4-0.4 1.1 0.3 1.5 0.4 0.3 0.8 0.1 0.6 0.4-0.2 0.2 0.1 0.6 0.2 0.7 0.3 0.2 0.7 0.2 0.7 0.2 0 0-0.1 0.3 0.1 0.5 0.4 0.3 0.9 0.2 1 0.1 0.2-0.1-0.2 0.4 0.2 0.6 0.4 0.2 0.6 0.1 1 0 0.4-0.1 0.3 0.1 0.5 0.4 0.2 0.2 0.7 0.4 1.3 0.2 0.7-0.2 1.1-0.1 1.1-0.1q0 0 0 0 0.4 0 0.9 0c3.4-0.3 7.4-1.3 9.7-0.6 2.4 0.7 2.8 1.5 3.9 0.9 1.1-0.5 2.1-6 2.8-7 0.3-0.4 7-4.8 13.1-8.9 4.9-2.9 10.2-6.4 12.4-8.9 4.6-5.1 8.4-12.6 8.4-12.6l19 5.2c0 0-2.3-14.3-3.7-15.8z"/><path class="a" d="m64.9 67.6c0 0 1 6 1.7 8 0.7 2.1 4.9 24 4.9 24 0 0 14.8 17.7 17.9 19.9 0 0 4.3 0.3 6.7 1 1.7 0.4 1.8 1 1.8 1 0 0 1.1 1.5-2 1-3.3-0.5-0.3 1.1-0.3 1.1 0 0 3.8 1.7 5.8 1.7 0.3 0 0.3 1.3-0.3 2-1.4 1.6-0.9 1.6-3.2 1.9-2.1 0.2-6.3-0.9-7.7-2.1-1.4-1.1-4.2-4.7-4.2-4.7 0 0-20.7-11.8-21.7-13.9-1.1-2.2-9.3-26.3-9.3-26.3z"/><path class="e" d="m162.8 78.3c-1.7-1-2.9-2.5-2.9-2.5l-12.7-1.1c0 0-2.5-0.8-5.3 3.6-2.5 4-25.6 29.9-30.1 34.9q-0.2 0.3-0.3 0.4c-2 2.5-5.8 4.7-8.4 6.2-4.2 2.4-6.1 4.5-7.4 4.8-1 0.2-2.6 0.3-2.8 0.6-0.4 0.5-0.3 1.2 0.5 1.5 0.5 0.2 0.8 0 0.7 0.2-0.2 0.4 0.1 0.7 0.3 0.7 0.3 0.1 0.7 0.1 0.7 0.1 0 0 0 0.3 0.2 0.4 0.4 0.3 0.9 0.1 1 0 0.2-0.1-0.1 0.4 0.3 0.5 0.4 0.2 0.6 0.1 1-0.1 0.4-0.2 0.3 0 0.6 0.3 0.2 0.2 0.7 0.3 1.2 0 0.7-0.4 1.1-0.3 1.1-0.3q0-0.1 0-0.1 0.5 0 0.9-0.1c3.3-0.9 7.1-2.6 9.5-2.3 2.4 0.2 3 0.9 4 0.2 1-0.7 1-6.3 1.4-7.4 0.1-0.1 4.2-3.6 5.8-4.5 4.4-2.5 15.4-7.4 19.9-12.5 4.5-5.1 7.2-13.4 7.2-13.4l11.5 6.7c0 0 16.2-8 2.1-16.8z"/><path class="i" d="m92.2 123.1l-0.3 0.4c0 0-0.2 0.7-0.1 1.1 0.2 0.3 0.7 0.6 1.2 0.7 0.6 0 0.9 0 0.9 0 0 0-0.1-0.3-0.4-0.4-0.2-0.1-0.5-0.5-0.4-0.8 0-0.2 0-0.7-0.3-0.8-0.4-0.2-0.6-0.2-0.6-0.2z"/><path class="f" d="m91.5 118.4l1.3 4.9c0 0-0.1 0.2-0.4 0.3-0.2 0.1-0.5-0.1-0.5-0.1l-1.3-5z"/><path class="i" d="m93 125.2c0.1 0.1 0.1 0.1 0.2 0.3 0 0.2 0.3 0.3 0.5 0.2 0.3 0 0.7-0.2 0.7-0.2 0 0 0-0.3-0.1-0.4 0-0.2-0.2-0.3-0.3-0.3 0 0-0.1 0.1-0.5 0.2-0.6 0.1-0.6 0.2-0.6 0.2 0 0 0 0 0.1 0z"/><path class="i" d="m94.2 126.8c0 0 0.2 0 0.2 0.1 0.1 0.1 0.1 0.2 0.2 0.2 0.1 0 0.6-0.2 0.6-0.2 0 0-0.1-0.1-0.2-0.2-0.1-0.1-0.2-0.1-0.4-0.1-0.1 0-0.4 0.2-0.4 0.2z"/><path class="i" d="m95.3 127.5c0 0 0.1 0 0.2 0.1 0 0 0.1 0.1 0.2 0.1 0 0 0.3-0.1 0.4-0.1 0.1 0 0-0.2-0.1-0.3-0.1-0.1-0.3 0-0.4 0-0.2 0.1-0.3 0.2-0.3 0.2z"/><path class="i" d="m96.4 128c0 0 0.2-0.1 0.3 0q0.1 0.1 0.2 0.2c0 0 0.1 0 0.2 0 0.1-0.1 0.2-0.2 0.2-0.2 0 0-0.2-0.1-0.3-0.2 0 0-0.1 0-0.2 0-0.2 0-0.4 0.2-0.4 0.2z"/><path class="i" d="m98.2 128.3c0 0 0.1 0 0.2 0 0.1 0.1 0.1 0.2 0.1 0.2l0.2-0.1c0 0-0.1-0.2-0.3-0.2-0.1-0.1-0.2 0-0.2 0q0 0 0 0c0 0-0.1 0.1-0.1 0.1z"/><path class="i" d="m220.8 37.1c0 0-5.7 4.6-7 6.2-1.3 1.6-2.2 6.3-2.2 6.3 0 0 9 1.2 12.3-1.5 4.8-3.8 9-4 10.6-4.3l1.8 1c0 0-3.9 0.3-6.4 1.5-3.2 1.5-4.6 7.4-4.3 10 0.6 5.1 4.6 6.1 4.6 6.1l0.7 3.6c-6.4 5.9-22.1 20.2-22.9 22.2-0.7 2-2.3 6.5-2.3 6.5 0 0-9 4-14.1 5.1-5.1 1-27.6 0-33.7-4.1 0 0 2.8-3.8 3.4-7 0.7-3.8-1.3-11.9-4.3-12.6-3.4-0.9-3.5 0.4-3.6-2.9-0.1-3.6-5-3.8-5-3.8 0 0 0.7-0.3 10.2 0.8 18.1 1.9 25.2 5.5 29.8 5.7 1.7 0 2.9-0.8 4.4-2.7 1.4-1.9 7.5-12.3 7.7-13.8 0.2-1.5-2.7-4.8-0.8-9.5 1.9-4.7 7.5-4.3 10.8-5.5 3.3-1.1 1.3-0.7 4.3-3.1 2.9-2.4 5.3-4.3 5.3-4.3z"/><path class="a" d="m96.6 120.6l1.1 0.7c0 0 1.6 1.1 1.8 1.3 0.2 0.1-0.6 1-1.5 0.8-0.7-0.2-1.4-0.9-1.4-0.9v-1.5z"/><path class="j" d="m64.6 65.5l2.5 12.2h-6.8z"/><path class="e" d="m38.5 70c6.7-7.1 17.9-11.8 17.9-11.8h0.3q-0.3 0-0.3 0c0 0 5.2-2.2 5.3-2.1 4.9-2.3 11-5.4 15.4-8.6 6.5-4.8 14.1-4.6 17.2-2.5 3.1 2.1 5.6 3.8 5.8 5.2 0.1 1.4 0.9 2 0.8 3-0.2 1.5-2.1 4.7-3.1 5.9-1 1.3-3.9 3.8-4.3 4-0.5 0.2-1.4 0.6-2.2 0.9-0.7 0.3-1.2 1.2-1.9 2.7-0.6 1.6-0.7 3.1-1.5 3.4-0.8 0.3-1.9-0.2-2.3-0.9-0.2-0.6-1.2-0.1-1.5 0.2-0.4 0.5-0.3 1-0.9 1.3-1 0.4-1.6-0.9-1.6-0.9-0.1 0 0.3 1-0.5 1.4-0.3 0.2-0.9 0-1.1-0.3-0.2-0.5-2.9 1.4-3.3 1.6-0.5 0.2-1.6 0-2.5-1.4-0.9-1.5-1.6-3.7-1.8-4.3-0.3-0.6-0.4-1.3-1.1-1.3-2.3 1.3-6 3.5-6 3.5-1.4 2.5-5.4 20.8-6.4 23.1-0.9 2.4-4.9 6.3-9.1 5.1-4.2-1.2-11.3 3.7-13.7 6.5-2.5 2.8-3.9 5.2-2.6 5.8 1.4 0.6 2.8 2.5 6 3.5 1.5 0.5-8.9 3.8-16.3 2.2-7.4-1.7-19.1 1.1-19.1 1.1 0 0 0-5.2 4.1-12.6 3.8-7 23.6-26.5 30.3-33.7z"/><path class="k" d="m100.2 55.3c1.2-0.5 3-2.2 3.5-4.1 0.5-1.9 1.1-7.2-2-11-2-2.5-0.9-4.2-3-5.9-2.1-1.6-5.1-3.6-7.8-3.5-0.9 0.1-1.5 0.1-1.9 0.1-0.8 0.1-0.8 0.1-0.8 0.1 0 0 0.6-0.4 1.2-1.1 0.4-0.5 0.9-1.1 1.2-1.8 0.8-1.7 3.2-7 0.3-9.9-2.9-2.9-4.3-5.7-8.1-3.6-3.8 2-5.9 4.3-6.2 7.2-0.3 2.9-1.8 3.9 0.8 6.4 2.6 2.5 2.6 2.5 2.6 2.5 0 0-2.5-4.9-5.5-3.7-3.1 1.1-6.7 3-6.7 3 0 0 2.4-0.7 4-0.5 1.6 0.2 4.5 1 4.5 1 0 0-4.3-0.5-5.6 0.1-1.3 0.7-2.3 3.4-4.8 7-2.5 3.5-2.6 3.1-0.4 1.5 2.1-1.7 2.8-2.4 4.7-2.9 2-0.4 7.8-3.5 8.9-3.7 1.2-0.2 2.4-0.9 2.4-0.9 0 0 1.9 0.4 0.2-3.4-1.7-3.7-1.4-7-0.1-7.9 1.4-1 1.6-3.6 1.6-0.1 0 3.4-0.9 11.7-1.6 12.2-0.8 0.4 0-1.6 0-1.6 0 0-6.5 3.5-8.3 5.9-1.8 2.3-4.2 4.2-4.6 6.3-0.4 2-1.9 5.5-1 6.5 0.9 1 0.7 2.1 0.7 2.1 0 0-0.6-2-1.9-2.1-1.3-0.1-2.9-0.3-3.5 0.9-0.5 1.2-0.8 2-0.8 2 0 0 1.4-2.2 2.2-2 0.7 0.3 1.9-0.7 2.5 0.5 0.5 1.2 0.5 0.7 1.3 1.3 0.8 0.7 0.8 0.7 0.8 0.7 0 0 0.4 0.3-1 0.8-1.4 0.5-2.2 0.7-2.7 1.8-0.5 1.1-0.5 1.1-0.5 1.1 0 0 0.6-1.2 1.5-1.6 1-0.5 3.6-0.4 4-1.1 0.4-0.6 1.1-0.8 1.1-0.8 0 0 2.1 0.6 2.6 0.6 0.4-0.1 1.5-0.1 1.5-0.1 0 0 1.3-1.9 2-2.8 0.7-0.8 3.5-2.9 3.9-2.5 0.4 0.3 1.2 1.6 0.6 2.1-0.5 0.5-1.3 0.8-1.3 2 0.1 1.3-1.8 3.4-2.6 3.8-0.7 0.5-0.7 0.5-0.7 0.5 0 0 1.9-0.6 2.6-1.5 0.7-0.8 1.5-2.1 1.6-2.8 0.1-0.7 0.5-1.3 1.2-1.8 0.7-0.4 2.1-1.2 3-1.3 0.9-0.2 3 3.3 4.6 2.8 1.6-0.6 2.2-1.9 3-1.9 0.8-0.1 3.6 0.3 3.6 0.9-0.1 2.4 3.2 4.2 3.2 4.2z"/><path class="i" d="m85.4 29.5c1 0 4 0.4 4 0.4l-0.1 1c0 0-3.9 2.6-5.2 2.7-1.3 0-5.6-1-6-0.7-0.3 0.2 1.5-1.8 1.9-2.2 0.3-0.4 4-1.1 5.4-1.2z"/><path class="c" d="m62.7 68c0 0-1.1-2.6-2.7-3.6-1.6-1-5.9-3.2-11.9 0-6.1 3.2-8.8 4.8-8.8 4.8 0 0-10.8 10.2-15.9 15.7-5 5.5-8.6 9.8-8.6 9.8 0 0 5.5 6.6 9.2 9.2 3.8 2.6 11.2 4 11.2 4 0 0 3.8-5.1 7.1-7.4 3.4-2.3 3.3-1.9 7-2.6 3.7-0.7 5.3-0.3 6.9-1 1.5-0.6 3-3.5 3.6-6.1 0.7-2.5-0.9-4.7-1.2-9.9-0.3-5.1 4.1-12.9 4.1-12.9z"/><path class="e" d="m96.1 117.1c0.1-0.3-0.1-0.7-0.7-1-0.6-0.2-2.5-0.3-3-0.6-0.6-0.2-0.4-0.9-1.6-1.2-0.4 0-1.7 0.4-2.6 0.2-0.4-0.1-8.4-4-12-5.9-0.5-0.5-10.4-4-10.4-4 0 0-0.9-33.4-2.8-36.3-1.9-3-10.1-1.9-12.9 4.2-4 8.8 2.8 4.7 2.8 6.5 0.1 7.7 3.1 32.2 3.1 32.2 0 0 5.9 2.2 12.2 3.8 7.8 2 13.7 3 16.3 3.7 1 0.2 1.9 1.7 2.9 2.7 1 0.9 5.3 0.1 5.3 0.1 0 0-0.1 0.5 0.2 0.7 0.4 0.1 1.3-0.4 2.2-0.5 0.8-0.2 0.6-1 0.9-1.5 0.4-0.5 0.2-1 0.4-1.6 0.2-0.5-0.5-1.1-0.3-1.5z"/><path class="e" d="m74.3 122.2c0 0 10.3 4.4 2.8 13.3-1.1 1.3-29.1 19.1-32.4 24.3-2.6 3.9 2.4 9 5.5 9.9 4.8 1.5 5.8 0.2 7.2 2.4 1.4 2.1-7.1 2.8-12.3 2.4-1.2-0.1-7-3.8-8.9-4.5-1.9-0.6-5.5-2.2-6.6-4.1-0.6-1.1-0.8-3.4 1.6-5.3 2.5-1.9 2.8-1.8 4.2-3.1 1.4-1.2 11-13.9 17.1-20.8 3.6-4 14.6-8.2 14.6-8.2z"/><path class="d" d="m10.4 174.1h-4.5v-30.2h4.5z"/><path class="d" d="m43.1 174.1h-4.4v-30.2h4.4z"/><path class="d" d="m38.7 166h-28.3v-4.3h28.3z"/><path class="l" d="m33.4 107.5c0 0-11.4 1.7-14.2 1.7-2.8 0-13.2-2.8-13.2-2.8 0 0-3.3 7.1-3.2 14.7 0.1 7.5 1.5 13.1 8.9 14.6 7.4 1.5 27 3.1 43.3-1.1 0.3-0.1-2.5 2.1-2.5 2.1 6.9-3.5 12.6-3.6 14.6-3 6.9 2.3 6.9 6.4 11.5 6.4 4.1-0.1 4.6-3.6 4.6-3.6 0 0 0.9-11.7-1.9-14.6-2-2.1-2.4-3.7-16.4-5.2-32.4-3.6-31.5-9.2-31.5-9.2z"/></svg>