<svg version="1.2" xmlns="http://www.w3.org/2000/svg" viewBox="0 0 422 264" width="422" height="264"><style>tspan{white-space:pre}.a{fill:#0290be}.b{fill:#6a6faa}.c{fill:#b8d8b6}.d{fill:#75bcaf}.e{fill:#9cdbc6}.f{fill:#d6f2ee}.g{fill:#00b5c0}.h{fill:#46c6cf}.i{fill:#f08058}.j{fill:#f9cb58}.k{fill:#db5b36}.l{fill:#fffaa1}.m{fill:#ffe45f}.n{fill:#162b64}.o{fill:#44150f}.p{fill:#754f2d}.q{fill:#2b5d82}.r{fill:#517a9b}.s{fill:#e89d3a}.t{fill:#316185}.u{fill:#fc5779}.v{fill:#dd3e7b}.w{fill:#f9ca46}.x{fill:#fff27b}.y{fill:#704423}.z{fill:#8798d6}.A{fill:#244766}.B{fill:#7575bc}.C{fill:#fffffd}.D{fill:#e5e4d8}.E{fill:#162154}.F{fill:#330d0b}.G{fill:#6b4429}.H{fill:#feb6a0}.I{fill:#f4edab}.J{fill:#abc5fe}.K{fill:#dda35e}.L{fill:#350b1c}.M{fill:#ff946d}.N{fill:#fff}.O{fill:#570f1d}.P{fill:#952b41}.Q{fill:#9cadef}.R{fill:#5ead9e}.S{fill:#7fcc96}.T{fill:#51af7e}.U{fill:#d88850}.V{fill:#af452f}.W{fill:#f7d4a1}</style><path class="a" d="m421.4 263.3h-405v-12.6h405z"/><path class="b" d="m256.6 239.4h66.5l1 3h-68.5z"/><path class="c" d="m156.1 11.5h-3.4v76.4l149.2-1-1.6-8.6z"/><path class="d" d="m304.3 84.2l-149.2 1.8v-78.4l149.2 2.3z"/><path class="e" d="m301.3 81.2l-143.3 1.1 1.3-71.3 140.8 1z"/><path class="f" d="m301.7 81.5l-0.7-37.3-51.2 37.7z"/><path class="f" d="m300.9 36.7l-64.1 45.3-12 0.1 75.8-62.6z"/><path class="f" d="m159.6 13.7l4.2-2.4 15 0.1-19.5 20.6z"/><path class="f" d="m159.1 45.8l33.1-34.3h5.2l-38.5 42.1z"/><path class="g" d="m82.8 236.4c0 0 19.8-0.5 22.9-0.2 3.2 0.3 50.4 7.7 50.1 8.7-0.2 1.1-7.8 2.4-7.8 2.4z"/><path class="h" d="m80.5 249.5c-0.5-2.2-0.2-13.3 2.3-13.1 0.7 0.1 65.3 10.4 65.2 10.9-0.3 1.8-0.1 5.8-1.1 5.8-2.9-0.1-41.4-4.6-42.5-3.6-1.1 1.1-1.1 1.9-2.7 2.2-1.7 0.3-20.8-0.2-21.2-2.2z"/><path class="h" d="m146.9 253.1c0 0 8.7-2.2 8.9-3 0.3-0.7 0.5-5.6 0-5.2-0.4 0.5-8 1.8-8.3 2.4-0.3 0.7-0.6 5.8-0.6 5.8z"/><path class="i" d="m177.1 85.2c0 0-6 0-9.9 9.2-4.4 10.5-10.7 16.2-11.6 16.9-1 0.7-20.1-15.6-20.1-15.6l-3.6 6.4c0 0 19.2 22.8 23.8 22.7 4.6-0.2 19.9-19.8 19.9-19.8z"/><path class="j" d="m177.1 85.2c0 0-6 0-9.9 9.2-2.7 6.6-6.2 11.2-8.7 14 1.7 2.6 4.2 6.2 7 8.5 5.1-5.6 10.1-11.9 10.1-11.9z"/><path class="i" d="m135.8 96.7c-0.6-2.9-5-10.2-10.2-8.6l0.8 2.6c0 0-6.8 0.6-6.5 2.8 0.4 2.2 1.7 1.6 1.7 1.6 0 0-1.1 0.8-0.5 2.1 0.5 1.3 1.6 1 1.6 1 0 0-0.7 0.5-0.3 1.3 0.6 1.1 1.6 1.1 1.6 1.1 0 0-1 1.1 1.1 1.9 2.2 0.9 10.2-0.9 10.7-1.9 0.5-1 0.2-2.9 0-3.9z"/><path class="k" d="m129.5 90.7c0 0 1.7 3.9 2.1 7.1 0.2 2-0.1 3.6-1.7 3.8l-3.9-8.6z"/><path class="l" d="m158.5 108.4l7 8.5c0 0-0.9 2.6-2.4 2.4l-7-8.5c0 0 0.4-2.1 2.4-2.4z"/><path class="m" d="m183.2 86.9c0 0-9.5-5.8-12.3 3.9-2.6 9-3.2 29.7-0.6 50.6 4.8 1.9 16-0.2 30.1-1.9 0 0 1-18.2 1.6-27.5 0.7-11.7-3.9-24.5-7.9-27.2z"/><path class="n" d="m172.2 142.1c2.2 0.7-6.6-59.6 11-55.2 0 0 0-0.4-0.9-0.8-1.3-0.4-3.6-1-5.2-0.1-4 2.2-8.7 4.4-6.8 56.1z"/><path class="n" d="m184.9 142.1c-0.2 0.2-9.3-46.8 6.5-50.3 13.4-3 9 38.1 7.9 47.8-0.1 1.4 1.1-0.1 1.1-0.1 0 0 2.9-16.2 1.3-34.5-1.6-19.4-11.6-15-13.9-13.8-2.3 1.2-9.6 6.7-8.3 27.5 1.4 20.7 2.7 23.8 2.7 23.8z"/><path class="o" d="m165.7 246.3c0 0-11.6 1.1-13.3 2.9-1.6 1.8-0.2 3.6 3.6 4 3.8 0.4 23.2 2.3 23.4 0 0.1-2.3-1.5-7.9-1.5-7.9z"/><path class="p" d="m179.4 253.2q0-0.5-0.1-1.1c-13.9 2.1-23.9-0.9-27.4-2.2-0.6 1.6 0.9 2.9 4.1 3.3 3.8 0.4 23.2 2.3 23.4 0z"/><path class="i" d="m167.4 229.9c-0.5 8.4-1 14.5-1.5 16.4 0 0 12.3 1 12.2-0.9 0-0.5 0.6-7 1.3-15.9"/><path class="o" d="m218.7 242c0 0-9.5 6.8-10 9.1-0.4 2.4 1.7 3.3 5.2 1.7 3.4-1.6 21.1-9.8 20.1-11.9-1.1-2-5.3-6-5.3-6z"/><path class="p" d="m234 240.9q-0.3-0.4-0.6-0.9c-11 8.9-21.1 11.4-24.7 12.1 0.2 1.6 2.2 2 5.2 0.7 3.4-1.6 21.1-9.8 20.1-11.9z"/><path class="i" d="m209.8 227.6c5.1 7.6 9.4 13.8 9.4 13.8 3.8-1 7.3-2.8 10.5-5.4 0 0-4.4-6.6-9.5-15.1"/><path class="n" d="m221.4 220c-5.8-9.8-13.5-21.5-15-29.5-2.8-15.3-6-51.1-6-51.1-13.8 1.4-25.3 2-30.1-0.4 0 0-2.7 60.5-4.4 90.9h14.7c1.9-21 3.8-55.5 3.8-55.5 0 0 3.9 19 10.8 31.4 3.4 6.1 7.7 14.8 12.6 22.1z"/><path class="q" d="m203.8 221.5c4.4-0.9 10.2-5.1 13.5-8.3 0 0 3.9 2 4.1 6.8-3.2 3.1-9.2 7.1-13.2 8.2 0 0-3.5-0.5-4.4-6.7z"/><path class="q" d="m166.4 221.5c4.1 1.7 10.4 1.7 14.9 0.9 0 0 2.1 3.7-0.4 7.9-4.4 0.7-11.6 0.7-15.6-0.6 0 0-1.8-4.3 1.1-8.2z"/><path class="r" d="m105.4 34.8c0 0-1.2-2.2-0.6-2.9 0.7-0.6 17.6-0.4 17.8-1.4 0.2-1.4-2.3-5.7-3-5.8-0.6 0-0.1-1-0.1-1 0 0 1-0.6 1.5 0 0.4 0.6 4.2 7.8 2.8 8.1-2.7 0.7-17.3 0.8-17.4 1.2 0 0.4 0.5 1.5 0.5 1.5z"/><path class="s" d="m109.6 54.4c0 0 3.9 1.6 5.6-2 0 0-2-1.8-3.5-0.9-1.5 0.9-2.1 2.9-2.1 2.9z"/><path class="t" d="m154.3 170.8l-3 1-46.9-136.9 3-0.7z"/><path class="u" d="m121.5 24.9c0 2.8-1.4 5-3.2 5-1.7 0-3.1-2.2-3.1-5 0-2.8 1.4-5.1 3.1-5.1 1.8 0 3.2 2.3 3.2 5.1z"/><path class="u" d="m85.7 20c1.4-1 31.4-0.7 33.1-0.2v10.1c-6.9 0.7-30.8 0.5-32.7 0z"/><path class="v" d="m89.6 24.9c0 2.8-1.4 5-3.1 5-1.8 0-3.2-2.2-3.2-5 0-2.8 1.4-5.1 3.2-5.1 1.7 0 3.1 2.3 3.1 5.1z"/><path class="w" d="m89 24.9c0 2.2-1.1 4.1-2.5 4.1-1.4 0-2.6-1.9-2.6-4.1 0-2.3 1.2-4.2 2.6-4.2 1.4 0 2.5 1.9 2.5 4.2z"/><path class="s" d="m88.2 24.7c0 1.6-0.8 3-1.7 3-1 0-1.8-1.4-1.8-3 0-1.6 0.8-2.9 1.8-2.9 0.9 0 1.7 1.3 1.7 2.9z"/><path class="w" d="m107.9 34.4l7.3 18c-2.5-0.8-4 0.3-5.6 2l-5.5-18.5c-0.4-2.4 2.6-3 3.8-1.5z"/><path class="i" d="m152.4 144.3c-0.6-3-4.9-10.2-10.2-8.6l0.9 2.6c0 0-6.3 0.6-5.9 2.8 0.4 2.2 1.6 1.6 1.6 1.6 0 0-1 0.8-0.5 2.1 0.5 1.3 1.7 1.1 1.7 1.1 0 0-1.2-0.2-0.4 1.1 0.8 1.3 1.7 1.2 1.7 1.2 0 0-1.1 1.1 1.1 2 2.2 0.8 9.5-1 10-2 0.5-1 0.2-2.9 0-3.9z"/><path class="i" d="m187.1 100.6c-2.1 6.9-4.7 25.7-7.5 28-2.7 2.3-28.4 12.6-28.4 12.6l0.6 7.5c0 0 35.5-10.7 39.2-14.5 3.7-3.9 8.7-24 9.4-26.3 1.6-4.6-7.6-26.9-13.3-7.3z"/><path class="x" d="m187.1 100.6c-1.4 4.8-3.1 15.2-4.9 21.9 2.9 1.5 7.1 3.3 12.3 4.7 2.8-7.4 5.4-17.7 5.9-19.3 1.6-4.6-7.6-26.9-13.3-7.3z"/><path class="l" d="m182.2 122.5c4.5 1.4 8.7 2.9 12.3 4.7 0 0-0.1 2.4-1.2 2.9q-5.7-2.5-12.2-4.3c0 0-0.1-2.7 1.1-3.3z"/><path class="n" d=""/><path class="i" d="m125.9 88c0 0-0.9 0.4-0.3 2 0.5 1.6 2.2 6.7 3.6 5.5 1.4-1.1 0.3-5 0.3-5"/><path class="i" d="m122.5 91.4c0 0 3-1 3.5 0 0.5 1 0 2.4-1.7 2.9 0 0 2.8-1.1 3 0.5 0.3 1.6-1.7 2.6-2 2.7-0.4 0.1 0.3-0.1 0.3-0.1 0 0 2.6-1.5 2.9-0.2 0.4 1.3-2.6 2.6-2.6 2.6 0 0 3.1-1.2 3.4 0 0.3 1.3-2.6 2.3-2.6 2.3"/><path class="i" d="m181.9 78.4c0 0 1.2 6.8-0.5 9.8-1.8 3.1-2.6 4.8-2.6 4.8 0.6 1.1 7.2-1.8 16.6-6.4 0 0-4.5-5-3.1-11.1z"/><path class="i" d="m178 57.3c-1.6 2.5-1.7 6.4-3.5 8.2-1.4 1.3-1.8 0.4-2.1 1.4-0.4 1.1-0.6 10.3 4.2 12.1 3.9 1.5 14.7 1.7 19.8-4 3.5-4 8.7-14.3 3.1-18.9-10.4-8.8-19.2-2.5-21.5 1.2z"/><path class="k" d="m187.7 68.4c-0.6-1.9-1.8-3.5-2.6-5.2-0.9-1.8-1.4-3.9-0.4-5.7-2.5 0.3-4.9 0.1-7.3-0.4 2.7-2.7 6.6-4.5 10.3-3.7 1.1 0.2 2.2 0.7 3 1.5 0.7 0.8 1.1 1.8 1.3 2.9 0.6 2.8-0.3 6.1-2.7 7.8"/><path class="o" d="m177.6 57.8c-1.1 2.8-1.9 8.5-5.5 8.7-0.1 0-0.2 0.1-0.2 0.2q0.1 2.3 0.3 4.6c0.1 0.3 0.5 0.2 0.5-0.1-0.2-0.9-0.3-2.7-0.1-3.7 0-0.6 0.7-0.6 1.2-0.9 0.7-0.3 0.9-0.4 1.3-0.9 1.6-1.8 2-5.6 2.6-8 0 0-0.1 0.1-0.1 0.1z"/><path class="o" d="m179.4 65.3c-0.3 0.8-0.8 1.3-1.1 1.2-0.4-0.1-0.4-0.9-0.1-1.7 0.3-0.8 0.9-1.3 1.2-1.2 0.3 0.1 0.3 0.9 0 1.7z"/><path class="o" d="m179.5 71.6c-1.6 1-3.3 1.4-5.1 1.6-0.3 0-0.3 0.4 0 0.5 1.9 0.2 3.8-0.5 5.4-1.5 0.4-0.2 0.1-0.9-0.3-0.6z"/><path class="o" d="m186.3 57.1c0 0-2.1 4.3-0.4 7.3 1.5 2.5 0.9 5.8 0.9 6.5 0 0.9 3.9-3.6 3.3-4 0 0 2.6 1.9 1.2 5.3-1.4 3.4 0.4 7.1 1.8 7.6 2.6 0.8 2.1-1.1 3.5-3.1 2.2-3.2 5.4-5.3 7.4-9.7 1.6-3.4 1.3-11.8-4.6-13.3-0.1-1.5-4.2-8.9-13.8-6.1-9.7 2.8-9.5 8.4-10 10.3 0 0 9.9-1.9 10.7-0.8z"/><path class="y" d="m198.2 51.2c-1.9-2.5-5.9-5.6-12.6-3.6-7.7 2.2-9.2 6.2-9.7 8.7q0.7-0.9 1.5-1.8c1.2-1.1 2.5-1.9 3.9-2.6 2.1-1.1 4.2-2.1 6.5-2.5 3.4-0.6 6.9 0.2 10 1.6q0.2 0.1 0.4 0.2z"/><path class="i" d="m193.6 70.6c-0.1 2.1-1.4 3.6-2.8 3.5-1.5 0-2.6-1.8-2.5-3.8 0.2-2 1.4-3.6 2.9-3.5 1.5 0.1 2.6 1.8 2.4 3.8z"/><path class="z" d="m258.7 246.2l13.3 2.3 35.6-111.8-13.2-2.3z"/><path class="A" d="m273.9 243.3c-5.7 0.3-10.5 0.4-14.3 0l-3.2 7.7c5.4 0.8 9.9 0.4 15.3 0z"/><path class="A" d="m292.2 139.8l13.7 4.5c0 0 2.9-9.5 2.6-9.9-0.8-1.3-11.6-4-11.4-3.7 0 0 0.6-2.5-0.8-2.4-1.4 0.2-4.1 11.5-4.1 11.5z"/><path class="z" d="m358.3 246.7l-13.3 2.3-35.6-111.8 13.2-2.3z"/><path class="B" d="m321.6 153.8h-26.6v-5.1h26.6z"/><path class="B" d="m329.7 180.3h-29.5v-5.7h29.5z"/><path class="B" d="m337.4 205h-29.5v-5.8h29.5z"/><path class="B" d="m345.7 229.4h-29.5v-5.8h29.5z"/><path class="A" d="m343 243.7c5.7 0.3 10.8 0.4 14.6 0l3 7.2c-5.4 0.8-10 0.4-15.4 0z"/><path class="A" d="m310.8 144.8l14.7-3.8c0 0-3.1-13.2-5-12.6-1.9 0.6-1.1 3.5-1.1 3.5 0 0-10.8 2.1-10.9 3-0.1 0.8 2.3 9.9 2.3 9.9z"/><path class="B" d="m312.7 145.5h-31.7v-5.2h31.7z"/><path class="C" d="m302.9 140.3h-19.6v-19.3h19.6z"/><path class="u" d="m302.9 137.7h-19.7v-9.7h19.7z"/><path class="C" d="m303.2 121h-20.2v-1.7h20.2z"/><path class="D" d="m302.9 123.5h-19.6v-2.5h19.6z"/><path class="u" d="m303.4 119.1c-0.3-0.5-2.2-0.4-2.2-0.4-3.3-0.3-15.9 0.2-15.9 0.2-0.7 0.4 0.8 2.5 2.1 2.3 1.2-0.2 2.1-0.9 2.8-0.3 0.7 0.7-0.1 3-0.2 4.1-0.2 1.1-0.1 3.2 1.3 2.6 1.4-0.5 0.2-3.9-0.2-5.8-0.3-1.8 1.6-1.6 2-1.3 0.5 0.4 0.3 0.8 0 2-0.3 1.3 0.9 1.6 1.5 1.3 0.6-0.2-0.2-2 0.2-3 0.3-0.9 2.7-0.5 2.7 0.8 0 1.3-0.1 3 0.9 2.8 1.1-0.1 0.1-2.7 0.7-2.9 0.6-0.3 0.5 2.2 0.6 2.6 0 0.5 0 2.1 1.2 1.7 1.1-0.4-0.2-5.3 0.3-5.4 0.4-0.1 0 2 0.7 1.9 0.5-0.1 0.4-1.4 0.2-2.3q0.3 0 0.6 0.2c0.7 0.2-0.1 3.3 0 4.1 0.1 0.7 0.5 0.8 1.3 0.2 0.8-0.6-0.2-5-0.6-5.4z"/><path class="E" d="m283.9 103.2l-11.7 89.7h-7.3l0.5-74.9z"/><path class="F" d="m263.1 192.9c0 0-4.8 6.4 0 6.6 4.7 0.2 21 0.5 20-1.7-0.9-2.2-11-4.9-11-4.9z"/><path class="G" d="m261 198c0.1 0.8 0.6 1.4 2.1 1.5 4.7 0.2 21 0.5 20-1.7q-0.1-0.4-0.6-0.8c-7.6 2-18 1.3-21.5 1z"/><path class="o" d="m254.8 192.9c0 0-4.8 6.4 0 6.6 4.7 0.2 21 0.5 20-1.7-0.9-2.2-11.1-4.9-11.1-4.9z"/><path class="p" d="m252.7 198c0.1 0.8 0.6 1.4 2.1 1.5 4.7 0.2 21 0.5 20-1.7q-0.2-0.4-0.6-0.8c-7.7 2-18 1.3-21.5 1z"/><path class="n" d="m257.1 99.3c0 0-6.2 8.7-6.2 23.3 0 14.6 3.9 70.3 3.9 70.3h8.9c0 0 7.1-71.7 7.8-74.3 0.6-2.6 11.5-6.6 12.4-15.4 0.5-4.4-26.8-3.9-26.8-3.9z"/><path class="H" d="m271.8 55.4c0 0 4.9-3.4 8-3.2 3.1 0.2 7.5 0.2 9.2 0 1.7-0.2 14.7-1.9 17.2-3.2 2.4-1.3 16.7-16.3 16.7-16.3l5.9 2.9c0 0-15.7 21-18.8 22.2-3.1 1.3-27.7 8.6-28.1 8.9-0.4 0.3-10.1-11.3-10.1-11.3z"/><path class="j" d="m298 50.9c-4 0.7-8.1 1.2-9 1.3-1.7 0.2-6.1 0.2-9.2 0-3.1-0.2-8 3.2-8 3.2 0 0 9.7 11.6 10.1 11.3 0.3-0.2 10.4-3.2 18.5-5.7-0.8-3-1.8-7.2-2.4-10.1z"/><path class="l" d="m300.4 61c-1.2-2.8-2-6.2-2.4-10.1 0 0 1.4-1.6 3.9-0.7 0.3 3.4 0.9 6.6 2.2 9.6 0 0-1.6 1.9-3.7 1.2z"/><path class="H" d="m328.8 35.6c0 0 4.8-3 5-3.7 0.2-0.7-2.1-4.6-2.1-4.6l-7.8 6.7z"/><path class="I" d="m325.2 8.5c0 0 1.4-5.9 2.5-6.5 1.1-0.6 16.6 2.9 16.6 2.9l-1.1 6z"/><path class="J" d="m325.2 8.5l18 2.4-0.5 3.7c-0.2 1-1 1.8-2.1 2l-8.7 1.3-6.3-3.1c-0.9-0.5-1.4-1.5-1.2-2.5z"/><path class="K" d="m330.5 16.1c0 0-4.4 13.5-3.6 15.7 0.6 1.4 3.8 2.1 4.5 0.3 0.5-1.6 2.3-15.7 2.3-15.7z"/><path class="J" d="m330.5 16.1c0 0-0.4 1.1-0.8 2.4 1.7 0.1 3.7 0.1 3.6 1 0.2-1.9 0.4-3.1 0.4-3.1z"/><path class="u" d="m326 4.8c0 0 0.7-3.8 2.4-3.9 1.7-0.2 2.1 0.2 2.8 0.1 0.8 0 1.7-1.1 3.6-0.6 1.9 0.5 1.1 1 3.1 1.5 2.1 0.6 4.2-0.2 5.4 0.4 1.2 0.7 3.2 2.9 2.8 4.6-0.5 1.7-0.9 1.4-1 2.1-0.1 0.8-1.5 1-1.6 0.3-0.1-0.6 0.1-2-0.3-1.9-0.3 0-1.7 0.1-3.1 0.7-1.4 0.6-3.4-0.1-3.6-0.2-0.3-0.1 0.5 0.4-0.7-0.5-1.3-0.9-4.1-0.6-5.6-0.6-1.5 0-4.3-0.4-4.2-2z"/><path class="H" d="m322.9 32.7c0 0 0.9-5 2.3-6.8 1.5-1.8 0.7-4.9 1.8-4.9 1.1-0.1 1.4 2.3 0.9 4.3-0.5 2.1 0 2.6 0 4.6 0.1 2.1-0.2 4.1-2.1 4.8"/><path class="H" d="m331.7 22.1c0.7-0.5 3.4-2.1 3.7-0.3 0.2 1.9-4.3 3.9-5.3 3.7-0.9-0.1-0.7-1.8 1.6-3.4z"/><path class="H" d="m331.3 25c0.8-0.5 3.4-2.1 3.7-0.2 0.3 1.8-4.2 3.8-5.2 3.7-1-0.1-0.8-1.8 1.5-3.5z"/><path class="H" d="m331.7 27.3c0.7-0.5 3.4-2.1 3.7-0.2 0.2 1.8-4.3 3.8-5.3 3.7-0.9-0.1-0.7-1.8 1.6-3.5z"/><path class="H" d="m332.5 29.8c0.7-0.5 3.1-1.9 3.4-0.3 0.2 1.7-3.9 3.5-4.8 3.3-0.9-0.1-0.7-1.6 1.4-3z"/><path class="m" d="m262.4 52.8c-0.1 0.1-4.4 4.8-3.6 13.9 0.7 7.7 2.8 14.3 2 18.8-1.1 5.8-6.2 17.6-6 16.9 0 0 15.5 8.6 29.4 2.3-0.5-6.1-2.4-12.3-0.9-19.3 1.3-6 3.1-10.8 2.2-14.8-1.3-5-6.2-13.1-6.2-13.1z"/><path class="L" d="m261.5 18.1c0 0 3.8-5.8 11.7-3 8.2 2.9 8.7 11.8 6.3 16.1-2.4 4.3 2.2 24-4.5 23.9-6.6-0.1-13.1-7.5-13.9-14.1-0.7-6.6 0.4-22.9 0.4-22.9z"/><path class="H" d="m273.8 43.6c0 0-0.1 6.8 2.1 9.6 2.3 2.7 3.4 4.3 3.4 4.3-0.5 1.1-7.5-0.6-17.5-3.7 0 0 3.6-5.6 1.3-11.4z"/><path class="H" d="m276.6 22.6c1.9 2.3 2.4 6.2 4.5 7.7 1.5 1.2 1.8 0.1 2.3 1.1 0.5 1 1.7 10.2-2.8 12.5-3.7 2-14.4 3.5-20.2-1.6-3.9-3.5-10.3-13.1-5.3-18.4 9.3-9.9 18.8-4.7 21.5-1.3z"/><path class="M" d="m275.5 28.9q0.6-1 1.1-2.1c0.4-1 0.7-2.1 0.8-3.1q-0.3-0.6-0.8-1.1c-1.1-1.5-3.5-3.2-6.6-4-0.5 0.1-0.9 0.4-1.3 0.7-1.8 1.4-2.1 4-2.2 6.2q-0.4 5.8-0.8 11.7l1.2 4.1c0.7-3.5 3.2-6.5 5.7-9.1 1-1 2.1-2 2.9-3.3z"/><path class="L" d="m277.1 23c1.7 2.6 2.9 8.3 6.5 8 0.1 0 0.2 0.1 0.2 0.1q0.2 2.3 0.2 4.7c0 0.2-0.4 0.3-0.4 0 0-1-0.1-2.8-0.3-3.8-0.2-0.6-0.9-0.5-1.4-0.7-0.7-0.2-0.9-0.3-1.3-0.7-1.7-1.7-2.5-5.4-3.6-7.6-0.1-0.1 0 0 0.1 0z"/><path class="L" d="m276.2 30.7c0.4 0.7 1 1.2 1.3 1 0.3-0.1 0.2-0.9-0.2-1.6-0.4-0.8-1-1.3-1.3-1.1-0.3 0.2-0.2 0.9 0.2 1.7z"/><path class="L" d="m283.5 36.5q-2.4-0.2-4.7-0.6c-0.3-0.1-0.7-0.1-0.9 0.1-0.1 0.2-0.1 0.4-0.1 0.6 0.2 2 1.7 3.3 3.1 3.5 1.3 0.1 2.6-3.6 2.6-3.6z"/><path class="N" d="m281.9 37.5c0.5-0.2 0.8-0.6 1.1-1.1q-2.1-0.1-4.2-0.5c-0.3-0.1-0.7-0.1-0.9 0.1q-0.1 0.2-0.1 0.4c0.9 0.6 1.9 1.1 2.9 1.2 0.4 0 0.8 0 1.2-0.1z"/><path class="O" d="m253.3 24.6c1.1-6.1 7.9-9.1 15.1-8.4 8.2 0.7 9.2 6.1 7 9.8-2.3 3.7-5.1 8.2-6.1 10.9-1.7 4.7-1.7 8.9 0.4 10.9 6.2 5.8 7.2 11.3 4.4 12.3-2.9 1-6.7-5.9-10.8-5-2 0.5-15.9 2.2-10-30.5z"/><path class="P" d="m268.4 16.2c-3.8-0.4-7.1 0.4-9.6 1.6 2.1-0.7 4.5-1 6.8-0.8 2.6 0.1 5.5 1 6.9 3.2 0.5 0.7 0.7 1.5 0.9 2.3 0.4 1.8 0.4 3.6 0 5.3-0.1 0.4-0.1 1.2-0.3 1.8 0.8-1.2 1.5-2.5 2.3-3.6 2.2-3.7 1.2-9.1-7-9.8z"/><path class="P" d="m269.7 47.8c-0.9-0.8-1.4-2.1-1.6-3.6q-0.3 1.6 0 3.3c0.3 2.2 1.4 4.3 3.2 5.6 0.8 0.6 1.7 1.1 2.3 2 0.7 1 0.7 2.5 0.6 3.8q-0.1 0.6-0.3 1.3 0.1-0.1 0.2-0.1c2.8-1 1.8-6.5-4.4-12.3z"/><path class="H" d="m262.4 56.5c-1.5 0.3-4.5 4.2-4.4 10.5 0.1 6.3 1.4 24.8 3.8 30.6 2.3 5.9 17.3 18.8 17.3 18.8l4.8-3.8c0 0-12.6-16.6-13.6-20-1.1-3.3 3.4-38.5-7.9-36.1z"/><path class="x" d="m270.2 84.7c0.3-11.3 0.5-30-7.8-28.2-1.5 0.3-4.5 4.2-4.4 10.5 0.1 3.5 0.5 10.9 1.3 17.7 2.8 0.5 6.6 0.8 10.9 0z"/><path class="l" d="m259.7 88.7c-0.7 0-1.3-2.8-0.4-4 3.4 0.4 7 0.3 10.9 0 0.5 0.5 0.7 2.6-0.1 4-3.6 0.5-7.1 0.6-10.4 0z"/><path class="H" d="m283.9 112.6c1.6 0 3.9 1.4 4.7 3.1 0.7 1.4 3.8 3.8 2.7 4.1-2.4 0.6-3.7-2.3-4.2-1.9 0 0 0.1 3.3 2.8 5.5 2.7 2.2-1.9 2-3.8-1.7 0 0 0.4 2.1 1.5 2.9 1 0.8 1.3 1.1 0.8 1.6-0.4 0.5-1.7 0.1-1.7 0.1 0 0-0.3 0.7-1.8 0.2 0 0-0.9 0.6-1.8-0.2-0.9-0.8-1.5-1.6-2.1-2.8-0.7-1.2-1.9-7.1-1.9-7.1z"/><path class="B" d="m269.7 153.8h26.7v-5.1h-26.7z"/><path class="B" d="m261.7 180.3h29.5v-5.7h-29.5z"/><path class="B" d="m253.9 205h29.6v-5.8h-29.6z"/><path class="B" d="m245.7 229.4h29.5v-5.8h-29.5z"/><path class="Q" d="m247.9 239.5h76.6v3.1h-77.9z"/><path class="J" d="m334.7 246.7l-13.3 2.3-35.6-111.8 13.2-2.3z"/><path class="t" d="m319.4 243.7c5.7 0.3 10.6 0.4 14.4 0l3.2 7.2c-5.4 0.8-10 0.4-15.4 0z"/><path class="t" d="m287.2 144.8l14.7-3.8c0 0-3.1-13.2-5-12.6-1.9 0.6-1.1 3.5-1.1 3.5 0 0-10.8 2.1-10.9 3-0.1 0.8 2.3 9.9 2.3 9.9z"/><path class="J" d="m235.1 246.7l13.3 2.3 35.6-111.8-13.2-2.3z"/><path class="t" d="m250.4 243.7c-5.7 0.3-10.8 0.4-14.6 0l-3 7.2c5.4 0.8 10 0.4 15.4 0z"/><path class="t" d="m268.6 140.3l13.7 4.5c0 0 2.9-9.5 2.6-9.9-0.9-1.3-11.6-4-11.4-3.7 0 0 0.6-2.5-0.8-2.4-1.4 0.2-4.1 11.5-4.1 11.5z"/><path class="t" d="m382.4 222.7c0 0 0 2.5-0.8 2.8-0.9 0.2-15.6-8.2-16.2-7.4-0.9 1.1-0.8 6.1-0.3 6.5 0.5 0.4-0.3 0.9-0.3 0.9 0 0-1.2 0.1-1.3-0.7-0.1-0.7 0-8.8 1.5-8.4 2.6 0.7 15.4 7.7 15.7 7.4 0.3-0.3 0.3-1.6 0.3-1.6z"/><path class="t" d="m388.3 203.6c0 0-2.6-3.4-5.9-1 0 0 0.9 2.4 2.7 2.4 1.7 0 3.2-1.4 3.2-1.4z"/><path class="t" d="m405.8 80.1l3.1 0.5-25.5 142.5-3-0.8z"/><path class="t" d="m363.6 223.6c1.3-2.5 3.7-3.8 5.2-2.9 1.5 0.8 1.6 3.5 0.3 5.9-1.4 2.5-3.7 3.8-5.2 2.9-1.5-0.8-1.7-3.5-0.3-5.9z"/><path class="t" d="m392.5 245.2c-1.7 0.2-27.8-14.6-29-15.9l4.8-8.8c6.5 2.7 27.3 14.5 28.7 15.9z"/><path class="t" d="m391.4 239c1.4-2.4 3.7-3.7 5.2-2.9 1.6 0.9 1.7 3.6 0.3 6-1.3 2.4-3.6 3.7-5.2 2.9-1.5-0.8-1.6-3.5-0.3-6z"/><path class="t" d="m391.9 239.3c1.2-2 3.1-3 4.3-2.3 1.2 0.6 1.3 2.8 0.2 4.8-1.1 2-3 3.1-4.2 2.4-1.3-0.7-1.4-2.9-0.3-4.9z"/><path class="t" d="m392.6 239.8c0.8-1.4 2.1-2.1 3-1.7 0.8 0.5 0.8 2 0 3.4-0.7 1.5-2.1 2.2-2.9 1.8-0.8-0.5-0.9-2-0.1-3.5z"/><path class="t" d="m380.1 221.8l2.3-19.2c1.8 1.9 3.7 1.6 5.9 1l-4.1 18.8c-0.8 2.3-3.8 1.3-4.1-0.6z"/><path class="C" d="m404.3 197.4h-47.7v-5.8h47.7z"/><path class="C" d="m358.4 193.2l3.1 57.5h37.8l3.1-57.5z"/><path class="D" d="m358.6 197.4h43.5l-0.2 3.5h-43.1z"/><path class="u" d="m399.5 247.2h-38.2l-2.3-43.4h42.8z"/><path class="C" d="m359.2 206.8h42.4l-0.1 1.9h-42.2z"/><path class="C" d="m361.2 244.1h38.4l0.1-2.3h-38.7z"/><path class="R" d="m48.4 222.4c0 0-16.5-16-16.2-48.5 0.3-32.5 21.1-61 18.4-71.5 0 0 30.5 43.5 24.5 79.9-5.9 36.3-26.7 40.1-26.7 40.1z"/><path class="e" d="m52.1 113.2q0 0 0.1 0.8c0.7 3.5 3.5 18.8 3.5 35.4 0 6.9-0.5 14-1.8 20.5-1.8 8.7-2.7 19.2-2.7 28 0 3.8 0.2 7.4 0.6 10.3 0.3 3 0.9 5.3 1.8 6.9 0.1 0.3 0.5 0.4 0.8 0.2 0.2-0.2 0.3-0.6 0.2-0.9-0.8-1.3-1.3-3.5-1.7-6.4-0.4-2.8-0.6-6.3-0.6-10.1 0-8.7 1-19.1 2.7-27.7 1.4-6.7 1.9-13.9 1.9-20.8 0-19.1-3.7-36.4-3.7-36.5-0.1-0.3-0.4-0.5-0.7-0.5-0.3 0.1-0.5 0.5-0.4 0.8z"/><path class="e" d="m60.1 124.8q0 0-0.1 0.4c-0.2 0.9-0.7 3.4-1.5 5.9-0.7 2.5-1.8 5.2-3 6.5-0.2 0.2-0.2 0.7 0 0.9 0.2 0.3 0.6 0.3 0.8 0 1.6-1.8 2.8-5.2 3.6-8.1 0.9-2.9 1.3-5.4 1.3-5.4 0.1-0.3-0.1-0.7-0.4-0.8-0.4 0-0.7 0.2-0.7 0.6z"/><path class="e" d="m56.4 156.6h-0.1c-0.6-0.5-6.2-5-13.2-17.6-0.2-0.3-0.6-0.4-0.8-0.2-0.3 0.2-0.4 0.6-0.2 0.9 7.6 13.6 13.6 18 13.6 18 0.3 0.2 0.7 0.1 0.8-0.2 0.2-0.3 0.1-0.7-0.1-0.9z"/><path class="e" d="m53.2 180.8c0 0 3.3-2.6 7.2-6.8 4-4.2 8.6-10 11.1-16.5 0.1-0.4 0-0.8-0.3-0.9-0.3-0.2-0.7 0-0.8 0.3-2.4 6.3-6.9 12-10.7 16.2-2 2-3.8 3.7-5.1 4.9q-1 0.8-1.5 1.3-0.3 0.2-0.4 0.3l-0.2 0.2c-0.2 0.2-0.3 0.6-0.1 0.9 0.2 0.3 0.5 0.3 0.8 0.1z"/><path class="e" d="m52.5 187.5l-0.1-0.1c-1-0.7-8.8-7.3-14.2-19-0.1-0.3-0.5-0.4-0.7-0.2-0.3 0.1-0.4 0.5-0.3 0.8 5.9 12.8 14.6 19.5 14.6 19.6 0.3 0.2 0.6 0.1 0.8-0.2 0.2-0.3 0.1-0.7-0.1-0.9z"/><path class="S" d="m59.2 226.9c0 0 27.8-13.6 32.6-30.5 4.7-16.9 7.3-44.7 14.2-51 0 0-49 14.8-51 58.1-1.4 10.4 0.1 18.1 4.2 23.4z"/><path class="T" d="m99.2 150.5l-0.2 0.2c-1.4 1.6-10.7 12.5-20 27.1-9.4 14.6-18.8 32.8-20.4 49 0 0.4 0.2 0.7 0.6 0.7 0.3 0.1 0.6-0.2 0.6-0.5 1.5-16.3 11.4-35.1 21-49.8 4.8-7.4 9.5-13.7 13.1-18.3 1.8-2.3 3.2-4.1 4.3-5.4q0.8-0.9 1.3-1.5 0.2-0.2 0.3-0.4l0.2-0.1c0.2-0.3 0.2-0.7 0-1-0.2-0.2-0.6-0.2-0.8 0z"/><path class="T" d="m82.2 174.8v-0.2c0-1.1 0.1-7.7 2.1-15.4 0.1-0.4-0.1-0.7-0.4-0.8-0.3-0.1-0.6 0.1-0.7 0.4-2 7.9-2.1 14.6-2.1 15.8q0 0.2 0 0.2c0 0.4 0.3 0.7 0.6 0.7 0.3 0 0.6-0.3 0.5-0.7z"/><path class="T" d="m86.8 168.1l10.2-2.7c0.3-0.1 0.5-0.4 0.4-0.8-0.1-0.3-0.4-0.6-0.7-0.5l-10.1 2.8c-0.3 0.1-0.5 0.4-0.5 0.8 0.1 0.3 0.4 0.5 0.7 0.4z"/><path class="T" d="m69.7 195.7q0 0 0.5 0c2.5 0 13.3-0.3 21.9-6.2 0.2-0.2 0.3-0.6 0.2-0.9-0.2-0.3-0.6-0.4-0.8-0.2-8.2 5.7-18.9 6-21.3 6q-0.5 0-0.5 0c-0.3 0-0.6 0.3-0.6 0.7 0 0.3 0.3 0.6 0.6 0.6z"/><path class="T" d="m62.7 213.2q0 0-0.2-0.5c-0.5-2.4-2.7-12.6-2.7-22.9q0-0.9 0-1.8c0-0.3-0.2-0.6-0.6-0.6-0.3 0-0.5 0.2-0.6 0.6q0 0.9 0 1.8c0 12 2.9 23.7 2.9 23.7 0.1 0.4 0.4 0.6 0.8 0.5 0.3-0.1 0.4-0.5 0.4-0.8z"/><path class="S" d="m54.5 224.9c0.1 1-41.9-0.7-45.9-38.1-3.9-37.4-8.1-35.8-8.1-35.8 0 0 36 9.8 44.4 33.4 8.3 23.7 7.7 29.4 9.6 40.5z"/><path class="T" d="m54.7 224.3q0 0-0.1-0.1c-1.9-1.2-17.2-11.3-22.7-29.3-3-9.9-9-19.4-14.3-26.5-5.3-7.1-9.9-11.7-9.9-11.7-0.2-0.2-0.6-0.2-0.8 0.1-0.2 0.2-0.2 0.6 0 0.9q0 0 0.2 0.2c1 1 5.6 5.8 10.6 12.7 5 6.8 10.4 15.7 13.2 24.7 3 9.9 8.8 17.4 13.9 22.5 5 5.1 9.4 7.6 9.4 7.7 0.3 0.1 0.6 0 0.8-0.3 0.1-0.3 0-0.7-0.3-0.9z"/><path class="T" d="m18.3 160.7c0 0 0 0.4 0.1 1.3 0 0.8 0 2 0 3.4 0 1.8 0 3.8-0.2 5.9 0 0.3 0.2 0.6 0.5 0.7 0.3 0 0.6-0.2 0.6-0.6 0.2-2.1 0.3-4.2 0.3-6 0-2.8-0.2-4.8-0.2-4.9 0-0.3-0.3-0.6-0.6-0.6-0.3 0.1-0.5 0.4-0.5 0.8z"/><path class="T" d="m9.5 184.8c0.1 0 6.4 2.9 19.1 3.9 0.4 0 0.6-0.3 0.7-0.6 0-0.4-0.3-0.7-0.6-0.7-6.3-0.5-11-1.5-14.1-2.3-1.6-0.4-2.8-0.8-3.5-1.1q-0.6-0.2-0.9-0.3l-0.2-0.1h-0.1c-0.3-0.2-0.6 0-0.7 0.3-0.1 0.4 0 0.7 0.3 0.9z"/><path class="T" d="m42 184.2c0 0.1 0 0.4-0.1 1-0.2 1.9-0.9 6-1.8 10.3-0.9 4.3-2.2 8.7-3.6 11.3-0.2 0.3-0.1 0.7 0.1 0.9 0.3 0.2 0.7 0.1 0.8-0.2 1.8-3.3 3.2-8.7 4.2-13.5 0.5-2.5 0.9-4.7 1.1-6.5q0.2-1.3 0.3-2.1c0.1-0.6 0.1-1 0.1-1.2 0-0.4-0.2-0.7-0.5-0.7-0.4 0-0.6 0.3-0.6 0.7z"/><path class="U" d="m81.8 217.5h-62.5c-1 8.9-2.4 17.6 12.1 33.2h38.3c14.5-15.6 13.1-24.3 12.1-33.2z"/><path class="V" d="m83 218.6h-65.2l-1.1-7.7h67.7z"/><path class="W" d="m20.3 233.9c20.4 2.5 40.6 2.6 60.6 0 0.8-2.4 1.2-4.5 1.4-6.6q-31.7 1.9-63.4 0c0.1 2.1 0.6 4.2 1.4 6.6z"/></svg>