<svg version="1.2" xmlns="http://www.w3.org/2000/svg" viewBox="0 0 424 219" width="424" height="219"><style>tspan{white-space:pre}.a{fill:#0290be}.b{fill:#ffb077}.c{fill:#729cc1}.d{fill:#495b9b}.e{fill:#c6d9e0}.f{fill:#ebf4f7}.g{fill:#fff}.h{fill:#3b3854}.i{fill:#5d7984}.j{fill:none;stroke:#9eb7c6;stroke-miterlimit:10;stroke-width:2}.k{fill:#556ea7}.l{fill:none;stroke:#495b9b;stroke-miterlimit:10;stroke-width:2}.m{fill:#f1845b}.n{fill:#8d403a}.o{fill:#baa570}.p{fill:#f4ad31}.q{fill:#a3c6ce}.r{fill:#fccb4f}.s{fill:#61544f}.t{fill:#83a1b2}.u{fill:#fc4f4f}.v{fill:#ff6d66}.w{fill:#d1374d}.x{fill:#e03f53}.y{fill:#90aaaf}</style><path class="a" d="m423.5 218.3h-422.6v-12.6h422.6z"/><path class="b" d="m216.4 63.1c0 0-4.6 6.8-9.2 19.1-4.6 12.3-4.3 15.7-7.8 16.1-3.5 0.5-36-4.5-36-4.5l-2.9 17.9c0 0 40.6 12 49.4 9.2 8.7-2.8 27.6-31.4 27.6-31.4z"/><path class="c" d="m218.1 114.5l-15.1-20c0 0-4-0.4-6.4 3.7 0 0 6.9 23.3 11.8 23.6 4.9 0.3 10.6-6.1 9.7-7.3z"/><path class="d" d="m237.5 89.5l-21.1-26.4c0 0-4.6 6.8-9.2 19.1-2.2 6-3.3 9.8-4.2 12.3l15.1 20c9-9.3 19.4-25 19.4-25z"/><path class="e" d="m11.9 205.7h52.9v-121.3l-7.4-35.8h-45.5z"/><path class="f" d="m167.5 84.2h-102.7l-7.4-35.7h101z"/><path class="g" d="m167.5 205.6h-102.7v-121.2h102.7z"/><path class="e" d="m153.8 135.6c0 23-16.1 41.7-36 41.7-19.8 0-35.9-18.7-35.9-41.7 0-23.1 16.1-41.8 35.9-41.8 19.9 0 36 18.7 36 41.8z"/><path class="f" d="m157 134.7c0 23.1-16.1 41.8-36 41.8-19.8 0-35.9-18.7-35.9-41.8 0-23.1 16.1-41.8 35.9-41.8 19.9 0 36 18.7 36 41.8z"/><path class="e" d="m149.6 133.9c0 17.6-12.3 31.9-27.5 31.9-15.1 0-27.4-14.3-27.4-31.9 0-17.6 12.3-31.9 27.4-31.9 15.2 0 27.5 14.3 27.5 31.9z"/><path class="h" d="m147.7 135.2c0 17.4-12.1 31.4-27.1 31.4-14.9 0-27-14-27-31.4 0-17.4 12.1-31.4 27-31.4 15 0 27.1 14 27.1 31.4z"/><path class="i" d="m120.6 103.8c-14.9 0-27 14-27 31.4q0 1.5 0.1 3.1c8.1-6.2 29.4-22.6 39.9-30.7-3.9-2.5-8.3-3.8-13-3.8z"/><path class="i" d="m95.9 148l45.2-33.3q-1.5-2-3.2-3.7c-11.2 8.3-35.6 26.6-43.4 32.5q0.6 2.3 1.4 4.5z"/><path class="i" d="m147.7 135.1c-9.3 7.4-30.1 23.9-36.5 29.6 2.9 1.2 6.1 1.9 9.4 1.9 15 0 27.1-14 27.1-31.4q0-0.1 0-0.1z"/><path class="f" d="m163.4 193.1c0 5-2.9 8.9-6.4 8.9-3.5 0-6.4-3.9-6.4-8.9 0-4.9 2.9-8.9 6.4-8.9 3.5 0 6.4 4 6.4 8.9z"/><path class="e" d="m125 58.1l-0.7 1.3 3.4 15.8h32.3l0.5-0.6z"/><path class="g" d="m160.5 74.6h-31.9l-3.6-16.5h32.2z"/><path class="h" d="m158.6 73.7h-28.5l-3.2-14.7h28.8z"/><path class="e" d="m116 66.4c0 3.7-2.2 6.8-4.8 6.8-2.6 0-4.8-3.1-4.8-6.8 0-3.8 2.2-6.9 4.8-6.9 2.6 0 4.8 3.1 4.8 6.9z"/><path class="e" d="m116 59.5h-4.8v13.7h4.8z"/><path class="g" d="m120.7 66.4c0 3.7-2.1 6.8-4.7 6.8-2.7 0-4.8-3.1-4.8-6.8 0-3.8 2.1-6.9 4.8-6.9 2.6 0 4.7 3.1 4.7 6.9z"/><path class="j" d="m106.4 84.4l-5.1-23.2h-41.3-48.1"/><path class="k" d="m247.8 42.7c0 0 16.9-1 32.6 16.7 15.8 17.8 19.1 61.5 19.1 61.5l-60.7 15.3c0 0-0.5-38.3-14.3-48.8-19.5-14.9-9.2-24.3-3.9-28 5.1-3.3 27.2-16.7 27.2-16.7z"/><path class="l" d="m229.8 66.4c0 0 3.2 16.4 13.4 28.1 10.3 11.7 7.6 36.7 7.6 36.7"/><path class="c" d="m229.8 66.4c7.5-7 12.2-15.6 14.1-25.5 1-1 9.4-1.3 10.7 1.8 1.3 2.9 0.4 23.7 0.4 23.7 0 0-14.1-7.1-25.2 0z"/><path class="c" d="m229.8 66.4c0 0-11-2.5-14.5 1.7 0 0 9.8-22.6 11.8-23.4 2-0.7 6.1 4.4 6.1 4.4z"/><path class="m" d="m205 34.1c0.4 3.1-1.4 5.9-4 6.2-2.7 0.4-5.1-1.8-5.5-4.9-0.4-3.1 1.4-5.9 4-6.2 2.6-0.4 5.1 1.9 5.5 4.9z"/><path class="b" d="m199.6 27.3c1.3 15 5 29 22.5 24.8 21.1-5.1 19.7-24.4 19.7-31.5 0-7.1-6.8-21.1-26.5-18.3-13.6 2-16.6 15.3-15.7 25z"/><path class="m" d="m218.8 9.1l-18 5.9c-1.3 4.1-1.6 8.5-1.2 12.3q0 0.2 0 0.3c3-0.4 8.8-1.1 13.1-0.8 8.3 0.5 21.9-6.2 24.1-6.6 2.2-0.5-18-11.1-18-11.1z"/><path class="n" d="m241.8 20.6c0 0 2.5 5.3 5 5.5 2.5 0.2 5.3 1.3 1 4.3 0 0 7.4 4.1-0.9 7.1 0 0-0.5 4.8-4 2.9 0 0 0.9 3.4-2.3 1.9-3.2-1.5-4.7-6.2-4.7-6.2l-2.2-18.4z"/><path class="b" d="m236.5 36.1c0 0 7.6 5.8 12.2 6.9 0 0-12.2 19.3-18.9 23.4 0 0-6-13.1-10.1-15.2z"/><path class="m" d="m240.5 38.9c-2.3-1.5-4-2.8-4-2.8l-16.8 15.1c2.4 1.2 5.4 6.1 7.5 10 10.5-3.7 12.9-18.3 13.3-22.3z"/><path class="b" d="m245.4 30.4c0 3.2-2.1 5.7-4.8 5.7-2.6 0-4.7-2.5-4.7-5.7 0-3.1 2.1-5.6 4.7-5.6 2.7 0 4.8 2.5 4.8 5.6z"/><path class="n" d="m229.5 17.7c0.2 0.5 5 12.1 2.9 18.6-2 6.5-1.8 4.9-1.8 4.9 0 0-2.5-6.4-17.7-3.1-8.4 1.9-4.2 8.3-4.2 8.3 0 0-5.2-2.1-6.8-5.8 0 0 1.1 13.6 6.5 14.5 0 0 0.9 4.8 6.3 4.3 5.5-0.5 10.7-5.6 10.7-5.6 0 0 1.8 3.7 7.5-1.8 5.7-5.4 7.2-12 5.5-32.8z"/><path class="k" d="m198.8 24.8l43-4.2c0 0 1.5-21.2-22.7-19.7-24.2 1.4-20.3 23.9-20.3 23.9z"/><path class="c" d="m233.7 21.4c-0.3-1.4-22.7-4.8-26.6-4.3-3.9 0.6-21.6 8.2-18.6 10.8 0.7 0.6 12.4-5.5 30.9-3.5z"/><path class="n" d="m223 31.1c0 0.9-0.5 1.6-1.1 1.6-0.6 0-1.1-0.7-1.1-1.6 0-0.9 0.5-1.6 1.1-1.6 0.6 0 1.1 0.7 1.1 1.6z"/><path class="n" d="m209.4 31.8c0 0.9-0.5 1.6-1.1 1.6-0.6 0-1.1-0.7-1.1-1.6 0-0.9 0.5-1.6 1.1-1.6 0.6 0 1.1 0.7 1.1 1.6z"/><path class="n" d="m216.4 27.7c-0.1-1 1.8-2.1 3.7-2.6 1.8-0.4 5.2-0.1 5.3 1.3 0 1.5-3.4 0.8-4.9 1-1.5 0.2-4 2.5-4.1 0.3z"/><path class="n" d="m210.2 26.1c-0.3-1-2.5-1.3-4.4-1-1.9 0.3-5 1.9-4.5 3.2 0.5 1.4 3.4-0.5 4.9-0.9 1.5-0.4 4.6 0.8 4-1.3z"/><path class="n" d="m210.3 27.9q-0.2 1.2-0.2 2.4c0 2 0.3 4 1 5.9 0.1 0.4 0.3 0.9 0.7 1.3 0.4 0.3 0.8 0.4 1.2 0.4 0.4 0 0.8-0.1 1.2-0.2q1.5-0.4 2.8-1.1c0.3-0.2 0.4-0.5 0.3-0.7-0.2-0.3-0.5-0.4-0.8-0.3q-1.2 0.7-2.6 1.1c-0.3 0.1-0.6 0.2-0.9 0.2q-0.3 0-0.5-0.2c-0.2-0.1-0.3-0.4-0.4-0.8-0.6-1.8-0.9-3.7-0.9-5.6q0-1.1 0.1-2.3c0.1-0.3-0.1-0.5-0.4-0.6-0.3 0-0.6 0.2-0.6 0.5z"/><path class="g" d="m211.4 42c0.3 0 10.4-1.5 12.6-3.4 0 0 2.6 5.9-4.2 7.1-6.8 1.3-8.4-3.7-8.4-3.7z"/><path class="b" d="m252.4 43.1c0 0 14.4-0.7 23.9 1.9 9.5 2.6 38.7 7.4 43.2 14.4 4.6 7 12.9 43.1 12.9 43.1l-16.5 5.5c0 0-10.2-26.8-16-29.3-5.8-2.6-30.6 0.1-34-1-3.3-1.2-13.5-34.6-13.5-34.6z"/><path class="k" d="m276.3 45c-9.5-2.6-23.9-1.9-23.9-1.9 0 0 10.2 33.4 13.5 34.6 3.4 1.1 28.2-1.6 34 1q0.5 0.2 1 0.6l12.3-24.3c-10.4-4.7-29.5-8-36.9-10z"/><path class="c" d="m300.9 79.3c0 0 1.7 5.2 4 5.2 0 0 8.7-12.1 18.3-16.4 0 0 1.3-12.1-10-13.1 0 0-10.3 10.5-12.3 24.3z"/><path class="d" d="m251.7 126.4c0 0-46.6-21.2-56.6-7.3-10.5 14.6 1.8 60.6 1.8 60.6l26.2-1.9c0 0-6.2-27.2-2.5-27.6 3.8-0.4 60.2 23.7 63.4-15.6 2.5-30.8-32.3-8.2-32.3-8.2z"/><path class="n" d="m220.2 179.7c0 0 6.8 14.5 3.3 25.4l-14 0.6-0.1-3c0 0-9.9 3.4-18.1 3.7-8.1 0.3-23.4 0.8-19.9-9.5 3.5-10.4 20.2-8.7 21.2-8.6 1 0.1 6.6-4.5 6.6-5 0-0.4 21-3.6 21-3.6z"/><path class="o" d="m209.4 202.7l0.1 3 14-0.6c0.9-2.9 1.1-6 0.9-9.1-4.1 2.3-13 4.3-13 4.3l-2.2-1.4c-22.8 8.8-34.3 2.3-38.2-0.8-1.8 9.1 12.5 8.6 20.3 8.3 8.2-0.3 18.1-3.7 18.1-3.7z"/><path class="c" d="m221.9 168.2c0 0-11.8 5.6-27 3.1-0.2 5.2-0.4 9 2.1 13.4 0.5 1.4 20.5 4.1 27-3.4 0 0 3.1-8.7-2.1-13.1z"/><path class="k" d="m299.5 120.9c0 0 4.1 21.4-21.9 52.7l24.2-9.7c0 0 10.5 23.2 8.5 24-2.1 0.8-57.9 29.9-69.7 10.5-9.4-15.5 10.1-44.4 10.1-44.4 0 0-14.1-5.7-11.6-20.3z"/><path class="n" d="m305.2 162.7c0 0 14.1-7.4 25.2-4.6l1.3 13.5-3 0.2c0 0 3.9 9.5 4.7 17.4 0.7 7.9 2 22.7-8.5 19.9-10.6-2.8-9.7-19.1-9.7-20.1 0.1-1-4.9-6.2-5.3-6.2-0.5 0.1-4.7-20.1-4.7-20.1z"/><path class="o" d="m328.7 171.8l3-0.2-1.3-13.5c-3-0.8-6.1-0.8-9.1-0.4 2.5 3.8 4.9 12.3 4.9 12.3l-1.3 2.2c10 21.7 4.2 33.3 1.3 37.1 9.1 1.3 7.9-12.6 7.1-20.1-0.7-7.9-4.6-17.4-4.6-17.4z"/><path class="c" d="m292 167.4c0 0 8 10.1 8.6 25.5 5-0.8 9.5-2.8 13.3-6.2 0 0-0.5-19.8-8.9-24.9 0 0-9.6-0.4-13 5.6z"/><path class="p" d="m236.7 119.4c0 0 23.1 6.8 61.7-8.4 1.3 5.1 1.8 10 1.3 14.5 0 0-11.4 4.1-21.4 6.3-9.8 2.2-30 5.9-40.3 0.7-0.9-6.1-1.2-7.4-1.3-13.1z"/><path class="q" d="m243.2 136.5c0.1-0.3-2.7-10.7-1.6-12.6 1.2-2 2.3-4.1 0.7-5.6-1.6-1.5-1.6-1.5-1.6-1.5l-1 0.2c0 0 1.4 2.3 1 3.5-0.3 1.2-1.2 2.5-3.7 1.6-1.2-0.7-1.4-2.2-1.9-3.5l-0.8 0.1c0 0-0.4 2.6 0.1 3.8 0.6 1.7 1.8 2.2 3.4 2.8 1.5 0.5 2 12.1 2 12.1z"/><path class="r" d="m236.7 127.1c2.4 0.9 5.1 1.4 8.4 1.3 0 0 1.5 14.4 0.3 15.6-1.1 1.3-7.7 0.7-8.1-0.8-0.7-2.3-0.6-16.1-0.6-16.1z"/><path class="q" d="m262.3 137.2c0-0.4 3.2-12.4 1.9-14.6-1.3-2.3-2.7-4.8-0.8-6.5 1.9-1.7 1.9-1.7 1.9-1.7l1.1 0.2c0 0-1.6 2.7-1.2 4 0.4 1.4 1.5 2.9 4.4 1.9 1.3-0.8 1.7-2.5 2.3-4l0.8 0.1c0 0 0.5 2.9-0.1 4.4-0.7 1.9-2.1 2.6-4 3.2-1.7 0.6-2.3 13.9-2.3 13.9z"/><path class="s" d="m279.1 122.7c0 0-3.9-1.4-3.8-0.8 0.1 0.6 0.9 1.7 0.5 3.1-0.4 1.3-3 7.7-2.4 11.8 0.6 4.1 1 5.7 0.8 6.5-0.2 0.7 1.2 0.9 1.7 0.7 0.5-0.3 1.6-0.7 1.1-2.5-0.5-1.8-1.4-5.9-0.4-9.2 0.9-3.3 3.3-8.8 2.5-9.6z"/><path class="r" d="m258.6 128.7c7.2 0.1 16.2-1.3 21.9-3.5 0 0 1.7 17.1 0 18.5-1.7 1.4-20.4 4-21 2.3-1-2.5-0.9-17.3-0.9-17.3z"/><path class="q" d="m277.3 122.1c0 0-1.6-8.4 1.6-10.4v4.1l0.6-4.1c0 0 2.9 1.2 1.9 10.4 0 0-1.4 0.8-1.5 0.5 0-0.2-0.7-3-0.7-3l-0.4 3.1z"/><path class="s" d="m279.5 122.7c0 0 3.9-1.4 3.8-0.8-0.1 0.6-0.9 1.7-0.5 3.1 0.4 1.3 2.9 7.7 2.4 11.8-0.6 4.1-1 5.7-0.8 6.5 0.2 0.7-1.2 0.9-1.7 0.7-0.5-0.3-1.6-0.7-1.1-2.5 0.5-1.8 1.4-5.9 0.4-9.2-1-3.3-3.3-8.8-2.5-9.6z"/><path class="t" d="m301.8 131.9c0 0-9.2 5.7-6.7 15l11.7-10z"/><path fill-rule="evenodd" class="q" d="m299.2 152.2c-0.6-0.3-0.8-1-0.3-1.6l7.7-9.6c0.4-0.4 0.3-1 0-1.3l-7.5-7.1c-0.4-0.4-0.3-1 0.1-1.5l5.5-5.4c0.4-0.4 0.9-0.4 1.3-0.1l5.4 4c0.4 0.4 1 0.3 1.4-0.2 4.1-4.9 25.9-31.2 29-35.3 3.3-4.5 9.4-10.3 13.3-7 3.9 3.2-1.3 11.2-5.9 16.1-4.2 4.4-26.4 27.2-30.7 31.6-0.4 0.4-0.4 1 0 1.4l2.4 2.4c0.2 0.2 0.3 0.7 0.1 1.1-1.7 3.2-9.7 16.7-21.8 12.5zm52.5-56.8c1.2-1.2 1.3-3 0.2-4.1-1-1-2.9-1-4.1 0.2-1.2 1.2-1.3 3-0.2 4.1 1.1 1.1 2.9 1 4.1-0.2z"/><path fill-rule="evenodd" class="t" d="m316.3 134.1l-2.7-2.8c0 0 26.2-31.9 30.4-36.8 4.2-5 6.2-6.6 9.1-4.2 2.8 2.4-1.2 6.5-4.3 10.4-3.2 3.9-32.5 33.4-32.5 33.4zm35.4-38.7c1.2-1.2 1.3-3 0.2-4.1-1-1-2.9-1-4.1 0.2-1.2 1.2-1.3 3-0.2 4.1 1.1 1.1 2.9 1 4.1-0.2z"/><path class="t" d="m307.2 129.5l10 8.4c0.6 0.5 0.6 1.5-0.1 2.3l-0.9 1.2c-0.8 0.9-1.9 1.1-2.6 0.6l-10.2-8.5c-0.7-0.5-0.5-1.7 0.3-2.5l1.1-1.1c0.8-0.8 1.8-0.9 2.4-0.4z"/><path class="b" d="m315.9 108c0 0-5.7 10.9 2.1 15.1l2.5-3c0 0 6.1 6.4 8 5.8 1.9-0.7 2.1-3.5 2.1-3.5 0 0 2.6 1.2 4.3-0.4 1.6-1.6 0.4-4.5 0.4-4.5 0 0 2 0.9 3.2-0.1 1.3-1.1 0.5-3.6 0.5-3.6 0 0 1.3 0.5 2.4-0.9 1.2-1.3-4.1-9.8-9-10.4z"/><path class="u" d="m339.2 162.5h-3.7l-8.4 11.6v31.6h20.4 42.6l12-43.2z"/><path class="v" d="m402.1 162.5h-3.7l-8.3 11.6v31.6h20.4v-31.6z"/><path class="u" d="m325.3 178.9h64.8v-4.8l8.3-11.6h3.7l8.4 11.6v4.8h1.4v-5.5l-9-12.4h-67.8l-9.8 13.3z"/><path class="w" d="m390.1 181.5h-63v-2.6h63z"/><path class="x" d="m402.9 161h-4.8l-9.1 12.4v5.5h1.1v-4.8l8.3-11.6h3.7l8.4 11.6v4.8h1.4v-5.5z"/><path class="h" d="m385.3 157c0 0-33.4-0.8-34 0.2-0.6 1-0.2 3.8-0.2 3.8h32.6z"/><path class="y" d="m348.8 161q-1.1-1.7 0-3.5h9.8c-0.5 1.3-0.6 2.5 0 3.5z"/><path class="h" d="m379.5 157.8c0 0 4.4-0.1 5-0.6 0.7-0.5 1.8-0.2 2.1 1.1 0.4 1.2-0.2 2.7-2 2.7-1.7 0-5.1 0-5.1 0v-3"/><path class="y" d="m370 161c-0.9-0.9-0.6-2.2 0-3.5h9.8v3.5z"/></svg>