<svg version="1.2" xmlns="http://www.w3.org/2000/svg" viewBox="0 0 116 221" width="116" height="221"><defs><linearGradient id="P" gradientUnits="userSpaceOnUse"/><linearGradient id="g1" x2="1" href="#P" gradientTransform="matrix(51.258,0,0,32.285,64.051,145.063)"><stop stop-color="#eeebe2"/><stop offset="1" stop-color="#e8e8de"/></linearGradient><linearGradient id="g2" x2="1" href="#P" gradientTransform="matrix(1.849,0,0,79.055,94.313,64.851)"><stop stop-color="#eeebe2"/><stop offset="1" stop-color="#e8e8de"/></linearGradient><linearGradient id="g3" x2="1" href="#P" gradientTransform="matrix(1.849,0,0,79.055,85.916,69.699)"><stop stop-color="#eeebe2"/><stop offset="1" stop-color="#e8e8de"/></linearGradient></defs><style>.a{fill:#2c6aab}.b{fill:#458fd9}.c{fill:#5ea9f0}.d{opacity:.3;mix-blend-mode:screen;fill:#fff}.e{fill:#fcf9f0}.f{fill:#bdbdb5}.g{fill:url(#g1)}.h{fill:#80c4fa}.i{opacity:.1}.j{fill:#d5d5cc}.k{fill:#afafb0}.l{fill:url(#g2)}.m{fill:#f0f0f1}.n{fill:url(#g3)}.o{fill:#212025}.p{fill:#42444a}.q{fill:#fff}</style><path class="a" d="m111.3 29.5v155.8q0 0.2-0.2 0.4c-17.8 12.7-37.8 24.2-59.8 34.5-0.4 0.2-1 0.2-1.4-0.1v-155.8z"/><path class="b" d="m49.9 64.3v155.8l-49.5-28.5v-155.8z"/><path class="a" d="m51.5 169q1 0.7 2 1.5c0.4 0.2 1 0.3 1.5 0 22.3-10.3 42.5-22 60.5-34.9q0.2-0.1 0.2-0.4 0-0.2-0.4-0.4-1.2-0.6-2.4-1.2c-0.5-0.2-1.2-0.1-1.5 0.1-17.7 12.7-37.7 24.3-59.7 34.5q-0.4 0.2-0.4 0.5 0 0.2 0.2 0.3z"/><path class="c" d="m51.3 168.7q0 0.2 0.2 0.3 1 0.7 2 1.5c0.4 0.2 1 0.3 1.5 0 22.3-10.3 42.5-22 60.5-34.9q0.2-0.1 0.2-0.4c0 0 0 49.6 0 49.8q0 0.2-0.2 0.4c-18 12.9-38.2 24.6-60.5 34.9-0.5 0.2-1.1 0.2-1.5-0.1q-1-0.7-2-1.4-0.2-0.2-0.2-0.4c0-0.1 0-49.7 0-49.7z"/><path class="d" d="m55 170.5c-0.5 0.3-1.1 0.2-1.5 0v49.7c0.4 0.3 1 0.3 1.5 0.1v-49.1c22.1-10.3 42.2-22.2 60-35.1q0.2-0.2 0.5-0.5c-18 12.9-38.2 24.6-60.5 34.9z"/><path class="e" d="m107.9 147.8l-1.6 1-1.8-1q0.8-0.5 1.5-1z"/><path class="e" d="m70.2 169.7l-1.8 0.9-1.8-1.1q0.9-0.4 1.8-0.9z"/><path class="f" d="m64.1 177.3l-1.9-1v-2.7l1.9 1.1z"/><path class="f" d="m104.5 147.8v2.2l1.8-1.2z"/><path class="f" d="m66.6 169.5v2l1.8-0.9z"/><path class="e" d="m113.5 144l1.8 1.1c-15.6 10.7-32.7 20.6-51.2 29.6l-1.9-1.1c18.6-9 35.7-18.9 51.3-29.6z"/><path class="g" d="m115.3 147.8c-15.6 10.7-32.7 20.6-51.2 29.5v-2.6c18.5-9 35.6-18.9 51.2-29.6z"/><path class="h" d="m115.3 31.2q-1.2-0.5-2.4-1.1c-0.5-0.2-1.2-0.2-1.5 0.1q-12.7 9.1-27 17.4-0.3 0.2-0.3 0.4 0 0.3 0.3 0.5l2.3 1.3c0.4 0.2 1 0.2 1.5 0q14.4-8.5 27.3-17.7 0.2-0.2 0.2-0.4 0-0.3-0.4-0.5z"/><path class="c" d="m84.1 48q0 0.3 0.3 0.5l2.3 1.3c0.4 0.2 1 0.2 1.5 0q14.4-8.5 27.3-17.7 0.2-0.2 0.2-0.4c0 0 0 101.9 0 102q0 0.2-0.2 0.4-12.9 9.3-27.3 17.7c-0.5 0.2-1.1 0.2-1.5 0l-2.3-1.3q-0.3-0.2-0.3-0.5c0-0.1 0-102 0-102z"/><path class="i" d="m84.4 48.5l2.3 1.3v102l-2.3-1.3q-0.3-0.2-0.3-0.5c0-0.1 0-102 0-102q0 0.3 0.3 0.5z"/><path class="d" d="m88.2 49.8c-0.5 0.2-1.1 0.2-1.5 0v102c0.4 0.2 1 0.2 1.5 0v-101.4c9.5-5.5 18.3-11.6 26.7-17.8q0.3-0.2 0.6-0.5-12.9 9.2-27.3 17.7z"/><path class="j" d="m89.8 136.2l2.7 1.5v-2l-2.7-1.6z"/><path class="f" d="m92.5 135.7v-2.1l-0.9-0.5-1.8 1z"/><path class="j" d="m89.8 69.2l2.7 1.6v-2l-2.7-1.6z"/><path class="f" d="m92.5 68.8v-2.1l-0.9-0.5-1.8 1z"/><path class="k" d="m94.3 143.9l1.9-1.1-1.9 0.2-1.8 1z"/><path class="j" d="m92.5 144l1.8-0.1v-78l-1.8-2.2z"/><path class="l" d="m94.3 143.9l1.9-1.1v-77.9l-1.9 1z"/><path class="m" d="m94.3 62.6l1.9 2.3-1.9 1-1.8-2.2z"/><path class="h" d="m51.5 65.5q1 0.7 2 1.4c0.4 0.3 1 0.3 1.5 0.1q16-7.4 30.6-15.7 0.3-0.2 0.3-0.5 0-0.2-0.3-0.4l-2.3-1.3c-0.4-0.2-1-0.2-1.5 0q-14.3 8.2-30.1 15.6-0.4 0.1-0.4 0.4 0 0.2 0.2 0.4z"/><path class="c" d="m51.3 65.1q0 0.2 0.2 0.4 1 0.7 2 1.4c0.4 0.3 1 0.3 1.5 0.1q16-7.4 30.6-15.7 0.3-0.2 0.3-0.5c0 0 0 101.9 0 102q0 0.3-0.3 0.5-14.6 8.3-30.6 15.7c-0.5 0.2-1.1 0.2-1.5-0.1q-1-0.7-2-1.4-0.2-0.2-0.2-0.4c0-0.1 0-102 0-102z"/><path class="d" d="m55 67c-0.5 0.2-1.1 0.2-1.5-0.1v102c0.4 0.3 1 0.3 1.5 0.1v-101.3c10.6-4.9 20.5-10.4 30.1-16q0.2-0.2 0.5-0.4-14.6 8.3-30.6 15.7z"/><path class="j" d="m81.4 141l2.7 1.6v-2l-2.7-1.6z"/><path class="f" d="m84.1 140.6v-2.2l-0.9-0.5-1.8 1.1z"/><path class="j" d="m81.4 74.1l2.7 1.6v-2.1l-2.7-1.5z"/><path class="f" d="m84.1 73.6v-2.1l-0.9-0.5-1.8 1.1z"/><path class="k" d="m85.9 148.8l1.9-1.1-1.9 0.1-1.8 1.1z"/><path class="j" d="m84.1 148.9l1.8-0.1v-78l-1.8-2.3z"/><path class="n" d="m85.9 148.8l1.9-1.1v-78l-1.9 1.1z"/><path class="m" d="m85.9 67.5l1.9 2.2-1.9 1.1-1.8-2.3z"/><path class="o" d="m78.4 76.2v53.8q-9.6 5.2-19.8 10v-53.8q10.2-4.8 19.8-10z"/><path class="p" d="m76.7 82.1v38.7q-8 4.3-16.4 8.3v-38.6q8.4-4.1 16.4-8.4z"/><path class="q" d="m68.2 102l0.5-0.2v-2.2l-0.5 0.3z"/><path class="q" d="m72.8 101.6l1-1.7-0.2-0.2-1 1.8z"/><path class="q" d="m74.6 105.6l1.7-1v-0.6l-1.7 1z"/><path class="q" d="m73.6 112l0.2-0.3-1-0.6-0.2 0.4z"/><path class="q" d="m68.2 118l0.5-0.3v-2.1l-0.5 0.3z"/><path class="q" d="m63.4 117.9l1-1.7-0.2-0.1-1 1.7z"/><path class="q" d="m60.7 113.7l1.8-1.1v-0.6l-1.8 1.1z"/><path class="q" d="m64.2 106.6l0.2-0.4-1-0.6-0.2 0.4z"/><path class="q" d="m71.2 111.1l-3.3-1.9 0.6-1.1 3.3 1.9z"/><path class="q" d="m68.7 102.4v6.7l-0.4 0.2v-6.7z"/><path class="h" d="m111 29.1l-49.5-28.6-61.1 35.3 49.5 28.5c0.4 0.3 1 0.3 1.4 0.1 22-10.3 42-21.8 59.8-34.5q0.2-0.2 0.2-0.4 0-0.3-0.3-0.4z"/></svg>