<svg version="1.2" xmlns="http://www.w3.org/2000/svg" viewBox="0 0 138 179" width="138" height="179"><style>.a{fill:#a9ccff}.b{fill:#6981b7}.c{fill:#e6eefc}.d{fill:#d83f4e}.e{fill:#ec8161}.f{fill:#e75860}.g{fill:#272443}.h{fill:#404082}.i{fill:#fff}.j{fill:#f7967c}.k{fill:#db6357}.l{fill:#c9644d}</style><path class="a" d="m-5 39.4q0 0 0 0 0 0 0 0z"/><path class="b" d="m114.4 133h-63.8v-132.3h63.8z"/><path class="c" d="m111.9 5.5v124.3h-58.8v-124.3z"/><g style="opacity:.6"><path class="d" d="m74.5 43.1c-0.5 1.3-1.4 2.5-2.2 3.6-0.9 1.2-2.5 2.1-3.7 2.9-3.1 2.4-6.2 4.8-9.6 6.7q-2.9 1.6-5.9 2.6v-2.4q3.3-2 6.6-4.2c3-2.1 5.8-4.4 8.7-6.6 0.8-0.5 1.4-1.6 2-2.3 0.4-0.6 0.9-1 1.5-1.5 0.7-0.4 2.4-1.5 2.8-0.1 0.1 0.4-0.1 0.9-0.2 1.3z"/><path class="a" d="m103 95.6q-0.1 0.7-0.3 1.3c-0.9 2.1-2.6 3.1-4.2 4.6-0.4 0.5-0.9 0.8-1.4 1.2-0.5 0.3-1.1 0.6-1.6 1-0.6 0.4-1.1 0.8-1.5 1.3-0.6 0.7-0.8 1.6-1.1 2.5-0.5 2-0.9 4.1-1.2 6.2-0.3 1.8-0.6 3.7-0.9 5.5q-0.4 1.7-0.7 3.5l-0.7 3.3q-0.3 1.9-0.7 3.8h-35.6v-42.8q0-0.2 0.1-0.4 1.7-5.6 3.9-11.1c1.2-3 2.4-6.8 4.3-9.5 1-1.3 2.6-2 4.1-2.5 0.7-0.1 1.3-0.4 1.9-0.7 1.4-0.6 2.7-1.2 4.2-0.9q0.5 0.1 1 0.2 0.9 0.1 1.9 0.1c1.2 0 2.3-0.2 3.4-0.4 1.8-0.3 3.3 0.2 5 0.7q0.7 0.2 1.4 0.5c1.3 0.5 2.5 1.1 3.6 2 3 2.4 5.3 5.7 7.3 9 2.7 4.8 5 9.8 6.8 15 0.7 2.1 1.4 4.5 1 6.6z"/><path class="e" d="m84.3 63.6q-0.4-6.2-1.1-12.4c-0.2-2.4-0.5-4.9-1.8-6.9-1.4-2.1-3.9-3.5-6.4-3.4-1.8 0.1-3.5 1-4.7 2.4q-0.1 0.2-0.2 0.4-0.6 0.5-1 1.2c-0.9 1.6-1.3 3.4-1.5 5.2-0.6 4.6 0.1 9.4-0.3 14.1-0.3 5-0.9 10.1-0.6 15.2 0 1.9 0.2 3.9 1 5.7 0.2 0.5 0.5 1 0.9 1.4 0.9 0.8 2.1 1 3.3 1.1q2.2 0.2 4.5 0.4c1.1 0.1 2.2 0.2 3.3-0.1 1.6-0.5 2.8-1.6 3.5-3.2 0.6-1.3 0.8-2.7 1-4.1 0.8-5.7 0.6-11.3 0.1-17z"/><path class="f" d="m104.5 126q0-7.7 0-15.4c0-3.5 0-6.9 0-10.4 0-4.2-3.2-7.5-7.5-7.7-3.5-0.2-6.9 1.8-8.4 4.9-1.3 2.7-1.1 5.8-0.8 8.8 0.6 6.1 2.5 12.3 2.3 18.3 0 2.1 1 1.6 2.7 1.5 1.5-0.2 3.1 0 4.6 0q3.5 0 7.1 0z"/><path class="g" d="m76.3 128.3l1.2 1.5h-1.7l-0.5-0.6c-0.2-0.3-0.2-0.7 0.1-1 0.3-0.2 0.7-0.2 0.9 0.1z"/><path class="g" d="m77.6 129.8v-2.2-1.6-1.7-2.1h-3.6v2.1 1.7 1.6 2.2h1.8 0.5 0.3 0.9z"/><path class="g" d="m87 127.6h-22.4v-3.3h22.4z"/><path class="h" d="m76.6 129v0.8h-0.3v-0.8c0-0.1 0.3-0.1 0.3 0z"/><path class="f" d="m75.8 126c10.9 0 19.7-8.9 19.7-19.7v-6.3c0-10.9-8.8-19.7-19.7-19.7-10.9 0-19.7 8.8-19.7 19.7v6.3c0 10.8 8.8 19.7 19.7 19.7z"/><path class="f" d="m58.9 102.3q-0.2 0.8-0.4 1.5-0.1 0.2-0.1 0.4c-0.8 3.2-1.4 6.4-1.7 9.5q-0.1 0.7-0.2 1.3-0.3 3.3-0.4 6.6 0 1.1 0 2.1 0 1.2 0 2.3h-3v-33.5c1-0.4 2.1-0.6 3-0.5q1 0 1.8 0.6 0.4 0.3 0.7 0.7 0.2 0.3 0.3 0.7 0.4 0.9 0.5 1.8c0.4 2.1 0 4.3-0.5 6.5z"/><path class="f" d="m95.5 116.2v7.3q0 0 0 0.1 0 0 0 0.1 0 0 0 0 0 0 0 0 0 0.1 0 0.1 0 0.1 0 0.1 0 0 0 0 0 0 0 0.1 0 0 0 0 0 0 0 0 0 0-0.1 0.1 0 0 0 0 0 0 0 0 0 0 0 0 0 0.2-0.1 0.3 0 0.1 0 0.1-0.1 0.1-0.1 0.1 0 0.1 0 0.1-0.1 0.1-0.1 0.1 0 0.1 0 0.1 0 0 0 0 0 0-0.1 0 0 0 0 0.1 0 0 0 0-0.1 0.1-0.1 0.1 0 0-0.1 0.1 0 0 0 0 0 0.1-0.1 0.1 0 0 0 0-0.1 0.1-0.1 0.1 0 0-0.1 0.1 0 0 0 0 0 0 0 0 0 0 0 0 0 0 0 0-0.1 0-0.1 0.1 0 0 0 0 0 0 0 0-0.1 0-0.1 0 0 0 0 0 0 0-0.1 0.1 0 0 0 0-0.1 0-0.2 0.1-0.1 0-0.1 0-0.1 0-0.1 0 0 0.1-0.1 0.1 0 0 0 0-0.1 0-0.1 0 0 0 0 0-0.1 0-0.1 0 0 0 0 0 0 0 0 0 0 0 0 0-0.1 0-0.1 0-0.1 0.1-0.1 0.1 0 0-0.1 0 0 0 0 0 0 0 0 0 0 0 0 0-0.1 0-0.1 0 0 0-0.1 0h-39.9v-12.3h39.9c1.4 0 2.5 1.1 2.5 2.5z"/><path class="g" d="m72.5 125.6l-0.1 0.4-0.7 1.6-0.8 2.2h-1.1l0.9-2.2 0.6-1.6 0.2-0.7z"/></g><g style="opacity:.6"><path class="i" d="m101.2 5.5c-0.8 1.1-1.7 2.2-2.7 3.1-6.4 5.5-17.3 3.1-23 9.2-1.4 1.5-2.4 3.5-3.9 4.9-3 2.8-7.6 3.1-11.1 5.3-2.1 1.4-3.8 3.3-5.4 5.2q-1 1.1-2 2.2v-7.8q0 0 0.1-0.1c4.2-3.5 6.1-9.3 10.6-12.5 6.1-4.4 15.3-2.9 20.6-8.1q0.7-0.6 1.3-1.4z"/><path class="i" d="m111.9 33.1v8.1q-1.4 0.9-2.8 2c-2 1.6-3.7 3.5-6.1 4.6-2.6 1.2-5.9 1.2-8 3.2-2.6 2.4-2.4 6.5-4.3 9.4-1.9 3-5.5 4.3-9 5-3.4 0.7-7 1-10.2 2.6-0.5 0.4-1.1 0.7-1.5 1.3-0.5 0.8-0.5 1.8-0.6 2.8-0.3 3-2.1 5.7-4.7 7.2-2.4 1.4-5.3 1.7-7.4 3.4-1.5 1.3-2.5 3.3-3.6 5q-0.3 0.5-0.6 1v-7.2c1-0.9 2-1.9 2.9-3 2.1-2.5 3.9-5.2 5.5-8.1 0.6-1.3 1.3-2.6 2.3-3.6 2.7-2.7 7-2.4 10.5-3.7 9.5-3.5 11.6-17.3 20.9-21.2 3.7-1.5 8.1-1.2 11.5-3.2 2.2-1.4 3.8-3.4 5.2-5.6z"/><path class="i" d="m111.9 89.4v8.1c-1.3 1-3.1 1.4-4.7 1.7-2.4 0.5-5.2 1-6.4 3.2-1 2-0.3 4.6-1.4 6.6-1.3 2.4-4.4 2.7-7.1 3.2-2.3 0.4-4.6 1.2-6.7 2.2-0.6 0.2-1.2 0.6-1.6 1.1-0.6 0.7-0.8 1.6-0.9 2.4-0.4 2.9-0.9 5.8-2.1 8.4-0.6 1.3-1.4 2.5-2.4 3.5h-18c0.4-0.8 0.9-1.5 1.6-2.2 3.4-3.3 9.2-3.1 12.6-6.5 3-3.1 3.2-8.3 6.6-11 2.7-2.2 6.8-1.9 10-3.4 2.6-1.3 4.6-3.7 6-6.3 1.7-3.2 3.1-7.1 6.5-8.3 1.4-0.6 3-0.5 4.4-0.9 1.3-0.3 2.5-1 3.6-1.8z"/></g><path class="j" d="m21.3 175.5c-0.5-0.1-0.9-0.2-1.1-0.7-0.1-0.3-0.1-0.7 0-1 0.1-0.9 0.7-1.8 0.6-2.8-0.1-0.8-0.3-1.7-0.4-2.5q-0.3-1.8-0.5-3.6c-0.9-7-1.7-14-1.6-21 0-3 0.4-6 0.9-9 0.1-0.7 0.3-1.3 0.5-2 0-0.5 0-0.9 0-1.4 0.2-1.2 1.7-1.7 2.7-1.8 2.3-0.2 4.5 1.3 5.7 3.2 0.9 1.4 1.7 3.6 1.2 5.2-0.7 1.9-0.8 4-1.1 5.9q-0.9 6.7-1.7 13.3c-0.3 2.9-0.7 5.8-0.9 8.7-0.3 2.7-0.9 5.5 0.6 7.9 0.3 0.4 0.7 1 0.4 1.5-0.2 0.4-0.8 0.5-1.2 0.4-1.3 0-2.5-0.1-3.8-0.3q-0.1 0-0.3 0z"/><path class="f" d="m19.1 170.1q0 0.1 0 0.1c0 0.5 7.1 0.2 7.9 0.2 0.1-1.8 0.6-7.3 0.7-7.7q0.5-5.9 1-11.8 0.5-5.1 1-10.1 0.1-1.2 0.2-2.4c0.4-4.1 0.7-8.2-2.2-11.5-0.3-0.4-0.6-0.7-1-0.9-0.6-0.3-1.3-0.3-1.9-0.3-1.5-0.1-3.4 0-4.7 0.7-2.8 1.5-1.7 5.6-1.7 8q-0.1 6-0.1 12 0.1 11.8 0.8 23.7z"/><path class="h" d="m31.2 176.6c0 0.3-0.4 0.5-0.6 0.7q-0.5 0.2-1 0.2c-1.7 0.4-3.5 0.3-5.2-0.3-0.5-0.2-1.1-0.5-1.6-0.5q-0.4 0-0.8 0.1-1 0.1-2 0.1c-0.2 0-0.6 0-0.7-0.2q-0.1-0.1-0.1-0.2c-0.1-0.3-0.1-0.7 0-1 0.1-0.9 0.2-2.6 1.4-2.3 0.5 0.1 0.8 0.4 1.2 0.6 0.8 0.4 1.8 0.4 2.6 0 0.4-0.2 0.7-0.5 1.1-0.6 0.6-0.3 0.7-0.1 1 0.3 0.6 0.7 1.4 1.2 2.3 1.5 0.6 0.2 1.6 0.2 2.1 0.6 0.2 0.3 0.4 0.7 0.3 1z"/><path class="g" d="m31.5 176.5q0.2 0.1 0.1 0.4c0 0.3-0.4 0.6-0.7 0.7-1.2 0.5-2.5 0.5-3.8 0.6-0.8 0-1.6 0.1-2.3-0.2-0.6-0.3-1.2-0.7-2-0.9-0.2-0.1-0.7-0.2-0.8-0.1-0.2 0.1-0.2 0.3-0.2 0.5q0 0.3 0 0.6-0.6 0-1.1 0c-0.6 0-1.3 0.1-1.8 0q0-0.7 0-1.3c0-0.3 0-0.6 0.3-0.7q0.2-0.1 0.5 0c1.3-0.1 2.4 0.2 3.7 0.4 2.5 0.6 5.2 0.6 7.7-0.1q0.2 0 0.4 0.1z"/><path class="g" d="m27.6 174.9q-0.1 0-0.1-0.1-0.2-0.3-0.4-0.5-0.4-0.4-0.9-0.7c-0.1-0.1-0.4 0-0.2 0.1q0.4 0.3 0.7 0.7 0.2 0.1 0.4 0.3c0 0.1 0.1 0.2 0.1 0.2 0.1 0.1 0 0.2 0 0.2-0.4 0.6-0.9 1-1.5 1.2-0.2 0.1 0 0.2 0.1 0.1 0.7-0.2 1.3-0.7 1.7-1.2 0-0.1 0.1-0.2 0.1-0.3z"/><path class="c" d="m27.2 173.9q0-0.1-0.1-0.1 0 0-0.1 0-0.1 0-0.1 0-0.1 0.2-0.3 0.3 0 0-0.1 0.1 0 0 0 0 0 0 0 0-0.1 0-0.1 0 0 0.1 0 0.1 0 0.1 0 0.1 0.1 0 0.1 0 0.1 0 0.2 0 0.3-0.2 0.5-0.5 0 0 0 0z"/><path class="c" d="m27.7 174.2q0 0-0.1 0c-0.1 0-0.2 0-0.2 0.1q-0.1 0-0.1 0.1-0.1 0.2-0.3 0.3-0.1 0.1 0 0.1 0 0.1 0 0.1c0.1 0 0.2 0 0.3 0q0.3-0.3 0.4-0.6 0.1 0 0-0.1z"/><path class="f" d="m26.8 78.8c-2.1-0.2-4.5 0.5-5.9 1.2-2.4 1.2-3.4 3-3.9 5.5-0.2 1.5-0.1 3.6 0.1 5.1 0.5 2.4 0.2 5 0.2 7.5q0 8.8 0.4 17.6c0.2 5.5 0.6 11 0.4 16.5 2.5-0.2 4.8-0.1 7.3-0.1 1 0.1 1.9 0.5 2.8 0.9 0.8 0.3 1.4 0.8 1.5-0.3 1-6.8 1.3-13.7 1.5-20.5 0.1-6.6 0.4-13.1 0.5-19.6 0-3 0-5.9-0.5-8.8-0.2-1.3-0.6-2.6-1.3-3.6-0.7-0.9-1.8-1.3-3.1-1.4z"/><path class="j" d="m7.8 175.5c-0.5-0.1-0.9-0.1-1.1-0.7-0.1-0.3-0.1-0.6-0.1-1 0.2-0.8 0.8-1.8 0.6-2.7-0.1-0.8-0.3-1.7-0.4-2.6q-0.2-1.8-0.4-3.6c-1-6.9-1.7-13.9-1.7-20.9 0.1-3.1 0.4-6.1 0.9-9 0.1-0.7 0.4-1.4 0.5-2.1 0.1-0.4 0-0.9 0.1-1.3 0.2-1.2 1.6-1.8 2.7-1.9 2.3-0.2 4.4 1.3 5.7 3.2 0.9 1.5 1.7 3.6 1.1 5.3-0.6 1.8-0.7 3.9-1 5.9q-1 6.6-1.7 13.3c-0.4 2.9-0.7 5.8-1 8.7-0.2 2.7-0.8 5.4 0.7 7.8 0.2 0.4 0.6 1.1 0.4 1.5-0.2 0.5-0.8 0.5-1.3 0.5-1.2-0.1-2.5-0.1-3.7-0.4q-0.2 0-0.3 0z"/><path class="f" d="m5.6 170.1q0 0.1 0 0.2c0 0.4 7 0.1 7.9 0.1 0.1-1.7 0.6-7.2 0.6-7.6q0.6-6 1.1-11.9 0.5-5 0.9-10.1 0.1-1.2 0.2-2.4c0.4-4.1 0.8-8.2-2.2-11.5-0.2-0.3-0.6-0.6-1-0.8-0.5-0.3-1.2-0.4-1.9-0.4-1.4 0-3.4 0-4.7 0.7-2.7 1.5-1.6 5.6-1.7 8.1q0 5.9 0 11.9 0.1 11.9 0.8 23.7z"/><path class="h" d="m17.7 176.6c-0.1 0.3-0.4 0.6-0.7 0.7q-0.4 0.2-0.9 0.3c-1.7 0.3-3.6 0.2-5.2-0.4-0.6-0.2-1.1-0.4-1.7-0.4q-0.4-0.1-0.8 0-0.9 0.1-1.9 0.1c-0.3 0-0.6 0-0.8-0.2q0 0-0.1-0.2c-0.1-0.3 0-0.7 0-1 0.2-0.8 0.3-2.6 1.5-2.3 0.4 0.1 0.8 0.4 1.2 0.6 0.8 0.4 1.8 0.4 2.6 0 0.3-0.1 0.7-0.4 1.1-0.6 0.6-0.2 0.6 0 1 0.4 0.6 0.6 1.4 1.1 2.2 1.4 0.6 0.2 1.7 0.2 2.1 0.7 0.3 0.2 0.5 0.6 0.4 0.9z"/><path class="g" d="m18 176.5q0.1 0.1 0.1 0.4c-0.1 0.4-0.4 0.6-0.7 0.7-1.3 0.6-2.6 0.6-3.9 0.6-0.7 0.1-1.5 0.2-2.2-0.1-0.7-0.3-1.3-0.8-2-1-0.2-0.1-0.7-0.2-0.9-0.1-0.2 0.2-0.1 0.4-0.1 0.6q0 0.3 0 0.6-0.6 0-1.2 0c-0.5 0-1.2 0.1-1.7-0.1q0-0.6 0-1.3c0-0.3 0-0.5 0.3-0.6q0.2-0.1 0.4-0.1c1.3 0 2.5 0.2 3.8 0.5 2.5 0.5 5.1 0.5 7.6-0.1q0.3-0.1 0.5 0z"/><path class="g" d="m14 175q0-0.1-0.1-0.2-0.2-0.2-0.4-0.4-0.4-0.4-0.9-0.8c0 0-0.3 0.1-0.2 0.2q0.4 0.2 0.8 0.6 0.2 0.2 0.3 0.4c0.1 0 0.2 0.1 0.2 0.2 0 0.1 0 0.1-0.1 0.2-0.3 0.5-0.9 0.9-1.5 1.1-0.1 0.1 0.1 0.2 0.2 0.2 0.7-0.3 1.2-0.7 1.7-1.3 0-0.1 0-0.1 0-0.2z"/><path class="c" d="m13.7 173.9q-0.1 0-0.1-0.1-0.1 0-0.2 0 0 0-0.1 0.1-0.1 0.1-0.2 0.2-0.1 0.1-0.1 0.1 0 0 0 0 0 0-0.1 0 0 0.1 0 0.1-0.1 0-0.1 0.1 0 0 0.1 0 0 0.1 0.1 0.1 0.1 0 0.1-0.1 0.3-0.1 0.6-0.4 0-0.1 0-0.1z"/><path class="c" d="m14.2 174.3q-0.1 0-0.1-0.1c-0.1 0-0.2 0-0.3 0.1q0 0.1 0 0.1-0.2 0.2-0.4 0.4 0 0 0 0.1 0.1 0 0.1 0c0.1 0.1 0.2 0.1 0.3 0q0.2-0.2 0.4-0.5 0-0.1 0-0.1z"/><path class="f" d="m13.8 79c-2.1-0.3-5.6 0.1-7.1 2-1.8 2.3-2 6.2-2.1 9.1-0.6 14.2-0.6 28.5 0.1 42.7 0 0.6 1.7-0.7 1.8-0.8 0.8-0.2 1.9 0 2.7 0.1q1.7 0 3.4 0c1.1 0.1 3.6 1.9 4.4 0.7 0.4-0.6 0.4-1.4 0.5-2.2q0.9-20.7 1.8-41.5c0-2.2 0.1-4.5-0.7-6.5-0.9-2.3-2.8-3.4-4.8-3.6z"/><path class="f" d="m22.5 92.1c2.6 0.4 6.9 1.5 8.6-1.2 1.2-1.9 0.7-4.7 0.7-6.8-0.1-4.7-0.5-9.3-1.4-13.9-0.3-2.1-0.1-4.7-2.2-5.1-1.2-0.2-2.6 0-3.8 0q-4.4 0-8.8 0c-2 0-5.1-1.5-6.7 0.1-0.7 0.9-1.1 2-1.3 3.1-1.6 6.4-2.4 13.1-2.4 19.7-0.1 4.3 2.6 5.5 6.6 4.4 1.9-0.6 3.5-1.1 5.7-1 1.7 0.1 3.3 0.4 5 0.7z"/><path class="a" d="m44 53.7c0.6 1.1 1 2.2 1.5 3.3 0.5 1.4 1.2 2.9 0.8 4.4-0.2 0.8-0.9 1.5-1.7 1.8-0.8 0.2-1.9 0.4-2.7 0.1-0.7-0.4-1.3-1.2-1.8-1.8-2.4-2.5-3.8-5.6-5.9-8.4-0.5-0.7-1.1-1.5-1.6-2.3-0.6-0.9-1-1.8-1.5-2.7-1.1-1.8-2.3-3.5-3.1-5.5-1.4-3.1-1.6-6.6-1.7-10q0-0.1 0-0.2c0.3-0.3 1.4-0.1 1.7 0q1 0.3 2 0.9c1.2 0.8 2.3 1.8 3.2 2.9 1.5 2 2.6 4.2 3.9 6.4 1.8 3.1 4 6.1 5.9 9.2q0.5 1 1 1.9z"/><path class="j" d="m42.4 55.5q0.1 0 0.2-0.1c0.8-0.1 1.5-0.2 2.3-0.4 0.4-0.1 1-0.3 1.2 0.2 0.2 0.4-0.4 0.8-0.8 1-0.4 0.2-0.8 0.3-1.1 0.6-0.3 0.2-0.4 0.6-0.5 1-0.1 0.4-0.3 0.7-0.5 1.1q-0.1 0.4-0.4 0.7-0.3 0.4-0.6 0.7c-0.8 0.7-1.7 1.2-2.6 1.5q-0.9 0.3-1.8 0.2c-0.3 0-1.2 0-1.3-0.5 0-0.1 0-0.3 0.1-0.4 0.4-0.7 1-1.3 1.4-1.9q0.9-1 1.8-1.9c0.7-0.8 1.5-1.5 2.6-1.8z"/><path class="k" d="m42 58.3c-0.4 0.7-1 1.3-1.7 1.8q-0.2 0.2-0.5 0.4c-0.1 0.1-0.2 0.3-0.1 0.4 0 0.3 0.5 0.5 0.7 0.4 0.1-0.1 0-0.1-0.1-0.1-0.1 0.1-0.4-0.2-0.4-0.3-0.1-0.2 0.1-0.3 0.2-0.4q0.4-0.3 0.8-0.6 0.8-0.7 1.3-1.6c0-0.1-0.2-0.1-0.2 0z"/><path class="k" d="m40 59q-0.3 0.5-0.7 0.8c-0.2 0.3-0.5 0.5-0.8 0.7-0.2 0.2-0.3 0.5-0.2 0.8 0 0.3 0.4 0.3 0.6 0.4 0.1 0 0.2-0.1 0.1-0.1-0.2 0-0.3-0.1-0.4-0.2-0.1 0-0.2-0.2-0.2-0.3 0.1-0.3 0.4-0.5 0.6-0.7 0.4-0.4 0.9-0.8 1.2-1.4 0 0-0.2-0.1-0.2 0z"/><path class="k" d="m37.7 60.6q0.1-0.2 0.3-0.5c0.1-0.1-0.1-0.1-0.2 0q-0.2 0.3-0.4 0.6c-0.1 0.1-0.2 0.3-0.3 0.5-0.1 0.5 0.4 0.7 0.7 0.8 0 0 0.1 0 0.1 0q0.1-0.1 0-0.1c-0.2 0-0.4-0.1-0.5-0.3q-0.1-0.2 0-0.5c0-0.1 0.2-0.3 0.3-0.5z"/><path class="k" d="m44.6 55c0 0-0.1 0-0.2 0-1.4 0.3-2.9 0.5-4 1.4q-0.5 0.5-0.9 1c-0.1 0.1 0.1 0.1 0.1 0q0.5-0.5 1-1 0.6-0.4 1.3-0.7c0.8-0.3 1.7-0.4 2.6-0.6q0.1 0 0.1-0.1z"/><path class="k" d="m43.8 57.6c-0.4 1.3-1.2 2.6-2.4 3.3-0.4 0.2-0.8 0.4-1.2 0.7 0 0 0 0 0.1 0q0 0.1 0.1 0c0.3-0.2 0.7-0.4 1.1-0.6q0.4-0.2 0.8-0.6c0.5-0.4 0.9-1 1.2-1.6q0.3-0.6 0.5-1.2c0-0.1-0.2-0.1-0.2 0z"/><path class="g" d="m31.2 25.7c-0.3 0.6-0.6 1.2-0.7 1.9-0.2 0.7 0 1.5 0 2.3q0.1 1.5-0.3 3c-0.2 0.5-0.4 1.1-0.7 1.6-0.5 0.6-1.1 0.2-1.7 0.1-0.2 0-0.3-0.1-0.5-0.2-0.3-0.1-0.6 0-0.9-0.1q-0.9-0.1-1.8-0.3c-0.4-0.2-1-0.4-1.4-0.4-0.5-0.1-1 0-1.4 0-0.8-0.1-1.6-0.3-2.3-0.5-1.6-0.6-3.3-1-5-1-1.2 0-2.3 0.2-3.4 0.1-0.9 0-2.8-0.4-3.1-1.4-0.1-0.5 0.1-1.1 0.4-1.5 0.3-0.4 0.7-0.8 1-1.1 0.9-0.9 1.5-2 1.9-3.2 0.3-0.7 0.5-1.4 0.8-2.1 0.5-1 1.4-1.8 2.1-2.7 1.6-1.8 2-4.1 3.1-6.1 1.5-2.6 4.5-3.5 7.3-3.5 0.5 0 1 0 1.4 0.2 0.8 0.1 1.3 0.6 1.9 1 0.7 0.5 1.5 1 2.1 1.6 0.8 0.7 1.3 1.7 1.6 2.7 0.3 1.1 0.9 2.1 1 3.3 0.2 1.8-0.2 3.6-0.9 5.3q-0.3 0.5-0.5 1z"/><path class="a" d="m31.6 53.9q0 0.1 0 0.3-0.1 0.5-0.2 1.1c-0.4 3-1.3 6.1-1.6 9.2-0.3 2.9-3.1 2.1-5.3 2.1h-3.9c-3.5 0-7 0.5-10.5 0.3-0.7-0.1-1.4-0.1-1.9-0.5q-0.3-0.3-0.5-0.8-0.2-0.4-0.3-0.8-0.3-0.7-0.5-1.4c-1.3-4-2.7-8-3.5-12-0.9-4-0.7-8.4 0.1-12.3 0.3-1.8 0.8-3.5 1.6-5 0.6-1.1 1.3-2.1 2.2-2.9q0.3-0.3 0.7-0.5c0.5-0.4 1.1-0.7 1.8-0.9q0.4-0.1 0.8-0.2c2.3-0.5 4.6-0.7 6.8-0.6 1.6 0.1 3.4 0.5 4.9 1q2.8 0.9 5.4 2.1 0.1 0 0.1 0c0.4 0.2 0.8 0.4 1.1 0.7q0.1 0.1 0.2 0.1c0.4 0.4 0.6 0.9 0.9 1.4 0.6 1.6 1 3.4 1.2 5.1q0.5 3.7 0.3 7.4 0 1 0 2.1c0 1.7 0.2 3.3 0.1 5z"/><path class="h" d="m33.5 133.8c-1.7 0.3-3.9 0.1-5.7 0.1h-20.4c-0.2 0-3.9 0-3.9 0q0.3-11 0.2-21.9c0-12.4-0.7-24.6 0.9-36.8q0.1-0.7 0.2-1.4c0.4-2.8 0.8-5.7 1.7-8.5q1.3-4.2 2.8-8.3c1.7-4.8 3-9.9 4-14.9q0.1-0.4 0.1-0.7 0 0 0.1 0 0.2 0 0.5 0 7.4-0.4 14.9 0 0.3 0 0.5 0c0.1 0 0.2 0 0.3 0 0.1 0 0.1-0.1 0.2 0q0.1 0 0.1 0.1c0.1 0.7 0.2 1.4 0.4 2.1 0.3 1.1 0.6 2.2 0.8 3.3 0.4 2.3 0.5 4.7 0.4 7 0 2.4-0.3 4.8-0.6 7.2-0.1 2.1-0.3 4.3-0.3 6.3-0.1 3 0.6 6 0.8 9 1.1 11.7 1.6 23.6 1.9 35.4q0.1 6.3 0.1 12.7 0 4.7 0 9.3z"/><path class="f" d="m7.7 93.3l-1-5.3 3.1-0.5-0.1-0.4-3 0.6-0.1-0.7 3-0.5-0.1-0.4-3 0.6-0.1-0.7 3-0.5-0.1-0.4-3 0.6-0.1-0.7 3-0.5-0.1-0.4-3 0.6-0.1-0.7 3-0.5v-0.4l-3.1 0.6-0.1-0.7 3-0.5v-0.4l-3 0.5-0.2-0.6 3.1-0.5-0.1-0.4-3 0.5-0.1-0.6 3-0.6-0.1-0.3-3.6 0.7c-0.3 0-0.4 0.2-0.3 0.4l2.2 12.3z"/><path class="h" d="m21.9 102.7q0-1.3 0-2.6 0-4.3 0-8.5c0-1.6 0.1-3.3 0-4.9-1.3 0.4-2.7 0.4-4 0.5q-2.1 0.1-4.1 0-0.7 0-1.4-0.2c-0.3 0-0.6-0.2-1-0.2q-0.1 0-0.1 0c-0.9 0.1-1.8 0.3-2.8 0.3-0.3 0-4-0.1-4-0.4 0 0.1 0 0.1 0 0.1-0.1 0.1 0 0.5 0 0.6q0 0.6 0 1.2 0 1.7 0 3.4 0 4.2 0 8.4 0 1.3 0 2.6c0 0.4-0.1 1 0 1.4 0.2 0.6 1.7 0.8 2.2 0.9 0.6 0 1.1 0 1.7 0q1-0.1 2-0.3c0.5 0 0.8-0.1 1.3-0.1q0.8 0.1 1.6 0.2 1.7 0.2 3.3 0.3c1.6 0.1 3.5 0.1 5-0.5q0.2-0.1 0.2-0.2c0.1-0.1 0.1-0.3 0.1-0.6q0-0.7 0-1.4z"/><path fill-rule="evenodd" class="g" d="m17.9 105.6q-0.7 0-1.3 0c-1.1-0.1-2.3-0.2-3.3-0.3q-0.2 0-0.5-0.1-0.5 0-1.1-0.1c-0.4-0.1-0.6 0-0.9 0q-0.2 0.1-0.4 0.1-1 0.2-2 0.2c-0.5 0.1-1.1 0.1-1.7 0q-2.1-0.3-2.3-0.9c-0.1-0.3-0.1-0.7-0.1-1.1q0-0.2 0-0.4v-15.6q0 0 0-0.1 0-0.4 0-0.5 0 0 0 0 0 0 0 0h0.1q0-0.1 0-0.1 0 0 0 0.1l0.2-0.1q0 0 0 0c0.3 0.1 3.4 0.3 3.9 0.3q0 0 0 0c0.6 0 1.2-0.1 1.8-0.2q0.4-0.1 1-0.1c0.3-0.1 0.5 0 0.8 0.1q0.2 0 0.4 0.1c0.4 0.1 0.9 0.1 1.3 0.1q2 0.1 4.1 0 0.2 0 0.4 0c1.2-0.1 2.4-0.1 3.5-0.4l0.2-0.1v0.2c0.1 1.1 0.1 2.2 0.1 3.3q-0.1 0.8-0.1 1.6v12.5q0 0.1 0 0.2c0 0.2 0 0.3-0.1 0.5q0 0.1-0.3 0.2c-1.1 0.5-2.5 0.6-3.7 0.6zm-13.5-18.9q0 0 0 0 0 0 0 0zm0.2 0q0 0 0 0 0 0 0 0zm6.8 18.1q0.2 0 0.3 0 0.6 0.1 1.2 0.1 0.2 0 0.4 0.1c1.1 0.1 2.2 0.2 3.3 0.3 1.4 0 3.4 0.1 4.9-0.6q0.1 0 0.2-0.1 0-0.1 0-0.3 0-0.1 0-0.2v-12.5q0-0.8 0-1.6c0.1-1 0.1-2.1 0-3.1-1.1 0.3-2.2 0.4-3.4 0.4q-0.2 0-0.4 0-2.1 0.1-4.1 0c-0.5 0-0.9 0-1.4-0.1q-0.2-0.1-0.4-0.1c-0.2-0.1-0.4-0.2-0.7-0.1q-0.5 0-1 0.1c-0.6 0.1-1.2 0.2-1.8 0.2-0.2 0-1.2 0-2.1-0.1-1-0.1-1.5-0.1-1.8-0.2 0 0.1 0 0.2 0 0.3q0 0.1 0.1 0.1l-0.1 15.6q0 0.2 0 0.5c0 0.3 0 0.6 0 0.9 0.1 0.1 0.3 0.5 2.1 0.7 0.6 0.1 1.1 0.1 1.7 0q1-0.1 2-0.2 0.2 0 0.3-0.1 0.3 0 0.7 0z"/><path class="g" d="m11.5 104.9h-0.3v-18.1h0.3z"/><path class="j" d="m10.6 33.1q0.2 0.7 0.3 1.4c0.3 1.3 0.6 2.5 1.1 3.7h17.2c-0.1-2-0.5-3.9-1.3-5.8q0-0.1-0.1-0.3 0 0-0.1 0-2.6-1.2-5.4-2.1c-1.5-0.5-3.3-0.9-4.9-1-2.2-0.1-4.5 0.1-6.8 0.6q-0.4 0.1-0.8 0.2 0.1 0.5 0.2 1.1c0.2 0.7 0.4 1.5 0.6 2.2z"/><path class="h" d="m29.9 41.4q-0.4 0-0.9 0c-1.4-3.4-3.2-6.5-5.5-9.4-1.7-2.2-3.4-3.3-5.6-3.7-0.9-0.2-1.9-0.4-2.8-0.5q-0.2 0-0.5-0.1c-0.5 0-1.1 0.5-1.7 1.4-0.9 1.5-0.7 3.4-0.5 5.1 0.3 2.4 1.2 4.8 1.9 7.2-0.2 0-0.6 0-0.7 0q-0.1 0-0.1 0c0 0.2 0-0.2 0 0-0.8-2.5-1.6-4.5-1.9-7.1-0.2-1.8-0.5-3.9 0.6-5.6 0.5-0.9 1.4-1.9 2.5-1.8q0.3 0.1 0.5 0.1c1 0.1 1.9 0.3 2.9 0.5 2.4 0.5 4.2 1.7 6.1 4 2.3 3.1 4.3 6.4 5.7 9.9z"/><path class="a" d="m1.2 48.4c0 0.6 0.1 1.1 0 1.7-0.5 4.2-0.5 8.4 0.2 12.6 0.1 0.9 0.3 2.1 1.2 2.6 0.8 0.5 2 0.7 3 0.7 1.2 0 2.6-0.3 3.3-1.3 0.7-0.8 0.7-2.1 0.5-3.1-0.8-5.6-0.8-11.3-0.1-16.9 0.4-2.8 0.9-5.5 1.2-8.3 0.1-1.4 0.1-2.8 0.1-4.2 0-0.5-0.3-0.9-0.4-1.4-0.2-0.4-0.6-0.7-1.1-0.7q-0.4 0-0.7 0.1c-2.6 1-4.2 3-5.2 5.6q-0.5 1.5-0.9 3c-0.5 2-0.7 4-0.9 6q-0.1 1.5-0.2 3 0 0.3 0 0.6z"/><path class="j" d="m21.2 55.7q-0.1 0.1-0.2 0.1c-1.5 0.5-2.9 0.9-4.4 1.2-3.2 0.6-6.4 1.2-9.6 2-1.5 0.4-3.1 0.9-4.4 1.8-0.6 0.4-1.3 1-1.4 1.8 0 0.5 0.3 1.3 0.5 1.8 0.4 1.2 1.4 2.3 2.7 2.6 0.5 0.1 1 0 1.4 0 1.1 0 2-0.4 3.1-0.7 1.1-0.4 2.3-0.8 3.4-1.3 4.4-1.8 8.7-4.1 12.8-6.6 0.7-0.3 3.3-1.7 3.1-2.6-0.1-0.3-0.8-1-1-1.2-0.4-0.4-0.8-0.6-1.4-0.4q-2.3 0.8-4.6 1.5z"/><path class="f" d="m38.4 55.4q0 0.1-0.1 0.2-0.2 0.1-0.4 0.2c-0.1 0-0.3 0.1-0.3 0.2q0 0 0 0.1c0 0-0.1 0.1-0.2 0.1q-0.1 0.1-0.2 0c0 0.1-0.1 0.2-0.2 0.2 0 0.2-0.2 0.3-0.4 0.3-0.2 0.1-0.4 0.1-0.5 0.3-0.1 0.1-0.1 0.1-0.2 0.2-0.1 0.1-0.3 0-0.4 0.2q0 0.1 0 0.1c-0.1 0.2-0.4 0.1-0.5 0.3q-0.1 0.1-0.1 0.2c-0.2 0.1-0.4-0.1-0.5 0.1q-0.1 0-0.1 0.1c0 0.2-0.1 0.3-0.3 0.2q0 0-0.1 0c-0.1 0-0.1 0.1-0.1 0.2q-0.1 0.1-0.1 0.2c-0.2 0.1-0.4-0.4-0.5-0.5q-0.3-0.4-0.6-0.8-0.4-0.6-0.8-1.2l5-3.4q0.4 0.6 0.8 1.2 0.3 0.4 0.5 0.8c0.1 0.2 0.3 0.4 0.3 0.5z"/><path class="g" d="m33.1 51.8l-3.8-5.6c-0.2-0.3-0.5-0.4-0.8-0.2-0.3 0.2-0.3 0.5-0.2 0.8l3.9 5.7-0.6 2.8c0 0.3 0 0.7 0.2 1l0.3 0.4 5-3.4-0.3-0.4c-0.2-0.3-0.5-0.5-0.9-0.5z"/><path class="d" d="m32.7 56.5q0.4 0.7 0.9 1.4c0 0 0.1-0.1 0.1-0.1q-0.5-0.7-0.9-1.4c0 0-0.1 0.1-0.1 0.1z"/><path class="d" d="m33.9 56.9l0.4 0.5c0 0.1 0.1 0 0.1 0l-0.4-0.6c-0.1-0.1-0.2 0-0.1 0.1z"/><path class="d" d="m34.6 55.3c-0.1-0.1-0.2 0-0.2 0.1q0.5 0.7 0.9 1.3c0.1 0.1 0.2 0 0.2 0q-0.5-0.7-0.9-1.4z"/><path class="d" d="m35.1 55q-0.1 0-0.1 0c0 0-0.1 0.1 0 0.1q0.2 0.2 0.4 0.5c0 0.1 0.1 0 0.1-0.1q-0.2-0.2-0.4-0.5z"/><path class="d" d="m36.1 54.6c-0.1-0.1-0.2 0-0.1 0q0.4 0.8 0.9 1.4c0 0.1 0.1 0 0.1 0q-0.5-0.7-0.9-1.4z"/><path class="d" d="m36.9 54.2c0-0.1-0.1 0-0.1 0.1q0.4 0.6 0.8 1.1c0 0.1 0.2 0 0.1-0.1q-0.4-0.5-0.8-1.1z"/><path class="j" d="m26.1 52.9q0.4-0.8 1-1.6 0.6-0.9 1.4-1.7c0.2-0.3 0.3-0.5 0.7-0.6 0.3 0 0.6 0 0.9 0 1 0.1 1.9 0.6 2.8 1 0.2 0.2 0.5 0.4 0.5 0.7-0.1 0.2-0.3 0.3-0.5 0.3-0.2 0-0.4-0.1-0.6-0.2q-1-0.4-2-0.5c0.4 0.3 1.1 0.6 1.4 1.1 0.2 0.2 0.3 0.5 0.2 0.8-0.1 0.2-0.2 0.3-0.3 0.5q-0.5 0.8-1 1.5c-0.2 0.3-0.5 0.7-0.9 0.8-0.4 0.2-0.8-0.1-1.2-0.3 0 0.7-0.2 1.3-0.8 1.8-0.4 0.3-0.8 0.6-1.3 0.7-0.5 0.1-1.1-0.1-1.3-0.6-0.2-0.4-0.1-0.8 0-1.3q0.4-1.2 1-2.4z"/><path class="k" d="m30.7 51.9c-0.3-0.3-0.7-0.4-1.1-0.5 0 0-0.1 0-0.1 0q0 0 0 0.1c0.4 0.1 0.8 0.2 1 0.5q0.4 0.3 0.5 0.8c0.1 0.1 0.3 0.1 0.2 0q-0.1-0.5-0.5-0.9z"/><path class="k" d="m30.5 54q-0.2-0.5-0.6-0.9-0.2-0.1-0.4-0.3c-0.1 0-0.3-0.1-0.5-0.1 0 0-0.1 0-0.1 0.1 0 0 0.1 0 0.2 0 0 0 0.1 0 0.2 0.1q0.1 0 0.2 0.1 0.2 0.1 0.3 0.2 0.3 0.4 0.5 0.8c0 0.1 0.2 0 0.2 0z"/><path class="k" d="m27.1 56.3q-0.1 0-0.2 0c-0.4 0.3-0.9 0.2-1.1-0.2-0.4-0.4-0.3-1.1-0.2-1.6 0-0.1-0.2-0.1-0.2 0-0.1 0.6-0.2 1.3 0.3 1.8 0.3 0.3 0.9 0.4 1.4 0.1q0 0 0-0.1z"/><path class="b" d="m9.9 40.1q-0.4 3.4-0.7 6.9-0.3 3.5-0.4 6.9-0.1 2-0.1 3.9c0 0.2 0.3 0.2 0.3 0q0-3.4 0.2-6.9 0.2-3.5 0.6-6.9 0.2-2 0.4-3.9c0-0.1-0.3-0.2-0.3 0z"/><path class="b" d="m31.9 39.4q-0.1-1-0.2-2.1c0-0.1-0.3-0.1-0.3 0q0.5 3.7 0.3 7.3-0.1 1.1-0.2 2.1c0 0.1 0.3 0.1 0.3 0q0.5-3.6 0.1-7.3z"/><path class="j" d="m25.4 27.1q0 0.1-0.1 0.1 0 0.2-0.1 0.4c-0.3 0.5-0.8 1-1 1.4q-0.6 1-1.1 2.1-0.1 0.1-0.2 0.2 0 0.2-0.1 0.4-0.1 0-0.1 0.1c-0.5 1.1-1.1 1-2.3 1.1q-0.2 0-0.3 0c-1.2 0-2.4-0.2-3.6-0.2-0.9-0.1-1.7-0.8-2-1.6-0.5-1.1-0.1-2.2 0.4-3.2q0.5-1 1.1-2 0.6-1.3 1.3-2.6c0.3-0.6 0.5-1.1 1.2-0.8q2.3 1.3 4.7 2.4 0.2 0.1 0.4 0.2c0.5 0.3 1.4 0.4 1.7 0.9 0.3 0.3 0.2 0.7 0.1 1.1z"/><path class="k" d="m25.3 27.2q0 0.2-0.1 0.4c-0.3 0.5-0.8 1-1 1.4q-0.6 1-1.1 2.1-0.1 0.1-0.2 0.2 0 0.2-0.1 0.4c-0.9 0.2-1.9-0.1-2.6-0.6-0.8-0.6-1.4-1.4-1.7-2.3-0.2-0.9-0.2-1.8 0.2-2.6 0.2-0.7 0.8-1.8 1.5-2 0.3-0.1 0.7 0.1 1 0.1q1 0.3 1.9 0.8c0.8 0.4 1.7 1 2.2 1.8q0 0.1 0 0.2 0 0.1 0 0.1z"/><path class="j" d="m30.2 16.5c-0.1-0.5-0.3-1-0.7-1.4-0.3-0.5-0.9-0.9-1.4-1.2q-0.5-0.4-1.1-0.7c-4.4-2.3-8.7 1.7-9.7 5.9-0.4 1.5-0.4 3.1-0.3 4.7 0.1 1.6 0.6 3.3 1.5 4.7 0.9 1.4 3 2.7 4.8 2.3 1.2-0.3 2.3-0.8 3.2-1.8q0.5-0.4 0.9-1c1.1-1.4 2.5-3.1 2.9-4.9 0.4-2.1 0.5-4.4-0.1-6.5q0 0 0-0.1z"/><path class="k" d="m26.3 22.3q0 0 0 0c-0.3-0.1-0.5 0.6-0.6 0.7q-0.2 0.6-0.3 1.1c-0.1 0.5 0 1-0.1 1.5-0.1 0.6-0.8 0.6-1.2 0.5-0.3 0-0.2 0.2 0 0.2 0.4 0.1 0.9 0.1 1.3-0.1 0.2-0.2 0.2-0.4 0.2-0.6q0.1-0.4 0.1-0.8 0-0.7 0.2-1.3 0.1-0.3 0.2-0.6c0.1-0.1 0.3-0.3 0.3-0.5q0-0.1-0.1-0.1z"/><path class="g" d="m29.8 22.9q0 0 0 0c0 0.1 0.1 0.2 0.1 0.1q0.1 0 0.1-0.1-0.1-0.3-0.2-0.5c-0.1-0.4-0.3-0.6-0.6-0.8q-0.6-0.4-1.2-0.5c-0.2 0-0.7-0.1-0.7 0.4 0 0.1 0.1 0.2 0.2 0.3q0.3 0 0.5 0c0.3 0 0.5 0 0.7 0.1q0.4 0.1 0.6 0.3 0.2 0.2 0.4 0.5 0 0.1 0.1 0.2z"/><path class="g" d="m21.3 19.6c0.2-0.3 1-0.4 1.3-0.4 0.8 0 1.6 0.2 2.3 0.7 0.2 0.2 0.3 0.6-0.1 0.7q-0.2 0-0.3-0.1-0.5-0.1-0.8-0.4c-0.4-0.2-0.7-0.4-1.1-0.5-0.2-0.1-0.5 0-0.7 0-0.2 0-0.5 0.1-0.6 0z"/><path class="g" d="m28.3 23.6c0-0.2-0.2-0.3-0.3-0.3q-0.2-0.1-0.4 0-0.3 0.1-0.4 0.3-0.2 0.3-0.2 0.5c0 0.2 0.2 0.4 0.3 0.4q0.1 0 0.1 0 0 0.1 0 0.1 0 0 0.1 0 0 0 0 0 0.1 0 0.1 0c0.2-0.1 0.4-0.2 0.5-0.4q0.1-0.1 0.2-0.3 0-0.2 0-0.3z"/><path class="g" d="m23.3 21.8c0-0.2-0.2-0.3-0.3-0.3q-0.3 0-0.4 0.1-0.3 0.1-0.4 0.4-0.1 0.3 0 0.5c0 0.2 0.2 0.3 0.3 0.4q0.1 0 0.1 0 0 0 0.1 0 0 0 0 0 0 0 0 0 0.1 0 0.1 0c0.2-0.1 0.4-0.3 0.5-0.5q0-0.1 0-0.3 0.1-0.2 0-0.3z"/><path class="i" d="m22.1 26.8c0-0.1 0.1-0.2 0.3-0.2 0.3 0.1 0.4 0.2 0.6 0.4 0.5 0.4 1 0.6 1.6 0.6 0.2 0 0.3 0 0.4 0.1 0.3 0.2-0.5 0.5-0.7 0.6-0.6 0.1-1.3-0.1-1.7-0.5-0.2-0.2-0.6-0.7-0.5-1z"/><path class="g" d="m15.9 19.4c-0.3 0.7-0.7 1.3-1 1.9-0.3 0.4-0.4 0.8-0.6 1.2-0.7 1.3-1.6 2.5-2.4 3.7-0.7 1-1.3 2-2.2 2.8-0.4 0.3-0.7 0.6-1 0.9-0.1 0-0.2 0.2-0.1 0.2q0.1 0 0.1 0c1.1 0.1 2.1 0.1 3.2 0.2 1.3 0.2 2.5-0.6 3.5-1.5 1-0.9 1.8-2 2.9-2.7 0.4-0.3 0.9-0.5 1.2-0.8q0.4-0.3 0.7-0.8c1-1.5 1.3-3.3 1.8-5 0.5-1.3 1.2-2.6 2.3-3.4 1-0.7 3-1.6 4.1-0.9 0.6 0.4 1 1 1.2 1.7 1 2.1 1.2 4.6 0.6 6.9-0.1 0.3-0.2 1 0.3 0.7 0.3-0.2 0.4-1.2 0.4-1.5q0.3-1.6 0.4-3.2c0.1-0.8 0.1-1.6-0.1-2.4-0.3-1.7-1.4-3.5-2.5-4.9-1.1-1.3-3.5-1.7-5.1-1.6-1.6 0.2-3.4 1.2-4.5 2.3-0.6 0.6-1.1 1.2-1.4 1.9-0.2 0.7-0.6 1.3-0.9 1.9-0.4 0.8-0.5 1.6-0.9 2.4z"/><path class="h" d="m26.2 13.8c0 0-0.2 0-0.2 0-1.8 0.6-3.3 1.8-4.3 3.5-1 1.8-1.1 4.1-2.4 5.8-0.6 0.9-1.5 1.6-2.5 1.9-0.1 0-0.1 0.1-0.1 0.1 0.1 0.1 0.2 0.1 0.3 0.1 0.9-0.3 1.7-0.9 2.3-1.6 0.7-0.8 1.1-1.7 1.4-2.7 0.3-1 0.6-2 1-3q0.7-1.4 1.7-2.3c0.8-0.8 1.7-1.3 2.7-1.7 0.1 0 0.1 0 0.1-0.1z"/><path class="h" d="m19.6 19.1c-0.7 1.3-1.6 2.5-2.9 3.4q-0.5 0.4-1.1 0.7-0.1 0 0 0.1c0.1 0 0.2 0 0.2 0 1.4-0.7 2.6-1.7 3.4-3q0.4-0.6 0.7-1.2c0-0.1-0.3-0.1-0.3 0z"/><path class="h" d="m23.4 11.1c0 0-0.2 0-0.2 0-1.6 0.2-3 1-4.1 2.1-0.1 0.1 0.2 0.2 0.2 0.1 1.1-1.1 2.5-1.8 4-2.1 0 0 0.1 0 0.1-0.1z"/><path class="h" d="m29.6 28.9c0-0.1-0.3-0.1-0.3 0q0.1 1.1-0.2 2.2c0 0.1 0.3 0.1 0.3 0q0.3-1.1 0.2-2.2z"/><path class="h" d="m13.7 28.4q-0.1 0-0.2 0.1c-0.5 0.7-1.5 1-2.3 0.7q-0.1-0.1-0.2 0c-0.1 0-0.1 0 0 0.1 1 0.4 2.2 0.1 2.8-0.8 0.1 0 0 0-0.1-0.1z"/><path class="g" d="m91.8 148.4q-0.1 0-0.2 0l-14.9-5.6q-0.2 0-0.3-0.2l-11.2-13.4c-0.3-0.3-0.2-0.7 0.1-1 0.2-0.2 0.7-0.2 0.9 0.1l11.1 13.4 14.8 5.4c0.3 0.1 0.5 0.5 0.4 0.9-0.1 0.2-0.4 0.4-0.7 0.4z"/><path class="g" d="m67.5 170.4h-3.7v-48.2h3.7z"/><path class="g" d="m76.9 127.6h-22.4v-3.3h22.4z"/><path class="g" d="m85.6 179c-3.3-6.4-9.1-11.2-16-13.4l-1.5-0.4q-1.2-0.4-2.4-0.4-1.2 0-2.4 0.4l-1.5 0.4c-6.9 2.2-12.7 7-16 13.4h19.3 1.2z"/><path class="h" d="m83.5 178.1c-1.4-2.1-3-4.1-4.8-5.8-1.9-1.8-3.9-3.3-6.1-4.5q-1.8-1-3.8-1.6c-0.1-0.1-0.2-0.1-0.2 0-0.1 0 0 0.1 0 0.1 2.4 0.8 4.6 1.9 6.6 3.4 2 1.4 3.8 3.1 5.5 5q1.3 1.6 2.5 3.4c0.1 0.1 0.4 0 0.3 0z"/><path class="h" d="m66.2 129v34.7c0 0.1 0.3 0.1 0.3 0v-34.7c0-0.1-0.3-0.1-0.3 0z"/><path class="h" d="m54.8 170.1c-2.1 1.4-4 3-5.6 5q-0.6 0.8-1.2 1.7c-0.1 0.1 0.2 0.1 0.3 0 1.4-2 3.1-3.9 5-5.4q0.8-0.6 1.7-1.2c0.2-0.1-0.1-0.1-0.2-0.1z"/><path class="f" d="m65.7 126c10.9 0 19.7-8.9 19.7-19.7v-6.3c0-10.9-8.8-19.7-19.7-19.7-10.9 0-19.7 8.8-19.7 19.7v6.3c0 10.8 8.8 19.7 19.7 19.7z"/><path class="f" d="m32.8 126h13.2c0 0 0-30.2 0-30.2 0-2.5-2.4-3.3-4.4-2.8-2.5 0.6-4.7 2.3-6.3 4.3-3.7 5.2-2.7 11.7-2.7 17.7q0 5.4 0 10.8c0 0.1 0.1 0.2 0.2 0.2z"/><path class="d" d="m49 113.5h34.1c0.2 0 0.2 0.2 0 0.2h-34.1c-0.2 0-0.2-0.2 0-0.2z"/><path class="f" d="m43.4 126h35.9c3.4 0 6.1-2.8 6.1-6.2 0-3.3-2.7-6.1-6.1-6.1h-35.9c-3.4 0-6.1 2.8-6.1 6.1 0 3.4 2.7 6.2 6.1 6.2z"/><path class="f" d="m81.4 126h13v-26.7c0-3.6-2.9-6.5-6.5-6.5-3.8 0-6.9 3.1-6.9 6.9v25.9c0 0.2 0.2 0.4 0.4 0.4z"/><path class="g" d="m48.9 161.2l13.5-35.6-1-0.3-13.5 35.5z"/><path class="g" d="m27.2 161.2l13.5-35.6-0.9-0.3-13.5 35.1z"/><path class="g" d="m32.2 166.3h10.8c3.3 0 5.9-2.6 5.9-5.9h-22.6c0 3.3 2.6 5.9 5.9 5.9z"/><path class="d" d="m41.9 56.7c-1.8 0.6-3.9 1.1-5 2.7-0.7 1.1-0.8 2.4-0.9 3.6 0 1.1 0.1 2.3 0 3.4-0.1 1.1-0.3 2.3-0.2 3.5 0 1.2 0.3 2.5 1 3.5 0 0.1 0.1 0.1 0.1 0.1q0.2-3.1 0.1-6.3c0-2-0.1-4 0.1-6 0.1-0.3 0.1-0.6 0.3-0.9 0.2-0.4 0.7-0.7 1.2-0.9 1.3-0.5 2.7-1.2 4.1-1.6 1.3-0.4 2.7-0.6 4-0.9 3.7-1 7.1-3.2 9.8-6 0.5-0.5 1.1-1.2 1.5-1.9 0.5-0.7 0.8-1.6 1-2.4 0.2-0.5 0.8-2 0-1.6-0.7 0.3-1.4 1.3-1.9 1.8q-1 0.9-1.9 1.7c-2.5 2.2-5.2 4.3-8.2 6q-2.4 1.4-5.1 2.2z"/><path class="f" d="m51.7 52q-0.1-0.1-0.2 0-2.1 1.6-4.4 2.9-0.6 0.3-1.3 0.7-0.1 0 0 0.1c0 0 0.1 0 0.2 0q2.4-1.2 4.5-2.7 0.6-0.5 1.2-0.9c0.1-0.1 0-0.1 0-0.1z"/><path class="f" d="m54.3 51.4q-1.7 1.6-3.7 2.6c-0.1 0.1-0.1 0.1 0 0.2 0 0 0.1 0 0.2 0 1.4-0.7 2.7-1.6 3.8-2.7 0.1-0.1-0.2-0.1-0.3-0.1z"/><path class="l" d="m60.1 63.5c2.2 0.2 4.5 0.3 6.7 0.3q2.3 0 4.5 0c0.3 0.1 0.5 0.1 0.8 0 0.6-0.2 1-1 0.8-1.6-0.2-0.3-0.3-0.5-0.3-0.9q-0.1-0.7-0.1-1.4c-0.2-1.9-0.5-3.8-0.6-5.7q-0.2-1.9-0.4-3.8c-0.1-1.9 0.2-3.7-0.9-5.3-0.5-0.6-1.1-1.1-1.8-1.3-0.2-0.1-0.5-0.1-0.6-0.3q-0.1 0-0.1 0c-0.1-0.1-0.2-0.3-0.3-0.4-0.6-1-1.8-1.3-2.9-1.3-2.3 0-4.8 1.1-5.9 3.1-0.9 1.6-1.3 3.4-1.5 5.2-0.2 1.8-0.2 3.6-0.2 5.4q0.1 1.9 0.1 3.9c0 1.1-0.1 2.2 0 3.3 0 0.2 0 0.6 0.1 0.6 0.1 0.1 0.5 0 0.6 0 0.5 0 1.2 0.1 1.7 0.2q0.1 0 0.3 0z"/><path class="a" d="m49.8 73.6q-0.6 3.5-1 7-0.6 4.4-0.9 8.8-0.1 2.2-0.2 4.4c0 1.2 0.2 2 1.6 2q1.4 0 2.7-0.3c0.7-0.1 1.4-0.3 1.9-0.8 0.5-0.5 0.7-1.2 0.9-1.9 1.4-5.5 2.2-11.1 3.1-16.7 0.3-2.1 0.6-4.1 0.5-6.2-0.1-1.1-0.3-2.3-0.8-3.3-1.6-2.7-4.9-2-6.3 0.4-1 1.8-1.1 4.2-1.4 6.3q-0.1 0.1-0.1 0.3z"/><path class="j" d="m42.9 99.6c-2 2-4.4 3.7-6.1 6-1.7 2.4-3.1 4.7-3.2 7.8-0.1 0.3-0.1 0.6 0.2 0.9 0.3 0.3 0.8 0.2 1.2 0 1.9-1.1 2.3-3.7 4.2-4.8 2.4-1.4 4.8-2.8 7.1-4.3 2.3-1.5 4.6-3.1 6.3-5.2 0.9-1 3.2-4 2-5.3-0.3-0.4-0.8-0.6-1.3-0.8-1.4-0.5-2.9-0.8-4.3-0.7-1.2 0-1.6 1.3-2.2 2.1-1 1.2-2 2.3-3 3.4q-0.5 0.4-0.9 0.9z"/><path class="j" d="m45.7 156.2q0.1 0 0.1-0.1c0.5-0.9 0.4-2 0.6-3 0.2-1.3 0.7-2.6 1-3.9 1.9-8.1 3.9-16.2 5.5-24.3 0.4-1.8 0.8-3.7 0.6-5.5-0.2-1.8-1-4.4-2.9-4.9-1.5-0.4-3.9-0.2-4.9 1.1-0.5 0.8-0.7 1.7-0.8 2.7-1.5 9-2 18.1-2.7 27.2q-0.2 3.1-0.3 6.2c-0.1 1.3-0.7 4 0.3 5.2 0.3 0.3 0.7 0.4 1 0.5 1.1 0.3 2-0.2 2.5-1.2z"/><path class="j" d="m46.1 158.3c-0.3 0.3-0.7 0.5-1 0.7q-0.8 0.4-1.5 0.7c-0.1 0.1-0.3 0.1-0.4 0.2q-0.2 0.1-0.4 0.3-0.3 0.4-0.6 0.8c-0.2 0.2-0.3 0.5-0.5 0.7q-0.2 0.2-0.6 0.4c-1.1 0.7-2.4 0.6-3.6 0.5-0.1-0.2 0-0.4 0.2-0.6 0.2-0.3 0.4-0.5 0.6-0.8 0.3-0.4 0.6-0.9 0.8-1.4q0.9-1.8 1.8-3.6c0.7-1.3 1.5-3 3.3-3 0.6 0.1 1.1 0.2 1.5 0.6 0.8 0.7 1.2 2.2 1.1 3.2-0.1 0.5-0.2 0.8-0.6 1.2q0 0-0.1 0.1z"/><path class="h" d="m47.1 155.8c0-0.1-0.4-1.2-0.7-1-0.2 0.1-0.3 0.4-0.4 0.6-0.3 0.3-0.8 0.5-1.2 0.5-0.8 0-1.4-0.6-2.1-0.7-1.6-0.3-2.5 1.5-3.2 2.6q-0.7 1.1-1.4 2.2c-0.4 0.6-0.8 1.3-1.1 1.9-0.1 0.4-0.2 0.9-0.1 1.3q0 0.2 0 0.4c0.2 0.7 0.9 0.9 1.6 0.9q0.3 0 0.6 0c1.1-0.2 2.1-0.6 3.1-1.3q0.8-0.6 1.5-1.3c0.5-0.5 0.9-1 1.3-1.5q0.6-0.7 1.1-1.4c0.4-0.5 1-1.1 1.1-1.7q0-0.3 0-0.6 0-0.4-0.1-0.9z"/><path class="c" d="m47.2 156.7q0 0.3 0 0.6c-0.1 0.6-0.7 1.2-1.1 1.7q-0.5 0.7-1.1 1.4c-0.4 0.5-0.8 1-1.3 1.5q-0.7 0.7-1.5 1.3c-1 0.7-2 1.1-3.1 1.3q-0.3 0-0.6 0c-0.7 0-1.4-0.2-1.6-0.9q0-0.2 0-0.4c0.4 0.2 0.7 0.5 1.2 0.6q0.5 0.1 1 0.1 0.7-0.1 1.3-0.3 0.5-0.2 0.9-0.4c1.3-0.7 2.3-1.8 3.2-3q1.2-1.5 2.4-3.1c0.1-0.2 0.2-0.3 0.3-0.4z"/><path class="g" d="m43.1 155.8q-1 1.4-1.9 2.7l-1 1.3q-0.2 0.3-0.4 0.6-0.2 0.3-0.1 0.6 0.2 0.4 0.4 0.8 0.2 0.4 0.4 0.9c0.1 0 0.3 0 0.3-0.1q-0.4-0.7-0.7-1.4c-0.1-0.2-0.2-0.4-0.1-0.7 0.1-0.2 0.3-0.4 0.4-0.6q0.9-1.3 1.9-2.6 0.5-0.7 1-1.4c0.1-0.1-0.2-0.1-0.2-0.1z"/><path class="g" d="m41.7 155.6q-0.9 1.1-1.6 2.2-0.4 0.6-0.7 1.2c-0.3 0.4-0.4 0.8-0.7 1.2-0.4 0.3-0.8 0.6-1.2 0.9-0.1 0.1 0.1 0.1 0.2 0.1 0.4-0.2 0.7-0.5 1-0.8 0.4-0.3 0.6-0.7 0.8-1.1q0.6-1.2 1.4-2.3 0.5-0.7 1-1.3c0.1-0.1-0.2-0.2-0.2-0.1z"/><path class="c" d="m42.9 156.9c-0.6-0.5-1.3-0.7-2.1-0.6 0 0-0.2 0.1-0.1 0.2 0 0.1 0.2 0.1 0.2 0.1q0.4-0.1 0.8 0 0.5 0.2 0.8 0.4c0.1 0.1 0.2 0.1 0.3 0.1 0.1 0 0.2-0.1 0.1-0.2z"/><path class="c" d="m42.1 158c-0.5-0.5-1.3-0.8-2-0.7 0 0-0.2 0.1-0.1 0.1 0 0.1 0.2 0.1 0.3 0.1 0 0 0 0 0 0q0.1 0 0.1 0 0.1 0 0.2 0 0.2 0.1 0.4 0.2 0.4 0.1 0.7 0.4c0 0.1 0.2 0.1 0.3 0.1 0.1-0.1 0.1-0.1 0.1-0.2z"/><path class="c" d="m41.2 159.2c-0.2-0.3-0.4-0.4-0.7-0.6-0.4-0.1-0.7-0.2-1.1-0.2-0.1 0-0.2 0.1-0.2 0.2 0.1 0.1 0.2 0.1 0.3 0.1q0.1-0.1 0.2 0 0.1 0 0.1 0 0.2 0.1 0.4 0.1c0.3 0.1 0.4 0.3 0.5 0.5 0.1 0.1 0.6 0.1 0.5-0.1z"/><path class="c" d="m40.4 160.3c-0.3-0.5-1-0.8-1.6-0.7-0.1 0-0.2 0-0.2 0.1 0.1 0.1 0.2 0.1 0.3 0.1q0 0 0 0 0.1 0 0.1 0 0 0 0 0c0.1 0 0.1 0 0.1 0q0 0 0 0 0 0 0.1 0 0 0 0 0 0 0 0 0 0 0 0 0 0.1 0 0.1 0.1 0.1 0 0.1 0 0 0 0 0 0 0 0.1 0 0.3 0.2 0.5 0.5c0 0.1 0.2 0.1 0.3 0.1 0 0 0.2-0.1 0.1-0.2z"/><path class="g" d="m46.2 155.6c0-0.2-0.3-0.1-0.2 0 0 0.1-0.1 0.3-0.1 0.5q-0.1 0.3-0.1 0.5-0.1 0.6 0 1.1c0 0.1 0.2 0.1 0.2 0q0-0.5 0-1.1 0.1-0.2 0.1-0.5c0.1-0.2 0.1-0.4 0.1-0.5z"/><path class="j" d="m36.7 156.2q0-0.1 0.1-0.1c0.4-1 0.3-2 0.4-3.1 0.2-1.3 0.6-2.6 0.9-3.9 1.5-8.2 3.1-16.3 4.4-24.5 0.3-1.9 0.5-3.7 0.3-5.6-0.3-1.8-1.2-4.3-3.2-4.7-1.5-0.3-3.8 0-4.8 1.3-0.5 0.8-0.6 1.8-0.7 2.7-1 9.1-1.1 18.2-1.4 27.3q-0.1 3.1-0.1 6.2c0 1.4-0.5 4.1 0.6 5.2 0.3 0.3 0.7 0.4 1.1 0.5 1.1 0.2 1.9-0.4 2.4-1.3z"/><path class="j" d="m37.2 158.3c-0.3 0.2-0.7 0.5-1 0.7q-0.8 0.4-1.5 0.8c-0.1 0.1-0.2 0.1-0.4 0.2q-0.2 0.1-0.3 0.3-0.4 0.4-0.6 0.8c-0.1 0.2-0.3 0.5-0.5 0.7q-0.2 0.3-0.5 0.5c-1.1 0.7-2.4 0.6-3.6 0.7-0.1-0.3 0-0.5 0.1-0.7 0.2-0.2 0.4-0.5 0.6-0.8 0.3-0.4 0.5-0.9 0.8-1.4q0.8-1.8 1.6-3.7c0.6-1.4 1.4-3.1 3.2-3.1 0.5 0 1.1 0.1 1.5 0.5 0.8 0.6 1.3 2.1 1.2 3.1-0.1 0.5-0.2 0.8-0.5 1.2q-0.1 0.1-0.1 0.2z"/><path class="h" d="m38.1 155.7c-0.1-0.1-0.5-1.2-0.8-1-0.2 0.2-0.3 0.4-0.4 0.6-0.3 0.4-0.7 0.6-1.1 0.6-0.8 0-1.4-0.5-2.2-0.6-1.6-0.2-2.4 1.6-3 2.8q-0.7 1.1-1.4 2.2c-0.3 0.7-0.7 1.3-0.9 2-0.1 0.4-0.2 0.8-0.1 1.2q0 0.3 0.1 0.5c0.2 0.7 0.9 0.8 1.5 0.8q0.4 0 0.7-0.1c1.1-0.1 2.1-0.7 3-1.4q0.8-0.6 1.4-1.3c0.5-0.5 0.9-1.1 1.3-1.6q0.5-0.8 1-1.5c0.4-0.4 1-1.1 1-1.7q0-0.3 0-0.6 0-0.4-0.1-0.9z"/><path class="c" d="m38.2 156.6q0 0.3 0 0.6c0 0.6-0.6 1.3-1 1.7q-0.5 0.7-1 1.5c-0.4 0.5-0.8 1.1-1.3 1.6q-0.6 0.7-1.4 1.3c-0.9 0.7-1.9 1.3-3 1.4q-0.3 0.1-0.7 0.1c-0.6 0-1.3-0.1-1.5-0.8q-0.1-0.2-0.1-0.5c0.4 0.2 0.8 0.5 1.3 0.6q0.5 0.1 0.9 0 0.7-0.1 1.3-0.3 0.5-0.2 0.9-0.4c1.2-0.8 2.2-2 3.1-3.2q1.1-1.6 2.2-3.2c0.1-0.2 0.2-0.3 0.3-0.4z"/><path class="g" d="m34 155.9q-0.9 1.4-1.8 2.7l-0.8 1.4q-0.3 0.3-0.5 0.6-0.1 0.3 0 0.6 0.2 0.4 0.5 0.8 0.2 0.4 0.4 0.8c0.1 0.1 0.3 0.1 0.3 0q-0.4-0.7-0.8-1.4c-0.1-0.2-0.2-0.4-0.1-0.7 0.1-0.2 0.2-0.4 0.4-0.6q0.8-1.3 1.7-2.6 0.5-0.8 1-1.5c0-0.1-0.2-0.2-0.3-0.1z"/><path class="g" d="m32.6 155.8q-0.8 1-1.5 2.2-0.3 0.6-0.6 1.3c-0.2 0.4-0.4 0.8-0.7 1.1-0.3 0.4-0.7 0.7-1.1 1-0.1 0.1 0.1 0.2 0.2 0.1 0.4-0.2 0.7-0.5 1-0.8 0.3-0.3 0.5-0.7 0.7-1.1q0.6-1.3 1.3-2.5 0.5-0.6 1-1.3c0-0.1-0.2-0.1-0.3 0z"/><path class="c" d="m33.9 157c-0.6-0.5-1.4-0.6-2.1-0.5-0.1 0-0.2 0.1-0.1 0.2 0 0 0.2 0 0.2 0q0.4 0 0.8 0.1 0.5 0.1 0.8 0.4c0.1 0 0.2 0 0.3 0 0.1 0 0.2-0.1 0.1-0.2z"/><path class="c" d="m33.1 158.1c-0.5-0.5-1.2-0.7-1.9-0.6-0.1 0-0.2 0.1-0.2 0.2 0.1 0.1 0.2 0.1 0.3 0 0 0 0 0 0.1 0q0 0 0.1 0 0.1 0 0.2 0 0.2 0.1 0.4 0.1 0.3 0.2 0.6 0.5c0.1 0 0.3 0 0.3 0 0.1 0 0.2-0.1 0.1-0.2z"/><path class="c" d="m32.3 159.4c-0.2-0.3-0.4-0.5-0.7-0.6-0.4-0.1-0.7-0.2-1.1-0.1-0.1 0-0.2 0-0.2 0.1 0.1 0.1 0.2 0.1 0.3 0.1q0.1 0 0.2 0 0.1 0 0.1 0 0.2 0.1 0.4 0.1c0.3 0.1 0.4 0.3 0.6 0.5 0 0.1 0.5 0.1 0.4-0.1z"/><path class="c" d="m31.6 160.5c-0.4-0.5-1-0.8-1.7-0.7 0 0-0.2 0.1-0.1 0.2 0 0.1 0.2 0.1 0.3 0.1q0 0 0 0 0 0 0 0 0.1 0 0.1 0c0 0 0.1 0 0 0q0 0 0 0 0.1 0 0.1 0 0 0 0.1 0 0 0 0 0 0 0 0 0 0 0 0.1 0 0 0 0 0 0 0 0 0 0.1 0 0.1 0.1 0.4 0.1 0.6 0.4c0 0.1 0.1 0.1 0.2 0.1 0.1 0 0.2-0.1 0.2-0.2z"/><path class="g" d="m37.2 155.5c0-0.1-0.3-0.1-0.3 0 0 0.2 0 0.4-0.1 0.5q0 0.3 0 0.6-0.1 0.5 0 1.1c0 0.1 0.3 0.1 0.3 0q-0.1-0.6-0.1-1.1 0.1-0.3 0.1-0.6c0-0.1 0.1-0.3 0.1-0.5z"/><path class="a" d="m48.8 111c0.5 1.6 2.3 2 3.7 2.2q7.4 1 14.8 0.9c3.3 0 8.3-0.3 9.8-3.9 1-2.5 0-5.3-0.2-7.9-0.5-4.4-0.1-8.9 0.1-13.2 0.3-4.7 0.5-9.3 1.4-13.9 0.5-2.5 1-5.1 0.3-7.5-0.9-3.2-3.4-4.3-6.2-4.8-1.7-0.2-3.4-0.3-5-0.4-2.3-0.2-4.6-0.7-6.9-0.2-2 0.4-4 0.9-5.5 2-1.4 0.9-2.5 2.2-3.1 4.2-0.5 1.7-0.5 3.4-0.6 5.2 0 1.4-0.4 2.9-0.4 4.3 0.1 1.2 0.3 2.4 0.3 3.6 0.1 3.3 0.7 6.5 1 9.8 0.3 3.7 0.2 7-1.2 10.4-0.6 1.3-1.3 2.6-1.8 4-0.4 1.5-1.1 3.7-0.5 5.2z"/><path class="a" d="m36 108.5c1.6-3.5 4.3-5.5 8.1-6.1 2.9-0.5 6 0.3 8.8-0.4 2.9-0.7 5.8-0.4 8.8-0.5q5.1 0 10.3-0.2c1.3 0 3-0.4 4.2 0.3 1.1 0.7 1.4 2.4 1.7 3.6q0.1 0.9 0.2 1.9c0.1 2.8-0.8 5.7-3 7.4-1.7 1.4-4 1.7-6.2 2q-5 0.5-9.9 0.4c-1.7 0-3-0.6-3.8 1.1-0.6 1.3-0.9 2.8-0.7 4.2q-10.6-0.6-21.1-2.1c0.1-3.4 0.7-6.8 1.9-10q0.3-0.8 0.7-1.6z"/><path class="a" d="m89.1 86q0.5 1.9 1 3.8c0.2 1.1 0.4 2.3-0.2 3.3-0.8 1.4-2.5 1.3-3.8 1-1.7-0.5-2.8-1.9-3.6-3.4-0.8-1.4-1.2-3-1.9-4.4-0.5-1.3-1.1-2.5-1.8-3.7q-2.8-5.6-5.3-11.3c-0.6-1.5-1.1-3.1-0.6-4.5 1.1-2.7 4.3-2.1 6.1-0.5 0.8 0.7 1.5 1.7 2.1 2.6 1.8 2.7 3.6 5.3 4.7 8.3 1.1 2.9 2.4 5.8 3.3 8.8z"/><path class="j" d="m89.6 94.6q-0.1 0.2-0.2 0.4c-0.6 1-1.6 1.9-2.5 2.7-3.7 3.6-6.7 7.9-10.8 11.1-0.3 0.2-0.7 0.5-1.1 0.6-0.8 0.2-1.5-0.2-2.2-0.6-0.2-0.1-0.4-0.2-0.5-0.4-0.1-0.3 0-0.5 0.1-0.8q1.9-3.8 4.2-7.4c0.7-1.1 1.6-2.1 2.2-3.1 0.8-1.2 1.4-2.7 2.2-3.9 0.7-1.3 1.3-3.1 2.8-3.7 1-0.3 2-0.7 3.1-0.8 0.7-0.1 1.4-0.1 2 0.1 2.2 0.9 1.4 4.2 0.7 5.8z"/><path class="j" d="m76.9 109.7c0.3-1.4 1.1-2.8-0.7-3.4-0.9-0.3-2.1-0.2-2.9 0.2-0.9 0.5-1.4 1.5-1.8 2.4-0.8 2-1.3 4.2-1.4 6.3 0 0.3 0 1.5 0.6 1.1 0.3-0.3 0.4-1.1 0.5-1.5 0.1-0.5 0.2-1 0.4-1.5q0.1-0.3 0.3-0.6c0.1-0.2 0.3-0.4 0.4-0.6-0.6 1.6-0.8 3.2-0.7 4.9 0 0.2 0.1 0.6 0.4 0.6 0.2 0 0.4-0.3 0.5-0.5 0.4-1.6 0.3-3.4 1.3-4.7q-0.6 2.4-0.4 4.9c0 0.2 0.1 0.5 0.3 0.5 0.3 0.1 0.5-0.3 0.5-0.6q0.3-2.2 0.7-4.4 0 1.9 0.1 3.8c0 0.4 0 0.9 0.3 1.1 0.4-0.4 0.5-0.9 0.6-1.4 0.1-1.1 0.1-2.3 0.3-3.4 0.2-1 0.7-2.1 0.7-3.2z"/><path class="b" d="m51.9 73.6q0.2-2.3 0.7-4.5c0-0.2 0.4-0.1 0.3 0-0.6 2.6-0.9 5.4-0.9 8.2-0.1 2.7 0 5.5 0.3 8.3q0.1 2.3 0.4 4.6c0 0.1-0.3 0.1-0.3 0-0.3-2.8-0.6-5.5-0.7-8.3-0.1-2.7-0.1-5.5 0.2-8.3z"/><path class="b" d="m51.6 102.4q2.6 0.2 5.2 0.6 2.7 0.3 5.2 0.8 1.5 0.3 2.9 0.6c0.1 0.1 0.1 0.1 0.1 0.2-0.1 0-0.2 0-0.2 0q-2.6-0.6-5.1-1-2.6-0.5-5.1-0.7-1.5-0.2-3-0.3c0 0-0.1 0-0.1-0.1 0 0 0.1-0.1 0.1-0.1z"/><path class="b" d="m74 70.5q0.1-0.7 0.1-1.5 0.1-0.8 0.3-1.5c0.1-0.5 0.2-1 0.6-1.4 0.3-0.4 0.7-0.7 1.2-0.8 0 0 0.1 0 0.1 0.1 0.1 0 0 0.1-0.1 0.1-0.9 0.2-1.3 1.1-1.5 2q-0.2 0.7-0.2 1.4-0.1 0.7-0.2 1.5c-0.1 1.9 0 3.9 0.5 5.8q0.4 1.6 1.1 3.1c0 0.2-0.3 0.2-0.3 0.1-0.9-1.8-1.4-3.8-1.5-5.8q-0.2-1.6-0.1-3.1z"/><path class="j" d="m55.1 64.3c0.3 0.8 0.9 1.5 1.6 2 1.2 0.9 2.7 1.3 4.2 1.5q1.7 0.2 3.4 0c2-0.3 4-1 5.7-2.2 0.9-0.6 2.2-1.6 2.5-2.7-1.7-0.2-3.4-0.3-5-0.4-2.3-0.2-4.6-0.7-6.9-0.2-2 0.4-4 0.9-5.5 2z"/><path class="a" d="m87 102.7c-1.1 0.7-2.3 1.3-3.1 2.3-0.6 0.7-0.9 1.6-1.1 2.5-1 3.8-1.3 7.8-2.1 11.7q-1.4 6.8-2.7 13.6c-0.2 0.6-0.3 1.3-0.7 1.8-0.5 0.6-1.4 0.8-2.2 1.1-4.7 1.8-6.5 7.4-10.4 10.6-2.2 1.8-4.9 2.7-7.7 3.1-1.4 0.3-3 0.1-4.4 0.5-1.1 0.2-1.6 0.6-3.1 0.6q-7 0.1-13.9 0.1c-3.5 0-8 1.1-10.3-2.1-1.4-1.9-2.7-5.1-2.9-7.5-0.2-3 1.3-6.9 1.9-9.9q2-10.1 4-20.1c0.4-1.6 0.7-3.2 1.4-4.7 1.1-2.3 2.9-4.1 5-5.5 2-1.3 4.5-1.2 5.6-3.5 0.8-1.5 0.8-3.3 1.2-4.9q0.7-2.9 1.6-5.8 1.7-5.6 3.9-11.1c1.2-3 2.4-6.8 4.3-9.5 1-1.3 2.6-2 4.1-2.5 2-0.5 3.9-2.1 6.1-1.6 2.1 0.5 4.2 0.3 6.3-0.1 1.8-0.3 3.3 0.2 5 0.7 1.8 0.6 3.5 1.3 5 2.5 3 2.4 5.3 5.7 7.2 9 2.8 4.8 5.1 9.8 6.9 15 0.9 2.6 1.6 5.4 0.7 7.9-0.9 2.1-2.6 3.1-4.2 4.6-0.4 0.5-0.9 0.8-1.4 1.2z"/><path class="j" d="m69.3 61.7q-0.7 0-1.5 0.1c-2.1 0.4-4.2 0.6-6.3 0.1q-0.3-0.1-0.6-0.1 0.1-1.7 0-3.5c0-0.9 0-1.7 0-2.5 0.1-0.6 0.1-1.3 0.8-1.5 0.7-0.2 1.4-0.1 2.1-0.1q0.9 0.1 1.8 0.2c0.5 0.1 0.9 0 1.3 0.1 0.4 0 0.9 0 1.3 0.1 1.2 0.6 0.8 2.6 0.8 3.6 0.1 1.2 0.1 2.4 0.3 3.5z"/><path class="k" d="m68 58.5q0 0.3-0.2 0.6c-0.2 0.4-0.5 0.6-0.8 0.9-1 1-2.7 1.3-4 0.8-0.9-0.3-1.8-1-2-2-0.2-1 0.2-1.7 0.9-2.3 0.2-0.3 0.5-0.6 0.9-0.7q0.3-0.1 0.7-0.1 0.4-0.1 0.9-0.1c0.3-0.1 0.6-0.1 0.9-0.1q0.8 0.3 1.7 0.6c0.7 0.1 1.1 1 1.1 1.6q0 0.4-0.1 0.8z"/><path class="j" d="m70.2 54.7c-0.4 1.5-1.2 3-2.4 4.2-0.9 0.9-2.3 1.5-3.7 1.4-1.4-0.1-2.7-0.9-3.6-1.9-1.8-2-1.8-4.4-1.7-6.9q0.1-2.3 0.5-4.5c0.3-1.9 0.9-3.8 2.9-4.5 0.7-0.2 1.4-0.3 2.1-0.3 0.7 0 1.4 0 2 0.2 0.6 0.2 1.1 0.5 1.7 0.9 0.8 0.6 1.5 1.3 2.1 2.2 0.8 1.4 0.7 2.9 0.8 4.4 0.1 1.7-0.2 3.3-0.7 4.8z"/><path class="l" d="m73.8 80.3c0.7-3 0.7-6.3 0.7-9.4 0-1.2 0.2-2.3 0.1-3.5-0.1-1.3-0.3-2.6-0.4-3.8q-0.4-6.2-1.1-12.4c-0.2-2.4-0.6-4.9-1.9-6.9-1.3-2.1-3.8-3.5-6.3-3.4-1.8 0.1-3.6 1-4.7 2.4-1.2 1.6-1.4 3.7-1.5 5.7q-0.1 2.5-0.1 5 0 1.3 0 2.6c0.1 0.5-0.1 1.9 0.4 2.1 0.2-0.3 0.1-1 0.1-1.4q0-1.1-0.1-2.2c0-3.3 0.1-6.8 1.5-9.8q0-0.1 0.1-0.1c0-0.1 0.2 0 0.2 0.1 0.6 0.5 1.2 0.8 1.9 1.1q1.7 0.7 3.4 1.5c0.8 0.4 1.6 0.8 2.3 1.5 0.7 0.7 0.5 1.4 0.5 2.4q0.1 3.4 0.3 6.9c0.1 3.4 0.2 6.9 0.4 10.3q0.1 2.7 0.3 5.3c0.1 1.7 0 3.3-0.1 4.9 0 2.2 0 4.3 0.1 6.5 0 0.2 0 0.5 0.2 0.8 0.1 0.3 0.4 0.5 0.7 0.4 0.2 0 0.3-0.1 0.5-0.3 0.4-0.5 0.6-1.1 0.9-1.7 0.6-1.5 1.3-3 1.6-4.6z"/><path class="k" d="m63.3 50.4q0 0 0 0c0.3 0 0.2 0.7 0.2 0.8q0 0.6-0.2 1.1c-0.1 0.5-0.3 0.9-0.5 1.3-0.1 0.6 0.5 0.9 0.9 1 0.2 0 0.1 0.2-0.1 0.1-0.4-0.1-0.8-0.3-1.1-0.6-0.1-0.2 0-0.4 0.1-0.6q0.1-0.4 0.3-0.8 0.2-0.5 0.3-1.1 0-0.3 0-0.6c0-0.2-0.1-0.4 0-0.6q0 0 0.1 0z"/><path class="l" d="m59.4 50.2q0 0-0.1 0c0 0-0.1 0.1-0.1 0.1q0-0.1 0-0.1c0.1-0.2 0.2-0.3 0.4-0.5 0.3-0.2 0.6-0.4 1-0.5q0.7-0.1 1.5 0c0.2 0.1 0.8 0.1 0.6 0.6-0.1 0.2-0.3 0.2-0.4 0.2q-0.3 0-0.6-0.1c-0.2-0.1-0.5-0.2-0.7-0.2q-0.4-0.1-0.8 0.1-0.3 0.1-0.6 0.2-0.1 0.1-0.2 0.2z"/><path class="l" d="m68.8 50.4c-0.1-0.4-0.8-0.8-1.1-0.9-0.8-0.4-1.6-0.5-2.5-0.3-0.3 0.1-0.6 0.4-0.2 0.7q0.2 0 0.4 0.1 0.4 0 0.9-0.1c0.4 0 0.8-0.2 1.2-0.1 0.3 0.1 0.5 0.2 0.7 0.3 0.2 0.1 0.4 0.3 0.6 0.3z"/><path class="g" d="m65.8 50.9c0.1-0.1 0.3-0.1 0.4 0q0.2 0 0.4 0.2 0.1 0.3 0.1 0.6 0 0.2-0.1 0.5c-0.2 0.1-0.4 0.2-0.6 0.1q0 0 0 0 0 0-0.1 0 0 0 0 0 0 0 0 0-0.1-0.1-0.2-0.1c-0.1-0.2-0.2-0.4-0.2-0.6q0-0.2 0.1-0.4 0.1-0.1 0.2-0.3z"/><path class="g" d="m60.3 51c0.1-0.2 0.3-0.1 0.5-0.1q0.2 0.1 0.3 0.3 0.2 0.2 0.1 0.5 0 0.3-0.2 0.5c-0.1 0.2-0.3 0.2-0.5 0.2q0 0 0 0-0.1-0.1-0.1-0.1 0 0 0 0 0 0-0.1 0 0 0-0.1-0.1c-0.1-0.1-0.2-0.4-0.1-0.6q0-0.2 0.1-0.4 0-0.1 0.1-0.2z"/><path class="i" d="m65.4 56.1q0-0.1 0-0.2c0-0.5-1.1-0.1-1.4 0q-0.4 0.1-0.9-0.1c-0.2-0.1-0.7-0.3-0.8 0.1 0 0.4 0.4 0.9 0.7 1q0.2 0.1 0.4 0.1 0.3 0.1 0.7 0c0.5 0 0.9-0.3 1.2-0.7q0-0.1 0.1-0.2z"/><path class="e" d="m69.9 48.6c-2-0.7-4-1.7-5.8-2.9q-0.7-0.6-1.5-1.1-0.1-0.1-0.2-0.1c0 0-0.1 0.1 0 0.1 1.7 1.5 3.6 2.6 5.7 3.5q0.8 0.3 1.7 0.6c0.1 0.1 0.2 0.1 0.2 0 0 0 0-0.1-0.1-0.1z"/><path class="e" d="m68.4 45.3q-1.3-0.7-2.4-1.6-0.1-0.1-0.2 0c-0.1 0-0.1 0-0.1 0.1q1.2 0.9 2.5 1.6 0.1 0 0.2 0 0.1-0.1 0-0.1z"/><path class="e" d="m71.1 67.5q0-3.8-0.2-7.6-0.1-2.1-0.3-4.2c0-0.1-0.3-0.1-0.3 0q0.3 3.8 0.4 7.5 0.2 3.8 0.2 7.6 0 2.1-0.1 4.2c0 0.1 0.3 0.1 0.3 0q0.1-3.8 0-7.5z"/><path class="e" d="m72.9 64.6q0-0.7-0.1-1.5c0-0.1-0.3-0.1-0.3 0q0.3 2.6 0.3 5.3 0 0.7 0 1.4c0 0.2 0.3 0.2 0.3 0q0-2.6-0.2-5.2z"/><path class="b" d="m68.5 126.7q0.3-3.2 0.5-6.5 0.2-1.8 0.3-3.6c0-0.1 0.3-0.1 0.3 0q-0.2 3.2-0.5 6.5-0.3 3.2-0.6 6.4-0.2 1.8-0.4 3.7c-0.1 0.1-0.4 0.1-0.4 0q0.4-3.3 0.8-6.5z"/><path class="b" d="m50.8 140.4q0.8-3.9 1.6-7.7 0.8-3.9 1.6-7.7 0.4-2.2 0.9-4.3c0-0.2 0.3-0.1 0.3 0q-0.8 3.8-1.6 7.7-0.8 3.8-1.6 7.6-0.4 2.2-0.9 4.4c0 0.1-0.3 0.1-0.3 0z"/><path class="b" d="m33.2 133.3q1-4.8 2.1-9.6 0.2-1.4 0.5-2.7c0.1-0.2 0.4-0.2 0.4 0q-1.1 4.8-2.1 9.6-0.3 1.3-0.6 2.7c0 0.1-0.4 0.1-0.3 0z"/><path class="b" d="m78.4 93.4c-0.9 1.1-1.7 2.2-2.5 3.4-0.7 1.2-1.3 2.4-1.7 3.8q-0.3 1.2-0.5 2.4c0 0.1 0.3 0.2 0.3 0 0.2-1.4 0.5-2.8 1.1-4.2 0.6-1.2 1.3-2.4 2.1-3.4q0.7-1 1.4-1.9c0.1-0.1-0.2-0.2-0.2-0.1z"/><path class="b" d="m56 96.1q-2.6 0.1-5.3 0.3-2.6 0.2-5.2 0.4c-0.8 0-1.7 0.1-2.4 0.5-0.2 0.1 0.1 0.2 0.2 0.2 0.6-0.4 1.4-0.5 2.1-0.6q1.3 0 2.6-0.1l5.1-0.4q1.4-0.1 2.9-0.2c0 0 0.2 0 0.2-0.1 0 0-0.2 0-0.2 0z"/><path class="b" d="m52.4 72.2c-1.4 2.4-2.4 5.1-3 7.9q-0.2 1.2-0.3 2.4c0 0.1 0.3 0.1 0.3 0 0.2-2.8 1-5.6 2.2-8.1q0.5-1.1 1.1-2.2c0.1-0.1-0.2-0.1-0.3 0z"/><path class="f" d="m94.4 126c0 0 0-30.2 0-30.2 0-5.1-6.5-1.7-8.5-0.1-2.5 1.9-4 4.9-4.7 8-0.8 3-0.9 6.2-0.9 9.4q-0.1 3.7-0.2 7.5-0.1 1.9-0.1 3.9c-0.1 2.1 1 1.6 2.6 1.5 1.6-0.2 3.1 0 4.7 0q3.5 0 7.1 0z"/><path class="f" d="m112.1 120.8c-3.4 0-6.2-2.7-6.2-6.1v-0.7h12.3v0.7c0 3.4-2.8 6.1-6.1 6.1z"/><path class="h" d="m126.3 103.8h-2.3v-2.6h2.3z"/><path class="h" d="m128.4 99.5c-0.1 0.7-0.6 1.3-1.2 1.6-0.4 0.2-0.8 0.4-1.1 0.7q-0.1 0.1-0.2 0.2c-0.2 0.2-0.5 0.2-0.8 0.1-0.4-0.2-0.7-0.4-1-0.7-0.2-0.2-0.3-0.3-0.4-0.2q-0.2 0-0.3 0.2c-0.4 0.9-1 1.6-1.8 2.1-0.4 0.2-0.8 0.4-1.2 0.3q0.6-0.9 1.1-1.7c0.4-0.5 0.8-1.1 1-1.7 0.1-0.4 0.2-0.6 0.2-0.8q-0.1-0.3-0.4-0.5-0.2-0.2-0.4-0.3 0-0.1-0.1-0.1c-0.1-0.3 0-0.6 0.2-0.8 0.2-0.2 0.4-0.3 0.6-0.2q0.2 0 0.4 0c1 0.2 1.9 0.6 2.8 0.9 0.5 0.2 0.9 0.4 1.3 0.6 0.4 0.2 0.9 0.3 1.3 0.3z"/><path class="a" d="m127.8 120.5h-5.4v-15.5c0-1.5 1.2-2.7 2.7-2.7 1.5 0 2.7 1.2 2.7 2.7z"/><path class="g" d="m123.7 101.2q-0.2 0-0.3 0.2c-0.4 0.9-1 1.6-1.8 2.1-0.4 0.2-0.8 0.4-1.2 0.3q0.6-0.9 1.1-1.7c0.4-0.5 0.8-1.1 1-1.7 0.1-0.4 0.2-0.6 0.2-0.8q0.3 0.2 0.6 0.6 0.3 0.4 0.4 1z"/><path class="g" d="m122.6 97.7q-0.3 0.5-0.7 1.1 0-0.1-0.1-0.1c-0.1-0.3 0-0.6 0.2-0.8 0.2-0.2 0.4-0.3 0.6-0.2z"/><path class="b" d="m127.2 117h-2.8v-9.5h2.8z"/><path class="h" d="m137.1 179h-35.5v-58.4h35.5z"/><path class="g" d="m137.1 179h-35.5v-4.2h35.5z"/><path fill-rule="evenodd" class="g" d="m134.3 135.4h-30.2v-11.8h30.2zm-29.6-0.5h29.1v-10.9h-29.1z"/><path fill-rule="evenodd" class="g" d="m134.3 170.7h-30.2v-31.7h30.2zm-29.6-0.5h29.1v-30.7h-29.1z"/><path class="a" d="m124.4 129h-10v-1.9h10z"/><path class="a" d="m128.4 159.9v-10h1.9v10z"/></svg>