<?xml version="1.0" encoding="UTF-8" standalone="no" ?>
<!DOCTYPE svg PUBLIC "-//W3C//DTD SVG 1.1//EN" "http://www.w3.org/Graphics/SVG/1.1/DTD/svg11.dtd">
<svg xmlns="http://www.w3.org/2000/svg" xmlns:xlink="http://www.w3.org/1999/xlink" version="1.1" width="1080" height="1080" viewBox="0 0 1080 1080" xml:space="preserve">
<desc>Created with Fabric.js 5.2.4</desc>
<defs>
</defs>
<rect x="0" y="0" width="100%" height="100%" fill="transparent"></rect>
<g transform="matrix(1 0 0 1 540 540)" id="db1fb59f-e50f-4894-b37c-22d45be80aac"  >
<rect style="stroke: none; stroke-width: 1; stroke-dasharray: none; stroke-linecap: butt; stroke-dashoffset: 0; stroke-linejoin: miter; stroke-miterlimit: 4; fill: rgb(255,255,255); fill-rule: nonzero; opacity: 1; visibility: hidden;" vector-effect="non-scaling-stroke"  x="-540" y="-540" rx="0" ry="0" width="1080" height="1080" />
</g>
<g transform="matrix(1 0 0 1 540 540)" id="3db3e3a3-7548-44ca-865e-e50f3d96ea9d"  >
</g>
<g transform="matrix(12.27 0 0 12.27 540 540)"  >
<g style="" vector-effect="non-scaling-stroke"   >
		<g transform="matrix(1 0 0 1 -23.3 24.85)"  >
<path style="stroke: none; stroke-width: 1; stroke-dasharray: none; stroke-linecap: butt; stroke-dashoffset: 0; stroke-linejoin: miter; stroke-miterlimit: 4; fill: rgb(125,103,103); fill-rule: nonzero; opacity: 1;" vector-effect="non-scaling-stroke"  transform=" translate(-17.7, -62)" d="M 14.9 50 L 16.7 74 L 17.7 74 L 18.599999999999998 74 L 20.499999999999996 50 L 17.699999999999996 50 z" stroke-linecap="round" />
</g>
		<g transform="matrix(1 0 0 1 23 24.85)"  >
<path style="stroke: none; stroke-width: 1; stroke-dasharray: none; stroke-linecap: butt; stroke-dashoffset: 0; stroke-linejoin: miter; stroke-miterlimit: 4; fill: rgb(125,103,103); fill-rule: nonzero; opacity: 1;" vector-effect="non-scaling-stroke"  transform=" translate(-64, -62)" d="M 64 50 L 61.2 50 L 63 74 L 64 74 L 65 74 L 66.8 50 z" stroke-linecap="round" />
</g>
		<g transform="matrix(1 0 0 1 0 -15.55)"  >
<path style="stroke: none; stroke-width: 1; stroke-dasharray: none; stroke-linecap: butt; stroke-dashoffset: 0; stroke-linejoin: miter; stroke-miterlimit: 4; fill: rgb(75,176,223); fill-rule: nonzero; opacity: 1;" vector-effect="non-scaling-stroke"  transform=" translate(-41, -21.6)" d="M 63 0.3 L 41 0.3 L 19 0.3 C 16.7 0.3 14.8 2.1999999999999997 14.8 4.5 L 14.8 41.9 Q 14.8 42.4 14.9 42.9 L 41 42.9 L 67.1 42.9 Q 67.19999999999999 42.4 67.19999999999999 41.9 L 67.19999999999999 4.5 C 67.19999999999999 2.2 65.39999999999999 0.2999999999999998 62.999999999999986 0.2999999999999998 z" stroke-linecap="round" />
</g>
		<g transform="matrix(1 0 0 1 20.2 11.95)"  >
<path style="stroke: none; stroke-width: 1; stroke-dasharray: none; stroke-linecap: butt; stroke-dashoffset: 0; stroke-linejoin: miter; stroke-miterlimit: 4; fill: rgb(77,152,200); fill-rule: nonzero; opacity: 1;" vector-effect="non-scaling-stroke"  transform=" translate(-61.2, -49.1)" d="M 67.1 42.9 L 76.1 42.9 C 79 42.9 81.39999999999999 45.199999999999996 81.39999999999999 48.199999999999996 L 81.39999999999999 49.99999999999999 C 81.39999999999999 52.89999999999999 78.99999999999999 55.29999999999999 76.1 55.29999999999999 L 40.99999999999999 55.29999999999999 L 40.99999999999999 46.099999999999994 L 40.99999999999999 42.89999999999999 z" stroke-linecap="round" />
</g>
		<g transform="matrix(1 0 0 1 28.05 0.9)"  >
<path style="stroke: none; stroke-width: 1; stroke-dasharray: none; stroke-linecap: butt; stroke-dashoffset: 0; stroke-linejoin: miter; stroke-miterlimit: 4; fill: rgb(77,152,200); fill-rule: nonzero; opacity: 1;" vector-effect="non-scaling-stroke"  transform=" translate(-69.05, -38.05)" d="M 64.2 48 L 73.9 48 L 73.9 28.1 L 64.2 28.1 z" stroke-linecap="round" />
</g>
		<g transform="matrix(1 0 0 1 31.2 -9.05)"  >
<path style="stroke: none; stroke-width: 1; stroke-dasharray: none; stroke-linecap: butt; stroke-dashoffset: 0; stroke-linejoin: miter; stroke-miterlimit: 4; fill: rgb(77,152,200); fill-rule: nonzero; opacity: 1;" vector-effect="non-scaling-stroke"  transform=" translate(-72.2, -28.1)" d="M 64.2 28.1 C 64.2 32.5 67.8 36.1 72.2 36.1 C 76.60000000000001 36.1 80.2 32.5 80.2 28.1 C 80.2 23.700000000000003 76.60000000000001 20.1 72.2 20.1 C 67.8 20.1 64.2 23.700000000000003 64.2 28.1 z" stroke-linecap="round" />
</g>
		<g transform="matrix(1 0 0 1 13.9 -13.85)"  >
<path style="stroke: none; stroke-width: 1; stroke-dasharray: none; stroke-linecap: butt; stroke-dashoffset: 0; stroke-linejoin: miter; stroke-miterlimit: 4; fill: rgb(250,218,144); fill-rule: nonzero; opacity: 1;" vector-effect="non-scaling-stroke"  transform=" translate(-54.9, -23.3)" d="M 54.1 23.3 C 54.1 22.900000000000002 54.5 22.5 54.9 22.5 C 55.4 22.5 55.699999999999996 22.9 55.699999999999996 23.3 C 55.699999999999996 23.8 55.4 24.1 54.9 24.1 C 54.5 24.1 54.1 23.8 54.1 23.3 z" stroke-linecap="round" />
</g>
		<g transform="matrix(1 0 0 1 13.9 -13.7)"  >
<path style="stroke: none; stroke-width: 1; stroke-dasharray: none; stroke-linecap: butt; stroke-dashoffset: 0; stroke-linejoin: miter; stroke-miterlimit: 4; fill: rgb(250,218,144); fill-rule: nonzero; opacity: 1;" vector-effect="non-scaling-stroke"  transform=" translate(-54.9, -23.45)" d="M 54.9 27.3 L 55.3 23.400000000000002 L 54.9 19.6 L 54.5 23.400000000000002 z" stroke-linecap="round" />
</g>
		<g transform="matrix(1 0 0 1 13.9 -13.7)"  >
<path style="stroke: none; stroke-width: 1; stroke-dasharray: none; stroke-linecap: butt; stroke-dashoffset: 0; stroke-linejoin: miter; stroke-miterlimit: 4; fill: rgb(250,218,144); fill-rule: nonzero; opacity: 1;" vector-effect="non-scaling-stroke"  transform=" translate(-54.9, -23.45)" d="M 51 23.4 L 54.9 23.9 L 58.8 23.4 L 54.9 23 z" stroke-linecap="round" />
</g>
		<g transform="matrix(1 0 0 1 -20.2 11.95)"  >
<path style="stroke: none; stroke-width: 1; stroke-dasharray: none; stroke-linecap: butt; stroke-dashoffset: 0; stroke-linejoin: miter; stroke-miterlimit: 4; fill: rgb(77,152,200); fill-rule: nonzero; opacity: 1;" vector-effect="non-scaling-stroke"  transform=" translate(-20.8, -49.1)" d="M 14.9 42.9 L 6 42.9 C 3 42.9 0.5999999999999996 45.199999999999996 0.5999999999999996 48.199999999999996 L 0.5999999999999996 49.99999999999999 C 0.5999999999999996 52.89999999999999 2.9999999999999996 55.29999999999999 6 55.29999999999999 L 41 55.29999999999999 L 41 46.099999999999994 L 41 42.89999999999999 z" stroke-linecap="round" />
</g>
		<g transform="matrix(1 0 0 1 -27.95 0.9)"  >
<path style="stroke: none; stroke-width: 1; stroke-dasharray: none; stroke-linecap: butt; stroke-dashoffset: 0; stroke-linejoin: miter; stroke-miterlimit: 4; fill: rgb(77,152,200); fill-rule: nonzero; opacity: 1;" vector-effect="non-scaling-stroke"  transform=" translate(-13.05, -38.05)" d="M 17.9 48 L 8.2 48 L 8.2 28.1 L 17.9 28.1 z" stroke-linecap="round" />
</g>
		<g transform="matrix(1 0 0 1 -31.15 -9.05)"  >
<path style="stroke: none; stroke-width: 1; stroke-dasharray: none; stroke-linecap: butt; stroke-dashoffset: 0; stroke-linejoin: miter; stroke-miterlimit: 4; fill: rgb(77,152,200); fill-rule: nonzero; opacity: 1;" vector-effect="non-scaling-stroke"  transform=" translate(-9.85, -28.1)" d="M 17.9 28.1 C 17.9 32.5 14.299999999999999 36.1 9.899999999999999 36.1 C 5.399999999999999 36.1 1.799999999999999 32.5 1.799999999999999 28.1 C 1.799999999999999 23.700000000000003 5.399999999999999 20.1 9.899999999999999 20.1 C 14.299999999999999 20.1 17.9 23.700000000000003 17.9 28.1 z" stroke-linecap="round" />
</g>
		<g transform="matrix(1 0 0 1 -13.85 -13.85)"  >
<path style="stroke: none; stroke-width: 1; stroke-dasharray: none; stroke-linecap: butt; stroke-dashoffset: 0; stroke-linejoin: miter; stroke-miterlimit: 4; fill: rgb(250,218,144); fill-rule: nonzero; opacity: 1;" vector-effect="non-scaling-stroke"  transform=" translate(-27.15, -23.3)" d="M 28 23.3 C 28 22.900000000000002 27.6 22.5 27.1 22.5 C 26.700000000000003 22.5 26.3 22.9 26.3 23.3 C 26.3 23.8 26.7 24.1 27.1 24.1 C 27.6 24.1 28 23.8 28 23.3 z" stroke-linecap="round" />
</g>
		<g transform="matrix(1 0 0 1 -13.85 -13.7)"  >
<path style="stroke: none; stroke-width: 1; stroke-dasharray: none; stroke-linecap: butt; stroke-dashoffset: 0; stroke-linejoin: miter; stroke-miterlimit: 4; fill: rgb(250,218,144); fill-rule: nonzero; opacity: 1;" vector-effect="non-scaling-stroke"  transform=" translate(-27.15, -23.45)" d="M 27.1 27.3 L 26.700000000000003 23.400000000000002 L 27.1 19.6 L 27.6 23.400000000000002 z" stroke-linecap="round" />
</g>
		<g transform="matrix(1 0 0 1 -13.85 -13.7)"  >
<path style="stroke: none; stroke-width: 1; stroke-dasharray: none; stroke-linecap: butt; stroke-dashoffset: 0; stroke-linejoin: miter; stroke-miterlimit: 4; fill: rgb(250,218,144); fill-rule: nonzero; opacity: 1;" vector-effect="non-scaling-stroke"  transform=" translate(-27.15, -23.45)" d="M 31 23.4 L 27.1 23.9 L 23.3 23.4 L 27.1 23 z" stroke-linecap="round" />
</g>
</g>
</g>
</svg>