<svg version="1.2" xmlns="http://www.w3.org/2000/svg" viewBox="0 0 109 160" width="109" height="160"><style>.a{fill:#404082}.b{fill:#a9ccff}.c{fill:#6981b7}.d{fill:#e6eefc}.e{fill:#272443}.f{fill:#e75860}.g{fill:#f7967c}.h{fill:#d83f4e}.i{fill:#db634f}.j{fill:#db6357}.k{fill:#fff}.l{fill:#f5f9ff}</style><path class="a" d="m75 148.5v-49.9h-4.6v49.9z"/><path class="a" d="m72.7 159.2h-21.1c-1 0-1.4-1.3-0.6-1.8l9.5-6.6 12.2-8.5 12.2 8.5 9.6 6.6c0.8 0.5 0.4 1.8-0.6 1.8z"/><path class="b" d="m109 76.4v15.2c0 13-9 24-21.2 26.9q-1.4 0.3-2.7 0.5-1.9 0.3-3.8 0.3h-17.2c-15.3 0-27.7-12.4-27.7-27.7v-15.2c0-1.6 1.2-2.9 2.8-2.9h67c1.5 0 2.8 1.3 2.8 2.9z"/><path class="c" d="m98.4 103.7c-1.3 2.6-3.1 5-5.2 7.1q-1.2 1.2-2.4 2.2-0.4 0-0.8-0.1 0 0 0 0-0.6 0-1.2 0-2 0-4.1 0h-24.1q-2 0-4 0-0.6 0-1.2 0-0.4 0.1-0.8 0.1-1.3-1-2.4-2.2c-2.2-2.1-3.9-4.5-5.2-7.1q0.1-0.3 0.3-0.5 0.2-0.4 0.5-0.7c0.7-0.8 1.7-1.4 2.8-1.9 0.6-0.4 1.5-0.8 2.2-0.8 0.8 0 1.7 0.4 2.4 0.5 1.1 0.2 2.1 0.3 3.2 0.5 4.7 0.6 9.5 1 14.3 1.2 4.8-0.2 9.6-0.6 14.3-1.2 1-0.2 1.9-0.3 2.9-0.4 1.3-0.1 2.7-0.9 4.2-0.3 1.2 0.5 2.6 1.5 3.5 2.4q0.3 0.3 0.5 0.7 0.1 0.2 0.3 0.5z"/><path class="c" d="m55.4 112.9q-0.4 0.1-0.8 0.1-1.3-1-2.4-2.2c-2.2-2.1-3.9-4.5-5.2-7.1-2-3.9-3.1-8.2-3.1-12.7v-17.5h0.6v17.5c0 4.3 1 8.5 2.8 12.2 1.9 3.8 4.7 7.2 8.1 9.7z"/><path class="c" d="m101.4 73.5v17.5c0 4.5-1 8.8-3 12.7-1.3 2.6-3.1 5-5.2 7.1q-1.2 1.2-2.4 2.2-0.4 0-0.8-0.1c3.4-2.5 6.2-5.9 8.1-9.7 1.8-3.7 2.8-7.9 2.8-12.2v-17.5z"/><path class="b" d="m92.2 36.8c-0.1 2.9-0.6 6.3-3 8-0.6 0.5-1.4 0.8-2.1 1.1q-1.5 0.5-3 0.9 0 0 0 0 0 0 0 0-0.3 0.1-0.6 0.2 0 0 0 0c-2.5 0.5-5 0.7-7.6 0.5-1 0-2.1-0.2-3.1-0.6q0-0.1-0.1-0.1-0.1 0-0.2 0.1c-0.9 0.4-2 0.6-3.1 0.6q-3 0.3-6.1-0.2-0.2-0.1-0.5-0.1 0 0 0 0-2.3-0.5-4.5-1.3c-0.8-0.3-1.5-0.6-2.1-1.1-2.4-1.7-3-5.1-3-8 0-3.5 0.3-6.9 0.8-10.2q0.1-0.2 0.1-0.3 0.2-1.3 0.4-2.5c0.6-3.7 1.4-7.3 2.8-10.8 0.9-2.2 2.1-4.2 3.5-6.1q0.2-0.2 0.3-0.3 1.2-1.4 2.6-2.6c2.1-1.7 5.8-3.4 9-3.4 3.2 0 6.8 1.7 9 3.4q1.3 1.1 2.4 2.3 0.1 0.2 0.3 0.4c1.5 1.9 2.7 4.1 3.7 6.3 1.4 3.5 2.1 7.1 2.8 10.8q0.2 1.1 0.3 2.2 0.1 0.2 0.1 0.4c0.5 3.4 0.9 6.9 0.9 10.4z"/><path class="c" d="m89.5 26l1.8 0.4q0-0.2-0.1-0.4l-1.7-0.4h-0.4l-3.2-0.7c-8.5-1.8-17.1-1.8-25.6 0l-3 0.7h-0.4l-2.8 0.7q0 0.1-0.1 0.3l2.9-0.6q-0.2 1.6-0.4 3.2c-0.2 1.9-0.3 3.8-0.1 5.7 0.1 1.8 0.4 3.5 1 5.2 0.5 1.7 1.3 3.3 2.5 4.7 0.6 0.7 1.3 1.2 2 1.8q0.4 0.3 0.9 0.6 0.3 0 0.5 0.1-0.3-0.2-0.6-0.4c-0.7-0.6-1.5-1.1-2.1-1.7-0.7-0.7-1.2-1.4-1.6-2.2q-0.7-1.1-1.1-2.4c-0.7-1.6-1-3.4-1.2-5.2-0.2-1.8-0.1-3.7 0-5.6q0.2-2 0.5-3.9l3.1-0.7c8.5-1.8 17-1.8 25.5 0l3.4 0.7q0.3 2 0.4 3.9c0.2 1.9 0.2 3.8 0.1 5.6-0.2 1.8-0.6 3.6-1.2 5.2q-0.4 1.3-1.1 2.4c-0.4 0.8-0.9 1.5-1.6 2.2-0.6 0.6-1.4 1.1-2.1 1.7q-0.1 0-0.2 0.1 0.3-0.1 0.6-0.2 0 0 0 0 0.2-0.1 0.4-0.2c0.7-0.6 1.4-1.1 2-1.8 1.2-1.4 2-3 2.5-4.7 0.6-1.7 0.9-3.4 1-5.2 0.2-1.9 0.1-3.8-0.1-5.7q-0.2-1.6-0.4-3.2z"/><path class="c" d="m89.9 29.2c0.2 1.9 0.3 3.8 0.1 5.7-0.1 1.8-0.4 3.5-1 5.2-0.5 1.7-1.3 3.3-2.5 4.7-0.6 0.7-1.3 1.2-2 1.8q-0.2 0.1-0.4 0.2-0.3 0.1-0.6 0.2 0 0 0 0c-2.5 0.5-5 0.7-7.6 0.5-1 0-2.1-0.2-3.1-0.6q0-0.1-0.1-0.1-0.1 0-0.2 0.1c-0.9 0.4-2 0.6-3.1 0.6q-3 0.3-6.1-0.2-0.2-0.1-0.5-0.1 0 0 0 0-0.5-0.3-0.9-0.6c-0.7-0.6-1.4-1.1-2-1.8-1.2-1.4-2-3-2.5-4.7-0.6-1.7-0.9-3.4-1-5.2-0.2-1.9-0.1-3.8 0.1-5.7q0.2-1.6 0.4-3.2l-2.9 0.6q0.1-0.2 0.1-0.3l2.8-0.7h0.4l3-0.7c8.5-1.8 17.1-1.8 25.6 0l3.2 0.7h0.4l1.7 0.4q0.1 0.2 0.1 0.4l-1.8-0.4q0.2 1.6 0.4 3.2z"/><path class="c" d="m84.4 6.7c-7.9-1.5-15.8-1.4-23.6 0.2q0.2-0.2 0.3-0.3c7.6-1.6 15.3-1.7 23-0.3q0.1 0.2 0.3 0.4z"/><path class="d" d="m87.7 17.5q-0.7-2.2-1.5-4.3c-0.9-2.7-2.1-5.3-4-7.4-1-1.1-2.2-2.1-3.5-2.8-0.1 0-0.2 0-0.3 0-0.1 0.1-0.1 0.2 0 0.2 2.3 1.2 4 3.3 5.3 5.5 1.5 2.6 2.4 5.5 3.3 8.3 0.5 1.7 1 3.4 1.3 5.1 0 0.2 0.5 0.2 0.5 0-0.2-1.6-0.6-3.1-1.1-4.6z"/><path class="d" d="m59.5 13c-1.1 2.4-1.9 4.9-2.4 7.4q-0.2 1.1-0.4 2.2c0 0.2 0.5 0.2 0.5 0q0.6-3.8 2-7.5 0.4-1.1 0.8-2.1c0.1-0.1-0.4-0.2-0.5 0z"/><path class="a" d="m95.5 77.1q0 0.3 0 0.5 0 0.2 0 0.5-0.1 0.7-0.2 1.5-0.1 0.2-0.1 0.5c-0.5 1.6-1.3 3-2.9 3.7-0.8 0.3-1.6 0.3-2.4 0.5-1.1 0.3-1.9 0.6-3.1 0.6-1.9-0.1-3.6 0.2-5.5 0.4q0 0-0.1 0-0.4 0-0.9 0.1-1.1 0.1-2.3 0.2c-1.6 0-3.2 0-4.8-0.1q-0.3 0-0.5 0-0.3 0-0.5 0c-1.6 0.1-3.3 0.1-4.9 0.1q-1.1-0.1-2.3-0.2-0.4-0.1-0.8-0.1-0.1 0-0.2 0c-3.5-0.4-7-0.1-10.5-0.9-0.5-0.2-1.1-0.4-1.6-0.6-1.4-0.8-2-2.1-2.3-3.6q0-0.2 0-0.5-0.1-0.5-0.1-1.1 0-0.2 0-0.4 0-0.3 0-0.6 0.1-2.3 0.6-4.5 0.1-0.2 0.1-0.4 0.2-1 0.5-2 0.1-0.2 0.2-0.4c0.5-1.7 1.1-3.4 1.7-5q0.1-0.2 0.2-0.5 0.3-0.9 0.7-1.8 0.1-0.2 0.2-0.4 0.2-0.6 0.4-1.1c0.5-1.3 1-2.6 1.6-3.8q0.3-0.5 0.6-0.9 0.1-0.2 0.3-0.5 0.7-0.7 1.6-1.3 0.4-0.3 0.8-0.5 1-0.5 2.1-0.9 0.8-0.3 1.6-0.7 1-0.3 2-0.7 0.6-0.3 1.3-0.6 0.5-0.2 1-0.3 1.1-0.4 2.2-0.9 0.2 0 0.2-0.1c0.6 0 1.2 0.1 1.8 0.2q0.2 0 0.4 0 0.2 0 0.4 0 0.3 0.1 0.7 0.1 0.3 0 0.7-0.1 0.2 0 0.4 0 0.2 0 0.4 0c0.6-0.1 1.2-0.2 1.8-0.2q0 0.1 0.1 0.1 1.1 0.5 2.3 0.9 0.4 0.1 1 0.3 0.6 0.3 1.3 0.6 1 0.4 1.9 0.7 0.9 0.4 1.7 0.7 1.2 0.4 2.2 1.1 0.3 0.2 0.6 0.4 0.9 0.7 1.6 1.7 0.2 0.2 0.3 0.4 0.8 1.1 1.4 2.5 0.2 0.4 0.4 0.9 0.3 0.7 0.5 1.4 0.1 0.2 0.1 0.4 0.3 0.7 0.5 1.3 0 0.3 0.1 0.5 0.3 0.9 0.6 1.8c0.4 1.2 0.9 2.4 1.4 3.7q0.1 0.2 0.2 0.4 0.2 0.6 0.4 1.3 0.1 0.4 0.2 0.9 0.1 0.2 0.1 0.4c0.4 1.4 0.6 2.9 0.6 4.4z"/><path class="e" d="m78.1 78.1q-10.9 0.2-21.9 0.1-3.3 0-6.7 0 0 0.2 0 0.4 8.1 0.1 16.2 0.1 11-0.1 21.9-0.4 4-0.1 7.9-0.2 0-0.3 0-0.5-8.7 0.3-17.4 0.5zm-18.9 1.8q-4.8-0.1-9.6-0.2 0 0.3 0 0.5 10.1 0.2 20.1 0.4c8 0.1 15.9 0.1 23.9-0.4q0.8-0.1 1.6-0.1 0-0.3 0.1-0.5-6.2 0.5-12.3 0.6c-8 0.1-15.9-0.1-23.8-0.3zm13.4-6.7q11.2-0.1 22.3-0.5 0-0.2-0.1-0.4-3.7 0.1-7.4 0.2c-9 0.2-18 0.3-27 0.3q-5.1 0-10.2-0.1 0 0.2-0.1 0.4 11.3 0.2 22.5 0.1zm-2.3-2.6c7.9-0.3 15.9-0.5 23.9-0.5q-0.1-0.2-0.2-0.4-4.5-0.1-8.9 0c-8.6 0.1-17.2 0.7-25.8 0.8q-4.2 0-8.4-0.2-0.1 0.2-0.2 0.4c6.5 0.4 13.1 0.2 19.6-0.1zm2.2-6q9.8-0.3 19.5-0.4-0.1-0.2-0.1-0.5-1.9 0.1-3.9 0.1-13.7 0.2-27.5 0.7c-2.6 0.1-5.1 0.3-7.7 0.3q-0.1 0.3-0.2 0.5 3.1-0.1 6.2-0.3 6.9-0.2 13.7-0.4zm18.9-2.2q0-0.2-0.1-0.4-2.4 0-4.8 0-12.8 0.3-25.6 0.5-3.6 0-7.2 0.1-0.1 0.2-0.2 0.4c6.2-0.1 12.4-0.2 18.6-0.3q9.7-0.1 19.3-0.3zm-2.4-5.2q-0.1-0.2-0.3-0.4-1.8 0-3.5 0c-7.4 0.2-14.8 0-22.2-0.2q-3.2-0.1-6.4-0.3-0.2 0.3-0.3 0.5c5.5 0.2 11 0.4 16.6 0.5 5.3 0.1 10.7 0.1 16.1-0.1zm-14.4-2c3.8 0.2 7.6 0.2 11.5 0q0.5-0.1 1-0.1-0.3-0.2-0.6-0.4c-7.4 0.5-14.8-0.2-22.2-0.2q-2.6 0-5.3 0-0.4 0.2-0.8 0.5 2.4-0.1 4.7-0.1c3.9 0 7.8 0.2 11.7 0.3z"/><path class="f" d="m85.7 104.8c2.6-1.1 3.6-4.4 3.5-6.8-0.1-1.5-0.2-2.9-0.5-4.3-0.4-2.4-1.4-4.7-2.3-6.9-0.6-1.4-0.9-3.7-1.9-4.8-0.9-1-3.2-1.5-4.5-1.8-3.2-0.8-6.4-0.8-9.6-0.7-1.5 0-2.9 0.1-4.3 0.3-3.3 0.7-5.3 3-6.7 5.9-1.3 2.6-2.6 5.2-3.2 8-0.7 2.8-0.6 5.8 0.7 8.4 1.8 3.5 5.9 2.7 9.3 2.7q5.9 0 11.9 0 3.8 0 7.6 0z"/><path class="g" d="m81 94.1c-0.6-1.5-1.2-3-1.9-4.5-0.5-1.3-1.2-2.6-2.5-3.1-0.8-0.4-1.7-0.4-2.7-0.3-1.8 0.1-3.5 0.2-5.2 0.6-1.1 0.6-2 1.5-2.7 2.5-0.7 1.2-1.3 2.4-1.7 3.8q-0.3 1-0.4 2-0.1 1.2 0.1 2.4c0.3 1.5 0.8 3 1.7 4.4 0.5 0.6 1 1.2 1.6 1.8q0.3 0.4 0.6 0.7 0.7-0.2 1.3-0.4c1.9-0.6 3.7-1.4 5.3-2.4q0-0.1 0.1-0.1 1-0.6 1.9-1.4c1.6-1.2 3-2.6 4.2-4.1 0.2-0.3 0.5-0.6 0.5-1 0-0.3-0.1-0.6-0.2-0.9z"/><path class="g" d="m75.7 108q0.2 2.7 0.1 5.3c-0.2 4.5-0.9 8.9-1.4 13.4q-0.7 5.2-1 10.5-0.2 2.7-0.3 5.4c-0.1 0.8 0.3 3.6-0.5 4.1-0.3 0.2-1.2-0.1-1.5-0.1-1.9-0.3-1.8-1.1-2.2-2.9q-0.6-2.7-1.1-5.4-0.9-5.2-1.5-10.5c-0.8-6-1.7-12.2-1.5-18.2 0.1-3.8 0.5-8.7 2.8-11.8 0.4-0.5 0.8-1 1.4-1.3 1.7-0.8 3.7 0.1 4.9 1.6 1.7 2 1.3 3.8 1.5 6.2q0.2 1.9 0.3 3.7z"/><path class="g" d="m74.8 149.8c0 0.4-0.1 0.6-0.4 0.8q-0.4 0.3-0.8 0.7-0.2 0.3-0.5 0.5-0.3 0.3-0.7 0.6-0.1 0.1-0.3 0.2c-0.3 0.2-0.6 0.4-0.9 0.4q-0.2 0-0.5-0.2-0.5-0.4-1-0.8-0.7-0.6-1.2-1.2c-0.2-0.2-0.3-0.3-0.3-0.5q0-0.2 0-0.4 0 0 0 0 0-0.2 0-0.3 0.2-1.4 0.5-2.8 0.1-0.6 0.2-1.2 0-0.2 0-0.4c0.3-1.2 0.4-2.4 1.6-2.8 0.2-0.1 0.4 0 0.6-0.1 0.2 0 0.3-0.1 0.5 0 0.2 0 0.3 0.2 0.4 0.3 0.6 0.8 1 1.8 1.3 2.8q0.3 0.8 0.6 1.6 0 0 0 0 0.1 0.2 0.1 0.4 0.3 0.8 0.6 1.6 0.1 0.3 0.2 0.6 0 0.1 0 0.2z"/><path class="f" d="m74.8 149.8c0 0.4-0.1 0.6-0.4 0.8q-0.4 0.3-0.8 0.7-0.2 0.3-0.5 0.5-0.3 0.3-0.7 0.6-0.1 0.1-0.3 0.2c-0.3 0.2-0.6 0.4-0.9 0.4q-0.2 0-0.5-0.2-0.5-0.4-1-0.8-0.7-0.6-1.2-1.2c-0.2-0.2-0.3-0.3-0.3-0.5q0-0.2 0-0.4 0 0 0 0 0-0.2 0-0.3 0.2-1.4 0.5-2.8 0 0.5 0.1 1.1 0.1 0.9 0.3 1.7h4.6q0.2-0.8 0.3-1.7 0-0.3 0-0.5 0.3 0.8 0.6 1.6 0.1 0.3 0.2 0.6 0 0.1 0 0.2z"/><path class="g" d="m82.5 96.8q0.2 0.5 0.4 0.9c5.2 11.7 10.1 23.5 15.1 35.3-0.2-0.4-4 0.9-4.5 0.7-1-0.3-1.8-2.3-2.4-3.2q-1.7-2-3.3-4.1-3.1-4.1-6.2-8.4c-4-5.7-7.7-11.7-10.6-18.1-1.1-2.3-2.1-4.7-1.9-7.2 0.2-3.5 3.6-5 6.7-3.7 3.5 1.4 5.2 4.6 6.7 7.8z"/><path class="g" d="m104.7 136.7c0.1 0.3-0.1 0.5-0.3 0.6q-0.3 0.1-0.5 0.1c-1 0.1-1.7 0.6-2.7 0.5-1 0-1.9-0.4-2.8-0.8q-0.5-0.2-1-0.3c-0.6-0.3-1.3-0.4-2-0.5-0.7-0.2-1.4-0.4-1.9-0.9-0.8-0.7-0.9-1.6-0.9-2.6 0-0.3 0-0.7 0.1-1q0 0 0 0 0.1-0.2 0.2-0.4 0.1 0 0.1 0 0.1-0.2 0.3-0.3 0-0.1 0.1-0.1 0 0 0 0 0-0.1 0.1-0.1 0.2-0.2 0.4-0.3c0.7-0.3 1.4-0.3 2-0.1q0.6 0.2 1.2 0.6 0.2 0.1 0.3 0.2 0.2 0.1 0.3 0.2 0.2 0.2 0.4 0.3 0.2 0.2 0.3 0.3 0.1 0 0.1 0 0.6 0.5 1.2 1.1 1.1 0.8 2.1 1.6c0.8 0.7 1.7 1.1 2.6 1.6 0.2 0.1 0.3 0.2 0.3 0.3z"/><path class="f" d="m106.5 137.3c-0.2-0.3-0.6-0.5-0.9-0.7q-0.4-0.2-0.8-0.3c-0.4-0.2-0.8-0.4-1.1-0.4-0.3 0-0.6 0.2-0.9 0.4-0.5 0.4-1.3 1.7-2 1.4-1-0.4-1.8-1-2.7-1.4-1.7-0.9-3-2.6-4.8-3-0.4-0.1-0.8-0.1-0.9 0.3-0.1 0.3 0 0.7 0.1 1.1q0.1 0.3 0.4 0.7 0.1 0.2 0.3 0.4c0.4 0.4 1 0.6 1.4 0.9 0.7 0.5 1.3 1 1.9 1.5q0.1 0.1 0.2 0.1 0.1 0.1 0.2 0c0.3 0 0.3-0.2 0.2-0.5 0 0 0-0.1-0.1-0.3-0.1-0.2-0.3-0.4-0.3-0.5q0 0 0 0 0.9 0.3 1.8 0.7c0.7 0.3 1.5 0.6 2.3 0.7 0.9 0.1 1.7-0.1 2.6-0.1 0.8 0 1.6 0 2.5-0.3 0.4-0.1 0.8-0.1 0.6-0.7z"/><path class="h" d="m96.9 138.3q-0.1 0.1-0.2 0-0.1 0-0.2-0.1c-0.6-0.5-1.2-1-1.9-1.5-0.4-0.3-1-0.5-1.4-0.9q-0.2-0.2-0.3-0.4 0.2 0 0.4 0.1 0.8 0.3 1.5 0.5c0.5 0.2 1 0.4 1.4 0.6q0.3 0.2 0.5 0.4c0 0.1 0.2 0.3 0.3 0.5 0.1 0.2 0.1 0.3 0.1 0.3 0.1 0.3 0.1 0.5-0.2 0.5z"/><path class="h" d="m68.1 86.6c0 0-0.2 0-0.2 0q-2.3 0.3-4.5 1.1-2.1 0.8-4 2.1-1.1 0.6-2.2 1.4c0 0.1 0.1 0.1 0.1 0.1q0.1 0.1 0.2 0 1.8-1.4 3.8-2.4 2-1 4.2-1.6 1.2-0.4 2.5-0.6c0 0 0.1 0 0.1-0.1z"/><path class="h" d="m87.3 91.6c-0.8-1.1-1.8-1.9-2.9-2.6q-0.9-0.5-1.8-1c-0.6-0.3-1.2-0.6-1.9-0.9-0.8-0.2-1.6-0.3-2.4-0.2 0 0-0.1 0-0.1 0.1 0 0 0.1 0 0.2 0 1.4-0.1 2.7 0.5 3.9 1.1 1.1 0.6 2.3 1.2 3.3 2q0.8 0.7 1.4 1.5c0.1 0.1 0.4 0.1 0.3 0z"/><path class="i" d="m75.6 108.1q-1.7-3.2-3.3-6.4c-0.8-1.5-1.7-3.5-3.5-3.9-0.6-0.1-1.2 0-1.6 0.2-0.5 0.3-0.8 0.7-0.8 1.2 0 0.1 0.3 0.1 0.3 0 0-0.4 0.3-0.8 0.7-1 0.4-0.3 0.9-0.3 1.4-0.2 0.8 0.2 1.4 0.8 1.9 1.4 0.5 0.8 0.9 1.6 1.3 2.4q0.8 1.5 1.5 3 0.9 1.6 1.8 3.3c0 0.1 0.3 0.1 0.3 0z"/><path class="f" d="m67 36.2h-3.1v-4.1h3.1z"/><path class="e" d="m67.1 36.2c-0.1 0.1-0.2 0.2-0.3 0.2-0.2 0-0.3 0-0.4 0q-0.2-0.1-0.4 0-0.9 0-1.8 0-0.5 0-0.7-0.4-0.2-0.2-0.3-0.6-0.2-0.4-0.2-0.8c0-0.8 0.1-1.7 0.6-2.4 0.2-0.2 0.4-0.4 0.7-0.3 0.1 0 0.1 0 0.2 0 0.1 0 0.1 0 0.2 0 0.1-0.1 0.2 0 0.4 0 0.1 0 0.3-0.1 0.4-0.1 0.2 0 0.3 0 0.4 0.1q0.2 0 0.3 0 0.2 0 0.4 0 0.2 0 0.4 0 0.1-0.1 0.2-0.1 0.1 0.1 0.2 0.2c0.2 0.1 0.3 0.2 0.4 0.4 0.2 0.3 0.2 0.7 0.3 0.9q0 0.4 0 0.8 0 0.6-0.1 1.1c0 0.4-0.2 0.7-0.4 0.9-0.1 0.1-0.2 0.2-0.3 0.2q-0.1-0.1-0.2-0.1 0 0 0 0z"/><path class="h" d="m65 34.2c0 1.1-0.6 2-1.4 2-0.7 0-1.4-0.9-1.4-2 0-1.2 0.7-2.1 1.4-2.1 0.8 0 1.4 0.9 1.4 2.1z"/><path class="a" d="m65.3 32q-0.1-0.1-0.2 0-0.1 0 0 0.1c0.4 0.2 0.6 0.7 0.8 1.1 0.1 0.6 0.1 1.2 0 1.8-0.1 0.1 0.2 0.2 0.2 0 0.3-1 0.2-2.5-0.8-3z"/><path class="a" d="m65.5 35.6q-0.1 0-0.1 0-0.1 0-0.1 0-0.1 0.3-0.3 0.5 0 0.1 0.1 0.1 0 0 0 0 0.2 0 0.2 0 0.2-0.3 0.3-0.5c0-0.1-0.1-0.1-0.1-0.1z"/><path class="a" d="m67.1 33.1c0-0.1-0.3-0.1-0.3 0 0 1 0.1 2-0.4 2.8-0.1 0.1 0.2 0.1 0.3 0 0.5-0.8 0.4-1.8 0.4-2.8z"/><path class="f" d="m66.6 40.6h-3.2v-4.1h3.2z"/><path class="e" d="m66.6 40.7c-0.1 0-0.2 0.1-0.3 0.1-0.1 0-0.3 0-0.4 0q-0.2 0-0.4 0-0.9 0-1.8 0-0.4 0.1-0.7-0.3-0.2-0.3-0.3-0.7-0.1-0.3-0.2-0.8c0-0.8 0.1-1.7 0.6-2.4 0.2-0.1 0.5-0.4 0.7-0.3 0.1 0 0.1 0.1 0.2 0.1 0.1 0 0.2-0.1 0.2-0.1 0.1 0 0.3 0 0.4 0 0.1 0 0.3-0.1 0.4-0.1 0.3 0 0.5 0.1 0.7 0.1 0.4 0 0.7-0.2 1-0.1 0.3 0 0.5 0.4 0.7 0.7 0.1 0.2 0.1 0.6 0.2 0.9q0 0.3 0 0.7 0 0.6-0.1 1.2c0 0.3-0.1 0.6-0.4 0.8-0.1 0.1-0.2 0.2-0.3 0.2q-0.1-0.1-0.2-0.1 0 0.1 0 0.1z"/><path class="f" d="m64.5 38.6c0 1.1-0.6 2-1.3 2-0.8 0-1.4-0.9-1.4-2 0-1.1 0.6-2.1 1.4-2.1 0.7 0 1.3 1 1.3 2.1z"/><path class="a" d="m64.8 36.4c0-0.1-0.1-0.1-0.2 0q-0.1 0 0 0.1c0.4 0.2 0.7 0.7 0.8 1.1 0.1 0.6 0.1 1.2 0 1.8-0.1 0.2 0.2 0.2 0.2 0.1 0.3-1 0.2-2.6-0.8-3.1z"/><path class="a" d="m65 40q-0.1 0-0.1 0-0.1 0-0.1 0.1-0.1 0.2-0.2 0.4-0.1 0.1 0 0.1 0 0 0.1 0.1 0.1 0 0.1-0.1 0.2-0.2 0.3-0.5c0 0-0.1-0.1-0.1-0.1z"/><path class="f" d="m67.3 45.1h-3.1v-4.1h3.1z"/><path class="e" d="m67.3 45.1c-0.1 0-0.1 0.1-0.2 0.1-0.2 0.1-0.3 0-0.5 0q-0.1 0-0.3 0-0.9 0-1.8 0.1-0.5 0-0.7-0.4-0.2-0.3-0.4-0.6-0.1-0.4-0.1-0.8c0-0.9 0.1-1.8 0.6-2.4 0.1-0.2 0.4-0.5 0.7-0.4 0 0 0.1 0.1 0.2 0.1 0.1 0 0.1-0.1 0.2-0.1 0.3 0 0.6 0 0.9-0.1q0.4-0.1 0.8-0.1 0.1-0.1 0.2 0 0 0 0.1 0c0.2 0.1 0.3 0 0.4 0 0.7 0.1 0.9 1.2 0.9 1.7q0.1 0.4 0.1 0.7 0 0.6-0.1 1.2c-0.1 0.3-0.2 0.6-0.4 0.9-0.1 0.1-0.2 0.1-0.4 0.1q0 0-0.1 0 0 0-0.1 0z"/><path class="h" d="m65.3 43c0 1.2-0.6 2.1-1.4 2.1-0.7 0-1.4-0.9-1.4-2.1 0-1.1 0.7-2 1.4-2 0.8 0 1.4 0.9 1.4 2z"/><path class="a" d="m65.6 40.8q-0.1 0-0.2 0-0.1 0.1 0 0.1c0.4 0.3 0.6 0.7 0.7 1.2 0.2 0.5 0.2 1.2 0 1.8 0 0.1 0.3 0.1 0.3 0 0.3-1 0.2-2.5-0.8-3.1z"/><path class="a" d="m65.8 44.4q-0.1 0-0.1 0-0.1 0.1-0.1 0.1-0.1 0.2-0.3 0.5 0 0 0 0 0.1 0.1 0.1 0.1 0.1 0 0.2-0.1 0.2-0.2 0.3-0.5c0 0-0.1-0.1-0.1-0.1z"/><path class="a" d="m67.4 42c0-0.1-0.3-0.1-0.3 0 0 0.9 0.1 1.9-0.4 2.7-0.1 0.1 0.2 0.2 0.3 0.1 0.4-0.9 0.4-1.9 0.4-2.8z"/><path class="g" d="m77.2 51.7c-0.2-1-0.5-1.9-0.6-2.8-0.2-0.9 0-1.8 0.1-2.7q0-0.7 0-1.4v-0.2c0-0.2-0.1-0.4-0.1-0.7-0.3-0.7-1.6-0.3-2.2-0.3 0 0-1 0-2 0-1.1 0-2.1 0-2.1 0-0.6 0-1.9-0.4-2.1 0.3-0.1 0.3-0.1 0.5-0.1 0.7v0.2q-0.1 0.7 0 1.4c0 1 0.2 2 0 3-0.1 1.1-0.5 2-0.5 3.1 0 0.4 0.2 0.5 0.5 0.7 0.3 0.4 0.9 0.5 1.3 0.5q0.8 0.2 1.6 0.3 0.7 0.1 1.4 0.1 0.7 0 1.4-0.1 0.8-0.1 1.5-0.3c0.5 0 1-0.1 1.4-0.5 0.4-0.4 0.6-0.6 0.5-1.2q0-0.1 0-0.1z"/><path class="j" d="m76.2 46.3q0 0 0 0c-0.1-0.5-0.5-0.9-1.1-1.2q-0.3-0.1-0.5-0.2c-0.7-0.2-1.4-0.3-2.1-0.3q-0.1 0-0.1 0-0.1 0-0.1 0c-0.8 0-1.5 0.1-2.2 0.3q-0.2 0.1-0.4 0.2c-0.7 0.3-1.1 0.7-1.2 1.2q0 0 0 0 0 0 0 0.1 0 0.1 0 0.2 0.1 0.3 0.2 0.6c0.3 0.9 1 1.6 1.8 2.1 1.1 0.7 2.6 0.7 3.8 0 0.8-0.5 1.4-1.2 1.7-2.1q0.2-0.3 0.2-0.6 0-0.1 0-0.2 0-0.1 0-0.1z"/><path class="g" d="m77.5 33.7q-0.2-0.3-0.4-0.5-0.1-0.1-0.2-0.2c-1.3-1.1-2.8-1.8-4.5-1.7-1.8-0.1-3.3 0.6-4.6 1.7q-0.1 0.1-0.2 0.2-0.2 0.2-0.3 0.5c-1.1 1.4-1.3 3.3-1.2 5 0 2.2 0.3 4.1 1 6.1q0.2 0.6 0.5 1.2 0 0.1 0.1 0.1 0.8 1.2 1.9 2c0.7 0.5 1.7 0.9 2.6 1q0.2 0 0.3 0c1-0.1 2-0.5 2.6-1q1.2-0.8 2-2 0 0 0-0.1 0.3-0.6 0.5-1.2c0.8-2 1-3.9 1-6.1 0.1-1.7-0.1-3.6-1.1-5z"/><path class="e" d="m69.9 40.5q0 0-0.1 0-0.1-0.1-0.3 0-0.2 0-0.3 0.2-0.2 0.3-0.1 0.6 0 0.3 0.2 0.5c0.1 0.2 0.5 0.2 0.7 0 0.1-0.1 0.2-0.4 0.2-0.7 0-0.2-0.1-0.4-0.3-0.6z"/><path class="e" d="m75.4 40.5q-0.1 0-0.1 0-0.2-0.1-0.3 0-0.2 0-0.4 0.2-0.1 0.3-0.1 0.6 0.1 0.3 0.2 0.5c0.2 0.2 0.6 0.2 0.7 0 0.2-0.1 0.3-0.4 0.3-0.7-0.1-0.2-0.1-0.4-0.3-0.6z"/><path class="j" d="m73 43.6c0 0-0.1 0-0.2 0q-0.4 0-0.7-0.1c-0.1 0-0.3 0-0.3-0.1-0.1 0-0.1-0.1-0.1-0.2q0-0.3 0.1-0.7 0-0.4 0-0.8 0-0.7 0-1.4c-0.1-0.5-0.2-0.8-0.5-1.2-0.3-0.3-0.7-0.5-1-0.7q-0.2-0.1-0.3 0 0 0 0 0.1c0.4 0.2 0.8 0.4 1.1 0.7 0.3 0.4 0.4 0.8 0.4 1.3q0 0.8 0 1.5 0 0.4 0 0.8c-0.1 0.2-0.1 0.4-0.1 0.6 0.1 0.2 0.4 0.3 0.6 0.3q0.5 0.1 0.9 0c0 0 0.1 0 0.1-0.1z"/><path class="j" d="m73.8 45.2c-0.4 0.3-0.9 0.5-1.4 0.5-0.5 0-1.1-0.1-1.5-0.4q-0.1-0.1-0.2-0.1c-0.1 0-0.1 0.1-0.1 0.1 1 0.8 2.6 0.8 3.5 0 0.1-0.1-0.2-0.2-0.3-0.1z"/><path class="e" d="m67.3 39.3c0.1-0.4 0.7-0.7 1.1-0.9 0.7-0.3 1.5-0.5 2.3-0.3 0.3 0.1 0.6 0.4 0.3 0.6q-0.2 0.1-0.4 0.1-0.4 0.1-0.9 0c-0.4 0-0.8-0.1-1.2-0.1-0.2 0.1-0.4 0.2-0.6 0.4-0.2 0.1-0.5 0.3-0.6 0.2z"/><path class="e" d="m77.5 39.3c-0.2-0.4-0.8-0.7-1.1-0.9-0.8-0.3-1.6-0.5-2.4-0.3-0.3 0.1-0.6 0.4-0.2 0.6q0.1 0.1 0.3 0.1 0.5 0.1 0.9 0c0.4 0 0.8-0.1 1.2-0.1 0.3 0.1 0.5 0.2 0.7 0.4 0.1 0.1 0.4 0.3 0.6 0.2z"/><path class="e" d="m68.5 35.1q-0.2 0.3-0.4 0.5c-0.8 1-1.4 2.2-1.8 3.5-0.1 0.4-0.1 0.8-0.3 1.2 0-0.3-0.1-0.5-0.1-0.8q0-0.6 0-1.2c0-1.8 0.4-3.7 1.6-5.1 0.4-0.5 0.9-0.9 1.5-1.3 0.7-0.3 1.2-0.9 2-1q0.5-0.1 1-0.1c1.9 0.1 3.8 0.2 5.4 1.2 0.4 0.2 0.7 0.5 1 0.9 0.2 0.3 0.4 0.7 0.5 1.1 0.3 1 0.3 2.2 0.1 3.3-0.1 0.3-0.2 0.7-0.3 1-0.1 0.1-0.4 0.3-0.6 0.2-0.2 0-0.3-0.2-0.4-0.3-0.5-0.7-0.8-1.5-1.2-2.3-0.4-0.7-0.9-1.2-1.6-1.6-0.5-0.3-0.8-0.5-1.3-0.6-1.1-0.2-2.3-0.1-3.5 0.2-0.7 0.2-1.2 0.7-1.6 1.2z"/><path class="f" d="m79.6 33.5h-3.2v-4.1h3.2z"/><path class="e" d="m79.6 33.5c-0.1 0.1-0.2 0.2-0.3 0.2-0.2 0-0.3 0-0.4 0q-0.2 0-0.4 0-0.9 0-1.8 0-0.5 0-0.7-0.3-0.2-0.3-0.3-0.7-0.2-0.4-0.2-0.8c0-0.8 0.1-1.7 0.6-2.4 0.2-0.2 0.4-0.4 0.7-0.3 0.1 0 0.1 0 0.2 0 0.1 0 0.2 0 0.2 0 0.1 0 0.3 0 0.4 0 0.1 0 0.3-0.1 0.4-0.1 0.2 0 0.3 0 0.4 0.1q0.2 0 0.3 0 0.2 0 0.4 0 0.2 0 0.4 0 0.1-0.1 0.2-0.1 0.1 0.1 0.2 0.2c0.2 0.1 0.3 0.2 0.4 0.4 0.2 0.3 0.2 0.7 0.3 0.9q0 0.4 0 0.8 0 0.6-0.1 1.1c0 0.4-0.1 0.7-0.4 0.9-0.1 0.1-0.2 0.2-0.3 0.2q-0.1-0.1-0.2-0.1 0 0 0 0z"/><path class="h" d="m77.5 31.5c0 1.1-0.6 2-1.4 2-0.7 0-1.4-0.9-1.4-2 0-1.2 0.7-2.1 1.4-2.1 0.8 0 1.4 0.9 1.4 2.1z"/><path class="a" d="m77.8 29.3q-0.1-0.1-0.2 0-0.1 0 0 0.1c0.4 0.2 0.6 0.7 0.8 1.1 0.1 0.6 0.1 1.2 0 1.8-0.1 0.1 0.2 0.2 0.2 0.1 0.3-1.1 0.2-2.6-0.8-3.1z"/><path class="a" d="m78 32.9q-0.1 0-0.1 0-0.1 0-0.1 0-0.1 0.3-0.3 0.5 0 0.1 0.1 0.1 0 0 0 0 0.2 0.1 0.2 0 0.2-0.3 0.3-0.5c0-0.1-0.1-0.1-0.1-0.1z"/><path class="a" d="m79.6 30.5c0-0.2-0.3-0.2-0.3 0 0 0.9 0.1 1.9-0.4 2.7-0.1 0.1 0.2 0.1 0.3 0 0.5-0.8 0.4-1.8 0.4-2.7z"/><path class="f" d="m69.8 34h-3.1v-4.1h3.1z"/><path class="e" d="m69.8 34c-0.1 0.1-0.1 0.1-0.2 0.2-0.2 0-0.3 0-0.5-0.1q-0.1 0-0.3 0-0.9 0.1-1.8 0.1-0.5 0-0.7-0.4-0.2-0.3-0.4-0.6-0.1-0.4-0.1-0.8c0-0.8 0.1-1.8 0.6-2.4 0.1-0.2 0.4-0.4 0.7-0.4 0 0.1 0.1 0.1 0.2 0.1 0.1 0 0.1 0 0.2 0 0.1-0.1 0.2 0 0.3 0 0.2-0.1 0.4-0.1 0.5-0.1 0.1 0 0.3 0 0.4 0q0.1 0.1 0.3 0.1 0.2 0 0.4 0 0.2 0 0.3 0 0.1-0.1 0.2-0.1 0.2 0 0.3 0.1c0.2 0.2 0.3 0.3 0.4 0.5 0.1 0.3 0.2 0.6 0.3 0.9q0 0.4 0 0.8 0 0.5-0.1 1.1c-0.1 0.3-0.2 0.7-0.4 0.9-0.1 0.1-0.2 0.2-0.4 0.1q0 0-0.1 0 0 0-0.1 0z"/><path class="h" d="m67.8 32c0 1.1-0.6 2-1.4 2-0.7 0-1.4-0.9-1.4-2 0-1.2 0.7-2.1 1.4-2.1 0.8 0 1.4 0.9 1.4 2.1z"/><path class="a" d="m68.1 29.7q-0.1 0-0.2 0-0.1 0.1 0 0.2c0.4 0.2 0.6 0.6 0.7 1.1 0.2 0.6 0.2 1.2 0 1.8 0 0.1 0.3 0.1 0.3 0 0.3-1 0.2-2.5-0.8-3.1z"/><path class="a" d="m69.9 30.9c0-0.1-0.3-0.1-0.3 0 0 1 0.1 1.9-0.4 2.8-0.1 0.1 0.2 0.1 0.3 0 0.4-0.8 0.4-1.8 0.4-2.8z"/><path class="f" d="m76.1 29v2.7q0 0.1 0 0.2 0 0-0.1 0.1 0 0 0 0-0.2 0.2-0.4 0.2h-6.4q-0.3 0-0.5-0.2 0 0 0 0 0-0.1-0.1-0.2 0 0 0-0.1v-2.7c0-0.3 0.3-0.6 0.6-0.6h6.4c0.3 0 0.5 0.3 0.5 0.6z"/><path class="e" d="m75.3 32.3q0 0 0 0c-0.1 0-0.2 0-0.3 0-0.1 0-0.1 0.1-0.2 0.1-0.3 0.1-0.5-0.1-0.8-0.1-0.3 0-0.5 0.2-0.8 0.1-0.1 0-0.2 0-0.3 0-0.1 0-0.2 0-0.3 0-0.3 0.1-0.6 0-0.8 0q-0.1-0.1-0.2 0 0 0-0.1 0 0 0-0.1 0-0.3 0-0.6 0-0.2-0.1-0.3-0.1c-0.1 0.1-0.3 0.2-0.4 0.2-0.3 0-0.4-0.2-0.4-0.4-0.1-0.4 0-0.8 0-1.1q0-1 0-2.1c0-0.2-0.1-0.4 0-0.6 0.2-0.1 0.4-0.2 0.6-0.1 0.1 0 0.2 0 0.2 0 0.1 0 0.2 0 0.3-0.1 0.1-0.1 0.4 0 0.6 0.1q0.1 0 0.2 0c0.1 0 0.2 0 0.2-0.1 0.2 0 0.4 0 0.6 0 0.2 0.1 0.2 0 0.4 0 0.3-0.2 0.6 0.1 0.9 0.1 0.2 0 0.4-0.1 0.6-0.1 0.1 0 0.2 0.1 0.3 0.1q0.1 0.1 0.2 0.1 0-0.1 0.1-0.1c0.2-0.1 0.4 0 0.4 0.2 0.1 0.1 0 0.2 0 0.3q0 0.5 0 0.9 0 1.1 0 2.1c0 0.2 0.1 0.5 0 0.6z"/><path class="a" d="m71.2 31.6q-0.3-1.4-0.2-2.8c0-0.1-0.3-0.2-0.3 0q-0.1 1.4 0.2 2.8c0 0.1 0.3 0.1 0.3 0z"/><path class="a" d="m72.4 30.3c0-0.1-0.3-0.1-0.3 0q0 0.6 0 1.2c0 0.1 0.3 0.1 0.3 0q0-0.6 0-1.2z"/><path class="a" d="m74.7 28.8c0-0.1-0.3-0.1-0.3 0 0 0.8 0.1 1.5-0.1 2.2-0.1 0.2 0.2 0.2 0.3 0.1 0.2-0.7 0.1-1.5 0.1-2.3z"/><path class="h" d="m69.9 31.8q0 0-0.1 0c-0.2 0.1-0.4 0-0.7 0q-0.2 0.1-0.4 0.2 0 0 0 0.1 0 0 0 0 0-0.1 0-0.1 0-0.1-0.1-0.2 0.2-0.1 0.4-0.1c0.3 0 0.5 0 0.7 0 0.1 0 0.2 0 0.2 0q0 0.1 0 0.1z"/><path class="h" d="m76 32q0.1 0.1 0.1 0.1-0.1 0-0.1 0 0 0 0-0.1c-0.2-0.1-0.3-0.2-0.5-0.2q-0.2 0-0.3 0c-0.1 0-0.2-0.1-0.1-0.1 0-0.1 0.1-0.1 0.1-0.1 0.3 0 0.6 0.1 0.9 0.3q0 0-0.1 0.1z"/><path class="f" d="m76.1 32.3v2.7c0 0.3-0.2 0.6-0.5 0.6h-6.4c-0.3 0-0.6-0.3-0.6-0.6v-2.7q0-0.1 0.1-0.2 0-0.1 0-0.1 0.2-0.2 0.5-0.2h6.4q0.2 0 0.4 0.2 0.1 0.1 0.1 0.1 0 0.1 0 0.2z"/><path class="e" d="m75.3 35.6q0 0 0 0.1c-0.1 0-0.2-0.1-0.3-0.1-0.1 0.1-0.1 0.1-0.2 0.2-0.3 0.1-0.5-0.1-0.8-0.1-0.3 0-0.5 0.1-0.8 0.1-0.1 0-0.2-0.1-0.3-0.1-0.1 0-0.2 0.1-0.3 0.1-0.3 0.1-0.6 0-0.8-0.1q-0.1 0-0.2 0 0 0.1-0.1 0.1 0 0-0.1 0-0.3 0-0.6-0.1-0.2 0-0.3 0c-0.1 0-0.3 0.1-0.4 0.1-0.3 0-0.4-0.2-0.4-0.4-0.1-0.3 0-0.7 0-1q0-1.1 0-2.1c0-0.2-0.1-0.5 0-0.6 0.2-0.2 0.4-0.2 0.6-0.2 0.1 0.1 0.2 0.1 0.2 0.1 0.1 0 0.2-0.1 0.3-0.1 0.1-0.1 0.4-0.1 0.6 0q0.1 0.1 0.2 0.1c0.1 0 0.2 0 0.2-0.1 0.2-0.1 0.4 0 0.6 0 0.2 0 0.2 0 0.4-0.1 0.3-0.1 0.6 0.2 0.9 0.2 0.2 0 0.4-0.2 0.6-0.1 0.1 0 0.2 0.1 0.3 0.1q0.1 0 0.2 0 0 0 0.1 0c0.2-0.1 0.4 0 0.4 0.2 0.1 0 0 0.2 0 0.3q0 0.4 0 0.9 0 1 0 2.1c0 0.1 0.1 0.5 0 0.5z"/><path class="a" d="m71.2 34.9q-0.3-1.4-0.2-2.8c0-0.1-0.3-0.1-0.3 0q-0.1 1.4 0.2 2.8c0 0.1 0.3 0.1 0.3 0z"/><path class="a" d="m72.4 33.6c0-0.1-0.3-0.1-0.3 0q0 0.7 0 1.3c0 0.1 0.3 0.1 0.3 0q0-0.6 0-1.3z"/><path class="a" d="m74.7 32.2c0-0.1-0.3-0.1-0.3 0 0 0.7 0.1 1.5-0.1 2.2-0.1 0.1 0.2 0.2 0.3 0.1 0.2-0.8 0.1-1.6 0.1-2.3z"/><path class="a" d="m75.3 31.9c0.1-0.1 0-0.2 0-0.3-0.1 0-0.3 0-0.4 0q-0.1 0.1-0.2 0.1 0 0-0.1-0.1-0.2 0-0.4 0-0.1 0-0.3 0-0.2 0-0.4 0c-0.2-0.1-0.4-0.1-0.6 0-0.1 0-0.2 0-0.4 0q-0.1-0.1-0.3-0.1c-0.2 0.1-0.4 0.2-0.6 0.2-0.1 0-0.2-0.1-0.3-0.1q-0.2 0-0.3 0c-0.2 0-0.3 0-0.4 0.1-0.1 0-0.3-0.1-0.4-0.1-0.2 0-0.6 0.1-0.6 0.3q0 0.1 0 0.1c0.1 0 0.1 0 0.2-0.1q0 0 0 0c0.2-0.1 0.4-0.1 0.6-0.1 0.2 0 0.4 0 0.6-0.1 0.2 0 0.4 0.1 0.5 0.2 0.2 0 0.4-0.1 0.6-0.2q0.2 0 0.3 0 0.2 0 0.4 0.1 0.1 0 0.3-0.1 0.1 0 0.3 0c0.2 0 0.4 0.1 0.6 0.1 0.1 0 0.2-0.1 0.3-0.1 0.1 0 0.2 0.1 0.3 0.1q0.2 0 0.3 0c0.1 0 0.2-0.1 0.2 0 0.1 0 0.1 0.2 0.2 0.2q0-0.1 0-0.1z"/><path class="f" d="m81.4 36.4h-3.2v-4.1h3.2z"/><path class="e" d="m81.4 36.4c-0.1 0.1-0.2 0.1-0.3 0.2-0.1 0-0.3 0-0.4 0q-0.2-0.1-0.4-0.1-0.9 0.1-1.8 0.1-0.4 0-0.7-0.4-0.2-0.3-0.3-0.6-0.1-0.4-0.1-0.8c-0.1-0.8 0.1-1.7 0.6-2.4 0.1-0.2 0.4-0.4 0.6-0.4 0.1 0.1 0.2 0.1 0.2 0.1 0.1 0 0.2 0 0.3 0 0.1-0.1 0.2 0 0.3 0 0.1 0 0.3-0.1 0.5-0.1 0.1 0 0.2 0 0.3 0q0.2 0.1 0.3 0.1 0.3 0 0.5 0 0.1 0 0.3 0 0.1-0.1 0.2-0.1 0.1 0.1 0.2 0.2c0.2 0.1 0.4 0.2 0.5 0.4 0.1 0.3 0.1 0.6 0.2 0.9q0 0.4 0 0.8 0 0.5-0.1 1.1c0 0.4-0.1 0.7-0.4 0.9-0.1 0.1-0.2 0.2-0.3 0.1q-0.1 0-0.2 0 0 0 0 0z"/><path class="f" d="m79.4 34.4c0 1.1-0.7 2-1.4 2-0.8 0-1.4-0.9-1.4-2 0-1.2 0.6-2.1 1.4-2.1 0.7 0 1.4 0.9 1.4 2.1z"/><path class="a" d="m79.6 32.1q-0.1 0-0.2 0 0 0.1 0 0.2c0.4 0.2 0.7 0.6 0.8 1.1 0.1 0.6 0.1 1.2 0 1.8 0 0.1 0.2 0.1 0.3 0 0.2-1 0.1-2.5-0.9-3.1z"/><path class="a" d="m79.8 35.8q0 0-0.1 0 0 0-0.1 0-0.1 0.3-0.2 0.5 0 0.1 0 0.1 0 0 0.1 0 0.1 0 0.2 0 0.1-0.3 0.2-0.5c0-0.1 0-0.1-0.1-0.1z"/><path class="a" d="m81.4 33.3c0-0.1-0.3-0.1-0.3 0 0.1 1 0.1 2-0.4 2.8 0 0.1 0.3 0.1 0.3 0 0.5-0.8 0.5-1.8 0.4-2.8z"/><path class="f" d="m82.2 40.7h-3.2v-4.1h3.2z"/><path class="e" d="m82.2 40.7c-0.1 0-0.2 0.1-0.3 0.2-0.1 0-0.3-0.1-0.4-0.1q-0.2 0-0.4 0-0.9 0.1-1.8 0.1-0.4 0-0.7-0.4-0.2-0.3-0.3-0.6-0.1-0.4-0.1-0.8c-0.1-0.9 0.1-1.8 0.6-2.4 0.1-0.2 0.4-0.4 0.6-0.4 0.1 0.1 0.2 0.1 0.3 0.1 0 0 0.1 0 0.2-0.1 0.1 0 0.2 0.1 0.3 0 0.2 0 0.3 0 0.5 0 0.1-0.1 0.2 0 0.4 0q0.1 0.1 0.2 0 0.3 0.1 0.5 0.1 0.1 0 0.3-0.1 0.1 0 0.2 0 0.1 0 0.2 0.1c0.2 0.2 0.4 0.3 0.5 0.5 0.1 0.3 0.2 0.6 0.2 0.9q0.1 0.4 0.1 0.7 0 0.6-0.1 1.2c-0.1 0.3-0.2 0.7-0.5 0.9 0 0.1-0.2 0.1-0.3 0.1q-0.1 0-0.2 0 0 0 0 0z"/><path class="h" d="m80.2 38.6c0 1.2-0.6 2.1-1.4 2.1-0.8 0-1.4-0.9-1.4-2.1 0-1.1 0.6-2 1.4-2 0.8 0 1.4 0.9 1.4 2z"/><path class="a" d="m80.5 36.4q-0.1 0-0.2 0-0.1 0.1 0 0.1c0.4 0.3 0.6 0.7 0.7 1.2 0.1 0.6 0.1 1.2 0 1.8 0 0.1 0.3 0.1 0.3 0 0.2-1 0.1-2.5-0.8-3.1z"/><path class="a" d="m80.6 40.1q0-0.1-0.1 0 0 0 0 0-0.2 0.3-0.3 0.5 0 0 0 0.1 0 0 0.1 0 0.1 0 0.2-0.1 0.1-0.2 0.2-0.4c0.1-0.1 0-0.1-0.1-0.1z"/><path class="a" d="m82.3 37.6c-0.1-0.1-0.3-0.1-0.3 0 0 0.9 0 1.9-0.5 2.8 0 0.1 0.3 0.1 0.3 0 0.5-0.8 0.5-1.8 0.5-2.8z"/><path class="f" d="m81.6 45.1h-3.2v-4.1h3.2z"/><path class="e" d="m81.6 45.1c-0.1 0-0.2 0.1-0.3 0.1-0.1 0.1-0.3 0-0.4 0q-0.2 0-0.4 0-0.9 0-1.8 0.1-0.4 0-0.7-0.4-0.2-0.3-0.3-0.6-0.1-0.4-0.1-0.8c-0.1-0.9 0-1.8 0.6-2.4 0.1-0.2 0.4-0.5 0.6-0.4 0.1 0 0.1 0.1 0.2 0.1 0.1 0 0.2-0.1 0.2-0.1 0.2 0 0.3 0 0.4 0 0.1 0 0.3-0.1 0.4-0.1 0.2 0 0.3 0.1 0.4 0.1q0.2 0 0.3 0 0.2 0 0.5 0 0.1 0 0.3 0 0.1 0 0.2 0 0.1 0 0.2 0.1c0.2 0.1 0.4 0.3 0.5 0.5 0.1 0.2 0.1 0.6 0.2 0.9q0 0.4 0 0.7 0 0.6-0.1 1.2c0 0.3-0.1 0.6-0.4 0.9-0.1 0.1-0.2 0.1-0.3 0.1q-0.1 0-0.2 0 0 0 0 0z"/><path class="f" d="m79.6 43c0 1.2-0.7 2.1-1.4 2.1-0.8 0-1.4-0.9-1.4-2.1 0-1.1 0.6-2 1.4-2 0.7 0 1.4 0.9 1.4 2z"/><path class="a" d="m79.8 40.8c0 0-0.1 0-0.2 0q0 0.1 0 0.1c0.4 0.3 0.7 0.7 0.8 1.2 0.1 0.5 0.1 1.2 0 1.8-0.1 0.1 0.2 0.1 0.3 0 0.2-1 0.1-2.5-0.9-3.1z"/><path class="a" d="m80 44.4q-0.1 0-0.1 0 0 0.1-0.1 0.1-0.1 0.2-0.2 0.5 0 0 0 0 0 0.1 0.1 0.1 0.1 0 0.1-0.1 0.2-0.2 0.3-0.5c0 0-0.1-0.1-0.1-0.1z"/><path class="a" d="m81.6 42c0-0.1-0.3-0.1-0.3 0 0.1 0.9 0.1 1.9-0.4 2.7 0 0.1 0.2 0.2 0.3 0.1 0.5-0.9 0.5-1.9 0.4-2.8z"/><path class="a" d="m68.2 34c-1.1 1.1-1.8 2.4-2.1 3.9-0.1 0.1 0.2 0.1 0.3 0 0.2-1.5 1-2.8 2-3.8 0.1-0.1-0.1-0.1-0.2-0.1z"/><path class="g" d="m82.6 52.9c-0.5 0.8-1.4 1.4-2.4 1.9q-0.7 0.4-1.6 0.6c-0.8 0.3-1.6 0.5-2.2 0.6q-1.8 0.4-3.7 0.3-1.9 0.1-3.8-0.3c-0.5-0.1-1.3-0.3-2.2-0.6q-0.8-0.2-1.5-0.6c-1.1-0.5-2-1.1-2.5-1.9q1-0.3 2-0.7 0.6-0.3 1.3-0.6 0.5-0.2 1-0.3 1.1-0.4 2.2-0.9 0.2 0 0.2-0.1c0.6 0 1.2 0.1 1.8 0.2q0.2 0 0.4 0 0.2 0 0.4 0 0.3 0.1 0.7 0.1 0.3 0 0.7-0.1 0.2 0 0.4 0 0.2 0 0.4 0c0.6-0.1 1.2-0.2 1.8-0.2q0 0.1 0.1 0.1 1.1 0.5 2.3 0.9 0.4 0.1 1 0.3 0.6 0.3 1.3 0.6 1 0.4 1.9 0.7z"/><path class="g" d="m51.2 84.5c0.3 1.3 1 2.6 2.6 2.7 1.1 0 2.2-0.6 3-1.5 0.1-0.2 0.2-0.4 0.2-0.5 0.1-0.3 0-0.5 0-0.8q-0.9-3.3-1.8-6.6c-0.3-0.8-0.7-1.5-0.9-2.3-0.3-1-0.4-2.1-0.5-3.2-0.1-0.5-0.2-1.3-0.6-1.7-0.7-0.5-1.5-0.3-1.6 0.4-0.3 1.2-0.3 2.2-0.4 3.3q-0.2 1.6-0.2 3.2-0.2 3.2 0.1 6.3 0.1 0.4 0.1 0.7z"/><path class="g" d="m93 84.5c-0.2 1.3-0.9 2.6-2.5 2.7-1.2 0-2.3-0.6-3-1.5-0.1-0.2-0.2-0.4-0.3-0.5 0-0.3 0-0.5 0.1-0.8q0.9-3.3 1.8-6.6c0.2-0.8 0.7-1.5 0.9-2.3 0.2-1 0.4-2.1 0.5-3.2 0.1-0.5 0.1-1.3 0.6-1.7 0.6-0.5 1.4-0.3 1.6 0.4 0.2 1.2 0.3 2.2 0.4 3.3q0.1 1.6 0.2 3.2 0.1 3.2-0.2 6.3 0 0.4-0.1 0.7z"/><path class="k" d="m79.1 61.3q0 0 0.1 0c2.5-0.6 4.9-0.9 7.4-0.9 1.2 0 2.5 0 3.6 0.5-2.5 0.7-5.1 0.8-7.6 1.4-0.7 0.2-1.5 0.5-2.2 0.7-0.6 0.1-1.1 0.1-1.7 0.3-1.6 0.6-3.2 1.2-4.8 1.6-0.6 0.2-1.3 0.5-1.8 0.1-0.3-0.2-0.5-0.4-0.8-0.5q-0.5-0.3-1.1-0.4c-0.7-0.3-1.5-0.4-2.3-0.5q-3.5-0.5-6.9-1.1c-2.4-0.3-4.6-1-6.9-1.7 0-0.1 0.1-0.1 0.2-0.2 1.3-0.5 2.9-0.4 4.2-0.3 1.4 0 2.9 0.3 4.4 0.5 3.1 0.6 6.2 1.5 9.3 2.5 0.5 0.2 1.4-0.4 2-0.6q1.1-0.4 2.3-0.8 1.3-0.3 2.6-0.6z"/><path class="d" d="m91.9 60.3v24.2l-2.1 0.4c0 0-8.2 1.5-8.2 1.5q-0.9 0.2-1.8 0.3-2.4 0.5-4.8 0.9-0.9 0.2-1.9 0.4c-1 0.2-2-0.1-3.1-0.3q-1.4-0.3-2.8-0.6-4.7-0.8-9.4-1.7-2.5-0.5-5-0.9v-24.2q2.5 0.5 5 1 4.7 0.9 9.3 1.7 1.5 0.3 3 0.6c1.1 0.2 2 0.5 3.1 0.3q0.9-0.2 1.7-0.4 2.4-0.4 4.8-0.9 2.9-0.5 5.8-1c0 0 6.4-1.3 6.4-1.3z"/><path class="b" d="m71 64.6v22.6c0 0.2 0.5 0.2 0.5 0v-22.6c0-0.2-0.5-0.2-0.5 0z"/><path class="b" d="m73.2 64.6v22.6c0 0.2 0.5 0.2 0.5 0v-22.6c0-0.2-0.5-0.2-0.5 0z"/><path class="b" d="m91.9 60.3v15.9c-0.4 0.2-0.8 0.4-1.2 0.6-1.1 0.5-2.2 0.9-3.3 1.2-0.3 0-0.5 0.1-0.7 0.2-0.4 0.3-0.5 1-1 1.2-0.2 0.1-0.5 0.1-0.7 0.3-0.7 0.6 0.2 1.7 0.8 2 0.5 0.2 1 0.3 1.5 0.5 0.7 0.3 1.3 1 1.8 1.7q0.4 0.5 0.7 1l-8.2 1.5c0.2-0.6 0.5-1.3 0.5-1.9 0-0.9-0.7-1.7-1-2.5-0.1-0.2-0.3-0.4-0.4-0.5-0.5-0.4-1.3 0.1-1.9-0.2-0.4-0.2-0.6-0.5-0.7-0.9-0.1-0.3-0.1-0.7-0.2-1.1 0-0.5-0.1-0.8-0.6-1.1-0.2-0.1-0.6-0.3-0.5-0.6 0-0.1 0.1-0.3 0.2-0.4 0.8-0.8 1-1.9 1.1-3 0.2-1.4 1.2-2.9 2.6-3.4 0.3 0 0.6-0.1 0.9-0.2 0.8-0.4 1-1.4 1-2.2 0-0.8 0-1.7 0.6-2.3 0.5-0.7 1.6-0.9 1.8-1.8 0.1-0.2 0.1-0.5 0.1-0.8q0-1 0.4-1.9z"/><path fill-rule="evenodd" class="c" d="m74.9 65.4l1.3-0.3c0.6-0.1 1.1 0.1 1.2 0.8 0.1 0.3-0.1 0.7-0.4 0.8 0.4 0 0.8 0.3 0.9 0.8 0.1 0.7-0.2 1.2-1 1.3l-1.3 0.3zm1.7 1.3q0.3-0.2 0.2-0.7c0-0.3-0.3-0.5-0.6-0.4l-0.6 0.1 0.2 1.2zm0.2 1.6c0.4 0 0.6-0.3 0.5-0.7-0.1-0.5-0.4-0.6-0.7-0.5l-0.7 0.1 0.3 1.3z"/><path fill-rule="evenodd" class="c" d="m79.3 65.4c0.7-0.1 1.2 0.3 1.4 1 0 0.2 0 0.4 0 0.4l-1.8 0.4c0.1 0.6 0.4 0.7 1 0.6 0.4-0.1 0.7-0.3 0.7-0.3 0.1 0.3 0.2 0.5 0.2 0.5 0 0-0.3 0.2-0.9 0.3-0.8 0.2-1.4-0.1-1.6-1.2-0.2-1 0.2-1.6 1-1.7zm0.8 1.1v-0.1c-0.1-0.4-0.4-0.6-0.7-0.6-0.5 0.1-0.7 0.4-0.6 1z"/><path fill-rule="evenodd" class="c" d="m82 66.1l0.6-0.1v-0.3c-0.1-0.4-0.2-0.4-0.6-0.4-0.4 0.1-0.7 0.4-0.7 0.4-0.2-0.2-0.3-0.4-0.3-0.4 0 0 0.4-0.3 0.9-0.4 0.8-0.2 1.1 0.1 1.2 0.7l0.3 1.5 0.3 0.2 0.1 0.2-0.5 0.1-0.3-0.2h-0.1c0 0-0.3 0.4-0.6 0.4-0.6 0.1-1-0.1-1.1-0.6-0.1-0.6 0.2-0.9 0.8-1.1zm0.4 1.2c0.2 0 0.4-0.2 0.4-0.2l-0.1-0.8-0.5 0.2c-0.4 0.1-0.5 0.3-0.4 0.5 0.1 0.3 0.3 0.4 0.6 0.3z"/><path class="c" d="m83.6 64.6l0.6-0.1 0.4 1.8c0.1 0.4 0.2 0.6 0.6 0.5 0.3-0.1 0.6-0.3 0.6-0.3l-0.5-2.2 0.6-0.1 0.5 2.3 0.3 0.2v0.2l-0.5 0.1-0.3-0.2-0.1 0.1c0 0-0.3 0.3-0.7 0.4-0.6 0.1-1-0.2-1.1-0.8z"/><path class="c" d="m86.9 64.4l-0.4 0.1c0 0 0-0.1 0-0.2q0-0.1 0-0.2l0.3-0.1-0.1-0.4 0.3-0.5h0.2l0.2 0.8 0.7-0.2q0.1 0.1 0.1 0.2c0 0.1 0 0.3 0 0.3l-0.7 0.1 0.3 1.6q0 0.4 0.3 0.3c0.2 0 0.4-0.2 0.4-0.2 0.2 0.2 0.2 0.4 0.2 0.4 0 0-0.2 0.2-0.6 0.3-0.5 0.1-0.8-0.2-0.9-0.7z"/><path class="c" d="m88.4 63.7l0.6-0.1 1 1.9 0.2 0.5v-0.6l0.1-2.1 0.7-0.1-0.5 4.3-0.6 0.1 0.3-1.4-0.4 0.1z"/><path class="b" d="m57.2 83.1q0 0.1 0.1 0.1c0.1 0.1 0.2 0.2 0.4 0.2q0.9 0.2 1.9 0.3 2.5 0.4 4.9 0.8c1.4 0.3 1.2-1.6 1.3-2.5 0.2-1 0.1-1-1-1.2q-3.1-0.4-6.1-0.8c-0.5-0.1-1-0.1-1.2 0.2-0.5 0.5-0.4 1.9-0.4 2.6q0 0.2 0.1 0.3z"/><path class="b" d="m57.3 65.2c3.8 0.7 7.6 1.4 11.4 1.6 0.2 0 0.5 0 0.8-0.1 0.4-0.2 0.5-0.8 0.5-1.3-0.1-0.4-0.1-0.4-0.5-0.5-0.8-0.4-2.1-0.3-3-0.5q-3-0.5-6-0.9-2.4-0.4-4.8-0.8c-1.1-0.2-1.2 0.3-1.3 1.3 0 0.1 0 0.3 0 0.4 0.1 0.2 0.4 0.2 0.6 0.3q1.2 0.2 2.3 0.5z"/><path class="g" d="m89.2 72.7q-0.1 0-0.3 0.1c-0.1 0-0.2 0.2-0.2 0.3-0.2 0.3-1.1 1-1.1 0.2 0-0.1 0.1-0.3 0.1-0.4-0.2 0.1-0.9 0.4-1 0q0-0.1 0-0.2c0.2-0.7 0.6-1.2 1.1-1.7q-0.2 0.1-0.4 0.2-0.1 0.1-0.2 0.1-0.1 0-0.2-0.1c-0.2-0.3-0.1-0.5 0.1-0.7 0.3-0.5 0.6-0.9 1.2-1 0.8-0.1 1.6 0.1 2.4 0.1q-0.2-0.1-0.4-0.2-0.1-0.1-0.2-0.2c0 0-0.5-0.2-0.6-0.2q-0.2-0.1-0.4-0.3c-0.3-0.1-0.6-0.4-0.7-0.7q-0.1-0.1-0.1-0.2c0-0.6 2.4 0.5 2.7 0.6q0.4 0.2 0.7 0.4c0.4 0.3 0.5 0.6 0.7 1.1q0.3 0.8 0.5 1.6 0.4 1.6 0.3 3.2c0 0.3 0 0.7-0.2 1-0.1 0.3-0.3 0.5-0.6 0.6-0.2 0-0.3-0.1-0.5-0.1-0.3 0-0.6-0.3-0.8-0.5q-0.4-0.5-0.6-1-0.3-0.6-0.6-1.3c-0.1-0.2-0.1-0.7-0.3-0.9q-0.1 0-0.1 0 0 0 0 0-0.2 0.1-0.3 0.2z"/><path class="j" d="m90.7 70.5c-0.5-0.2-1.1-0.4-1.7-0.4-0.3 0-0.5 0.1-0.7 0.3-0.2 0.1-0.4 0.2-0.5 0.5 0 0 0.1-0.1 0.1-0.1q0.1 0 0.1-0.1 0.2-0.1 0.3-0.2 0.1-0.1 0.3-0.2 0.2-0.1 0.5-0.1c0.5 0 1 0.2 1.5 0.4 0.1 0 0.2-0.1 0.1-0.1z"/><path class="j" d="m90.6 71.7q-0.5-0.1-0.9-0.3-0.4-0.1-0.7 0.1c-0.5 0.3-0.9 0.8-1.3 1.2 0 0.1 0.1 0.1 0.2 0 0.3-0.3 0.6-0.7 1-1q0.2-0.1 0.4-0.2c0.1 0 0.2 0 0.4 0.1q0.4 0.1 0.8 0.2 0 0.1 0.1 0 0 0 0-0.1z"/><path class="g" d="m55.1 72.7q0.1 0 0.2 0.1c0.2 0 0.2 0.2 0.3 0.3 0.2 0.3 1.1 1 1.1 0.2 0-0.1-0.1-0.3-0.2-0.4 0.2 0.1 0.9 0.4 1 0q0.1-0.1 0-0.2c-0.1-0.7-0.6-1.2-1-1.7q0.2 0.1 0.4 0.2 0 0.1 0.1 0.1 0.2 0 0.3-0.1c0.2-0.3 0.1-0.5-0.1-0.7-0.4-0.5-0.6-0.9-1.2-1-0.8-0.1-1.6 0.1-2.4 0.1q0.2-0.1 0.3-0.2 0.2-0.1 0.3-0.2c0 0 0.5-0.2 0.5-0.2q0.3-0.1 0.5-0.3c0.3-0.1 0.5-0.4 0.7-0.7q0.1-0.1 0.1-0.2c0-0.6-2.4 0.5-2.7 0.6q-0.4 0.2-0.7 0.4c-0.7 0.5-0.8 1.2-0.9 1.9-0.1 0.6-0.2 1.3-0.3 1.9-0.2 0.6-0.1 1.3-0.2 1.9 0 0.3 0 0.7 0.1 1 0.2 0.6 1.2 1.1 1.7 0.5q0.7-0.8 1.1-1.8c0.2-0.3 0.3-0.7 0.4-1 0-0.3-0.1-0.5 0.2-0.7q0 0 0.1 0 0 0 0 0 0.1 0.1 0.3 0.2z"/><path class="j" d="m53.5 70.5c0.6-0.2 1.2-0.4 1.7-0.4 0.3 0 0.6 0.1 0.8 0.3 0.2 0.1 0.4 0.2 0.4 0.5 0 0 0-0.1 0-0.1q-0.1 0-0.2-0.1-0.1-0.1-0.2-0.2-0.2-0.1-0.4-0.2-0.2-0.1-0.4-0.1c-0.5 0-1 0.2-1.5 0.4-0.1 0-0.3-0.1-0.2-0.1z"/><path class="j" d="m53.7 71.7q0.4-0.1 0.9-0.3 0.4-0.1 0.7 0.1c0.5 0.3 0.9 0.8 1.2 1.2 0.1 0.1-0.1 0.1-0.1 0-0.4-0.3-0.7-0.7-1.1-1q-0.1-0.1-0.3-0.2c-0.1 0-0.3 0-0.4 0.1q-0.4 0.1-0.8 0.2-0.1 0.1-0.1 0-0.1 0 0-0.1z"/><path class="f" d="m2.9 104.8q0 0 0 0 0 0 0.1 0h17.6c0.3 0 0.4 0.2 0.4 0.4v1.2c0 0.3-0.1 0.4-0.4 0.4h-17.5c0 0-0.1 0.1-0.2 0q0 0 0 0-0.1-0.1 0-0.3 0.1-0.2 0.2-0.3 0.1-0.4 0-0.8-0.1-0.2-0.2-0.4 0 0 0 0c0 0-0.1-0.1 0-0.2z"/><path class="l" d="m2.9 105h5.6c0.1 0 0.3 0.2 0.3 0.3v0.9c0 0.2-0.2 0.3-0.3 0.3h-5.6q0.1-0.2 0.2-0.3 0.1-0.4 0-0.8-0.1-0.2-0.2-0.4 0 0 0 0z"/><path class="b" d="m18.9 108.9q0 0 0 0-0.1 0-0.1 0h-17.7c-0.2 0-0.4-0.2-0.4-0.4v-1.3c0-0.2 0.2-0.4 0.4-0.4h17.6c0 0 0.1 0 0.2 0q0 0 0 0 0.1 0.2-0.1 0.4 0 0.1-0.1 0.3-0.1 0.4 0 0.8 0.1 0.2 0.1 0.3 0.1 0 0.1 0c0 0.1 0.1 0.2 0 0.3z"/><path class="l" d="m18.9 108.6h-5.6c-0.2 0-0.3-0.1-0.3-0.3v-0.8c0-0.2 0.1-0.3 0.3-0.3h5.5q0 0.1-0.1 0.3-0.1 0.4 0 0.8 0.1 0.2 0.1 0.3 0.1 0 0.1 0z"/><path class="d" d="m25.9 108.1c2.5 0 4.5-2 4.5-4.5v-4.4h-8.9v4.4c0 2.5 2 4.5 4.4 4.5z"/><path fill-rule="evenodd" class="d" d="m26.9 104.4v-2.3c0-1.1 1-2.1 2.2-2.1h2.2c1.2 0 2.1 1 2.1 2.1v2.3c0 1.2-0.9 2.1-2.1 2.1h-2.2c-1.2 0-2.2-0.9-2.2-2.1zm2.2-3.6c-0.8 0-1.4 0.6-1.4 1.3v2.3c0 0.7 0.6 1.3 1.4 1.3h2.2c0.7 0 1.3-0.6 1.3-1.3v-2.3c0-0.7-0.6-1.3-1.3-1.3z"/><path class="b" d="m32.2 107.6c-0.4 0.8-1.1 1.3-2 1.3h-8.5c-0.9 0-1.7-0.5-2.1-1.3z"/><path class="e" d="m34 160h-30.2c-0.4 0-0.8-0.3-0.8-0.8 0-0.4 0.4-0.7 0.8-0.7h29.5v-45.8h-29.5c-0.4 0-0.8-0.3-0.8-0.8 0-0.4 0.4-0.7 0.8-0.7h30.2c0.4 0 0.8 0.3 0.8 0.7v47.3c0 0.5-0.4 0.8-0.8 0.8z"/><path class="e" d="m28.2 159.2h-1.5v-47.3h1.5z"/><path class="a" d="m35.9 111.2h-34v-2.3h34z"/></svg>