<svg version="1.2" xmlns="http://www.w3.org/2000/svg" viewBox="0 0 168 201" width="168" height="201"><defs><linearGradient id="P" gradientUnits="userSpaceOnUse"/><linearGradient id="g1" x2="1" href="#P" gradientTransform="matrix(-103.213,0,0,-50.024,138.765,137.09)"><stop stop-color="#eeebe2"/><stop offset="1" stop-color="#e8e8de"/></linearGradient></defs><style>.a{fill:url(#g1)}.b{fill:#d5d5cc}.c{fill:#fcf9f0}.d{fill:#3e333b}.e{fill:#5c4c57}.f{fill:#7a5e72}.g{fill:#5ea9f0}</style><path class="a" d="m135.3 141.9l-68.6 39.6c-4.5 2.6-11.9 2.6-16.5 0l-7.2-4.2c-1.5-0.9-2.9-2.5-3.7-4.5-0.7-1.9-0.8-3.7-0.1-4.9l11.4-18.2-2.8-3.3-11.4 18.2c-1.2 2-1.1 5.2 0.2 8.6 1.4 3.3 3.8 6.3 6.4 7.8l7.2 4.1c4.6 2.7 12 2.7 16.5 0l68.6-39.6c2.3-1.3 3.5-3 3.5-4.8 0-1.7 0-3.6 0-3.6 0 1.7-1.2 3.4-3.5 4.8z"/><path class="b" d="m132.3 134.1l-7.2-4.2c-1.5-0.9-2.8-2.6-3.6-4.5-0.8-1.9-0.8-3.8-0.1-4.9l11.3-18.2-2.8-3.3-11.3 18.2c-1.3 2-1.2 5.1 0.2 8.5 1.3 3.4 3.7 6.3 6.3 7.8l7.2 4.2q1 0.6 1.5 1.2c1.3-1.6 0.8-3.5-1.5-4.8z"/><path class="c" d="m135.3 132.3l-7.2-4.2c-1.5-0.8-2.8-2.5-3.6-4.4-0.8-2-0.8-3.8-0.1-4.9l11.3-18.3-3 1.8-11.3 18.2c-0.7 1.1-0.7 3 0.1 4.9 0.8 1.9 2.1 3.6 3.6 4.5l7.2 4.2c3 1.6 3 4.4 0 6l-68.6 39.7c-2.9 1.6-7.6 1.6-10.5 0l-7.2-4.2c-1.5-0.9-2.9-2.6-3.7-4.5-0.7-1.9-0.8-3.8-0.1-4.9l11.4-18.2-3 1.7-11.4 18.2c-0.7 1.2-0.6 3 0.1 4.9 0.8 2 2.2 3.6 3.7 4.5l7.2 4.2c4.6 2.6 12 2.6 16.5 0l68.6-39.6c4.6-2.7 4.6-7 0-9.6z"/><path class="d" d="m72.5 157l3.4 1.9-2.5-4.1-1.4 1.3z"/><path class="e" d="m75.9 158.9l23.9-13.7 2.5-7-28.9 16.6z"/><path class="f" d="m167.4 4.4c-61.6 25.8-115.8 57.1-160.5 92.7q-3.1-1.3-6.1-2.6c45.2-35.9 99.9-67.5 162.2-93.6q2.2 1.7 4.4 3.5z"/><path class="e" d="m6.9 97.1c44.7-35.6 98.9-66.9 160.5-92.7v103.8c-61.6 25.8-115.8 57.1-160.5 92.7z"/><path class="d" d="m6.9 97.1l-6.1-2.6v103.8l6.1 2.6z"/><path class="g" d="m163.7 9.7v96.3c-58.4 24.8-109.9 54.5-153 88.1v-96.2c43.1-33.6 94.6-63.3 153-88.2z"/></svg>