<svg version="1.2" xmlns="http://www.w3.org/2000/svg" viewBox="0 0 144 221" width="144" height="221"><defs><linearGradient id="P" gradientUnits="userSpaceOnUse"/><linearGradient id="g1" x2="1" href="#P" gradientTransform="matrix(88.874,0,0,188.709,54.98,31.757)"><stop stop-color="#eeebe2"/><stop offset="1" stop-color="#e8e8de"/></linearGradient></defs><style>.a{fill:#fcf9f0}.b{fill:url(#g1)}.c{fill:#d5d5cc}.d{fill:#383838}.e{fill:#bebfbf}.f{fill:#aaabab}.g{fill:#c2c3c6}.h{fill:#dfe0e0}.i{opacity:.6;fill:#2f7e9e}.j{opacity:.2}.k{fill:#3e333b}.l{fill:#fff}.m{fill:#ff5102}.n{opacity:.5;fill:#fff}.o{opacity:.4;fill:#fff}.p{fill:#3b3b3d}.q{fill:#72ae15}.r{fill:#dedede}.s{fill:#b5b5b5}.t{opacity:.3;fill:#fff}.u{opacity:.1}</style><path class="a" d="m55.4 81.6l85.8-49.8-54.2-31.3-86.1 49.7z"/><path class="b" d="m55 220.5l85.8-49.9c3.9-44 4.1-90.5 0.4-138.8l-85.8 49.8c3.6 48.4 3.5 94.9-0.4 138.9z"/><path class="c" d="m55.4 81.6l-54.5-31.4v139l54.1 31.3c3.9-44 4-90.5 0.4-138.9z"/><path  d="m124.3 109.7c0 18-12.6 39.8-28.2 48.8-15.6 9-28.2 1.7-28.2-16.3 0-17.9 12.6-39.8 28.2-48.8 15.6-9 28.2-1.7 28.2 16.3z"/><path class="d" d="m125.7 88.7c-5.1-2.9-11.6-3-19 0.2q0.1 0.1 0.3 0.2 0.5 0 0.9 0.3 0.1 0 0.1 0 1 0.3 1.9 0.9c4.8 2.7 7.7 8.5 7.8 16.8 0 8.3-2.9 17.5-7.6 25.7-4.8 8.2-11.3 15.4-18.5 19.5-7.3 4.2-13.8 4.6-18.6 1.9q-1-0.5-1.9-1.3 0 0 0 0c-0.3-0.3-0.6-0.6-0.8-0.9q-0.2-0.3-0.3-0.7c0.8 8.4 4.2 14.4 9.5 17.4 5.9 3.4 14.1 2.9 23.2-2.4 9-5.2 17.2-14.1 23.1-24.4 5.9-10.2 9.6-21.7 9.5-32.1 0-10.4-3.7-17.7-9.6-21.1z"/><path class="e" d="m125.3 84c-6.4-3.7-15.3-3.1-25.2 2.5-9.8 5.7-18.7 15.4-25.1 26.6-6.4 11.1-10.4 23.6-10.4 34.9 0.1 11.3 4.1 19.2 10.5 22.9l0.9 0.5c-6.3-3.7-10.2-11.6-10.3-22.7 0-11.3 4-23.9 10.4-35 6.4-11.1 15.3-20.8 25.1-26.5 9.9-5.7 18.8-6.3 25.2-2.6z"/><path class="f" d="m76 171.4q0.1 0.1 0.3 0.2z"/><path class="g" d="m130.2 88.3c-4.2-2.4-9.6-2.9-15.6-1.3 1.9-0.3 3.9-0.2 5.5 0.7q0.2 0 0.5 0c0.6 0.1 1.3 0.3 1.8 0.4 0.8 0.3 1.2 0.5 1.6 0.7 5.9 3.3 9.5 10.5 9.5 20.7 0.1 10.2-3.5 21.6-9.3 31.6-5.8 10.1-13.9 18.8-22.7 24-8.9 5.1-17 5.6-22.8 2.3-0.4-0.2-0.6-0.4-1-0.6-0.4-0.4-0.6-0.6-0.8-0.8-0.2-0.1-0.5-0.4-0.9-0.9-1-0.7-2.1-1.5-3-2.5 1.8 4.8 4.6 8.3 8.3 10.4 6.3 3.6 15 3.1 24.6-2.5 9.6-5.5 18.2-15 24.5-25.8 6.2-10.8 10.1-23 10.1-34.1-0.1-11-4-18.7-10.3-22.3z"/><path class="g" d="m134.1 91.6c-0.2-0.3-0.4-0.7-0.7-0.9-0.3-0.5-0.8-1.1-1.2-1.5-0.4-0.5-1.1-1.1-1.5-1.5-0.3-0.2-0.6-0.5-0.8-0.7-0.5-0.4-1.2-0.9-1.7-1.2-0.5-0.4-1.2-0.8-1.8-1.2-6.4-3.7-15.3-3.1-25.2 2.6-9.8 5.7-18.7 15.4-25.1 26.5-6.4 11.1-10.4 23.7-10.4 35 0.1 11.3 4.1 19.2 10.6 22.9 0.7 0.4 1.2 0.6 2 1 0.5 0.2 1.3 0.6 1.8 0.8 0.3 0.1 0.7 0.2 1 0.3 0.6 0.2 1.3 0.3 1.9 0.5 0.6 0.1 1.5 0.3 2.1 0.4 0.4 0 0.8 0.1 1.2 0.1-0.9-0.6-1.6-1.5-1.7-2.6q-1.1-0.4-2.1-1c-6.1-3.4-9.8-10.8-9.8-21.3 0-10.5 3.6-22.2 9.6-32.5 6-10.4 14.2-19.4 23.4-24.7 9.1-5.2 17.4-5.8 23.4-2.3q0.6 0.3 1.1 0.7 0.1-0.1 0.3-0.1c1.4 0 2.8 0.3 3.9 1q-0.2-0.2-0.3-0.3z"/><path fill-rule="evenodd" class="h" d="m81.3 173c-6.3-3.6-10.2-11.3-10.2-22.3 0-11 3.8-23.2 10.1-34 6.2-10.9 14.9-20.4 24.5-25.9 9.5-5.5 18.2-6.1 24.5-2.5 6.3 3.6 10.2 11.3 10.3 22.3 0 11.1-3.9 23.3-10.1 34.1-6.3 10.8-14.9 20.3-24.5 25.8-9.6 5.6-18.3 6.1-24.6 2.5zm1-55.7c-6 10.3-9.6 22-9.6 32.5 0 10.5 3.7 17.9 9.8 21.3 6 3.4 14.2 2.9 23.4-2.4 9.1-5.3 17.4-14.3 23.4-24.6 5.9-10.4 9.6-22 9.6-32.5-0.1-10.5-3.8-17.9-9.8-21.3-6-3.5-14.3-2.9-23.4 2.3-9.2 5.3-17.4 14.3-23.4 24.7z"/><path class="i" d="m105.7 92.6c-9.2 5.3-17.4 14.3-23.4 24.7-6 10.3-9.6 22-9.6 32.5 0 8.8 2.6 15.4 7 19.3 5.9 2.9 13.8 2.2 22.5-2.8 9.1-5.2 17.3-14.2 23.2-24.5 6-10.2 9.6-21.8 9.6-32.2 0-9.9-3.4-17-8.8-20.6-5.7-1.9-12.8-0.8-20.5 3.6z"/><path class="j" d="m52.1 218.8v-133.6l-0.6-0.4v133.6z"/><path class="j" d="m0.9 55.6v-0.7l54.8 31.7 0.1 0.7z"/><path  d="m136.8 37.8l-74.1 43.1c-1.5 0.9-2.3 2.5-2.2 4.2q0.4 6.5 0.8 13c0.1 0.7 0.4 1.3 1 1.6 0.5 0.3 1.3 0.4 1.9 0l73.6-42.4c1.7-0.9 2.6-2.8 2.5-4.7-0.2-4.4-0.5-8.9-0.8-13.4 0-0.6-0.4-1.1-0.9-1.4-0.5-0.3-1.2-0.3-1.8 0z"/><path class="k" d="m61.3 98.1q-0.4-6.5-0.8-13c-0.1-1.7 0.7-3.3 2.2-4.2l74.1-43.1c0.6-0.3 1.3-0.3 1.8 0 0 0-0.9-0.5-1.3-0.8-0.6-0.3-1.2-0.3-1.8 0l-74.2 43.1c-1.5 0.9-2.3 2.5-2.2 4.2q0.5 6.5 0.9 13c0 0.7 0.4 1.3 0.9 1.6 0.6 0.3 1.4 0.8 1.4 0.8-0.6-0.3-0.9-0.9-1-1.6z"/><g style="opacity:.5"><path fill-rule="evenodd" class="l" d="m90.4 81.3l-0.8-12.2 20.9-12 0.8 12.1zm-0.4-11.9l0.7 11.2 20.2-11.6-0.7-11.2z"/></g><path class="m" d="m128.9 52.7c0.1 2.2-1.3 4.9-3.3 6-2 1.2-3.7 0.3-3.8-1.9-0.2-2.2 1.3-4.9 3.3-6 2-1.2 3.7-0.3 3.8 1.9z"/><path class="n" d="m131.4 45.9l-2.7 3.4 2.8-2.7 5.3-3.1c0.2-0.1 0.3-0.3 0.3-0.5 0-0.2-0.2-0.3-0.3-0.2z"/><path class="o" d="m132.1 56.2l-3-0.1 2.9-0.6 5.4-3.1c0.2 0 0.3 0 0.3 0.2 0 0.2-0.1 0.4-0.3 0.5z"/><path class="o" d="m132.5 50.3l-2.9 2 3-1.3 4.5-2.7c0.2-0.1 0.3-0.3 0.3-0.5 0-0.1-0.1-0.2-0.3-0.1z"/><path class="n" d="m118.6 53.3l2.9 0.1-2.9 0.6-5.3 3.1c-0.2 0.1-0.3 0-0.3-0.2-0.1-0.2 0.1-0.4 0.2-0.5z"/><path class="n" d="m119.2 63.6l2.8-3.4-2.8 2.8-5.4 3c-0.1 0.1-0.3 0.4-0.2 0.5 0 0.2 0.1 0.3 0.3 0.2z"/><path class="n" d="m118.1 58.6l2.9-1.4-2.8 2.1-4.6 2.6c-0.2 0.1-0.3 0.1-0.3-0.1-0.1-0.2 0.1-0.4 0.2-0.5z"/><path class="p" d="m86.8 66.9q0.7 9.6 1.2 19.1l-0.8 0.5q-0.5-9.5-1.2-19.1z"/><path class="q" d="m100.5 71.3c0.5-0.3 0.9-0.1 0.9 0.5 0 0.6-0.4 1.4-0.9 1.7-0.6 0.3-1 0-1-0.6 0-0.6 0.4-1.3 1-1.6z"/><path class="q" d="m102.1 69.7c-0.2 0.3-0.4 0.5-0.6 0.5q-0.5-0.1-1 0.2-0.6 0.3-1.1 0.9c-0.1 0.3-0.4 0.4-0.5 0.3-0.3-0.1-0.2-0.5 0-0.8 0.5-0.7 1-1.2 1.6-1.5q0.8-0.5 1.5-0.3c0.3 0 0.3 0.4 0.1 0.7z"/><path class="q" d="m103.2 67.8c-0.1 0.2-0.4 0.4-0.6 0.4-1.2-0.5-3 0.6-4.3 2.4-0.2 0.3-0.4 0.4-0.6 0.3-0.2-0.1-0.2-0.5 0-0.8 1.6-2.3 3.9-3.7 5.5-3.1 0.2 0.1 0.2 0.4 0 0.8z"/><path class="q" d="m104.3 65.7c-0.1 0.3-0.4 0.5-0.6 0.4-1.9-0.7-4.6 0.9-6.5 3.8-0.2 0.2-0.4 0.4-0.6 0.3-0.2-0.1-0.2-0.5 0-0.8 2.2-3.4 5.5-5.3 7.7-4.4 0.2 0 0.2 0.4 0 0.7z"/><path class="r" d="m125.1 54.7c-1.1 2-1.1 4.2 0 4.8 1.2 0.7 3.1-0.4 4.2-2.4 1.2-2 1.2-4.2 0-4.8-1.1-0.7-3 0.4-4.2 2.4z"/><path class="s" d="m125.1 54.7c1.2-2 3-3 4.1-2.5 0 0-0.7-0.4-1.8-1.1-1.2-0.6-3.1 0.4-4.2 2.5-1.2 2-1.2 4.1 0 4.8 1.1 0.7 1.9 1.1 1.9 1.1-1.1-0.6-1.1-2.8 0-4.8z"/><path class="s" d="m125.5 54.9c-1.1 1.8-1.1 3.8 0 4.4 1 0.6 2.7-0.4 3.8-2.2 1.1-1.8 1.1-3.8 0-4.4-1.1-0.7-2.8 0.3-3.8 2.2z"/><path class="t" d="m123.9 52.5q-0.4 0.5-0.7 1.1-0.3 0.4-0.5 0.9l2 1.1q0.2-0.5 0.4-0.9 0.4-0.6 0.8-1.1z"/><path class="m" d="m126.7 55.3l-1.1-0.7q-0.1 0.1-0.1 0.3-0.1 0.1-0.2 0.2l1.1 0.7q0.1 0 0.2 0 0.1 0 0.2-0.1c0.1-0.2 0.1-0.4-0.1-0.4z"/><path class="n" d="m66.3 97.2c-0.1-2 1.3-4.5 3.1-5.5l9.3-5.4c1.8-1.1 3.4-0.3 3.5 1.7l0.1 1.3 0.7-0.4-0.1-1.3c-0.1-2.4-2-3.4-4.2-2.1l-9.4 5.4c-2.2 1.3-3.8 4.3-3.7 6.7l0.1 1.3 0.7-0.5z"/><path class="u" d="m10.4 73.5l-2.6-1.5q-0.6-0.4-1.2-0.4-0.3 0.5-0.3 1.3v108.2c0 1.7 1.2 3.8 2.7 4.6l2.6 1.6q0.7 0.3 1.2 0.3 0.3-0.4 0.3-1.2v-108.3c0-1.7-1.2-3.7-2.7-4.6z"/><path class="u" d="m5.1 73.5c0-1.2 0.6-1.9 1.5-1.9q-0.3 0.5-0.3 1.3v108.2c0 1.7 1.2 3.8 2.7 4.6l2.6 1.6q0.7 0.3 1.2 0.3c-0.4 0.8-1.3 0.9-2.4 0.3l-2.6-1.5c-1.5-0.8-2.7-2.9-2.7-4.6z"/><path class="u" d="m21.4 79.8l-2.6-1.5q-0.7-0.4-1.2-0.3-0.3 0.4-0.3 1.2v108.2c0 1.7 1.2 3.8 2.7 4.7l2.6 1.5q0.6 0.4 1.2 0.3 0.3-0.4 0.3-1.2v-108.2c0-1.7-1.2-3.8-2.7-4.7z"/><path class="u" d="m16.1 79.9c0-1.2 0.6-1.9 1.5-1.9q-0.3 0.4-0.3 1.2v108.2c0 1.7 1.2 3.8 2.7 4.7l2.6 1.5q0.6 0.4 1.2 0.3c-0.5 0.8-1.4 1-2.4 0.4l-2.6-1.5c-1.5-0.9-2.7-3-2.7-4.7z"/><path class="u" d="m32.3 86.2l-2.6-1.6q-0.6-0.3-1.2-0.3-0.3 0.4-0.3 1.2v108.3c0 1.7 1.2 3.7 2.7 4.6l2.6 1.5q0.7 0.4 1.2 0.4 0.3-0.5 0.3-1.3v-108.2c0-1.7-1.2-3.8-2.7-4.6z"/><path class="u" d="m27.1 86.2c0-1.2 0.5-1.9 1.4-1.9q-0.3 0.4-0.3 1.2v108.3c0 1.7 1.2 3.7 2.7 4.6l2.6 1.5q0.7 0.4 1.2 0.4c-0.4 0.7-1.3 0.9-2.4 0.3l-2.6-1.5c-1.5-0.9-2.7-3-2.7-4.7z"/><path class="u" d="m43.3 92.5l-2.6-1.5q-0.7-0.4-1.2-0.4-0.3 0.5-0.3 1.2v108.3c0 1.7 1.2 3.8 2.7 4.6l2.6 1.5q0.6 0.4 1.2 0.4 0.3-0.5 0.3-1.2v-108.3c0-1.7-1.2-3.8-2.7-4.6z"/><path class="u" d="m38 92.5c0-1.2 0.6-1.9 1.5-1.9q-0.3 0.5-0.3 1.2v108.3c0 1.7 1.2 3.8 2.7 4.6l2.6 1.5q0.6 0.4 1.2 0.4c-0.5 0.7-1.4 0.9-2.4 0.3l-2.6-1.5c-1.5-0.9-2.7-2.9-2.7-4.6z"/></svg>