<svg version="1.2" xmlns="http://www.w3.org/2000/svg" viewBox="0 0 82 117" width="82" height="117"><style>.a{fill:#bcbec0}.b{fill:#a7a9ac}.c{fill:#231f20}.d{fill:#414042}.e{fill:#2b2b2b}.f{fill:#d1d3d4}.g{fill:#f1f2f2}.h{fill:#e6e7e8}.i{fill:#6d6e71}.j{opacity:.3;fill:#939598}.k{fill:#3498db}</style><path class="a" d="m62.8 105.7l-43.7-25.2v-70l43.7 25.2z"/><path class="a" d="m62.7 105.8l-43.7-25.2v-3.2l43.7 25.2z"/><path class="b" d="m62.8 58.7l-43.7-25.2v-22.9l43.7 25.2z"/><path class="c" d="m0.3 87.9l18.7-10.5 43.7 25.2-18.8 10.5z"/><path class="d" d="m1.3 87.9l17.7-9.9 42.6 24.6-17.7 9.9z"/><path class="e" d="m20.1 80.5c-0.5 0.3-1.2 0.3-1.6 0-0.5-0.2-0.5-0.7 0-0.9 0.4-0.3 1.1-0.3 1.6 0 0.4 0.2 0.4 0.7 0 0.9z"/><path class="e" d="m23.3 82.4c-0.5 0.2-1.2 0.2-1.6-0.1-0.5-0.2-0.5-0.6 0-0.9 0.4-0.2 1.1-0.2 1.6 0 0.4 0.3 0.4 0.7 0 1z"/><path class="e" d="m26.5 84.2c-0.5 0.2-1.2 0.2-1.6 0-0.5-0.3-0.5-0.7 0-0.9 0.4-0.3 1.1-0.3 1.5 0 0.5 0.2 0.5 0.6 0.1 0.9z"/><path class="e" d="m29.6 86c-0.4 0.3-1.1 0.3-1.5 0-0.5-0.2-0.5-0.6-0.1-0.9 0.5-0.2 1.2-0.2 1.6 0 0.5 0.3 0.5 0.7 0 0.9z"/><path class="e" d="m32.8 87.9c-0.4 0.2-1.1 0.2-1.6 0-0.4-0.3-0.4-0.7 0-0.9 0.5-0.3 1.2-0.3 1.6 0 0.5 0.2 0.5 0.6 0 0.9z"/><path class="e" d="m36 89.7c-0.4 0.3-1.1 0.3-1.6 0-0.4-0.2-0.4-0.6 0-0.9 0.5-0.3 1.2-0.3 1.6 0 0.5 0.3 0.5 0.7 0 0.9z"/><path class="e" d="m39.2 91.6c-0.4 0.2-1.1 0.2-1.6 0-0.4-0.3-0.4-0.7 0-1 0.5-0.2 1.2-0.2 1.6 0 0.4 0.3 0.4 0.7 0 1z"/><path class="e" d="m42.4 93.4c-0.4 0.3-1.1 0.3-1.6 0-0.4-0.3-0.4-0.7 0-0.9 0.4-0.3 1.2-0.3 1.6 0 0.4 0.2 0.4 0.7 0 0.9z"/><path class="e" d="m45.6 95.2c-0.4 0.3-1.2 0.3-1.6 0-0.4-0.2-0.4-0.6 0-0.9 0.4-0.2 1.1-0.2 1.6 0 0.4 0.3 0.4 0.7 0 0.9z"/><path class="e" d="m48.8 97.1c-0.5 0.2-1.2 0.2-1.6 0-0.4-0.3-0.5-0.7 0-0.9 0.4-0.3 1.1-0.3 1.6 0 0.4 0.2 0.4 0.6 0 0.9z"/><path class="e" d="m52 98.9c-0.5 0.3-1.2 0.3-1.6 0-0.5-0.2-0.5-0.6 0-0.9 0.4-0.2 1.1-0.2 1.6 0 0.4 0.3 0.4 0.7 0 0.9z"/><path class="e" d="m55.2 100.8c-0.5 0.2-1.2 0.2-1.6 0-0.5-0.3-0.5-0.7 0-0.9 0.4-0.3 1.1-0.3 1.6 0 0.4 0.2 0.4 0.6 0 0.9z"/><path class="e" d="m58.4 102.6c-0.5 0.3-1.2 0.3-1.6 0-0.5-0.2-0.5-0.7 0-0.9 0.4-0.3 1.1-0.3 1.5 0 0.5 0.3 0.5 0.7 0.1 0.9z"/><path class="e" d="m20.1 82.3c-0.5 0.3-1.2 0.3-1.6 0-0.5-0.2-0.5-0.6 0-0.9 0.4-0.2 1.1-0.2 1.6 0 0.4 0.3 0.4 0.7 0 0.9z"/><path class="e" d="m23.3 84.2c-0.5 0.2-1.2 0.2-1.6 0-0.5-0.3-0.5-0.7 0-0.9 0.4-0.3 1.1-0.3 1.6 0 0.4 0.2 0.4 0.6 0 0.9z"/><path class="e" d="m26.5 86c-0.5 0.3-1.2 0.3-1.6 0-0.5-0.2-0.5-0.6 0-0.9 0.4-0.2 1.1-0.2 1.6 0 0.4 0.3 0.4 0.7 0 0.9z"/><path class="e" d="m29.7 87.9c-0.5 0.2-1.2 0.2-1.6 0-0.5-0.3-0.5-0.7 0-0.9 0.4-0.3 1.1-0.3 1.5 0 0.5 0.2 0.5 0.6 0.1 0.9z"/><path class="e" d="m32.8 89.7c-0.4 0.3-1.1 0.3-1.5 0-0.5-0.2-0.5-0.7-0.1-0.9 0.5-0.3 1.2-0.3 1.6 0 0.5 0.3 0.5 0.7 0 0.9z"/><path class="e" d="m36 91.6c-0.4 0.2-1.1 0.2-1.6 0-0.4-0.3-0.4-0.7 0-1 0.5-0.2 1.2-0.2 1.6 0 0.5 0.3 0.5 0.7 0 1z"/><path class="e" d="m39.2 93.4c-0.4 0.3-1.1 0.3-1.6 0-0.4-0.3-0.4-0.7 0-0.9 0.5-0.3 1.2-0.3 1.6 0 0.5 0.2 0.5 0.6 0 0.9z"/><path class="e" d="m42.4 95.2c-0.4 0.3-1.1 0.3-1.6 0-0.4-0.2-0.4-0.6 0-0.9 0.5-0.2 1.2-0.2 1.6 0 0.4 0.3 0.4 0.7 0 0.9z"/><path class="e" d="m45.6 97.1c-0.4 0.2-1.1 0.2-1.6 0-0.4-0.3-0.4-0.7 0-0.9 0.4-0.3 1.2-0.3 1.6 0 0.4 0.2 0.4 0.6 0 0.9z"/><path class="e" d="m48.8 98.9c-0.4 0.3-1.2 0.3-1.6 0-0.4-0.2-0.4-0.6 0-0.9 0.4-0.2 1.1-0.2 1.6 0 0.4 0.3 0.4 0.7 0 0.9z"/><path class="e" d="m52 100.8c-0.5 0.2-1.2 0.2-1.6 0-0.4-0.3-0.5-0.7 0-1 0.4-0.2 1.1-0.2 1.6 0 0.4 0.3 0.4 0.7 0 1z"/><path class="e" d="m55.2 102.6c-0.5 0.3-1.2 0.3-1.6 0-0.5-0.2-0.5-0.7 0-0.9 0.4-0.3 1.1-0.3 1.6 0 0.4 0.2 0.4 0.7 0 0.9z"/><path class="e" d="m16.9 82.3c-0.4 0.3-1.2 0.3-1.6 0-0.4-0.2-0.4-0.6 0-0.9 0.4-0.2 1.2-0.2 1.6 0 0.4 0.3 0.4 0.7 0 0.9z"/><path class="e" d="m20.1 84.2c-0.4 0.2-1.2 0.2-1.6 0-0.4-0.3-0.4-0.7 0-0.9 0.4-0.3 1.1-0.3 1.6 0 0.4 0.2 0.4 0.6 0 0.9z"/><path class="e" d="m23.3 86c-0.5 0.3-1.2 0.3-1.6 0-0.5-0.2-0.5-0.6 0-0.9 0.4-0.2 1.1-0.2 1.6 0 0.4 0.3 0.4 0.7 0 0.9z"/><path class="e" d="m26.5 87.9c-0.5 0.2-1.2 0.2-1.6 0-0.5-0.3-0.5-0.7 0-1 0.4-0.2 1.1-0.2 1.6 0 0.4 0.3 0.4 0.7 0 1z"/><path class="e" d="m29.7 89.7c-0.5 0.3-1.2 0.3-1.6 0-0.5-0.2-0.5-0.7 0-0.9 0.4-0.3 1.1-0.3 1.6 0 0.4 0.2 0.4 0.7 0 0.9z"/><path class="e" d="m32.9 91.6c-0.5 0.2-1.2 0.2-1.6-0.1-0.5-0.2-0.5-0.6 0-0.9 0.4-0.2 1.1-0.2 1.5 0 0.5 0.3 0.5 0.7 0.1 1z"/><path class="e" d="m36 93.4c-0.4 0.2-1.1 0.2-1.5 0-0.5-0.3-0.5-0.7-0.1-0.9 0.5-0.3 1.2-0.3 1.6 0 0.5 0.2 0.5 0.6 0 0.9z"/><path class="e" d="m39.2 95.2c-0.4 0.3-1.1 0.3-1.6 0-0.4-0.2-0.4-0.6 0-0.9 0.5-0.2 1.2-0.2 1.6 0 0.5 0.3 0.5 0.7 0 0.9z"/><path class="e" d="m42.4 97.1c-0.4 0.2-1.1 0.2-1.6 0-0.4-0.3-0.4-0.7 0-0.9 0.5-0.3 1.2-0.3 1.6 0 0.5 0.2 0.5 0.6 0 0.9z"/><path class="e" d="m45.6 98.9c-0.4 0.3-1.1 0.3-1.6 0-0.4-0.2-0.4-0.6 0-0.9 0.5-0.3 1.2-0.3 1.6 0 0.4 0.3 0.4 0.7 0 0.9z"/><path class="e" d="m48.8 100.8c-0.4 0.2-1.1 0.2-1.6 0-0.4-0.3-0.4-0.7 0-1 0.4-0.2 1.2-0.2 1.6 0 0.4 0.3 0.4 0.7 0 1z"/><path class="e" d="m52 102.6c-0.4 0.3-1.2 0.3-1.6 0-0.4-0.3-0.4-0.7 0-0.9 0.4-0.3 1.1-0.3 1.6 0 0.4 0.2 0.4 0.6 0 0.9z"/><path class="e" d="m55.2 104.4c-0.5 0.3-1.2 0.3-1.6 0-0.4-0.2-0.5-0.6 0-0.9 0.4-0.2 1.1-0.2 1.6 0 0.4 0.3 0.4 0.7 0 0.9z"/><path class="e" d="m16.9 84.2c-0.4 0.2-1.1 0.2-1.6 0-0.4-0.3-0.4-0.7 0-0.9 0.5-0.3 1.2-0.3 1.6 0 0.4 0.2 0.4 0.6 0 0.9z"/><path class="e" d="m20.1 86c-0.4 0.3-1.2 0.3-1.6 0-0.4-0.2-0.4-0.6 0-0.9 0.4-0.3 1.2-0.3 1.6 0 0.4 0.3 0.4 0.7 0 0.9z"/><path class="e" d="m23.3 87.9c-0.4 0.2-1.2 0.2-1.6 0-0.4-0.3-0.4-0.7 0-1 0.4-0.2 1.1-0.2 1.6 0 0.4 0.3 0.4 0.7 0 1z"/><path class="e" d="m26.5 89.7c-0.5 0.3-1.2 0.3-1.6 0-0.5-0.3-0.5-0.7 0-0.9 0.4-0.3 1.1-0.3 1.6 0 0.4 0.2 0.4 0.7 0 0.9z"/><path class="e" d="m29.7 91.5c-0.5 0.3-1.2 0.3-1.6 0-0.5-0.2-0.5-0.6 0-0.9 0.4-0.2 1.1-0.2 1.6 0 0.4 0.3 0.4 0.7 0 0.9z"/><path class="e" d="m32.9 93.4c-0.5 0.2-1.2 0.2-1.6 0-0.5-0.3-0.5-0.7 0-0.9 0.4-0.3 1.1-0.3 1.6 0 0.4 0.2 0.4 0.6 0 0.9z"/><path class="e" d="m36.1 95.2c-0.5 0.3-1.2 0.3-1.6 0-0.5-0.2-0.5-0.6 0-0.9 0.4-0.2 1.1-0.2 1.5 0 0.5 0.3 0.5 0.7 0.1 0.9z"/><path class="e" d="m39.2 97.1c-0.4 0.2-1.1 0.2-1.5 0-0.5-0.3-0.5-0.7-0.1-1 0.5-0.2 1.2-0.2 1.6 0.1 0.5 0.2 0.5 0.6 0 0.9z"/><path class="e" d="m42.4 98.9c-0.4 0.3-1.1 0.3-1.6 0-0.4-0.2-0.4-0.7 0-0.9 0.5-0.3 1.2-0.3 1.6 0 0.5 0.2 0.5 0.7 0 0.9z"/><path class="e" d="m45.6 100.8c-0.4 0.2-1.1 0.2-1.6 0-0.4-0.3-0.4-0.7 0-1 0.5-0.2 1.2-0.2 1.6 0 0.5 0.3 0.5 0.7 0 1z"/><path class="e" d="m48.8 102.6c-0.4 0.2-1.1 0.2-1.6 0-0.4-0.3-0.4-0.7 0-0.9 0.5-0.3 1.2-0.3 1.6 0 0.4 0.2 0.4 0.6 0 0.9z"/><path class="e" d="m52 104.4c-0.4 0.3-1.1 0.3-1.6 0-0.4-0.2-0.4-0.6 0-0.9 0.4-0.2 1.2-0.2 1.6 0 0.4 0.3 0.4 0.7 0 0.9z"/><path class="e" d="m13.7 84.2c-0.4 0.2-1.1 0.2-1.6 0-0.4-0.3-0.4-0.7 0-0.9 0.5-0.3 1.2-0.3 1.6 0 0.5 0.2 0.5 0.6 0 0.9z"/><path class="e" d="m16.9 86c-0.4 0.3-1.1 0.3-1.6 0-0.4-0.2-0.4-0.7 0-0.9 0.5-0.3 1.2-0.3 1.6 0 0.5 0.2 0.5 0.7 0 0.9z"/><path class="e" d="m20.1 87.9c-0.4 0.2-1.1 0.2-1.6 0-0.4-0.3-0.4-0.7 0-1 0.5-0.2 1.2-0.2 1.6 0 0.4 0.3 0.4 0.7 0 1z"/><path class="e" d="m23.3 89.7c-0.4 0.3-1.2 0.2-1.6 0-0.4-0.3-0.4-0.7 0-0.9 0.4-0.3 1.2-0.3 1.6 0 0.4 0.2 0.4 0.6 0 0.9z"/><path class="e" d="m26.5 91.5c-0.4 0.3-1.2 0.3-1.6 0-0.4-0.2-0.4-0.6 0-0.9 0.4-0.2 1.1-0.2 1.6 0 0.4 0.3 0.4 0.7 0 0.9z"/><path class="e" d="m29.7 93.4c-0.5 0.2-1.2 0.2-1.6 0-0.5-0.3-0.5-0.7 0-0.9 0.4-0.3 1.1-0.3 1.6 0 0.4 0.2 0.4 0.6 0 0.9z"/><path class="e" d="m32.9 95.2c-0.5 0.3-1.2 0.3-1.6 0-0.5-0.2-0.5-0.6 0-0.9 0.4-0.3 1.1-0.2 1.6 0 0.4 0.3 0.4 0.7 0 0.9z"/><path class="e" d="m36.1 97.1c-0.5 0.2-1.2 0.2-1.6 0-0.5-0.3-0.5-0.7 0-1 0.4-0.2 1.1-0.2 1.6 0 0.4 0.3 0.4 0.7 0 1z"/><path class="e" d="m39.3 98.9c-0.5 0.3-1.2 0.3-1.6 0-0.5-0.3-0.5-0.7 0-0.9 0.4-0.3 1.1-0.3 1.5 0 0.5 0.2 0.5 0.7 0.1 0.9z"/><path class="e" d="m42.4 100.7c-0.4 0.3-1.1 0.3-1.5 0-0.5-0.2-0.5-0.6-0.1-0.9 0.5-0.2 1.2-0.2 1.6 0 0.5 0.3 0.5 0.7 0 0.9z"/><path class="e" d="m45.6 102.6c-0.4 0.2-1.1 0.2-1.6 0-0.4-0.3-0.4-0.7 0-0.9 0.5-0.3 1.2-0.3 1.6 0 0.5 0.2 0.5 0.6 0 0.9z"/><path class="e" d="m48.8 104.4c-0.4 0.3-1.1 0.3-1.6 0-0.4-0.2-0.4-0.6 0-0.9 0.5-0.2 1.2-0.2 1.6 0 0.5 0.3 0.5 0.7 0 0.9z"/><path class="e" d="m52 106.3c-0.4 0.2-1.1 0.2-1.6 0-0.4-0.3-0.4-0.7 0-0.9 0.5-0.3 1.2-0.3 1.6 0 0.4 0.2 0.5 0.6 0 0.9z"/><path class="e" d="m13.7 86c-0.4 0.3-1.1 0.3-1.6 0-0.4-0.2-0.4-0.7 0-0.9 0.5-0.3 1.2-0.3 1.6 0 0.5 0.2 0.5 0.7 0 0.9z"/><path class="e" d="m16.9 87.8c-0.4 0.3-1.1 0.3-1.6 0-0.4-0.2-0.4-0.6 0-0.9 0.5-0.2 1.2-0.2 1.6 0 0.5 0.3 0.5 0.7 0 0.9z"/><path class="e" d="m20.1 89.7c-0.4 0.2-1.1 0.2-1.6 0-0.4-0.3-0.4-0.7 0-0.9 0.5-0.3 1.2-0.3 1.6 0 0.5 0.2 0.5 0.6 0 0.9z"/><path class="e" d="m23.3 91.5c-0.4 0.3-1.1 0.3-1.6 0-0.4-0.2-0.4-0.6 0-0.9 0.5-0.2 1.2-0.2 1.6 0 0.4 0.3 0.4 0.7 0 0.9z"/><path class="e" d="m26.5 93.4c-0.4 0.2-1.1 0.2-1.6 0-0.4-0.3-0.4-0.7 0-0.9 0.4-0.3 1.2-0.3 1.6 0 0.4 0.2 0.4 0.6 0 0.9z"/><path class="e" d="m29.7 95.2c-0.4 0.3-1.2 0.3-1.6 0-0.4-0.2-0.4-0.7 0-0.9 0.4-0.3 1.1-0.3 1.6 0 0.4 0.3 0.4 0.7 0 0.9z"/><path class="e" d="m32.9 97.1c-0.5 0.2-1.2 0.2-1.6 0-0.5-0.3-0.5-0.7 0-1 0.4-0.2 1.1-0.2 1.6 0 0.4 0.3 0.4 0.7 0 1z"/><path class="e" d="m36.1 98.9c-0.5 0.3-1.2 0.3-1.6 0-0.5-0.3-0.5-0.7 0-0.9 0.4-0.3 1.1-0.3 1.6 0 0.4 0.2 0.4 0.6 0 0.9z"/><path class="e" d="m39.3 100.7c-0.5 0.3-1.2 0.3-1.6 0-0.5-0.2-0.5-0.6 0-0.9 0.4-0.2 1.1-0.2 1.6 0 0.4 0.3 0.4 0.7 0 0.9z"/><path class="e" d="m42.5 102.6c-0.5 0.2-1.2 0.2-1.6 0-0.5-0.3-0.5-0.7 0-0.9 0.4-0.3 1.1-0.3 1.5 0 0.5 0.2 0.5 0.6 0.1 0.9z"/><path class="e" d="m45.6 104.4c-0.4 0.3-1.1 0.3-1.5 0-0.5-0.2-0.5-0.6-0.1-0.9 0.5-0.2 1.2-0.2 1.6 0 0.5 0.3 0.5 0.7 0 0.9z"/><path class="e" d="m48.8 106.3c-0.4 0.2-1.1 0.2-1.6 0-0.4-0.3-0.4-0.7 0-1 0.5-0.2 1.2-0.2 1.6 0.1 0.5 0.2 0.5 0.6 0 0.9z"/><path class="e" d="m10.6 86c-0.5 0.3-1.2 0.3-1.6 0-0.5-0.3-0.5-0.7 0-0.9 0.4-0.3 1.1-0.3 1.6 0 0.4 0.2 0.4 0.6 0 0.9z"/><path class="e" d="m13.7 87.8c-0.4 0.3-1.1 0.3-1.5 0-0.5-0.2-0.5-0.6 0-0.9 0.4-0.2 1.1-0.2 1.5 0 0.5 0.3 0.5 0.7 0 0.9z"/><path class="e" d="m16.9 89.7c-0.4 0.2-1.1 0.2-1.6 0-0.4-0.3-0.4-0.7 0-0.9 0.5-0.3 1.2-0.3 1.6 0 0.5 0.2 0.5 0.6 0 0.9z"/><path class="e" d="m20.1 91.5c-0.4 0.3-1.1 0.3-1.6 0-0.4-0.2-0.4-0.6 0-0.9 0.5-0.2 1.2-0.2 1.6 0 0.5 0.3 0.5 0.7 0 0.9z"/><path class="e" d="m23.3 93.4c-0.4 0.2-1.1 0.2-1.6 0-0.4-0.3-0.4-0.7 0-1 0.5-0.2 1.2-0.2 1.6 0.1 0.5 0.2 0.5 0.6 0 0.9z"/><path class="e" d="m26.5 95.2c-0.4 0.3-1.1 0.3-1.6 0-0.4-0.2-0.4-0.7 0-0.9 0.5-0.3 1.2-0.3 1.6 0 0.4 0.2 0.4 0.7 0 0.9z"/><path class="e" d="m29.7 97.1c-0.4 0.2-1.1 0.2-1.6 0-0.4-0.3-0.4-0.7 0-1 0.4-0.2 1.2-0.2 1.6 0 0.4 0.3 0.4 0.7 0 1z"/><path class="e" d="m32.9 98.9c-0.4 0.2-1.2 0.2-1.6 0-0.4-0.3-0.4-0.7 0-0.9 0.4-0.3 1.1-0.3 1.6 0 0.4 0.2 0.4 0.6 0 0.9z"/><path class="e" d="m36.1 100.7c-0.5 0.3-1.2 0.3-1.6 0-0.4-0.2-0.5-0.6 0-0.9 0.4-0.2 1.1-0.2 1.6 0 0.4 0.3 0.4 0.7 0 0.9z"/><path class="e" d="m39.3 102.6c-0.5 0.2-1.2 0.2-1.6 0-0.5-0.3-0.5-0.7 0-0.9 0.4-0.3 1.1-0.3 1.6 0 0.4 0.2 0.4 0.6 0 0.9z"/><path class="e" d="m42.5 104.4c-0.5 0.3-1.2 0.3-1.6 0-0.5-0.2-0.5-0.6 0-0.9 0.4-0.3 1.1-0.3 1.6 0 0.4 0.3 0.4 0.7 0 0.9z"/><path class="e" d="m45.7 106.3c-0.5 0.2-1.2 0.2-1.6 0-0.5-0.3-0.5-0.7 0-1 0.4-0.2 1.1-0.2 1.5 0 0.5 0.3 0.5 0.7 0.1 1z"/><path class="e" d="m48.8 108.1c-0.4 0.3-1.1 0.3-1.5 0-0.5-0.3-0.5-0.7-0.1-0.9 0.5-0.3 1.2-0.3 1.6 0 0.5 0.2 0.5 0.7 0 0.9z"/><path class="e" d="m10.6 87.8c-0.5 0.3-1.2 0.3-1.6 0-0.5-0.2-0.5-0.6 0-0.9 0.4-0.2 1.1-0.2 1.6 0 0.4 0.3 0.4 0.7 0 0.9z"/><path class="e" d="m13.8 89.7c-0.5 0.2-1.2 0.2-1.6 0-0.5-0.3-0.5-0.7 0-0.9 0.4-0.3 1.1-0.3 1.6 0 0.4 0.2 0.4 0.6 0 0.9z"/><path class="e" d="m16.9 91.5c-0.4 0.3-1.1 0.3-1.5 0-0.5-0.2-0.5-0.6 0-0.9 0.4-0.3 1.1-0.3 1.5 0 0.5 0.3 0.5 0.7 0 0.9z"/><path class="e" d="m20.1 93.4c-0.4 0.2-1.1 0.2-1.6 0-0.4-0.3-0.4-0.7 0-1 0.5-0.2 1.2-0.2 1.6 0 0.5 0.3 0.5 0.7 0 1z"/><path class="e" d="m23.3 95.2c-0.4 0.3-1.1 0.3-1.6 0-0.4-0.3-0.4-0.7 0-0.9 0.5-0.3 1.2-0.3 1.6 0 0.5 0.2 0.5 0.7 0 0.9z"/><path class="e" d="m26.5 97c-0.4 0.3-1.1 0.3-1.6 0-0.4-0.2-0.4-0.6 0-0.9 0.5-0.2 1.2-0.2 1.6 0 0.5 0.3 0.5 0.7 0 0.9z"/><path class="e" d="m29.7 98.9c-0.4 0.2-1.1 0.2-1.6 0-0.4-0.3-0.4-0.7 0-0.9 0.5-0.3 1.2-0.3 1.6 0 0.4 0.2 0.4 0.6 0 0.9z"/><path class="e" d="m32.9 100.7c-0.4 0.3-1.1 0.3-1.6 0-0.4-0.2-0.4-0.6 0-0.9 0.4-0.2 1.2-0.2 1.6 0 0.4 0.3 0.4 0.7 0 0.9z"/><path class="e" d="m36.1 102.6c-0.4 0.2-1.2 0.2-1.6 0-0.4-0.3-0.4-0.7 0-0.9 0.4-0.3 1.1-0.3 1.6 0 0.4 0.2 0.4 0.6 0 0.9z"/><path class="e" d="m39.3 104.4c-0.5 0.3-1.2 0.3-1.6 0-0.4-0.2-0.5-0.7 0-0.9 0.4-0.3 1.1-0.3 1.6 0 0.4 0.3 0.4 0.7 0 0.9z"/><path class="e" d="m42.5 106.3c-0.5 0.2-1.2 0.2-1.6 0-0.5-0.3-0.5-0.7 0-1 0.4-0.2 1.1-0.2 1.6 0 0.4 0.3 0.4 0.7 0 1z"/><path class="e" d="m45.7 108.1c-0.5 0.3-1.2 0.3-1.6 0-0.5-0.3-0.5-0.7 0-0.9 0.4-0.3 1.1-0.3 1.6 0 0.4 0.2 0.4 0.6 0 0.9z"/><path class="e" d="m7.4 87.8c-0.4 0.3-1.2 0.3-1.6 0-0.4-0.2-0.4-0.6 0-0.9 0.4-0.2 1.1-0.2 1.6 0 0.4 0.3 0.4 0.7 0 0.9z"/><path class="e" d="m10.6 89.7c-0.5 0.2-1.2 0.2-1.6 0-0.5-0.3-0.5-0.7 0-0.9 0.4-0.3 1.1-0.3 1.6 0 0.4 0.2 0.4 0.6 0 0.9z"/><path class="e" d="m13.8 91.5c-0.5 0.3-1.2 0.3-1.6 0-0.5-0.2-0.5-0.7 0-0.9 0.4-0.3 1.1-0.3 1.6 0 0.4 0.3 0.4 0.7 0 0.9z"/><path class="e" d="m17 93.4c-0.5 0.2-1.2 0.2-1.6 0-0.5-0.3-0.5-0.7 0-1 0.4-0.2 1.1-0.2 1.6 0 0.4 0.3 0.4 0.7 0 1z"/><path class="e" d="m20.1 95.2c-0.4 0.3-1.1 0.3-1.5 0-0.5-0.3-0.5-0.7 0-0.9 0.4-0.3 1.1-0.3 1.5 0 0.5 0.2 0.5 0.6 0 0.9z"/><path class="e" d="m23.3 97c-0.4 0.3-1.1 0.3-1.6 0-0.4-0.2-0.4-0.6 0-0.9 0.5-0.2 1.2-0.2 1.6 0 0.5 0.3 0.5 0.7 0 0.9z"/><path class="e" d="m26.5 98.9c-0.4 0.2-1.1 0.2-1.6 0-0.4-0.3-0.4-0.7 0-0.9 0.5-0.3 1.2-0.3 1.6 0 0.5 0.2 0.5 0.6 0 0.9z"/><path class="e" d="m29.7 100.7c-0.4 0.3-1.1 0.3-1.6 0-0.4-0.2-0.4-0.6 0-0.9 0.5-0.2 1.2-0.2 1.6 0 0.5 0.3 0.5 0.7 0 0.9z"/><path class="e" d="m32.9 102.6c-0.4 0.2-1.1 0.2-1.6 0-0.4-0.3-0.4-0.7 0-1 0.5-0.2 1.2-0.2 1.6 0 0.4 0.3 0.4 0.7 0 1z"/><path class="e" d="m36.1 104.4c-0.4 0.3-1.1 0.3-1.6 0-0.4-0.2-0.4-0.7 0-0.9 0.4-0.3 1.2-0.3 1.6 0 0.4 0.2 0.4 0.7 0 0.9z"/><path class="e" d="m39.3 106.3c-0.4 0.2-1.2 0.2-1.6-0.1-0.4-0.2-0.4-0.6 0-0.9 0.4-0.2 1.1-0.2 1.6 0 0.4 0.3 0.4 0.7 0 1z"/><path class="e" d="m42.5 108.1c-0.5 0.2-1.2 0.2-1.6 0-0.4-0.3-0.5-0.7 0-0.9 0.4-0.3 1.1-0.3 1.6 0 0.4 0.2 0.4 0.6 0 0.9z"/><path class="e" d="m45.7 109.9c-0.5 0.3-1.2 0.3-1.6 0-0.5-0.2-0.5-0.6 0-0.9 0.4-0.2 1.1-0.2 1.6 0 0.4 0.3 0.4 0.7 0 0.9z"/><path class="e" d="m7.4 89.7c-0.4 0.2-1.2 0.2-1.6 0-0.4-0.3-0.4-0.7 0-1 0.4-0.2 1.2-0.2 1.6 0.1 0.4 0.2 0.4 0.6 0 0.9z"/><path class="e" d="m10.6 91.5c-0.4 0.3-1.2 0.3-1.6 0-0.4-0.2-0.4-0.7 0-0.9 0.4-0.3 1.1-0.3 1.6 0 0.4 0.2 0.4 0.7 0 0.9z"/><path class="e" d="m13.8 93.4c-0.5 0.2-1.2 0.2-1.6-0.1-0.5-0.2-0.5-0.6 0-0.9 0.4-0.2 1.1-0.2 1.6 0 0.4 0.3 0.4 0.7 0 1z"/><path class="e" d="m17 95.2c-0.5 0.2-1.2 0.2-1.6 0-0.5-0.3-0.5-0.7 0-0.9 0.4-0.3 1.1-0.3 1.6 0 0.4 0.2 0.4 0.6 0 0.9z"/><path class="e" d="m20.2 97c-0.5 0.3-1.2 0.3-1.6 0-0.5-0.2-0.5-0.6 0-0.9 0.4-0.2 1.1-0.2 1.6 0 0.4 0.3 0.4 0.7 0 0.9z"/><path class="e" d="m23.3 98.9c-0.4 0.2-1.1 0.2-1.5 0-0.5-0.3-0.5-0.7 0-0.9 0.4-0.3 1.1-0.3 1.5 0 0.5 0.2 0.5 0.6 0 0.9z"/><path class="e" d="m26.5 100.7c-0.4 0.3-1.1 0.3-1.6 0-0.4-0.2-0.4-0.6 0-0.9 0.5-0.3 1.2-0.3 1.6 0 0.5 0.3 0.5 0.7 0 0.9z"/><path class="e" d="m29.7 102.6c-0.4 0.2-1.1 0.2-1.6 0-0.4-0.3-0.4-0.7 0-1 0.5-0.2 1.2-0.2 1.6 0 0.5 0.3 0.5 0.7 0 1z"/><path class="e" d="m32.9 104.4c-0.4 0.3-1.1 0.3-1.6 0-0.4-0.3-0.4-0.7 0-0.9 0.5-0.3 1.2-0.3 1.6 0 0.5 0.2 0.5 0.7 0 0.9z"/><path class="e" d="m36.1 106.2c-0.4 0.3-1.1 0.3-1.6 0-0.4-0.2-0.4-0.6 0-0.9 0.5-0.2 1.2-0.2 1.6 0 0.4 0.3 0.4 0.7 0 0.9z"/><path class="e" d="m39.3 108.1c-0.4 0.2-1.1 0.2-1.6 0-0.4-0.3-0.4-0.7 0-0.9 0.4-0.3 1.2-0.3 1.6 0 0.4 0.2 0.4 0.6 0 0.9z"/><path class="e" d="m42.5 109.9c-0.4 0.3-1.2 0.3-1.6 0-0.4-0.2-0.4-0.6 0-0.9 0.4-0.2 1.1-0.2 1.6 0 0.4 0.3 0.4 0.7 0 0.9z"/><path class="c" d="m43.9 116.3l-43.6-25.2v-3.2l43.6 25.2z"/><path class="f" d="m14.2 91v-2.6c0 0-1.2 0-2.4-0.7q-2.3-1.4-2.4-4.9-0.1-2.7 1.3-4.1c1.4-1.4 3.5-1.4 3.5-1.4l0.1-2.5c-0.2 0-3.2-0.1-5.4 2.1q-2.2 2.1-2.1 5.9c0.2 4.2 2.1 6.2 3.8 7.2 1.7 1 3.4 1 3.6 1z"/><path class="f" d="m13.9 90.3q0-0.1 0-0.3v-16.8h16.8v16.9 0.1c-0.1 1.2-0.9 2.4-2.5 3.3-3.3 1.9-8.6 1.9-11.9 0.1-1.5-0.9-2.3-2.1-2.4-3.3z"/><path class="g" d="m16.3 76.4c3.3 1.8 8.6 1.8 11.9-0.1 3.3-1.9 3.3-4.9 0-6.8-3.2-1.9-8.6-1.9-11.8 0-3.3 1.9-3.4 5-0.1 6.9z"/><path class="h" d="m22.2 77.6c2.2 0 4.3-0.5 5.9-1.4 1.5-0.9 2.3-2.1 2.3-3.3 0-1.2-0.8-2.4-2.3-3.2-1.5-0.9-3.6-1.4-5.8-1.4-2.2 0-4.3 0.5-5.8 1.4-1.5 0.9-2.4 2-2.4 3.2 0 1.3 0.8 2.4 2.4 3.3 1.5 0.9 3.5 1.4 5.7 1.4z"/><path class="h" d="m14.1 72.9c0 0.9 0.4 1.6 1.1 2.3q0.5 0.5 1.3 1c1.5 0.9 3.5 1.4 5.7 1.4 2.2 0 4.3-0.5 5.9-1.4q0.7-0.5 1.3-1c0.7-0.7 1-1.5 1-2.3 0-1.2-0.8-2.4-2.3-3.2-1.5-0.9-3.6-1.4-5.8-1.4-2.2 0-4.3 0.5-5.8 1.4-1.5 0.9-2.4 2-2.4 3.2z"/><path class="h" d="m15.2 75.2q0.5 0.5 1.3 1c1.5 0.9 3.5 1.4 5.7 1.4 2.2 0 4.3-0.5 5.9-1.4q0.7-0.5 1.3-1-0.6-0.5-1.3-1c-1.5-0.9-3.6-1.4-5.8-1.4-2.2 0-4.3 0.5-5.8 1.4q-0.8 0.5-1.3 1z"/><path class="i" d="m15.2 75.2q0.5 0.5 1.3 1c1.5 0.9 3.5 1.4 5.7 1.4 2.2 0 4.3-0.5 5.9-1.4q0.7-0.5 1.3-1-0.6-0.5-1.3-1c-1.5-0.9-3.6-1.4-5.8-1.4-2.2 0-4.3 0.5-5.8 1.4q-0.8 0.5-1.3 1z"/><path class="c" d="m26.2 65.9v-0.1-6.9l-0.7 0.1q-0.1-0.1-0.4-0.3c-1.5-0.9-3.9-0.9-5.4 0q-0.3 0.2-0.6 0.4l-0.5-0.3v7c0 0.5 0.3 1.1 1.1 1.6 1.5 0.8 3.9 0.8 5.4 0 0.7-0.4 1.1-1 1.1-1.5z"/><path class="f" d="m25.1 60.5c-1.5 0.8-3.9 0.8-5.4 0-1.5-0.9-1.5-2.3 0-3.2 1.5-0.8 3.9-0.8 5.4 0 1.5 0.9 1.5 2.3 0 3.2z"/><path class="d" d="m29.8 57.2q0-0.1 0-0.2v-6.4l-0.3 0.1c-0.3-0.7-0.9-1.4-1.9-1.9-2.9-1.7-7.6-1.7-10.5 0-0.9 0.5-1.5 1.2-1.9 1.9l-0.2-0.2v6.5q0 0 0 0.1c0 1.1 0.8 2.2 2.2 3 2.9 1.6 7.6 1.7 10.5 0 1.3-0.8 2.1-1.8 2.1-2.9z"/><path class="f" d="m27.7 53.7c-2.9 1.7-7.6 1.7-10.5 0-2.9-1.7-3-4.4-0.1-6.1 2.9-1.6 7.6-1.6 10.5 0.1 2.9 1.6 3 4.4 0.1 6z"/><path class="c" d="m45.3 76.9v-0.1q0 0 0 0v-7l-0.7 0.2q-0.2-0.2-0.4-0.3c-1.5-0.9-4-0.9-5.5 0q-0.3 0.2-0.5 0.4l-0.6-0.3v6.9c0 0.6 0.4 1.2 1.2 1.6 1.5 0.9 3.9 0.9 5.4 0 0.7-0.4 1.1-0.9 1.1-1.4z"/><path class="f" d="m44.2 71.4c-1.5 0.9-3.9 0.9-5.4 0-1.5-0.8-1.5-2.2-0.1-3.1 1.5-0.9 4-0.9 5.5 0 1.5 0.9 1.5 2.3 0 3.1z"/><path class="d" d="m48.9 68.2q0-0.2 0-0.3v-6.3h-0.3c-0.3-0.6-1-1.3-1.9-1.8-2.9-1.7-7.6-1.7-10.5 0-0.9 0.5-1.6 1.1-1.9 1.8l-0.3-0.1v6.4q0 0.1 0 0.2c0.1 1.1 0.8 2.1 2.2 2.9 2.9 1.7 7.6 1.7 10.5 0.1 1.4-0.8 2.1-1.9 2.2-2.9z"/><path class="f" d="m46.7 64.7c-2.9 1.7-7.6 1.6-10.5 0-2.9-1.7-2.9-4.4 0-6.1 2.9-1.7 7.6-1.7 10.5 0 2.9 1.7 2.9 4.4 0 6.1z"/><path class="b" d="m44 69.3l-43.7-25.2v-22.9l43.7 25.2z"/><path class="f" d="m0.9 43.8v-21.7l42.6 24.6v21.7z"/><path class="g" d="m37.9-0.1l-18.8 10.6-18.8 10.7 43.7 25.2 18.8-10.7 18.5-10.8z"/><path class="h" d="m62.8 35.7l-18.8 10.7v22.9l18.8-10.6v47l18.5-10.8v-70z"/><path class="e" d="m43.9 116.3l37.4-21.1v-3.2l-37.4 21.1z"/><path class="a" d="m41.5 30.1c-2.7 0-5.3-0.4-7.5-1.3q-1-0.4-1.9-0.9-0.8-0.5-1.5-1.1c-1.8-1.5-2.6-3.2-2.5-5 0.2-2 1.6-3.8 4-5.2 2.5-1.4 5.8-2.2 9.3-2.2 2.7 0 5.3 0.4 7.5 1.3q1 0.4 1.9 0.9 0.9 0.5 1.6 1.1c1.7 1.5 2.5 3.2 2.4 5-0.2 2-1.6 3.8-4 5.2-2.4 1.4-5.8 2.2-9.3 2.2z"/><path class="j" d="m52.1 18q-0.7-0.5-1.5-1-0.9-0.5-1.8-0.9c-5.2-2-12.1-1.7-16.5 0.9-4.4 2.5-5 6.5-1.5 9.5q0.7 0.5 1.5 1 0.9 0.5 1.9 0.9c5.1 2 12 1.7 16.4-0.9 4.4-2.5 5.1-6.5 1.5-9.5z"/><path class="h" d="m49.9 27.1c-4.1 2.4-10.5 2.7-15.2 0.8q-0.9-0.3-1.6-0.8-0.8-0.4-1.5-1c-3.2-2.7-2.7-6.4 1.4-8.7 4.1-2.4 10.5-2.7 15.2-0.8q0.9 0.3 1.7 0.8 0.8 0.5 1.4 1c3.2 2.7 2.7 6.4-1.4 8.7z"/><path fill-rule="evenodd" class="g" d="m50.6 27.5c-4.4 2.6-11.3 2.9-16.4 0.9q-1-0.4-1.9-0.9-0.8-0.5-1.5-1c-3.5-3-2.9-7 1.5-9.5 4.4-2.6 11.3-2.9 16.5-0.9q0.9 0.4 1.8 0.9 0.8 0.5 1.5 1c3.6 3 2.9 7-1.5 9.5zm-19-1.4l16.6-9.5c-4.7-1.9-11.1-1.6-15.2 0.8-4.1 2.3-4.6 6-1.4 8.7zm18.3 1c4.1-2.3 4.6-6 1.4-8.7l-16.6 9.5c4.7 1.9 11.1 1.6 15.2-0.8z"/><path class="f" d="m51.3 18.4c-2.2 3.4-5.1 6.3-8.2 8-3.1 1.9-6 2.3-8.3 1.5l16.5-9.5q0 0 0 0z"/><path class="b" d="m5.7 34.8q-0.1 0-0.1-0.1-0.1 0-0.2 0-0.1 0-0.2 0 0 0-0.1 0-0.1 0-0.2 0 0 0 0 0-0.1 0-0.3 0 0 0 0 0-0.1 0-0.2 0.1 0 0-0.1 0-0.1 0-0.2 0.1l1.8-1.1q0 0 0 0 0.1 0 0.2-0.1 0 0 0 0 0.1 0 0.1 0 0 0 0.1 0 0 0 0.1 0 0 0 0-0.1 0.1 0 0.1 0 0.1 0 0.2 0 0 0 0 0 0 0 0 0 0.1 0 0.2 0 0 0 0 0 0.1 0 0.1 0 0.1 0 0.1 0 0.1 0 0.1 0.1 0.1 0 0.2 0 0 0 0 0 0.1 0 0.1 0 0.1 0.1 0.2 0.1 0.1 0 0.1 0 0.1 0 0.1 0.1 0.2 0 0.4 0.2 0.3 0.1 0.6 0.4 0.1 0.1 0.2 0.2 0.2 0.1 0.3 0.2 0.1 0.1 0.1 0.2 0.1 0 0.2 0.1 0 0 0.1 0.1 0.1 0.2 0.3 0.3 0 0.1 0 0.2 0.1 0 0.1 0 0 0.1 0.1 0.1 0.1 0.2 0.2 0.3 0.1 0.2 0.1 0.3 0.1 0 0.1 0 0 0 0 0 0 0.2 0.1 0.3 0.1 0.1 0.1 0.3 0.1 0.1 0.2 0.2 0 0 0 0 0 0 0 0.1 0 0.1 0.1 0.3 0.1 0.1 0.1 0.3 0 0 0.1 0.1 0 0.1 0 0.1 0 0 0 0.1 0.1 0.2 0.1 0.4 0 0.1 0.1 0.2 0 0.1 0 0.1 0 0.1 0 0.1 0 0.4 0 0.7c0.1 1.1-0.3 1.8-0.9 2.1l-1.8 1.1c0.6-0.4 0.9-1.1 0.9-2.1q0-0.4 0-0.8 0-0.1 0-0.1-0.1-0.4-0.2-0.8 0 0 0 0-0.2-0.4-0.3-0.8 0 0 0 0-0.2-0.4-0.4-0.8 0 0 0 0-0.3-0.4-0.5-0.7 0-0.1-0.1-0.1-0.2-0.3-0.4-0.6-0.1 0-0.2-0.1-0.2-0.2-0.4-0.4-0.1-0.1-0.2-0.1-0.3-0.3-0.6-0.5-0.2-0.1-0.4-0.2-0.1 0-0.2 0-0.1-0.1-0.2-0.1z"/><path class="a" d="m6.5 35.1c-1.9-1-3.3-0.2-3.3 1.9 0 2.2 1.5 4.7 3.3 5.8 1.9 1 3.4 0.2 3.3-1.9 0-2.2-1.5-4.7-3.3-5.8z"/><path class="b" d="m32.1 49.9q-0.1 0-0.1-0.1-0.1 0-0.2 0-0.1 0-0.2 0 0 0-0.1 0-0.1 0-0.2 0 0 0 0 0-0.1 0-0.3 0 0 0 0 0-0.1 0-0.2 0.1 0 0-0.1 0-0.1 0-0.2 0.1 0 0 0 0l1.8-1.1q0 0 0 0 0.1 0 0.2 0 0-0.1 0-0.1 0.1 0 0.1 0 0 0 0.1 0 0 0 0.1 0 0 0 0 0 0.1-0.1 0.1-0.1 0.1 0 0.2 0 0 0 0 0 0 0 0 0 0.1 0 0.2 0 0 0 0 0 0.1 0 0.1 0 0.1 0 0.1 0 0.1 0 0.1 0.1 0.1 0 0.2 0 0 0 0 0 0.1 0 0.1 0 0.1 0.1 0.2 0.1 0.1 0 0.1 0 0 0 0.1 0.1 0.2 0 0.4 0.2 0.3 0.2 0.6 0.4 0.1 0.1 0.2 0.2 0.2 0.1 0.3 0.2 0.1 0.1 0.1 0.2 0.1 0 0.1 0.1 0.1 0 0.2 0.1 0.1 0.2 0.2 0.3 0.1 0.1 0.1 0.2 0.1 0 0.1 0 0 0.1 0.1 0.1 0.1 0.2 0.2 0.3 0.1 0.2 0.1 0.3 0 0 0.1 0 0 0 0 0.1 0 0.1 0.1 0.2 0.1 0.1 0.1 0.3 0.1 0.1 0.2 0.2 0 0 0 0 0 0.1 0 0.1 0 0.1 0.1 0.3 0.1 0.1 0.1 0.3 0 0 0.1 0.1 0 0.1 0 0.1 0 0.1 0 0.1 0.1 0.2 0.1 0.4 0 0.1 0.1 0.2 0 0.1 0 0.1 0 0.1 0 0.2 0 0.3 0 0.6c0 1.1-0.3 1.8-0.9 2.1l-1.8 1.1c0.6-0.3 0.9-1.1 0.9-2.1q0-0.4 0-0.8 0-0.1 0-0.1-0.1-0.4-0.2-0.7 0-0.1 0-0.1-0.2-0.4-0.3-0.8 0 0 0 0-0.2-0.4-0.4-0.8 0 0 0 0-0.3-0.4-0.5-0.7 0-0.1-0.1-0.1-0.2-0.3-0.5-0.6 0 0-0.1-0.1-0.2-0.2-0.4-0.4-0.1-0.1-0.2-0.1-0.3-0.3-0.6-0.5-0.2-0.1-0.4-0.2-0.1 0-0.2 0-0.1-0.1-0.2-0.1z"/><path class="a" d="m32.9 50.2c-1.9-1-3.3-0.2-3.3 1.9 0 2.2 1.5 4.7 3.3 5.8 1.9 1 3.3 0.2 3.3-1.9 0-2.2-1.5-4.7-3.3-5.8z"/><path class="k" d="m14.5 38.9v7.2l11.1 6.4 0.1-7.1z"/></svg>